<svg xmlns="http://www.w3.org/2000/svg" viewBox="0 0 150 150" style="enable-background:new 0 0 150 150" xml:space="preserve"><circle transform="matrix(1 -.00278 .00278 1 -.21 .209)" style="fill:#f9c7ac" cx="75" cy="75.42" r="72.26"/><path style="fill:#e2a27f" d="m139.59 83.8-23.24-27.51-34.98 27.34z"/><path style="fill:#f1b996" d="M110.55 83.71 74.14 49.83 37.73 83.71z"/><path style="fill:#e2a27f" d="M68.63 83.71 33.68 65.4 10.41 83.71z"/><path style="fill:#fc8781" d="M3.24 83.8c4.15 35.98 34.69 63.88 71.76 63.88 37.07 0 67.61-27.91 71.76-63.88H3.24z"/><path style="fill:#ff9794" d="M145.76 90.03c.42-2.05.76-4.13 1.01-6.23H3.24c.24 2.11.59 4.18 1.01 6.23h141.51z"/><path style="fill:#ed6e64" d="M6.73 99.04c9.79 28.31 36.65 48.64 68.28 48.64 31.63 0 58.49-20.33 68.28-48.64H6.73z"/><path style="fill:#dd5d57" d="M16.65 117.97c13.13 18 34.36 29.71 58.35 29.71 23.99 0 45.22-11.71 58.35-29.71H16.65z"/><path style="fill:#fff" d="M51.17 29.02h-5.09c-.64 0-1.17-.52-1.17-1.17s.52-1.17 1.17-1.17h4.06c.54-2.29 2.65-3.95 5.11-3.87a4.358 4.358 0 0 1 3.61-2.18 5.636 5.636 0 0 1 4.79-2.66c2.38 0 4.48 1.49 5.29 3.66 2.36.33 4.26 2.13 4.75 4.44h7.28c.64 0 1.17.52 1.17 1.17s-.52 1.17-1.17 1.17h-8.32c-.64 0-1.17-.52-1.17-1.17 0-1.84-1.5-3.33-3.33-3.33-.31.07-.55 0-.81-.17s-.36-.46-.42-.77a3.313 3.313 0 0 0-3.26-2.67c-1.32 0-2.51.78-3.04 1.99-.21.47-.67.76-1.21.69-1.03-.13-2.03.45-2.34 1.45-.18.59-.8.95-1.41.78-.19-.05-.4-.08-.62-.08-1.49 0-2.71 1.22-2.71 2.71 0 .66-.52 1.18-1.16 1.18zM107.8 51.07h-3.34c-.64 0-1.17-.52-1.17-1.17 0-.64.52-1.17 1.17-1.17h2.36a3.733 3.733 0 0 1 3.44-2.55c.54-.79 1.4-1.31 2.37-1.41a4.106 4.106 0 0 1 3.37-1.76c1.65 0 3.11.99 3.76 2.44 1.5.3 2.71 1.42 3.14 2.87h4.46c.64 0 1.17.52 1.17 1.17 0 .64-.52 1.17-1.17 1.17h-5.46c-.64 0-1.17-.52-1.17-1.17 0-.98-.8-1.78-1.78-1.78-.3.07-.53 0-.79-.18-.26-.17-.35-.45-.41-.76a1.769 1.769 0 0 0-3.36-.36c-.21.47-.69.76-1.22.69-.6-.04-.97.26-1.1.67-.18.6-.8.95-1.41.78-.72-.2-1.68.47-1.68 1.34-.01.66-.53 1.18-1.18 1.18zM20.82 59.55h-3c-.64 0-1.17-.52-1.17-1.17 0-.64.52-1.17 1.17-1.17h2.04a3.449 3.449 0 0 1 3.11-2.28c.49-.69 1.26-1.16 2.12-1.26.71-.98 1.85-1.59 3.09-1.59 1.5 0 2.84.89 3.45 2.21 1.33.29 2.41 1.28 2.82 2.56h3.92c.64 0 1.17.52 1.17 1.17s-.52 1.17-1.17 1.17h-4.9c-.64 0-1.17-.52-1.17-1.17 0-.82-.66-1.48-1.48-1.48-.31.07-.52.01-.79-.16s-.34-.46-.4-.77a1.47 1.47 0 0 0-1.45-1.18c-.59 0-1.12.35-1.35.88-.2.47-.66.76-1.2.69-.44-.12-.77.2-.87.52-.19.6-.81.95-1.43.78-.93-.04-1.34.48-1.34 1.09 0 .64-.52 1.16-1.17 1.16z"/><path style="fill:#f98d5d" d="M92.55 27.07c0 3.52 2.87 6.39 6.41 6.39s6.41-2.87 6.41-6.39a6.41 6.41 0 0 0-12.82 0z"/><path d="M75 1C34.18 1 .99 34.19.99 74.99.99 115.81 34.18 149 75 149c40.79 0 74.01-33.19 74.01-74.01C149.01 34.19 115.79 1 75 1zm32.59 81.54H68.92l-18.07-9.46 23.29-21.66c3.43 3.19-12.41-11.54 33.45 31.12zm3.43.02L98.96 71.35l17.23-13.45 20.89 24.73-26.06-.07zm-47.12-.02H13.78L33.8 66.78c3.09 1.61-11.14-5.83 30.1 15.76zm80.89 2.43a65.04 65.04 0 0 1-3.12 12.91H8.33a64.354 64.354 0 0 1-3.12-12.91h139.58zm-13.05 31.84H18.26a68.789 68.789 0 0 1-9.09-16.6h131.66a68.789 68.789 0 0 1-9.09 16.6zM75 145.5c-22.19 0-42.01-10.3-54.92-26.36h109.84C117.01 135.2 97.19 145.5 75 145.5zm0-141c38.88 0 70.52 31.61 70.52 70.49 0 2.59-.14 5.13-.42 7.65h-4.97l-22.89-27.09c-.4-.49-1.12-.56-1.61-.16L97.24 69.74 74.93 48.97c-.44-.42-1.14-.42-1.58 0L48.68 71.93l-14.45-7.58c-.42-.21-.91-.16-1.26.12L9.89 82.63H4.9c-.28-2.52-.42-5.06-.42-7.65C4.48 36.11 36.12 4.5 75 4.5z"/><path d="M98.96 34.61c4.17 0 7.58-3.38 7.58-7.55s-3.4-7.58-7.58-7.58c-4.17 0-7.58 3.4-7.58 7.58.01 4.17 3.41 7.55 7.58 7.55zm0-12.79c2.89 0 5.24 2.35 5.24 5.24s-2.35 5.22-5.24 5.22-5.24-2.33-5.24-5.22c0-2.89 2.35-5.24 5.24-5.24z"/></svg>