<svg xmlns="http://www.w3.org/2000/svg" viewBox="0 0 150 150" style="enable-background:new 0 0 150 150" xml:space="preserve"><circle style="fill:#ace8d2" cx="75.13" cy="74.94" r="73.1"/><path style="fill:#fff" d="M126.61 37.51h-3.37c-.3 0-.54-.24-.54-.54 0-1.12-.91-2.02-2.02-2.02-.17 0-.32.02-.46.06a.535.535 0 0 1-.66-.36c-.24-.77-1.05-1.22-1.79-1.12a.53.53 0 0 1-.56-.32 2.423 2.423 0 0 0-4.6.49c-.03.15-.12.27-.24.35-.13.08-.28.11-.42.07-1.27.01-2.36 1.1-2.36 2.45 0 .3-.24.54-.54.54h-5.5c-.3 0-.54-.24-.54-.54 0-.3.24-.54.54-.54h5c.24-1.57 1.52-2.8 3.12-2.96.47-1.41 1.8-2.4 3.33-2.4 1.26 0 2.42.68 3.04 1.76h.01c1.02 0 1.93.57 2.38 1.45.09-.01.18-.01.27-.01 1.53 0 2.8 1.11 3.05 2.57h2.87c.3 0 .54.24.54.54-.01.29-.25.53-.55.53zM55.71 36.81h-3.37c-.3 0-.54-.24-.54-.54 0-1.12-.91-2.02-2.02-2.02-.17 0-.32.02-.47.06a.537.537 0 0 1-.65-.36c-.24-.77-1.05-1.23-1.79-1.12-.23.02-.47-.1-.56-.32a2.423 2.423 0 0 0-4.6.49c-.03.15-.12.27-.24.35-.13.08-.28.11-.42.07-1.27.01-2.36 1.1-2.36 2.44 0 .3-.24.54-.54.54h-5.5c-.3 0-.54-.24-.54-.54 0-.3.24-.54.54-.54h5a3.505 3.505 0 0 1 3.12-2.95c.47-1.41 1.8-2.4 3.33-2.4 1.26 0 2.42.68 3.04 1.76 1.02 0 1.93.57 2.39 1.46.09-.01.18-.01.27-.01 1.53 0 2.8 1.11 3.05 2.57h2.88c.3 0 .54.24.54.54-.02.28-.26.52-.56.52z"/><path style="fill:#fff" d="M106.47 75.67c-6.06 10.73-19.74 14.48-30.52 8.37-.38-.21-.78-.42-1.13-.66-2.81 2.22-6.06 3.7-9.46 4.39-4.32 7.45-13.11 10.8-21.08 8.56-.14 1.65-.64 3.3-1.51 4.83-3.3 5.85-10.78 7.9-16.6 4.57a12.005 12.005 0 0 1-5-5.4c-.61.97-1.32 1.89-2.08 2.74a21.8 21.8 0 0 1-8.63 5.99c-5.4-10.19-8.44-21.81-8.44-34.12 0-15.99 5.14-30.77 13.84-42.83 7.33-1.84 15.35-.94 22.47 3.07 4.76 2.71 8.54 6.49 11.13 10.85 6.7-3.82 15.21-4.1 22.4-.02.47.28.94.57 1.42.87 6.91-5.31 16.63-6.3 24.71-1.72 6.11 3.47 10 9.36 11.06 15.78.84 4.88.06 10.09-2.58 14.73z"/><path style="fill:#fff" d="M148.24 74.94c0 3.3-.21 6.58-.66 9.76v.02a22.044 22.044 0 0 1-6.18 7.1c-.71 8.61-7.22 15.4-15.38 16.79.59 1.56.85 3.25.73 5.02-.5 6.7-6.34 11.74-13.04 11.27-2.59-.19-4.93-1.2-6.82-2.74-1.49 11.65-11.84 20.21-23.68 19.36-8.63-.61-15.75-6.06-18.91-13.51-3.3 1.51-6.98 2.24-10.87 1.96-11.79-.85-20.82-10.75-20.63-22.45-1.25.24-2.5.33-3.8.24-3.94-.28-7.43-2.05-9.9-4.69-1.11-1.16-2-2.5-2.69-3.99a21.662 21.662 0 0 1-9.03-19.17c.87-11.96 11.3-20.96 23.28-20.09 4.29.31 8.21 1.82 11.41 4.24 2.92-4.36 8.04-7.05 13.68-6.65 5.99.42 10.89 4.29 12.95 9.5 6.08-7.31 15.47-11.7 25.7-10.97 5.45.4 10.45 2.17 14.67 4.98.02.02.05.02.07.05a22.607 22.607 0 0 1 20.19-9.65c.57.02 1.11.09 1.67.16a22.2 22.2 0 0 1 9.39-9.55 72.978 72.978 0 0 1 7.85 33.01z"/><path style="fill:#80c46e" d="M142.65 102.93c-10.97 26.48-37.05 45.11-67.52 45.11-30.7 0-57-18.91-67.8-45.75a72.747 72.747 0 0 1-5.31-27.36c0-4.65.42-9.17 1.25-13.58 3.54.35 7.03.9 10.45 1.6 14.64 3.02 27.87 8.73 40.58 14.72 8.58 4.03 17.07 8.23 25.94 11.91 4.27 1.79 8.65 3.44 13.16 4.91 15.48 5.03 32.25 7.57 49.25 8.44z"/><path style="fill:#94d182" d="M142.65 102.93a71.575 71.575 0 0 1-8.18 14.64c-15.42-2.71-30.61-6.93-44.66-13.28-4.34-1.93-8.54-4.06-12.64-6.32-8.51-4.62-16.67-9.74-24.93-14.69-12.19-7.36-24.9-14.48-38.98-19.08-3.28-1.06-6.6-1.98-10-2.71 0-.05.02-.09.02-.14 3.54.35 7.03.9 10.45 1.6 14.64 3.02 27.87 8.73 40.58 14.72 8.58 4.03 17.07 8.23 25.94 11.91 4.27 1.79 8.65 3.44 13.16 4.91 15.47 5.03 32.24 7.57 49.24 8.44zM3.25 61.5c-.19 1.06-.38 2.12-.52 3.18.12-1.08.31-2.15.5-3.18h.02z"/><path style="fill:#80c46e" d="M148.21 74.94c0 9.9-1.98 19.36-5.57 27.99-10.97 26.48-37.05 45.11-67.52 45.11-30.7 0-57-18.91-67.8-45.75 4.5.47 9.03.78 13.58.92 17.05.52 34.43-1.65 49.97-8.73 3.21-1.46 6.32-3.11 9.36-4.91 6.32-3.66 12.38-7.88 18.49-11.91 9.06-5.99 18.46-11.7 28.91-14.72 6.23-1.79 12.88-2.52 19.27-1.75.87 4.48 1.31 9.06 1.31 13.75z"/><path style="fill:#71b25f" d="M146.94 61.38c-6.44.02-12.92 1.58-18.87 4.15-10 4.29-18.61 11.13-26.84 18.23-5.57 4.76-11.04 9.72-16.86 14.13-2.78 2.17-5.66 4.2-8.65 6.04-14.55 8.96-31.51 13.3-48.48 14.93-3.35.31-6.7.54-10.05.68-4.01-5.24-7.36-11.01-9.86-17.24 4.5.47 9.03.78 13.58.92 17.05.52 34.43-1.65 49.97-8.73 3.21-1.46 6.32-3.11 9.36-4.91 6.32-3.66 12.38-7.88 18.49-11.91 9.06-5.99 18.46-11.7 28.91-14.72 6.23-1.79 12.88-2.52 19.27-1.75.01.07.03.14.03.18z"/><path style="fill:#fff" d="M93.75 19.73H88.9c-.3 0-.54-.24-.54-.54a3.15 3.15 0 0 0-3.15-3.15c-.26 0-.51.03-.73.09a.543.543 0 0 1-.66-.36c-.38-1.21-1.63-1.94-2.83-1.77-.25.03-.47-.1-.57-.32A3.722 3.722 0 0 0 77 11.44c-1.78 0-3.32 1.26-3.66 3a.547.547 0 0 1-.68.42c-2.01.01-3.68 1.69-3.68 3.75 0 .3-.24.54-.54.54h-7.92c-.3 0-.54-.24-.54-.54 0-.3.24-.54.54-.54h7.41c.26-2.3 2.13-4.11 4.46-4.27.6-2.02 2.47-3.44 4.61-3.44 1.78 0 3.4.98 4.23 2.53 1.5-.03 2.83.78 3.44 2.11.17-.02.35-.03.53-.03 2.15 0 3.93 1.61 4.19 3.69h4.34c.3 0 .54.24.54.54.02.29-.22.53-.52.53z"/><path d="M75.12.07C33.84.07.26 33.66.26 74.94s33.58 74.87 74.86 74.87c41.29 0 74.88-33.59 74.88-74.87S116.41.07 75.12.07zm0 146.21a70.89 70.89 0 0 1-32.21-7.72c62.68-18.75 62.62-66.41 102.56-75.42.64 3.84 1 7.79 1 11.81-.01 39.32-32.01 71.33-71.35 71.33zm2.49-56.57c-21.36 11.99-44.57 13.88-68.76 11.53a70.761 70.761 0 0 1-5.05-26.3c0-4.16.38-8.24 1.07-12.21 27 3.18 48.41 16.6 72.74 26.98zm62.59-27.55c-38.59 13.21-37.75 57.14-100.27 74.79-13.24-7.55-23.84-19.2-30.05-33.23 78.07 7.05 87.85-40.11 130.32-41.56zm4.65-2.26c-25.31-1.77-45 16.86-64.69 28.36-6.61-2.76-13.11-5.85-19.4-8.84-13.42-6.38-26.32-12.48-40.93-16.24 3.21-1.63 6.89-2.46 10.74-2.18 3.96.28 7.69 1.67 10.78 4.01.26.2.59.28.91.22.32-.05.6-.24.78-.51 6.22-9.27 20.44-7.8 24.55 2.63.15.39.5.67.91.73.4.07.82-.09 1.09-.41 9.8-11.79 26.68-13.82 38.8-5.77.02.02.04.03.06.04.23.16.52.23.8.2.34-.04.64-.22.84-.5 4.27-6.17 11.63-9.68 19.17-9.14 1.44.05 2.26.52 2.77-.48 1.67-3.28 4.24-6.08 7.32-8.08 2.45 5.03 4.3 10.38 5.5 15.96zm-75.84 4.89C63.42 54.37 49 53.28 41.81 62.43c-3.25-2.19-7.05-3.49-11.06-3.78-5.22-.38-10.16 1.06-14.23 3.74-2.68-.61-5.27-1.26-11.22-1.96 2.09-10.09 6.33-19.39 12.2-27.44 6.9-1.4 14.05-.29 20.28 3.22 10.06 5.73 9.97 12.16 12.3 10.85 6.54-3.74 14.68-3.74 21.21-.03.46.27.92.55 1.38.85.42.27.96.25 1.36-.06 11.78-9.05 29.01-3.49 33.24 10.73-13.2-7.1-28.71-3.97-38.26 6.24zm6.11-61.18c27.41 0 51.24 15.54 63.19 38.26-3.28 2.09-6.08 4.96-7.97 8.36-.32-.03-.62-.06-.93-.07-7.54-.53-14.89 2.62-19.74 8.28-4.32-15.94-23.17-22.47-36.43-12.99-.26-.16-.51-.31-.78-.47-6.95-3.94-15.49-4.11-22.57-.52-6.39-9.9-18.1-15.64-30.32-14.2C32.65 14.03 52.69 3.61 75.12 3.61z"/></svg>