<svg xmlns="http://www.w3.org/2000/svg" viewBox="0 0 150 150" style="enable-background:new 0 0 150 150" xml:space="preserve"><circle style="fill:#d7f7ff" cx="75" cy="75" r="72.66"/><path style="fill:#fff" d="M142.99 75.28c.66 2.02.98 4.17.84 6.45-.56 9.7-8.91 17.09-18.56 16.52-2.44-.14-4.76-.8-6.84-1.83a15.725 15.725 0 0 1-8.48 4.73 20.299 20.299 0 0 1-19.87 12.21 20.387 20.387 0 0 1-18.66-15.59c-3.45 3.14-8.13 4.95-13.15 4.64-9.89-.59-17.46-9.07-16.9-18.96.09-1.45.35-2.84.77-4.17-.21-.05-.42-.14-.61-.21.05.4.05.84.02 1.27-.33 5.84-5.32 10.29-11.16 9.96-2.77-.16-5.18-1.36-6.94-3.21-2.41 1.1-5.13 1.62-7.95 1.45-5.34-.3-10.01-3.05-12.89-7.08-.19-2.13-.28-4.29-.28-6.47 0-5.27.56-10.43 1.64-15.4 1.78-8.25 4.97-15.98 9.28-22.95 1.15-.28 2.37-.37 3.63-.3 5.81.33 10.5 4.52 11.67 9.89.19-.02.35 0 .52 0 4.85.28 9.02 2.74 11.67 6.4 1.85-.73 3.91-1.08 6.05-.96 3.7.21 6.91 1.8 9.28 4.22 2.58-2.13 5.93-3.33 9.49-3.12 7.36.42 13.05 6.73 12.75 14.06 2.18-1.01 4.57-1.48 7.1-1.34.54.05 1.03.09 1.57.16a13.89 13.89 0 0 1 12.77-6.73c.42.02.87.07 1.31.14 1.73-6.63 8.02-11.34 15.14-10.92 2.67.14 5.11 1.01 7.22 2.39 2.46-6.12 8.16-10.52 14.84-11.25 5.55 9.8 8.88 20.98 9.33 32.91.02.59.02 1.15.02 1.71-1.43.67-3 1.14-4.62 1.38z"/><path style="fill:#80c46e" d="M85.45 115.49c-4.41 14.81-26.34 21.94-52.66 18.63-2.88-2.06-5.65-4.34-8.2-6.82C10.87 114.11 2.34 95.55 2.34 74.99c0-5.27.56-10.43 1.64-15.4 8.74.09 18.28 1.43 28.03 4.17.63.14 1.24.33 1.88.52 3.02.89 5.98 1.9 8.81 3 10.01 3.84 18.8 8.79 25.8 14.34 13.27 10.48 20.19 23 16.95 33.87z"/><path style="fill:#94d182" d="M85.45 115.49c-1.38 4.64-4.5 8.53-8.93 11.58.09-.14.16-.28.23-.45 4.73-10.31-.35-23.67-12-35.91-6.16-6.49-14.18-12.63-23.53-17.84-2.65-1.5-5.44-2.91-8.32-4.22-.59-.26-1.17-.54-1.78-.77-9.26-4.08-18.52-6.75-27.16-8.06-.02.05-.05.12-.05.16.02-.14.05-.26.07-.4 8.74.09 18.28 1.43 28.03 4.17.63.14 1.24.33 1.88.52 3.02.89 5.98 1.9 8.81 3 10.01 3.84 18.8 8.79 25.8 14.34 13.27 10.49 20.19 23.01 16.95 33.88z"/><path style="fill:#ffeccd" d="M70.94 121.71h-40.9c-.19-1.12-.42-2.25-.59-3.4-1.36-8.32-1.71-16.69-1.57-24.87.16-8.16 1.2-16.2 2.79-23.95.4-1.92.84-3.82 1.34-5.72.63.14 1.24.33 1.88.52 3.02.89 5.98 1.9 8.81 3 .16.75.33 1.48.49 2.2 1.66 7.01 3.82 13.76 6.68 20.11 2.81 6.35 5.98 12.4 9.8 17.91 3.33 5.15 7.29 9.81 11.27 14.2z"/><path style="fill:#80c46e" d="M147.66 74.99c0 17.48-6.16 33.49-16.43 46.01-8.23 10.05-19.1 17.86-31.57 22.36A72.703 72.703 0 0 1 75 147.65c-.73 0-1.45 0-2.18-.02-.45-.02-.89-.05-1.34-.07-.77-.02-1.55-.07-2.32-.14-.82-.07-1.62-.14-2.44-.23-1.22-.14-2.41-.3-3.61-.49-.61-.09-1.22-.21-1.83-.33-.3-.07-.61-.12-.94-.19-.63-.12-1.24-.26-1.88-.4-.54-.14-1.1-.28-1.64-.42-.75-.19-1.52-.4-2.27-.63-.63-.16-1.22-.35-1.83-.54-1.15-.38-2.3-.77-3.42-1.22-.7-.26-1.41-.52-2.09-.82-1.85-.75-3.66-1.59-5.41-2.48-.7-.38-1.38-.75-2.06-1.13-.82-.45-1.62-.91-2.41-1.41a70.058 70.058 0 0 1-6.68-4.59c-.63-.47-1.27-.98-1.87-1.48-1.45-1.2-2.84-2.44-4.2-3.75 2.55-14.51 15.7-29.72 35.23-41.09 2.44-1.41 4.97-2.77 7.59-4.05.35-.19.73-.35 1.1-.54 5.25-2.53 10.87-4.78 16.8-6.68 23.16-7.43 45.77-7.97 62.3-2.74.03.91.06 1.85.06 2.78z"/><path style="fill:#71b25f" d="M147.61 72.21v.02c-16.99-3.4-39.4-.42-61.62 9.47-5.7 2.53-11.04 5.39-15.98 8.46-.35.23-.7.45-1.03.66-2.46 1.57-4.85 3.21-7.1 4.85-15.54 11.48-26.13 25.22-29.48 38.16-.59-.42-1.17-.84-1.73-1.29-.63-.47-1.27-.98-1.87-1.48-1.45-1.2-2.84-2.44-4.2-3.75 2.55-14.51 15.7-29.72 35.23-41.09 2.44-1.41 4.97-2.77 7.59-4.05.35-.19.73-.35 1.1-.54 5.25-2.53 10.87-4.78 16.8-6.68 23.15-7.43 45.77-7.97 62.29-2.74z"/><path style="fill:#fff" d="M87.07 24.11h-5.01c-.65 0-1.17-.52-1.17-1.17 0-1.46-1.19-2.65-2.64-2.65-.22 0-.42.03-.6.07-.62.17-1.23-.19-1.42-.79-.3-.97-1.29-1.52-2.28-1.41-.51.07-1.02-.22-1.22-.7a3.24 3.24 0 0 0-6.15.66c-.06.31-.25.59-.52.76-.27.18-.6.22-.91.15-1.6.03-3.06 1.49-3.06 3.28 0 .65-.52 1.17-1.17 1.17h-8.2c-.65 0-1.17-.52-1.17-1.17 0-.65.52-1.17 1.17-1.17h7.15c.49-2.27 2.35-4.04 4.67-4.37.81-2.13 2.88-3.6 5.23-3.6 1.95 0 3.72 1.01 4.73 2.62 1.5.07 2.82.88 3.56 2.15 2.43-.04 4.5 1.57 5.04 3.82h3.98c.65 0 1.17.52 1.17 1.17s-.53 1.18-1.18 1.18zM105.31 47.25h-3.96c-.65 0-1.17-.52-1.17-1.17 0-1.02-.83-1.85-1.84-1.85-.16 0-.29.02-.41.05a1.17 1.17 0 0 1-1.43-.79c-.2-.65-.89-1.02-1.53-.94-.53.07-1.01-.22-1.22-.7a2.314 2.314 0 0 0-4.39.47c-.06.3-.24.57-.5.75-.26.17-.58.23-.88.17-1.13.02-2.17 1.06-2.17 2.34 0 .65-.52 1.17-1.17 1.17h-6.47c-.65 0-1.17-.52-1.17-1.17s.52-1.17 1.17-1.17h5.45a4.71 4.71 0 0 1 3.71-3.43c.71-1.71 2.4-2.87 4.31-2.87 1.58 0 3.02.79 3.87 2.08 1.17.09 2.19.72 2.81 1.68h.02c1.9 0 3.51 1.28 4.02 3.02h2.95c.65 0 1.17.52 1.17 1.17s-.53 1.19-1.17 1.19z"/><circle transform="rotate(-22.5 106.141 27.942)" style="fill:#ffd37e" cx="106.15" cy="27.94" r="7.44"/><path style="fill:#ffeccd" d="M131.23 121c-2.72 3.3-5.7 6.38-8.95 9.16-.75.63-1.52 1.29-2.32 1.9-4.66 3.68-9.77 6.8-15.28 9.28-.45.19-.87.38-1.29.54-.47.21-.94.4-1.41.59-.77.3-1.55.61-2.32.89-1.36-4.45-2.95-8.95-4.99-13.27-2.67-6.16-6.14-12.02-10.05-17.77-3.89-5.77-8.51-11.18-13.57-16.29-3.47-3.47-7.22-6.82-11.23-9.82 2.44-1.41 4.97-2.77 7.59-4.05 3.42.91 6.84 2.02 10.24 3.23 7.41 2.74 14.79 6.09 21.82 10.29 7.01 4.15 13.95 8.88 20.3 14.44 4.03 3.36 7.82 7.01 11.46 10.88z"/><path d="M75 0C33.65 0 0 33.65 0 75s33.65 75 75 75 75-33.65 75-75S116.35 0 75 0zM16.83 37.52c5.15.29 9.5 3.98 10.59 8.97.13.59 1.01 1 1.59.92 8.91.52 10.14 7.13 12.17 6.32 4.69-1.84 10.28-.88 14.06 2.99 1.66 1.68 3.01-3.15 10.26-2.77 6.7.38 11.92 6.15 11.65 12.84-.02.41.18.79.52 1.02 1.33.88 2.68-1.84 9.17-.98.46.06.92-.16 1.16-.56 2.45-4.09 6.98-6.43 11.71-6.16.96.05 2.19.5 2.51-.73 2.32-8.86 12.79-12.95 20.58-7.85.62.41 1.46.14 1.73-.54 2.08-5.18 6.54-8.91 11.89-10.15 4.93 8.82 8 18.81 8.71 29.44-23.91-6.41-53.7-.83-76.48 9.99-15.84-12.32-39.3-20.87-62-21.72a69.75 69.75 0 0 1 8.91-21.03c.41-.02.83-.03 1.27 0zM75 145.31c-18.95 0-36.16-7.55-48.82-19.78 3.24-13.28 15.58-27.26 33.55-37.89 16.07 12.26 30.88 31.55 38.1 53.85A70.191 70.191 0 0 1 75 145.31zm-42.14-80.1c3.12.91 5.46 1.66 8.84 2.95.37 1.27 1.71 10.14 7.8 23.42-8.39 6.16-15.1 13.07-19.67 20.16-1.7-15.9-.71-31.49 3.03-46.53zM145.31 75c0 16.35-5.62 31.4-15.02 43.35C113.45 101 92.58 88.4 70.7 81.91c22.36-10.36 51.44-15.65 74.56-9.16.02.75.05 1.49.05 2.25zM51.44 90.19c-5.01-10.95-6.7-19.6-7.1-20.99 8.21 3.34 15.72 7.52 21.95 12.22-5.17 2.58-9.75 5.2-14.85 8.77zm10.51-3.81c1.73-.97 3.84-2.09 5.59-2.96 21.46 5.82 43.55 18.44 61.28 36.77-7.63 9.08-17.52 16.2-28.78 20.5-7.2-22.19-21.82-41.59-38.09-54.31zM6.12 60.85c7.97.26 16.18 1.53 24.49 3.77-4.14 16.62-4.96 33.84-2.76 50.43-1.56 2.85-2.76 5.71-3.58 8.55C7.66 106.28 1.64 82.69 6.12 60.85zM75 4.69c25.5 0 47.88 13.65 60.2 34.03-5.35 1.45-9.84 5.11-12.29 10.15-8.64-4.7-19.59-.33-22.67 8.93-5.3-.45-10.7 1.92-13.84 6.62-2.35-.24-4.53-.09-6.94.71-.91-11.4-13.99-17.44-23.3-10.77-4.16-3.71-9.86-4.77-15-3.11-2.85-3.54-7-5.74-11.68-6.15-1.6-5.52-6.57-9.52-12.41-9.9C29.78 16.78 51 4.69 75 4.69z"/><path d="M106.15 36.56c4.75 0 8.62-3.87 8.62-8.62 0-4.75-3.87-8.62-8.62-8.62-4.75 0-8.62 3.87-8.62 8.62 0 4.75 3.86 8.62 8.62 8.62zm0-14.89c3.46 0 6.27 2.82 6.27 6.27s-2.81 6.27-6.27 6.27-6.27-2.81-6.27-6.27 2.81-6.27 6.27-6.27z"/></svg>