<svg xmlns="http://www.w3.org/2000/svg" viewBox="0 0 150 150" style="enable-background:new 0 0 150 150" xml:space="preserve"><circle style="fill:#d7f7ff" cx="75.01" cy="75" r="73.23"/><path style="fill:#efc16f" d="M148.25 75.01c0 10.58-2.24 20.6-6.26 29.67H8.04c-4.02-9.07-6.26-19.09-6.26-29.67 0-2.29.09-4.56.31-6.8 7.23-1.37 17.79-4.63 28.61-10.58 3.05-1.68 6.28-3.54 9.66-5.46 1.46-.8 2.95-1.63 4.46-2.46.24-.12.47-.26.71-.38.71-.4 1.44-.78 2.17-1.18 3-1.58 6.09-3.14 9.26-4.58.99-.45 2.03-.9 3.05-1.35.66-.28 1.32-.57 2.01-.83.57-.21 1.13-.45 1.7-.66 1.7-.64 3.43-1.23 5.15-1.77.02-.02.05-.02.07-.02 1.11-.33 2.24-.66 3.38-.94 1.44-.38 2.88-.71 4.32-.94a63.4 63.4 0 0 1 4.3-.59c.57-.05 1.16-.09 1.72-.12.83-.07 1.65-.09 2.48-.09 14.43 0 46.92 17.15 61.92 25.51a73.1 73.1 0 0 1 1.19 13.24z"/><path d="M148.25 75.01c0 10.58-2.24 20.6-6.26 29.67H72.87s1.98-1.02 13.65-22.56c11.65-21.57-13.21-9.26-16.06-21.36-2.86-12.1 7.7-12.1 12.09-16.7 3.95-4.16.78-7.16.12-7.72.83-.07 1.65-.09 2.48-.09 14.43 0 46.92 17.15 61.92 25.51.78 4.29 1.18 8.74 1.18 13.25z" style="opacity:.15"/><path style="fill:#ffe1b0" d="M8.07 104.69c11.39 25.65 37.07 43.54 66.94 43.54 29.87 0 55.55-17.89 66.94-43.54H8.07z"/><path style="fill:#ffe1b0" d="M22.24 125.7c13.31 13.87 32.02 22.53 52.77 22.53s39.45-8.65 52.77-22.53H22.24z"/><path d="M75.01 0C33.65 0 0 33.64 0 75s33.65 75 75.01 75c41.35 0 74.99-33.64 74.99-75S116.36 0 75.01 0zM23.56 124.52a72.275 72.275 0 0 1-7.13-8.66h117.15a71.33 71.33 0 0 1-7.13 8.66H23.56zm-8.71-11.03a72.011 72.011 0 0 1-4.28-7.63h128.88a72.011 72.011 0 0 1-4.28 7.63H14.85zm109.21 13.39c-12.81 12.12-30.07 19.58-49.05 19.58-18.99 0-36.26-7.46-49.07-19.58h98.12zM146.46 75c0 10.13-2.13 19.76-5.94 28.5H75.37c2.45-3.45 6.68-10.66 12.18-20.83C99.71 60.18 74.05 70.86 71.6 60.5c-1.82-7.69 2.07-9.75 6.58-12.13 4.74-2.51 9.51-6.22 6.95-10.94.72.26 11.71-2.14 60.14 24.69.77 4.18 1.19 8.48 1.19 12.88zM82.27 37.55c1.42 1.2 1.79 3.21-.57 5.69-4.05 4.25-15.46 4.83-12.39 17.81 3.25 13.76 27.27-.03 16.17 20.5-9.38 17.35-12.43 21.24-13.02 21.95H9.49A70.965 70.965 0 0 1 3.54 75c0-2 .1-3.98.27-5.94 31.4-6.69 50.21-29.77 78.46-31.51zM75.01 3.54c33.92 0 62.37 23.77 69.63 55.53-17.59-9.67-45.97-24.01-59.49-24.01-28.41 0-50.48 24.67-81.09 31.53C8.23 31.14 38.45 3.54 75.01 3.54z"/><path style="fill:#fff" d="M93.67 18.79h-5.44c-.3 0-.54-.24-.54-.54a3.606 3.606 0 0 0-4.44-3.51.552.552 0 0 1-.66-.36c-.43-1.39-1.86-2.24-3.26-2.04-.25.02-.47-.1-.57-.32a4.234 4.234 0 0 0-3.89-2.55c-2.03 0-3.78 1.44-4.17 3.42-.03.15-.12.27-.24.35-.13.08-.27.1-.42.07-2.33.01-4.24 1.92-4.24 4.27 0 .3-.24.54-.54.54h-8.9c-.3 0-.54-.24-.54-.54s.24-.54.54-.54h8.38a5.361 5.361 0 0 1 4.99-4.8 5.334 5.334 0 0 1 5.13-3.86c1.99 0 3.8 1.11 4.72 2.85 1.63-.1 3.19.87 3.86 2.37.2-.03.41-.04.64-.04 2.4 0 4.38 1.82 4.65 4.15h4.93c.3 0 .54.24.54.54.01.3-.23.54-.53.54zM50.9 36.78h-2.64c-.3 0-.54-.24-.54-.54 0-.81-.66-1.47-1.47-1.47-.12 0-.23.01-.33.04a.53.53 0 0 1-.66-.36c-.17-.55-.73-.87-1.29-.8a.552.552 0 0 1-.55-.32c-.28-.65-.93-1.07-1.64-1.07-.85 0-1.59.6-1.75 1.43-.03.15-.12.29-.26.36-.13.08-.3.09-.44.05-.87.02-1.67.83-1.67 1.82 0 .3-.24.54-.54.54H32.8c-.3 0-.54-.24-.54-.54 0-.3.24-.54.54-.54h3.83a2.879 2.879 0 0 1 2.46-2.31 2.87 2.87 0 0 1 5.15-.51c.79.02 1.5.46 1.88 1.14 1.25-.04 2.38.81 2.64 2.01h2.16c.3 0 .54.24.54.54-.02.28-.26.53-.56.53zM124.35 29.64h-2.2c-.3 0-.54-.24-.54-.54 0-.63-.51-1.14-1.13-1.14-.09 0-.18.01-.25.03a.538.538 0 0 1-.66-.36.895.895 0 0 0-.97-.6c-.23.02-.47-.1-.57-.32a1.39 1.39 0 0 0-1.28-.84c-.66 0-1.24.47-1.37 1.12-.03.15-.12.29-.26.36-.13.08-.3.09-.44.05-.64.02-1.27.65-1.27 1.43 0 .3-.24.54-.54.54h-3.6c-.3 0-.54-.24-.54-.54 0-.3.24-.54.54-.54h3.12c.22-.99 1.04-1.77 2.06-1.92a2.479 2.479 0 0 1 4.4-.43c.66.03 1.23.39 1.56.94h.07c1.04 0 1.91.72 2.15 1.68h1.73c.3 0 .54.24.54.54-.01.3-.25.54-.55.54z"/></svg>