<svg xmlns="http://www.w3.org/2000/svg" viewBox="0 0 150 150" style="enable-background:new 0 0 150 150" xml:space="preserve"><path style="fill:#ace8d2" d="M148.21 74.99c0 38.06-28.98 69.31-66.1 72.88-.09 0-.19.02-.28.02-2.24.21-4.51.33-6.83.33-40.14 0-72.73-32.27-73.23-72.33v-.9c0-13.75 3.8-26.62 10.39-37.61C24.97 16.03 48.31 1.76 75 1.76c40.44 0 73.21 32.79 73.21 73.23z"/><path style="fill:#51b5e9" d="M58.12 75.72v68.53H71.1v3.83c1.29.08 2.59.14 3.9.14 1.18 0 2.34-.02 3.5-.09h.17c2.15-.09 4.28-.31 6.38-.59 35.43-4.87 62.79-35.08 63.17-71.81h-90.1z"/><path style="fill:#ffeccd" d="M63.55 135.63c.28 4.16 10.98 8.2 18.28 12.26-2.24.21-4.51.33-6.83.33-40.14 0-72.73-32.27-73.23-72.33h81.85l-.33.69c3.68 11.67-23.55 2.48-23.13 8.76.43 6.28 24.57 12.26 24.99 18.54.43 6.28-23.72.31-23.32 6.59.43 6.28 24.59 12.28 25.02 18.57.44 6.28-23.73.31-23.3 6.59z"/><path style="fill:#fff" d="M111.39 56.06h-3.02c-.65 0-1.18-.53-1.18-1.18 0-.65.53-1.18 1.18-1.18h2.05c.47-1.3 1.69-2.24 3.14-2.3.5-.7 1.27-1.16 2.14-1.27.71-.99 1.87-1.6 3.12-1.6 1.52 0 2.87.9 3.49 2.23a3.85 3.85 0 0 1 2.84 2.58h3.94c.65 0 1.18.53 1.18 1.18 0 .65-.53 1.18-1.18 1.18h-4.94c-.65 0-1.18-.53-1.18-1.18 0-.81-.64-1.47-1.45-1.49a1.177 1.177 0 0 1-1.25-.95c-.14-.69-.75-1.19-1.45-1.19-.59 0-1.12.35-1.35.89-.21.48-.7.77-1.22.7h-.04c-.46 0-.73.21-.83.52-.19.6-.81.95-1.43.79-.6-.17-1.36.39-1.36 1.09-.02.65-.55 1.18-1.2 1.18zM16.46 49.15h-2.45c-.65 0-1.18-.53-1.18-1.18 0-.65.53-1.18 1.18-1.18h1.51a3.016 3.016 0 0 1 2.57-1.85c.42-.54 1.03-.91 1.73-1.02a3.32 3.32 0 0 1 2.65-1.31c1.28 0 2.43.73 2.98 1.83 1.06.27 1.93 1.05 2.31 2.06h3.04c.65 0 1.18.53 1.18 1.18 0 .65-.53 1.18-1.18 1.18h-4c-.65 0-1.18-.53-1.18-1.18 0-.54-.44-.98-.98-.98-.64.11-1.08-.32-1.2-.95-.16-.83-1.5-.97-1.85-.19-.21.48-.72.77-1.22.7-.27-.06-.42.14-.46.27-.19.6-.81.95-1.43.79-.43.02-.82.29-.82.67-.02.64-.55 1.16-1.2 1.16zM70 16.32h-4.5c-.65 0-1.18-.53-1.18-1.18 0-.65.53-1.18 1.18-1.18h3.47c.53-2 2.35-3.52 4.55-3.43a4.023 4.023 0 0 1 3.19-1.92 5.149 5.149 0 0 1 4.32-2.36 5.14 5.14 0 0 1 4.78 3.25c2.07.33 3.73 1.89 4.21 3.91h6.31c.65 0 1.18.53 1.18 1.18 0 .65-.53 1.18-1.18 1.18h-7.35c-.65 0-1.18-.53-1.18-1.18 0-1.54-1.25-2.79-2.79-2.79-.64.11-1.12-.32-1.24-.95-.26-1.3-1.4-2.24-2.73-2.24-1.11 0-2.1.66-2.54 1.67-.21.48-.7.77-1.23.7-.78-.1-1.65.36-1.9 1.18-.19.61-.83.95-1.43.79-.15-.04-.32-.06-.51-.06-1.23 0-2.24 1.01-2.24 2.25-.01.65-.54 1.18-1.19 1.18z"/><path style="fill:#9b796e" d="M52.5 104.7c-2.04-19.55 1.75-39.75 11.4-57.86l-2.76-.89c-12.4 16.63-20.02 36.98-21.27 58.75H52.5z"/><path style="fill:#8c6a61" d="M45.76 104.7c.27-21.08 6.55-41.17 17.6-58.03l-2.22-.72c-12.4 16.63-20.02 36.97-21.28 58.75h5.9z"/><path style="fill:#94d182" d="M68.52 57.52c-1.27-4.39-3.3-8.66-6.24-12.9 5.1-.19 11.25 4.73 12.88 10.96 1.97 6.13-.57 13.58-4.97 16.17.2-5.15-.38-9.85-1.67-14.23z"/><path d="M62.28 44.61c.71 1.03 1.37 2.05 1.98 3.08 3.57 1.81 6.81 5.45 7.93 9.73 1.47 4.55.45 9.83-1.98 13.3.01.34 0 .68-.02 1.03 4.41-2.59 6.95-10.04 4.98-16.17-1.64-6.23-7.78-11.14-12.89-10.97z" style="opacity:.05"/><path style="fill:#94d182" d="M50.88 50.35c3.97-2.26 8.41-3.9 13.47-4.89-3.53-3.69-11.36-4.45-16.88-1.12-5.69 3.02-9.06 10.13-7.71 15.06 3.45-3.84 7.14-6.8 11.12-9.05z"/><path d="M39.76 59.39c.27-.3.52-.58.8-.86.74-4.13 3.66-8.54 7.82-10.75 3.74-2.25 8.55-2.64 12.36-1.48 1.17-.32 2.37-.6 3.61-.85-3.53-3.69-11.37-4.45-16.88-1.11-5.68 3.01-9.05 10.13-7.71 15.05z" style="opacity:.05"/><path style="fill:#94d182" d="M48.58 42.98c4.55.39 9.14 1.56 13.87 3.62-.81-5.04-6.83-10.12-13.26-10.51-6.4-.74-13.21 3.2-14.89 8.02 5.01-1.2 9.73-1.55 14.28-1.13z"/><path d="M34.75 43.07c3.73-2.51 8.66-3.96 13.4-3.41 5.2.32 10.18 3 13.44 6.56.28.13.57.24.87.37-.81-5.04-6.83-10.12-13.27-10.5-5.93-.69-12.22 2.64-14.44 6.98z" style="opacity:.05"/><path style="fill:#94d182" d="M61.71 32.09c.87 4.49 1 9.22.31 14.33 4.63-2.16 7.87-9.33 6.49-15.62-1.03-6.36-6.68-11.84-11.78-12.14 2.51 4.49 4.13 8.94 4.98 13.43z"/><path d="M57.34 18.72c3.96 1.84 7.57 6.27 8.37 11.22 1.05 4.74-.54 9.98-3.37 13.2-.07 1.08-.18 2.17-.33 3.28 4.63-2.16 7.86-9.33 6.48-15.62-.98-6.11-6.22-11.4-11.15-12.08z" style="opacity:.05"/><path style="fill:#b1d044" d="M74.72 53.46c3.57 2.85 6.74 6.37 9.53 10.7 2.12-4.65-.07-12.2-5.21-16.09-4.91-4.17-12.77-4.67-16.84-1.59 4.84 1.78 8.96 4.11 12.52 6.98z"/><path style="fill:#94d182" d="M74.72 53.46c3.57 2.85 6.74 6.37 9.53 10.7 2.12-4.65-.07-12.2-5.21-16.09-4.91-4.17-12.77-4.67-16.84-1.59 4.84 1.78 8.96 4.11 12.52 6.98z"/><path d="M62.21 46.48c.43.16.86.32 1.28.5 4.29-1.55 10.39-.62 14.47 2.84 4.33 3.27 6.57 9.17 5.89 13.71.15.2.27.41.41.62 2.12-4.65-.08-12.2-5.22-16.09-4.9-4.16-12.76-4.67-16.83-1.58z" style="opacity:.05"/><path style="fill:#94d182" d="M76.73 45.46c4.55.39 9.14 1.56 13.87 3.62-.81-5.04-6.83-10.12-13.26-10.51-6.4-.74-13.21 3.2-14.89 8.02 5.01-1.19 9.73-1.54 14.28-1.13z"/><path d="M62.45 46.59c.23-.05.46-.11.69-.15 2.78-3.51 8.23-5.96 13.39-5.37 4.97.3 9.69 3.4 11.95 7.13.7.27 1.41.56 2.12.87-.81-5.04-6.83-10.11-13.27-10.5-6.39-.73-13.21 3.2-14.88 8.02z" style="opacity:.05"/><path style="fill:#94d182" d="M52.67 35.78c3.57 2.85 6.74 6.37 9.53 10.7 2.12-4.65-.07-12.2-5.21-16.09-4.91-4.17-12.77-4.67-16.84-1.59 4.85 1.78 8.97 4.11 12.52 6.98z"/><path d="M40.16 28.8c.13.05.27.1.39.15 4.25-1.3 10.02-.31 13.93 3.02 3.81 2.89 6.01 7.8 6.01 12.04.59.78 1.16 1.61 1.72 2.48 2.12-4.65-.07-12.21-5.2-16.1-4.92-4.17-12.78-4.67-16.85-1.59z" style="opacity:.05"/><path style="fill:#f98d5d" d="M75.84 25.01c0 3.45 2.82 6.27 6.29 6.27s6.29-2.82 6.29-6.27c0-3.47-2.82-6.29-6.29-6.29s-6.29 2.82-6.29 6.29z"/><path d="M74.99 0C33.64 0 0 33.64 0 75s33.64 75 74.99 75c41.36 0 75.01-33.64 75.01-75S116.35 0 74.99 0zM61.51 47.46c.14.07.57.24.61.26-9.11 17.73-12.64 37.14-10.91 55.8H41.12c1.44-20.54 8.47-39.76 20.39-56.06zm-24.97-5.05c3.4-4.56 11.2-6.92 17.69-3.73 1.39 1.28 3.24 3.24 4.68 5.15.05.07.09.12.14.19-7.25-2.42-14.36-3.1-22.51-1.61zm21.12 3.64c-5.83 1.91-11.81 5.46-17.01 10.7.19-4.75 3.97-10.44 9.52-12.4 2.5.3 4.98.87 7.49 1.7zm10.72 1.89c-.02-.05-.05-.05-.07-.05-.57-.31-1.16-.59-1.75-.87 5.65-.97 8.34-.97 11.76 1.98 3.76 2.86 6 8.22 5.48 12.4-4.27-5.95-9.51-10.42-15.42-13.46zm3.03 21.28c-.09-7.46-1.94-14.17-4.75-19.54 2.36 1.18 4.56 2.55 6.59 4.13 2.55 5.32 1.3 11.94-1.84 15.41zm-6.74-24.31c.94-1.13 1.42-1.75 3.24-2.91v-.02c7.82-4.8 17.53-1.49 20.79 5.06-3.97-1.51-17.18-3.66-24.03-2.13zm1.42-4.53c-.71.5-1.37 1.02-1.94 1.58-.02-1.18-.21-2.39-.57-3.57-.19-6.19-1.7-12.14-4.63-18.05 6.91 2.67 11.06 12 7.14 20.04zM42.96 28.64c8.6-3.07 18.85 4.44 18.85 13.49v.24c.02.4 0 .8-.05 1.2-.02 0-.05.02-.07.05-.17-.24-.35-.47-.52-.71-.28-.38-.59-.76-.87-1.13-4.65-5.87-10.53-10.26-17.34-13.14zm-4.27 75.99c-.02.33.09.64.33.87.21.24.52.38.85.38h12.64c.33 0 .64-.14.87-.38.21-.26.33-.59.28-.92-.97-9.28-.59-18.57 1.04-27.66h27.53c.37 1.26.32 2.2-.18 2.85-2.97 3.94-18.88-.24-22.29 3.31-.56.58-.82 1.33-.76 2.17.58 8.67 45.22 20.2 14.52 20.58-4.93.06-13.13-.19-12.82 4.55.59 8.71 45.24 20.19 14.52 20.59-4.93.06-13.13-.19-12.82 4.55.26 3.82 6.52 6.95 13.15 10.26.41.2.82.41 1.23.62-.6.01-1.19.05-1.79.05-38.75 0-70.37-31.02-71.39-69.54h40.27c-2.89 8.89-4.64 18.2-5.18 27.72zm24.57 4.99c3.19-3.46 23.61 1.59 23.11-5.98-.48-7.1-24.66-13.33-25.01-18.55-.02-.22.04-.3.11-.37 2.23-2.34 18.61 1.59 22.47-3.52.85-1.12 1.05-2.57.7-4.27h61.77c-.97 36.36-29.22 66.03-65 69.23-3.79-2.03-18.9-8.77-16.45-11.39 2.57-2.79 18.73.24 22.28-3.61 7.21-7.8-28.26-16.89-23.98-21.54zM74.99 3.54c39.26 0 71.22 31.82 71.46 71.02h-91.3c1.77-8.62 4.7-17.06 8.74-25.09 3.66 6.73 5.46 13.91 5.1 22.23 0 .43.21.85.59 1.06.38.24.87.21 1.2 0 4.61-2.72 7.16-9.92 5.88-16.02 2.43 2.31 4.61 4.96 6.59 8.06.52.8 1.7.69 2.06-.14 3.07-6.73-2.57-16.58-5.67-17.62 3.5.54 6.94 1.58 10.49 3.12.76.38 1.8-.28 1.63-1.28-1.32-8.2-12.59-14.39-22.51-10.21 3.05-10.25-4.42-20.74-12.47-21.19-.43-.05-.83.17-1.06.54-.24.35-.24.83-.02 1.2 2.39 4.3 3.99 8.53 4.82 12.99-5.34-7.11-15.95-8.27-21.07-4.37-.33.26-.52.69-.45 1.11.07.43.35.78.76.94 3.64 1.32 6.9 3 9.83 5.03-.09 0-.17-.02-.26-.02-6.78-.83-14.2 3.24-16.13 8.79-.14.43-.05.87.24 1.18.28.33.71.47 1.16.35 4.84-1.13 9.43-1.37 11.15-1.23-5.29 3.47-8.55 10.49-7.11 15.69.12.43.45.73.87.85.33 0 .71.09 1.16-.38 4.75-5.29 10.25-9.21 17.24-11.69-5.6 8.08-10.04 16.87-13.25 26.08H3.56c.24-39.18 32.18-71 71.43-71z"/><path d="M82.13 32.46c4.12 0 7.47-3.35 7.47-7.46 0-4.12-3.35-7.47-7.47-7.47-4.12 0-7.47 3.35-7.47 7.47 0 4.12 3.35 7.46 7.47 7.46zm0-12.56c2.82 0 5.11 2.29 5.11 5.11 0 2.81-2.29 5.09-5.11 5.09-2.82 0-5.11-2.29-5.11-5.09 0-2.82 2.29-5.11 5.11-5.11z"/><path style="fill:#ffeccd" d="M24.45 109.61c-.05-3.07 3.1-5.77 6.12-5.25 1.83.32 3.59 1.61 5.39 1.15 1.72-.43 2.66-2.25 4.09-3.29 2.53-1.83 6.02-.98 9.01-.07 2.98.91 6.51 1.71 8.99-.17-1.94 2.84 1.96 6.68.86 9.94-.62 1.83-2.6 2.78-4.43 3.41-9.22 3.15-19.57 2.89-28.62-.72"/><g style="opacity:.3"><path style="fill:#fff" d="M78.46 110.17h-.06.06zM79.74 110.19l-.02.01.18-.03zM80.94 110.16c-.12-.07-.43.03-.65.01l-.04-.01-.09.05c.26-.01.59-.06.78-.05zM81.6 110.33c-.04-.03.14-.03-.15-.01.01 0 .03.01.03.01h.12z"/><path style="fill:#fff" d="M81.48 110.32c-.13.01.08.03 0 0zM82.06 110.3l-.16.04c.04.02.19.03.13.04.18-.02.14-.05.03-.08zM82.21 110.22l-.09.02c.03 0 .05.01.09-.02zM81.95 110.27l.18-.04c-.03-.02-.03-.05-.08.01.01-.02-.03.01-.1.03zM81.84 110.26c-.1-.02-.22-.03-.06-.07-.31.03-.26.09.06.07zM80.99 110.08l-.13-.01-.11.03c.06-.02.25.01.24-.02zM83.12 110.31c.01-.03-.07-.07-.08-.1l-.12.04c.06.01.19.02.2.06zM83.04 110.21l.18-.06c-.17.01-.2.03-.18.06zM82.23 110.1l-.29.09.35-.1zM83.83 110.26l-.09.08.17-.12zM84.31 110.21c-.07.07.13.09.05.14a.78.78 0 0 0 .32-.14c-.11.04-.22.04-.37 0z"/><path style="fill:#fff" d="M84.82 110.12c-.05.02-.1.05-.15.09.06-.02.11-.05.15-.09zM83.53 110.13c.02.02.05.06.16.07l-.09-.07h-.07zM83.6 110.13c.08 0 .14-.01.16-.01-.02 0-.06 0-.16.01zM83.51 110.14h.02c0-.01-.01-.01-.02 0zM82.72 110.12c.1-.05.32-.12.09-.15-.07.05.06.07-.09.15zM83.41 110.05h-.2c.01.02.05.05 0 .07l.2-.07zM83.5 110.01l-.09.04h.07zM84.47 110.07c.08-.05.17-.06.27-.08-.12 0-.23 0-.34.01-.01.03-.05.09.07.07zM84.05 110.09l.02-.01c-.02 0-.03 0-.02.01zM85.77 109.84l-.02-.02v.02zM84.38 109.99c-.09-.01-.13.02-.18.05.09-.02.15-.03.2-.04 0-.01 0-.02-.02-.01zM85.1 110.04a.75.75 0 0 1-.16-.04c.06.03.15.07.16.04zM84.1 110.11l-.01.01c.03.01.02 0 .01-.01z"/><path style="fill:#fff" d="M84.1 110.11a.36.36 0 0 0 .1-.07c-.04.01-.08.03-.14.04 0 .01.03.02.04.03zM85.92 109.09c.01.11-.18.24-.39.18-.17.11.02.4.23.55 0-.04-.01-.08.17-.17-.08-.04-.45-.05-.31-.16.24-.1.21-.01.35.02-.13-.1.28-.25.18-.43l-.2.12c-.03-.03.04-.1-.03-.11zM85.38 109.87l-.08.02c.09 0 .17.03.3.08.12-.07.14-.11.14-.14l-.39.05.03-.01zM84.95 109.95c.04-.1.22-.18.09-.27-.23.05-.15.11-.28.17.37-.08-.1.07.19.08-.07.03-.14.04-.2.05.06.01.12.01.2.02h-.01c-.02-.01-.03-.02-.01-.01h.01l.01-.04c.11.01.02.02-.01.04v.02l.37-.11c-.09-.01-.19.01-.36.05zM82.99 109.78c.01 0 .01.02.01.02.03-.02.03-.02-.01-.02z"/><path style="fill:#fff" d="M83.15 109.8c-.03.01-.04.05-.13.05-.08-.01-.01-.04-.01-.06-.05.03-.18.08-.01.09l.03-.01c.15.01.36.08.34.09a.834.834 0 0 0-.22-.16zM84.05 109.84l.3-.09-.17-.05.02.04c-.19.01-.14.06-.15.1zM85.82 109.88l-.02.12.15-.18zM86.22 109.8l.01.11.1-.08zM82.51 93.68h-.1c.05.01.08.01.1 0zM83.05 94l.06-.07c-.05.03-.08.06-.06.07zM91.83 102.32c.13-.18.33-.4.15-.34l-.17.09c.05.1.05.18.02.25zM87.7 96.56l-.02.07c.07-.02.14-.04.21-.05l-.19-.02zM86.99 97.03l-.01-.21c-.01.06 0 .12.01.21zM79.09 91.27l-.25-.03c.14.22.16.07.25.03zM90.43 108.65c.16-.01.28-.05.38-.1-.22.02-.4-.03-.38.1zM83.74 91.92c-.07 0-.11.03-.13.07.07 0 .12-.02.13-.07zM91.19 108.27c-.04.01-.06.02-.09.03-.08.1-.16.18-.29.25.15-.02.32-.09.38-.28zM88.28 82.79l.02-.02-.02.02zM88.81 79.16c.03.06.04.1.06.15-.01-.05-.01-.04-.06-.15zM87.88 109.53c-.09.02-.01.01 0 0zM87.32 109.14c.01-.02.02-.04.02-.07 0 .03 0 .05-.02.07zM91 106.85c-.03.01-.03 0 0 0zM87.73 109.5c.04.01.08.01.12.01-.02-.01-.06-.01-.12-.01zM87.76 109.55h-.08c0 .03.01.04.08 0zM87.99 109.49c-.05.01-.1.02-.14.02.02 0 .03.02.03.02.02-.01.06-.02.11-.04zM82.99 86.01l.02.01c.08-.08.04-.06-.02-.01zM89.25 100.8l.01.01.01-.02z"/><path style="fill:#fff" d="M88.99 100.6c.28.01.28.09.27.2l.48-.31-.75.11z"/><path style="fill:#fff" d="m81.03 92.89.11.28c-.4.1-.54-.13-.47.22.36-.49.84.45 1.17-.09l.07.19c-.03-.03-.06 0-.09-.02.12.41.4-.29.68-.04.09.1.12.22.01.25l.31-.01c.06.05-.01.14-.07.09l.36.16-.01.01c.1-.06.29-.13.38-.15.04.13-.08.03-.1.11l.27-.02c-.01.19-.25.23-.37.13-.15.64.24-.05.41.51l-.21-.05c-.09.38.11.35.17.66.03-.12-.06-.72.22-.72.03.08.09.14.27.11-.13.19.01.21.14.29l-.19.24c.18.03.26-.1.42-.15.13.14.02.35-.07.53.2.22.07-.42.38-.25.12.25.32.27.68.33.06.19-.15.12-.16.22l.28-.08c.03.03-.03.08-.06.1.16.02.21-.22.42-.13.28-.2-.03.65.42.57-.02.1-.16.11-.23.2.42.09.33.1.78.1l.02.32c.05-.28.42-.29.72-.26.04-.12.08-.23.09-.29l.34.17c-.01.06-.12.1-.25.13h.1c-.01.17-.19.22-.37.26l.07-.21c-.19.05-.4.12-.52.24.04-.01.09.01.13.03-.05.01-.09.03-.11.06-.02.03.06.01.15.01l-.21.27.12-.07.1.46c.46.03 1.01-.02 1.42.33-.28.03-.35.2-.6.35.18-.28-.33-.24-.42-.48.05.13-.08.18-.14.18l.49.21c-.2.12-.09.17-.11.33.35-.33.44.12.66.21-.13.09-.29.13-.37-.08-.17.39.64-.01.51.36-.03-.05-.03-.08-.11-.06.19.04.24.38.09.37l-.03-.05c.13.34.51.98.88.88-.04.02-.44.15-.52.16.48.02.98.05 1.46.1-.33.07-.97.56-1.26.36 0 .09-.02.21.15.34.02-.07.39-.31.45-.24-.26.34-.13.22-.32.58.03-.11.55-.19.59-.04-.08 0-.47.17-.54.14l.59.17c-.11-.06-.41.12-.52.23.08-.06.08.29.16.36l.06-.17c.05.39.79.19.85.6-.11-.03-.63.03-.64.24.26.03 1.27.14 1.5.49l-.13.09.2.26c-.39-.13-1.21-.48-1.58-.64-.07.16-.15.07-.08.28-.11.1-.22-.08-.25-.13.02.16.02.33.02.5.27-.07.35.33.58.28l-.39-.49c.28-.08.85.18.86.56-.09.11-.5 0-.6.02.11.03.23.32.17.36l-.17-.13c-.08.21.4.29.17.55-.01.09-.32.27-.16.27.29-.15 1.24-.25 1.48-.17-.01.03-.27.5-.43.6-.24.14-.57-.21-.77-.09.07 0 .16.08.19.11-.06.08-.22-.04-.19.14.27.04-.04.35.22.1.06.18-.06.18-.08.38.18-.04.53.3.52.54-.06-.03-.15-.02-.2-.01-.18.36-.4.46-.66.68-.06-.02-.23.01-.24-.11-.01.06 0 .16-.09.22-.27-.08.18-.15-.08-.28.07.13-.12.3-.23.45.13.18.35-.13.41-.29.18.24.09.69-.27.97-.29.18-.2-.12-.24-.06-.59.15-.33.62-.87.57-.24-.11-.11-.32-.19-.43.22-.14.41-.01.57-.07l-.23-.02c.06-.08.21-.17.31-.16-.2-.1-.96.27-1.43.27-.06.08-.18.17-.1.21l.13-.06c.16.09-.21.24-.02.26-.16.14-.34.33-.62.32l-.1-.16c.02.05.2.06.26-.01-.09.1-.47-.13-.53.12l.22.07c-.17.13-.36.35-.62.34.15.14.05-.03.27.13-.21-.2.62-.11.31-.32.23.19.33.03.61.18-.02-.06-.11-.09.1-.11 0-.02.02-.05.03-.06h.01-.01c.01-.01.01-.01 0 0-.06-.01-.1-.04-.13-.06.06-.16.38-.23.46-.33.13 0-.03.08.05.13l.13-.15c.06.13.38.14.13.29l.25-.06c.17.04.39.02.49-.07.13 0 .25-.24.18-.1l.37-.21.02.03c.44-.12.75-.52 1.42-.68.12-.15.23-.32.47-.56l.16.03c.12-.23.5-.64.38-.79.5-.17.33-1.11.38-1.43l-.2-.01c.02-.24-.05-.45-.15-.72l-.18.03c-.17-.22.1-.61.03-.98.07.01.07.11.03.18.35-.51-.42-.87-.21-1.32-.09-.08-.08-.16-.05-.24l.02.02-.01-.04c.02-.05.05-.11.07-.16a.41.41 0 0 0-.08.14c-.02-.07-.07-.18-.14-.28l.19-.1s-.01-.01-.01-.02c.04-.13-.12-.06-.26.04a.419.419 0 0 0-.16-.11c.3-.18-.19-.25.12-.48-.19-.02-.29-.51-.67-.44.05-.02.06-.06.08 0 0-.13 0-.26-.14-.33l.24-.15-.44-.12c.1-.22.16-.32.42-.24-.46-.25-.24-.26-.67-.43l.17-.06c-.05-.11-.35-.18-.24-.31.19-.4-.56-1.21-.67-1.97-.38.41.02-.41-.35-.19.08-.11.09-.23.25-.2-.31-.22-.13-.58-.58-.56.08-.11.2-.05.24-.13-.04-.01-.16-.02-.12-.1.04-.08.12-.02.2-.01-.25-.29-.59-.07-.9.15.03-.25-.05-.31-.32-.26.05-.13.08-.29.26-.15-.06-.11-.38-.71-.61-.51.03-.08-.1-.15-.15-.15-.18-.22-.18-.25-.4-.43l.02.09c-.33.18-.22-.1-.41-.23l.03-.02c-.2-.54-.25-.05-.43-.61l-.13.19c-.35.34-.15-.52-.51-.55v.17c-.22.04.05-.79-.06-.95 0-.06.09-.02.15-.01-.19-.49-.22.2-.52.07.04-.16.3-.29.13-.43-.03-.17-.81.07-.91-.33 0 .14-.01.27-.19.28-.21-.07-.32-.7-.68-.47-.01-.04 0-.08.01-.1-.19.01-.55-.1-.73.04.22-.73-1.06-.16-.7-.76l-.41-.21.05-.05c-.21-.19-.38-.13-.57-.06-.02-.08.06-.1.08-.12-.22-.37-.24-.34-.71-.38l.15-.16c-.17-.03.02-.54-.25-.74.02 0 .07 0 .1.02-.31-.41.56-.51-.04-.93-.02-.1-.02-.21-.01-.33-.26.28-.23-.23-.42-.17.06-.18.44-.2.34-.03h-.05c.25.29.41-.28.6-.08.55-.53 1.29-.63 2.02-.8l-.14-.23.27-.05c.08.04.13.17-.06.21.13.12.29-.2.29-.25.4.02-.09.32.02.3l.15-.05-.04-.02c.11-.13.1-.24.34-.28.16.02.1.13.16.13 0 .02.02.02.09-.01l.36-.06-.18-.16c.14-.13.34-.06.14-.24.3.29 1.39-.23 1.56-.22.18-.2.39-.31.66-.44-.08.01-.2-.13.02-.23.11.37.47-.12.78-.07-.24 0 .51-.54.14-.51.17-.13.1.08.26.01.26-.46.74-.86.96-1.47-.03-.02-.11.05-.11-.1l.27-.24c.03-.12-.13-.17.03-.35-.03.02-.08.05-.07-.03.45-1.12.3-2.43-.06-3.54.05.15 0 .06-.05-.06.03.07-.02.01-.03.03-.04-.16-.12-.31-.19-.45-.05-.08-.29-.44-.33-.47l.09.12c-.12-.16.14.25.08.25.13.19.16.57.31.91.01.08-.04-.06-.04-.01.05.08.07.19.09.4l-.01-.02c.08.57.04.84-.1 1.46l.07-.04c-.03.14-.06.16-.09.22.07.17.08-.38.16-.23-.15.17-.19.96-.44 1.02-.08.19.11-.03.04.17l-.01.06.05.07c-.06.13-.16.16-.2.15.02-.03.03-.09.04-.12-.14.13-.21.44-.26.48l.12-.16c-.21.53-.71.99-1 1.43l.07.01c-.26.33-.28.18-.63.44l.01-.02c-.04.09-.12.2-.24.23.06-.11-.26-.04-.16-.17-.33.28-.13.18-.32.5l-.1-.08c-.06.12-.05.18-.27.27.16-.14-.19-.13-.02-.3-.52-.13-.64.4-.94.07-.16.36.46.11.35.2.13.08-.13.27-.3.27-.16.02-.34-.37-.75-.32.04 0 .04-.03.08-.03-.17-.07-.28.16-.5.04-.07.23-.25.02-.23.3l.37-.12c-.21.1-.34.45-.73.37.02-.06.11-.16.17-.21-.12-.06-.19.09-.32.03-.03-.28.46-.15.66-.39-.13-.1-.41.26-.35-.05-.09.4-.44.02-.67.38l-.02-.17c-.04.04-.12.14-.21.16l.1-.26c-.19.24-.55-.02-.76.17.52-.19.19.16.45.2-.51.44-.53-.32-1.2.1.08-.08.4-.08.3.06-.14.03-.35.06-.48.03-.42.31.17.11.05.32-.27-.09-.15.21-.27.4l-.12-.14c-.53.3.15.38-.31.64l-.05-.34-.14.26-.13-.19c-.08.35-.17.4-.4.65.16 0 .29.2.19.45-.18.13-.14-.17-.25.22-.09-.12-.21-.29.04-.38-.05-.04-.07-.13-.12-.18-.23.15-.26.53-.28.69.02-.06.05-.13.09-.16.03.23.08.45.16.66-.08.09-.14.01-.19-.07.01.13.1.22.12.4-.16-.04-.35-.01-.41-.31.05.22.12.43.2.63-.07.05-.14.36-.21.29-.03.42.56.75.68 1.15.04 0 .09.02.16.08.19.32.28.75.75.85l-.02.4c.29.14.01-.5.48-.27.34.13-.05.3 0 .44.24-.02.66-.13.79.25-.15.01-.19-.07-.29-.11zm2.85 1.51c-.08.01-.25.06-.21-.07.19-.18.17-.04.21.07zm3.77 2.81c-.09.01-.1-.07-.08-.18.05.03.08.08.08.18zm1.13 11.97c.16.01.1 0 0 0zm-.31.01c-.02.03-.01.05 0 .06.01-.04.07-.06.15-.07-.03-.03-.07-.04-.15.01zm-4.38-22.25-.06-.03c.12-.07.09-.03.06.03z"/><path style="fill:#fff" d="M87.07 96.98c.02-.04.05-.07.08-.1-.04.01-.08.03-.08.1zM79.14 91.28l-.01-.02-.04.01zM90.44 105.71a.24.24 0 0 1 .1-.1c-.05 0-.09.02-.1.1zM87 109.77l.18-.07c-.09.02-.13 0-.18-.01.01.03.06.07 0 .08zM85.21 109.34c-.02.02-.06.01-.08.03l.02.05c.11-.02.18-.09.06-.08zM86.71 109.38c-.04-.11-.15-.04-.27.01h.02c0 .14.13.07.25-.01zM86.41 109.39l-.12.03c0 .06.06 0 .12-.03zM88.13 109.36c-.07-.02.01.16-.04.12-.03.17.35-.28.04-.12zM86.52 109.04l.08.13.04-.13zM87.55 108.88l-.21.02c.01.02-.01.04-.04.06.12-.03.26-.04.25-.08zM87.29 108.96c-.07.01-.13.04-.16.07.04-.01.12-.04.16-.07zM86.79 108.93l.06.01.15-.02zM89.72 108.24l.2-.14c0-.06-.08-.07-.15-.01-.04.05-.11.11-.05.15zM88.91 108.04c.07.01.08.05.13.09l-.06-.2-.07.11zM89.5 107.76c0-.06.2-.28-.02-.16 0 .07-.18.2.02.16zM91.1 105.37l.01.06.4-.02zM89.61 102.68c-.04.27.28-.01.21.24.12.03.06-.21.16-.17-.15-.12-.11-.21-.37-.07zM89.98 102.75c.02.02.05.04.08.06-.04-.03-.06-.05-.08-.06zM88.49 78.6l-.11-.14.07.1zM88.27 78.34l-.02-.03-.07-.08c.02.02.01 0 .09.11zM83.89 95.15l.05-.05c.03-.08 0-.11-.05-.16v.21zM82.18 93.83l.04.03.06-.28zM80.14 92.96c.07.07.2.09.27.16-.2-.1-.1-.44-.27-.16z"/></g><g style="opacity:.3"><path style="fill:#fff" d="m79.85 138.49-.04-.01c.09.02.04.01.04.01zM80.79 138.56h-.02l.14-.01zM81.66 138.59c-.09-.07-.32 0-.47-.03l-.03-.01-.07.04c.19.01.44-.02.57 0zM82.14 138.8c-.03-.04.1-.02-.11-.02l.02.01c.02 0 .03 0 .09.01zM82.05 138.79c-.09-.01.06.03 0 0zM82.48 138.8l-.12.03c.03.02.14.04.1.05.12-.01.1-.04.02-.08zM82.59 138.73l-.06.01c.01.01.03.02.06-.01zM82.4 138.77l.13-.02c-.02-.02-.02-.05-.06.01.01-.04-.02-.01-.07.01zM82.32 138.75c-.07-.03-.16-.04-.04-.07-.23 0-.2.07.04.07zM81.7 138.51l-.09-.02-.08.03c.04-.01.18.02.17-.01zM83.26 138.89c0-.03-.05-.07-.06-.11l-.09.03c.05.02.14.04.15.08z"/><path style="fill:#fff" d="m83.2 138.78.13-.05c-.13.01-.15.02-.13.05zM82.6 138.61l-.21.08.26-.08zM83.78 138.9l-.07.07.13-.1zM84.13 138.89c-.05.06.09.1.04.14.09-.01.17-.06.24-.11-.08.03-.16.02-.28-.03zM84.52 138.85c-.04.02-.07.05-.11.07.03-.01.07-.04.11-.07zM83.56 138.75c.01.02.04.06.12.08l-.06-.08h-.06z"/><path style="fill:#fff" d="M83.61 138.75c.06 0 .1.01.12.01-.01-.01-.05-.01-.12-.01zM83.55 138.75h.01-.01zM82.96 138.67c.08-.04.24-.09.07-.14-.05.04.05.08-.07.14zM83.47 138.65l-.15-.01c0 .02.03.05 0 .07l.15-.06zM83.54 138.62l-.07.03.05.01zM84.25 138.77c.06-.04.13-.05.2-.06-.09-.01-.17-.02-.25-.02-.01.03-.04.08.05.08zM83.94 138.75l.01-.01c-.01 0-.01 0-.01.01zM85.22 138.64l-.01-.01v.02zM84.18 138.67c-.06-.01-.1.01-.13.04.05-.01.09-.02.15-.02 0-.01 0-.02-.02-.02zM84.73 138.79c-.04-.02-.08-.03-.12-.05.04.03.11.08.12.05zM83.98 138.77c.01.02.01.01 0 0zM83.98 138.77c.03-.01.05-.04.08-.06-.04.01-.07.02-.1.03l.02.03zM85.32 137.92c.01.1-.13.22-.29.14-.12.1.02.39.18.56 0-.04-.01-.08.12-.16-.06-.05-.34-.08-.23-.19.18-.08.16.01.26.05-.1-.11.2-.22.12-.4l-.15.1c-.01-.02.03-.08-.01-.1z"/><path style="fill:#fff" d="m84.93 138.64-.06.02c.07.01.13.05.23.11.09-.06.1-.1.11-.13l-.29.02.01-.02zM84.61 138.68c.03-.1.16-.16.06-.26-.17.03-.11.1-.2.15.27-.05-.07.06.14.1-.05.02-.1.03-.15.04.04.01.09.02.15.04l-.01-.01c-.01-.01-.02-.02 0-.01h.01v-.05c.08.02.02.03-.01.04v.01l.27-.07c-.06-.01-.13 0-.26.02zM83.17 138.35l.01.02c.01-.01.02-.02-.01-.02zM83.28 138.39c-.02.01-.03.04-.1.04-.06-.02 0-.04-.01-.06-.04.02-.13.06-.01.09l.02-.01c.11.02.27.11.25.12a.414.414 0 0 0-.15-.18zM83.94 138.5l.22-.06-.13-.07.01.05c-.12-.01-.09.04-.1.08zM85.26 138.69l-.01.12.1-.17zM85.56 138.65l.01.1.07-.07zM92.85 126.48l-.07-.04c.02.02.05.04.07.04zM92.96 126.91l.09-.01c-.06-.01-.09-.01-.09.01zM92.6 135.57c.19.04.46.13.31.01l-.16-.11c-.03.07-.09.09-.15.1zM94.21 130.52l-.07.02c.06.04.12.07.18.1l-.11-.12zM93.39 130.3l.15-.09c-.05.02-.1.05-.15.09zM91.73 124.35l-.2.03c.05.1.11.01.2-.03zM88.65 137.89c.11.02.19.02.25.01-.14-.05-.27-.14-.25-.01zM94.93 126.02c-.05-.03-.09-.04-.14-.02.05.03.1.04.14.02zM89.14 137.81c-.03-.01-.04-.01-.06-.02-.05.05-.1.09-.18.11.1.03.2.04.24-.09zM85.83 117.33l-.01-.02s0 .01.01.02zM83.85 115.3c.05.03.07.03.1.05l-.1-.05zM86.81 138.51c-.07.02-.01.01 0 0zM86.36 138.08c.01-.02.02-.04.01-.07.01.04 0 .06-.01.07zM89.29 136.64c-.03-.02-.02-.02 0 0zM86.69 138.47l.09.02c-.01-.01-.04-.01-.09-.02zM86.72 138.53h-.06c0 .02.01.03.06 0zM86.89 138.48c-.04.01-.07.01-.11.01.02.01.02.02.02.02.03-.01.05-.02.09-.03zM89.73 120.57v-.02c-.09 0-.06.01 0 .02zM92.17 133.04v.01l.01-.01z"/><path style="fill:#fff" d="M92.16 132.79c.15.21.1.23.02.26l.5.27-.52-.53z"/><path style="fill:#fff" d="m92.44 125.51-.11.2c-.32-.05-.28-.19-.46.02.57-.23.23.48.82.28l-.09.13c0-.03-.04-.02-.04-.05-.22.27.47-.03.47.23-.02.1-.09.18-.18.15l.2.13c0 .06-.1.07-.11.02l.12.26h-.02c.11.01.28.06.35.09-.07.09-.07-.02-.14.02l.19.12c-.14.1-.33.01-.33-.1-.58.29.19.09-.11.47l-.11-.12c-.33.17-.18.25-.38.44.11-.05.5-.42.68-.29-.04.06-.05.12.09.19-.22.04-.15.12-.12.22l-.3.04c.1.1.25.07.39.12-.01.13-.24.19-.43.24-.03.2.36-.18.44.05-.1.18.03.29.22.49-.1.12-.18-.01-.27.03l.24.1c-.01.03-.08.02-.12.02.09.09.3 0 .38.15.33.05-.49.28-.13.48-.09.04-.18-.04-.3-.03.23.26.16.22.47.46l-.23.14c.25-.09.48.11.67.31.12-.03.22-.05.27-.07l.11.29c-.05.02-.15-.03-.27-.1l.06.06c-.13.07-.29-.02-.44-.12l.2-.05c-.17-.1-.36-.19-.53-.21.03.02.06.05.07.09-.05-.02-.09-.04-.12-.04s.03.04.1.09l-.34-.02.13.04c-.08.08-.18.16-.27.23.28.28.69.62.69 1.02-.2-.17-.37-.16-.63-.27.32.02-.03-.29.08-.43-.06.08-.19.01-.22-.02l.16.38c-.22-.09-.19 0-.3.04.46.12.2.33.27.51-.14-.06-.28-.15-.18-.28-.39.01.41.43.07.46.01-.04.05-.04-.02-.09.09.14-.12.29-.21.18l.01-.04c-.15.2-.38.66-.08.92-.04-.03-.37-.29-.43-.34.29.36.54.74.79 1.14-.24-.23-.96-.57-.99-.85-.07.02-.15.05-.14.22.06 0 .44.2.43.27-.39-.1-.23-.03-.58-.07.09-.01.45.37.37.44-.05-.06-.39-.32-.41-.38l.22.52c-.02-.11-.31-.29-.45-.34.09.05-.14.15-.15.24h.15c-.23.16.31.68.08.88-.04-.1-.37-.5-.51-.45.13.23.59 1.07.49 1.4l-.13-.07-.07.25-.43-1.52c-.15-.01-.13-.1-.24.01-.13-.06-.07-.21-.05-.24l-.31.18c.2.21-.02.4.13.57.04-.16.08-.32.1-.49.2.2.36.77.1.9-.12-.04-.27-.42-.33-.49.03.1-.08.3-.14.26l-.01-.19c-.17.01.04.44-.26.34-.06.02-.34-.18-.26-.04.25.2.82.97.88 1.2-.03 0-.46-.05-.6-.14-.21-.14-.17-.56-.36-.69.04.06.04.17.03.21-.09-.02-.1-.2-.19-.1.12.24-.25.14.06.23-.08.14-.15.03-.28.13.13.12.15.57.06.71-.02-.06-.09-.12-.12-.15-.27.11-.46.08-.71.2-.05-.04-.19-.06-.19-.17-.02.06-.02.15-.09.19-.23-.12.15-.11-.06-.29.05.13-.11.27-.19.39.11.19.27-.07.34-.2.12.27.06.65-.18.87-.2.14-.16-.14-.19-.09-.42.11-.19.58-.61.5-.19-.12-.11-.32-.18-.43.16-.12.31.01.43-.03l-.18-.03c.04-.07.14-.16.22-.13-.16-.11-.7.2-1.05.16-.04.07-.12.15-.06.2l.09-.05c.13.1-.14.23 0 .25-.11.12-.24.29-.45.26l-.08-.16c.02.05.15.07.2.01-.06.09-.36-.16-.39.08l.17.09c-.12.11-.26.31-.45.29.12.15.04-.03.21.15-.16-.22.47-.05.23-.28.19.21.25.05.47.22-.02-.06-.09-.1.07-.1 0-.02.01-.04.02-.06h.01l-.01-.01s0-.01 0 0c-.04-.02-.08-.04-.1-.07.04-.15.28-.19.33-.29.1.01-.02.08.05.13l.09-.14c.05.13.3.17.12.29l.19-.04c.14.05.3.04.38-.04.1.01.17-.22.13-.09l.26-.18.02.03c.3-.07.49-.44.93-.3.08-.07.16-.17.34-.19l.1.12c.1-.09.44-.04.42-.2.33.29.64-.22.88-.28l-.1-.17c.15-.07.25-.21.37-.38l-.12-.14c.06-.21.44-.14.65-.32.03.07-.04.09-.11.09.54.14.35-.66.78-.62.01-.1.06-.12.13-.12l-.01.02.02-.02h.15c-.06-.01-.11-.02-.14-.01a.58.58 0 0 0 .12-.21l.18.12.01-.02c.12 0-.02-.12-.17-.19.01-.05 0-.11-.01-.17.29.18.07-.24.4-.06-.09-.16.19-.41-.07-.68.04.03.07.03.05.06.09-.04.19-.09.16-.22l.24.14-.17-.38c.21 0 .32.01.42.24-.09-.44.05-.27-.08-.66l.14.11c.04-.08-.08-.33.07-.3.42.01.54-.84 1.04-1.22-.54-.1.32-.15-.07-.32.13.01.23-.04.3.09-.02-.3.33-.35.04-.63.13 0 .17.11.25.1-.02-.03-.08-.12 0-.13.08-.01.09.07.14.13.06-.3-.32-.41-.69-.52.2-.1.19-.18-.03-.32.13-.02.27-.08.28.09.04-.09.28-.57-.02-.61.08-.02.03-.13 0-.16.04-.21.06-.23.04-.44l-.05.06c-.36-.1-.08-.17-.12-.34h.04c.26-.39-.12-.16.16-.55l-.22.03c-.49 0 .26-.35.05-.56l-.12.09c-.18-.09.61-.41.65-.56.04-.03.07.03.11.07.23-.38-.3 0-.41-.22.15-.07.41-.01.41-.18.11-.11-.6-.36-.37-.64-.11.08-.21.15-.33.07-.08-.15.31-.57-.1-.6.03-.03.05-.05.08-.06-.13-.09-.29-.35-.52-.34.66-.38-.63-.59.01-.85-.06-.12-.14-.23-.2-.34l.07-.02c-.07-.24-.26-.25-.45-.26.02-.07.09-.06.12-.07-.04-.39-.1-.41-.54-.5l.17-.13c-.15 0 .03-.63-.4-.79.02-.01.06-.03.1-.02-.42-.19-.11-1.12-.8-.78l-.31-.09c.16.3-.28.15-.29.34-.11-.08-.03-.4.1-.3l-.01.04c.34-.19-.15-.41.05-.56-.45-.49-.75-1.08-1.21-1.51l-.13.23-.15-.16c0-.08.08-.19.19-.08.04-.16-.28-.08-.32-.05-.15-.27.29-.13.23-.2l-.11-.07v.04c-.15.01-.23.08-.36-.05-.05-.11.06-.15.03-.19.01-.01.01-.03-.05-.05l-.19-.19-.04.21c-.16-.01-.19-.17-.24.07.08-.36-.69-.72-.72-.86-.21-.01-.34-.11-.49-.24.02.06-.07.22-.19.09.28-.25-.15-.32-.12-.59 0 .2-.44-.25-.41.04-.1-.11.07-.1.03-.23-.36-.1-.6-.48-.98-.67-.03.02 0 .11-.11.1l-.09-.26c-.08-.03-.18.11-.24-.06 0 .03.01.08-.05.06-.64-.54-1.49-.84-2.16-1.35.09.07.02.04-.06 0 .05.03-.01.02-.01.04l-.3-.19c-.07-.01-.34-.17-.38-.18l.1.05c-.13-.07.16.13.12.15.15.07.31.32.56.44.04.05-.05-.01-.04.02.07.02.14.07.25.17h-.02c.35.26.47.41.82.76l.01-.08c.08.07.08.11.11.15.15-.01-.22-.19-.08-.21.03.2.58.46.54.67.12.11.02-.11.14 0v.07l.07-.03c.07.08.07.17.05.21a.262.262 0 0 0-.09-.05c.06.14.3.24.32.29l-.09-.13c.36.25.71.67 1.11.84l.01-.06c.31.13.16.22.45.41h-.02c.09 0 .18.04.25.11-.11 0 .03.22-.1.21.33.14.19.04.51.01l-.03.12c.12-.02.16-.06.31.04-.17-.02-.03.2-.23.19.1.44.56.19.43.59.34-.13-.1-.36.01-.34.01-.13.26-.08.33.02.08.09-.14.45.06.66-.02-.02-.04 0-.06-.03.01.14.23.07.22.27.2-.1.11.14.32-.04l-.23-.15c.15.06.48-.07.55.23-.05.03-.16.02-.22.02-.01.11.14.06.13.18-.21.18-.27-.19-.53-.17-.03.14.35.08.08.24.35-.19.16.25.5.19l-.13.11c.04 0 .14 0 .18.04l-.23.08c.24-.01.07.35.25.39-.21-.24.11-.2.12-.39.43.14-.19.48.13.77-.05-.03-.05-.25.07-.23.02.09.04.22-.01.33.2.2.12-.16.28-.13-.11.22.16.05.29.11l-.15.12c.11.34.36-.18.42.15l-.28.06.14.08-.19.11c.22.04.22.1.26.28.09-.11.3-.2.39-.08-.04.15-.18.07-.04.22-.13.03-.28.09-.19-.1l-.12.03c-.05.17.12.23.16.3-.01-.03-.02-.06 0-.09l.38.09c-.04.08-.11.09-.18.09.05.04.15.02.21.09-.15.07-.29.17-.42.11l.3.13c-.05.06-.09.23-.16.23 0 .18.46.15.44.4.03-.01.07 0 .11.02.05.19-.05.43.25.53l-.23.25c.13.13.28-.33.51-.12.18.15-.21.19-.26.29.18.02.56.06.39.34-.08-.04-.05-.1-.09-.15zm.76 2c-.05-.03-.21-.08-.09-.14.26 0 .15.06.09.14zm.51 3.25c-.06-.05-.01-.09.08-.12.01.04-.01.08-.08.12zm-6.23 7.47c.12.02.08.01 0 0zm-.24-.01c-.02.03-.01.04.01.06 0-.04.05-.05.11-.06-.03-.03-.06-.05-.12 0zm2.77-18.91v.06c-.1-.04-.05-.05 0-.06z"/><path style="fill:#fff" d="M93.48 130.33c.04 0 .08 0 .12.01-.03-.03-.07-.04-.12-.01zM91.76 124.35v-.01l-.03.01zM89.62 135.58c.05 0 .09.02.12.04-.03-.04-.06-.07-.12-.04zM86.15 138.68l.13-.06c-.07.02-.1-.01-.14-.02.01.04.05.08.01.08zM84.8 138.1c-.02.02-.04.01-.06.03l.01.05c.09-.02.14-.07.05-.08zM85.92 138.27c-.04-.11-.11-.05-.2-.02h.02c-.01.15.09.09.18.02zM85.69 138.26c-.03.01-.06.02-.09.02.01.06.04 0 .09-.02zM86.99 138.37c-.06-.02.01.16-.03.12 0 .16.26-.26.03-.12zM85.76 137.92l.06.13.03-.12zM86.52 137.85h-.16c.01.02-.01.04-.03.06.1-.02.2-.02.19-.06zM86.33 137.91c-.05.01-.09.02-.11.05.02-.01.08-.03.11-.05zM85.95 137.84l.05.02.11-.02zM88.1 137.38l.14-.1c-.01-.06-.06-.08-.11-.03-.02.04-.07.09-.03.13zM87.47 137.13c.05.02.07.05.11.09l-.06-.2-.05.11zM87.9 136.9c-.01-.06.15-.25-.03-.16 0 .07-.13.18.03.16zM90.19 136.01l-.03.02.23.34zM91.12 133.87c-.19.05.16.22-.04.24.04.1.17-.02.2.08 0-.15.08-.15-.16-.32zM91.28 134.2c0 .02 0 .05.01.09 0-.05-.01-.08-.01-.09zM83.44 115.08l-.12-.06.08.04zM83.21 114.97l-.02-.02-.07-.03c.02.02 0 0 .09.05zM92.65 127.93h.07c.08-.03.08-.06.08-.11l-.15.11zM92.53 126.44v.03l.24-.14zM91.77 125.39c.01.05.09.08.1.13-.09-.08.19-.29-.1-.13z"/></g><g style="opacity:.3"><path style="fill:#fff" d="m127.82 115.66-.03.04c.07-.08.03-.04.03-.04zM128.36 114.83v.02l.06-.13zM128.85 114.05c-.11.04-.16.29-.27.42l-.03.02v.08c.11-.17.21-.41.3-.52zM129.28 113.72c-.05.01.03-.1-.08.09l.02-.01c.02-.02.03-.03.06-.08zM129.23 113.8c-.06.08.06-.04 0 0zM129.47 113.42l-.04.12c.04-.01.11-.1.1-.06.05-.12.01-.11-.06-.06zM129.47 113.28l-.02.06c.01 0 .02-.01.02-.06zM129.39 113.48l.05-.13c-.03.01-.06-.01-.03.06-.01-.03 0 .01-.02.07zM129.33 113.54c-.06.05-.12.12-.08 0-.11.21-.04.21.08 0zM128.81 113.98l-.07.07-.02.08c.01-.04.11-.15.09-.15zM129.96 112.77c-.02-.02-.09 0-.12 0l-.02.09c.04-.03.11-.1.14-.09zM129.84 112.77l.03-.14c-.06.11-.06.14-.03.14zM129.37 113.21l-.05.23.07-.27zM130.27 112.32l.01.1-.01-.17zM130.45 112.01c.02.08.14-.02.14.05.05-.09.04-.18.04-.27-.02.08-.07.15-.18.22zM130.63 111.65c-.01.04 0 .09 0 .14a.33.33 0 0 0 0-.14zM130.01 112.43c.02 0 .07 0 .13-.06l-.1.01-.03.05zM130.04 112.38c.04-.05.06-.09.07-.1-.01.01-.03.04-.07.1zM130.01 112.44l.01-.01-.01.01zM129.62 112.92c.01-.09.05-.26-.08-.14.01.07.09 0 .08.14zM129.88 112.46l-.09.12c.02.01.06 0 .06.04l.03-.16zM129.9 112.38l-.02.08.04-.05zM130.42 111.83c0-.07.03-.14.07-.21-.06.07-.11.14-.16.21.02.03.04.08.09 0zM130.23 112.1v-.01c-.01 0-.02 0 0 .01zM130.88 110.94h-.02l.01.01z"/><path style="fill:#fff" d="M130.3 111.84c-.05.05-.05.09-.04.13a.88.88 0 0 1 .07-.14c-.01 0-.02-.01-.03.01zM130.71 111.44c-.04.03-.08.05-.11.07.04-.01.12-.05.11-.07zM130.26 112.07v.01c.03-.01.02-.01 0-.01zM130.26 112.07c.01-.03 0-.07 0-.1-.01.04-.02.07-.03.1 0 .01.02.01.03 0zM130.35 110.43c.09.05.1.25-.06.33.01.16.33.21.56.18-.04-.02-.07-.04-.06-.2-.07.02-.27.24-.29.09.04-.2.1-.13.2-.19-.15.02-.06-.3-.25-.34l-.01.18c-.03-.01-.05-.08-.09-.05zM130.71 111.18l-.02.06c.05-.05.11-.08.22-.13.01-.11-.01-.14-.04-.16l-.16.26v-.03zM130.55 111.48c-.06-.08-.03-.23-.18-.2-.08.16.02.15 0 .26.12-.26.01.1.16-.06-.01.06-.03.1-.06.15.03-.03.07-.07.12-.11h-.01c-.02.01-.03.01-.01 0v-.01l-.02-.03c.06-.06.03 0 .03.03l.01.01.1-.28c-.05.05-.08.12-.14.24zM129.46 112.57h.02c0-.02 0-.03-.02 0z"/><path style="fill:#fff" d="M129.56 112.48c0 .02.02.05-.02.11-.05.04-.03-.02-.06-.02 0 .05-.02.15.07.05v-.02c.08-.09.24-.18.24-.16-.08 0-.14 0-.23.04zM130.02 111.96l.08-.23-.13.07.05.01c-.09.12-.03.12 0 .15zM130.94 110.94l.09.07-.08-.19zM131.08 110.65l.09.06-.01-.1zM134.28 93.72l-.06-.05c.02.02.04.04.06.05zM134.3 94.16l.09.01c-.05-.02-.09-.03-.09-.01zM134.35 103.61c.19-.05.46-.07.28-.13l-.19-.03c0 .09-.04.13-.09.16zM134.82 98.23l-.07.01c.06.04.12.08.17.12l-.1-.13zM134.02 97.95l.16-.1c-.05.03-.1.06-.16.1zM133.44 91.67l-.19.05c.05.08.11-.01.19-.05zM132.52 107.76c.09-.06.15-.11.18-.17-.12.07-.28.1-.18.17zM136.42 93.71a.147.147 0 0 0-.13-.06c.04.05.08.07.13.06zM132.82 107.36c-.02.01-.03.02-.05.03 0 .07-.01.14-.06.21.09-.05.17-.12.11-.24zM132.17 81.81l.02-.01s-.02 0-.02.01zM134.35 79.7c-.03.05-.04.07-.06.1.01-.03.01-.02.06-.1zM131.74 109.56c-.02.06.01.02 0 0zM131.13 109.65c-.01-.02-.02-.04-.04-.05.02.01.04.03.04.05zM132.15 106.38c-.03 0-.02 0 0 0zM131.64 109.63c.03-.02.05-.04.08-.06-.02 0-.04.02-.08.06zM131.7 109.64c-.02.02-.03.03-.04.05.02.01.04.01.04-.05zM131.78 109.47l-.06.09c.01-.01.03-.01.03-.01 0-.01.01-.04.03-.08zM131.25 87.38l.01-.02c-.08-.05-.06-.03-.01.02zM133.01 101.35v.01l.01-.01zM132.93 101.08c.2.17.16.22.09.27l.56.1-.65-.37z"/><path style="fill:#fff" d="m134.05 92.73-.14.18c-.32-.07-.24-.2-.45-.02.59-.16.17.45.77.34l-.11.11c0-.03-.04-.02-.03-.05-.26.22.47.05.41.31-.04.09-.12.16-.2.11l.17.17c-.01.06-.12.05-.11 0l.06.28h-.02c.1.04.26.12.32.17-.09.08-.07-.04-.15-.01l.15.16c-.17.07-.32-.07-.3-.18-.63.16.16.13-.22.45l-.08-.15c-.36.09-.23.2-.47.36.12-.03.59-.31.74-.13-.05.05-.08.11.04.21-.23-.01-.18.08-.17.2l-.3-.03c.07.13.23.13.35.22-.04.14-.28.14-.48.15-.07.22.39-.11.41.16-.14.18-.03.32.1.58-.13.12-.18-.05-.27-.02l.22.16c-.01.03-.08.01-.12-.01.07.12.3.06.35.24.32.11-.54.23-.21.51-.09.03-.18-.06-.29-.07.18.32.12.27.4.57l-.24.14c.26-.09.47.16.64.37.12-.02.22-.04.27-.06l.09.3c-.06.02-.15-.03-.26-.11l.06.07c-.13.06-.29-.03-.43-.14l.2-.05c-.16-.11-.34-.22-.52-.25.03.02.05.06.06.1a.208.208 0 0 0-.12-.05c-.03 0 .03.04.09.1l-.34-.03.13.05-.29.27c.27.32.68.67.7 1.08-.21-.16-.38-.13-.65-.22.32-.02-.04-.33.07-.51-.06.09-.19.03-.23-.01l.17.42c-.23-.07-.19.02-.31.09.47.06.23.35.32.53-.15-.04-.3-.12-.21-.28-.39.09.45.4.11.5.01-.04.04-.06-.03-.1.1.14-.07.35-.18.25l.01-.04c-.13.26-.25.85.1 1.01a5.12 5.12 0 0 1-.5-.22l1.08.89c-.3-.14-1.09-.22-1.2-.5-.06.05-.14.12-.07.29.06-.03.49.03.49.1-.4.06-.22.06-.58.17.09-.05.55.19.5.29-.07-.04-.48-.15-.52-.2l.39.42c-.06-.09-.4-.15-.55-.13.1 0-.08.23-.06.31l.14-.08c-.16.28.56.52.43.81-.08-.07-.55-.29-.66-.16.21.15 1.02.7 1.09 1.02h-.15l.07.25c-.29-.25-.89-.86-1.12-1.15-.14.08-.17-.02-.21.15-.14.02-.16-.16-.15-.21l-.2.36c.27.08.17.39.4.46l-.14-.52c.27.08.68.52.53.78-.13.03-.45-.22-.54-.25.08.07.08.32.01.33l-.1-.17c-.15.12.26.38-.05.47-.04.06-.39.07-.24.14.32 0 1.23.32 1.42.47-.03.01-.41.23-.57.25-.26.02-.47-.36-.69-.34.07.03.13.12.15.15-.08.04-.2-.11-.22.05.24.12-.13.29.19.15.02.17-.11.13-.15.3.18.01.48.36.49.52-.06-.03-.15-.03-.19-.03-.14.28-.3.39-.41.66-.07 0-.18.11-.26.01.03.06.09.12.06.21-.25.08.04-.2-.24-.17.13.06.1.29.13.44.21.05.15-.26.11-.41.28.11.49.44.49.77-.03.25-.21.02-.19.08-.23.4.29.54-.05.81-.22.07-.32-.13-.45-.15.02-.21.22-.23.27-.36l-.14.12c-.03-.08-.02-.22.06-.26-.19.05-.33.69-.59.96.03.08.03.2.11.18l.02-.11c.16-.04.08.26.19.16.02.17.08.38-.08.54l-.18.02c.05.02.16-.08.13-.16.03.11-.35.19-.19.37l.17-.08c.01.17.09.41-.05.55.19-.01 0-.05.24-.08-.28 0 .24-.41-.08-.36.28-.02.2-.17.47-.24-.06-.02-.13.01-.03-.12l-.03-.05.01-.01h-.01s-.01-.01 0 0c-.04.02-.08.04-.12.03-.09-.12.02-.35-.01-.45.07-.07.05.06.13.04l-.05-.16c.13.04.33-.13.3.1l.1-.17c.13-.07.23-.2.22-.31.07-.07-.05-.27.02-.16l.05-.31.04.01c.16-.27.03-.66.45-.87.01-.11 0-.22.12-.36l.15.02c.01-.14.3-.31.18-.41.43.01.35-.55.51-.74l-.18-.08c.08-.14.08-.31.08-.52l-.17-.05c-.08-.21.29-.36.37-.62.06.04.02.1-.04.13.52-.16-.04-.74.36-.91-.04-.09 0-.13.07-.16v.02c.01-.01.01-.03.01-.03.04-.02.09-.04.13-.06a.32.32 0 0 0-.13.05c.02-.05.02-.14.01-.24l.21.03v-.02c.1-.05-.07-.09-.24-.1-.02-.05-.04-.1-.08-.14.34.05-.03-.24.34-.21-.15-.11.02-.44-.33-.6.05.01.08 0 .07.04.07-.07.14-.15.07-.26l.27.05-.29-.31c.2-.07.31-.08.47.1-.22-.38-.04-.27-.27-.6l.17.07c.02-.09-.16-.3-.01-.3.39-.09.35-.93.81-1.34-.55-.06.3-.16-.1-.3.13.01.22-.04.31.07-.05-.29.31-.33.02-.6.13 0 .17.11.25.1-.02-.03-.09-.11 0-.12.08-.01.09.07.14.12.05-.27-.32-.4-.68-.52.21-.09.2-.16-.01-.32.13-.02.28-.06.28.11.04-.09.32-.53.02-.61.08-.01.05-.13.02-.16.06-.21.09-.22.11-.43l-.06.05c-.34-.15-.04-.19-.06-.36l.04.01c.32-.34-.09-.18.26-.52l-.23-.01c-.48-.1.34-.3.17-.55l-.14.07c-.15-.14.69-.28.76-.41.04-.03.06.05.09.09.31-.32-.29-.07-.34-.32.16-.04.4.09.44-.09.14-.09-.5-.52-.2-.75-.12.06-.24.11-.33-.01-.04-.17.43-.52.04-.66.03-.03.06-.04.09-.04-.12-.13-.22-.44-.44-.48.73-.28-.54-.75.12-.92-.05-.14-.11-.28-.18-.41l.07-.01c-.06-.28-.25-.32-.45-.34.01-.08.09-.06.13-.07-.06-.43-.12-.47-.58-.58l.16-.15c-.14-.01-.07-.7-.54-.83.02-.01.06-.03.1-.03-.47-.17-.3-1.12-.94-.71l-.32-.06c.2.28-.27.18-.26.36-.12-.07-.08-.4.06-.31l-.01.04c.32-.22-.19-.39.01-.55-.46-.46-.61-1.01-.79-1.49l-.22.15-.06-.19c.04-.07.17-.12.21.01.11-.1-.19-.18-.25-.17.02-.28.32.02.3-.06l-.05-.1-.02.03c-.13-.06-.23-.04-.26-.21.02-.11.14-.08.14-.12.02 0 .02-.02 0-.06l-.02-.24-.17.12c-.11-.1-.02-.24-.22-.1.28-.19.06-.96.18-1.07-.11-.17-.09-.34-.05-.53-.04.04-.22.04-.17-.13.35.14.21-.28.49-.35-.19.07.07-.48-.19-.36.07-.13.12.03.22-.05-.02-.37.3-.69.42-1.1-.03-.02-.11.02-.11-.09l.24-.13c.02-.09-.13-.17.04-.25-.03.01-.08.02-.07-.04.48-.7.85-1.55 1.44-2.22-.08.09-.04.02.01-.06-.04.05-.02-.02-.03-.02l.23-.29c.02-.07.22-.33.24-.37l-.07.1c.09-.13-.16.15-.17.11-.09.15-.37.29-.52.55-.05.04.02-.05-.01-.04-.03.07-.08.14-.2.25l.01-.02c-.3.35-.46.47-.84.85l.08.01c-.08.08-.11.09-.16.12 0 .16.21-.24.22-.09-.21.03-.48.63-.69.62-.1.14.11.01.01.15l-.07.01.03.07c-.07.09-.16.1-.21.08.02-.02.03-.07.05-.1-.14.09-.22.36-.27.4l.12-.13c-.21.43-.59.93-.63 1.43l.07-.02c-.03.37-.16.25-.24.65l-.01-.02c.04.09.04.2.01.3-.05-.11-.18.16-.23.01.03.41.05.21.24.5l-.12.05c.09.1.14.11.15.31-.08-.17-.19.12-.29-.08-.3.42.21.63-.17.84.33.18.18-.38.25-.27.11-.09.24.15.21.28 0 .13-.42.26-.38.62 0-.04-.03-.03-.03-.07-.08.15.16.24.04.43.22.04.04.22.31.17l-.13-.3c.1.17.45.24.39.56-.06 0-.16-.06-.22-.11-.05.11.1.14.05.26-.28.07-.18-.36-.42-.5-.09.13.28.32-.03.31.41.02.05.38.42.5l-.16.09c.04.03.14.07.17.14l-.25-.03c.25.11.01.46.21.59-.2-.38.14-.19.17-.41.43.31-.27.5.12.95-.07-.05-.07-.31.06-.25.03.11.05.27.01.38.25.27.12-.16.3-.11-.1.24.18.08.33.15l-.14.13c.16.39.36-.18.48.18l-.29.07.17.09-.19.12c.25.04.26.11.33.29.07-.13.28-.23.39-.11-.01.16-.18.09-.01.23-.12.05-.27.11-.21-.09-.05.04-.12.05-.18.08-.02.18.17.24.22.3-.01-.03-.03-.06-.02-.1l.41.05c-.02.09-.09.1-.16.11.06.03.16 0 .22.06-.14.09-.26.21-.4.16l.31.1c-.04.06-.07.24-.14.25.01.18.46.08.45.32.03-.01.07-.01.11.01.06.17-.07.4.22.48l-.24.23c.12.12.3-.31.51-.1.16.15-.23.17-.29.26.18.02.54.1.33.35-.06-.04-.03-.1-.06-.15zm.34 2.1c-.04-.05-.19-.13-.06-.16.27.05.14.09.06.16zm-.08 3.64c-.06-.05-.01-.1.09-.13 0 .05-.02.09-.09.13zm-2.34 10.39c.1-.08.06-.06 0 0zm-.16.18c.01.03.03.04.05.04-.03-.03-.01-.08.03-.12-.05-.01-.08 0-.08.08zm.36-22.59-.03.04c-.06-.07-.02-.06.03-.04z"/><path style="fill:#fff" d="M134.12 97.99c.04 0 .08 0 .12.01a.091.091 0 0 0-.12-.01zM133.47 91.66v-.01l-.03.02zM131.77 105.28c.04-.03.08-.05.12-.05-.04-.02-.08-.01-.12.05zM131.47 110.2l.04-.14c-.03.06-.07.07-.1.1.02 0 .08 0 .06.04zM130.18 110.98c0 .02-.02.04-.01.07l.05.02c.04-.08.03-.16-.04-.09zM131 110.13c-.11-.04-.11.06-.14.16l.01-.02c.12.09.13-.02.13-.14zM130.85 110.31c-.01.03-.02.06-.04.08.05.04.03-.02.04-.08zM131.75 109.32c-.05.03.13.09.07.09.13.12-.02-.35-.07-.09zM130.63 110.05l.14.03-.08-.1zM131.05 109.37l-.1.13c.02.01.03.03.03.06.04-.09.11-.17.07-.19zM130.98 109.56c-.02.05-.04.09-.03.13 0-.03.02-.08.03-.13zM130.68 109.84l.04-.04.06-.1zM131.78 107.8l.02-.18c-.05-.04-.1-.01-.1.06.02.06.01.12.08.12zM131.15 108.11c.05-.03.08-.02.15-.02l-.2-.09.05.11zM131.29 107.62c-.05-.04-.07-.3-.13-.09.04.04.03.22.13.09zM132.49 105.26l-.01.05.38.13zM132.27 102.73c-.16.16.24.14.06.27.08.08.15-.11.22-.03-.06-.16.01-.2-.28-.24zM132.55 102.97c.01.02.03.05.04.08-.01-.04-.02-.07-.04-.08zM134.62 79.3l.08-.11-.05.07zM134.76 79.08l.02-.02.04-.07c-.01.01 0-.01-.06.09zM133.76 95.13l.07.01c.08-.01.09-.04.1-.09l-.17.08zM133.98 93.62l-.01.02.27-.08zM133.41 92.58c0 .05.07.07.08.12-.08-.07.22-.25-.08-.12z"/></g><g style="opacity:.3"><path style="fill:#fff" d="m116.1 127.32-.04.05c.09-.11.04-.05.04-.05zM116.83 126.22v.02l.08-.17zM117.48 125.17c-.12.07-.21.39-.36.57l-.03.02-.01.11c.15-.23.29-.55.4-.7zM118 124.69c-.05.02.05-.13-.1.12l.02-.02c.02-.02.03-.04.08-.1z"/><path style="fill:#fff" d="M117.92 124.79c-.07.11.08-.06 0 0zM118.23 124.27l-.06.16c.04-.02.13-.15.11-.09.08-.16.04-.14-.05-.07zM118.25 124.1l-.03.08c.01-.01.03-.03.03-.08zM118.14 124.36l.07-.18c-.03.01-.06 0-.03.08-.02-.03-.01.02-.04.1zM118.07 124.44c-.07.07-.14.18-.09.01-.15.29-.07.28.09-.01zM117.45 125.08l-.08.1-.03.11c.01-.06.13-.21.11-.21zM118.83 123.36c-.02-.02-.09.02-.13.02l-.03.13c.04-.05.12-.16.16-.15zM118.7 123.38l.05-.19c-.08.15-.08.19-.05.19zM118.15 124.02l-.08.3.11-.36zM119.2 122.72l.01.13-.01-.22zM119.41 122.28c.02.1.15-.06.14.03a.89.89 0 0 0 .06-.35c-.02.11-.08.21-.2.32zM119.63 121.78c-.01.05-.01.11-.01.18.01-.06.01-.11.01-.18zM118.92 122.91c.02-.01.08-.01.15-.1l-.11.03-.04.07zM118.95 122.85zM118.91 122.93l.01-.02s-.02.01-.01.02zM118.45 123.61c.02-.12.08-.34-.08-.17.01.09.1-.01.08.17zM118.77 122.97l-.11.17c.02 0 .06-.02.06.04l.05-.21zM118.8 122.87l-.03.1.04-.06zM119.38 122.06c0-.09.04-.18.08-.28-.07.1-.13.2-.18.31.03.02.05.09.1-.03zM119.17 122.44v-.02c-.01.01-.02.02 0 .02zM119.9 120.79l-.02.01.01.01z"/><path style="fill:#fff" d="M119.26 122.1c-.05.07-.06.13-.05.18.03-.09.06-.14.08-.19-.01-.02-.02-.02-.03.01zM119.71 121.49c-.04.05-.08.08-.11.12.04-.03.13-.09.11-.12zM119.21 122.41v.01c.03-.02.02-.02 0-.01zM119.21 122.41c.01-.05 0-.09 0-.13-.01.04-.02.08-.04.14 0 0 .03-.01.04-.01zM119.35 120.27c.1.05.11.29-.06.44 0 .21.35.19.59.1-.04-.02-.07-.03-.06-.24-.08.05-.29.37-.31.19.05-.26.11-.19.21-.29-.15.06-.07-.38-.27-.38v.24c-.04-.02-.06-.12-.1-.06zM119.72 121.16l-.02.08c.05-.08.12-.13.24-.22.01-.14-.01-.18-.04-.2l-.17.37-.01-.03zM119.55 121.58c-.07-.09-.03-.29-.18-.22-.09.23.02.19-.01.33.14-.37.01.12.17-.12-.01.08-.04.14-.07.2.04-.05.08-.1.13-.17l-.01.01c-.02.01-.03.01-.01 0v-.01l-.02-.02c.07-.1.03-.01.03.03l.01.01.11-.38c-.05.07-.09.17-.15.34zM118.32 123.19c.01-.01.02 0 .02 0 0-.03 0-.05-.02 0z"/><path style="fill:#fff" d="M118.43 123.06c0 .03.02.06-.03.14-.05.06-.03-.02-.06-.02 0 .06-.03.2.07.06v-.03c.09-.13.27-.27.27-.24-.08.01-.15.02-.25.09zM118.96 122.3l.09-.31-.14.12.05.01c-.1.16-.03.15 0 .18zM119.97 120.78l.09.08-.08-.23zM120.11 120.37l.1.05-.02-.13zM120.91 97.3l.01-.1c-.02.04-.02.07-.01.1zM120.53 97.82l.06.06c-.02-.05-.04-.08-.06-.06zM120.8 109.75c.11-.19.3-.42.12-.34l-.17.1c.07.08.07.16.05.24zM118.56 103.25l-.07.02.17.14-.1-.16zM117.77 102.92c.06-.06.12-.11.19-.16a.45.45 0 0 0-.19.16zM121.81 94.43l-.19-.07c0 .12.1.07.19.07zM121.22 116.07a.9.9 0 0 0 .13-.3c-.1.14-.25.25-.13.3zM122.54 98.69c0-.07-.02-.12-.06-.14 0 .07.01.12.06.14zM121.4 115.41c-.02.03-.03.04-.05.06.01.09.02.19 0 .3.09-.1.15-.23.05-.36zM115.59 83.36l.01-.03s-.01.01-.01.03zM117.86 80.04l-.11.11c.04-.03.03-.02.11-.11zM120.74 118.75c-.02.09.01.01 0 0zM120.12 119.04c-.01-.02-.02-.04-.05-.05.03.02.04.03.05.05zM120.45 114.47c-.03.02-.03.01 0 0zM120.64 118.86a.63.63 0 0 1 0 0zM120.71 118.86c-.02.03-.03.05-.04.07.02.02.04.01.04-.07z"/><path style="fill:#fff" d="M120.78 118.62c-.01.05-.04.1-.06.14.01-.01.03-.01.03-.01 0-.03.01-.07.03-.13zM119.42 89.66v-.02c-.11-.01-.08.01 0 .02zM118.17 108.18h.01v-.01zM117.92 107.91c.28.06.27.15.26.26l.5-.28-.76.02z"/><path style="fill:#fff" d="m121.58 96.01-.24.1c-.16-.32-.03-.4-.31-.36.57.26-.25.64.27.96l-.18.05c.02-.03 0-.05.02-.08-.39.07.29.39.03.64-.11.08-.23.1-.25-.01l-.02.31c-.05.06-.13-.02-.08-.08l-.2.37-.01-.01c.05.11.09.31.1.4-.14.04-.02-.08-.1-.11l-.01.28c-.19-.02-.2-.27-.09-.39-.64-.19.02.25-.57.42l.07-.23c-.38-.09-.38.12-.71.2.13.02.76-.08.74.22-.08.03-.16.09-.14.29-.18-.13-.22.01-.32.16l-.24-.19c-.04.21.09.28.13.45-.15.16-.37.06-.56-.01-.24.26.45.02.25.39-.26.17-.28.42-.31.81-.2.12-.14-.13-.25-.11l.11.28c-.03.04-.08-.01-.11-.04 0 .19.25.17.2.42.26.21-.68.2-.47.67-.11.03-.15-.11-.27-.14.04.49 0 .42.19.87l-.29.22c.3-.13.43.21.6.49.12-.04.23-.08.28-.1l.08.37c-.06.03-.15-.03-.26-.11l.06.08c-.14.1-.29 0-.43-.13l.21-.08c-.16-.13-.33-.28-.5-.31.03.04.04.09.05.15-.04-.04-.08-.07-.11-.06-.03 0 .02.06.08.15l-.35.01.12.05c-.11.16-.23.32-.31.49.28.45.75.78.91 1.3-.25-.12-.4-.01-.69 0 .3-.17-.15-.45-.06-.77-.04.16-.18.12-.22.07.08.2.17.39.27.56-.24-.01-.17.12-.27.28.46-.14.34.38.52.57-.15.03-.33.01-.31-.27-.32.35.59.3.34.62-.01-.06 0-.1-.08-.11.15.13.13.49-.02.44l-.02-.06c.02.43.32 1.23.71 1.17-.05.02-.46.09-.54.09l1.45.28c-.33.04-.99.52-1.28.27-.01.11-.02.24.15.39.02-.08.39-.31.45-.23-.26.35-.13.22-.32.6.03-.11.55-.18.59-.03-.08 0-.47.18-.54.14l.6.19c-.12-.06-.4.12-.51.25.08-.07.1.3.18.38l.05-.19c.07.42.79.17.9.58-.11-.02-.63.07-.62.28.27.01 1.27.06 1.53.41l-.12.11.21.26c-.38-.12-1.24-.41-1.62-.56-.06.18-.15.09-.07.3-.1.11-.23-.06-.25-.12.02.17.05.34.06.51.27-.09.37.31.59.25l-.42-.48c.27-.1.86.12.89.52-.09.12-.5.03-.59.06.11.03.26.31.21.35l-.18-.13c-.04.21.42.27.21.56 0 .09-.3.3-.14.29.28-.17 1.23-.33 1.47-.26-.02.04-.23.52-.38.64-.23.17-.58-.17-.77-.03.07 0 .17.07.2.1-.05.1-.23-.02-.18.18.27.02.01.41.23.08.09.19-.04.21-.01.44.17-.08.59.19.65.4-.07-.01-.15.03-.19.06-.04.42-.13.63-.17 1.02-.06.03-.15.21-.25.12.04.06.12.11.12.23-.22.21-.01-.26-.28-.11.14.03.17.32.25.5.21-.03.07-.38-.01-.56.3.02.6.35.67.78.02.34-.21.12-.18.18-.15.6.41.6.09 1.07-.22.17-.34-.06-.47-.04-.01-.27.19-.38.21-.56l-.12.2c-.04-.09-.06-.27 0-.36-.17.14-.22 1-.45 1.43.03.09.05.24.13.19l.02-.15c.17-.1.1.31.21.15.04.21.11.47-.04.72H120c.05.01.15-.15.12-.24.04.13-.34.35-.17.54l.18-.16c.03.22.1.51-.03.73.2-.06 0-.06.25-.17-.28.08.24-.61-.1-.45.28-.11.19-.28.46-.46-.06-.01-.14.05-.04-.14a.311.311 0 0 1-.04-.06l.01-.01-.01.01c-.01-.01-.01-.01 0 0a.28.28 0 0 1-.12.08c-.1-.14.01-.46-.04-.59.06-.12.06.07.14.02l-.07-.19c.14.01.31-.28.32.03l.08-.26c.12-.14.21-.35.18-.49.06-.12-.1-.35-.01-.22l-.01-.44h.04c.11-.42-.12-.88.23-1.35-.02-.15-.06-.29 0-.53l.15-.04c-.04-.19.18-.56.03-.64.41-.21.08-.92.15-1.26l-.2.01c-.01-.23-.09-.44-.2-.71l-.18.04c-.17-.21.06-.63-.05-1.01.07.01.08.11.05.19.33-.55-.49-.88-.3-1.34-.09-.08-.09-.15-.07-.24l.02.02-.01-.04c.02-.05.04-.12.06-.17-.03.06-.06.11-.07.15a.996.996 0 0 0-.16-.27l.18-.11s-.01-.01-.01-.02c.04-.13-.12-.05-.25.05-.05-.04-.1-.08-.16-.1.29-.2-.2-.24.11-.48-.19-.02-.3-.49-.68-.42.05-.02.06-.06.08 0 0-.13 0-.26-.13-.33l.24-.14-.43-.13c.11-.21.18-.3.43-.22-.43-.26-.21-.25-.62-.47l.18-.04c-.04-.11-.32-.22-.2-.33.26-.33-.26-1.25.05-1.87-.54.14.24-.28-.18-.29.13-.04.2-.11.31-.02-.11-.3.22-.4-.1-.64.13-.01.18.09.26.07-.02-.02-.1-.1-.02-.12.08-.01.1.06.15.11.01-.27-.35-.38-.71-.48.21-.12.2-.19 0-.38.13-.02.28-.07.27.13.04-.11.4-.56.12-.69.09 0 .09-.14.07-.18.13-.23.15-.24.25-.48l-.08.04c-.27-.26.04-.23.1-.43l.03.02c.47-.28 0-.25.51-.5l-.2-.1c-.38-.31.48-.2.49-.54l-.16.01c-.05-.23.79.02.93-.07.05 0 .02.08.02.14.47-.17-.21-.22-.08-.51.16.05.28.3.43.15.16-.01-.06-.8.36-.86-.14-.02-.27-.04-.26-.21.09-.21.73-.24.53-.64.04-.01.08 0 .1.02.02-.2.18-.58.05-.78.76.24.2-1.16.81-.85l.18-.57.06.04c.18-.34.03-.54-.09-.7.07-.07.11 0 .15.02.26-.51.2-.62-.09-1.09l.21-.04c-.12-.11.31-.87-.1-1.38.02 0 .07 0 .11.04-.36-.52-.09-1.68-.86-1.5l-.38-.22c.24.43-.3.12-.29.35-.14-.12-.1-.52.07-.35l-.01.05c.37-.16-.26-.56-.06-.7-.65-.72-1.22-1.45-1.88-2l-.09.26-.22-.2c-.02-.09.05-.22.21-.08.01-.18-.36-.13-.4-.09-.25-.34.32-.12.22-.21l-.15-.09.01.05c-.18-.01-.26.06-.44-.1-.09-.14.04-.17 0-.21.01-.01 0-.03-.07-.07l-.27-.25-.02.23c-.19-.04-.25-.23-.27.04.03-.4-.93-.99-.94-1.18-.24-.08-.4-.24-.54-.47.01.07-.11.22-.23.01.35-.14-.14-.43 0-.72-.06.22-.37-.52-.44-.2-.05-.19.11-.06.12-.23-.31-.36-.31-.91-.4-1.44-.04-.01-.08.09-.14-.03.04-.1.11-.2.16-.29-.02-.11-.2-.11-.07-.3-.03.03-.07.06-.08-.01.17-1.07.51-2.29 1.41-3.06-.12.1-.05.02.03-.07-.06.06-.01-.02-.03-.02l.38-.31c.06-.07.42-.32.47-.35l-.13.08c.17-.12-.26.13-.25.09-.18.14-.57.29-.82.6-.08.05.04-.06-.01-.04-.06.08-.13.18-.3.33l.01-.02c-.41.48-.6.69-.97 1.32l.08-.02c-.07.14-.11.16-.16.22.02.2.19-.4.22-.21-.25.13-.37 1.02-.56 1.13-.05.24.11-.06.06.18l-.06.06.06.07c-.04.16-.1.23-.16.24.01-.04 0-.11 0-.16-.09.21-.03.6-.05.68l.04-.24c0 .68.11 1.56.5 2.11l.03-.07c.31.39.11.39.42.84l-.02-.01c.11.06.21.16.29.28-.13-.07.03.3-.14.2.41.36.23.15.63.27l-.03.13c.15.02.19 0 .39.17-.21-.09-.01.24-.27.15.19.59.73.42.65.86.4-.07-.21-.46-.06-.42-.01-.16.31-.03.41.1.12.12-.08.52.24.81-.03-.03-.05-.01-.08-.04.06.18.31.13.36.37.22-.09.18.18.38 0l-.33-.22c.21.1.58-.01.74.35-.06.02-.19.01-.27-.01.02.13.19.1.21.23-.21.19-.39-.27-.7-.28.01.17.46.15.18.3.38-.17.27.32.67.29l-.13.12c.05.01.17.01.23.07l-.26.07c.3.01.2.43.42.5-.32-.31.07-.23.03-.46.55.22-.07.56.38.94-.07-.04-.12-.3.02-.27.05.11.1.27.08.39.29.26.1-.17.29-.13-.07.25.19.09.36.17l-.14.12c.17.42.4-.17.51.25l-.3.02.17.13-.2.1c.24.08.26.16.31.37.1-.11.32-.16.41.01-.05.17-.2.03-.06.25-.14 0-.3.02-.19-.16-.06.02-.13.01-.19.03-.06.18.11.3.15.38-.01-.03-.02-.07 0-.1.15.06.25.14.38.22-.05.08-.13.06-.19.04.04.06.15.07.2.17-.17.02-.33.08-.44-.02.08.08.2.15.26.24-.07.04-.17.2-.24.18-.07.16.39.35.24.6.03.01.06.03.09.08-.05.23-.29.37-.11.67l-.34.07c.01.22.44-.1.46.27.02.28-.29.01-.4.07.09.16.33.51-.03.63-.09-.13-.01-.17 0-.25zm-1.56 2.68c0-.08-.04-.27.09-.23.17.21.04.18-.09.23zm-2.01 4.96c-.06-.06-.01-.14.1-.21 0 .07-.02.14-.1.21zm2.88 14.09c.09-.14.06-.09 0 0zm-.14.29c.01.03.03.04.06.03-.03-.03-.02-.1.01-.17-.04.01-.08.04-.07.14zm-1.31-29.82.02.07c-.14-.05-.08-.06-.02-.07z"/><path style="fill:#fff" d="M117.86 102.96c.04-.01.08 0 .13 0-.03-.04-.08-.05-.13 0zM121.85 94.45v-.01l-.04-.01zM119.66 113.34c.02-.06.05-.1.09-.12-.05 0-.09.03-.09.12zM120.51 119.67l.03-.2c-.02.09-.06.12-.1.16.03 0 .09-.02.07.04zM119.17 121.02c0 .03-.02.06-.01.09l.05.01c.04-.12.03-.21-.04-.1zM120.01 119.71c-.11-.02-.12.11-.14.24 0 0 0-.01.01-.02.13.09.14-.06.13-.22zM119.87 119.99c-.01.04-.02.08-.04.12.05.03.03-.05.04-.12zM120.73 118.43c-.05.06.14.08.09.1.13.11-.08-.47-.09-.1zM119.63 119.71l.14-.01-.08-.1zM120.02 118.71l-.1.2c.02 0 .03.03.03.07.04-.13.11-.26.07-.27zM119.95 118.98c-.02.07-.04.13-.02.17.01-.03.03-.11.02-.17zM119.67 119.42l.05-.05.05-.15zM120.51 116.44l-.02-.24c-.06-.03-.1.03-.09.12.04.06.05.15.11.12zM119.95 117.07c.04-.06.08-.05.14-.08l-.2-.04.06.12zM119.99 116.4c-.06-.03-.13-.35-.15-.06.05.02.07.26.15.06zM120.29 112.92l.01.06.4-.05zM118.6 110.24c-.01.28.28-.02.23.24.12.03.04-.22.15-.19-.16-.11-.13-.21-.38-.05zM118.98 110.3c.02.01.05.03.09.06-.04-.04-.07-.05-.09-.06zM118.37 79.64l.14-.1-.1.06zM118.65 79.44l.04-.02.09-.06c-.03.02-.01.01-.13.08zM119.23 98.73l.05.05c.08.02.11-.01.17-.07l-.22.02zM120.78 96.97l-.03.03.27.08zM121.23 95.37c-.02.05-.01.14-.04.19.01-.14.36-.11.04-.19z"/></g><g style="opacity:.3"><path style="fill:#fff" d="M101.19 135.49s-.04.05-.05.06c.11-.12.05-.06.05-.06zM102.23 134.27l-.01.03.13-.2zM103.13 133.06c-.14.08-.3.46-.48.66l-.04.03-.04.12c.16-.23.35-.5.56-.81zM103.73 132.47c-.06.03.07-.16-.12.16.01-.01.03-.02.03-.02a.99.99 0 0 1 .09-.14zM103.65 132.6c-.09.13.08-.08 0 0zM104.02 131.94l-.08.2c.05-.03.15-.19.13-.12.09-.2.05-.17-.05-.08zM104.05 131.73l-.04.11c.02-.02.03-.04.04-.11zM103.92 132.06l.08-.22c-.03.02-.06.01-.04.1-.01-.04 0 .02-.04.12zM103.84 132.16c-.08.09-.17.22-.09.02-.19.36-.11.34.09-.02zM103.1 132.95l-.1.12-.05.13c.03-.06.18-.24.15-.25zM104.65 130.72c-.02-.02-.1.05-.13.06l-.03.16c.04-.08.11-.22.16-.22zM104.51 130.77l.04-.24c-.07.21-.07.25-.04.24zM103.95 131.65l-.1.38.14-.45zM104.92 129.8l.03.15-.04-.26zM105.02 129.17c.05.11.12-.14.15-.03.01-.18-.03-.33-.07-.47.01.15-.01.31-.08.5zM105.03 128.45c.01.05.04.13.07.22a.935.935 0 0 0-.07-.22zM104.68 130.14c.02-.01.07-.04.13-.17l-.1.08-.03.09zM104.7 130.04c.03-.1.05-.17.05-.21 0 .03-.02.1-.05.21zM104.67 130.16l.01-.02c-.01 0-.01.01-.01.02zM104.26 131.1c.02-.14.06-.43-.08-.19.01.12.1-.02.08.19zM104.54 130.25l-.09.24c.02 0 .06-.04.06.04l.03-.28zM104.55 130.13l-.01.12.04-.09zM104.92 128.91c-.03-.12-.02-.24-.03-.38-.02.21-.04.34-.05.46.02.02.07.08.08-.08zM104.83 129.47v-.03c-.01.02-.02.03 0 .03zM104.78 127.16l-.02.03h.02zM104.82 129.01c-.02.11-.01.18.01.25.01-.11.01-.19.01-.27-.02-.02-.03-.02-.02.02zM104.98 128.06c-.02.08-.04.14-.05.2.03-.06.07-.18.05-.2zM104.86 129.41v.02c.02-.04.01-.04 0-.02zM104.86 129.41c0-.06-.02-.11-.03-.15v.19l.03-.04zM104.01 126.93c.1-.01.26.24.2.5.11.22.4.01.55-.24-.04 0-.08.01-.19-.22-.03.1-.02.57-.15.38-.12-.31-.02-.27 0-.44-.09.16-.27-.36-.44-.24l.13.25c-.02.01-.09-.08-.1.01z"/><path style="fill:#fff" d="m104.81 127.67.02.1c0-.12.03-.21.09-.39-.06-.17-.11-.2-.15-.2l.05.52-.01-.03zM104.87 128.25c-.1-.08-.15-.32-.26-.16.02.3.09.21.14.39-.04-.5.06.14.1-.22.02.1.03.19.03.27.01-.08.02-.16.04-.27l-.01.01c-.01.02-.02.03-.01.01v-.01c-.01 0-.02-.01-.03-.02.02-.15.03-.03.04.02l.02.01c-.02-.17-.04-.34-.08-.5 0 .17 0 .23.02.47zM104.11 130.63c.01-.01.02-.01.02-.01 0-.03 0-.05-.02.01z"/><path style="fill:#fff" d="M104.2 130.45c0 .04.03.07-.02.18-.05.09-.03-.01-.06-.01 0 .07-.02.24.08.05v-.03c.08-.17.24-.4.24-.36-.08.03-.14.07-.24.17zM104.58 129.38c0-.14.01-.27-.01-.41l-.09.2.05-.01c-.04.24.02.19.05.22zM104.82 127.1l.12.03-.2-.2zM104.71 126.58l.11-.01-.09-.12zM101.46 100.96l.04-.14c-.03.06-.04.1-.04.14zM100.95 101.86l.07.06c-.03-.06-.05-.1-.07-.06zM107.36 116.55c.26-.09.61-.21.42-.28l-.2-.03c-.04.15-.13.24-.22.31zM103.89 108.47l-.02.08c.08-.01.15-.03.22-.04-.06-.02-.12-.03-.2-.04zM103.17 108.92l-.04-.26c-.01.07 0 .15.04.26zM104.74 97.52l-.05-.22c-.13.13 0 .15.05.22zM103.52 121.65c.06-.13.08-.23.08-.31-.09.15-.21.29-.08.31zM103.09 102.37c0-.07-.03-.11-.06-.13-.01.07.01.12.06.13z"/><path style="fill:#fff" d="M103.62 121.01c-.02.02-.03.04-.04.06.02.09.02.17.02.28.05-.12.13-.22.02-.34zM101.1 84.28v-.04s-.01.02 0 .04zM102.25 79.63c-.04.06-.07.1-.11.16.03-.05.03-.05.11-.16zM104.24 124.53c.04.1.02.01 0 0zM103.91 125.2c-.02-.02-.04-.03-.07-.02.03-.01.05 0 .07.02zM102.84 119.9c-.04.01-.03.01 0 0zM104.23 124.71v-.15.15zM104.28 124.66c.01.04.01.07.01.1.03.01.04-.01-.01-.1z"/><path style="fill:#fff" d="M104.2 124.39c.02.06.03.12.03.17 0-.02.01-.03.01-.03-.01-.03-.02-.07-.04-.14zM106.02 91.67v-.03c-.1-.06-.07-.03 0 .03zM106.03 113.45h.01l.01-.01z"/><path style="fill:#fff" d="M105.81 113.18c.27.06.26.15.24.26l.52-.23c-.26-.02-.51-.03-.76-.03z"/><path style="fill:#fff" d="m102.94 99.27-.34.07c.07-.45.33-.55-.04-.55.39.46-.83.85-.41 1.33l-.24.07c.04-.04.02-.07.07-.11-.5.11.14.51-.24.86-.15.11-.29.18-.29.03l-.09.44c-.07.1-.15.02-.08-.08-.11.19-.18.4-.25.61l-.01-.01c.05.15.12.39.15.49-.13.13-.04-.1-.13-.08l.04.38c-.2.1-.27-.23-.17-.47-.69.16.02.32-.45 1.01l-.02-.38c-.4.18-.32.5-.55.95.12-.14.62-.83.74-.39-.05.11-.09.27.04.48-.23 0-.16.22-.13.49l-.3.02c.12.29.28.24.44.38.03.32-.17.43-.34.56.09.52.27-.44.48.12.02.42.25.66.61.98.03.28-.19.04-.22.17l.32.1c.02.05-.05.07-.09.08.18.13.27-.13.49.08.32-.11-.08.79.45.87-.02.12-.18.07-.25.16.5.26.41.24.91.35l.06.39c.02-.34.43-.26.77-.19.03-.14.05-.25.06-.32l.4.22c0 .07-.11.11-.25.13l.11.01c.02.19-.17.24-.37.27l.04-.24c-.21.04-.43.09-.55.22.05 0 .1.02.16.06-.06.01-.1.03-.12.05-.01.03.07.02.17.03l-.19.29.12-.07.22.57c.53.09 1.12 0 1.62.44-.29.02-.34.21-.57.38.14-.32-.39-.29-.55-.57.08.15-.05.21-.11.21l.57.26c-.19.14-.07.2-.06.38.31-.37.5.15.74.26-.12.1-.29.14-.41-.1-.12.44.68.02.59.44-.04-.06-.04-.1-.12-.08.21.06.3.45.14.44l-.04-.06c.19.4.57 1.17.94 1.13-.05.02-.46.09-.54.09.49.09.99.24 1.45.47-.33-.01-1.07.35-1.3.06-.03.1-.06.21.08.39.05-.06.45-.22.5-.12-.35.28-.17.21-.48.49.07-.09.58.02.55.2-.07-.03-.5-.03-.55-.09.17.13.3.27.44.44-.07-.12-.41-.1-.56-.06.1-.01-.08.27-.07.37.06-.03.1-.06.15-.1-.21.32.48.68.16 1.09-.04-.11-.42-.47-.59-.34.15.21.58 1.16.31 1.63l-.16-.05-.18.35c-.04-.42-.07-1.41-.14-1.81-.19.04-.15-.08-.3.1-.15-.03-.05-.24-.02-.29l-.45.33c.21.19-.17.53-.01.69.12-.23.23-.45.32-.67.22.19.25.87-.16 1.13-.16-.01-.24-.45-.3-.51.02.11-.24.43-.31.4l.07-.25c-.27.09-.12.56-.54.58-.1.06-.5-.02-.41.12.36.09 1 .8 1.07 1.04-.05 0-.6.15-.79.15-.31-.01-.23-.59-.49-.61.05.06.04.2.03.25-.13.06-.14-.19-.29.06.18.2-.35.47.1.25-.1.27-.21.21-.35.51.2 0 .36.5.38.74-.06-.04-.16-.01-.2 0-.18.47-.32.74-.34 1.23-.07.04-.13.28-.24.19.05.07.14.13.15.28-.18.31-.06-.34-.29-.1.15.01.22.39.35.59.19-.09-.02-.49-.12-.71.31 0 .61.33.83.77.12.35-.16.19-.11.25.11.72.6.47.55 1.1-.1.28-.32.11-.43.2-.15-.29-.03-.5-.09-.7l-.01.28c-.08-.08-.19-.28-.16-.4-.12.24.3 1.21.36 1.78.08.08.19.23.23.13l-.08-.16c.07-.2.28.26.26.03.16.2.37.42.4.77l-.15.12c.05-.02.04-.25-.04-.32.12.11-.07.57.19.65l.05-.27c.15.21.4.45.42.77.13-.18-.04-.06.1-.33-.18.25-.18-.77-.36-.4.16-.29-.01-.4.11-.75-.05.03-.08.13-.12-.12-.02-.01-.05-.02-.07-.04v-.02.02c-.01-.01-.01-.01 0 .01-.01.07-.02.12-.05.15-.17-.08-.28-.46-.39-.57-.01-.15.09.04.13-.06l-.16-.16c.13-.06.12-.45.29-.14l-.07-.3c.03-.2.01-.45-.09-.57 0-.15-.24-.31-.1-.22l-.18-.43.04-.01c-.05-.43-.39-.89-.06-1.35-.03-.13-.08-.28.02-.48l.15-.01c-.03-.18.29-.38.16-.49.43.01.41-.55.71-.7l-.14-.15c.15-.13.27-.31.44-.55l-.13-.13c.1-.28.61-.3.96-.59.02.07-.08.13-.17.14.7.01.72-.95 1.31-1.16.04-.15.12-.22.23-.27l-.01.04.04-.05c.07-.03.14-.06.21-.11-.07.03-.14.05-.19.08.07-.09.14-.26.19-.43l.22.04c.01-.02.01-.02.01-.04.15-.12-.03-.17-.21-.16a.67.67 0 0 0-.02-.25c.38.01.05-.44.46-.51-.11-.16.04-.88-.35-.98.05 0 .08-.05.07.04.06-.17.1-.35-.02-.5l.27-.09a4.23 4.23 0 0 0-.41-.33c.13-.24.21-.37.46-.17-.43-.48-.21-.43-.65-.76l.18-.04c-.06-.16-.37-.3-.27-.44.2-.49-.71-1.58-1-2.45-.33.47-.06-.48-.41-.24.07-.12.05-.26.22-.22-.38-.27-.29-.67-.74-.65.07-.12.2-.06.23-.14-.04-.01-.17-.03-.14-.11s.12-.02.21-.01c-.3-.31-.62-.08-.93.14-.01-.28-.09-.35-.38-.31.05-.14.06-.31.27-.14-.09-.13-.42-.81-.67-.64.03-.08-.11-.17-.16-.19-.18-.27-.17-.31-.37-.56l.01.1c-.38.1-.22-.18-.38-.37l.04-.01c-.04-.63-.25-.16-.22-.8l-.19.12c-.47.14.06-.57-.18-.8l-.09.15c-.22-.15.53-.61.58-.74.04-.03.07.04.11.08.24-.38-.3-.01-.39-.29.16-.05.4.04.43-.13.13-.04-.5-.58-.1-.77-.13.02-.27.05-.31-.12.02-.25.61-.34.39-.69.04-.01.07 0 .1.01-.01-.2.19-.56.1-.78.66.37.55-1.13 1.06-.63l.43-.44.03.06c.32-.23.33-.45.33-.67.1-.03.09.07.11.1.54-.29.57-.37.71-.96l.19.12c0-.18.9-.41 1.09-1.12.02.02.04.05.03.12.25-.66 1.41-1.43.76-1.95-.03-.18-.04-.35-.08-.52-.17.59-.29-.14-.46.07 0-.22.3-.55.3-.26l-.04.04c.38.16.2-.74.43-.72-.05-1.23-.28-2.42-.8-3.4l-.17.23-.17-.34c0-.11.11-.21.24.03.06-.19-.34-.34-.39-.31-.2-.5.37.03.28-.11l-.14-.18v.06c-.19-.1-.28-.06-.46-.33-.07-.2.07-.17.03-.24.01-.01.01-.04-.07-.1l-.27-.39-.04.26c-.2-.11-.26-.35-.3-.06.08-.46-1-1.39-1.05-1.58-.28-.13-.46-.34-.67-.61.03.09-.08.24-.25 0 .35-.15-.22-.51-.17-.85 0 .27-.54-.62-.52-.23-.12-.21.09-.08.05-.27-.44-.39-.66-1.06-1-1.65-.04 0-.03.13-.15.02l.01-.39c-.07-.12-.23-.05-.2-.32-.01.04-.04.1-.07.02-.3-1.29-.44-2.87.39-4.05-.1.16-.05.04.02-.08-.05.08-.02-.02-.04-.01.13-.15.24-.31.39-.45.05-.11.46-.45.52-.47-.05.03-.11.07-.16.11.19-.17-.3.2-.29.15-.19.21-.62.48-.82.93-.07.09.03-.09-.01-.05-.04.12-.11.25-.23.49v-.03c-.28.71-.4 1.03-.53 1.91l.07-.06c-.02.19-.05.23-.06.32.09.21.03-.53.13-.33-.19.25.04 1.31-.09 1.51.05.29.07-.1.13.18l-.03.09.08.05c.03.19 0 .3-.04.33-.01-.05-.05-.13-.07-.18 0 .27.23.68.24.77l-.07-.28c.31.73.69 1.64 1.24 2.18l.01-.08c.41.41.21.42.61.89l-.02-.01c.12.06.25.18.34.31-.15-.08.07.32-.12.21.47.41.26.18.69.34l-.03.14c.16.04.21.02.42.24-.23-.14-.01.26-.28.12.19.66.77.59.65 1.06.43.03-.18-.55-.03-.46 0-.17.34.04.43.22.12.17-.13.53.13.94-.02-.04-.05-.03-.07-.07.02.2.29.24.28.51.25 0 .13.26.38.15l-.28-.36c.18.18.6.24.65.7-.07 0-.18-.09-.26-.14-.01.15.15.19.13.34-.26.09-.29-.46-.61-.59-.03.17.41.35.09.38.43-.01.16.44.55.61l-.17.05c.04.04.16.1.19.19l-.27-.07c.27.17.01.52.16.7-.14-.47.17-.17.23-.42.41.54-.32.49-.13 1.11-.03-.08.05-.35.16-.23-.02.13-.06.31-.15.4.07.41.18-.09.31.08-.21.17.11.2.18.4l-.19.01c-.14.48.4.14.21.59l-.24-.21c.02.08.03.15.04.23l-.21-.07c.13.25.06.33-.06.53.15-.01.34.12.26.34-.17.1-.13-.14-.24.15-.08-.11-.2-.23.02-.29-.06-.03-.1-.1-.15-.13-.17.09-.17.32-.22.41.02-.03.06-.07.09-.08.02.16.05.33.04.5-.1.02-.13-.06-.15-.13-.03.08.02.18-.04.31-.12-.12-.26-.21-.24-.39-.02.14-.04.28-.08.43-.08-.02-.29.04-.31-.04-.21.1-.14.64-.49.79.01.04.01.08-.03.15-.27.19-.63.22-.79.67l-.39-.08c-.21.26.51.09.16.53-.23.33-.29-.11-.45-.08-.05.25-.09.71-.55.78.09-.15.2-.18.27-.28zm-2.3 4.14c-.05-.1-.15-.32-.01-.38.24.16.1.22.01.38zm3.31 5.8c-.1 0-.13-.09-.13-.22.07.04.12.11.13.22zm-.13 14.24c.01-.19 0-.12 0 0zm.03.36c.03.03.05.02.07 0-.04-.01-.07-.09-.08-.18-.04.04-.05.09.01.18zm2.52-33.71.01.09c-.14-.12-.08-.1-.01-.09z"/><path style="fill:#fff" d="M103.25 108.87c.01-.04.04-.07.07-.11-.04 0-.08.03-.07.11zM104.75 97.56h.01l-.02-.04zM102.99 118.14c.08-.05.14-.06.18-.06-.03-.03-.09-.03-.18.06zM104.6 125.61l-.09-.22c.04.11.02.16.01.22.03-.02.06-.08.08 0zM104.27 127.82c.02.03.01.07.03.1l.05-.02c-.02-.14-.08-.23-.08-.08zM104.23 125.95c-.1.05-.03.18.03.34 0 0 0-.01-.01-.03.17.01.08-.16-.02-.31zM104.28 126.33c.02.05.03.1.04.15.06 0 0-.07-.04-.15zM104.05 124.22c-.01.08.16 0 .13.05.18.04-.32-.43-.13-.05zM103.91 126.18l.12-.09-.13-.06zM103.63 124.92l.04.26c.02-.01.05.02.07.05-.05-.15-.07-.33-.11-.31zM103.74 125.23c.02.08.05.16.09.19-.02-.04-.06-.13-.09-.19zM103.77 125.85v-.08l-.04-.18zM102.92 122.22l-.09-.27c-.06-.02-.09.06-.05.16.05.07.09.17.14.11zM102.65 123.17c.01-.08.05-.1.09-.16l-.2.04.11.12zM102.41 122.34c-.06-.02-.25-.41-.16-.03.06.03.16.31.16.03zM103.8 118.26l-.05.05.29.28zM105.58 115.16c-.2.13.21.19-.02.3.05.11.19-.09.23.01-.01-.19.07-.23-.21-.31zM105.79 115.47c0 .03.01.06.01.1.01-.05 0-.08-.01-.1zM102.78 79.06l.16-.14c-.04.02-.07.06-.11.09l-.05.05zM103.1 78.81l.04-.03.11-.07c-.03.02-.01 0-.15.1zM100.03 104.22l.07.02c.08-.05.08-.12.08-.26l-.15.24zM101.42 100.52l-.04.05.28.07zM103.17 98.33c-.09.06-.14.18-.23.24.14-.18.46-.01.23-.24z"/></g></svg>