<svg xmlns="http://www.w3.org/2000/svg" viewBox="0 0 150 150" style="enable-background:new 0 0 150 150" xml:space="preserve"><path style="fill:#d7f7ff" d="M148.23 75.01c0 40.46-32.79 73.2-73.23 73.2-40.44 0-73.23-32.74-73.23-73.2 0-30.9 19.13-57.33 46.2-68.08 8.36-3.33 17.48-5.15 27.02-5.15 8.36 0 16.39 1.39 23.86 3.97 28.74 9.89 49.38 37.18 49.38 69.26z"/><path style="fill:#fff" d="M107.67 17.65c.07 1.13-.33 2.15-1.06 2.88-.66.66-1.58 1.06-2.6 1.06H47.49c-1.96 0-3.71-1.46-3.83-3.4-.07-1.13.35-2.13 1.06-2.86.69-.66 1.58-1.06 2.6-1.06h5.6c2.01 0 3.66-1.65 3.66-3.66 0-2.03-1.65-3.68-3.66-3.68h-4.94C56.34 3.6 65.46 1.78 75 1.78c8.36 0 16.39 1.39 23.86 3.97-.02.05-.05.07-.09.12-.66.66-1.58 1.06-2.6 1.06H84.03c-2.03 0-3.66 1.65-3.66 3.68 0 2.01 1.63 3.66 3.66 3.66h19.8c1.95 0 3.7 1.44 3.84 3.38z"/><path style="fill:#ed6e64" d="m123.45 39.51 4.46 21.92-4.46 38.92-40.64 1.35H71.24V75.38l11.57-5.98v-7.97h8.36v-8.76l8.78 2.01V42.52l9.97 4.96 3.31-7.97z"/><path style="fill:#ed6e64" d="M6.81 101.69c10.67 27.25 37.18 46.53 68.2 46.53 31.02 0 57.53-19.28 68.2-46.53H6.81z"/><path d="M143.2 101.7c-10.65 27.24-37.18 46.51-68.2 46.51-21.78 0-41.36-9.52-54.78-24.61 12.94 11.55 30 18.57 48.71 18.57 28.65 0 53.48-16.46 65.48-40.46h8.79z" style="opacity:.05"/><path style="fill:#fff" d="M53.74 45.51c.05.65-.19 1.23-.61 1.65-.38.39-.91.62-1.49.62h-7a2.11 2.11 0 0 0 0 4.22h11.42c1.13 0 2.13.83 2.21 1.96.05.65-.19 1.23-.61 1.65-.38.39-.91.62-1.49.62h-32.6c-1.13 0-2.13-.84-2.2-1.97-.04-.65.2-1.23.62-1.64.39-.39.91-.62 1.49-.62h3.22a2.11 2.11 0 0 0 0-4.22H16.61c-1.13 0-2.13-.84-2.2-1.97-.04-.65.2-1.23.62-1.64.39-.39.91-.62 1.49-.62h35.01c1.13 0 2.13.83 2.21 1.96zM82.36 38.82c0 4.47-3.62 8.09-8.09 8.09s-8.09-3.62-8.09-8.09 3.62-8.09 8.09-8.09 8.09 3.62 8.09 8.09z"/><path style="fill:#ed6e64" d="M74.93 101.7c.07-.03.14-.06.2-.09 8.87-4.04 18.64-7.06 28.82-8.88 6.83-1.22 14.22-1.89 20.78-.03 6.29 1.78 10.82 5.54 15.7 9h-65.5z"/><path d="M75 0C33.66 0 0 33.64 0 75s33.66 75 75 75c41.36 0 75-33.64 75-75S116.36 0 75 0zm9.02 15.45h19.8c1.42 0 2.57 1.02 2.67 2.29.09 1.48-1 2.67-2.48 2.67H47.48c-1.37 0-2.58-1.02-2.65-2.29-.08-1.47 1.05-2.67 2.48-2.67h5.6c2.67 0 4.84-2.17 4.84-4.84 0-1.84-1.02-3.45-2.53-4.28A71.08 71.08 0 0 1 75 3.54c6.07 0 11.98.76 17.62 2.2h-8.6c-2.67 0-4.84 2.2-4.84 4.87s2.17 4.84 4.84 4.84zM49.91 8.1h3c1.37 0 2.48 1.13 2.48 2.5 0 1.35-1.13 2.48-2.48 2.48h-5.6c-2.7 0-4.99 2.24-4.84 5.17.17 2.53 2.36 4.51 5.01 4.51h56.53c2.68 0 4.84-2.07 4.84-4.84v-.35c-.19-2.53-2.39-4.49-5.03-4.49h-19.8c-1.37 0-2.48-1.11-2.48-2.48s1.11-2.5 2.48-2.5h12.14c.83 0 1.61-.19 2.29-.59 27.92 9.73 48 36.31 48 67.49 0 8.98-1.68 17.6-4.72 25.51h-.92c-4.24-2.93-8.76-6.82-15.19-8.76l3.47-30.19c0-.12 0-.24-.02-.35l-4.44-21.92c-.12-.57-.61-.94-1.16-.94h-10.25c-.47 0-.9.28-1.09.71l-2.83 6.8-8.83-4.39c-.35-.17-.8-.17-1.13.07-.35.21-.57.59-.57.99V53.2l-7.32-1.65c-.35-.09-.71 0-.99.21-.29.23-.46.56-.46.92v7.58h-7.2c-.64 0-1.18.52-1.18 1.18v7.25L70.7 74.33c-.39.2-.64.61-.64 1.05v25.13H8.27A70.835 70.835 0 0 1 3.54 75c0-30.57 19.3-56.72 46.37-66.9zm42.45 82.09c0-2.86 0 11.71.01-36.02l7.32 1.65c.35.09.71 0 .99-.21.28-.24.45-.57.45-.92V44.43l7.39 3.69-3.57 13.8c-.09.38 0 .78.24 1.06l7.58 8.93-6.76 11.53c-.09.19-.14.4-.14.61v7.16a124.84 124.84 0 0 0-21.9 5.58V62.63h6.02V90.2c0 1.55 2.37 1.55 2.37-.01zm-11.64 10.32c9.42-3.62 17.8-5.76 25.16-6.9 14.47-2.72 21.55.15 30.9 6.9H80.72zm42.61-9.38c-5.13-1.09-10.54-.85-15.09-.26v-6.52l6.99-11.98c.26-.45.21-.99-.12-1.37l-7.72-9.09c.06-.24 3.9-15.03 3.66-14.13l2.98-7.09h8.48l4.2 20.79-3.38 29.65zm-41.72 6.5c-2.36.9-4.65 1.87-6.92 2.88h-2.27V76.1l9.19-4.75v26.28zm59.18 5.24a71.255 71.255 0 0 1-4.96 9.59H14.17a71.255 71.255 0 0 1-4.96-9.59h131.58zm-20.74 27.55h-90.1a72.227 72.227 0 0 1-14.27-15.59h118.63c-3.96 5.88-8.78 11.12-14.26 15.59zm-87.03 2.36h83.95c-11.79 8.6-26.29 13.68-41.98 13.68-15.67 0-30.18-5.08-41.97-13.68z"/><path d="M16.61 48.97H26.7c.52 0 .94.4.94.92s-.43.94-.94.94h-3.21c-1.97 0-3.4 1.59-3.31 3.52.12 1.72 1.61 3.07 3.38 3.07h32.6a3.28 3.28 0 0 0 3.28-3.54c-.12-1.72-1.61-3.05-3.38-3.05H44.65c-.52 0-.94-.43-.94-.94 0-.52.43-.92.94-.92h6.99c.87 0 1.72-.35 2.34-.97 1.1-1.14.9-2.34.94-2.57-.12-1.72-1.61-3.05-3.38-3.05H16.51c-1.94 0-3.42 1.62-3.28 3.52.12 1.72 1.6 3.07 3.38 3.07zm-.1-4.23h35.03c.52 0 .99.38 1.02.85.05.6-.44 1.02-.92 1.02h-6.99c-1.82 0-3.31 1.46-3.31 3.28s1.49 3.31 3.31 3.31h11.41c.52 0 .99.38 1.04.85a.97.97 0 0 1-.94 1.02h-32.6c-.52 0-.99-.4-1.02-.87-.04-.5.35-.99.94-.99h3.21c1.82 0 3.31-1.49 3.31-3.31s-1.49-3.28-3.31-3.28H16.61c-.52 0-.99-.4-1.02-.87a.902.902 0 0 1 .92-1.01zM74.27 48.09c5.13 0 9.28-4.16 9.28-9.28 0-5.1-4.16-9.26-9.28-9.26-5.1 0-9.26 4.16-9.26 9.26 0 5.13 4.16 9.28 9.26 9.28zm0-16.18c3.8 0 6.92 3.09 6.92 6.9 0 3.8-3.12 6.92-6.92 6.92s-6.9-3.12-6.9-6.92 3.09-6.9 6.9-6.9z"/></svg>