<svg xmlns="http://www.w3.org/2000/svg" width="512" height="512" style="enable-background:new 0 0 512 512" xml:space="preserve"><path xmlns="http://www.w3.org/2000/svg" d="M335.36 411.15a69.341 69.341 0 0 1-69.34 69.34h-78.04a69.23 69.23 0 0 1-22.11-3.621 69.158 69.158 0 0 0 52.11 23.621h78.04a69.341 69.341 0 0 0 69.34-69.34v-98.64h-30z" fill="#d4e1f4" data-original="#d4e1f4"/><path xmlns="http://www.w3.org/2000/svg" d="M365.049 182.169c-17.844.7-35.819 8.161-50.615 21-30.03 26.062-37.8 66.754-18.094 92.089l-34.34 31.7V194.8c39.861-3.184 71.5-44.143 71.5-94.043 0-51.97-34.317-94.25-76.5-94.25s-76.5 42.28-76.5 94.25c0 49.9 31.64 90.859 71.5 94.043v136.436h10v-2.965l6.129 6.639 35.122-32.418c10.024 8.581 23.08 12.855 37 12.855 17.914 0 37.24-7.047 53.314-21 14.8-12.841 24.711-29.588 27.919-47.155 3.282-17.976-.808-34.671-11.516-47.009s-26.668-18.729-44.919-18.014zM190.5 100.761c0-46.456 29.832-84.25 66.5-84.25s66.5 37.794 66.5 84.25c0 44.257-27.081 80.627-61.348 83.972l-.146-37.128 24.868-20.232a5 5 0 1 0-6.31-7.757l-18.608 15.139-.116-29.338 25.034-20.366a5 5 0 1 0-6.31-7.757L257 96.464l-23.563-19.17a5 5 0 0 0-6.311 7.757l24.713 20.105.116 29.526-18.518-15.066a5 5 0 0 0-6.311 7.757l24.88 20.241.146 37.149c-34.411-3.163-61.652-39.614-61.652-84.002zM411.647 245.4c-2.8 15.339-11.55 30.042-24.636 41.4-24.41 21.186-57.031 24.481-76.356 8.859l20.3-18.733 22.455 3.925a5 5 0 1 0 1.722-9.85l-14.93-2.61 14.26-13.162 23.7 4.142a5 5 0 1 0 1.722-9.85l-22.265-3.892-.72-22.592a5 5 0 1 0-9.994.318l.78 24.52-14.995 13.834-.548-17.194a5 5 0 1 0-9.994.319l.822 25.846-19.25 17.768c-15.805-21.221-8.465-55.39 17.269-77.724 13.085-11.357 28.873-17.949 44.454-18.563 15.16-.591 28.3 4.58 36.973 14.58s11.957 23.728 9.231 38.659z" fill="#1ae5be" data-original="#1ae5be"/><path xmlns="http://www.w3.org/2000/svg" d="M118.434 294.35c14.8 12.842 32.771 20.3 50.615 21 .928.037 1.846.055 2.761.055 14.4 0 27.215-4.524 36.978-12.936l36.054 33.242 6.779-7.351-35.934-33.132c9.415-12.1 12.9-27.928 9.8-44.9-3.208-17.567-13.123-34.314-27.919-47.155-30.863-26.785-73.719-28.123-95.535-2.986s-14.46 67.379 16.401 94.163zm-8.851-87.609c8.508-9.8 21.015-14.632 34.656-14.632 15.542 0 32.553 6.275 46.772 18.615 13.086 11.357 21.835 26.06 24.636 41.4 2.518 13.789-.1 26.548-7.348 36.3l-19.269-17.771.823-25.819a5 5 0 1 0-9.994-.319l-.548 17.177-14.99-13.82.781-24.519a5 5 0 0 0-9.994-.318l-.72 22.592-22.266 3.892a5 5 0 1 0 1.723 9.85l23.7-4.143 14.273 13.16L156.873 271a5 5 0 1 0 1.723 9.85l22.478-3.929 20.3 18.72c-8.372 6.791-19.455 10.216-31.935 9.721-15.581-.613-31.369-7.206-44.454-18.563-26.693-23.171-33.604-59.084-15.402-80.058z" fill="#1ae5be" data-original="#1ae5be"/><path xmlns="http://www.w3.org/2000/svg" d="M365.364 327.511H148.635a5 5 0 0 0-5 5v98.637a74.426 74.426 0 0 0 74.342 74.341h78.047a74.425 74.425 0 0 0 74.34-74.341v-98.637a5 5 0 0 0-5-5zm-5 103.637a64.413 64.413 0 0 1-64.34 64.341h-78.047a64.414 64.414 0 0 1-64.342-64.341v-93.637h206.729z" fill="#671cc9" data-original="#0635c9"/></svg>