<?xml version="1.0" encoding="utf-8"?>
<!-- Generator: Adobe Illustrator 25.2.0, SVG Export Plug-In . SVG Version: 6.00 Build 0)  -->
<svg version="1.1" xmlns="http://www.w3.org/2000/svg" xmlns:xlink="http://www.w3.org/1999/xlink" x="0px" y="0px"
	 viewBox="0 0 500 500" style="enable-background:new 0 0 500 500;" xml:space="preserve">
<style type="text/css">
	.st0{fill:#EBEBEB;}
	.st1{fill:#F5F5F5;}
	.st2{display:none;}
	.st3{display:inline;}
	.st4{fill:#407BFF;}
	.st5{opacity:0.9;fill:#FFFFFF;}
	.st6{fill:#FFFFFF;}
	.st7{fill:#671CC9;}
	.st8{opacity:0.5;fill:#671CC9;}
	.st9{opacity:0.2;fill:#407BFF;}
	.st10{opacity:0.7;fill:#671CC9;}
	.st11{opacity:0.2;}
	.st12{opacity:0.1;}
	.st13{fill:#FF8B7B;}
	.st14{opacity:0.7;fill:#FFFFFF;}
	.st15{fill:#263238;}
	.st16{fill:#FF5652;}
	.st17{opacity:0.5;fill:#FFFFFF;}
	.st18{opacity:0.8;fill:#FFFFFF;}
</style>
<g id="Background_Complete">
	<g>
		<rect y="382.4" class="st0" width="500" height="0.2"/>
		<rect x="416.8" y="398.5" class="st0" width="33.1" height="0.2"/>
		<rect x="322.5" y="401.2" class="st0" width="8.7" height="0.2"/>
		<rect x="396.6" y="389.2" class="st0" width="19.2" height="0.2"/>
		<rect x="52.5" y="390.9" class="st0" width="43.2" height="0.2"/>
		<rect x="104.6" y="390.9" class="st0" width="6.3" height="0.2"/>
		<rect x="131.5" y="395.1" class="st0" width="93.7" height="0.2"/>
		<path class="st0" d="M237,337.8H43.9c-3.1,0-5.7-2.6-5.7-5.7V60.7c0-3.1,2.6-5.7,5.7-5.7H237c3.1,0,5.7,2.6,5.7,5.7v271.4
			C242.7,335.2,240.2,337.8,237,337.8z M43.9,55.2c-3,0-5.5,2.4-5.5,5.5v271.4c0,3,2.4,5.5,5.5,5.5H237c3,0,5.5-2.4,5.5-5.5V60.7
			c0-3-2.4-5.5-5.5-5.5H43.9z"/>
		<path class="st0" d="M453.3,337.8H260.2c-3.1,0-5.7-2.6-5.7-5.7V60.7c0-3.1,2.6-5.7,5.7-5.7h193.1c3.1,0,5.7,2.6,5.7,5.7v271.4
			C459,335.2,456.5,337.8,453.3,337.8z M260.2,55.2c-3,0-5.5,2.4-5.5,5.5v271.4c0,3,2.4,5.5,5.5,5.5h193.1c3,0,5.5-2.4,5.5-5.5V60.7
			c0-3-2.4-5.5-5.5-5.5H260.2z"/>
	</g>
	<g>
		<g>
			<path class="st0" d="M277.7,160.7l-0.5-13.1l8.1-2.6c0.3-4.5,1.1-8.9,2.2-13.2l-6.8-5l4.6-12.3l8.5,0.7c2-4,4.4-7.8,7-11.4
				l-4.4-7.3l9-9.6l7.6,3.9c3.4-2.9,7-5.5,10.8-7.8l-1.2-8.4l12-5.4l5.5,6.4c4.2-1.4,8.5-2.4,13-3l2-8.2l13.2-0.5l2.6,8.1
				c4.5,0.4,8.9,1.1,13.2,2.2l5.1-6.8l12.3,4.6l-0.7,8.5c4,2,7.8,4.4,11.4,7.1l7.3-4.4l9.6,9l-3.9,7.6c2.9,3.4,5.5,7,7.8,10.8
				l8.4-1.3l5.5,12l-6.5,5.5c1.4,4.2,2.4,8.6,3,13l8.3,2.1l0.5,13.1l-8.1,2.6c-0.3,4.5-1.1,8.9-2.2,13.2l6.8,5l-4.6,12.3l-8.5-0.7
				c-2,4-4.4,7.8-7,11.4l4.4,7.3l-9,9.6l-7.6-3.9c-3.4,2.9-7,5.5-10.8,7.8l1.3,8.4l-12,5.4l-5.5-6.4c-4.2,1.4-8.5,2.4-13,3l-2,8.2
				l-13.2,0.5l-2.6-8.1c-4.5-0.4-8.9-1.1-13.2-2.2l-5,6.8l-12.3-4.6l0.6-8.5c-4-2-7.8-4.4-11.4-7.1l-7.3,4.4l-9.6-9l3.9-7.6
				c-2.9-3.4-5.5-7-7.8-10.8l-8.4,1.3l-5.5-12l6.5-5.5c-1.4-4.2-2.4-8.5-3-13L277.7,160.7z M366.5,203.3c28.8-1,51.3-25.1,50.3-53.9
				c-1-28.8-25.1-51.3-53.9-50.4s-51.3,25.1-50.3,53.9C313.6,181.7,337.7,204.2,366.5,203.3z"/>
		</g>
		<g>
			<path class="st1" d="M119.8,316.4l-0.2-5.9l3.6-1.2c0.1-2,0.5-4,1-6l-3.1-2.3l2.1-5.6l3.8,0.3c0.9-1.8,2-3.5,3.2-5.1l-2-3.3
				l4.1-4.3l3.4,1.7c1.5-1.3,3.2-2.5,4.9-3.5l-0.6-3.8l5.4-2.5l2.5,2.9c1.9-0.6,3.8-1.1,5.9-1.4l0.9-3.7l5.9-0.2l1.2,3.6
				c2,0.2,4,0.5,5.9,1l2.3-3.1l5.6,2.1l-0.3,3.8c1.8,0.9,3.5,2,5.1,3.2l3.3-2l4.3,4l-1.7,3.4c1.3,1.5,2.5,3.2,3.5,4.9l3.8-0.6
				l2.5,5.4l-2.9,2.5c0.6,1.9,1.1,3.9,1.4,5.9l3.7,0.9l0.2,5.9l-3.7,1.2c-0.1,2-0.5,4-1,5.9l3.1,2.3l-2.1,5.6l-3.8-0.3
				c-0.9,1.8-2,3.5-3.2,5.1l2,3.3l-4.1,4.3l-3.4-1.7c-1.5,1.3-3.2,2.5-4.9,3.5l0.6,3.8l-5.4,2.5l-2.5-2.9c-1.9,0.6-3.8,1.1-5.9,1.4
				l-0.9,3.7l-5.9,0.2l-1.2-3.6c-2-0.2-4-0.5-5.9-1L148,350l-5.6-2.1l0.3-3.8c-1.8-0.9-3.5-2-5.1-3.2l-3.3,2l-4.3-4l1.7-3.4
				c-1.3-1.5-2.5-3.2-3.5-4.9l-3.8,0.6l-2.5-5.4l2.9-2.5c-0.6-1.9-1.1-3.8-1.4-5.9L119.8,316.4z M159.8,335.6
				c13-0.4,23.1-11.3,22.7-24.3c-0.4-13-11.3-23.2-24.3-22.7c-13,0.4-23.1,11.3-22.7,24.3C136,325.9,146.8,336.1,159.8,335.6z"/>
		</g>
		<g>
			<path class="st0" d="M117.7,96l-3.3-3.1l1.3-2.6c-1-1.2-1.9-2.4-2.7-3.7l-2.9,0.4l-1.9-4.1l2.2-1.9c-0.5-1.5-0.8-3-1.1-4.5
				l-2.9-0.7l-0.1-4.5l2.8-0.9c0.1-1.5,0.4-3.1,0.7-4.6l-2.3-1.7l1.6-4.3l2.9,0.2c0.7-1.4,1.5-2.7,2.4-3.9l-1.5-2.5l3.1-3.3l2.6,1.3
				c1.2-1,2.4-1.9,3.7-2.7L122,46l4.1-1.9l1.9,2.2c1.5-0.5,3-0.8,4.5-1l0.7-2.8l4.5-0.2l0.9,2.8c1.5,0.1,3.1,0.4,4.5,0.7l1.7-2.4
				l4.3,1.6L149,48c1.4,0.7,2.7,1.5,3.9,2.4l2.5-1.5l3.3,3.1l-1.3,2.6c1,1.2,1.9,2.4,2.7,3.7L163,58l1.9,4.1l-2.2,1.9
				c0.5,1.5,0.8,3,1.1,4.5l2.9,0.7l0.1,4.5l-2.8,0.9c-0.1,1.5-0.4,3.1-0.7,4.6l2.4,1.7l-1.6,4.3l-2.9-0.2c-0.7,1.4-1.5,2.7-2.4,3.9
				l1.5,2.5l-3.1,3.3l-2.6-1.3c-1.2,1-2.4,1.9-3.7,2.7l0.4,2.9l-4.1,1.9l-1.9-2.2c-1.5,0.5-3,0.8-4.5,1l-0.7,2.8l-4.5,0.2l-0.9-2.8
				c-1.5-0.1-3.1-0.4-4.5-0.7l-1.7,2.4l-4.3-1.6l0.2-2.9c-1.4-0.7-2.7-1.5-3.9-2.4L117.7,96z M141.3,76.9c2.4-2.6,2.3-6.7-0.3-9.1
				c-2.6-2.4-6.7-2.3-9.1,0.3c-2.4,2.6-2.3,6.7,0.3,9.1C134.8,79.7,138.9,79.5,141.3,76.9z"/>
		</g>
		<path class="st0" d="M209.4,311l7.6-5.2c0,0,0,0,0,0c0.7-2.7,1.8-5.4,3-7.9l-1.9-7.6l11-11.7l7.7,1.4c2.4-1.4,5-2.6,7.6-3.6
			c0,0,0,0,0,0l4.7-7.9l16.1-0.6l5.2,7.6c0,0,0,0,0,0c2.7,0.7,5.4,1.8,7.9,3l7.6-1.9l11.7,11l-1.4,7.7c0,0,0,0,0,0
			c1.5,2.4,2.6,5,3.6,7.7l7.9,4.7l0.6,16.1l-7.6,5.2c-0.7,2.8-1.7,5.4-3,7.9c0,0,0,0,0,0l1.9,7.6l-11,11.7l-7.7-1.4
			c-2.4,1.4-5,2.6-7.7,3.6c0,0,0,0,0,0l-4.7,7.9l-16.1,0.6l-5.2-7.6c-2.8-0.7-5.4-1.8-7.9-3c0,0,0,0,0,0l-7.6,1.9l-11.7-11l1.4-7.7
			c-1.5-2.4-2.6-5-3.6-7.7c0,0,0,0,0,0l-7.9-4.7L209.4,311z M259.4,335.4c10-0.3,17.8-8.7,17.4-18.7c-0.3-10-8.7-17.8-18.7-17.4
			c-10,0.3-17.8,8.7-17.4,18.7C241.1,328,249.5,335.8,259.4,335.4z"/>
		<path class="st0" d="M74.1,121c-0.4,0-0.7-0.2-0.9-0.5l-2.8-4c-1.4-0.4-2.7-0.9-4-1.5l-4,1c-0.4,0.1-0.8,0-1.1-0.3l-6.8-6.4
			c-0.3-0.3-0.4-0.7-0.3-1l0.7-4c-0.7-1.2-1.3-2.5-1.8-3.9l-4.2-2.5c-0.3-0.2-0.5-0.6-0.6-0.9L48,87.5c0-0.4,0.2-0.8,0.5-1l4-2.8
			c0.4-1.3,0.9-2.7,1.5-4l-1-4c-0.1-0.4,0-0.8,0.3-1.1l6.4-6.8c0.3-0.3,0.7-0.4,1-0.3l4.1,0.7c1.2-0.7,2.5-1.3,3.9-1.8l2.5-4.2
			c0.2-0.3,0.6-0.5,0.9-0.6l9.3-0.3c0.4,0,0.8,0.2,1,0.5l2.8,4c1.4,0.4,2.7,0.9,4,1.5l4-1c0.4-0.1,0.8,0,1.1,0.3l6.8,6.4
			c0.3,0.3,0.4,0.7,0.3,1l-0.7,4.1c0.7,1.2,1.3,2.5,1.8,3.9l4.2,2.5c0.3,0.2,0.5,0.6,0.6,0.9l0.3,9.3c0,0.4-0.2,0.8-0.5,1l-4,2.8
			c-0.4,1.4-0.9,2.8-1.5,4l1,4c0.1,0.4,0,0.8-0.3,1.1l-6.4,6.8c-0.3,0.3-0.7,0.4-1,0.3l-4-0.7c-1.3,0.7-2.6,1.3-3.9,1.8l-2.5,4.2
			c-0.2,0.3-0.6,0.5-0.9,0.6L74.1,121C74.1,121,74.1,121,74.1,121z M66.5,112.5c0.2,0,0.4,0,0.5,0.1c1.4,0.7,2.9,1.3,4.4,1.7
			c0.3,0.1,0.5,0.2,0.6,0.5l2.7,3.9l8.1-0.3l2.4-4c0.1-0.2,0.4-0.4,0.6-0.5c1.4-0.5,2.9-1.2,4.2-2c0.2-0.1,0.5-0.2,0.8-0.1l3.8,0.7
			l5.5-5.9l-1-3.8c-0.1-0.3,0-0.6,0.1-0.8c0.7-1.3,1.3-2.8,1.7-4.4c0.1-0.3,0.2-0.5,0.5-0.6l3.9-2.7l-0.3-8.1l-4-2.4
			c-0.2-0.1-0.4-0.4-0.5-0.6c-0.5-1.5-1.2-2.9-2-4.2c-0.2-0.2-0.2-0.5-0.2-0.8l0.7-3.9l-5.9-5.5l-3.8,1c-0.3,0.1-0.5,0-0.8-0.1
			c-1.4-0.7-2.9-1.3-4.3-1.7c-0.3-0.1-0.5-0.2-0.7-0.5l-2.7-3.9L72.8,64l-2.4,4c-0.1,0.2-0.3,0.3-0.4,0.4c-0.1,0-0.2,0.1-0.2,0.1
			c-1.4,0.5-2.8,1.1-4.2,2c-0.2,0.1-0.5,0.2-0.8,0.1l-3.9-0.7l-5.5,5.9l1,3.8c0.1,0.3,0,0.5-0.1,0.8c-0.7,1.4-1.3,2.9-1.7,4.3
			c-0.1,0.3-0.2,0.5-0.5,0.6l-3.9,2.7l0.3,8.1l4,2.4c0.2,0.1,0.4,0.4,0.5,0.6c0.5,1.5,1.2,2.9,2,4.2c0.1,0.2,0.2,0.5,0.1,0.8
			l-0.7,3.9l5.9,5.5l3.8-1C66.3,112.6,66.4,112.5,66.5,112.5z M99.4,78.4L99.4,78.4L99.4,78.4z M77.8,108.2c-4.3,0-8.4-1.6-11.6-4.6
			c-3.3-3.1-5.2-7.3-5.4-11.8c-0.2-4.5,1.5-8.9,4.6-12.2c3.1-3.3,7.3-5.2,11.9-5.4c4.5-0.2,8.9,1.5,12.2,4.6
			c3.3,3.1,5.2,7.3,5.4,11.9c0.2,4.5-1.5,8.9-4.6,12.2c-3.1,3.3-7.3,5.2-11.9,5.4l0,0C78.2,108.2,78,108.2,77.8,108.2z M77.8,76.4
			c-0.2,0-0.3,0-0.5,0c-3.9,0.1-7.6,1.8-10.3,4.7c-2.7,2.9-4.1,6.6-4,10.6c0.1,3.9,1.8,7.6,4.7,10.3c2.9,2.7,6.6,4.1,10.6,4l0,0
			c3.9-0.1,7.6-1.8,10.3-4.7c2.7-2.9,4.1-6.6,4-10.6c-0.1-3.9-1.8-7.6-4.7-10.3C85.1,77.8,81.5,76.4,77.8,76.4z"/>
	</g>
</g>
<g id="Background_Simple" class="st2">
	<g class="st3">
		<path class="st4" d="M218.5,195.2c50.9-46.8,140.3-218,216.1-124.1c63.5,78.6-15.8,192.6-67.5,240.8
			c-67.2,62.8-182.3,79-258.7,19.3c-32.9-25.7-52.2-70-9-91.8c14.6-7.4,42.7-4.1,59.7-10C180.9,221.8,201.5,210.9,218.5,195.2z"/>
		<path class="st5" d="M218.5,195.2c50.9-46.8,140.3-218,216.1-124.1c63.5,78.6-15.8,192.6-67.5,240.8
			c-67.2,62.8-182.3,79-258.7,19.3c-32.9-25.7-52.2-70-9-91.8c14.6-7.4,42.7-4.1,59.7-10C180.9,221.8,201.5,210.9,218.5,195.2z"/>
	</g>
</g>
<g id="Shadow_1_">
	<ellipse id="_x3C_Path_x3E__203_" class="st1" cx="250" cy="416.2" rx="193.9" ry="11.3"/>
</g>
<g id="Website">
	<g>
		<g>
			<path class="st6" d="M416.4,324.9H83.6c-8.2,0-14.8-6.6-14.8-14.8V97.3c0-8.2,6.6-14.8,14.8-14.8h332.8c8.2,0,14.8,6.6,14.8,14.8
				v212.8C431.2,318.2,424.6,324.9,416.4,324.9z"/>
			<path class="st4" d="M435.3,247.6h-1v-9h1V247.6z M435.3,231.6h-1v-18.7h1V231.6z"/>
			<path class="st7" d="M416.4,325.4H83.6c-8.5,0-15.4-6.9-15.4-15.4V97.3c0-8.5,6.9-15.4,15.4-15.4h332.8c8.5,0,15.4,6.9,15.4,15.4
				v212.8C431.8,318.5,424.9,325.4,416.4,325.4z M83.6,83c-7.9,0-14.3,6.4-14.3,14.3v212.8c0,7.9,6.4,14.3,14.3,14.3h332.8
				c7.9,0,14.3-6.4,14.3-14.3V97.3c0-7.9-6.4-14.3-14.3-14.3H83.6z"/>
		</g>
		<path class="st8" d="M189.8,274.7h-5v-1.1h5V274.7L189.8,274.7z M179.7,274.7h-5v-1.1h5V274.7z M169.6,274.7h-5v-1.1h5V274.7z
			 M159.5,274.7h-5v-1.1h5V274.7z M149.5,274.7h-5v-1.1h5V274.7z M139.4,274.7h-5v-1.1h5V274.7z M129.3,274.7h-5v-1.1h5V274.7z
			 M119.2,274.7h-5v-1.1h5V274.7z M109.1,274.7h-5v-1.1h5V274.7z M99,274.7h-1.9c-1.2,0-2.3-0.3-3.3-0.8l0.5-1
			c0.9,0.4,1.8,0.7,2.8,0.7H99V274.7z M194.8,272.8l-0.7-0.8c1.1-1.1,1.9-2.5,2-4.1l1.1,0.1C197,269.8,196.2,271.5,194.8,272.8z
			 M90.3,270c-0.3-0.8-0.5-1.7-0.5-2.6v-2.5h1.1v2.5c0,0.8,0.1,1.5,0.4,2.3L90.3,270z M197.2,262.9h-1.1v-5h1.1V262.9z M90.9,259.8
			h-1.1v-5h1.1V259.8z M197.2,252.8h-1.1v-5h1.1V252.8z M90.9,249.7h-1.1v-5h1.1V249.7z M197.2,242.7h-1.1v-5h1.1V242.7z
			 M90.9,239.6h-1.1v-5h1.1V239.6z M197.2,232.6h-1.1v-5h1.1V232.6z M90.9,229.6h-1.1v-5h1.1V229.6z M197.2,222.6h-1.1v-5h1.1V222.6
			z M90.9,219.5h-1.1v-5h1.1V219.5z M197.2,212.5h-1.1v-5h1.1V212.5z M90.9,209.4h-1.1v-5h1.1V209.4z M197.2,202.4h-1.1v-5h1.1
			V202.4z M90.9,199.3h-1.1v-5h1.1V199.3z M197.2,192.3h-1.1v-5h1.1V192.3z M90.9,189.2h-1.1v-5h1.1V189.2z M197.2,182.2h-1.1v-5
			h1.1V182.2z M90.9,179.1h-1.1v-5h1.1V179.1z M197.2,172.1h-1.1v-5h1.1V172.1z M90.9,169h-1.1v-5h1.1V169z M197.2,162h-1.1v-5h1.1
			V162z M90.9,159h-1.1v-5h1.1V159z M197.2,152h-1.1v-2.5c0-0.8-0.1-1.6-0.4-2.3l1-0.4c0.3,0.9,0.5,1.8,0.5,2.7V152z M90.9,148.9
			l-1.1-0.1c0.2-1.8,1-3.5,2.3-4.8l0.7,0.8C91.7,145.9,91,147.4,90.9,148.9z M192.6,143.8c-0.9-0.4-1.8-0.6-2.8-0.6h-1.9v-1.1h1.9
			c1.1,0,2.2,0.3,3.3,0.8L192.6,143.8z M182.8,143.2h-5v-1.1h5V143.2z M172.8,143.2h-5v-1.1h5V143.2z M162.7,143.2h-5v-1.1h5V143.2z
			 M152.6,143.2h-5v-1.1h5V143.2z M142.5,143.2h-5v-1.1h5V143.2z M132.4,143.2h-5v-1.1h5V143.2z M122.3,143.2h-5v-1.1h5V143.2z
			 M112.2,143.2h-5v-1.1h5V143.2z M102.2,143.2h-5l0-1.1h5V143.2z"/>
		<path class="st7" d="M97.4,98.1c0,2.6-2.1,4.8-4.8,4.8s-4.8-2.1-4.8-4.8s2.1-4.8,4.8-4.8S97.4,95.4,97.4,98.1z"/>
		<path class="st9" d="M128.8,100.8h-23.4c-1.5,0-2.8-1.3-2.8-2.8l0,0c0-1.5,1.3-2.8,2.8-2.8h23.4c1.5,0,2.8,1.3,2.8,2.8l0,0
			C131.6,99.6,130.3,100.8,128.8,100.8z"/>
		<path class="st9" d="M241.7,99.6h-16.4c-0.8,0-1.5-0.7-1.5-1.5l0,0c0-0.8,0.7-1.5,1.5-1.5h16.4c0.8,0,1.5,0.7,1.5,1.5l0,0
			C243.2,98.9,242.5,99.6,241.7,99.6z"/>
		<path class="st9" d="M278.5,99.6h-16.4c-0.8,0-1.5-0.7-1.5-1.5l0,0c0-0.8,0.7-1.5,1.5-1.5h16.4c0.8,0,1.5,0.7,1.5,1.5l0,0
			C280.1,98.9,279.4,99.6,278.5,99.6z"/>
		<path class="st9" d="M315.4,99.6H299c-0.8,0-1.5-0.7-1.5-1.5l0,0c0-0.8,0.7-1.5,1.5-1.5h16.4c0.8,0,1.5,0.7,1.5,1.5l0,0
			C316.9,98.9,316.2,99.6,315.4,99.6z"/>
		<path class="st9" d="M352.3,99.6h-16.4c-0.8,0-1.5-0.7-1.5-1.5l0,0c0-0.8,0.7-1.5,1.5-1.5h16.4c0.8,0,1.5,0.7,1.5,1.5l0,0
			C353.8,98.9,353.1,99.6,352.3,99.6z"/>
		<path class="st10" d="M399.5,100.8h-24.9c-1.5,0-2.7-1.2-2.7-2.7l0,0c0-1.5,1.2-2.7,2.7-2.7h24.9c1.5,0,2.7,1.2,2.7,2.7l0,0
			C402.2,99.5,400.9,100.8,399.5,100.8z"/>
		<path class="st10" d="M276,283.5h-46.6c-3.2,0-5.8-2.6-5.8-5.8v-1.3c0-3.2,2.6-5.8,5.8-5.8H276c3.2,0,5.8,2.6,5.8,5.8v1.3
			C281.8,280.9,279.2,283.5,276,283.5z"/>
		<g>
			<path class="st9" d="M399.1,213.7v-48.6c0-0.8,0.7-1.5,1.5-1.5l0,0c0.8,0,1.5,0.7,1.5,1.5v48.6c0,0.8-0.7,1.5-1.5,1.5l0,0
				C399.8,215.2,399.1,214.5,399.1,213.7z"/>
			<circle class="st9" cx="400.6" cy="227.6" r="1.5"/>
			<circle class="st9" cx="400.6" cy="249.2" r="1.5"/>
			<circle class="st9" cx="400.6" cy="270.8" r="1.5"/>
		</g>
		<path class="st9" d="M354.4,167.2H236c-6.8,0-12.3-5.5-12.3-12.3v0c0-6.8,5.5-12.3,12.3-12.3h118.5c6.8,0,12.3,5.5,12.3,12.3v0
			C366.7,161.7,361.2,167.2,354.4,167.2z"/>
		<path class="st9" d="M311,202.8h-75c-6.8,0-12.3-5.5-12.3-12.3l0,0c0-6.8,5.5-12.3,12.3-12.3h75c6.8,0,12.3,5.5,12.3,12.3l0,0
			C323.2,197.3,317.7,202.8,311,202.8z"/>
		<path class="st0" d="M333,231.6H226.6c-1.6,0-2.9-1.3-2.9-2.9l0,0c0-1.6,1.3-2.9,2.9-2.9H333c1.6,0,2.9,1.3,2.9,2.9l0,0
			C335.9,230.3,334.6,231.6,333,231.6z"/>
		<path class="st0" d="M358.1,231.6h-10.9c-1.6,0-2.9-1.3-2.9-2.9l0,0c0-1.6,1.3-2.9,2.9-2.9h10.9c1.6,0,2.9,1.3,2.9,2.9l0,0
			C360.9,230.3,359.6,231.6,358.1,231.6z"/>
		<path class="st0" d="M273.5,237.7h45.8c1.6,0,2.9,1.3,2.9,2.9l0,0c0,1.6-1.3,2.9-2.9,2.9h-45.8c-1.6,0-2.9-1.3-2.9-2.9l0,0
			C270.6,239,271.9,237.7,273.5,237.7z"/>
		<path class="st0" d="M226.6,237.7h32.8c1.6,0,2.9,1.3,2.9,2.9l0,0c0,1.6-1.3,2.9-2.9,2.9h-32.8c-1.6,0-2.9-1.3-2.9-2.9l0,0
			C223.7,239,225,237.7,226.6,237.7z"/>
		<path class="st0" d="M291.1,255.3h-64.5c-1.6,0-2.9-1.3-2.9-2.9l0,0c0-1.6,1.3-2.9,2.9-2.9h64.5c1.6,0,2.9,1.3,2.9,2.9l0,0
			C293.9,254,292.6,255.3,291.1,255.3z"/>
		<path class="st0" d="M338,255.3h-32.8c-1.6,0-2.9-1.3-2.9-2.9l0,0c0-1.6,1.3-2.9,2.9-2.9H338c1.6,0,2.9,1.3,2.9,2.9l0,0
			C340.8,254,339.5,255.3,338,255.3z"/>
	</g>
</g>
<g id="Character_1_">
	<g>
		<path class="st7" d="M219.9,256.1l-91.2,17.4c-3.6,0.7-7.1-1.7-7.8-5.3L98.7,152.1c-0.7-3.6,1.7-7.1,5.3-7.8l91.2-17.4
			c3.6-0.7,7.1,1.7,7.8,5.3l22.1,116.1C225.9,251.9,223.5,255.4,219.9,256.1z"/>
		<g class="st11">
			<path class="st6" d="M125.1,269.5c-0.1,0-0.2,0-0.2-0.1c-0.2-0.1-0.3-0.4-0.2-0.7l73.6-137.6c0.1-0.2,0.4-0.3,0.7-0.2
				c0.2,0.1,0.3,0.4,0.2,0.7l-73.6,137.6C125.5,269.4,125.3,269.5,125.1,269.5z"/>
			<path class="st6" d="M221.4,251.1c-0.1,0-0.2,0-0.3-0.1l-119-100.9c-0.2-0.2-0.2-0.5-0.1-0.7c0.2-0.2,0.5-0.2,0.7-0.1l119,100.9
				c0.2,0.2,0.2,0.5,0.1,0.7C221.7,251.1,221.6,251.1,221.4,251.1z"/>
		</g>
	</g>
	<g>
		<path class="st7" d="M209.8,264.1c0,0,13,45.3,18.3,67.6c5.6,23.4,22.1,58.7,23.5,74.2c1.4,0.6,6.1-0.1,8.5-1.3
			c0,0-2.3-49.4-15.7-71.9c3-55.4-12-68.6-12-68.6H209.8z"/>
		<path class="st12" d="M226.7,286.8l-7.3,11.3c2.3,8.5,4.7,17.4,6.7,25C228,309.9,226.7,286.8,226.7,286.8z"/>
		<path class="st13" d="M236.7,225c0.2,0.6,0.4,1.1,0.5,1.6c0.2,0.5,0.3,1,0.4,1.5c0.3,1,0.5,2,0.7,3c0.4,2,0.7,4,0.9,6
			c0.2,2,0.3,4.1,0.3,6.1c0,2.1-0.2,4.1-0.5,6.2l0,0.3c0,0.2-0.1,0.5-0.2,0.7c-0.5,1.3-1.2,2.4-2,3.3c-0.8,0.9-1.6,1.5-2.4,2.1
			c-1.6,1.1-3.3,1.7-4.8,2.3c-1.6,0.5-3.1,0.8-4.7,1c-1.6,0.2-3,0.3-4.7,0.3c-1.5,0-2.7-1.3-2.7-2.8c0-1.1,0.7-2,1.6-2.4l0.2-0.1
			c1.1-0.5,2.4-1.1,3.6-1.6c1.2-0.6,2.3-1.2,3.3-1.8c1-0.6,1.9-1.3,2.5-2c0.6-0.6,0.8-1.2,0.7-1.3l-0.2,1c0-1.7,0-3.3-0.1-5
			c-0.1-1.7-0.3-3.4-0.6-5.1c-0.3-1.7-0.6-3.4-0.9-5.1c-0.2-0.8-0.4-1.7-0.6-2.5l-0.3-1.2l-0.3-1.1l-0.1-0.3
			c-0.8-2.9,0.9-5.9,3.8-6.6C232.9,220.8,235.8,222.3,236.7,225z"/>
		<path class="st13" d="M223.6,254.2l-6.5-1.9c-0.9-0.3-1.9-0.2-2.8,0.2l-2.4,1.1c-1.2,0.5-1.7,2-1.1,3.2l1.1,2.4
			c0.5,1,1.6,1.5,2.6,1.3l4.4-1c0,0,4.9,0.3,6.7-2.6L223.6,254.2z"/>
		<g>
			<path class="st4" d="M229.5,215.8c-3.5,3.6-5.4,9.1-2.5,19.6c3.7,1.9,12.8-0.6,12.8-0.6S239.9,219.1,229.5,215.8z"/>
			<path class="st14" d="M229.5,215.8c-3.5,3.6-5.4,9.1-2.5,19.6c3.7,1.9,12.8-0.6,12.8-0.6S239.9,219.1,229.5,215.8z"/>
		</g>
		<g>
			<path class="st15" d="M235.8,223.1c-0.2,0-0.3,0.2-0.3,0.3c0,0.2,0.2,0.3,0.3,0.3c0,0,0,0,0,0l1.6-0.1c-0.1-0.2-0.2-0.4-0.3-0.6
				L235.8,223.1z"/>
			<path class="st15" d="M235.5,229.6c-0.1-0.1-0.3-0.1-0.5,0c-0.1,0.1-0.1,0.3,0,0.5l4.7,4c0-0.2,0-0.6-0.1-0.9L235.5,229.6z"/>
			<path class="st4" d="M226,230.8l5.3-3.3c0.2-0.1,0.2-0.3,0.1-0.5c-0.1-0.2-0.3-0.2-0.5-0.1l-5.1,3.2
				C225.9,230.3,225.9,230.5,226,230.8z"/>
		</g>
		<path class="st13" d="M220.5,200.2c-0.7,4.6-1.1,12.9,2.1,15.5c0,0-4.3-0.1-12.5,6.5c-3-3.4-1.3-4.8-1.3-4.8
			c4.9-1.8,4.6-5.5,3.6-8.9L220.5,200.2z"/>
		<path class="st15" d="M207.6,194.6c-0.2,0.6-0.6,1-1,1c-0.4-0.1-0.6-0.6-0.4-1.2c0.2-0.6,0.6-1,1-1
			C207.5,193.4,207.7,194,207.6,194.6z"/>
		<path class="st15" d="M207.3,193.4l-1.3-0.7C206,192.8,206.4,194,207.3,193.4z"/>
		<path class="st16" d="M207.3,195.7c0,0-1.7,2.4-3.1,3.4c0.6,0.9,2,0.8,2,0.8L207.3,195.7z"/>
		<path class="st15" d="M207,189.6c0-0.1,0-0.2,0-0.3c0.1-0.2,0.3-0.3,0.5-0.2c1.9,0.7,2.4,2.3,2.4,2.4c0,0.2-0.1,0.4-0.3,0.4
			c-0.2,0-0.4-0.1-0.4-0.3c0-0.1-0.4-1.3-1.9-1.9C207.2,189.8,207.1,189.7,207,189.6z"/>
		<path class="st13" d="M227.6,195.9c-2.1,7.1-2.8,10.1-7.3,13.1c-6.7,4.5-14.9,0.9-15-6.5c0-6.7,3.4-17.1,11.1-18.7
			C224,182.2,229.7,188.8,227.6,195.9z"/>
		<path class="st15" d="M211.3,196.3c-4.2-3-2.1-8.4,1.7-8.6c-5-3.5-2.4-9.8,3.7-9.6s7,4,7,4s9.9,0.5,11.2,7.7
			c1.6,8.4-3.5,13.8-9.9,16.3c4.3,3.5-5.9,6-10.9,3.2C209,206.4,207.2,200.1,211.3,196.3z"/>
		<path class="st6" d="M234.5,186.9c-5.4-1-8.1,6.4-4.6,10.8c0.6,0.8,1.2,1.3,1.8,1.7c2.2,1.5,5.2,0,5.4-2.7
			C237.4,193.1,237.4,187.4,234.5,186.9z"/>
		<path class="st15" d="M249.1,190.7c0.4-0.3,0.7-0.7,0.7-1.1c0.2-2.1-1.4-3.5-3.3-3.8c-1.1-3.7-6-3.7-8.7-1.1
			c-2.2-1.1-4.7,1.4-4.4,4c-2.4,1.1-3,5-0.8,7.2c0.5,0.5,0.9,0.8,1.3,1c0.1,0.1,0.2,0.1,0.3,0.1c0.2,1.5,1.4,3,3.2,3.4
			c0.5,0.1,1,0.1,1.3,0.1c0.7-0.1,1.2-0.5,1.5-1.1c1.6,1.3,3.2,2.1,4.4,1.3c1.2-0.9,1.7-2.1,1.7-3.4c0.8,0.3,1.6,0.4,2.2-0.1
			C250.8,195.6,250.7,192.7,249.1,190.7z"/>
		<path class="st13" d="M213.6,197.4c-0.9,1.4-2.2,2.2-3.3,2.4c-1.7,0.3-2.3-1.7-1.5-3.6c0.7-1.7,2.3-3.9,3.9-3.3
			C214.3,193.5,214.6,195.8,213.6,197.4z"/>
		<g>
			<path class="st7" d="M211.3,192.2c1.5-2.8,9.5-10.5,14.9-10.2c1.4,0.4,2.5,0.9,3.2,1.3c0.2,0.1,0.1,0.4-0.1,0.4
				c-2.1,0.2-8.9,1.8-15.3,11.9C212.5,194.5,211.3,192.2,211.3,192.2z"/>
			<path class="st6" d="M214.5,197.9c-1.3,2.9-3.9,4.5-5.8,3.7c-1.9-0.9-2.4-3.9-1.1-6.8c1.3-2.9,3.9-4.5,5.8-3.7
				C215.3,192,215.8,195,214.5,197.9z"/>
			<path class="st7" d="M212.9,197.2c-1.2,2.6-3.4,4.1-5,3.4c-1.6-0.7-1.9-3.4-0.8-6c1.2-2.6,3.4-4.1,5-3.4
				C213.8,191.9,214.1,194.6,212.9,197.2z"/>
		</g>
		<path class="st15" d="M247.3,416.2c5.6-0.8,5.7-1.8,8.7-2.8c2.6-0.9,3.3-0.8,5.4-1.5c1.7-0.6,1.1-2.2,0-4
			c-0.6-0.9-0.7-1.7-1.3-3.3l-8.5,1.3c-0.8,2.4-1.1,5.4-6,7.2C242.7,414.1,245,416.5,247.3,416.2z"/>
		<path class="st15" d="M195.2,416.2c5.6,0,6.7-0.4,9.8-0.5c2.7-0.1,3.1,0.5,5.9,0.5c1.8,0,2.1-2,1.4-3.6c-0.5-1.2-0.6-2.6-1-4.2
			h-7.7c-1.4,2.4-5.2,4.2-9.4,4.5C191.2,413.3,193,416.2,195.2,416.2z"/>
		<path class="st7" d="M201.8,264.1c0,0-1.1,40.2,1.3,65.7c-0.1,23.9,0.6,78.8,0.6,78.8c0.2,1.2,6.6,0.7,7.7,0c0,0,12-39.9,6.7-78.8
			c13.4-40.5,10.5-65.7,10.5-65.7H201.8z"/>
		<g>
			<path class="st4" d="M250.5,402.8c0.1,0.8,0.2,2.1,0.2,3.2c0,0.4,0.3,0.7,0.7,0.7c3.2,0,7.6-1.4,9-1.8c0.3-0.1,0.4-0.3,0.4-0.6
				l0-3c0-0.4-0.4-0.7-0.8-0.7l-9,1.5C250.7,402.1,250.4,402.4,250.5,402.8z"/>
			<path class="st17" d="M250.5,402.8c0.1,0.8,0.2,2.1,0.2,3.2c0,0.4,0.3,0.7,0.7,0.7c3.2,0,7.6-1.4,9-1.8c0.3-0.1,0.4-0.3,0.4-0.6
				l0-3c0-0.4-0.4-0.7-0.8-0.7l-9,1.5C250.7,402.1,250.4,402.4,250.5,402.8z"/>
		</g>
		<g>
			<path class="st4" d="M202.7,405.1c0,0.8-0.1,2.3-0.1,3.4c0,0.4,0.2,0.7,0.6,0.7c2.7,0.4,7.1,0,8.5-0.1c0.3,0,0.5-0.2,0.6-0.5
				l0.6-3c0.1-0.4-0.2-0.8-0.7-0.8l-8.8-0.3C203,404.5,202.7,404.8,202.7,405.1z"/>
			<path class="st17" d="M202.7,405.1c0,0.8-0.1,2.3-0.1,3.4c0,0.4,0.2,0.7,0.6,0.7c2.7,0.4,7.1,0,8.5-0.1c0.3,0,0.5-0.2,0.6-0.5
				l0.6-3c0.1-0.4-0.2-0.8-0.7-0.8l-8.8-0.3C203,404.5,202.7,404.8,202.7,405.1z"/>
		</g>
		<g>
			<path class="st4" d="M196.7,230.4c0.3,3,0.6,6.8,1.9,13.9c1,6,1.7,11.9,3.1,21.8c13.8,1.4,30,0.3,30.7-2
				c-1.1-8.6-1.1-20.2,2-40.1c0.7-4.6-2.6-8.6-7.2-8.5c-1.2,0-2.5,0.1-3.8,0.2c-5.1,0.4-9.3,0.7-13.8,1.7c-1.5,0.3-3,0.7-4.5,1.1
				C199.8,219.8,196.2,225,196.7,230.4z"/>
			<path class="st18" d="M196.7,230.4c0.3,3,0.6,6.8,1.9,13.9c1,6,1.7,11.9,3.1,21.8c13.8,1.4,30,0.3,30.7-2
				c-1.1-8.6-1.1-20.2,2-40.1c0.7-4.6-2.6-8.6-7.2-8.5c-1.2,0-2.5,0.1-3.8,0.2c-5.1,0.4-9.3,0.7-13.8,1.7c-1.5,0.3-3,0.7-4.5,1.1
				C199.8,219.8,196.2,225,196.7,230.4z"/>
		</g>
		<g>
			<path class="st15" d="M199.1,222.4l1.6,2c0.1,0.1,0.2,0.1,0.3,0.1c0.1,0,0.1,0,0.2-0.1c0.1-0.1,0.2-0.3,0.1-0.5l-1.7-2.1
				C199.4,222,199.3,222.2,199.1,222.4z"/>
			<path class="st7" d="M206.5,221.2C206.5,221.2,206.5,221.2,206.5,221.2c0.2,0,0.3-0.1,0.3-0.3l0.2-3c-0.2,0.1-0.4,0.1-0.7,0.2
				l-0.2,2.8C206.1,221,206.3,221.2,206.5,221.2z"/>
			<path class="st7" d="M220.8,223.9c0.1,0,0.1,0.1,0.2,0.1c0.1,0,0.2-0.1,0.3-0.1c0.1-0.2,0.1-0.4-0.1-0.5l-8.4-5.6
				c-0.2-0.1-0.4-0.1-0.5,0.1c-0.1,0.2-0.1,0.4,0.1,0.5L220.8,223.9z"/>
			<path class="st15" d="M206.5,225.7c-0.1,0.2,0,0.4,0.2,0.4l9.4,3.7c0,0,0.1,0,0.1,0c0.1,0,0.3-0.1,0.3-0.2c0.1-0.2,0-0.4-0.2-0.4
				l-9.4-3.7C206.8,225.5,206.6,225.6,206.5,225.7z"/>
			<path class="st7" d="M201.1,242.4c0.1,0,0.1,0.1,0.2,0.1c0.1,0,0.2-0.1,0.3-0.2l5.5-8.5c0.1-0.2,0.1-0.4-0.1-0.5
				c-0.2-0.1-0.4-0.1-0.5,0.1L201,242C200.9,242.1,200.9,242.3,201.1,242.4z"/>
			<path class="st4" d="M198.4,235c0.1,0.1,0.1,0.1,0.2,0.1c0.1,0,0.2,0,0.2-0.1c0.1-0.1,0.1-0.3,0-0.5l-2-1.8c0,0.3,0.1,0.7,0.1,1
				L198.4,235z"/>
			<path class="st7" d="M228.1,240.6c-0.2,0.1-0.3,0.3-0.2,0.4c0,0.1,0.2,0.2,0.3,0.2c0,0,0.1,0,0.1,0l4.2-1.5c0-0.2,0-0.5,0.1-0.7
				L228.1,240.6z"/>
			<path class="st7" d="M226.3,233.9c0.1,0,0.1,0,0.2-0.1l7.2-4.5c0-0.3,0.1-0.6,0.1-0.8l-7.7,4.8c-0.2,0.1-0.2,0.3-0.1,0.5
				C226.1,233.8,226.2,233.9,226.3,233.9z"/>
			<path class="st7" d="M221.4,235.1c-0.1-0.2-0.3-0.2-0.5-0.1l-8.5,5.4c-0.2,0.1-0.2,0.3-0.1,0.5c0.1,0.1,0.2,0.2,0.3,0.2
				c0.1,0,0.1,0,0.2-0.1l8.5-5.4C221.4,235.5,221.5,235.3,221.4,235.1z"/>
			<path class="st15" d="M228.6,223.8c0,0,0.1,0,0.1,0c0.2-0.1,0.3-0.3,0.2-0.4l-3-7.8c-0.2,0-0.5,0-0.7,0l3,8
				C228.3,223.7,228.4,223.8,228.6,223.8z"/>
			<path class="st7" d="M220.1,264.7c-0.2-0.1-0.4-0.1-0.5,0.1c-0.1,0.2-0.1,0.4,0.1,0.5l1.9,1.2c0.4,0,0.7,0,1.1-0.1L220.1,264.7z"
				/>
			<path class="st7" d="M232.1,261.6l-7.3-2.9c-0.2-0.1-0.4,0-0.4,0.2c-0.1,0.2,0,0.4,0.2,0.4l7.6,3
				C232.2,262.1,232.2,261.9,232.1,261.6z"/>
			<path class="st15" d="M201.4,263.8c0,0.2,0.1,0.4,0.1,0.6c0.1-0.1,0.2-0.2,0.2-0.3C201.7,264,201.5,263.8,201.4,263.8z"/>
			<path class="st7" d="M201.3,253.7c0.1,0,0.2,0,0.3-0.1c0.1-0.1,0.1-0.3,0-0.5l-1.8-1.5c0,0.3,0.1,0.6,0.1,1l1.3,1.1
				C201.1,253.7,201.2,253.7,201.3,253.7z"/>
			<path class="st15" d="M216.7,250.5c0.1,0,0.3-0.1,0.3-0.2c0.1-0.2,0-0.4-0.2-0.4l-9.4-3.7c-0.2-0.1-0.4,0-0.4,0.2
				c-0.1,0.2,0,0.4,0.2,0.4l9.4,3.7C216.6,250.4,216.6,250.5,216.7,250.5z"/>
			<path class="st7" d="M214.5,254.8l-8.5,5.4c-0.2,0.1-0.2,0.3-0.1,0.5c0.1,0.1,0.2,0.2,0.3,0.2c0.1,0,0.1,0,0.2-0.1l8.5-5.4
				c0.2-0.1,0.2-0.3,0.1-0.5C214.8,254.7,214.6,254.7,214.5,254.8z"/>
			<path class="st15" d="M222.4,252.2c0.1,0.1,0.2,0.2,0.3,0.2c0.1,0,0.1,0,0.2-0.1l8.5-5.4c0.2-0.1,0.2-0.3,0.1-0.5
				c-0.1-0.2-0.3-0.2-0.5-0.1l-8.5,5.4C222.3,251.9,222.3,252.1,222.4,252.2z"/>
			<path class="st15" d="M212.7,265c-0.1-0.2-0.3-0.3-0.4-0.2c-0.2,0.1-0.3,0.3-0.2,0.4l0.5,1.5c0.2,0,0.5,0,0.7,0L212.7,265z"/>
		</g>
		<path class="st13" d="M205.7,230.6c-0.1,0.7-0.1,1.1-0.2,1.6c-0.1,0.5-0.2,1-0.3,1.5c-0.2,1-0.4,2-0.6,3c-0.5,2-1.1,3.9-1.8,5.8
			c-0.7,1.9-1.5,3.8-2.4,5.6c-0.9,1.9-2,3.6-3.1,5.4l-0.2,0.3c-0.1,0.2-0.3,0.4-0.4,0.5c-1.8,1.7-3.5,2.9-5.2,4.1
			c-1.7,1.2-3.4,2.3-5.1,3.3c-1.7,1-3.5,2.1-5.2,3c-1.8,0.9-3.5,1.9-5.4,2.8c-1.4,0.6-3,0-3.6-1.3c-0.5-1.1-0.2-2.3,0.6-3.1l0,0
			c1.4-1.4,2.9-2.7,4.4-4l4.4-3.9c1.5-1.3,2.9-2.6,4.3-3.9c0.7-0.6,1.4-1.3,2-1.9l0.9-0.9c0.3-0.3,0.5-0.6,0.8-0.9l-0.6,0.8
			c0.7-1.5,1.4-3,2.1-4.5c0.6-1.6,1.2-3.2,1.7-4.8c0.5-1.6,0.9-3.3,1.3-5c0.2-0.8,0.4-1.7,0.6-2.5l0.4-2.4l0.1-0.3
			c0.6-2.9,3.4-4.9,6.3-4.3C204.2,225.2,206.1,227.8,205.7,230.6z"/>
		<path class="st13" d="M175.3,263l-5.6-1.7c-0.9-0.3-1.9-0.2-2.8,0.2l-2.5,1.1c-1.2,0.5-1.7,2-1.2,3.1l1.1,2.4
			c0.5,1,1.5,1.5,2.6,1.3l4.4-0.9c0,0,2.2,0.2,4.2-0.6c1.6-0.6,2.1-2.5,1.2-3.9l0,0C176.4,263.5,175.9,263.1,175.3,263z"/>
		<g>
			<path class="st4" d="M203.2,219.2c-4.7,1.8-8.8,5.9-10.7,16.6c2.6,3.3,11.8,5,11.8,5S211.2,226.7,203.2,219.2z"/>
			<path class="st18" d="M203.2,219.2c-4.7,1.8-8.8,5.9-10.7,16.6c2.6,3.3,11.8,5,11.8,5S211.2,226.7,203.2,219.2z"/>
		</g>
		<g>
			<path class="st15" d="M200.7,224.4c0.1,0.1,0.2,0.1,0.3,0.1c0.1,0,0.1,0,0.2-0.1c0.1-0.1,0.2-0.3,0.1-0.5l-2-2.5
				c-0.2,0.1-0.3,0.3-0.5,0.4L200.7,224.4z"/>
			<path class="st15" d="M206.5,225.7c-0.1,0.2,0,0.4,0.2,0.4l0.1,0c0-0.2-0.1-0.4-0.1-0.7C206.6,225.6,206.5,225.6,206.5,225.7z"/>
			<path class="st7" d="M202.7,240.5l3.5-5.5c0.1-0.5,0.2-1,0.3-1.6c-0.1,0-0.1,0.1-0.2,0.1l-4.4,6.8
				C202.3,240.4,202.5,240.4,202.7,240.5z"/>
			<path class="st7" d="M198.4,235c0.1,0.1,0.1,0.1,0.2,0.1c0.1,0,0.2,0,0.2-0.1c0.1-0.1,0.1-0.3,0-0.5L194,230
				c-0.1,0.2-0.2,0.5-0.2,0.7L198.4,235z"/>
		</g>
	</g>
</g>
<g id="Plant">
	<g>
		<g>
			<path class="st15" d="M334,327.8c-1.4-5.4,0.3-7.5,2.3-9.6c2-2.2,1.7-5.8,1.7-5.8s3.1,6.1,2.2,13.3
				C339.3,332.9,335,331.8,334,327.8z"/>
			<path class="st15" d="M342.6,371.5c-2.1-3.5-10.9-10.8-17.6-7.9c5.4,2.2,11.3,15.7,19.2,15.2
				C342.8,372.6,342.6,371.5,342.6,371.5z"/>
			<path class="st7" d="M348.8,401.6c-0.4,0-0.8-0.3-0.9-0.7c-1.3-5.3-12.7-52.7-17.2-86.3c-0.1-0.5,0.3-1,0.8-1.1
				c0.5-0.1,1,0.3,1.1,0.8c4.5,33.6,15.9,80.9,17.2,86.2c0.1,0.5-0.2,1-0.7,1.1C349,401.6,348.9,401.6,348.8,401.6z"/>
			<g>
				<path class="st7" d="M333,316.5c0.1-4-1.7-6.4-6.4-6.8c-4.7-0.4-6.1-2.4-7-4.2c1.6,9.1,12.5,11.4,13.6,15.9
					C333,318.1,333,316.5,333,316.5z"/>
				<path class="st7" d="M335.1,331.6c-0.4-4.2-3.7-4.7-7.6-5.2c-3.8-0.5-5.1-3-5.1-3s-1.7,5.4,2.8,9.7
					C329.7,337.4,335.4,334.7,335.1,331.6z"/>
				<path class="st7" d="M341.5,368.3c-0.7-4.6,2.5-6.6,2-13.4C352.6,370.6,342.5,375.6,341.5,368.3z"/>
				<path class="st7" d="M337.2,349.4c-2.6-3.9-6.2-3.3-10.4-8.7C330.3,358.4,341.2,355.5,337.2,349.4z"/>
			</g>
			<path class="st15" d="M356.5,350.3c0.2-6.3-5.6-9.6-10-15.9C349.1,346.9,356.1,360.2,356.5,350.3z"/>
			<path class="st7" d="M353.6,395.9C353.6,395.9,353.5,395.9,353.6,395.9c-0.7-0.1-1.2-0.6-1.1-1.2c1-13.2,4.7-70,3.7-107.2
				c0-0.6,0.5-1.1,1.1-1.1c0.6,0,1.1,0.5,1.1,1.1c1,37.3-2.7,94.2-3.7,107.4C354.6,395.5,354.2,395.9,353.6,395.9z"/>
			<g>
				<path class="st7" d="M356.4,290.5c-1.4-7.6,1.5-12.8,10.3-15c8.8-2.2,11.1-6.3,12.2-10.1c-0.3,18-20.8,25.6-21.5,34.6
					C356.9,293.5,356.4,290.5,356.4,290.5z"/>
				<path class="st7" d="M357.1,305.9c1.4-9.1-5.5-12.1-13.4-15.3c-7.9-3.1-9.3-9.1-9.3-9.1s-6.6,10.6,0.8,22.1
					S356.1,312.5,357.1,305.9z"/>
				<path class="st7" d="M357.1,329.2c1.5-7.2,7.5-7.6,14.4-7.7c6.8-0.1,9.5-4.2,9.5-4.2s2,9.8-6.8,16.4
					C365.4,340.4,356,334.5,357.1,329.2z"/>
				<path class="st7" d="M355.8,364.3c1.7-4.4,10.3-14.8,18.6-12.9c-5.7,3.7-9.7,20.6-18.9,21.6
					C355.8,365.6,355.8,364.3,355.8,364.3z"/>
			</g>
		</g>
		<g>
			<path class="st4" d="M363.8,386.2H336c-1.5,0-2.7,1.5-2.2,3l7.5,25.5c0.3,1,1.2,1.7,2.2,1.7h12.8c1,0,1.9-0.7,2.2-1.7l7.5-25.5
				C366.4,387.6,365.3,386.2,363.8,386.2z"/>
			<path class="st9" d="M363.8,386.2H336c-1.5,0-2.7,1.5-2.2,3l7.5,25.5c0.3,1,1.2,1.7,2.2,1.7h12.8c1,0,1.9-0.7,2.2-1.7l7.5-25.5
				C366.4,387.6,365.3,386.2,363.8,386.2z"/>
			<path class="st14" d="M363.8,386.2H336c-1.5,0-2.7,1.5-2.2,3l7.5,25.5c0.3,1,1.2,1.7,2.2,1.7h12.8c1,0,1.9-0.7,2.2-1.7l7.5-25.5
				C366.4,387.6,365.3,386.2,363.8,386.2z"/>
		</g>
	</g>
</g>
</svg>
