<svg xmlns="http://www.w3.org/2000/svg" viewBox="0 0 197.3 197.3" style="enable-background:new 0 0 197.3 197.3" xml:space="preserve"><path d="m184.7 128.7-56 56c-16.6 16.6-43.5 16.6-60.1 0l-56-56C-4 112.1-4 85.2 12.6 68.6l56-56C85.2-4 112.1-4 128.7 12.6l56 56c16.6 16.6 16.6 43.5 0 60.1z" style="fill:#671cc9"/><path d="M101.5 95.6 86.2 80.7c-3.9-3.8-10.1-3.7-13.9.1-3.8 3.9-3.7 10.1.1 13.9L89 110.9l5.1 5c4.9 4.8 12.8 4.7 17.6-.2l5-5.1 8.2-8.4c3.8-3.9 3.7-10.1-.1-13.9-3.9-3.8-10.1-3.7-13.9.1l-7 7.1c-.6.8-1.7.8-2.4.1z" style="fill:#fff"/></svg>