<svg xmlns="http://www.w3.org/2000/svg" xmlns:xlink="http://www.w3.org/1999/xlink" viewBox="0 0 197.3 197.3" style="enable-background:new 0 0 197.3 197.3" xml:space="preserve"><image style="overflow:visible" width="1000" height="1080" xlink:href="../../Users/21267/Desktop/lk-logo-letter-monogram-with-triangle-shape-vector-30050622.html" transform="translate(1236.252 39.465)"/><path d="m184.7 68.6-56-56C112.1-4 85.2-4 68.6 12.6l-56 56C-4 85.2-4 112.1 12.6 128.7l56 56c16.6 16.6 43.5 16.6 60.1 0l56-56c16.6-16.6 16.6-43.5 0-60.1zm-59.8 33.6-8.2 8.4-5 5.1c-4.8 4.9-12.7 5-17.6.2l-5.1-5-16.5-16.2c-3.9-3.8-3.9-10-.1-13.9 3.8-3.9 10-3.9 13.9-.1l15.2 14.9c.7.7 1.8.7 2.5 0l7-7.1c3.8-3.9 10-3.9 13.9-.1 3.8 3.7 3.8 10 0 13.8z" style="fill:#fff"/></svg>