<svg version="1.1" id="Layer_1" xmlns="http://www.w3.org/2000/svg" x="0" y="0" viewBox="0 0 800 500" style="enable-background:new 0 0 800 500" xml:space="preserve"><style>.st1{fill-rule:evenodd;clip-rule:evenodd;fill:#fff}.st5{fill:#900}.st6{fill:#01294d}.st7,.st8{fill-rule:evenodd;clip-rule:evenodd}.st8{fill:#333}.st9{fill:#fff}.st13{fill-rule:evenodd;clip-rule:evenodd;fill:#ffab45}.st24{fill:#878787}.st45{fill-rule:evenodd;clip-rule:evenodd;fill:#3c219c}.st47{fill:#c91602}.st61,.st62{fill-rule:evenodd;clip-rule:evenodd;fill:#3b1e01}.st62{fill:#1f1103}.st64{fill:#130152}.st84{fill-rule:evenodd;clip-rule:evenodd;fill:#5c2e00}.st85{fill:#e03800}</style><path style="fill-rule:evenodd;clip-rule:evenodd;fill:#671cc9" d="M0-.5h800v500H0z"/><path class="st1" d="M393.8 605.6c-1.6 0-2.9 1.3-2.9 2.9 0 1.6 1.3 2.9 2.9 2.9 1.6 0 2.9-1.3 2.9-2.9 0-1.6-1.3-2.9-2.9-2.9zM404.2 587.8c-.8 0-1.4.6-1.4 1.4s.6 1.4 1.4 1.4c.8 0 1.4-.6 1.4-1.4s-.6-1.4-1.4-1.4zM365.4 572c-.8 0-1.4.6-1.4 1.4 0 .8.6 1.4 1.4 1.4.8 0 1.4-.6 1.4-1.4 0-.7-.6-1.4-1.4-1.4zM360.9 624.5c-1.6 0-2.9 1.3-2.9 2.9 0 1.6 1.3 2.9 2.9 2.9 1.6 0 2.9-1.3 2.9-2.9 0-1.6-1.3-2.9-2.9-2.9zM471 609.3c-1.2 0-2.2 1-2.2 2.2 0 1.2 1 2.2 2.2 2.2 1.2 0 2.2-1 2.2-2.2 0-1.3-1-2.2-2.2-2.2zM302.2 593.3c-1.6 0-2.9 1.3-2.9 2.9s1.3 2.9 2.9 2.9c1.6 0 2.9-1.3 2.9-2.9s-1.3-2.9-2.9-2.9zM326.4 501.6c-2.1 0-3.8 1.7-3.8 3.8 0 2.1 1.7 3.8 3.8 3.8 2.1 0 3.8-1.7 3.8-3.8 0-2.2-1.7-3.8-3.8-3.8zM279.1 638.8c-1.7 0-3.1 1.4-3.1 3.1 0 1.7 1.4 3.1 3.1 3.1 1.7 0 3.1-1.4 3.1-3.1 0-1.7-1.4-3.1-3.1-3.1z"/><path d="M541 281.8c-.9-.5-2.1-.1-2.5.9L393 581.9c-.5.9-.1 2.1.9 2.5.9.5 2.1.1 2.5-.9l145.5-299.2c.5-1 .1-2.1-.9-2.5z"/><path class="st1" d="M181.6 576c7.4 8.3 18.6 11.9 29.6 9.7 0 0 6.4-12.9 16.9-37.4-10.9-9.2-22.6-12.7-32.9-12.7-9 27.1-13.6 40.4-13.6 40.4z"/><defs><filter id="Adobe_OpacityMaskFilter" filterUnits="userSpaceOnUse" x="184.9" y="536.7" width="22.6" height="44.1"><feColorMatrix values="1 0 0 0 0 0 1 0 0 0 0 0 1 0 0 0 0 0 1 0"/></filter></defs><mask maskUnits="userSpaceOnUse" x="184.9" y="536.7" width="22.6" height="44.1" id="SVGID_1_"><g style="filter:url(#Adobe_OpacityMaskFilter)"><linearGradient id="SVGID_2_" gradientUnits="userSpaceOnUse" x1="32.553" y1="773.386" x2="-47.382" y2="784.469" gradientTransform="translate(212.16 -221.392)"><stop offset="0" style="stop-color:#000"/><stop offset="1" style="stop-color:#fff"/></linearGradient><path style="fill:url(#SVGID_2_)" d="M184.9 536.7h22.6v44.1h-22.6z"/></g></mask><path d="M184.9 572.9c3.3 5.9 6.2 8.5 8.6 7.7 16.8-6.1-3.9-26 14-37.2-3.8-1.8-7.3-4.1-10.7-6.7-7.9 24.1-11.9 36.2-11.9 36.2z" style="mask:url(#SVGID_1_);fill-rule:evenodd;clip-rule:evenodd;fill:#929aa1"/><path class="st5" d="M223.5 555.7c-5.6-.5-11-1.9-16.2-4.1-5.1-2.2-9.9-5.1-14.2-8.8-.6-.5-1.5-.4-2 .2-.5.6-.4 1.5.2 2 4.5 3.9 9.5 7 14.8 9.3 5.4 2.3 11.1 3.8 17 4.3.8.1 1.4-.5 1.5-1.3.2-.8-.3-1.5-1.1-1.6z"/><path class="st6" d="M220.1 563.6c-5.5-.4-10.9-1.7-15.9-3.8-5-2.1-9.6-5.1-13.7-8.8-.6-.5-1.4-.5-2 .1-.5.6-.5 1.5.1 2 4.3 3.9 9.2 7.1 14.5 9.3 5.3 2.2 10.9 3.6 16.7 4 .8.1 1.4-.5 1.5-1.3.1-.7-.5-1.4-1.2-1.5z"/><path class="st7" d="M243.3 607.4s-5.2-3.7-17.8-15.7c.8-8.2 3.8-20.3-7.8-22.1-5-.8-9.8 2.1-11.6 6.8-20.5 2.2-21.3-34.2-35 31.3l23.7 11.4s7.9 1.6 23.7 4.7c25.1 8.8 40.5 9.1 46 .7 1.3-11.3-12.8-15-21.2-17.1z"/><path class="st8" d="M175.9 586.7c-2.2 8.7-3.8 15.7-4.9 21 17.8 9.7 27.8 12.6 29.9 8.7 2.7-7.5 1.2-15.9-4-22-5.1-6.2-13.1-9.1-21-7.7z"/><path class="st9" d="M264.4 624.5c-1.3-.8-3.1-.5-3.9.8-1.4 2.2-5.4 3.1-11.9 2.7-7.3-.5-17.3-2.7-30.1-6.8-2.7-2.1-5.8-3.6-9.1-4.4-3.2-.8-6.6-.9-9.9-.4l-27.3-8.7c-1.5-.5-3.1.3-3.6 1.8s.3 3.1 1.8 3.6l28 8.9c.5.2 1.1.2 1.6.1 2.7-.5 5.4-.4 8.1.2 2.7.7 5.2 1.9 7.4 3.6.3.2.6.4.9.5 13.4 4.2 24 6.6 31.9 7.1 8.7.6 14.4-1.2 17.1-5.3.7-1.1.3-2.8-1-3.7zM228.6 590.9l-11 6.6c-.7.4-.9 1.3-.5 2s1.3.9 2 .5l11-6.6c.7-.4.9-1.3.5-2s-1.3-.9-2-.5zM233.6 596.7l-8.5 5.6c-.7.4-.8 1.3-.4 2s1.3.8 2 .4l8.5-5.6c.7-.4.8-1.3.4-2-.5-.6-1.3-.8-2-.4zM239 601.6l-7.7 5.8c-.6.5-.8 1.4-.3 2 .5.6 1.4.8 2 .3l7.7-5.8c.6-.5.8-1.4.3-2-.5-.7-1.4-.8-2-.3z"/><path class="st1" d="M444.9 508.5c2.1 28.5 3.2 42.7 3.2 42.7 10 4.8 21.8 3.8 31-2.4 0 0 .1-13.3.4-39.8-13.6-4.3-25.1-4.4-34.6-.5z"/><defs><filter id="Adobe_OpacityMaskFilter_1_" filterUnits="userSpaceOnUse" x="447" y="509.2" width="17.5" height="42.6"><feColorMatrix values="1 0 0 0 0 0 1 0 0 0 0 0 1 0 0 0 0 0 1 0"/></filter></defs><mask maskUnits="userSpaceOnUse" x="447" y="509.2" width="17.5" height="42.6" id="SVGID_3_"><g style="filter:url(#Adobe_OpacityMaskFilter_1_)"><linearGradient id="SVGID_4_" gradientUnits="userSpaceOnUse" x1="65.256" y1="751.568" x2="-4.287" y2="792.518" gradientTransform="translate(432.38 -245.785)"><stop offset="0" style="stop-color:#000"/><stop offset="1" style="stop-color:#fff"/></linearGradient><path style="fill:url(#SVGID_4_)" d="M447 509.2h17.5v42.6H447z"/></g></mask><path d="M459.4 511.2c-4.2-.2-8.3-.9-12.4-2.1 1.9 25.4 2.9 38 2.9 38 5.4 4.2 9 5.5 10.9 3.8 13.1-12-13.6-22.4-1.4-39.7z" style="mask:url(#SVGID_3_);fill-rule:evenodd;clip-rule:evenodd;fill:#929aa1"/><path class="st5" d="M478.9 516.5c-5.4 1.6-10.9 2.4-16.5 2.4-5.6-.1-11.1-1-16.5-2.7-.7-.2-1.5.2-1.7.9-.2.7.2 1.5.9 1.8 5.6 1.8 11.4 2.8 17.3 2.8 5.8.1 11.7-.8 17.3-2.5.7-.2 1.1-1 .9-1.8-.1-.7-.9-1.2-1.7-.9z"/><path class="st6" d="M478.8 525.1c-5.2 1.8-10.7 2.6-16.1 2.6-5.4-.1-10.9-1-16.1-2.9-.7-.3-1.5.1-1.8.9-.2.7.1 1.5.9 1.8 5.5 2 11.2 3 16.9 3 5.7.1 11.5-.9 17-2.7.7-.2 1.1-1 .9-1.8-.2-.7-.9-1.1-1.7-.9z"/><path class="st7" d="M513 567.7s-6-2.3-21.2-10.7c-1.3-8.1-1.5-20.6-13.2-19.4-5 .5-9 4.5-9.5 9.5-19.3 7.4-29.2-27.7-26 39.2 0 0 8.6 1.7 25.9 5.1 0 0 8-.5 24.1-1.5 26.5 2.2 41.4-1.5 44.6-11-1.5-11.3-16.1-11.3-24.7-11.2z"/><path class="st8" d="M464.8 566.8c-6.5-4.6-15-5.4-22.3-2.1.1 9 .3 16.2.6 21.5 19.7 4.9 30.1 5.2 31.1.8.8-7.9-2.8-15.6-9.4-20.2z"/><path class="st9" d="M537.8 578.9c-1.5-.5-3.1.3-3.6 1.8-.8 2.5-4.4 4.4-10.9 5.6-7.2 1.4-17.5 1.7-30.8 1.1-3.2-1.3-6.5-2-9.9-1.9-3.3 0-6.6.8-9.7 2.1l-28.6-1.5c-1.6-.1-2.9 1.1-3 2.7-.1 1.6 1.1 2.9 2.7 3l29.3 1.6c.5 0 1.1-.1 1.5-.3 2.5-1.2 5.2-1.8 7.9-1.8s5.5.5 8 1.6c.3.1.7.2 1 .2 14 .7 24.9.3 32.7-1.2 8.6-1.7 13.7-4.8 15.2-9.4.4-1.5-.4-3.1-1.8-3.6z"/><path class="st13" d="M259.8 416.5c-10.5 21.8-15.8 32.6-15.8 32.6-36.1 21.7-48.9 87.2-48.8 86.5 7.3 10.6 20.3 15.6 32.9 12.7 0 0 19.2-26.1 57.5-78.3 17.1-7.3 30.1-21.9 35.3-39.8-17.9-12.3-39.8-17.2-61.1-13.7zM473 367.7c-24.5.5-46.9 12.2-67.3 35 26.2 9.7 39.2 14.6 39.2 14.6-9 14.6-10.2 34.9-3.5 61 2.4 21 3.5 31.5 3.5 31.5 11.3 2.9 23 3 34.3.3 10.1-63.8 15.1-95.6 15.1-95.6 5.3-10.5 3.5-23.1-4.6-31.7-11.1-10.1-16.7-15.1-16.7-15.1z"/><path d="M285 309.6c-5.3 13.9-5.5 29.1-.8 43.1l-24.5 63.7c22.2-3.6 44.9 1.8 63 15.1 0 0 12.6-15.7 37.8-47.2l38.7 22.5c23-15.8 47.7-28.9 73.7-39.2L401 295.2c-31.8-15.2-70.5-10.4-116 14.4z" style="fill-rule:evenodd;clip-rule:evenodd;fill:#e6e6e6"/><defs><filter id="Adobe_OpacityMaskFilter_2_" filterUnits="userSpaceOnUse" x="332" y="298.8" width="110.5" height="62.3"><feColorMatrix values="1 0 0 0 0 0 1 0 0 0 0 0 1 0 0 0 0 0 1 0"/></filter></defs><mask maskUnits="userSpaceOnUse" x="332" y="298.8" width="110.5" height="62.3" id="SVGID_5_"><g style="filter:url(#Adobe_OpacityMaskFilter_2_)"><linearGradient id="SVGID_6_" gradientUnits="userSpaceOnUse" x1="52.142" y1="785.411" x2="51.213" y2="716.106" gradientTransform="translate(335.732 -405.914)"><stop offset="0" style="stop-color:#000"/><stop offset="1" style="stop-color:#fff"/></linearGradient><path style="fill:url(#SVGID_6_)" d="M332 298.8h110.5v62.3H332z"/></g></mask><path d="M332 307.3c1.3 11.9 8.1 22.6 18.3 28.8 10.3 6.2 22.8 7.4 34 3.1 23.7 13.5 35.6 20.2 35.6 20.2 5 2.6 11 2.3 15.7-.8 4.7-3.1 7.3-8.5 6.8-14.1C409 301 372.2 288.6 332 307.3z" style="mask:url(#SVGID_5_);fill-rule:evenodd;clip-rule:evenodd;fill:#a3a3a3"/><defs><filter id="Adobe_OpacityMaskFilter_3_" filterUnits="userSpaceOnUse" x="297.3" y="341.9" width="60.3" height="85.5"><feColorMatrix values="1 0 0 0 0 0 1 0 0 0 0 0 1 0 0 0 0 0 1 0"/></filter></defs><mask maskUnits="userSpaceOnUse" x="297.3" y="341.9" width="60.3" height="85.5" id="SVGID_7_"><g style="filter:url(#Adobe_OpacityMaskFilter_3_)"><linearGradient id="SVGID_8_" gradientUnits="userSpaceOnUse" x1="-25.78" y1="802.093" x2="41.525" y2="697.028" gradientTransform="translate(304.855 -350.302)"><stop offset="0" style="stop-color:#000"/><stop offset="1" style="stop-color:#fff"/></linearGradient><path style="fill:url(#SVGID_8_)" d="M295.2 328.4h62.4v98.9h-62.4z"/></g></mask><path d="M297.3 341.9c7.9 51.6 11.8 77.4 11.8 77.4 4.8 2.5 9.2 5.2 13.3 8 23.5-29 35.2-43.6 35.2-43.6-14.6-9.2-26.5-15.9-35.7-20.2-11.6-2.6-20.7-11-24.6-21.6z" style="mask:url(#SVGID_7_);fill-rule:evenodd;clip-rule:evenodd;fill:#a3a3a3"/><defs><filter id="Adobe_OpacityMaskFilter_4_" filterUnits="userSpaceOnUse" x="295.2" y="328.4" width="2.1" height="13.4"><feColorMatrix values="1 0 0 0 0 0 1 0 0 0 0 0 1 0 0 0 0 0 1 0"/></filter></defs><mask maskUnits="userSpaceOnUse" x="295.2" y="328.4" width="2.1" height="13.4" id="SVGID_9_"><g style="filter:url(#Adobe_OpacityMaskFilter_4_)"><linearGradient id="SVGID_10_" gradientUnits="userSpaceOnUse" x1="-25.78" y1="802.093" x2="41.525" y2="697.028" gradientTransform="translate(304.855 -350.302)"><stop offset="0" style="stop-color:#000"/><stop offset="1" style="stop-color:#fff"/></linearGradient><path style="fill:url(#SVGID_10_)" d="M295.2 328.4h62.4v98.9h-62.4z"/></g></mask><path d="M297.3 341.9c-.7-4.3-1.3-8.8-2.1-13.4-.2 4.6.6 9.2 2.1 13.4z" style="mask:url(#SVGID_9_);fill-rule:evenodd;clip-rule:evenodd;fill:#a3a3a3"/><path class="st24" d="M361.1 383.6 323.5 363c-.1-.1-.2-.1-.3-.1-9.6-1.7-17.9-7.8-22.5-16.4-4.6-8.6-5-18.9-1.1-27.8.2-.5 0-1-.5-1.2-.5-.2-1 0-1.2.5-4.1 9.5-3.7 20.3 1.2 29.4 4.8 9.1 13.5 15.4 23.6 17.3l9.3 5.1-5.3 8.9c-13.7 4.9-22.9 8.2-27.7 9.6-.6.2-1.1.3-1.5.5-2.1 1-1.5 2.2-.2 1.9.6-.2 1.4-.4 2.3-.7 4.6-1.4 13.1-4.4 25.7-8.9l-7.1 11.9-32.8 16.5c-.4.2-.6.8-.4 1.2.2.4.8.6 1.2.4l30.3-15.2-14.7 24.4c-.3.4-.1 1 .3 1.2.4.3 1 .1 1.2-.3l16.2-26.9 30-15 10.8 6c.4.2 1 .1 1.2-.4.2-.5 0-1.1-.4-1.3zm-27.4-13 6 3.3c-3.6 1.3-7.1 2.6-10.2 3.7l4.2-7zm-12.6 20.8L328 380c4.2-1.5 8.8-3.2 13.8-5l5.7 3.1-26.4 13.3zM418.6 369.4h2.4c.5 0 .9-.4.9-.9s-.4-.9-.9-.9c-1.5 0-2.9 0-4.4-.1l-12.8-11.8c9.4-.1 18.8-1.2 28-3.4.5-.1.8-.6.7-1.1-.1-.5-.6-.8-1.1-.7-9.7 2.3-19.7 3.4-29.5 3.4l-9.7-8.9c-.1-.1-.3-.2-.4-.2-8-1.6-15-6.6-19.1-13.7-4.1-7.1-5-15.6-2.5-23.4.2-.5-.1-1-.6-1.1a.8.8 0 0 0-1.1.6c-1.3 4.1-1.8 8.5-1.3 12.7 1.4 13.1 11.1 23.9 24 26.6l8 7.4c-15.4-.4-30.6-3.6-44.9-9.5-.5-.2-1 0-1.2.5-.2.5 0 1 .5 1.2 15.1 6.2 31.2 9.6 47.5 9.7l12.7 11.7c-14.4-.7-28.5-3.8-41.9-9.1-.5-.2-1 0-1.2.5-.2.5 0 1 .5 1.2 14.2 5.6 29.3 8.7 44.6 9.3l18.2 16.8c.4.3.9.3 1.3-.1.3-.4.3-.9-.1-1.3l-16.6-15.4z"/><path class="st13" d="M562.8 243.9c-6.3-2.3-7.9-1.9-14.3-1.1-2.8.3-5.5.8-7.9 1.6-4.4 1.5-6.8 4-13.7 8.4 0 0-34.7-1.5-66.8-3.8 0 0-1.4-1.6-3.1-4.6-21.9 8.1-34.3 20-30.2 27.6 4 5.6 9.4 11.7 16.1 14.2 3.1 1.2 6.7 1.6 10.5 1.6 17.2 0 60.7-10.9 80.2-14.5 0 0 4.6 3.7 15.7 5.3 2.6.4 6-4.3 6.5-6.9 3-.6 5.3-2.9 5.9-5.9 2.7-1.3 3.9-4.5 2.9-7.3 2.1-1.6 3.3-4.2 3.1-6.9 3.4-2.7 1.8-5.3-4.9-7.7z"/><defs><filter id="Adobe_OpacityMaskFilter_5_" filterUnits="userSpaceOnUse" x="430.4" y="251.9" width="94.4" height="32.7"><feColorMatrix values="1 0 0 0 0 0 1 0 0 0 0 0 1 0 0 0 0 0 1 0"/></filter></defs><mask maskUnits="userSpaceOnUse" x="430.4" y="251.9" width="94.4" height="32.7" id="SVGID_11_"><g style="filter:url(#Adobe_OpacityMaskFilter_5_)"><linearGradient id="SVGID_12_" gradientUnits="userSpaceOnUse" x1="104.203" y1="720.313" x2="16.673" y2="755.549" gradientTransform="translate(418.425 -470.209)"><stop offset="0" style="stop-color:#000"/><stop offset="1" style="stop-color:#fff"/></linearGradient><path style="fill:url(#SVGID_12_)" d="M430.4 251.9h94.4v32.7h-94.4z"/></g></mask><path d="M491.1 264.4c-5.3.9-9.5 4.4-13.6 7.3-17.8 12.6-32.2-6.3-24.5-19.8-12.6 5.7-20.2 12-22.6 18.9 11.4 16.1 24 14.9 40.8 12.1 11.9-2 29.8-5.5 53.6-10.6-13.6 3-21.7-10-33.7-7.9z" style="mask:url(#SVGID_11_);fill-rule:evenodd;clip-rule:evenodd;fill:#f05c00"/><path d="M423 140c-2 7.9-3 11.8-3 11.8 13.5 23.4 23.4 32.7 29.7 27.9 3.4-10.7 9.7-16.8 18.8-18.2-15.4-40.9-30.5-48.1-45.5-21.5z" style="fill-rule:evenodd;clip-rule:evenodd;fill:#ffa538"/><defs><filter id="Adobe_OpacityMaskFilter_6_" filterUnits="userSpaceOnUse" x="435" y="130.5" width="33.5" height="50.3"><feColorMatrix values="1 0 0 0 0 0 1 0 0 0 0 0 1 0 0 0 0 0 1 0"/></filter></defs><mask maskUnits="userSpaceOnUse" x="435" y="130.5" width="33.5" height="50.3" id="SVGID_13_"><g style="filter:url(#Adobe_OpacityMaskFilter_6_)"><linearGradient id="SVGID_14_" gradientUnits="userSpaceOnUse" x1="31.355" y1="748.933" x2="28.129" y2="687.306" gradientTransform="translate(422.251 -557.318)"><stop offset="0" style="stop-color:#000"/><stop offset="1" style="stop-color:#fff"/></linearGradient><path style="fill:url(#SVGID_14_)" d="M435 130.5h33.5v50.3H435z"/></g></mask><path d="M437.3 130.5c-1.6 28.7-2.4 43.1-2.4 43.1 3.3 3.6 6.1 5.8 8.5 6.7 1.3.5 2.5.7 3.4.5 1.4-.3 2.4-.6 3-1.2 3.4-10.7 9.6-16.8 18.8-18.2-3.5-7.6-13.9-17.9-31.3-30.9z" style="mask:url(#SVGID_13_);fill-rule:evenodd;clip-rule:evenodd;fill:#f05c00"/><defs><filter id="Adobe_OpacityMaskFilter_7_" filterUnits="userSpaceOnUse" x="440.4" y="134.2" width="28.1" height="33.4"><feColorMatrix values="1 0 0 0 0 0 1 0 0 0 0 0 1 0 0 0 0 0 1 0"/></filter></defs><mask maskUnits="userSpaceOnUse" x="440.4" y="134.2" width="28.1" height="33.4" id="SVGID_15_"><g style="filter:url(#Adobe_OpacityMaskFilter_7_)"><linearGradient id="SVGID_16_" gradientUnits="userSpaceOnUse" x1="32.013" y1="748.729" x2="25.192" y2="702.994" gradientTransform="translate(426.798 -568.43)"><stop offset="0" style="stop-color:#000"/><stop offset="1" style="stop-color:#fff"/></linearGradient><path style="fill:url(#SVGID_16_)" d="M440.4 134.2h28.1v33.4h-28.1z"/></g></mask><path d="M440.4 134.2c-.1 13.5 5.2 24.6 16 33.4 3.5-3.5 7.5-5.6 12.1-6.2-6.4-8.5-15.7-17.6-28.1-27.2z" style="mask:url(#SVGID_15_);fill-rule:evenodd;clip-rule:evenodd;fill:#c91602"/><path class="st13" d="M487.7 113.5c-9-3.6-19.1-3.5-28 .4-8.9 3.9-15.9 11.2-19.3 20.4 2.3 13 10.4 23.6 24 26.7 8.7 1.9 16.4-.4 16.1-8.2 0 0 .8-2.1 2.5-6.2 2.4-6.1 2.9-12.8 4-19.2-2.2-7.3 3.8-8.2.7-13.9z"/><defs><filter id="Adobe_OpacityMaskFilter_8_" filterUnits="userSpaceOnUse" x="474.1" y="111.2" width="14.5" height="49.8"><feColorMatrix values="1 0 0 0 0 0 1 0 0 0 0 0 1 0 0 0 0 0 1 0"/></filter></defs><mask maskUnits="userSpaceOnUse" x="474.1" y="111.2" width="14.5" height="49.8" id="SVGID_17_"><g style="filter:url(#Adobe_OpacityMaskFilter_8_)"><linearGradient id="SVGID_18_" gradientUnits="userSpaceOnUse" x1="24.337" y1="735.873" x2="26.42" y2="707.59" gradientTransform="translate(455.11 -573.987)"><stop offset="0" style="stop-color:#000"/><stop offset="1" style="stop-color:#fff"/></linearGradient><path style="fill:url(#SVGID_18_)" d="M474.1 111.2h14.5V161h-14.5z"/></g></mask><path d="M487.7 113.5c-2.8-1.1-5.6-1.9-8.5-2.3.1.2.1.4.2.6 4.3 17.2 2 34.5-5.3 49.3 3.9-1 6.6-3.7 6.4-8.4 0 0 .8-2.1 2.5-6.2 2.4-6.1 2.9-12.8 4-19.2-2.2-7.2 3.8-8.1.7-13.8z" style="mask:url(#SVGID_17_);fill-rule:evenodd;clip-rule:evenodd;fill:#ffcf87"/><defs><filter id="Adobe_OpacityMaskFilter_9_" filterUnits="userSpaceOnUse" x="442.8" y="114.1" width="34.7" height="36.4"><feColorMatrix values="1 0 0 0 0 0 1 0 0 0 0 0 1 0 0 0 0 0 1 0"/></filter></defs><mask maskUnits="userSpaceOnUse" x="442.8" y="114.1" width="34.7" height="36.4" id="SVGID_19_"><g style="filter:url(#Adobe_OpacityMaskFilter_9_)"><linearGradient id="SVGID_20_" gradientUnits="userSpaceOnUse" x1="35.778" y1="732.455" x2="28.338" y2="703.707" gradientTransform="translate(428.85 -582.78)"><stop offset="0" style="stop-color:#000"/><stop offset="1" style="stop-color:#fff"/></linearGradient><path style="fill:url(#SVGID_20_)" d="M442.8 114.1h34.7v36.4h-34.7z"/></g></mask><path d="M442.8 134.7c1.4 6.6 4.3 11.9 8.9 15.8-2.1-7.3 1.3-9.6 5.4-11.7 7-3.5 9.3-5.3 10.4-13.6.6-4.3 2-8.4 10-10.2-13.2-3.5-24.7 3.1-34.7 19.7z" style="mask:url(#SVGID_19_);fill-rule:evenodd;clip-rule:evenodd;fill:#f05c00"/><defs><filter id="Adobe_OpacityMaskFilter_10_" filterUnits="userSpaceOnUse" x="451.1" y="123" width="28.9" height="11.5"><feColorMatrix values="1 0 0 0 0 0 1 0 0 0 0 0 1 0 0 0 0 0 1 0"/></filter></defs><mask maskUnits="userSpaceOnUse" x="451.1" y="123" width="28.9" height="11.5" id="SVGID_21_"><g style="filter:url(#Adobe_OpacityMaskFilter_10_)"><linearGradient id="SVGID_22_" gradientUnits="userSpaceOnUse" x1="48.91" y1="738.4" x2="18.579" y2="717.211" gradientTransform="translate(435.812 -596.256)"><stop offset="0" style="stop-color:#000"/><stop offset="1" style="stop-color:#fff"/></linearGradient><path style="fill:url(#SVGID_22_)" d="M451.1 123H480v11.5h-28.9z"/></g></mask><path d="M472 131.1c-2.5-1.3-4.2-3.8-4.4-6.7-4.6-.9-6.9-1.4-6.9-1.4-6.5 1.4-9.7 2.8-9.5 4.3 0 0 3.7.3 11.1 1 1.5 3.3 4.6 5.6 8.2 6.1 3.6.5 7.2-.9 9.5-3.7-2.4 1.5-5.5 1.7-8 .4z" style="mask:url(#SVGID_21_);fill-rule:evenodd;clip-rule:evenodd;fill:#c91602"/><path d="M416.3 127.2c4.4 15.1 9.7 18.3 17.1 4.4 1.1-2 2.3-3.8 4.7-5 4.4-2.3 8.8 1.7 13 6.7-.4-1.7 0-3.5 1.1-4.9 3.5-4.4 9.7 0 12.3-8.7.7-2.4 1.4-4.7 6.2-5.3-10.5-12.6-28.6-8.3-54.4 12.8z" style="fill-rule:evenodd;clip-rule:evenodd;fill:#4d1212"/><path class="st45" d="M416.6 95.2c-3.4 5.3-4.3 12.3-2.5 22.7.5 3 1.3 6.1 2.1 9.3 16.2-7 30.3-12.5 42.3-16.5.3-4.9-4.6-15.6-14.6-32.1-11.1 3-22.5 9.1-27.3 16.6z"/><path d="M455.9 76.4c-3.5.3-7.5 1-11.9 2.2l13.2 32.4c17-3.7 25.2-5.8 27.4-10.5-8.1-12.2-11.9-25.6-28.7-24.1z" style="fill-rule:evenodd;clip-rule:evenodd;fill:#674bcc"/><path class="st45" d="M457.6 110.4c31.1 5.9 48.1 4.5 52.7-5.9-3.3-1.7-17.5-3.9-23.9-4.1-9.1-.3-21.1 7.4-28.8 10z"/><path class="st9" d="M510.3 104.5c-.6-.2-1.3.1-1.5.8-.9 2.8-3.1 4.6-6.2 5.8-3.2 1.3-7.4 1.9-11.9 2-5 .1-10.4-.1-15.4-.6-7.1-.6-13.4-1.6-16.8-2.3-.6-.1-1.3.3-1.4.9-.1.6.3 1.3.9 1.4 3.5.7 10 1.7 17.1 2.4 5.1.5 10.6.7 15.7.6 4.7-.1 9.2-.8 12.7-2.2 3.7-1.5 6.4-3.8 7.6-7.3.2-.6-.2-1.3-.8-1.5z"/><path class="st47" d="M481.9 142.2c-1.7.4-3.5.2-5-.5s-2.8-1.8-3.7-3.4c-.2-.5-.8-.6-1.3-.4-.5.2-.6.8-.4 1.3 1 1.9 2.7 3.3 4.5 4.2 1.9.8 4 1.1 6.2.6.5-.1.8-.6.7-1.1 0-.5-.5-.8-1-.7zM477.9 145.7c-.9.2-1.8.1-2.7-.3-.8-.4-1.5-1-2-1.8-.1-.2-.4-.3-.7-.2-.2.1-.3.4-.2.7.6 1 1.4 1.8 2.4 2.2 1 .5 2.2.6 3.3.3.3-.1.4-.3.4-.6.1-.1-.2-.3-.5-.3z"/><path class="st7" d="M475.4 121.8c-.7 0-1.3.6-1.3 1.3 0 .7.6 1.3 1.3 1.3.7 0 1.3-.6 1.3-1.3 0-.7-.6-1.3-1.3-1.3z"/><path d="M479.2 114.6c-1.6-.2-3.2 0-4.6.4-1.5.4-2.8 1.1-4 2.1-.4.3-.4.9-.1 1.3.3.4.9.4 1.3.1.9-.8 2-1.4 3.3-1.7 1.2-.4 2.6-.5 3.9-.3.5.1.9-.3 1-.8 0-.6-.3-1-.8-1.1z" style="fill:#4d1212"/><path class="st9" d="M486.2 122.8c-.8-.2-1.5-.1-2.2.1-.3.1-.7.3-1 .5-.2-1.8-1.1-3.4-2.3-4.7-1.5-1.5-3.5-2.4-5.7-2.4s-4.2.9-5.7 2.4c-1.2 1.2-2 2.7-2.2 4.4l-24.6-2.7c-.1 0-.3 0-.4.1l-9.9 6.4c-.3.2-.4.5-.2.8.2.3.5.4.8.2l9.8-6.3 24.4 2.7v.1c0 2.2.9 4.2 2.4 5.7s3.5 2.4 5.7 2.4 4.2-.9 5.7-2.4c1.3-1.3 2.2-3.1 2.3-5.1v-.1c.3-.4.8-.7 1.3-.9.5-.2 1-.2 1.6-.1.3.1.6-.1.7-.4 0-.3-.2-.7-.5-.7zm-6.3 6.4a6.8 6.8 0 0 1-4.8 2c-1.9 0-3.6-.8-4.8-2a6.8 6.8 0 0 1-2-4.8c0-1.9.8-3.6 2-4.8 1.2-1.2 2.9-2 4.8-2s3.6.8 4.8 2c1.2 1.2 2 2.9 2 4.8s-.8 3.6-2 4.8z"/><path class="st13" d="M440.6 116.8c-4.2 1.3-6 6.7-4.1 12 1.9 5.3 6.9 8.5 11.1 7.2 4.2-1.3 6-6.7 4.1-12-1.9-5.3-6.9-8.5-11.1-7.2z"/><path d="M441.1 121.1c-2.6.8-3.7 4.2-2.5 7.5 1.2 3.3 4.3 5.3 6.9 4.5 2.6-.8 3.7-4.2 2.5-7.5-1.2-3.3-4.3-5.3-6.9-4.5z" style="fill-rule:evenodd;clip-rule:evenodd;fill:#f05c00"/><path d="M443.8 122.6c-1.5.5-2.2 2.4-1.5 4.4.7 1.9 2.5 3.1 4 2.6s2.2-2.4 1.5-4.4c-.7-1.9-2.5-3.1-4-2.6z" style="fill-rule:evenodd;clip-rule:evenodd;fill:#c91602"/><defs><filter id="Adobe_OpacityMaskFilter_11_" filterUnits="userSpaceOnUse" x="415.5" y="84.8" width="28.7" height="39.8"><feColorMatrix values="1 0 0 0 0 0 1 0 0 0 0 0 1 0 0 0 0 0 1 0"/></filter></defs><mask maskUnits="userSpaceOnUse" x="415.5" y="84.8" width="28.7" height="39.8" id="SVGID_23_"><g style="filter:url(#Adobe_OpacityMaskFilter_11_)"><linearGradient id="SVGID_24_" gradientUnits="userSpaceOnUse" x1="22.138" y1="680.14" x2="24.745" y2="722.935" gradientTransform="translate(405.865 -604.615)"><stop offset="0" style="stop-color:#000"/><stop offset="1" style="stop-color:#fff"/></linearGradient><path style="fill:url(#SVGID_24_)" d="M415.5 84.8h28.7v39.8h-28.7z"/></g></mask><path d="M435.7 105c-1.5-.6-3.1-1-4.4-1.8-7.2-3.8-6.2-14.7.6-18.5-17.6 10.3-18.8 22-13.7 39.8 17.3-6.8 26-10.3 26-10.3-1.3-6.2-4.9-7.9-8.5-9.2z" style="mask:url(#SVGID_23_);fill-rule:evenodd;clip-rule:evenodd;fill:#130152"/><defs><filter id="Adobe_OpacityMaskFilter_12_" filterUnits="userSpaceOnUse" x="456.8" y="246.7" width="78.9" height="18.1"><feColorMatrix values="1 0 0 0 0 0 1 0 0 0 0 0 1 0 0 0 0 0 1 0"/></filter></defs><mask maskUnits="userSpaceOnUse" x="456.8" y="246.7" width="78.9" height="18.1" id="SVGID_25_"><g style="filter:url(#Adobe_OpacityMaskFilter_12_)"><linearGradient id="SVGID_26_" gradientUnits="userSpaceOnUse" x1="73.797" y1="775.79" x2="44.013" y2="721.282" gradientTransform="translate(440.589 -486.83)"><stop offset="0" style="stop-color:#000"/><stop offset="1" style="stop-color:#fff"/></linearGradient><path style="fill:url(#SVGID_26_)" d="M456.8 246.7h78.9v18.1h-78.9z"/></g></mask><path d="M461 248.9c-2.1.8-3.5 1.9-4.2 3.5 2.1 6.1 7.2 10.7 13.5 11.9 13.7 2.8 18.5-10.7 29.7-10.7 4.9 0 8.6 2.5 12.4 4.6 4.5 2.5 9 4.6 15.5 1.1 4.7-2.5 7.7-7.4 7.9-12.7-3.1 2.1-6 4.1-8.8 6-17.9-.6-39.8-1.9-66-3.7z" style="mask:url(#SVGID_25_);fill-rule:evenodd;clip-rule:evenodd;fill:#ffcf87"/><path class="st47" d="M459.6 248.1c-2.9 1.8-5.4 4-7.5 6.6-2.1 2.6-3.8 5.5-5 8.6-.2.5.1 1 .5 1.2.5.2 1-.1 1.2-.5 1.1-3 2.7-5.7 4.7-8.1 2-2.4 4.4-4.5 7.1-6.2.4-.3.5-.8.3-1.2-.3-.5-.9-.6-1.3-.4z"/><path class="st45" d="M420.6 149.2c.6-2.3.9-3.4.9-3.4-36.8 2.9-63.3 34.9-82.7 62.9-24.3 35.1-45.9 78.1-53.7 100.9 38.7 12.3 80.6 8.6 116.6-10.2 0 0 5.6-13.9 16.7-41.7 0 0 2.1 5.5 8.6 14.3 12.1-3.2 25.6-16 30.2-27.6 0 0-3.3-9.5-8.9-29.7 14.6-22 6.9-57.5-27.7-65.5z"/><defs><filter id="Adobe_OpacityMaskFilter_13_" filterUnits="userSpaceOnUse" x="289.7" y="231.7" width="81.6" height="80.8"><feColorMatrix values="1 0 0 0 0 0 1 0 0 0 0 0 1 0 0 0 0 0 1 0"/></filter></defs><mask maskUnits="userSpaceOnUse" x="289.7" y="231.7" width="81.6" height="80.8" id="SVGID_27_"><g style="filter:url(#Adobe_OpacityMaskFilter_13_)"><linearGradient id="SVGID_28_" gradientUnits="userSpaceOnUse" x1="-37.437" y1="782.052" x2="46.724" y2="703.473" gradientTransform="translate(300.213 -446.75)"><stop offset="0" style="stop-color:#000"/><stop offset="1" style="stop-color:#fff"/></linearGradient><path style="fill:url(#SVGID_28_)" d="M289.7 231.7h81.6v80.8h-81.6z"/></g></mask><path d="M337 233c-33 19-47.4 39.8-43.2 62.7 0 0-1.4 3.9-4.1 11.7 8.5 2 17.3 3.8 26.3 5.1 14.2-1.9 3.5-22.9 18-34.4 6.6-5.2 15.5-6.4 23.2-3.2 7.7 3.2 13.1 10.4 14 18.8-5.3-47.4-16.7-67.6-34.2-60.7z" style="mask:url(#SVGID_27_);fill-rule:evenodd;clip-rule:evenodd;fill:#130152"/><path d="M315.7 95.7c-53.3 101.1-80 151.6-80 151.6-2.6 6.8-3.2 14-2 20.9 2.2 12.3 10 23.6 21.9 29.5 18.6 9.3 41.4 2 51.8-16.1-11.9-26 4.3-77.2 48.6-153.7 0 0-13.4-10.7-40.3-32.2z" style="fill-rule:evenodd;clip-rule:evenodd;fill:#e84d00"/><path transform="rotate(-61.439 286.913 182.984)" class="st61" d="M207.3 179.8h159.2v6.3H207.3z"/><path class="st61" d="m380.7 82.7-28.1-14.2c-13.3-6.8-30.1-1.5-37.2 11.6-7.1 13.1-2.1 29.4 11.2 36.2l28.1 14.2c13.3 6.8 30.1 1.5 37.2-11.6 7.2-13.2 2.1-29.5-11.2-36.2zM254.7 231.9c-4.8-1.4-9.1-.3-12.8 2.5-15.2 11.5-14.4 38.4-4.2 53.1 9.4 13.6 25.7 20.6 42 18.1s29.8-14 34.7-29.7c0 0-16.2-8.5-48.5-25.6 1.7-8.1-3.2-16.1-11.2-18.4z"/><path class="st62" d="m341.6 221.7-3.8 1.3h-.1l-3.8 1.2-3.2 1.5c-.2.1-.4.2-.6.2l-1.6 1c-4.6 5.7-6.5 8-6.5 8l-1.5 11.9 33.2-14.2c-.1-5.5.2-9.9.8-13.2.8-1.1 1.7-2.2 2.5-3.2l-15.4 5.5z"/><path class="st62" d="M441.1 157.7c-11.9-9.7-22.3-9.2-36.4-3.6-11.7 4.7-23.6 12.7-34.1 19.5-11.1 15.1-18.1 22.1-25.2 31.4l8.5-5.3c.1-.1.2-.1.3-.1l4.2-2.3 34.8-22.9c11.1-10.9 21.5-15.1 31.3-12.7 6.5 1.8 12.1 6 15.8 11.6 9.3 13 8.3 30.8-2.5 42.6-2.9 3.7-6 6.1-9.2 7.1L398 244.6l-.6-.2c-20.2 7.1-20 21.7-12.1 24.3l43.7-40.5c6.8-5.2 11-9.5 14.8-13.1 17.4-17.3 13.5-44.1-2.7-57.4z"/><path d="M382.6 118.4 366 109c-9.6-5.4-22-2-27.4 7.6l-72.7 128.9c-5.4 9.6-2 22 7.6 27.4l16.6 9.4c9.6 5.4 22 2 27.4-7.6l72.7-128.9c5.5-9.6 2-21.9-7.6-27.4z" style="fill-rule:evenodd;clip-rule:evenodd;fill:#ffb514"/><path class="st64" d="M423.8 160.6c-2.1-.4-4.2-.6-6.5-.4-2.2.2-4.4.7-6.7 1.5-16.6 6-40.7 36.6-53.6 52.9-1 1.3-1.9 2.4-2.7 3.4-.3.4-.2 1 .1 1.3.4.3 1 .2 1.3-.1.9-1.1 1.8-2.2 2.7-3.4 12.7-16.2 36.7-46.5 52.8-52.4 2.1-.8 4.2-1.3 6.3-1.4 2-.2 4-.1 5.9.3.5.1 1-.2 1.1-.7.1-.4-.2-.9-.7-1z"/><defs><filter id="Adobe_OpacityMaskFilter_14_" filterUnits="userSpaceOnUse" x="359.5" y="165.5" width="79.8" height="71.6"><feColorMatrix values="1 0 0 0 0 0 1 0 0 0 0 0 1 0 0 0 0 0 1 0"/></filter></defs><mask maskUnits="userSpaceOnUse" x="359.5" y="165.5" width="79.8" height="71.6" id="SVGID_29_"><g style="filter:url(#Adobe_OpacityMaskFilter_14_)"><linearGradient id="SVGID_30_" gradientUnits="userSpaceOnUse" x1="48.074" y1="766.287" x2="36.147" y2="679.185" gradientTransform="translate(358.903 -510.075)"><stop offset="0" style="stop-color:#000"/><stop offset="1" style="stop-color:#fff"/></linearGradient><path style="fill:url(#SVGID_30_)" d="M359.5 165.5h79.8v71.6h-79.8z"/></g></mask><path d="M417.8 165.6c-12.2.6-27.4 17.8-35.2 26.3-7.5 8.2-15.2 17.7-23 28.3 8.9 8.8 17.2 14.5 24.9 16.9-5.9-7.8-5.6-18.6.6-26.1 9.1-11.1 19.3-6.3 29.3-4.4 8.9 1.7 17-1.3 21.9-9.1 5.4-8.6 3.6-19.7-3.8-26.7-4.2-3.7-9.4-5.5-14.7-5.2z" style="mask:url(#SVGID_29_);fill-rule:evenodd;clip-rule:evenodd;fill:#130152"/><defs><filter id="Adobe_OpacityMaskFilter_15_" filterUnits="userSpaceOnUse" x="389.9" y="199" width="55.3" height="45.5"><feColorMatrix values="1 0 0 0 0 0 1 0 0 0 0 0 1 0 0 0 0 0 1 0"/></filter></defs><mask maskUnits="userSpaceOnUse" x="389.9" y="199" width="55.3" height="45.5" id="SVGID_31_"><g style="filter:url(#Adobe_OpacityMaskFilter_15_)"><linearGradient id="SVGID_32_" gradientUnits="userSpaceOnUse" x1="43.821" y1="655.179" x2="29.215" y2="751.732" gradientTransform="translate(384.424 -503.826)"><stop offset="0" style="stop-color:#000"/><stop offset="1" style="stop-color:#fff"/></linearGradient><path style="fill:url(#SVGID_32_)" d="M389.9 199h55.3v45.5h-55.3z"/></g></mask><path d="M431 212.4c-5.4 5.5-11.3 5.2-17.1 4.3-2.8-.4-5.7-.8-8.5-.7-10 .3-16.7 9-15.4 18.6.5 3.4 2 6.7 4.6 9.3.9.1 1.9.2 2.8.2.4.2.6.2.6.2 24.5-17.5 36.8-26.2 36.8-26.2 5-2.9 8.5-9.3 10.4-19.3-6.6 0-8.7 8.1-14.2 13.6z" style="mask:url(#SVGID_31_);fill-rule:evenodd;clip-rule:evenodd;fill:#674bcc"/><path class="st64" d="M441.6 173.6c-.3-.4-.8-.5-1.2-.2-.4.3-.5.8-.2 1.2 2.7 3.9 4.4 8.4 5.2 13 .8 4.6.6 9.4-.6 14s-3.4 8.8-6.3 12.5c-2.9 3.6-6.6 6.6-10.8 8.7-.1 0-.1.1-.2.1l-29.2 20.5c-.4.3-.5.8-.2 1.2.3.4.8.5 1.2.2l29.1-20.5c4.5-2.2 8.3-5.4 11.4-9.2 3.1-3.8 5.4-8.3 6.7-13.1 1.3-4.9 1.5-9.9.6-14.7-.9-4.9-2.7-9.6-5.5-13.7z"/><defs><filter id="Adobe_OpacityMaskFilter_16_" filterUnits="userSpaceOnUse" x="440.8" y="225" width="1.7" height="2.2"><feColorMatrix values="1 0 0 0 0 0 1 0 0 0 0 0 1 0 0 0 0 0 1 0"/></filter></defs><mask maskUnits="userSpaceOnUse" x="440.8" y="225" width="1.7" height="2.2" id="SVGID_33_"><g style="filter:url(#Adobe_OpacityMaskFilter_16_)"><linearGradient id="SVGID_34_" gradientUnits="userSpaceOnUse" x1="61.009" y1="735.902" x2="8.787" y2="728.295" gradientTransform="translate(409.981 -483.51)"><stop offset="0" style="stop-color:#000"/><stop offset="1" style="stop-color:#fff"/></linearGradient><path style="fill:url(#SVGID_34_)" d="M420.4 225h25.4v43.7h-25.4z"/></g></mask><path d="M440.8 227.2c.6-.7 1.1-1.5 1.7-2.2-.6.7-1.2 1.5-1.7 2.2z" style="mask:url(#SVGID_33_);fill-rule:evenodd;clip-rule:evenodd;fill:#004026"/><defs><filter id="Adobe_OpacityMaskFilter_17_" filterUnits="userSpaceOnUse" x="420.4" y="227.2" width="25.4" height="41.5"><feColorMatrix values="1 0 0 0 0 0 1 0 0 0 0 0 1 0 0 0 0 0 1 0"/></filter></defs><mask maskUnits="userSpaceOnUse" x="420.4" y="227.2" width="25.4" height="41.5" id="SVGID_35_"><g style="filter:url(#Adobe_OpacityMaskFilter_17_)"><linearGradient id="SVGID_36_" gradientUnits="userSpaceOnUse" x1="61.009" y1="735.902" x2="8.787" y2="728.295" gradientTransform="translate(409.981 -483.51)"><stop offset="0" style="stop-color:#000"/><stop offset="1" style="stop-color:#fff"/></linearGradient><path style="fill:url(#SVGID_36_)" d="M420.4 225h25.4v43.7h-25.4z"/></g></mask><path d="M437.2 241.6c-.5-5.1.8-10.1 3.6-14.3-10.1 13.4-16.9 23.1-20.4 29.1 1.7 4.1 4.2 8.2 7.3 12.4 6-2.5 12-6.5 18-12-4.8-3.7-7.9-9.2-8.5-15.2z" style="mask:url(#SVGID_35_);fill-rule:evenodd;clip-rule:evenodd;fill:#130152"/><path d="m444.9 218.5-27.4 38.7c-.3.4-.2 1 .2 1.2.4.3 1 .2 1.2-.2l27.4-38.7c.3-.4.2-1-.2-1.2-.4-.3-.9-.2-1.2.2z" style="fill:#002e1d"/><defs><filter id="Adobe_OpacityMaskFilter_18_" filterUnits="userSpaceOnUse" x="441.1" y="217.3" width="16" height="34.6"><feColorMatrix values="1 0 0 0 0 0 1 0 0 0 0 0 1 0 0 0 0 0 1 0"/></filter></defs><mask maskUnits="userSpaceOnUse" x="441.1" y="217.3" width="16" height="34.6" id="SVGID_37_"><g style="filter:url(#Adobe_OpacityMaskFilter_18_)"><linearGradient id="SVGID_38_" gradientUnits="userSpaceOnUse" x1="-6.23" y1="721.379" x2="28.589" y2="734.937" gradientTransform="translate(427.403 -497.668)"><stop offset="0" style="stop-color:#000"/><stop offset="1" style="stop-color:#fff"/></linearGradient><path style="fill:url(#SVGID_38_)" d="M441.1 217.3h16v34.6h-16z"/></g></mask><path d="M441.2 235.7c.8 7.1 5.3 13.2 11.7 16.2 1.6-2.4 3-4.9 4.1-7.6-3-9-5.7-18-8.2-27.1-5.5 4.5-8.4 11.5-7.6 18.5z" style="mask:url(#SVGID_37_);fill-rule:evenodd;clip-rule:evenodd;fill:#674bcc"/><defs><filter id="Adobe_OpacityMaskFilter_19_" filterUnits="userSpaceOnUse" x="273.5" y="120.6" width="95.9" height="145.1"><feColorMatrix values="1 0 0 0 0 0 1 0 0 0 0 0 1 0 0 0 0 0 1 0"/></filter></defs><mask maskUnits="userSpaceOnUse" x="273.5" y="120.6" width="95.9" height="145.1" id="SVGID_39_"><g style="filter:url(#Adobe_OpacityMaskFilter_19_)"><linearGradient id="SVGID_40_" gradientUnits="userSpaceOnUse" x1="133.279" y1="664.9" x2="-41.674" y2="690.338" gradientTransform="translate(286.652 -486.067)"><stop offset="0" style="stop-color:#000"/><stop offset="1" style="stop-color:#fff"/></linearGradient><path style="fill:url(#SVGID_40_)" d="M273.5 120.6h95.9v145.1h-95.9z"/></g></mask><path d="m336.9 129.2-61.2 108.5c-4.6 8.1-1.7 18.5 6.4 23.1l8.7 4.9 78.6-137.6-9.4-5.3c-8.1-4.6-18.5-1.7-23.1 6.4z" style="mask:url(#SVGID_39_);fill-rule:evenodd;clip-rule:evenodd;fill:#f05c00"/><path class="st84" d="m377.6 165.5-49.3-27.8c-1.3-.8-3-.3-3.8 1.1l-1.3 2.3c-.8 1.3-.3 3 1.1 3.8l49.3 27.8c1.3.8 3 .3 3.8-1.1l1.3-2.3c.7-1.4.2-3.1-1.1-3.8zM338.9 234.1l-49.3-27.8c-1.3-.8-3-.3-3.8 1.1l-1.3 2.3c-.8 1.3-.3 3 1.1 3.8l49.3 27.8c1.3.8 3 .3 3.8-1.1l1.3-2.3c.7-1.4.2-3.1-1.1-3.8z"/><path class="st7" d="m431.1 348.2-.2-.2c-.2-.3-.3-.6-.5-.9l-.3-.3c-.1-.1-.2-.3-.3-.4-.4-.3-.6-.6-.8-1.1 0-.1-.1-.1-.1-.2l-.2-.2c-.2-.1-.5-.4-.6-.6-1.1-.1-2-1.1-1.7-2.3l.2-1c.1-.3.2-.6.4-.9.2-.3.4-.5.6-.8-.3-.2-.6-.4-.7-.7l-4.9 6.3c-2.4 3.1-1.9 7.7 1.3 10.1 3.1 2.4 7.5 1.7 10.1-1.3l4.9-5.5-6 1.5c-.4-.3-.8-.9-1.2-1.5zM456.1 313c-3.2-2.4-7.7-1.9-10.1 1.3l-8.3 10.7c.2 0 .5.1.7.1 0-.1 0-.1.1-.2.1-.4.3-.7.5-1 .3-.5.6-.6 1-.9.1-.1.3-.2.4-.2.4-.3.9-.4 1.4-.3.4.1.8.1 1.2.3.1 0 .2.1.3.1.2.1.4.2.5.3.2.1.4.1.6.2.1 0 .3.1.4.2l.6.3c.2 0 .4.1.5.2.2.1.3.1.5.2l.3.1c.3.1.6.2.8.3.2.1.5.2.8.3.1 0 .3.1.4.2l-.1-.1c.2 0 .4.1.6.2.2 0 .3.1.5.1.1 0 .3.1.4.1l.6.2c.1 0 .2.1.4.1.5.2.9.3 1.4.5.2.1.5.2.7.4.5.1.9.4 1.2.8l3.3-4.2c2.1-3.2 1.6-7.8-1.6-10.3z"/><path class="st85" d="M448.8 321.1c-.4-.3-1-.2-1.3.2-.3.4-.2 1 .2 1.3l8.2 6.2c.4.3 1 .2 1.3-.2.3-.4.2-1-.2-1.3l-8.2-6.2z"/><path class="st13" d="M446.6 314.3c-1.4-.6-3-.2-8.1-.3 0 0-5.2.6-15.5 1.8l-40.1-62.5 14.5-8.9c-17-.9-32.6-12.1-43.3-25.2-7.6 10.3-21.2 32.3-15.8 45 2 4.6 5 9.6 10 15.7 17.1 21 43.7 43.1 59.1 57C417.8 345.6 423 350 423 350c4.9.9 7.4 1.3 7.4 1.3 3.6.7 7.3-.6 9.6-3.5 3.3-.8 6-3.2 7.2-6.4 3.1-1 5.2-3.8 5.3-7 2.6-1 4.2-3.6 3.9-6.3.8-.3 1.4-.9 1.7-1.7.3-.8.3-1.7-.1-2.4-2.2-2.1-9.3-8.9-11.4-9.7z"/><path class="st85" d="m440.5 347-2.3-1.4.6-1.8c.2-.9.4-1.8.4-2.7 0-.5-.4-.9-.9-1-.5 0-.9.4-1 .9 0 .8-.2 1.5-.4 2.3-.2.7-.5 1.5-.8 2.2-.2.4-.1.9.3 1.2l2.9 1.9c.4.3 1 .1 1.3-.3.5-.5.4-1-.1-1.3zM443.7 337.8c.3-.6.6-1.2.8-1.9.3-.9.5-1.9.7-2.8.1-.5-.3-1-.8-1-.5-.1-1 .3-1 .8-.1.8-.3 1.6-.6 2.4-.3.8-.6 1.5-1.1 2.2-.3.4-.2 1 .3 1.2l4.7 3.3c.4.3 1 .2 1.3-.2.3-.4.2-1-.2-1.3l-4.1-2.7zM449 330.8c.2-.4.4-.8.6-1.3.3-.7.4-1.5.5-2.3 0-.5-.3-.9-.9-1-.5 0-.9.3-1 .9 0 .6-.2 1.2-.4 1.8-.2.6-.5 1.1-.8 1.6-.3.4-.2 1 .2 1.3l4.8 3.3c.4.3 1 .2 1.3-.2.3-.4.2-1-.2-1.3l-4.1-2.8z"/><defs><filter id="Adobe_OpacityMaskFilter_20_" filterUnits="userSpaceOnUse" x="341.3" y="222.5" width="50.1" height="96.9"><feColorMatrix values="1 0 0 0 0 0 1 0 0 0 0 0 1 0 0 0 0 0 1 0"/></filter></defs><mask maskUnits="userSpaceOnUse" x="341.3" y="222.5" width="50.1" height="96.9" id="SVGID_41_"><g style="filter:url(#Adobe_OpacityMaskFilter_20_)"><linearGradient id="SVGID_42_" gradientUnits="userSpaceOnUse" x1="76.03" y1="745.4" x2="-11.941" y2="690.094" gradientTransform="translate(343.579 -440.916)"><stop offset="0" style="stop-color:#000"/><stop offset="1" style="stop-color:#fff"/></linearGradient><path style="fill:url(#SVGID_42_)" d="M341.3 222.5h50.1v96.9h-50.1z"/></g></mask><path d="M384.1 289.7c-8.6-8.5-25.8-8.4-30.9-22.5-2.7-7.4-1-15.7 4.3-21.6 5.3-5.9 13.4-8.4 21.1-6.5-8.1-4.2-15.3-9.8-21.3-16.5-11 14.7-22.1 30-11.7 47.6 9 15.2 32.4 37.8 45.9 49.3-6.9-8.1 2.6-19.9-7.4-29.8z" style="mask:url(#SVGID_41_);fill-rule:evenodd;clip-rule:evenodd;fill:#f05c00"/><defs><filter id="Adobe_OpacityMaskFilter_21_" filterUnits="userSpaceOnUse" x="364.8" y="241.9" width="58.2" height="74.5"><feColorMatrix values="1 0 0 0 0 0 1 0 0 0 0 0 1 0 0 0 0 0 1 0"/></filter></defs><mask maskUnits="userSpaceOnUse" x="364.8" y="241.9" width="58.2" height="74.5" id="SVGID_43_"><g style="filter:url(#Adobe_OpacityMaskFilter_21_)"><linearGradient id="SVGID_44_" gradientUnits="userSpaceOnUse" x1="-1.975" y1="758.319" x2="46.188" y2="705.513" gradientTransform="translate(363.349 -443.497)"><stop offset="0" style="stop-color:#000"/><stop offset="1" style="stop-color:#fff"/></linearGradient><path style="fill:url(#SVGID_44_)" d="M364.8 241.9H423v74.5h-58.2z"/></g></mask><path d="M383.7 252.8c4.7-2.9 9.2-5.7 13.7-8.5-2.9-.2-5.6-.6-8.4-1.3-6.5-2.5-13.8-.9-18.8 3.9s-6.7 12.1-4.4 18.7c4.6 13.1 16.6 10.7 25.5 15.1 17.2 8.6 3.3 40.5 31.7 34.9-17.3-26.8-30.5-47.4-39.5-61.8-.5 0-.4-.4.2-1z" style="mask:url(#SVGID_43_);fill-rule:evenodd;clip-rule:evenodd;fill:#ffcf87"/><path class="st85" d="M376.7 247.7c-2.6-1.1-5.4-1.8-8.3-1.8-2.9 0-5.7.5-8.3 1.6-2.6 1.1-5 2.7-7 4.8-.4.4-.3.9 0 1.3.4.4.9.3 1.3 0 1.8-1.9 4-3.3 6.4-4.3 2.4-1 4.9-1.5 7.6-1.5 2.6 0 5.2.6 7.5 1.6s4.5 2.6 6.3 4.5c.3.4.9.4 1.3.1.4-.3.4-.9.1-1.3-2-2.2-4.3-3.8-6.9-5z"/><defs><filter id="Adobe_OpacityMaskFilter_22_" filterUnits="userSpaceOnUse" x="409.8" y="380.5" width="63.9" height="131.4"><feColorMatrix values="1 0 0 0 0 0 1 0 0 0 0 0 1 0 0 0 0 0 1 0"/></filter></defs><mask maskUnits="userSpaceOnUse" x="409.8" y="380.5" width="63.9" height="131.4" id="SVGID_45_"><g style="filter:url(#Adobe_OpacityMaskFilter_22_)"><linearGradient id="SVGID_46_" gradientUnits="userSpaceOnUse" x1="107.709" y1="768.366" x2="5.43" y2="702.953" gradientTransform="translate(401.09 -279.266)"><stop offset="0" style="stop-color:#000"/><stop offset="1" style="stop-color:#fff"/></linearGradient><path style="fill:url(#SVGID_46_)" d="M409.8 380.5h63.9v131.4h-63.9z"/></g></mask><path d="M472.4 401.9c-3.3-11.7-13.4-20.9-28.1-21.4-11.8 5.9-23.3 12.4-34.5 19.5l40.8 14.8c-10.5 19.2-12.2 39.7-5.3 61.3 1.9 22.9 2.8 34.3 2.8 34.3 3.3.7 7.2 1.2 11.5 1.5 25.1-23.4-14.2-39.2-4.1-63.4 5.8-14.1 22.9-25.3 16.9-46.6z" style="mask:url(#SVGID_45_);fill-rule:evenodd;clip-rule:evenodd;fill:#f05c00"/><defs><filter id="Adobe_OpacityMaskFilter_23_" filterUnits="userSpaceOnUse" x="468" y="370.9" width="29.5" height="140.7"><feColorMatrix values="1 0 0 0 0 0 1 0 0 0 0 0 1 0 0 0 0 0 1 0"/></filter></defs><mask maskUnits="userSpaceOnUse" x="468" y="370.9" width="29.5" height="140.7" id="SVGID_47_"><g style="filter:url(#Adobe_OpacityMaskFilter_23_)"><linearGradient id="SVGID_48_" gradientUnits="userSpaceOnUse" x1="-16.65" y1="682.694" x2="55.691" y2="738.428" gradientTransform="translate(450.033 -279.5)"><stop offset="0" style="stop-color:#000"/><stop offset="1" style="stop-color:#fff"/></linearGradient><path style="fill:url(#SVGID_48_)" d="M468 370.9h29.5v140.7H468z"/></g></mask><path d="M476.6 370.9c-6.6 12.8-2.6 19.2 2.6 24.7 28.2 29.9-9.5 32.8-11.1 57.6-1.4 21.1 24.9 39.5 1.9 58.4 3.2-.3 6.3-.8 9.4-1.6 0 0 5-31.9 15.1-95.6 5.3-10.5 3.5-23.1-4.6-31.7-4.5-4-8.9-7.9-13.3-11.8z" style="mask:url(#SVGID_47_);fill-rule:evenodd;clip-rule:evenodd;fill:#ffcf87"/><defs><filter id="Adobe_OpacityMaskFilter_24_" filterUnits="userSpaceOnUse" x="197.9" y="415.4" width="84.9" height="128.8"><feColorMatrix values="1 0 0 0 0 0 1 0 0 0 0 0 1 0 0 0 0 0 1 0"/></filter></defs><mask maskUnits="userSpaceOnUse" x="197.9" y="415.4" width="84.9" height="128.8" id="SVGID_49_"><g style="filter:url(#Adobe_OpacityMaskFilter_24_)"><linearGradient id="SVGID_50_" gradientUnits="userSpaceOnUse" x1="57.886" y1="798.561" x2="-13.359" y2="681.747" gradientTransform="translate(223.137 -252.09)"><stop offset="0" style="stop-color:#000"/><stop offset="1" style="stop-color:#fff"/></linearGradient><path style="fill:url(#SVGID_50_)" d="M197.9 415.4h84.9v128.8h-84.9z"/></g></mask><path d="M264.5 415.9C252.2 441 246 453.6 246 453.6c-26.2 16.4-39.5 57.3-48.1 85.5l6.2 5.2c35.8-6.3 5.9-49.9 35.5-67.3 12.7-7.5 28.9-10.9 37.1-24.3 6.8-11.2 7.9-24.9 3-37-5-.4-10.1-.4-15.2.2z" style="mask:url(#SVGID_49_);fill-rule:evenodd;clip-rule:evenodd;fill:#f05c00"/><defs><filter id="Adobe_OpacityMaskFilter_25_" filterUnits="userSpaceOnUse" x="228" y="433.6" width="91.1" height="114.7"><feColorMatrix values="1 0 0 0 0 0 1 0 0 0 0 0 1 0 0 0 0 0 1 0"/></filter></defs><mask maskUnits="userSpaceOnUse" x="228" y="433.6" width="91.1" height="114.7" id="SVGID_51_"><g style="filter:url(#Adobe_OpacityMaskFilter_25_)"><linearGradient id="SVGID_52_" gradientUnits="userSpaceOnUse" x1="-8.606" y1="659.425" x2="32.474" y2="756.99" gradientTransform="translate(248.42 -248.678)"><stop offset="0" style="stop-color:#000"/><stop offset="1" style="stop-color:#fff"/></linearGradient><path style="fill:url(#SVGID_52_)" d="M228 433.6h91.1v114.7H228z"/></g></mask><path d="M292.3 439.6c-11.6 9-10 19.3-12 28.4-3.4 15-19.4 16.6-31.6 25.5-21.5 15.8-8.8 39.2-20.6 54.8l57.5-78.3c15.4-6.6 27.5-19.2 33.6-34.8-9.2-3.2-19.3-1.6-26.9 4.4z" style="mask:url(#SVGID_51_);fill-rule:evenodd;clip-rule:evenodd;fill:#ffcf87"/><path d="M424.4 353.7c-.8-.6-2-.5-2.7.4L213.9 624.9c-.6.8-.5 2 .4 2.7.8.6 2 .5 2.7-.4l207.9-270.8c.5-.8.3-2-.5-2.7z"/><path class="st1" d="M238.7 502c-.8 0-1.4.6-1.4 1.4 0 .8.6 1.4 1.4 1.4.8 0 1.4-.6 1.4-1.4 0-.8-.6-1.4-1.4-1.4zM313.8 429.6c-.8 0-1.4.6-1.4 1.4 0 .8.6 1.4 1.4 1.4.8 0 1.4-.6 1.4-1.4-.1-.8-.7-1.4-1.4-1.4zM452.7 417.1c-.8 0-1.4.6-1.4 1.4 0 .8.6 1.4 1.4 1.4.8 0 1.4-.6 1.4-1.4 0-.8-.6-1.4-1.4-1.4zM387.9 299.8c-1.5 0-2.7 1.2-2.7 2.7 0 1.5 1.2 2.7 2.7 2.7s2.7-1.2 2.7-2.7c.1-1.4-1.1-2.7-2.7-2.7zM351 303.1c-.8 0-1.4.6-1.4 1.4 0 .8.6 1.4 1.4 1.4.8 0 1.4-.6 1.4-1.4 0-.8-.6-1.4-1.4-1.4zM387 327.7c-.6 0-1.1.5-1.1 1.1 0 .6.5 1.1 1.1 1.1.6 0 1.1-.5 1.1-1.1 0-.6-.5-1.1-1.1-1.1zM438.4 324c-.6 0-1.1.5-1.1 1.1 0 .6.5 1.1 1.1 1.1.6 0 1.1-.5 1.1-1.1 0-.6-.5-1.1-1.1-1.1zM452.1 450.8c-1.4 0-2.6 1.2-2.6 2.6 0 1.4 1.2 2.6 2.6 2.6 1.4 0 2.6-1.2 2.6-2.6.1-1.5-1.1-2.6-2.6-2.6z"/></svg>