<svg version="1.1" id="Layer_1" xmlns="http://www.w3.org/2000/svg" x="0" y="0" viewBox="0 0 800 500" style="enable-background:new 0 0 800 500" xml:space="preserve"><style>.st2,.st3{fill-rule:evenodd;clip-rule:evenodd;fill:#fff}.st3{fill:#db2800}.st4{fill:#fff}.st5{fill-rule:evenodd;clip-rule:evenodd;fill:#fc7600}.st31{fill:#130152}.st39{fill-rule:evenodd;clip-rule:evenodd;fill:#ffa869}.st50{fill:#591010}.st51{fill-rule:evenodd;clip-rule:evenodd}.st52{fill:#c71100}.st56{fill-rule:evenodd;clip-rule:evenodd;fill:#ff560d}.st70{fill:#f72900}</style><path style="fill-rule:evenodd;clip-rule:evenodd;fill:#ffefb0" d="M0 .5h800v500H0z"/><path style="fill-rule:evenodd;clip-rule:evenodd;fill:#671cc9" d="M0 .5h800v500H0z"/><path class="st2" d="M676.7 153.4c0-.4-.3-.8-.8-.8-.4 0-.8.3-.8.8 0 .4.3.8.8.8s.8-.4.8-.8zM685.1 136c0-.8-.7-1.5-1.5-1.5s-1.5.7-1.5 1.5.7 1.5 1.5 1.5c.9.1 1.5-.6 1.5-1.5z"/><circle class="st2" cx="632.9" cy="143" r="2.3"/><path class="st3" d="M229.2 311s.1 0 0 0c0-.7-.2-1.6 0 0z"/><path class="st3" d="M173.6 182.5c-25.7-26.3-47.7 17.8-2.8 40.1-31.8-9.9-34.6 31.7 15 42.2-35.8.6-.4 58.5 43.7 46.7 0 0 0-.2-.1-.5l-.1.1c-.2-1.6 0-.7.1-.1 25-19.1 20.2-57.6-7.8-46.9 36.7-17.5 32.4-56.6 2.8-46.9 40.1-29.2 7.3-63.8-16.3-36.4 36.9-71.8-65.2-78.1-34.5 1.7z"/><path class="st4" d="M229.3 185.4c.4-.8 0-1.8-.8-2.2-.8-.4-1.8 0-2.2.8-3.3 7-8.2 13.1-14.2 17.7-5.5 4.3-11.9 7.4-18.9 9.1-2.6-23.4-2.9-49.1-.9-77.2.1-.9-.6-1.7-1.5-1.7-.9-.1-1.7.6-1.7 1.5-2 28.1-1.7 53.9.8 77.3-6.3-1.5-12.1-4.3-17.2-8.1-5.6-4.2-10.4-9.7-13.7-16.1-.4-.8-1.4-1.1-2.2-.7-.8.4-1.1 1.4-.7 2.2 3.6 6.9 8.6 12.7 14.6 17.2 5.7 4.3 12.4 7.3 19.5 8.9 1.4 12.1 3.5 23.7 6.2 34.5-6.6-.4-13.1-2-19.1-4.6-6.7-2.9-12.9-7.1-18.1-12.5-.6-.6-1.7-.7-2.3 0-.6.6-.7 1.7 0 2.3 5.5 5.7 12 10.1 19.1 13.2 6.7 2.9 13.9 4.6 21.3 4.9 3.3 12.7 7.5 24.5 12.5 35.4-5-.7-9.9-2-14.5-3.8-5.6-2.2-10.9-5.2-15.7-8.8-.7-.5-1.7-.4-2.3.3-.5.7-.4 1.7.3 2.3 5.1 3.9 10.6 7 16.5 9.3 5.6 2.2 11.4 3.6 17.4 4.3 6.4 13 14 24.8 22.9 35.2.6.7 1.6.8 2.3.2.7-.6.8-1.6.2-2.3-8.5-9.9-15.8-21.1-21.9-33.5 5-1.4 9.6-3.8 13.6-6.8 4.6-3.4 8.4-7.8 11.3-12.9.4-.8.2-1.8-.6-2.2-.8-.4-1.8-.2-2.2.6-2.6 4.7-6.2 8.7-10.4 11.9-3.9 2.9-8.3 5.1-13.1 6.5-5.2-11-9.5-22.9-12.9-35.8 7.4-1.6 14.4-4.6 20.7-8.6 6.7-4.3 12.7-9.8 17.6-16.3.5-.7.4-1.8-.3-2.3-.7-.5-1.8-.4-2.3.3-4.6 6.2-10.3 11.4-16.7 15.5-6 3.8-12.7 6.6-19.8 8.1-2.7-10.8-4.8-22.3-6.3-34.5 7.6-1.8 14.5-5.2 20.5-9.8 6.4-4.8 11.6-11.3 15.2-18.8z"/><path class="st5" d="M180.1 405.7c-.2-.8-.4-1.8 0 0-.1.1-.1.1 0 0z"/><path class="st5" d="M174.1 293.6c47.9-34.9 8.7-76.3-19.5-43.5 44.2-85.8-77.8-93.4-41.2 2-30.8-31.5-57 21.3-3.4 47.9-38-11.9-41.4 38 17.9 50.5-42.8.7-.5 69.9 52.2 55.9 0 0 0-.3-.1-.6 0 0-.1 0-.1.1-.3-2-.1-.9.1-.1 29.9-22.8 24.2-68.9-9.4-56.1 44-21 38.9-67.7 3.5-56.1z"/><defs><filter id="Adobe_OpacityMaskFilter" filterUnits="userSpaceOnUse" x="179.9" y="404.7" width=".2" height="1.1"><feColorMatrix values="1 0 0 0 0 0 1 0 0 0 0 0 1 0 0 0 0 0 1 0"/></filter></defs><mask maskUnits="userSpaceOnUse" x="179.9" y="404.7" width=".2" height="1.1" id="SVGID_1_"><g style="filter:url(#Adobe_OpacityMaskFilter)"><linearGradient id="SVGID_2_" gradientUnits="userSpaceOnUse" x1="-145.733" y1="382.554" x2="-93.847" y2="552.598" gradientTransform="translate(268.13 -186.074)"><stop offset="0" style="stop-color:#000"/><stop offset="1" style="stop-color:#fff"/></linearGradient><path style="fill:url(#SVGID_2_)" d="M110.4 206.5h91.7v201.8h-91.7z"/></g></mask><path d="M180.1 405.7c-.2-.8-.4-1.8 0 0-.1.1-.1.1 0 0z" style="mask:url(#SVGID_1_);fill-rule:evenodd;clip-rule:evenodd;fill:#db2800"/><defs><filter id="Adobe_OpacityMaskFilter_1_" filterUnits="userSpaceOnUse" x="110.4" y="206.5" width="91.7" height="201.8"><feColorMatrix values="1 0 0 0 0 0 1 0 0 0 0 0 1 0 0 0 0 0 1 0"/></filter></defs><mask maskUnits="userSpaceOnUse" x="110.4" y="206.5" width="91.7" height="201.8" id="SVGID_3_"><g style="filter:url(#Adobe_OpacityMaskFilter_1_)"><linearGradient id="SVGID_4_" gradientUnits="userSpaceOnUse" x1="-145.733" y1="382.554" x2="-93.847" y2="552.598" gradientTransform="translate(268.13 -186.074)"><stop offset="0" style="stop-color:#000"/><stop offset="1" style="stop-color:#fff"/></linearGradient><path style="fill:url(#SVGID_4_)" d="M110.4 206.5h91.7v201.8h-91.7z"/></g></mask><path d="M174.1 293.6c47.9-34.9 8.7-76.3-19.5-43.5 9-17.5 11.1-31.7 9.1-42.5l-3.3-1.1L115 346.9c3.9 1.4 8.2 2.6 12.9 3.6-42.8.7-.5 69.9 52.2 55.9 0 0 0-.3-.1-.6 0 0-.1 0-.1.1-.3-2-.1-.9.1-.1 29.9-22.8 24.2-68.9-9.4-56.1 44-21 38.9-67.7 3.5-56.1z" style="mask:url(#SVGID_3_);fill-rule:evenodd;clip-rule:evenodd;fill:#db2800"/><path class="st4" d="M200 357.7c.5-.9.2-2.1-.8-2.7-.9-.5-2.1-.2-2.7.8-3.2 5.6-7.4 10.4-12.4 14.2-4.6 3.5-10 6.1-15.7 7.7-6.2-13.1-11.4-27.4-15.4-42.8 8.8-2 17.2-5.5 24.8-10.2 8.1-5.1 15.2-11.7 21-19.5.6-.9.5-2.1-.4-2.7-.9-.6-2.1-.5-2.7.4-5.5 7.4-12.3 13.7-19.9 18.5-7.2 4.6-15.2 7.9-23.7 9.7-3.2-13-5.7-26.7-7.5-41.2 9-2.1 17.4-6.2 24.5-11.8 7.6-6 13.9-13.7 18.1-22.6.5-1 .1-2.1-.9-2.6s-2.1-.1-2.6.9c-4 8.4-9.9 15.6-17 21.2-6.6 5.1-14.2 8.9-22.5 10.9-3.1-27.9-3.4-58.7-1-92.3.1-1.1-.7-2-1.8-2.1-1.1-.1-2 .7-2.1 1.8-2.4 33.6-2.1 64.4 1 92.5-7.5-1.8-14.5-5.1-20.6-9.7-6.8-5-12.4-11.6-16.4-19.3-.5-1-1.7-1.3-2.6-.8-1 .5-1.3 1.7-.8 2.6 4.3 8.2 10.3 15.2 17.5 20.6 6.9 5.1 14.8 8.8 23.4 10.6 1.7 14.5 4.2 28.3 7.4 41.3-7.9-.5-15.7-2.3-22.9-5.5-8-3.5-15.4-8.5-21.6-14.9-.8-.8-2-.8-2.8 0-.8.8-.8 2 0 2.8 6.6 6.8 14.3 12.1 22.8 15.8 8 3.5 16.6 5.5 25.5 5.8 4 15.1 9 29.2 15 42.3-6-.9-11.8-2.4-17.4-4.6-6.7-2.6-13-6.2-18.8-10.6-.9-.7-2.1-.5-2.7.4-.7.9-.5 2.1.4 2.7 6.1 4.6 12.7 8.4 19.7 11.1 6.6 2.6 13.6 4.3 20.8 5.1 7.6 15.6 16.7 29.6 27.4 42.1.7.8 1.9.9 2.8.2.8-.7.9-1.9.2-2.8-10.2-11.9-18.9-25.2-26.2-40.1 5.9-1.7 11.5-4.5 16.3-8.2 5.3-3.6 9.9-8.9 13.3-15z"/><path class="st3" d="M398.1 311c.2-1.6.1-.7 0 0z"/><path class="st3" d="M405.9 264.1c-28-10.7-32.8 27.8-7.8 46.9.1-.7.3-1.6.1.1l-.1-.1c0 .3-.1.5-.1.5 44.1 11.8 79.5-46.2 43.7-46.7 49.6-10.5 46.8-52.1 15-42.2 44.8-22.3 22.9-66.4-2.8-40.1 30.7-79.8-71.4-73.5-34.4-1.7-23.5-27.5-56.3 7.2-16.3 36.4-29.7-9.7-34 29.3 2.7 46.9z"/><path class="st4" d="M400.6 281.1c-4.2-3.2-7.8-7.2-10.4-11.9-.4-.8-1.4-1.1-2.2-.6-.8.4-1.1 1.4-.6 2.2 2.9 5.1 6.7 9.5 11.3 12.9 4.1 3.1 8.7 5.4 13.6 6.8-6.1 12.4-13.4 23.5-21.9 33.5-.6.7-.5 1.7.2 2.3.7.6 1.7.5 2.3-.2 8.9-10.4 16.5-22.2 22.9-35.2 6-.7 11.8-2.1 17.4-4.3 5.9-2.3 11.4-5.4 16.5-9.3.7-.5.9-1.6.3-2.3-.5-.7-1.6-.9-2.3-.3-4.8 3.7-10.1 6.6-15.7 8.8-4.7 1.8-9.5 3.1-14.5 3.8 5-10.9 9.2-22.7 12.5-35.4 7.4-.3 14.6-2 21.3-4.9 7.1-3.1 13.6-7.6 19.1-13.2.6-.6.6-1.7 0-2.3-.6-.6-1.7-.6-2.3 0-5.2 5.4-11.3 9.6-18.1 12.5-6 2.6-12.5 4.2-19.1 4.6 2.7-10.9 4.8-22.4 6.2-34.5 7.2-1.5 13.8-4.6 19.5-8.9 6-4.5 11.1-10.4 14.6-17.2.4-.8.1-1.8-.7-2.2-.8-.4-1.8-.1-2.2.7-3.3 6.4-8 11.9-13.7 16.1-5.1 3.8-10.9 6.6-17.2 8.1 2.5-23.5 2.8-49.2.8-77.3-.1-.9-.8-1.6-1.7-1.5-.9.1-1.6.8-1.5 1.7 2 28.1 1.7 53.8-.9 77.2-6.9-1.7-13.4-4.8-18.9-9.1-6-4.7-10.9-10.7-14.2-17.7-.4-.8-1.4-1.2-2.2-.8-.8.4-1.2 1.4-.8 2.2 3.6 7.5 8.8 13.9 15.2 18.9 6 4.7 12.9 8.1 20.5 9.8-1.5 12.1-3.5 23.6-6.3 34.5-7.1-1.6-13.8-4.3-19.8-8.1-6.4-4.1-12.1-9.3-16.7-15.5-.5-.7-1.6-.9-2.3-.3-.7.5-.9 1.6-.3 2.3 4.8 6.5 10.8 12 17.6 16.3 6.3 4 13.3 6.9 20.7 8.6-3.4 12.8-7.7 24.8-12.9 35.8-4.8-1.4-9.2-3.6-13.1-6.6z"/><path class="st5" d="M447.3 405.7c0 .1 0 .1 0 0 .3-1.8.1-.8 0 0z"/><path class="st5" d="M456.6 349.6c-33.5-12.8-39.3 33.3-9.4 56.1.1-.8.3-1.9.1.1 0 0-.1 0-.1-.1-.1.3-.1.6-.1.6 52.7 14.1 95-55.2 52.2-55.9 59.3-12.5 55.9-62.3 17.9-50.5 53.6-26.7 27.4-79.4-3.4-47.9 36.7-95.4-85.4-87.9-41.2-2-28.2-32.8-67.4 8.6-19.5 43.5-35.2-11.5-40.3 35.2 3.5 56.1z"/><defs><filter id="Adobe_OpacityMaskFilter_2_" filterUnits="userSpaceOnUse" x="425.2" y="206.5" width="91.7" height="201.8"><feColorMatrix values="1 0 0 0 0 0 1 0 0 0 0 0 1 0 0 0 0 0 1 0"/></filter></defs><mask maskUnits="userSpaceOnUse" x="425.2" y="206.5" width="91.7" height="201.8" id="SVGID_5_"><g style="filter:url(#Adobe_OpacityMaskFilter_2_)"><linearGradient id="SVGID_6_" gradientUnits="userSpaceOnUse" x1="-61.269" y1="382.554" x2="-113.155" y2="552.598" gradientTransform="translate(566.2 -186.074)"><stop offset="0" style="stop-color:#000"/><stop offset="1" style="stop-color:#fff"/></linearGradient><path style="fill:url(#SVGID_6_)" d="M425.2 206.5h91.7v201.8h-91.7z"/></g></mask><path d="M456.6 349.6c-33.5-12.8-39.3 33.3-9.4 56.1.1-.8.3-1.9.1.1 0 0-.1 0-.1-.1-.1.3-.1.6-.1.6 52.7 14.1 95-55.2 52.2-55.9 4.7-1 9-2.2 12.9-3.6L467 206.5l-3.3 1.1c-2 10.8.1 25 9.1 42.5-28.2-32.8-67.4 8.6-19.5 43.5-35.4-11.6-40.5 35.1 3.3 56z" style="mask:url(#SVGID_5_);fill-rule:evenodd;clip-rule:evenodd;fill:#db2800"/><defs><filter id="Adobe_OpacityMaskFilter_3_" filterUnits="userSpaceOnUse" x="447.3" y="404.7" width=".2" height="1.1"><feColorMatrix values="1 0 0 0 0 0 1 0 0 0 0 0 1 0 0 0 0 0 1 0"/></filter></defs><mask maskUnits="userSpaceOnUse" x="447.3" y="404.7" width=".2" height="1.1" id="SVGID_7_"><g style="filter:url(#Adobe_OpacityMaskFilter_3_)"><linearGradient id="SVGID_8_" gradientUnits="userSpaceOnUse" x1="-61.269" y1="382.554" x2="-113.155" y2="552.598" gradientTransform="translate(566.2 -186.074)"><stop offset="0" style="stop-color:#000"/><stop offset="1" style="stop-color:#fff"/></linearGradient><path style="fill:url(#SVGID_8_)" d="M425.2 206.5h91.7v201.8h-91.7z"/></g></mask><path d="M447.3 405.7c0 .1 0 .1 0 0 .3-1.8.1-.8 0 0z" style="mask:url(#SVGID_7_);fill-rule:evenodd;clip-rule:evenodd;fill:#db2800"/><path class="st4" d="M443.2 370c-5-3.8-9.3-8.6-12.4-14.2-.5-.9-1.7-1.3-2.7-.8-.9.5-1.3 1.7-.8 2.7 3.4 6.1 8 11.3 13.5 15.5 4.9 3.7 10.4 6.5 16.3 8.2-7.3 14.8-16.1 28.2-26.2 40.1-.7.8-.6 2.1.2 2.8.8.7 2.1.6 2.8-.2 10.6-12.5 19.8-26.5 27.4-42.1 7.2-.8 14.2-2.5 20.8-5.1 7-2.7 13.7-6.5 19.7-11.1.9-.7 1-1.9.4-2.7-.7-.9-1.9-1-2.7-.4-5.8 4.4-12.1 7.9-18.8 10.6-5.6 2.2-11.4 3.7-17.4 4.6 6-13 11-27.1 15-42.3 8.9-.4 17.5-2.4 25.5-5.8 8.5-3.7 16.3-9 22.8-15.8.8-.8.7-2 0-2.8-.8-.8-2-.7-2.8 0-6.2 6.4-13.6 11.5-21.6 14.9-7.2 3.1-14.9 5-22.9 5.5 3.2-13 5.7-26.8 7.4-41.3 8.6-1.9 16.5-5.5 23.4-10.6 7.2-5.4 13.2-12.4 17.5-20.6.5-1 .1-2.1-.8-2.6-1-.5-2.1-.1-2.6.8-4 7.7-9.6 14.2-16.4 19.3-6.1 4.5-13.1 7.8-20.6 9.7 3-28 3.4-58.9 1-92.5-.1-1.1-1-1.9-2.1-1.8-1.1.1-1.9 1-1.8 2.1 2.4 33.6 2 64.3-1 92.3-8.3-2-16-5.8-22.5-10.9-7.1-5.6-13-12.8-17-21.2-.5-1-1.6-1.4-2.6-.9-1 .5-1.4 1.6-.9 2.6 4.3 9 10.5 16.7 18.1 22.6 7.1 5.6 15.5 9.6 24.5 11.8-1.7 14.5-4.2 28.3-7.5 41.2-8.5-1.9-16.4-5.2-23.7-9.7-7.7-4.9-14.4-11.1-19.9-18.5-.6-.9-1.9-1.1-2.7-.4-.9.6-1.1 1.9-.4 2.7 5.8 7.8 12.9 14.4 21 19.5 7.6 4.8 15.9 8.3 24.8 10.2-4.1 15.4-9.2 29.6-15.4 42.8-6-2-11.3-4.6-15.9-8.2z"/><path d="M481.8 355.9s-7.2-26.2-21.5-78.6c-.7-10.5-3-19.5-6.7-27-13.7-27.6-69.8-38-93.1-42.1L251 212.1c-21.2 5.3-55.4 15.6-70.1 32-8.4 9.4-12.2 21.5-16.6 41-7.5 33.2-12.2 76.8-15.3 97.2-4.2 23 16.7 50.4 39.3 53.9 14.9 2.3 29.5-5.4 38.1-21.6V508c7.5 3 15.2 5.5 23 7.7 56.6 15.9 117.3 11.4 171.2-13.2 0 0 0-2.7-.1-8 0 0-.4-26.6-1.3-79.8 48.6 36.6 78.4-10.7 62.6-58.8z" style="fill-rule:evenodd;clip-rule:evenodd;fill:#3c219c"/><defs><filter id="Adobe_OpacityMaskFilter_4_" filterUnits="userSpaceOnUse" x="222.5" y="215.3" width="128.6" height="305.4"><feColorMatrix values="1 0 0 0 0 0 1 0 0 0 0 0 1 0 0 0 0 0 1 0"/></filter></defs><mask maskUnits="userSpaceOnUse" x="222.5" y="215.3" width="128.6" height="305.4" id="SVGID_9_"><g style="filter:url(#Adobe_OpacityMaskFilter_4_)"><linearGradient id="SVGID_10_" gradientUnits="userSpaceOnUse" x1="10.172" y1="306.488" x2="-148.697" y2="536.192" gradientTransform="translate(374.275 -79.638)"><stop offset="0" style="stop-color:#000"/><stop offset="1" style="stop-color:#fff"/></linearGradient><path style="fill:url(#SVGID_10_)" d="M222.5 215.3h128.7v305.4H222.5z"/></g></mask><path d="M232.5 325s.4 61.9 1.1 185.7c12.1 4.3 24.5 7.7 37.2 10 47.2-10.3 80.9-52.5 80.4-86.9-.6-38.2-30.2-63.7-44.6-84.4-18.2-26.2-31-49.3 3.7-97.6-25.2-13.2-43-25.4-53.5-36.5-24.7 5.9-34.7 14.2-29.9 24.8-2.6 28.3-4.1 43.5-4.3 45.4 6.6 26.3 9.9 39.5 9.9 39.5z" style="mask:url(#SVGID_9_);fill-rule:evenodd;clip-rule:evenodd;fill:#1d006b"/><defs><filter id="Adobe_OpacityMaskFilter_5_" filterUnits="userSpaceOnUse" x="222.5" y="285.4" width="0" height=".3"><feColorMatrix values="1 0 0 0 0 0 1 0 0 0 0 0 1 0 0 0 0 0 1 0"/></filter></defs><mask maskUnits="userSpaceOnUse" x="222.5" y="285.4" width="0" height=".3" id="SVGID_11_"><g style="filter:url(#Adobe_OpacityMaskFilter_5_)"><linearGradient id="SVGID_12_" gradientUnits="userSpaceOnUse" x1="10.172" y1="306.488" x2="-148.697" y2="536.192" gradientTransform="translate(374.275 -79.638)"><stop offset="0" style="stop-color:#000"/><stop offset="1" style="stop-color:#fff"/></linearGradient><path style="fill:url(#SVGID_12_)" d="M222.5 215.3h128.7v305.4H222.5z"/></g></mask><path d="M222.5 285.4c0 .4 0 .4 0 0 0 .1 0 .1 0 0z" style="mask:url(#SVGID_11_);fill-rule:evenodd;clip-rule:evenodd;fill:#1d006b"/><defs><filter id="Adobe_OpacityMaskFilter_6_" filterUnits="userSpaceOnUse" x="158.5" y="319.8" width="52.6" height="105.3"><feColorMatrix values="1 0 0 0 0 0 1 0 0 0 0 0 1 0 0 0 0 0 1 0"/></filter></defs><mask maskUnits="userSpaceOnUse" x="158.5" y="319.8" width="52.6" height="105.3" id="SVGID_13_"><g style="filter:url(#Adobe_OpacityMaskFilter_6_)"><linearGradient id="SVGID_14_" gradientUnits="userSpaceOnUse" x1="-68.176" y1="610.769" x2="-142.731" y2="527.047" gradientTransform="translate(313.655 -170.137)"><stop offset="0" style="stop-color:#000"/><stop offset="1" style="stop-color:#fff"/></linearGradient><path style="fill:url(#SVGID_14_)" d="M158.5 319.8h52.6v105.3h-52.6z"/></g></mask><path d="M207.2 340.5c-6.9-13.3-13.7-20.3-20.3-20.7-21.3 44.4-30.6 71.5-27.9 81.3.9 11.4 9.1 21 20.4 23.4 11.2 2.4 22.7-2.8 28.2-12.9 13.3-24.3-14.4-30-12.1-51.9.6-7.8 5-14.9 11.7-19.2z" style="mask:url(#SVGID_13_);fill-rule:evenodd;clip-rule:evenodd;fill:#1d006b"/><defs><filter id="Adobe_OpacityMaskFilter_7_" filterUnits="userSpaceOnUse" x="333.7" y="208.4" width="147.2" height="144.5"><feColorMatrix values="1 0 0 0 0 0 1 0 0 0 0 0 1 0 0 0 0 0 1 0"/></filter></defs><mask maskUnits="userSpaceOnUse" x="333.7" y="208.4" width="147.2" height="144.5" id="SVGID_15_"><g style="filter:url(#Adobe_OpacityMaskFilter_7_)"><linearGradient id="SVGID_16_" gradientUnits="userSpaceOnUse" x1="-254.775" y1="561.676" x2="-.374" y2="502.365" gradientTransform="translate(479.58 -238.498)"><stop offset="0" style="stop-color:#000"/><stop offset="1" style="stop-color:#fff"/></linearGradient><path style="fill:url(#SVGID_16_)" d="M333.7 208.4h147.2v144.5H333.7z"/></g></mask><path d="M448.3 337.3c7.7 10.2 19.9 16 32.6 15.6-6.6-24.1-13.5-49.3-20.7-75.5-1.1-17.9-6.7-31-16.7-39.3-7.2-6-15.8-10.9-25.6-14.7-7-2.9-16.7-6-29.1-9.2-9.4-2.3-18.8-4.2-28.4-5.8 0 14.9-8.9 28.4-26.8 40.6 14.6-6.9 32-1.6 40.3 12.1 8.3 13.8 4.9 31.6-8 41.3C394 300.8 408 300 408 300s.3-13.3.8-40c10.1.8 19.3 5.7 25.6 13.6 18.6 23.3-4.9 39 13.9 63.7z" style="mask:url(#SVGID_15_);fill-rule:evenodd;clip-rule:evenodd;fill:#674bcc"/><path class="st31" d="M330 483.9c27.1-8.4 49.3-25.9 63.8-48.3 6-9.2 10.7-19.3 13.8-29.9-1-.6-1.9-1.3-2.8-2.2-3.1 10.8-7.8 21-13.8 30.3-14.1 21.8-35.7 38.8-62 47-.9.3-1.4 1.2-1.1 2 .3.9 1.2 1.4 2.1 1.1zM302.5 410.4c12 6.2 25.2 9.5 38.4 9.9 13.2.4 26.5-2.1 38.9-7.6.8-.4 1.2-1.3.8-2.2-.4-.8-1.3-1.2-2.2-.8-11.9 5.3-24.8 7.7-37.5 7.3-12.7-.4-25.4-3.6-37-9.5-11.6-6-21.6-14.4-29.3-24.5-7.7-10.1-13.2-21.9-15.9-34.7-.2-.9-1.1-1.5-1.9-1.3-.9.2-1.5 1.1-1.3 1.9 2.8 13.3 8.5 25.5 16.5 36 8.2 10.6 18.5 19.3 30.5 25.5z"/><path class="st31" d="M352.9 495.4c19.4-5.6 37.1-17.3 50.1-34.1.6-.7.4-1.7-.3-2.3-.7-.6-1.7-.4-2.3.3-12.5 16.3-29.6 27.5-48.4 33-18.8 5.4-39.2 5-58.5-2.1-.9-.3-1.8.1-2.1 1-.3.9.1 1.8 1 2.1 19.9 7.3 41 7.7 60.5 2.1z"/><path class="st2" d="M360.5 208.4c-2.7-1.1-5.5-2.1-8.3-3.1-6.2-2.1-11.6-6-16.6-10.1-12.4 9.7-28 15.5-45 15.5-9.3 0-18.1-1.7-26.3-4.9-.8.5-1.7.4-2.4.8-3.5 1.9-7.5 3.7-10.8 5.4 10.5 25.5 38.5 44.3 66 43.9 28.1-.3 46.8-20.9 43.4-47.5z"/><path d="M352.1 205.3c-9.9-5.5-14.9-8.2-14.9-8.2-22.8-41.8-42.3-59.6-58.6-53.3 0 0-1.1 18.6-3.4 55.9 0 0-4.5 2.3-13.4 7 7.7 22.1 31.5 38.8 54.9 38.4 23.3-.3 38.7-17.6 35.4-39.8z" style="fill-rule:evenodd;clip-rule:evenodd;fill:#ff9e59"/><defs><filter id="Adobe_OpacityMaskFilter_8_" filterUnits="userSpaceOnUse" x="283.7" y="175.9" width="68.9" height="69.3"><feColorMatrix values="1 0 0 0 0 0 1 0 0 0 0 0 1 0 0 0 0 0 1 0"/></filter></defs><mask maskUnits="userSpaceOnUse" x="283.7" y="175.9" width="68.9" height="69.3" id="SVGID_17_"><g style="filter:url(#Adobe_OpacityMaskFilter_8_)"><linearGradient id="SVGID_18_" gradientUnits="userSpaceOnUse" x1="-73.054" y1="610.542" x2="-126.017" y2="533.643" gradientTransform="translate(432.193 -340.47)"><stop offset="0" style="stop-color:#000"/><stop offset="1" style="stop-color:#fff"/></linearGradient><path style="fill:url(#SVGID_18_)" d="M283.7 175.9h68.9v69.3h-68.9z"/></g></mask><path d="M328.8 243.2c5.8-1.8 11.1-5 15.3-9.5 4.7-5.1 7.5-11.6 8.2-18.5.4-3.3.3-6.6-.2-9.9-5.9-3.2-8.8-4.9-8.8-4.9-39.8-16.4-59.6-24.6-59.6-24.6 16.8 46.3 24.9 69.2 24.1 68.6 7 1.3 14.2.9 21-1.2z" style="mask:url(#SVGID_17_);fill-rule:evenodd;clip-rule:evenodd;fill:#ff560d"/><defs><filter id="Adobe_OpacityMaskFilter_9_" filterUnits="userSpaceOnUse" x="285.4" y="180" width="67.1" height="42.4"><feColorMatrix values="1 0 0 0 0 0 1 0 0 0 0 0 1 0 0 0 0 0 1 0"/></filter></defs><mask maskUnits="userSpaceOnUse" x="285.4" y="180" width="67.1" height="42.4" id="SVGID_19_"><g style="filter:url(#Adobe_OpacityMaskFilter_9_)"><linearGradient id="SVGID_20_" gradientUnits="userSpaceOnUse" x1="-67.83" y1="605.196" x2="-128.536" y2="551.06" gradientTransform="translate(433.813 -362.059)"><stop offset="0" style="stop-color:#000"/><stop offset="1" style="stop-color:#fff"/></linearGradient><path style="fill:url(#SVGID_20_)" d="M285.4 180h67.1v42.4h-67.1z"/></g></mask><path d="M352.5 208.2c0-.7-.2-1.7-.3-2.8-5.9-3.2-8.8-4.9-8.8-4.9-33-12.5-52.4-19.4-57.9-20.5 21.7 45 53.2 53.8 67 28.2z" style="mask:url(#SVGID_19_);fill-rule:evenodd;clip-rule:evenodd;fill:#c71100"/><path class="st39" d="M368.2 139.7c.4-16.9-8.8-32.6-23.9-40.3-15-7.7-33.2-6.2-46.7 4s-19.9 27.2-16.6 43.8c-1.5 9.8-.9 17.5 1.1 24.2 5.2 17.8 21.6 40.5 42 40.7 8.1.1 15.5-3.8 19.3-12.1 5.4-7.1 15.2-18 19.4-28.4 4.3-10.6-1-13.6 4.6-26.2.8-1.7 1.1-3.7.8-5.7z"/><defs><filter id="Adobe_OpacityMaskFilter_10_" filterUnits="userSpaceOnUse" x="311.8" y="94.6" width="56.6" height="116.3"><feColorMatrix values="1 0 0 0 0 0 1 0 0 0 0 0 1 0 0 0 0 0 1 0"/></filter></defs><mask maskUnits="userSpaceOnUse" x="311.8" y="94.6" width="56.6" height="116.3" id="SVGID_21_"><g style="filter:url(#Adobe_OpacityMaskFilter_10_)"><linearGradient id="SVGID_22_" gradientUnits="userSpaceOnUse" x1="-146.997" y1="526.612" x2="-86.186" y2="524.616" gradientTransform="translate(458.783 -372.977)"><stop offset="0" style="stop-color:#000"/><stop offset="1" style="stop-color:#fff"/></linearGradient><path style="fill:url(#SVGID_22_)" d="M311.8 94.6h56.6v116.3h-56.6z"/></g></mask><path d="M368.2 139.7c.4-16.9-8.8-32.6-23.9-40.3-10.2-5.3-21.9-6.2-32.6-3.1 23.6 12.1 39.8 36.7 39.8 65.1 0 19-7.3 36.4-19.2 49.4 4.7-1.8 8.7-5.3 11.2-10.7 5.4-7.1 15.2-18 19.4-28.4 4.3-10.6-1-13.6 4.6-26.2.7-1.8 1-3.8.7-5.8z" style="mask:url(#SVGID_21_);fill-rule:evenodd;clip-rule:evenodd;fill:#ffd8a1"/><defs><filter id="Adobe_OpacityMaskFilter_11_" filterUnits="userSpaceOnUse" x="283.9" y="89.2" width="55.1" height="104.9"><feColorMatrix values="1 0 0 0 0 0 1 0 0 0 0 0 1 0 0 0 0 0 1 0"/></filter></defs><mask maskUnits="userSpaceOnUse" x="283.9" y="89.2" width="55.1" height="104.9" id="SVGID_23_"><g style="filter:url(#Adobe_OpacityMaskFilter_11_)"><linearGradient id="SVGID_24_" gradientUnits="userSpaceOnUse" x1="-110.347" y1="587.878" x2="-125.252" y2="507.324" gradientTransform="translate(432.43 -388.82)"><stop offset="0" style="stop-color:#000"/><stop offset="1" style="stop-color:#fff"/></linearGradient><path style="fill:url(#SVGID_24_)" d="M283.9 89.2H339v104.9h-55.1z"/></g></mask><path d="M298.3 194.1c-1.4-12.8 10.6-12.9 12.3-24 .9-5.8-2-11.5-3.5-17.5-4-15.9 9.5-29.6 25-26.4 4.6-11 7-16.5 7-16.5-37.3-36.8-55.6-24-54.9 38.3-1.3 16.6 3.4 31.9 14.1 46.1z" style="mask:url(#SVGID_23_);fill-rule:evenodd;clip-rule:evenodd;fill:#ff560d"/><defs><filter id="Adobe_OpacityMaskFilter_12_" filterUnits="userSpaceOnUse" x="283.9" y="139.9" width="34.8" height="36.6"><feColorMatrix values="1 0 0 0 0 0 1 0 0 0 0 0 1 0 0 0 0 0 1 0"/></filter></defs><mask maskUnits="userSpaceOnUse" x="283.9" y="139.9" width="34.8" height="36.6" id="SVGID_25_"><g style="filter:url(#Adobe_OpacityMaskFilter_12_)"><linearGradient id="SVGID_26_" gradientUnits="userSpaceOnUse" x1="-114.308" y1="595.639" x2="-141.54" y2="543.922" gradientTransform="translate(432.38 -405.537)"><stop offset="0" style="stop-color:#000"/><stop offset="1" style="stop-color:#fff"/></linearGradient><path style="fill:url(#SVGID_26_)" d="M283.9 139.9h34.8v36.6h-34.8z"/></g></mask><path d="M285.8 139.9c-1.8 2.2-2.3 4.9-1.7 8.1-.1 1.9-.2 3.8-.2 5.6 0 0 1.5 1.2 4.4 3.7-.4 7.4 3.7 14.3 10.3 17.4 6.7 3.1 14.6 1.9 20-3.2-5.8 1.7-12 .2-16.3-4-4.3-4.2-6-10.4-4.5-16.2l-12-11.4z" style="mask:url(#SVGID_25_);fill-rule:evenodd;clip-rule:evenodd;fill:#c71100"/><path d="M274.9 121.5c6.9 3.5 11.2 10.6 10.9 18.3 2-20.6 30.8-6.4 31.5-32.4 13.8 26.3 40.4 35.6 46.6 23.7 2.2 2.4 3.7 5.4 4.3 8.6 16.9-10.5 14.6-39.3 5.6-54.3-8.4-13.9-23.1-22.7-39.2-23.6 20.8-4.5-2.6-16.1-17.1-9.2-6.8 3.3-11.8 9.6-13.3 17-20.8-6.8-38.2 21.4-21.9 18.1-9.8 8.3-12.9 22.2-7.4 33.8z" style="fill-rule:evenodd;clip-rule:evenodd;fill:#591010"/><path class="st50" d="M340.3 142.5c.1.4.3.8.7 1 .3.2.7.3 1.2.2 1.6-.3 3.2-.5 4.9-.7 1.6-.1 3.3-.1 4.9 0 1.6.1 3.3.3 4.9.7 1.6.3 3.2.8 4.7 1.3.4.1.8.1 1.2-.1.4-.2.6-.5.8-.9v-.1c.1-.4.1-.8-.1-1.1-.2-.4-.5-.6-.9-.8-1.7-.6-3.4-1-5.1-1.4-1.7-.4-3.5-.6-5.3-.7-1.8-.1-3.6-.1-5.3 0-1.8.1-3.5.4-5.3.7-.4.1-.8.3-1 .7-.2.4-.3.8-.3 1.2zM321.7 136.9c-2.1-.6-4.2-1-6.4-1.3-2.2-.3-4.3-.5-6.5-.5s-4.3.1-6.5.4c-.4.1-.8.3-1 .6-.2.3-.4.7-.3 1.1.1.4.3.8.6 1 .3.2.7.4 1.1.3 2-.3 4.1-.4 6.1-.4s4.1.2 6.1.4c2 .3 4 .7 6 1.3 2 .6 3.9 1.2 5.8 2 .4.2.8.2 1.2 0 .4-.1.7-.4.8-.8.2-.4.2-.8 0-1.2-.1-.4-.4-.7-.8-.8-2-.8-4.1-1.5-6.2-2.1z"/><path class="st51" d="M354.5 159.6c0-1.1-.9-2-2-2s-2 .9-2 2 .9 2 2 2 2-.9 2-2zM315.5 154c0-1.2-.9-2.1-2.1-2.1-1.2 0-2.1.9-2.1 2.1s.9 2.1 2.1 2.1c1.2 0 2.1-.9 2.1-2.1z"/><path class="st2" d="M361 154.9c0-1.8-1.5-3.3-3.3-3.3-1.8 0-3.3 1.5-3.3 3.3 0 1.8 1.5 3.3 3.3 3.3 1.8 0 3.3-1.4 3.3-3.3z"/><circle class="st2" cx="318.1" cy="149.3" r="3.3"/><path class="st52" d="M319 187.4c2.4 1.3 5.1 2.2 8 2.5 2.8.3 5.5-.1 8-.9 2.6-.8 4.9-2.1 6.8-3.8.6-.5.6-1.4 0-1.9s-1.6-.5-2.2 0c-1.6 1.4-3.6 2.5-5.7 3.2-2.1.7-4.4.9-6.7.7-2.4-.2-4.7-.9-6.7-2s-3.7-2.6-4.9-4.5c-.4-.6-1.4-.8-2.1-.5-.7.4-1 1.2-.5 1.8 1.6 2.3 3.6 4.1 6 5.4zM321.5 193.4c1 .6 2.1 1 3.3 1.2 1.2.2 2.3.1 3.4-.2 1.1-.3 2.1-.8 3-1.5.3-.2.3-.6 0-.8-.2-.2-.7-.2-.9 0-.7.6-1.6 1-2.5 1.2-.9.2-1.9.3-2.9.2-1-.1-2-.5-2.8-1-.8-.5-1.5-1.2-2-2-.2-.3-.6-.4-.9-.2-.3.1-.4.5-.3.8.8.9 1.7 1.7 2.6 2.3z"/><defs><filter id="Adobe_OpacityMaskFilter_13_" filterUnits="userSpaceOnUse" x="272.2" y="50.5" width="56.2" height="89.4"><feColorMatrix values="1 0 0 0 0 0 1 0 0 0 0 0 1 0 0 0 0 0 1 0"/></filter></defs><mask maskUnits="userSpaceOnUse" x="272.2" y="50.5" width="56.2" height="89.4" id="SVGID_27_"><g style="filter:url(#Adobe_OpacityMaskFilter_13_)"><linearGradient id="SVGID_28_" gradientUnits="userSpaceOnUse" x1="-106.198" y1="482.132" x2="-129.943" y2="567.418" gradientTransform="translate(421.339 -440.163)"><stop offset="0" style="stop-color:#000"/><stop offset="1" style="stop-color:#fff"/></linearGradient><path style="fill:url(#SVGID_28_)" d="M272.2 50.5h56.2v89.4h-56.2z"/></g></mask><path d="M274.9 121.5c6.9 3.5 11.2 10.6 10.9 18.3 1.8-18.5 25.3-8.9 30.5-25.8-13-19-9.9-45.1 8-60.4 1.3-1.1 2.7-2.2 4.1-3.1-3.7-.1-7.6.5-10.9 2.1-6.8 3.3-11.8 9.6-13.3 17-20.8-6.8-38.2 21.4-21.9 18.1-9.8 8.3-12.9 22.2-7.4 33.8z" style="mask:url(#SVGID_27_);fill-rule:evenodd;clip-rule:evenodd;fill:#330101"/><path class="st4" d="M341.7 172.3c2.8 2.8 6.6 4.5 10.9 4.5 4.2 0 8.1-1.7 10.9-4.5 2.8-2.8 4.5-6.6 4.5-10.9 0-4.2-1.7-8.1-4.5-10.9-2.8-2.8-6.6-4.5-10.9-4.5-4.2 0-8.1 1.7-10.9 4.5-1.2 1.2-2.1 2.5-2.9 4-.4-.5-.9-1-1.4-1.4-1-.8-2.2-1.3-3.5-1.5-1.3-.2-2.6-.1-3.8.3-.6.2-1.2.5-1.7.8-.7-3.1-2.2-5.9-4.4-8-3-3-7.1-4.8-11.6-4.8s-8.6 1.8-11.6 4.8c-1.4 1.4-2.5 3-3.3 4.8l-26.1-23.1c-.3-.3-.8-.3-1.2 0l-13.3 9.4c-.4.3-.5.9-.2 1.3s.9.5 1.3.2l12.8-9 26 23.1c-.5 1.6-.8 3.2-.8 5 0 4.5 1.8 8.6 4.8 11.6s7.1 4.8 11.6 4.8S321 171 324 168s4.8-7.1 4.8-11.6c0-.5 0-1-.1-1.5.6-.5 1.3-.9 2-1.2.9-.3 1.9-.4 2.9-.3 1 .2 1.9.6 2.7 1.2.7.5 1.3 1.2 1.7 2-.5 1.5-.8 3.1-.8 4.8 0 4.3 1.7 8.1 4.5 10.9zm1.7-20c2.4-2.4 5.6-3.8 9.2-3.8 3.6 0 6.8 1.5 9.2 3.8 2.4 2.4 3.8 5.6 3.8 9.2 0 3.6-1.5 6.8-3.8 9.2-2.4 2.4-5.6 3.8-9.2 3.8-3.6 0-6.8-1.5-9.2-3.8-2.4-2.4-3.8-5.6-3.8-9.2 0-3.6 1.4-6.9 3.8-9.2zm-21.1 14c-2.5 2.5-6 4.1-9.9 4.1-3.9 0-7.4-1.6-9.9-4.1-2.5-2.5-4.1-6-4.1-9.9 0-3.9 1.6-7.4 4.1-9.9 2.5-2.5 6-4.1 9.9-4.1 3.9 0 7.4 1.6 9.9 4.1 2.5 2.5 4.1 6 4.1 9.9 0 3.9-1.6 7.4-4.1 9.9z"/><path class="st39" d="M278.6 152.5c6.1-1.7 9.1-10.1 6.7-18.8-2.4-8.7-9.3-14.5-15.4-12.8-6.1 1.7-9.1 10.1-6.7 18.8 2.4 8.8 9.3 14.5 15.4 12.8z"/><path class="st56" d="M275.2 146.6c3.7-1 5.5-6.2 4.1-11.5-1.5-5.3-5.7-8.8-9.4-7.8-3.7 1-5.5 6.2-4.1 11.5 1.5 5.3 5.7 8.8 9.4 7.8z"/><path d="M276.7 141.4c2.2-.6 3.3-3.7 2.4-6.8-.9-3.2-3.4-5.2-5.6-4.6-2.2.6-3.3 3.7-2.4 6.8.9 3.2 3.4 5.2 5.6 4.6z" style="fill-rule:evenodd;clip-rule:evenodd;fill:#c71100"/><path class="st56" d="M336.3 177.9c7.4-3.8 8.3-6.8 2.6-9.1-4.8-20.6-5.2-16.7-13.5-2.1-7.5.5-7.5 3.9-.2 10 3.4 4.5 6.8 5 11.1 1.2z"/><defs><filter id="Adobe_OpacityMaskFilter_14_" filterUnits="userSpaceOnUse" x="343.6" y="63.2" width="37.2" height="76.5"><feColorMatrix values="1 0 0 0 0 0 1 0 0 0 0 0 1 0 0 0 0 0 1 0"/></filter></defs><mask maskUnits="userSpaceOnUse" x="343.6" y="63.2" width="37.2" height="76.5" id="SVGID_29_"><g style="filter:url(#Adobe_OpacityMaskFilter_14_)"><linearGradient id="SVGID_30_" gradientUnits="userSpaceOnUse" x1="-162.641" y1="522.124" x2="-107.163" y2="552.451" gradientTransform="translate(488.93 -440.277)"><stop offset="0" style="stop-color:#000"/><stop offset="1" style="stop-color:#fff"/></linearGradient><path style="fill:url(#SVGID_30_)" d="M343.6 63.2h37.2v76.5h-37.2z"/></g></mask><path d="M352.6 136.2c5.2.5 9.4-1.2 11.4-5 2.2 2.4 3.7 5.4 4.3 8.6 16.9-10.5 14.6-39.3 5.6-54.3-6.8-11.2-17.7-19.2-30.2-22.3C357.6 71 367 85.9 367 103c-.1 13.1-5.6 24.9-14.4 33.2z" style="mask:url(#SVGID_29_);fill-rule:evenodd;clip-rule:evenodd;fill:#992e22"/><path class="st31" d="M412.1 337c.9-.1 1.6-.8 1.5-1.7l-5.8-94c-.1-.9-.8-1.6-1.7-1.5-.9.1-1.6.8-1.5 1.7l5.8 94c.1.9.8 1.6 1.7 1.5zM224.1 335.5l3.2-94.2c0-.9-.7-1.7-1.6-1.7-.9 0-1.7.7-1.7 1.6l-3.2 94.2c0 .9.7 1.7 1.6 1.7.9 0 1.6-.7 1.7-1.6z"/><defs><filter id="Adobe_OpacityMaskFilter_15_" filterUnits="userSpaceOnUse" x="188.4" y="341.9" width="40" height="94.7"><feColorMatrix values="1 0 0 0 0 0 1 0 0 0 0 0 1 0 0 0 0 0 1 0"/></filter></defs><mask maskUnits="userSpaceOnUse" x="188.4" y="341.9" width="40" height="94.7" id="SVGID_31_"><g style="filter:url(#Adobe_OpacityMaskFilter_15_)"><linearGradient id="SVGID_32_" gradientUnits="userSpaceOnUse" x1="-181.985" y1="581.91" x2="-105.677" y2="529.222" gradientTransform="translate(341.988 -159.235)"><stop offset="0" style="stop-color:#000"/><stop offset="1" style="stop-color:#fff"/></linearGradient><path style="fill:url(#SVGID_32_)" d="M188.4 341.9h40v94.7h-40z"/></g></mask><path d="M211.7 420.4c-8.3 5-18.6 6.5-23.3 15.8 5.9.9 11.9.2 17.5-2 8.6-3.5 15.5-10 20.7-19.6 2.7-15.4 2.5-36.1-.6-62 0 0-.2-3.6-.6-10.7 0 0-1.6.1-4.7.2-7.9 2.4-13.6 9.3-14.5 17.5-1.1 10.4 4.5 15.1 9.7 20.4 12.1 12.3 10.6 31.5-4.2 40.4z" style="mask:url(#SVGID_31_);fill-rule:evenodd;clip-rule:evenodd;fill:#674bcc"/><path class="st31" d="m168.9 351 18.2-36.1c.4-.8.1-1.8-.7-2.2-.8-.4-1.8-.1-2.2.7L166 349.5c-5.8 11.8-9.6 22-11.3 30.5-1.7 8.7-1.3 15.8 1.2 21.2.4.8 1.4 1.2 2.2.8.8-.4 1.2-1.4.8-2.2-2.3-4.7-2.6-11.1-1-19.1 1.6-8.2 5.3-18.1 11-29.7zM227 415.2c.9.2 1.8-.4 2-1.2 2.6-11.2.8-33.9-.5-50.4-.4-4.6-.7-8.7-.9-11.8 0-.9-.8-1.6-1.7-1.5-.9 0-1.6.8-1.5 1.7.2 3.4.5 7.4.9 11.9 1.3 16.3 3 38.7.6 49.5-.3.7.2 1.6 1.1 1.8zM456.3 361.5c.3.1.6.2 1 .1 5.6-.9 11 .3 15.5 3.1 4.5 2.8 7.9 7.2 9.5 12.6.3.9 1.2 1.4 2 1.1.9-.3 1.4-1.2 1.1-2-1.8-6.2-5.8-11.2-10.9-14.5-5-3.1-11.1-4.6-17.3-3.7L424 342.8c-.8-.4-1.8 0-2.2.8-.4.8 0 1.8.8 2.2l33.7 15.7zM420.6 415.8c.5-.7.4-1.8-.3-2.3L395 394.8c-.7-.5-1.8-.4-2.3.3-.5.7-.4 1.8.3 2.3l25.4 18.7c.7.6 1.7.4 2.2-.3z"/><defs><filter id="Adobe_OpacityMaskFilter_16_" filterUnits="userSpaceOnUse" x="397.2" y="366.5" width="75.2" height="54.2"><feColorMatrix values="1 0 0 0 0 0 1 0 0 0 0 0 1 0 0 0 0 0 1 0"/></filter></defs><mask maskUnits="userSpaceOnUse" x="397.2" y="366.5" width="75.2" height="54.2" id="SVGID_33_"><g style="filter:url(#Adobe_OpacityMaskFilter_16_)"><linearGradient id="SVGID_34_" gradientUnits="userSpaceOnUse" x1="-27.657" y1="565.135" x2="-159.569" y2="569.857" gradientTransform="translate(539.675 -174.325)"><stop offset="0" style="stop-color:#000"/><stop offset="1" style="stop-color:#fff"/></linearGradient><path style="fill:url(#SVGID_34_)" d="M397.2 366.5h75.2v54.2h-75.2z"/></g></mask><path d="M463.1 417c9.3-7.4 12.2-20.4 6.2-30.6-11.3-19.2-29.8-4.6-41.1-10.7-3.5-1.9-6.1-5.3-6.9-9.3-8.9 3.9-13.3 5.8-13.3 5.8-4.1 1.1-6.6 3.4-8.7 7-2.1 3.6-2.6 7.9-1.5 12 14.6 12.7 48.4 39.1 65.3 25.8z" style="mask:url(#SVGID_33_);fill-rule:evenodd;clip-rule:evenodd;fill:#130152"/><path class="st4" d="M256 338.1c2 0 4.1-.8 5.7-2.3l21.4-21.2c.7-.7 1.3-1.6 1.7-2.5.4.9.9 1.8 1.7 2.5l21.2 21.4c1.5 1.6 3.6 2.4 5.6 2.4 2 0 4.1-.8 5.7-2.3l21.4-21.2c.5-.5 1-1.1 1.3-1.7.3.6.8 1.2 1.3 1.7l21.2 21.4c1.5 1.6 3.6 2.4 5.6 2.4 2 0 4.1-.8 5.7-2.3l21.4-21.2c1.6-1.5 2.4-3.6 2.4-5.6 0-2.1-.8-4.1-2.3-5.7l-21.2-21.4c-1.5-1.6-3.6-2.4-5.6-2.4-2 0-4.1.8-5.7 2.3l-21.4 21.2c-.5.5-1 1.1-1.3 1.7-.3-.6-.8-1.2-1.3-1.8l-21.2-21.4c-1.5-1.6-3.6-2.4-5.6-2.4-2 0-4.1.8-5.7 2.3l-21.4 21.2c-.7.7-1.3 1.6-1.7 2.5-.4-.9-.9-1.8-1.7-2.5L262 281.9c-1.5-1.6-3.6-2.4-5.6-2.4-2 0-4.1.8-5.7 2.3L229.3 303c-1.6 1.5-2.4 3.6-2.4 5.6 0 2 .8 4.1 2.3 5.7l21.2 21.4c1.5 1.6 3.5 2.4 5.6 2.4zm89-32.4 21.4-21.2c1-1 2.4-1.5 3.8-1.5s2.7.5 3.7 1.6l21.2 21.4c1 1 1.5 2.4 1.5 3.8s-.5 2.7-1.6 3.7l-21.4 21.2c-1 1-2.4 1.5-3.8 1.5s-2.7-.5-3.7-1.6l-21.2-21.4c-1-1-1.5-2.4-1.5-3.8 0-1.3.6-2.7 1.6-3.7zm-56.5-.4 21.4-21.2c1-1 2.4-1.5 3.8-1.5s2.7.5 3.7 1.6l21.2 21.4c1 1 1.5 2.4 1.5 3.8s-.5 2.7-1.6 3.7l-21.4 21.2c-1 1-2.4 1.5-3.8 1.5s-2.7-.5-3.7-1.6l-21.2-21.4c-1-1-1.5-2.4-1.5-3.8 0-1.3.5-2.7 1.6-3.7zm-58.9 3.4c0-1.4.5-2.7 1.6-3.7l21.4-21.2c1-1 2.4-1.5 3.8-1.5s2.7.5 3.7 1.6l21.2 21.4c1 1 1.5 2.4 1.5 3.8s-.5 2.7-1.6 3.7L259.8 334c-1 1-2.4 1.5-3.8 1.5s-2.7-.5-3.7-1.6l-21.2-21.4c-1-1.1-1.5-2.4-1.5-3.8z"/><path class="st39" d="M220.6 342.1c9.8-14.2 14.7-21.2 14.7-21.2 7.6-6.2 13-14.9 15.1-24.5.4-2.2 1.3-6.2 2.4-12 8.2-1.5 1.5-13.2-7.1-14.7-1.1-5.2-5.8-8.7-11.1-8.2-1.9-5-7.3-7.8-12.5-6.3-.4-2.9-2.1-5.4-4.7-6.7-7-3.6-19.9 6.5-25.4 10.6-4.9 3.8-6.3 8.4-4.1 13.8 0 0 1.3 8.9 4 26.7 0 0-2.2 4.9-6.5 14.6 2.4 17.2 17.9 29.6 35.2 27.9z"/><defs><filter id="Adobe_OpacityMaskFilter_17_" filterUnits="userSpaceOnUse" x="186.8" y="250" width="30.3" height="90.5"><feColorMatrix values="1 0 0 0 0 0 1 0 0 0 0 0 1 0 0 0 0 0 1 0"/></filter></defs><mask maskUnits="userSpaceOnUse" x="186.8" y="250" width="30.3" height="90.5" id="SVGID_35_"><g style="filter:url(#Adobe_OpacityMaskFilter_17_)"><linearGradient id="SVGID_36_" gradientUnits="userSpaceOnUse" x1="-99.561" y1="518.167" x2="-158.144" y2="559.194" gradientTransform="translate(340.524 -250.178)"><stop offset="0" style="stop-color:#000"/><stop offset="1" style="stop-color:#fff"/></linearGradient><path style="fill:url(#SVGID_36_)" d="M186.8 250h30.3v90.5h-30.3z"/></g></mask><path d="M211.5 250c-5.3 2-11.1 5.7-17.4 11-3.9 2.9-5 6.8-3.2 11.8 3.5 18.6 5.2 28 5.2 28-6.2 12.7-9.3 19-9.3 19 3.1 9.8 10.7 17.4 20.3 20.7 5.7-4.6 9.2-11.4 9.8-18.7 1.7-21.2-20.5-23.4-9.2-44.7 4.6-8.5 11.4-16.1 3.8-27.1z" style="mask:url(#SVGID_35_);fill-rule:evenodd;clip-rule:evenodd;fill:#ff5b24"/><path class="st70" d="m237.3 277.4 9.3-6.7c.6-.4.8-1.3.3-1.9-.4-.6-1.3-.8-1.9-.3l-9.3 6.7c-.6.4-.8 1.3-.3 1.9.4.6 1.2.7 1.9.3zM221.9 295.5l9.3-13.1c.3-.4.2-1-.2-1.3-.4-.3-1-.2-1.3.2l-9.3 13.1c-.3.4-.2 1 .2 1.3.4.3 1 .2 1.3-.2zM211 289.7c.5.2 1-.1 1.2-.5l5.7-15.2c.2-.5-.1-1-.5-1.2-.5-.2-1 .1-1.2.5l-5.7 15.2c-.2.5 0 1 .5 1.2zM202.9 269.1l-2.6 13.1c-.1.5.2 1 .7 1.1.5.1 1-.2 1.1-.7l2.6-13.1c.1-.5-.2-1-.7-1.1-.5-.1-1 .2-1.1.7zM222.9 270.2l12.5-7.6c.6-.4.9-1.2.5-1.9-.4-.6-1.2-.9-1.9-.5l-12.5 7.6c-.6.4-.9 1.2-.5 1.9s1.3.9 1.9.5zM209.4 262.4c.4.7 1.2.9 1.9.5l11.7-6.6c.7-.4.9-1.2.5-1.9s-1.2-.9-1.9-.5l-11.7 6.6c-.6.4-.9 1.3-.5 1.9z"/><path class="st2" d="M398.5 351.3c4 0 8.2-3.2 9.5-7.2l18.3-57.5c1.3-4-1-7.2-4.9-7.2h-40.8c-4 0-8.2 3.2-9.5 7.2l-18.3 57.5c-1.3 4 1 7.2 4.9 7.2h40.8z"/><path class="st51" d="M402.7 353.8c3 0 6.2-2.4 7.1-5.4l19.4-61.1c.9-3-.7-5.4-3.7-5.4h-44.4c-3 0-6.2 2.4-7.1 5.4l-19.4 61.1c-.9 3 .7 5.4 3.7 5.4h44.4z"/><path class="st39" d="M341.4 332.4c-1.3 1.2-1.8 3.1-1.3 4.7 0 0 1.4 2.6 4.1 7.8 0 0 2.9 3.4 8.6 10.1 18.2 9.6 27.3 14.5 27.3 14.5 8.9 5.1 13.4 7.6 13.4 7.6 9.3 5.7 21.2 4 28.5-4.1 7.3-8 7.8-20.1 1.3-28.8 0 0 .7-3.1 2.1-9.4.8-5-.4-9-3.6-11.9l-9.6-8.4s-7.8-1.9-23.3-5.8c0 0-4.1-.5-12.2-1.4-2 .5-3.4 2.2-3.6 4.2-.1 2 1 3.9 2.9 4.7 0 0 3.6 1 10.7 2.9 0 0 5.3 2 16 5.9l2.1 3.3s-.8 1.4-2.5 4.3c-1.1-.4-4.4-2.2-12.5-7.3 0 0-11.4-5-34.2-15.1-2.9-1.3-5.4-1.1-7.1.4-2 1.7-2.5 4.7-1.1 7 0 0 .7.8 2.1 2.5-2-1.3-4.6-1-6.3.6-1.7 1.7-1.9 4.3-.6 6.3 0 0 1.2 1.5 3.5 4.6-1.5-.7-3.4-.4-4.7.8z"/><path class="st70" d="M371.5 315.6c-.7-.3-1.5 0-1.8.7-.3.7 0 1.5.7 1.8l19 8.4 12.5 7.3c.6.4 1.5.2 1.8-.5.4-.6.2-1.5-.5-1.8l-12.5-7.3s-.1 0-.1-.1l-19.1-8.5zM402 326l1.9 2.9c.1.2.2.3.4.4l7.7 6.1c.6.5 1.4.4 1.9-.2.5-.6.4-1.4-.2-1.9l-7.6-6-2-3.1c-.2-.2-.4-.4-.7-.5l-16-5.9c-.7-.3-1.5.1-1.7.8-.3.7.1 1.5.8 1.7L402 326z"/><path class="st2" d="M378.5 292.8c1.5 0 3.1-1.2 3.6-2.7l.5-1.7c.5-1.5-.4-2.7-1.9-2.7s-3.1 1.2-3.6 2.7l-.5 1.7c-.5 1.5.4 2.7 1.9 2.7z"/><defs><filter id="Adobe_OpacityMaskFilter_18_" filterUnits="userSpaceOnUse" x="341.7" y="332.4" width="86.2" height="48"><feColorMatrix values="1 0 0 0 0 0 1 0 0 0 0 0 1 0 0 0 0 0 1 0"/></filter></defs><mask maskUnits="userSpaceOnUse" x="341.7" y="332.4" width="86.2" height="48" id="SVGID_37_"><g style="filter:url(#Adobe_OpacityMaskFilter_18_)"><linearGradient id="SVGID_38_" gradientUnits="userSpaceOnUse" x1="-140.307" y1="554.877" x2="-59.288" y2="584.644" gradientTransform="translate(487.092 -212.394)"><stop offset="0" style="stop-color:#000"/><stop offset="1" style="stop-color:#fff"/></linearGradient><path style="fill:url(#SVGID_38_)" d="M341.7 332.4h86.2v48h-86.2z"/></g></mask><path d="M352.8 355c12.9 6.7 26.5 14.1 40.7 22.1 7.2 4.4 16.4 4.4 23.6 0 7.2-4.4 11.4-12.6 10.7-21-1.8 3.9-5.4 6.6-9.7 7.4-15.5 2.6-13.6-21.4-39.3-29.2-12.6-3.8-26.3-1.7-37.2 5.8 1.7 3.3 2.6 4.9 2.6 4.9 3.3 3.8 6.2 7.2 8.6 10z" style="mask:url(#SVGID_37_);fill-rule:evenodd;clip-rule:evenodd;fill:#ff5b24"/><path class="st70" d="M376.1 338.4c.1 0 .1.1.2.1l22.6 10.1c.7.3 1.5 0 1.8-.7.3-.7 0-1.5-.7-1.8l-22.5-10c-9-5.7-15.8-10-20.3-12.9l-6.7-4.3c-.6-.5-1.4-.4-1.9.2-.5.6-.4 1.4.2 1.9.1 0 2.4 1.5 7 4.4 4.5 3 11.3 7.3 20.3 13zM364.8 349.6l19.1 10.4c.7.4 1.5.1 1.8-.5.4-.7.1-1.5-.5-1.8l-19-10.4-19-16.7c-.6-.5-1.4-.4-1.9.1-.5.6-.4 1.4.1 1.9l19.1 16.8c.1.1.2.1.3.2zM407.3 349.1c-.6.1-1 .7-.8 1.3.1.6.7 1 1.3.8 1.9-.4 3.5-1.5 4.6-3.1 1.1-1.5 1.6-3.4 1.4-5.3-.1-.6-.6-1.1-1.2-1-.6.1-1.1.6-1 1.2.2 1.4-.2 2.7-1 3.8-.8 1.1-2 1.9-3.3 2.3zM403.8 359.5c1.2-1.4 1.8-3.3 1.7-5.3 0-.6-.6-1.1-1.2-1-.6 0-1.1.6-1 1.2.1 1.4-.4 2.7-1.2 3.7-.8 1-2 1.8-3.4 2-.6.1-1 .7-.9 1.3.1.6.7 1 1.3.9 1.9-.4 3.6-1.4 4.7-2.8zM391.8 369.6c1.5-1 2.7-2.6 3.2-4.5.1-.6-.2-1.2-.8-1.3-.6-.1-1.2.2-1.3.8-.3 1.4-1.2 2.5-2.2 3.2-1.1.7-2.4 1.1-3.8.9-.6-.1-1.2.3-1.3 1-.1.6.3 1.2 1 1.3 1.8.1 3.7-.3 5.2-1.4z"/><path class="st2" d="M380 148.9c0-.9-.7-1.7-1.7-1.7s-1.7.7-1.7 1.7c0 .9.7 1.7 1.7 1.7s1.7-.8 1.7-1.7zM369.9 124.4c0-.5-.4-.8-.8-.8-.5 0-.8.4-.8.8 0 .5.4.8.8.8s.8-.3.8-.8zM409.5 177.7c0-.5-.4-.8-.8-.8-.5 0-.8.4-.8.8 0 .5.4.8.8.8s.8-.4.8-.8zM208.1 192.7c0 .9.7 1.7 1.7 1.7.9 0 1.7-.7 1.7-1.7 0-.9-.7-1.7-1.7-1.7s-1.7.7-1.7 1.7zM242.8 240.7c0-.9-.7-1.7-1.7-1.7-.9 0-1.7.7-1.7 1.7 0 .9.7 1.7 1.7 1.7 1-.1 1.7-.8 1.7-1.7zM156.6 209.1c0 1.1.9 2.1 2.1 2.1 1.1 0 2.1-.9 2.1-2.1 0-1.1-.9-2.1-2.1-2.1-1.2 0-2.1.9-2.1 2.1zM125 269.6c0 .8.7 1.5 1.5 1.5s1.5-.7 1.5-1.5-.7-1.5-1.5-1.5-1.5.7-1.5 1.5zM329.8 269.2c0-1.1-.9-2.1-2.1-2.1-1.1 0-2.1.9-2.1 2.1 0 1.1.9 2.1 2.1 2.1 1.2 0 2.1-1 2.1-2.1zM308.5 373.2c0-1.1-.9-2.1-2.1-2.1s-2.1.9-2.1 2.1c0 1.1.9 2.1 2.1 2.1s2.1-.9 2.1-2.1zM217.3 395.5c0-1.2-1-2.2-2.2-2.2s-2.2 1-2.2 2.2c0 1.2 1 2.2 2.2 2.2s2.2-1 2.2-2.2zM453 397.7c0-.5-.4-.9-.9-.9s-.9.4-.9.9.4.9.9.9c.5-.1.9-.5.9-.9zM290.2 456.6c0-.5-.4-.9-.9-.9s-.9.4-.9.9.4.9.9.9.9-.4.9-.9zM244.2 117.9c0-1.3-1-2.3-2.3-2.3-1.3 0-2.3 1-2.3 2.3 0 1.3 1 2.3 2.3 2.3 1.3.1 2.3-1 2.3-2.3zM249.6 458c0-1.8-1.5-3.3-3.3-3.3-1.8 0-3.3 1.5-3.3 3.3 0 1.8 1.5 3.3 3.3 3.3 1.8 0 3.3-1.4 3.3-3.3zM508.8 259.5c0-.9-.7-1.7-1.7-1.7-.9 0-1.7.7-1.7 1.7 0 .9.7 1.7 1.7 1.7.9 0 1.7-.8 1.7-1.7z"/></svg>