<?xml version="1.0" encoding="utf-8"?>
<!-- Generator: Adobe Illustrator 25.2.0, SVG Export Plug-In . SVG Version: 6.00 Build 0)  -->
<svg version="1.1" id="_1" xmlns="http://www.w3.org/2000/svg" xmlns:xlink="http://www.w3.org/1999/xlink" x="0px" y="0px"
	 viewBox="0 0 5300 2300" style="enable-background:new 0 0 5300 2300;" xml:space="preserve">
<style type="text/css">
	.st0{fill:#E5D3C3;}
	.st1{fill:#A07B4A;}
	.st2{fill:#4E4059;}
	.st3{fill:#A3544A;}
	.st4{fill:#399986;}
	.st5{fill:#9AD4BA;}
	.st6{fill:#3DA894;}
	.st7{fill:#8342EA;}
	.st8{fill:#FFFFFF;}
	.st9{fill:#C48953;}
	.st10{fill:#377689;}
	.st11{fill:#5F2FBC;}
	.st12{fill:#FCF8EB;}
	.st13{fill:#39526B;}
	.st14{fill:#FFBE91;}
	.st15{fill:#994B45;}
	.st16{fill:#EA907E;}
	.st17{fill:#FFB94A;}
	.st18{fill:#DDC1A4;}
	.st19{fill:#7FD7E5;}
	.st20{fill:#442396;}
	.st21{fill:#3A9099;}
	.st22{fill:#B29072;}
	.st23{fill:#7F3633;}
	.st24{fill:#7F614A;}
	.st25{fill:#8F603F;}
	.st26{fill:#FFCBA1;}
	.st27{fill:#C99163;}
	.st28{fill:#F4B68C;}
	.st29{fill:#33726D;}
	.st30{fill:#EAD8B2;}
	.st31{fill:#FFD44D;}
	.st32{fill:#CEB591;}
	.st33{fill:#368B86;}
	.st34{fill:#D17F71;}
</style>
<g>
	<g>
		<g>
			
				<ellipse transform="matrix(2.583694e-02 -0.9997 0.9997 2.583694e-02 -1557.0074 2298.8296)" class="st0" cx="401" cy="1948.3" rx="40.7" ry="109.7"/>
		</g>
		<g>
			
				<ellipse transform="matrix(2.583694e-02 -0.9997 0.9997 2.583694e-02 2688.5256 6659.8101)" class="st0" cx="4761.3" cy="1950.5" rx="40.7" ry="109.7"/>
		</g>
		<g>
			<path class="st1" d="M260,1761.2l8.1,33.5l9.4,2.9l21,144.1c1.3,12.5,6.3,22.5,13.4,26.8c24.7,14.7,85.8,42.4,148.9,2.8
				c7.5-4.7,13.5-15.1,16-27.7l23.4-142.4l10.9-4.2l11.4-28.5L260,1761.2z"/>
		</g>
		<g>
			
				<ellipse transform="matrix(2.686627e-02 -0.9996 0.9996 2.686627e-02 -1383.481 2108.5906)" class="st2" cx="391.3" cy="1764.9" rx="24.2" ry="131.3"/>
		</g>
	</g>
	<path class="st0" d="M1826.1,1994.8c-26.9-36.2-90.1-29.9-131.5-30.6c-49.8-0.8-98.7-4-148.1-10.9
		c-109.4-15.3-219.8-22.1-329.4-35.3c31.2-9.8,4.1-33.3-12.9-39.3c-14.8-5.2-33.9-4.8-49.3-6.3c-66.5-6.5-133.4-9.9-200.2-11.6
		c-82.6-2.1-165.2,0.1-247.6,5.4c-39.5,2.6-88.5-0.6-126.9,10.8c-11.9,3.5-37.8,16.5-39.1,31c-2.2,23.6,51,22,69.3,22.6
		c42.2,1.6,83.3,7.2,125.3,11.4c88,8.9,175.4,10.8,263.1,20.6c72.5,8.1,144.8,32.2,216,48.5c18.1,4.1,120.8,14.4,89.3-24.3
		c100.5,11.8,202.4,12.1,303.5,13.3c48.1,0.6,97.1,0.8,144.8,6.1c15.6,1.8,33.9,4.6,49.2,4.2
		C1805.3,2010.3,1844.8,2019.8,1826.1,1994.8C1823.1,1990.8,1830.7,2000.9,1826.1,1994.8z M1796.7,1976.3c-0.2,0-0.4,0-0.6-0.1
		C1799,1975,1799.7,1976.8,1796.7,1976.3z M1198.6,1899.8c0.7,0.4,1.4,0.9,2.1,1.3c-0.7,0.1-1.5,0.2-2.2,0.3
		C1198.5,1900.9,1198.6,1900.4,1198.6,1899.8C1199.3,1900.2,1198.6,1900.4,1198.6,1899.8z"/>
	<path class="st0" d="M2247.7,1819.4c-11.1-24.6-66.5-23.9-88.2-27.7c-48.4-8.5-96-20.2-144.6-27.6c-19.8-3-39.7-6.2-59.7-7.8
		c-14.8-1.2-43.1,4.4-56.4-2.2c-13-6.5-20.9-21.6-38-27.5c-22-7.6-46.5-8-69.5-8.8c-106-3.9-212.6,1.3-318.8-0.8
		c-53.6-1.1-118-14.1-168.3,7.4c-16.1,6.9-55.6,26.5-44.2,47c10.7,19.2,78.8,12.2,98.7,13.8c61.4,4.9,119.8,15.3,182,10.9
		c73.1-5.2,140.9-16.8,213.9-6.2c51.8,7.5,98.8,31.9,150.1,41.4c44.9,8.3,90.8,14.5,136.3,17.7c40.4,2.8,81.8,3.7,122.1-0.4
		C2179,1847,2260.8,1848.4,2247.7,1819.4C2244.4,1812.1,2251,1826.7,2247.7,1819.4z M2129.3,1822.4c1.3-0.4,2.1-0.2,2.3,0.7
		c-0.7,0-1.4,0-2.1,0C2129.4,1822.8,2129.3,1822.6,2129.3,1822.4C2130,1822.6,2129.3,1822.6,2129.3,1822.4z M1868.8,1753.4
		c-0.4,0-0.7,0-1.1,0c0-0.2,0-0.5,0-0.7C1868.2,1752.9,1868.5,1753.2,1868.8,1753.4C1868.5,1753.4,1868.5,1753.2,1868.8,1753.4z"/>
	<path class="st0" d="M3066.9,1708.1c23-31.3-90.8-25-101.4-25.2c-41.5-0.8-100.5,1.2-139.4-15.9c-22.3-9.7-17-24.1-39.8-24.2
		c-8.5,0-16.2,7.6-24.5,8.4c-13.4,1.3-33.4-5.5-47.2-6.5c-33.4-2.6-67-3-100.4-3.4c-129.9-1.5-260-10.5-389.9-10.7
		c-31.5-0.1-67.8,1.4-95.6,18.4c-48,29.3,38.6,31.2,59.9,32.2c100.7,4.8,203.6,13.2,303.1,29.2c46.1,7.4,91.6,16.5,137.4,25.5
		c45,8.9,70.2,41.8,111.3,58.5c35.3,14.4,44.7-1.6,72.1-17.9c24.3-14.4,53.3-13.5,80.5-14.4c66.5-2.2,143.2,7.2,207.5-12.2
		C3193.2,1721.9,3066.8,1708.1,3066.9,1708.1C3074.9,1697.1,3063.1,1713.2,3066.9,1708.1z"/>
	<path class="st0" d="M3733.4,1830.6c-68.1-20.7-148.9-10-219.2-9c-69.4,0.9-138.8-0.5-208.3-1c-62.5-0.4-130.7-10.8-191.6,6
		c-29.5,8.2-71.9,27.7-17.3,35.6c41.1,5.9,83.8,2.7,125.2,6.3c-14.3,13.4-27.4,26.6-40.1,41.6c-8.6,10.1-34.6,30.7-39,43.2
		c-15.4,43.7,81.1,3.7,99.6-1.3c-5,6.7-16.5,6.2-7.5,17.4c6.2,7.7,31.9-0.5,40.3-1.9c16.8-2.9,31.9-8.1,48.5-13.2
		c44.5-13.7,90.9-24.5,136.4-34.2c60.4-12.9,122.6-37,183.7-42c23.6-1.9,45.7-3,67.8-11.4
		C3733.5,1858.4,3786.2,1846.6,3733.4,1830.6C3707.1,1822.6,3747.7,1834.9,3733.4,1830.6z M3726,1845.2c0.1-0.4,0.2-0.7,0.2-1.1
		c0.7,0.3,1.4,0.6,2.1,0.9C3727.5,1845.1,3726.8,1845.2,3726,1845.2C3726.1,1844.9,3726.8,1845.2,3726,1845.2z"/>
	<path class="st0" d="M4519,1967.8c-59.8-9-134.4-17.4-200.5-17.2c-69.9,0.2-110.7-9-187-6.7c-66,1.9-169.1-10.5-245.4-4.5
		c-16,1.3-34.4,20.2,6.7,25.4c27.8,3.5,20.8,19.9,41.1,15c-55.4,13.5-132,31-186.2,31.7c-31.6,0.4-63,1.4-94.4,2.8
		c-17.6,0.8-61.2-12.2-76.2,2.7c-44.6,44.3,87.6,38.8,103.3,37.3c62-5.7,122.8-12.8,184.9-15c124.6-4.5,247.6,11.1,372.5-9.6
		c69.5-11.5,139.5-12.6,208.5-27.5c28.6-6.2,62.8,3.4,90.2-6.2C4566.5,1985.4,4535,1970.2,4519,1967.8z M4522.5,1977.5
		c0.1-0.5,0.2-1.1,0.2-1.6c0.7,0.5,1.4,0.9,2.1,1.4C4524.1,1977.4,4523.3,1977.5,4522.5,1977.5
		C4522.7,1977,4523.3,1977.5,4522.5,1977.5z"/>
	<g>
		<g>
			<g>
				<g>
					<path class="st3" d="M4639.8,1769l8.6,33.5l9.9,2.9l22.4,144.1c1.4,12.5,6.7,22.5,14.2,26.8c26.1,14.8,90.6,42.5,157.2,3
						c7.9-4.7,14.2-15.1,16.8-27.6l24.5-142.3l11.5-4.2l11.9-28.5L4639.8,1769z"/>
				</g>
				<g>
					
						<ellipse transform="matrix(2.691206e-02 -0.9996 0.9996 2.691206e-02 2877.5085 6501.7734)" class="st2" cx="4778.3" cy="1772.9" rx="24.2" ry="138.6"/>
				</g>
			</g>
			<g>
				<g>
					<g>
						<g>
							<path class="st4" d="M4797.6,1766c0,0-43.9-366.3,12.4-461.4c56.3-95,153.5-173.3,252-157.9s54.5,126.2-31.2,205
								c-79.5,73.2-163,339.5-174.5,406.8c-1.2,7.1-7,12.6-14.1,13.5l-44.5,5.7L4797.6,1766z"/>
						</g>
					</g>
					<g>
						<g>
							<path class="st5" d="M4836.4,1611.9c-2.3,0-4.2-1.3-4.6-3.1c-0.5-2.9-12.9-70.4,0.2-117.2c7.1-25.3,13.3-36.8,19.3-47.8
								c5.1-9.3,9.9-18.2,14.9-35.2c3-10.2,4.1-21,5.2-32.5c2.8-29.4,6-62.6,45.8-91.1c26.1-18.7,44.3-37.1,58.9-51.9
								c15.6-15.9,27.9-28.4,43.2-34.8c27.3-11.5,44.8-27.6,45-27.8c1.7-1.5,4.6-1.7,6.5-0.4c2,1.3,2.2,3.6,0.5,5.1
								c-0.8,0.7-18.8,17.3-47.7,29.5c-13.5,5.7-25.3,17.7-40.2,32.9c-14.8,15.1-33.2,33.8-60,52.9c-37.1,26.5-40,56.9-42.8,86.2
								c-1.1,11.8-2.2,22.9-5.4,33.6c-5.2,17.6-10.2,26.7-15.4,36.4c-5.8,10.8-11.9,21.9-18.8,46.6c-12.7,45.4-0.2,113.9-0.1,114.5
								c0.4,2-1.4,3.8-3.9,4.1C4836.9,1611.9,4836.6,1611.9,4836.4,1611.9z"/>
						</g>
					</g>
				</g>
				<g>
					<g>
						<g>
							<path class="st6" d="M4803.1,1783l-13,1c-25.2,1.9-50.3-3.6-72.4-15.9l0,0c0,0-54.2-305.9-88.3-352s-106.3-28.1-132.4-128.3
								c-26.1-100.3-196.5-184.6-146.4-255.7c50.1-71.2,260.7-17.1,387,143.4C4864.1,1335.9,4803.1,1783,4803.1,1783z"/>
						</g>
					</g>
					<g>
						<g>
							<path class="st5" d="M4761.1,1739.4c-0.3,0-0.7,0-1.1-0.1c-2.5-0.6-4-3.1-3.5-5.6c0.2-0.9,20.7-89.5,19.8-132.4
								c-0.4-20.7-9.3-59.2-19.7-103.7c-11.3-48.9-24.2-104.2-30.2-154.3c-7.2-59.6-23.4-71.9-53-94.4c-17.1-13-38.5-29.2-64.5-59.1
								c-69.8-80.2-198.3-131-199.6-131.5c-2.4-0.9-3.6-3.6-2.6-6c0.9-2.4,3.6-3.6,6-2.6c1.3,0.5,132,52.2,203.3,134.1
								c25.4,29.2,46.3,45.1,63.1,57.8c30.5,23.2,48.9,37.1,56.6,100.6c6,49.6,18.8,104.7,30,153.3c10.4,45,19.5,83.9,19.9,105.6
								c0.9,44.1-19.2,131-20.1,134.7C4765.1,1737.9,4763.2,1739.4,4761.1,1739.4z"/>
						</g>
					</g>
				</g>
				<g>
					<path class="st4" d="M4618.1,1520c-56.6-47-168-80.8-180-40.7c-12.1,40.1,52.9,75.4,52.9,75.4s32.5,8.4,53.8,14.8
						c21.3,6.5,6.5,25.4,22.3,42.4c15.8,17,41.8,28.1,54.8,42.1c13,13.9,37.1,23.2,52,40.8c9.6,11.4,17.8,38.7,22.4,56.6
						c2.6,9.9,11.5,16.8,21.7,16.8h17.9C4735.9,1768.2,4674.7,1567,4618.1,1520z"/>
				</g>
			</g>
		</g>
		<g>
			<g>
				<g>
					<path class="st7" d="M2704.5,449.9l132,234.6c0,0,20.8-132.7,53.4-139.3c20.7-4.2,56.6,32.1,59.3,77.8
						c2.8,45.7,52.4,253.1-63.6,274.9c-116.1,21.8-239.5-312.4-228.6-367.1C2667.9,476.1,2704.5,449.9,2704.5,449.9z"/>
				</g>
				<g>
					<g>
						<path class="st2" d="M3155.6,1721.5c-0.5-1.4-1-2.4-1.6-3.2c-2-2.8-4.5-2.4-9.8-4.2c-6.7-2.3-25.5-10.3-35.2-17.3
							c-7.2-5.2-30.6-26.5-42.1-37.2c-4.9-4.5-11-7.6-17.6-8.8c-26.1-4.8-58.5,0.3-66.4,8.7c-6.1,6.5-9.1,26.1-10.5,38.2
							c-0.5,4.3-1.4,8.6-2.9,12.7c-0.4,1.1-0.8,2.2-1.3,3.3c-1.7,4-3.3,9.6-2,15.3c2.4,10.7,10.3,16.2,24.9,17.1
							c14.5,0.8,17.5-6.5,26.3-4.4c8.8,2.1,5.9,3.4,11.6,9.3c5.7,5.9,23.4,12.4,43.4,14.3s43-1.9,58.3-7.2
							c15.4-5.3,27.6-10.5,29.1-18.7C3161.3,1731.2,3157.9,1727.9,3155.6,1721.5z"/>
					</g>
					<g>
						<g>
							<path class="st8" d="M2972.3,1500.4c5.4,120.1,13.7,159.4,14.3,161.5c1.1,3.9-5.5,26.2-1.9,27.2c14.4,4,59.6-7,68.5-29.5
								c0,0-0.2-38.1,9.8-154.8C3042.6,1509.5,2990.8,1507.6,2972.3,1500.4z"/>
						</g>
					</g>
				</g>
				<g>
					<g>
						<path class="st2" d="M2847.1,1782.2c-0.1-1.5-0.3-2.6-0.6-3.5c-1.1-3.2-3.7-3.6-8.2-6.8c-5.8-4.1-21.5-17.2-28.8-26.6
							c-5.4-7-21.7-34.2-29.7-47.6c-3.4-5.8-8.4-10.4-14.3-13.5c-23.6-12.1-56.2-16.5-66.1-10.7c-7.7,4.5-16.2,22.4-21,33.6
							c-1.7,4-3.8,7.8-6.4,11.3c-0.7,1-1.4,1.9-2.2,2.8c-2.8,3.4-5.9,8.3-6.3,14.1c-0.8,11,5.3,18.5,18.9,23.5
							c13.7,5,18.6-1.3,26.5,3.3c7.9,4.5,4.7,4.9,8.4,12.2c3.8,7.3,18.8,18.6,37.5,26.1s41.7,10.5,57.9,9.8
							c16.2-0.7,29.5-2.2,33.2-9.6C2849.8,1793.1,2847.5,1788.9,2847.1,1782.2z"/>
					</g>
					<g>
						<g>
							<path class="st8" d="M2734.8,1517.9c-29.2,116.6-32.5,156.7-32.5,158.8c-0.1,4,0.5,7.9,3.6,9.9c12.7,8,45.9,25.9,60.8,7
								c0,0,10.7-36.6,53.6-145.5C2799.5,1546.7,2750.4,1530.1,2734.8,1517.9z"/>
						</g>
					</g>
				</g>
				<g>
					<g>
						<g>
							<polygon class="st9" points="2309.6,1198.4 2127.2,1704.6 2142.8,1712 2354.5,1207.6 							"/>
						</g>
						<g>
							<polygon class="st9" points="2383.8,1203 2272.4,1681.1 2288.8,1686.4 2429.5,1205.9 							"/>
						</g>
					</g>
					<g>
						<g>
							<polygon class="st9" points="2568.8,1233.1 2626.8,1720.6 2609.9,1724 2523,1230.9 							"/>
						</g>
						<g>
							<polygon class="st9" points="2650,1209.5 2783.7,1681.9 2767.5,1687.9 2604.5,1214.6 							"/>
						</g>
					</g>
				</g>
				<g>
					<path class="st10" d="M2778.6,1183.2c-12.6,36.6-48.4,73.8-104.3,86.7c-7.4,1.7-15.2,3-23.4,3.8
						c-105.2,10.3-334.9-6.6-402.5-139.9c-48.2-95.1-82.8-499.1,56.1-510.8c138.9-11.7,178.6,115.4,208.7,208.3
						c16.2,50,30.4,90,45.6,122.3c0.7,1.5,1.4,2.9,2,4.3c0.4,0.9,0.9,1.8,1.3,2.7c0.9,1.8,1.8,3.6,2.7,5.4c0.9,1.8,1.8,3.5,2.7,5.2
						c0.5,0.9,0.9,1.7,1.4,2.5c0.4,0.8,0.9,1.7,1.4,2.5c0.5,0.8,0.9,1.7,1.4,2.5c0.4,0.7,0.8,1.5,1.2,2.2c3,5.2,6,10.1,9.1,14.9
						c0.4,0.5,0.7,1.1,1.1,1.6c1,1.5,2.1,3.1,3.1,4.6c0.4,0.6,0.9,1.3,1.3,1.9c0.6,0.8,1.2,1.6,1.8,2.5c0.4,0.6,0.8,1.1,1.3,1.7
						c3.6,4.8,7.2,9.3,11.1,13.5c42.8,48,133,30.2,174.7,103.1c0.2,0.4,0.5,0.9,0.7,1.3C2785.5,1141.8,2785.8,1162.4,2778.6,1183.2z
						"/>
				</g>
				<g>
					<path class="st11" d="M2861.5,897.5c-8.2-14.3-28.7-50.8-39.2-74.7c-13.3-30.3-52.9-130.7-52.9-130.7
						c-3.5,10.4-7.7,65.5-8.4,116C2791.7,854.6,2826.5,890.2,2861.5,897.5z"/>
				</g>
				<g>
					<path class="st12" d="M2692.7,935.9c0,0,301.2,50.7,370.2,101.8c38.2,28.3,40.1,83.2,50.6,221.7c1.9,25.6-6.3,67.4-5.4,94.3
						c1.1,31.2,11.3,47.6,11.2,79.6c-0.3,64.8-3.1,130-8.6,191c-1.4,15.5-152.5,20.7-162.7,16.8c-7.2-2.8,12-420.9-27.7-454.6
						c0,0-199.7,33-344.9-72.8C2479.7,1043.9,2692.7,935.9,2692.7,935.9z"/>
				</g>
				<g>
					<path class="st13" d="M2778.6,1183.2c-12.6,36.6-48.4,73.8-104.3,86.7c-4-14.5-13.8-28.1-34.4-38.2
						c-32.2-15.8-170.7-36.8-210.3-55.6c-39.6-18.8-65.9-63.8-62.8-103.9c3.1-40.2-34.7-168.3-33.7-220.4
						c-26.7-183.1,74.7-173.7,74.7-173.7s65.7,216.1,99.1,245.4c7.6,6.7,26.5,17.1,51.6,29.5c0.8,1.7,1.6,3.4,2.4,5.1
						c0.4,0.9,0.9,1.8,1.3,2.7c0.9,1.8,1.8,3.6,2.7,5.4c0.9,1.8,1.8,3.5,2.7,5.2c0.4,0.9,0.9,1.7,1.4,2.5c0.4,0.8,0.9,1.7,1.4,2.5
						c0.4,0.8,0.9,1.7,1.4,2.5c0.4,0.7,0.8,1.5,1.2,2.2c3,5.2,6,10.1,9.1,14.9c0.3,0.5,0.7,1.1,1.1,1.6c1,1.5,2.1,3.1,3.1,4.6
						c0.4,0.6,0.9,1.3,1.3,1.9c0.6,0.8,1.2,1.6,1.8,2.5c0.4,0.6,0.8,1.1,1.3,1.7c3.6,4.8,7.2,9.3,11.1,13.5
						c42.8,48,133,30.2,174.7,103.1c0.2,0.4,0.5,0.9,0.7,1.3C2783.5,1138.8,2783.7,1159.6,2778.6,1183.2z"/>
				</g>
				<g>
					<path class="st12" d="M2507.1,941.9c0,0,140.7,41.4,270.4,91.2c58.1,22.3,102.8,49.3,124.2,65.1c43.6,32.3,0.7,236.2-33,393.1
						c-20.3,94.8-29.7,157.7-33.7,179.6c-3.2,17.9-129.1-2.7-156.3-13.3c-6.3-2.5,66.6-435.6,66.6-435.6s-45.2-12.5-94.9-18.5
						c-57.5-6.8-116.8-20.9-168.2-58.3C2386.6,1075.5,2507.1,941.9,2507.1,941.9z"/>
				</g>
				<g>
					<path class="st7" d="M2587.4,418.6c-36.9,3.8-80.7,19.6-132.1,67.6c-70.8,66.2-82.4,145.4-75,256c1.2,18.1,11.2,42.1,13.2,59.7
						c2.5,22.3-2.6,37.8,0.7,58.2c5.1,31.2,16.3,55.5,21.5,78.5c4.5,20-2.9,128.8,18.1,174.9c7.8,17,221.9-115,221.9-115
						s176.1-24.9,166.3-60.6c-5.5-20.2-21.9-57.2-26.9-80.9c-2.6-12.6-12.9-29.5-14.8-41.9c-2.5-16.1-4.1-31.8-4.6-45.9
						c-2.5-81.2,17.1-219.5-12.8-270.1C2741.3,462.7,2686.5,408.3,2587.4,418.6z"/>
				</g>
				<g>
					<path class="st8" d="M2594.7,422.7c-11.5-1.9-42.4-3.2-57.2,10c-18.5,16.6,127.9,337.9,141.2,349.2
						C2692,793.2,2642.9,430.6,2594.7,422.7z"/>
				</g>
				<g>
					<path class="st14" d="M2533.6,355.1c0,0,2.3,22.7,2.7,44.4c0.3,17-6.5,36.9-1.8,41.8c4.4,4.6,56.2,20.4,63,14.1
						c6.8-6.3-12-79-12-79L2533.6,355.1z"/>
				</g>
				<g>
					<path class="st14" d="M2572.9,266.8c-20.4,2.9-36,19.7-37.6,40.2c-2.3,30.5-0.1,59.1,5.1,67.9c11.1,18.7,61.4,30.4,82.3,22.6
						c12.5-4.7,14.6-17.6,15.1-38.2c0.3-13.7-2.2-24.9-2.4-30.7c-0.4-14.5,3.5-62.9-24.1-63.9C2599.5,264.3,2585.6,265,2572.9,266.8
						z"/>
				</g>
				<g>
					<path class="st15" d="M2588.1,280.5c0,0-24.9,4-33.5,12.7c-6.9,7-1.5,35.8-7.2,43.3c-5.7,7.5-22,7.9-27.5,3.5
						c-13.9-11.1-13.4-44.7-12.6-52.9c2.9-28.7,13.9-31.8,30.4-37.1C2554.1,244.6,2598,266.8,2588.1,280.5z"/>
				</g>
				<g>
					<path class="st15" d="M2541.5,337.8c2.7,0.1,8.5-22.5,8.9-19.7c0,9.5,0.1,23,0.9,26.2c1.6,6.4,12.7,10.1,23.4,10.9
						c10.6,0.8,23.1-10.8,40.7-10.7c12.1,0.1,18.9,1.8,22.1,2.9c0.3,3.6,3.8,16.2,3.7,20.4c-0.5,20.5-4,30.1-16.6,34.8
						c-18.2,6.8-68.6,2.6-80.8-21.7C2539.5,372.2,2546.4,359.8,2541.5,337.8z"/>
				</g>
				<g>
					<path class="st11" d="M2852.5,835.1c-0.9,0-1.9-0.5-2.4-1.4c-32-55.9-17.3-134.1-16.6-137.4c0.3-1.5,1.7-2.4,3.2-2.1
						c1.5,0.3,2.4,1.7,2.1,3.2c-0.2,0.8-14.9,79.5,16,133.6c0.7,1.3,0.3,3-1,3.7C2853.4,834.9,2852.9,835.1,2852.5,835.1z"/>
				</g>
				<g>
					<path class="st8" d="M2596.5,356.4c0,0,19.5-2.1,32.8-2.4c0,0,1,14.6-11.7,15.6C2605.5,370.5,2596.5,356.4,2596.5,356.4z"/>
				</g>
				<g>
					<g>
						<path class="st2" d="M2577.6,319.9c-0.5,0-0.9-0.3-1-0.8c-0.2-0.6,0.2-1.2,0.7-1.3c0.3-0.1,6.5-1.9,11-1.8
							c4.3,0.1,6.5,0.5,6.6,0.5c0.6,0.1,1,0.7,0.9,1.3s-0.7,1-1.3,0.9c0,0-2.1-0.4-6.2-0.4c-4.1-0.1-10.2,1.7-10.3,1.8
							C2577.8,319.9,2577.7,319.9,2577.6,319.9z"/>
					</g>
					<g>
						<path class="st2" d="M2619.9,317.3c-0.5,0-1-0.4-1.1-0.9c-0.1-0.6,0.3-1.1,0.9-1.2c0.3,0,7.6-1.2,12.9-0.6
							c0.6,0.1,1,0.6,1,1.2c-0.1,0.6-0.6,1-1.2,1c-5-0.5-12.3,0.6-12.3,0.6C2620,317.3,2619.9,317.3,2619.9,317.3z"/>
					</g>
					<g>
						<path class="st2" d="M2588.2,317c3.8,0,6.6,3.4,5.8,7.1c-0.4,2.3-1.7,4.5-4.6,4.8c-6.6,0.7-7.7-8.6-7-9.8
							C2583,318.3,2585.2,317,2588.2,317z"/>
					</g>
					<g>
						<path class="st2" d="M2623.8,316.5c3.4-2.6,8.1,0.3,7.8,4.5c-0.2,2.7-1,5.7-3.7,6.2c-4.9,0.8-5.6-8.5-5-9.7
							C2623.1,317.1,2623.4,316.8,2623.8,316.5z"/>
					</g>
				</g>
				<g>
					<path class="st2" d="M2574.4,307.9c-0.5,0-0.9-0.3-1-0.8c-0.2-0.6,0.1-1.2,0.7-1.4c12.5-4.1,24.2-3.7,24.7-3.7
						c0.6,0,1.1,0.5,1,1.1c0,0.6-0.5,1.1-1.1,1.1c-0.1,0-11.8-0.3-24,3.6C2574.6,307.9,2574.5,307.9,2574.4,307.9z"/>
				</g>
				<g>
					<path class="st2" d="M2633.3,303.9c0,0-0.1,0-0.1,0l-13.8-1.3c-0.6-0.1-1-0.6-1-1.2c0.1-0.6,0.6-1,1.2-1l13.8,1.3
						c0.6,0.1,1,0.6,1,1.2C2634.3,303.5,2633.8,303.9,2633.3,303.9z"/>
				</g>
				<g>
					<path class="st11" d="M2661.5,808.5c0,0,23.8,101.2-8.5,146.9c-32.3,45.7-92.1,78.3-145.3,77.7
						c-53.2-0.5-95.1-154.7-96.9-196.8c-1.9-42.1,73.1,57.3,113.2,56.2C2564.2,891.4,2638.2,853.1,2661.5,808.5z"/>
				</g>
				<g>
					<g>
						<path class="st2" d="M2530.5,327.1c-0.5,0-1-0.4-1.1-1c-0.1-0.6,0.4-1.1,1-1.2l42.7-4.8c0.6-0.1,1.1,0.4,1.2,1
							c0.1,0.6-0.4,1.1-1,1.2l-42.7,4.8C2530.6,327.1,2530.6,327.1,2530.5,327.1z"/>
					</g>
					<g>
						<g>
							<path class="st2" d="M2584,348.4c-4.2,0-8.1-1.4-11-4c-3.4-3-5.1-7.4-4.9-12.2c0.5-10.3,9.6-20,20.3-21.6
								c5.4-0.8,10.6,0.5,14.1,3.7c3.4,3,5.1,7.4,4.9,12.2l0,0c-0.5,10.3-9.6,20-20.3,21.6C2586,348.3,2585,348.4,2584,348.4z
								 M2591.6,312.5c-0.9,0-1.9,0.1-2.9,0.2c-9.8,1.5-18,10.3-18.4,19.6c-0.2,4.2,1.3,7.9,4.2,10.5c3.1,2.8,7.5,3.9,12.4,3.2
								c9.8-1.5,18-10.3,18.4-19.6l0,0c0.2-4.2-1.3-7.9-4.2-10.5C2598.5,313.7,2595.2,312.5,2591.6,312.5z M2606.3,326.5
								L2606.3,326.5L2606.3,326.5z"/>
						</g>
						<g>
							<path class="st2" d="M2632.6,341.3c-3,0-5.8-1.1-8.1-3.1c-3.5-3.1-5.3-8.1-5.2-13.7c0.3-10.2,7.5-19.6,15.9-20.8
								c3.7-0.5,7.2,0.5,9.9,3c3.5,3.1,5.3,8.1,5.2,13.7c-0.3,10.2-7.5,19.6-15.9,20.8C2633.8,341.3,2633.2,341.3,2632.6,341.3z
								 M2637.1,305.7c-0.5,0-1,0-1.5,0.1c-7.4,1.1-13.8,9.4-14.1,18.7c-0.2,5,1.5,9.4,4.4,12.1c2.3,2,5.1,2.9,8.1,2.4
								c7.4-1.1,13.8-9.4,14.1-18.7l0,0c0.2-5-1.5-9.4-4.4-12.1C2641.8,306.6,2639.6,305.7,2637.1,305.7z"/>
						</g>
						<g>
							<path class="st2" d="M2606.3,326.3c-0.3,0-0.5-0.1-0.7-0.3c-0.4-0.4-0.5-1.1-0.1-1.5c0.1-0.1,7-7.4,15.4-2.4
								c0.5,0.3,0.7,1,0.4,1.5c-0.3,0.5-1,0.7-1.5,0.4c-7-4.1-12.5,1.7-12.7,2C2606.9,326.2,2606.6,326.3,2606.3,326.3z"/>
						</g>
					</g>
				</g>
				<g>
					<g>
						<path class="st14" d="M2539,331.1c-2.3-3.8-6-6.6-10.4-7.5c-4.4-0.9-9.6,0-12.2,8c-4.7,14.6,17.9,35.6,25.7,27.7
							c0.8-0.8,1.2-1.8,1.3-2.9C2544.5,345.5,2542.5,336.8,2539,331.1z"/>
					</g>
					<g>
						<path class="st16" d="M2537.3,354.4c-0.1,0-0.2,0-0.3,0c-0.6-0.2-0.9-0.8-0.7-1.4c0,0,1.2-4-0.7-5.2c-1-0.6-2.5-0.4-3.9-0.2
							c-1.9,0.3-4,0.6-5.4-1c-1.8-2.1-4.4-6.9-4.1-11.5c0.2-4.8,4.1-6.1,4.2-6.2c0.6-0.2,1.2,0.1,1.4,0.7c0.2,0.6-0.1,1.2-0.7,1.4
							c-0.1,0-2.6,1-2.8,4.2c-0.2,4,2.1,8.2,3.6,10c0.6,0.7,2,0.5,3.4,0.3c1.7-0.2,3.7-0.5,5.3,0.5c3.4,2,1.8,7.4,1.7,7.7
							C2538.2,354.1,2537.8,354.4,2537.3,354.4z"/>
					</g>
				</g>
				<g>
					<path class="st16" d="M2609.7,327c0.2-1.1,1.5-1.4,2.2-0.5c1.9,2.3,5.4,6.1,11,9.4c8.2,4.8,7.8,10.3-2.9,9.6
						c-10.7-0.7-11.6-1.5-11.7-7C2608.2,335.5,2609.1,330.3,2609.7,327z"/>
				</g>
				<g>
					<path class="st14" d="M2714.5,628.7c4.9-6.4,13.3-13,15.6-17.9c-0.4,0-5.2-1-5.5-1.3c-4.8-4.6,8.7-31,1-34
						c-4.1-1.6-9,14.3-15.7,28.7c-4.2,8.9-11.1,16.7-13.3,23.7c-1.1,3.4,3.1,5.3,1.8,11.5c-0.6,2.6,2.6,4.3,4.5,2.4
						C2707,637.6,2711.4,632.8,2714.5,628.7z"/>
				</g>
				<g>
					<g>
						<polygon class="st2" points="2883.3,705.7 2678.9,734.1 2791,450.9 2995.4,422.5 						"/>
					</g>
					<g>
						<path class="st17" d="M2844.4,456.8l5.9-8.7c7.3-10.8,19.4-18.8,31.2-20.4l14.3-2c0,0,11.7-13,21.4-14.4s9.4,11.8,9.4,11.8
							l11.5-1.6c8.2-1.1,12.5,5.4,8.8,13.2l-4.1,8.4L2844.4,456.8z"/>
					</g>
				</g>
				<g>
					<path class="st7" d="M2474.2,502.6l72.1,302.5c0,0,109.1-179.6,142.4-178.3c21.2,0.8,72.7,26,63,74.3
						c-9.7,48.3-121.9,301.6-240.2,295.1c-118.2-6.6-130.6-367.2-105.3-421.4C2431.6,520.6,2474.2,502.6,2474.2,502.6z"/>
				</g>
				<g>
					<path class="st14" d="M2733.4,603.7c-12.8,12-29.6,12-41.1,29.6c-2,5.1,15,39.2,27.2,34.8c17.2-6.2,32.8-16.7,39.7-22.6
						c6.9-5.8,40.9-27,35.9-30.7c-5-3.7-24.3,16-25.5,13.6c-1.2-2.3,32.2-35,29-40.1c-2.8-4.4-32.5,30.2-33.4,27.6
						s33-38.8,29.2-42.6c-3.8-3.8-39.1,36.3-41.1,34.2c-2-2.1,31.5-33.8,25.7-37.6C2774.4,566.8,2745.1,592.6,2733.4,603.7z"/>
				</g>
				<g>
					<path class="st15" d="M2569.4,280.2c0,0,25.1,6.4,39.3,6.9c14.1,0.4,23.8-11,25.1-13.5c1.3-2.5,6.9-24-16-33.3
						c-22.9-9.2-9.8-13.2-37.3-13.5c-27.5-0.3-80.1,12.5-58.2,32.4C2544.1,279.1,2569.4,280.2,2569.4,280.2z"/>
				</g>
				<g>
					<path class="st11" d="M2494.9,887.8c0,0-0.1,0-0.1,0c-1.5-0.1-2.7-1.3-2.6-2.8c1.9-51.6,50.6-81,52.7-82.2
						c1.1-0.6,2.5-0.5,3.4,0.5c0.9,0.9,1,2.3,0.3,3.4c-0.2,0.3-20.2,30.5-21.6,54c-0.1,1.5-1.4,2.6-2.9,2.6
						c-1.5-0.1-2.6-1.4-2.6-2.9c0.9-15.9,9.4-33.9,15.7-45.3c-14.3,11.6-38.3,36-39.5,70.2C2497.5,886.6,2496.3,887.8,2494.9,887.8z
						"/>
				</g>
				<path class="st11" d="M2606.1,713.8c-1.2-0.8-2.9-0.5-3.8,0.7c-0.2,0.3-17.4,25.4-22.8,33.5c-1,1.5-2.8,4.2-5,7.7
					c-6.2,9.5-20.9,32.2-27.4,40.6c-0.3-1.8-0.8-4.1-1.3-6.7c-5-26.4-18.3-96.6-27.5-131.7c-2.1-8-4.2-16.1-6.3-23.8
					c0.5-0.5,0.9-1.2,0.9-2.1c0-1.7,2.8-3.8,3.7-5.1c1.8-2.4,3.5-5,5.4-7.3c3.4-4.1,7.1-7.9,10.3-12.2c2.3-3.1-2.9-6.1-5.2-3
					c-3.9,5.2-8.7,9.7-12.5,14.9c-1.4,1.9-3.4,3.9-5,6.1c-7.9-29.8-14.3-53.5-14.5-54c-0.4-1.4-1.9-2.3-3.4-1.9
					c-1.4,0.4-2.3,1.9-1.9,3.4c0.2,0.7,11.8,43.6,23,86.5c9.1,35,22.4,105,27.4,131.4c1.4,7.5,2,10.8,2.2,11.5
					c0.3,1.2,1.2,2,2.4,2.2c0.3,0,0.5,0.1,0.7,0.1c2.4,0,6-3.8,33.2-45.8c2.2-3.5,4-6.2,5-7.6c5.4-8,22.6-33.1,22.8-33.4
					C2607.7,716.3,2607.3,714.6,2606.1,713.8z"/>
			</g>
			<g>
				<path class="st18" d="M2920.3,1189.8C2920.3,1189.8,2920.3,1189.8,2920.3,1189.8c-1.9,0-3.3-1.5-3.3-3.3c0-0.6,1.2-60-4.4-77.4
					c-5.2-16.3-32-32.7-73.5-44.8c-41.4-12.1-135.9-54.9-136.8-55.4c-1.6-0.7-2.4-2.7-1.6-4.3c0.7-1.6,2.7-2.4,4.3-1.6
					c0.9,0.4,95,43,136,55c44.2,12.9,71.9,30.4,77.9,49.1c5.9,18.4,4.7,77,4.7,79.5C2923.6,1188.4,2922.1,1189.8,2920.3,1189.8z"/>
			</g>
			<g>
				<path class="st18" d="M2750.3,1029.6c-1.2,0-2.4-0.7-2.9-1.9l-15-31.8c-0.8-1.6-0.1-3.6,1.6-4.3c1.6-0.8,3.6-0.1,4.3,1.6
					l15,31.8c0.8,1.6,0.1,3.6-1.6,4.3C2751.2,1029.5,2750.7,1029.6,2750.3,1029.6z"/>
			</g>
			<g>
				<path class="st18" d="M2779.2,1240c-0.8,0-1.5-0.3-2.1-0.8c-15.7-13.7-31.4-13.9-31.6-13.9c-1.8,0-3.3-1.5-3.3-3.3
					c0-1.8,1.5-3.3,3.3-3.3c0.7,0,18.3,0.2,35.9,15.5c1.4,1.2,1.5,3.2,0.3,4.6C2781,1239.6,2780.1,1240,2779.2,1240z"/>
			</g>
		</g>
		<g>
			<g>
				<g>
					<path class="st14" d="M2115.2,1777c5.9,3.6,6,14.3,16.4,17.7s-7.9-23.9,18.1-34.5c2.9-1.2,5.3,0.4,8.3,0
						c-7.3-7.3-1.4-34.2-2.2-42.4c-0.8-8.6-30.7-10-42.9,2.9c-12.2,13-6,45.3-9.9,53.8c-0.1,0.3-0.2,0.5-0.4,0.8
						C2106.4,1774.9,2111.7,1775,2115.2,1777z"/>
				</g>
				<g>
					<path class="st2" d="M2094.6,1818.6c0-8.4,0.9-18.4,3.7-26.8c0,0,2-9.4,4.3-17.7c3.9-0.3,9.2-0.3,13,1.8
						c6.6,3.6,2.5,9.2,13.6,12.5c11.1,3.4-6-18.7,18.4-29.3c2.8-1.2,5.6-2,8.5-2.4c0.3,0.3,0.6,0.5,1,0.7
						c9.6,6.2,38.7,23.2,49.5,28.2c9,4.2,18.8,9.4,23.4,11.2c0.9,0.3,1.6,0.6,2.1,0.6c2.9,0.3,22.4-2.1,27.2,2
						c4.7,4.1,4.2,15.9,1.2,20.3c-2.9,4.4-9.7,18.4-56.2,20c-18,0.6-105-3.5-107.2-4C2095.8,1835.4,2094.6,1828.1,2094.6,1818.6z"/>
				</g>
			</g>
			<g>
				<path class="st19" d="M1907.5,1054.8c0,0,231.3-0.8,278.5,40.3c52.7,46-17.7,636.1-17.7,636.1s-9.3,11.9-39.1,11.6
					c-46.4-0.5-54.6-11.6-54.6-11.6l-20.3-520.3c0,0-294.3-24.4-383.3-69c-89-44.5,50.4-102.1,50.4-102.1L1907.5,1054.8z"/>
			</g>
			<g>
				<path class="st14" d="M2021.4,693c0,0,141.2,281.4,148.7,336.5c7.5,55.1-50.5,63.3-110.4,34.7
					c-59.8-28.6-107.1-280.5-107.1-280.5L2021.4,693z"/>
			</g>
			<g>
				<g>
					<path class="st12" d="M2021.4,693l-82,86.3c0,0,28,83.4,51.6,157.9c24.5-3,92.5-13.8,125.9-44.6
						C2074.2,798.2,2021.4,693,2021.4,693z"/>
				</g>
			</g>
			<g>
				<path class="st18" d="M1983.3,913c6.3-8.8,13.2-22.4,21.8-41.4c10.7-23.6,6.9-38.8,7.8-58.6c12.1-16.4,30-27.9,30-27.9
					l-35.7-4.3l-49.5,53.3C1965.2,857.1,1974.3,885,1983.3,913z"/>
			</g>
			<g>
				<g>
					<path class="st2" d="M1954.4,824.2c25.6-11.5,64-32.7,98.4-67.5c-1.6-3.2-3.1-6.3-4.6-9.3c-33.4,34.5-71.6,55.8-97,67.4
						C1952.3,817.8,1953.3,820.9,1954.4,824.2z"/>
				</g>
				<g>
					<path class="st2" d="M2086.6,827.2c-1.5-3.2-3-6.3-4.5-9.5c-37.3,39.1-81,61.6-106.2,72.3c1,3.1,2,6.3,3,9.4
						C2004.3,888.9,2048.1,866.7,2086.6,827.2z"/>
				</g>
			</g>
			<g>
				<g>
					<g>
						<g>
							<polygon class="st9" points="1426.4,1265.5 1244,1771.6 1259.6,1779.1 1471.3,1274.6 							"/>
						</g>
					</g>
					<g>
						<g>
							<polygon class="st9" points="1685.6,1300.1 1743.6,1787.6 1726.7,1791 1639.8,1298 							"/>
						</g>
						<g>
							<polygon class="st9" points="1766.8,1276.6 1900.5,1749 1884.3,1755 1721.2,1281.7 							"/>
						</g>
					</g>
				</g>
				<g>
					<path class="st11" d="M1718.4,1088.7c-34.9-39.2-58.3-97.4-88.4-190.3s-69.8-220-208.7-208.3
						c-138.9,11.7-104.3,415.8-56.1,510.8c67.6,133.3,297.3,150.1,402.5,139.9c105.2-10.3,152.1-102.4,125.5-149
						C1851.4,1119,1761.2,1136.8,1718.4,1088.7z"/>
				</g>
				<g>
					<path class="st20" d="M1893.1,1191.8c-41.7-72.9-131.9-55.1-174.7-103.1c-16.3-18.2-30-40.6-43.1-68.7
						c-25.1-12.4,42.6-13.3,35-20c-33.4-29.3-32.7,24.4-68.7-71.4c-36-95.9-250.1-93.4-165,219.6c10.7,39.3,90,81.4,130.7,97.7
						c91.1,36.6,191,23.1,198.1,87.1C1883.7,1307.6,1916.3,1232.4,1893.1,1191.8z"/>
				</g>
			</g>
			<g>
				<g>
					<path class="st14" d="M1817.4,1764.7c3.8,5.8-3.2,8.7,4.7,16.3c7.9,7.6,5.7-18.2,33.7-16.4c3.2,0.2,6.2,0.8,9,1.7
						c-3.4-9.7,6.5-33.8,9.3-41.5c3-8.1-27.1-24.8-43.7-18.5c-16.6,6.3-15.8,44.8-23,50.8c-0.2,0.2-0.4,0.4-0.7,0.6
						C1810.4,1759,1815.2,1761.4,1817.4,1764.7z"/>
				</g>
				<g>
					<path class="st2" d="M1777.9,1792.9c3.5-9.5,7.2-16.6,14.6-22.4c0,0,7.3-7,14.3-12.9c3.7,1.4,8.4,3.7,10.6,7.1
						c3.8,5.8-3.2,8.7,4.7,16.3c7.9,7.6,5.7-18.2,33.7-16.4c3.2,0.2,6.2,0.8,9,1.7c0.1,0.4,0.3,0.7,0.4,1
						c4.9,9.3,20.9,36.1,27.6,44.9c5.6,7.4,36.4,6.8,39.2,11.9c7.7,13.8-3.9,23.1-11.1,27.5c-4.9,3-29.4,11.7-73.9-2
						c-30.4-9.3-66.1-35-68-36.1C1772.5,1809.7,1774.5,1801.9,1777.9,1792.9z"/>
				</g>
			</g>
			<g>
				<path class="st19" d="M1479.4,1025.1c-25.1,84.7-3.3,145.4,107.2,185.8c96.2,35.2,306.2,59.1,306.2,59.1l-36.7,150.8l-47,305.1
					c0,0,24.8,21,35,23.6c34,8.7,51.5,3.8,51.5,3.8s226.8-481.2,173.1-569.7c-38.9-64-276.8-119.1-276.8-119.1
					S1607.8,1053.7,1479.4,1025.1z"/>
				<g>
					<path class="st10" d="M2058.1,1336.3c-0.3,0-0.6,0-0.8-0.1c-1.7-0.5-2.8-2.2-2.3-4c0.1-0.2,5.4-20.5,15.6-69.5
						c10.5-50.6,10.3-71.3-33.7-104.8c-44.8-34.2-172.2-68.1-173.1-68.3c-1.7-0.5-2.8-2.3-2.3-4c0.5-1.7,2.3-2.8,4-2.3
						c3.8,1,129.5,34.5,175.3,69.4c46.5,35.5,46.8,59.9,36.1,111.3c-10.2,49.3-15.6,69.7-15.6,69.9
						C2060.8,1335.4,2059.5,1336.3,2058.1,1336.3z"/>
				</g>
				<path class="st10" d="M1910.1,1235.8c-5.2,8.7-11.8,16.6-16,25.9c-4.1,8.9-7.2,19.7-8.3,29.4c-0.4,3.2,4.6,3.2,5,0
					c0.6-5.2,2.4-10.3,3.8-15.2c1.5-5,2.9-9.9,5.3-14.6c4.2-8,9.9-15.2,14.6-22.9C1916,1235.5,1911.7,1233,1910.1,1235.8z"/>
				<g>
					<path class="st10" d="M1831.8,1722.2c-0.1,0-0.1,0-0.2,0c-0.9-0.1-1.5-0.9-1.4-1.8c0.1-0.6,1.9-14.9,8.4-32.2
						c6.5-17.4,35.6-139.6,38.1-158c2-14.6,13-75.5,21-119.9c2.3-12.7,4.3-23.8,5.8-32c6.4-36,18.6-95.9,18.7-96.5
						c0.2-0.9,1-1.5,1.9-1.3c0.9,0.2,1.5,1,1.3,1.9c-0.1,0.6-12.2,60.4-18.7,96.4c-1.5,8.2-3.5,19.4-5.8,32
						c-8,44.4-19,105.2-21,119.8c-2.5,18.5-31.7,141.3-38.3,158.7c-6.4,17-8.2,31.3-8.2,31.5
						C1833.3,1721.6,1832.6,1722.2,1831.8,1722.2z"/>
				</g>
			</g>
			<g>
				<path class="st10" d="M1893.5,1242.1c-0.1,0-0.3,0-0.4,0c-0.6-0.1-40.2-10-101.4-23.9c-11.3-2.6-24.6-5.3-38.7-8.2
					c-63.1-12.9-149.5-30.6-191.8-63.1c-20.7-15.9-28.4-26.6-29.5-41.6c-0.9-13.2,11.6-53.1,11.9-53.4c0.6-0.6,1.7-0.7,2.3,0
					c0.6,0.6,0.7,1.7,0,2.3l0,0c-0.1,0.1-11.8,39.3-11,51c1,13.9,8.5,24.1,28.2,39.2c41.7,32,127.7,49.6,190.5,62.5
					c14.1,2.9,27.4,5.6,38.8,8.2c61.2,14,100.9,23.8,101.4,23.9c0.9,0.2,1.4,1.1,1.2,2C1894.9,1241.6,1894.3,1242.1,1893.5,1242.1z"
					/>
			</g>
			<g>
				<path class="st12" d="M1873.4,627.3c-190,27.7-388.5,328.3-403.8,402.2c132.7,74.9,354.4,30,354.4,30s65.4-70.2,173.5-233.5
					C2047.5,750.6,2050.8,601.4,1873.4,627.3z"/>
			</g>
			<g>
				<g>
					<path class="st2" d="M1864.9,1010.7c-41.1,8.4-94.2,15.2-154.4,13.9c-73.8-1.6-132-17.3-167.8-30.2
						c-22.5-8.1-39.3-16.2-49.4-21.6c-1.6,3-3.1,5.9-4.5,8.7c10.4,5.5,27.3,13.6,50.2,21.9c36.5,13.2,95.9,29.3,171.2,31
						c5.1,0.1,10.1,0.2,15.1,0.2c49.5,0,93.8-5.3,130.1-12.1C1858.4,1018.8,1861.5,1014.9,1864.9,1010.7z"/>
				</g>
				<g>
					<path class="st2" d="M1886.9,941.9c-43.7,8.9-109.2,16.6-172.6,2.7c-94.3-20.6-142.1-55-158.9-69.5c-2,2.7-3.9,5.4-5.8,8
						c18.3,15.8,66.9,50.2,162.6,71c25.8,5.6,51.9,7.8,76.7,7.8c38,0,73.1-5,100.1-10.5c9-1.8,17.5-3.8,25.3-5.7c3-4,6-8.2,9.1-12.5
						C1912.7,936.1,1900.4,939.2,1886.9,941.9z"/>
				</g>
				<g>
					<path class="st2" d="M1852.6,881.9c-79.9-19.4-132.8-57.4-163.2-85.9c-15.3-14.4-26.5-27.8-34.2-38.1c-2.3,2.3-4.7,4.7-7,7
						c7.8,10.4,19.1,23.7,34.2,37.9c31.2,29.4,85.7,68.7,167.9,88.6c37.8,9.2,71.5,11.5,94.6,11.7c2.3-3.2,4.6-6.5,6.9-9.8
						C1929.3,893.4,1893.2,891.7,1852.6,881.9z"/>
				</g>
				<g>
					<path class="st2" d="M2010.7,801.9c-6,1.7-12.6,3.4-19.7,4.7c-43.1,8.2-81.9,1.9-115.3-18.6c-55.8-34.3-92.9-88.1-110.7-118.6
						c-2.8,1.7-5.6,3.4-8.3,5.2c4.9,8.3,11.1,18.4,18.8,29.3c19.2,27.3,51.4,65.5,95.1,92.4c29.1,17.9,59.2,23.4,85.4,23.4
						c13.7,0,26.4-1.5,37.2-3.6c4.1-0.8,8-1.6,11.7-2.6C2007,809.8,2008.9,805.9,2010.7,801.9z"/>
				</g>
				<g>
					<path class="st2" d="M1907.8,718.4c17.8,6.1,34.5,8.3,49.4,8.3c18.2,0,33.9-3.3,45.9-7.1c9-2.9,16.7-6.2,22.7-9.3
						c-0.5-3.4-1.1-6.8-1.8-10.1c-6,3.2-14.3,7-24.3,10.2c-20.2,6.4-52.1,11.3-88.8-1.3c-52.8-18.1-83.8-49.8-96.5-65.1
						c-3.1,1.3-6.2,2.7-9.4,4.1C1817.3,663.6,1849.7,698.5,1907.8,718.4z"/>
				</g>
			</g>
			<g>
				<path class="st14" d="M1919,692.4c19,67.9,34.6,253.8,34.6,253.8s234.2,63.3,228.8,98.1c-6.2,39.9-297.5,31.9-330.1-14.8
					c-42.3-60.7-42.3-255.8-42.3-329.5C1809.9,656,1892.8,598.9,1919,692.4z"/>
				<path class="st16" d="M1947.4,906.6c-2.8,14,0.7,28.7-1.7,42.8c-1.3,7.3-4.3,14-7.8,20.5c-3.4,6.4-6.7,12.9-10.8,19
					c-2.1,3.2,3,6.2,5.2,3c4.2-6.3,7.7-13.1,11.2-19.8c3.2-6.2,6.2-12.5,7.6-19.4c1.4-6.6,1.5-13.4,1.5-20.2c0-8-1-16.5,0.6-24.4
					C1954,904.5,1948.2,902.8,1947.4,906.6z"/>
			</g>
			<g>
				<path class="st14" d="M2153.5,1024.5c0,0,28.4,7.7,44.6,20.6c16.3,12.9,28.5,49.9,29.7,56.9c1.2,7-11.6-9.6-11.6-9.6
					s5.2,12.3,2.3,14.8c-2.9,2.4-13.5-6.2-13.5-6.2s-0.1,8.2-3.2,7.6c-13.2-2.5-26.2-21-41-25.4c-14.8-4.5-26.8-8.8-41-23.2
					C2107.8,1047.7,2110.7,1025.6,2153.5,1024.5z"/>
			</g>
			<g>
				<path class="st2" d="M2068.8,474.9c0,0,16,2.4,18-14.8c2-17.2-6.6-30.1-18.1-29.3c0,0-2.5-14.5-20.7-6.6s-25.4-5.9-25.4-5.9
					s-12.7-12.3-28-10.1c-15.3,2.3-23.7,25-23.7,25s-32.2,3.8-29.1,25.2c0.6,4.3,0.9,7.9,1,11c0.3,7.6-2.4,15-7.1,21
					c-3,3.8-6.5,10.5-6.9,21.1c-0.9,19.4,8.9,27.4,8.9,27.4s0.9,2.8,6,22.9c5.1,20.1,16.1,9.9,22.2,8.8
					C1972,569.8,2068.8,474.9,2068.8,474.9z"/>
			</g>
			<g>
				<path class="st14" d="M2012.4,467.3c-21.5,0.3-39.9,15.5-44.2,36.5c-6.5,31.3-8.1,61.1-3.8,70.9c9,20.8,59.4,39.7,82,34.4
					c13.6-3.2,17.4-16.3,20.7-37.5c2.2-14.1,1.1-26,1.7-32.1c1.6-15.1,12.1-64.6-16.4-69.3C2040.2,468.4,2025.7,467.2,2012.4,467.3z
					"/>
			</g>
			<g>
				<path class="st2" d="M2024.6,476.8c0,0-20.3,11.7-31.1,20.1c-8.7,6.8-8.8,36.6-16.3,44.2c-7.4,7.5-25.6,5.6-31.1-0.1
					c-13.9-14.3-9.5-52.8-7.4-61.9c7.3-31.5,21.1-32.2,40.2-35.7C1998,439.9,2037.6,463.1,2024.6,476.8z"/>
			</g>
			<g>
				<path class="st14" d="M1970.3,541.7c0,0-9.8,21.7-20.7,41.5c-8.5,15.5-35.8,37.5-34.1,44.4c1.6,6.4,45.2,38.1,54.7,35.9
					c9.4-2.2,35.9-75.6,35.9-75.6L1970.3,541.7z"/>
			</g>
			<g>
				<path class="st8" d="M2026.5,564.6c0,0,17.9,1,29.9,2.5c0,0-1.8,11.2-13.5,10.2C2031.9,576.5,2026.5,564.6,2026.5,564.6z"/>
			</g>
			<g>
				<g>
					<path class="st2" d="M2027.5,527.1c-0.4,0-0.9-0.3-1-0.7c0-0.1-0.9-2.3-4.6-2.9c-4.1-0.6-11.6,2.6-11.7,2.6
						c-0.6,0.2-1.2,0-1.4-0.6c-0.2-0.6,0-1.2,0.6-1.4c0.3-0.1,8.2-3.5,12.9-2.8c5,0.7,6.3,4.2,6.3,4.3c0.2,0.6-0.1,1.2-0.7,1.4
						C2027.7,527.1,2027.6,527.1,2027.5,527.1z"/>
				</g>
				<g>
					<path class="st2" d="M2065.6,531.2c-0.3,0-0.6-0.1-0.9-0.4c-3.4-4.3-11.4-2.1-11.5-2.1c-0.6,0.2-1.2-0.2-1.3-0.7
						c-0.2-0.6,0.2-1.2,0.7-1.3c0.4-0.1,9.5-2.6,13.8,2.8c0.4,0.5,0.3,1.2-0.2,1.5C2066.1,531.1,2065.8,531.2,2065.6,531.2z"/>
				</g>
				<g>
					<path class="st2" d="M2026.4,524.4c0,0,0.7,10.3-6.1,10.1c-6.9-0.2-6.8-9.9-5.9-11.1C2015.3,522.3,2021,520.5,2026.4,524.4z"/>
				</g>
				<g>
					<path class="st2" d="M2066.4,529.7c0,0,0.1,10.2-5.1,10.3c-5.2,0.1-4.6-9.5-3.9-10.7C2058.2,528.1,2062.5,526,2066.4,529.7z"/>
				</g>
			</g>
			<g>
				<path class="st14" d="M1968.7,529.4c-1.8-4.1-5.1-7.4-9.3-9c-4.5-1.7-10.3-1.7-14.2,6.5c-7.2,15.3,16.6,40.8,24.9,29.5
					C1975.9,548.3,1971.7,536,1968.7,529.4z"/>
			</g>
			<g>
				<path class="st16" d="M1964,554.2c-0.3,0-0.6-0.1-0.9-0.2c-1.1-0.5-1.6-1.8-1.1-2.9c0.5-1.1,1.1-3.5,0.2-4.2
					c-0.6-0.5-2.1-0.5-3.4-0.5c-2.2,0-4.8,0-6.3-2.2c-1.7-2.5-3.8-8.1-2.9-13.2c0.8-4.5,4.2-6.3,6.1-6.7c1.2-0.2,2.3,0.5,2.5,1.7
					c0.2,1.2-0.5,2.3-1.7,2.5c-0.2,0.1-2.2,0.6-2.6,3.2c-0.6,3.6,0.9,8,2.3,10c0.2,0.3,2,0.3,2.6,0.3c1.9,0,4.3,0,6.1,1.4
					c3.8,3,1.3,8.7,1,9.4C1965.6,553.8,1964.8,554.2,1964,554.2z"/>
			</g>
			<g>
				<path class="st2" d="M2008,513.4c-0.5,0-1-0.4-1.1-0.9c-0.1-0.6,0.3-1.2,0.9-1.3c13.5-2.5,25.5-0.6,26-0.5
					c0.6,0.1,1,0.7,0.9,1.2c-0.1,0.6-0.7,1-1.2,0.9c-0.1,0-12.2-1.9-25.3,0.5C2008.1,513.4,2008,513.4,2008,513.4z"/>
			</g>
			<g>
				<path class="st2" d="M2069.4,517.2c-0.1,0-0.2,0-0.2,0l-14.1-3.2c-0.6-0.1-1-0.7-0.8-1.3c0.1-0.6,0.7-0.9,1.3-0.8l14.1,3.2
					c0.6,0.1,1,0.7,0.8,1.3C2070.4,516.8,2069.9,517.2,2069.4,517.2z"/>
			</g>
			<g>
				<path class="st16" d="M2042.4,532.6c0.3-1.2,1.7-1.5,2.3-0.5c1.8,2.8,5.3,7.2,10.9,11.2c8.2,5.9,7.5,12.1-3.6,10.7
					c-11.1-1.4-12-2.4-11.8-8.6C2040.4,542.2,2041.6,536.3,2042.4,532.6z"/>
			</g>
			<g>
				<path class="st16" d="M2017.3,609.4c-0.1,0-0.3,0-0.4,0c-0.9-0.2-21.9-4.4-29.5-11.3c-0.9-0.8-0.9-2.2-0.1-3.1s2.2-0.9,3.1-0.1
					c6.8,6.2,27.2,10.2,27.4,10.3c1.2,0.2,1.9,1.4,1.7,2.5C2019.2,608.7,2018.3,609.4,2017.3,609.4z"/>
			</g>
			<g>
				<path class="st2" d="M2020.3,478c0,0,35.1-1.1,57,8.4c0,0,12.8-20.7-8.9-46.2c-13.8-16.4-85.1-39.1-104.4,6.8
					S2020.3,478,2020.3,478z"/>
			</g>
			<g>
				<path class="st2" d="M2079.4,466.8c0.3,0.6,7.5,11.8,2.1,20.3c-5.4,8.5-29-5-29-5s-16.4,4.4-24.8,2.4
					c-8.4-1.9-13.9-10.5-13.9-10.5s-1.7,17.6-12.9,22.9c-11.2,5.3-17.4,4.4-17.4,4.4s-3.7-24.7,13.8-31.3
					c17.5-6.6,27.7-11.2,36.5-11.2C2042.6,458.8,2071.9,452.7,2079.4,466.8z"/>
			</g>
			<g>
				<path class="st14" d="M2066.6,994.7c0,0-190.5,10.9-193.4,45.2c-2.9,34.4,215.1,45.3,245.3,40.3c30.2-4.9,48.6-41.4,25.5-63.9
					S2066.6,994.7,2066.6,994.7z"/>
			</g>
			<g>
				<path class="st14" d="M1922.6,1049.9c0,0-7.6,3.8-9.7,7.6c-2.1,3.8-20.4,24.3-25.2,29.6c-4.9,5.3-16.8,15.4-23.3,20.1
					c-6.5,4.8-9.4,10.9-13.1,7.2s12.7-21.8,12.7-21.8s-26.4,20.7-30.4,21.3c-4,0.6-5.6-3.8-4.9-6.2c0,0-5.9,7-10.5,1.5
					s1.8-9.2,1.8-9.2s-4.2-1.8-4.7-4.3c-0.5-2.5,12.2-17.2,15.1-19.8c2.9-2.6,26.9-26.2,26.9-26.2s-6.6,1.9-9.5,2.4
					c-3,0.5-11.7,8.4-18.4,3.5c-6.7-4.9-1.2-8.5,6.2-10.7c7.4-2.2,18.8-14.2,29.5-17c10.7-2.7,34.6-4.7,40.7-7
					C1911.8,1018.7,1928.3,1038.3,1922.6,1049.9z"/>
			</g>
			<g>
				<g>
					<path class="st12" d="M1956.8,933.5c-4.6-49.9-22.6-186.8-37.8-241.1c-26.2-93.5-109.1-36.4-109.1,7.6
						c0,50.4-8.2,161.6,5.3,243.8C1835.2,947.8,1902.1,958.2,1956.8,933.5z"/>
				</g>
			</g>
			<g>
				<g>
					<path class="st2" d="M1935.6,774.1c-52.1,12.6-100.6,8.2-127.6,3.6c-0.1,3.3-0.1,6.6-0.2,10c14.1,2.3,33.3,4.6,55.8,4.6
						c22.1,0,47.3-2.2,73.6-8.5C1936.6,780.5,1936.1,777.3,1935.6,774.1z"/>
				</g>
				<g>
					<path class="st2" d="M1951.8,888.4c-0.4-3.2-0.8-6.5-1.2-9.8c-60.1,16.1-116.5,8.7-141.8,3.7c0.2,3.4,0.4,6.8,0.6,10.2
						c14.3,2.7,36.4,5.9,63.1,5.9C1896.2,898.3,1923.5,895.8,1951.8,888.4z"/>
				</g>
			</g>
			<g>
				<path class="st18" d="M1815.2,946.5c-1.3,0-2.5-1-2.7-2.3c-0.1-0.4-1.5-9.8-6.2-52c-4.7-42.3-1.1-139.9-1-141
					c0.1-1.5,1.3-2.7,2.8-2.6c1.5,0.1,2.7,1.3,2.6,2.8c0,1.1-3.7,98.3,1,140.2c4.7,42,6.1,51.7,6.1,51.8c0.2,1.5-0.8,2.9-2.3,3.1
					C1815.5,946.5,1815.3,946.5,1815.2,946.5z"/>
			</g>
			<g>
				<path class="st18" d="M1952.3,894.7c-1.4,0-2.6-1.1-2.7-2.6c-3.1-58.6-32.9-197.7-33.2-199.1c-0.3-1.5,0.6-2.9,2.1-3.2
					c1.5-0.3,2.9,0.6,3.2,2.1c0.3,1.4,30.2,141,33.3,200c0.1,1.5-1.1,2.8-2.6,2.9C1952.4,894.7,1952.3,894.7,1952.3,894.7z"/>
			</g>
			<g>
				<path class="st16" d="M2164,1025c-0.4,0-0.9-0.1-1.3-0.4c-39.7-28.1-160.1-61.9-161.3-62.3c-1.2-0.3-1.8-1.5-1.5-2.7
					c0.3-1.2,1.5-1.8,2.7-1.5c5,1.4,122.4,34.4,162.7,62.9c1,0.7,1.2,2,0.5,3C2165.4,1024.7,2164.7,1025,2164,1025z"/>
			</g>
		</g>
		<g>
			<g>
				<g>
					<g>
						<polygon class="st9" points="3570.9,1377.1 3737.7,1888.6 3721.9,1895.6 3525.8,1384.9 						"/>
					</g>
					<g>
						<polygon class="st9" points="3496.6,1379.4 3593.4,1860.7 3576.8,1865.5 3450.8,1381 						"/>
					</g>
				</g>
				<g>
					<g>
						<polygon class="st9" points="3310.8,1403.8 3237.9,1889.3 3254.7,1893.3 3356.6,1403.1 						"/>
					</g>
					<g>
						<polygon class="st9" points="3230.3,1377.8 3082.3,1845.9 3098.3,1852.4 3275.7,1384.3 						"/>
					</g>
				</g>
			</g>
			<g>
				<path class="st19" d="M3470.4,804.7c82.8,9.5,176.8,176.4,202.4,333.4c17.2,105.7,17.9,204.4-2.6,242.1
					c-71.6,131.2-337.8,75.3-442.6,61.8c-104.8-13.5-148.9-107-120.8-152.8C3150.6,1217.7,3331.9,788.8,3470.4,804.7z"/>
			</g>
			<g>
				<path class="st21" d="M3637,979.2c0,0-356.5,304.1-403.7,353.4c-27.2,28.4-20.7,74.8-10.3,108.8c1.5,0.2,3,0.4,4.4,0.6
					c36.5,4.7,92.5,14.5,153.1,19.8l0,0c-7.1-28,9.2-56.5,36.8-64.7c72-21.1,163.2-53.9,184-70c52.9-41,43.1-135.7,40.7-166.7
					C3634.7,1063,3637,979.2,3637,979.2z"/>
			</g>
			<g>
				<path class="st14" d="M3380.3,755.1l-112.4,233.5c19.3,8.1,47,21.8,74.4,42.8c4.2-28.1,11.1-65.6,21.1-97.2
					C3382.1,875,3380.3,755.1,3380.3,755.1z"/>
			</g>
			<g>
				<path class="st14" d="M3315.4,1067c0,0-276.6,133.1-302.8,193.9c-33.8,78.2,103.2,485.9,183.5,598.8c6.6,9.3,16.4,9.6,25.6,5.7
					c10.2-4.3,19.2-14.3,13.5-36.3c-23.5-90.7-73.7-486.9-73.7-486.9s248.1-135.4,257.9-176.4C3429.2,1124.9,3431,1058,3315.4,1067z
					"/>
			</g>
			<g>
				<path class="st14" d="M3577.6,1037.6l15.9,16.8c0,0,64.7,149.7,22.6,228c-42.1,78.3-296.5,101.6-328.2,114.7
					c-10.2,4.2,23,44.5,34.2,108.3c23.6,133.9,31.8,237,31,318.1c-0.2,24.6-52.2,40.1-54.5,30.9c-2.3-9.2-235.7-520.3-144.3-571.5
					c91.4-51.3,215.4-107.9,229-124.9c7.2-8.9,26.4-98.7,26.4-98.7L3577.6,1037.6z"/>
			</g>
			<g>
				<g>
					<path class="st2" d="M3041,1228.1c77.1-66.1,274.4-161.1,274.4-161.1c45.4-3.6,94.3-7.6,94.3-7.6l167.9-21.8l18.4,13.6
						c0,0,62.2,153,20.1,231.3c-39.7,73.8-267.8,98.8-320.6,112.4C3288.4,1376,3223.5,1219.8,3041,1228.1z"/>
				</g>
			</g>
			<g>
				<path class="st2" d="M3531.3,477c0,0,30-19.8,60.4,2.2c29.1,21.1,13.3,36,32.3,66.3c11.5,18.3,39.7,15.6,55.4,34.7
					c25.7,31.2,2.1,68.3,11.5,88.8c21.4,46.6,106.8,13.9,164.5,165.8c49.3,130-68.2,175.7-80,177.2c-11.9,1.5,5.7-20.6,1.1-35.4
					c0,0-15.6,44.9-72.7,72.7c-57.1,27.8-127.1,28.9-174-10.9c-81.2-68.9-176.9-342.4-125.2-414.7c8.8-12.3,29.6-35.1,31.8-57.6
					C3443.4,494.8,3472.2,460.5,3531.3,477z"/>
			</g>
			<g>
				<path class="st18" d="M3614.4,1100.8c-5.6-13.9-7.6-40.7-7.7-49.2c-2.3-157.1,69.8-235.9,20.5-311.1
					c-22.4-34.1-70.3-45.4-109.8-51.7c-17.6-2.8-98.9-1.2-125.6,31.5c-20.8,25.6-32.3,61.3-51,104c-21,48,16.2,107.3,2.5,158
					c-5,18.6-20.3,49-27.6,75.1c-5.4,14.4,33.8,32.8,66.7,40.9C3460,1117.2,3547.6,1135.2,3614.4,1100.8z"/>
			</g>
			<g>
				<path class="st22" d="M3585.6,808c0,0,6.1,97.1,31.8,131.4c4.6-23.3,10-44.3,14.7-63.8L3585.6,808z"/>
			</g>
			<g>
				<path class="st14" d="M3623.5,735.4l168.8,155.1c0,0,264.4-98,291.1-60.3c26.8,37.8-210.2,170-311.1,173.2
					c-100.9,3.2-177.7-132.8-185.5-186.3C3578.9,763.7,3589.6,715.4,3623.5,735.4z"/>
			</g>
			<g>
				<g>
					<path class="st14" d="M3865.5,1005.9c-53.5-46.1-27.2-350.1,12.7-342.7s73.1,265.3,73.1,265.3s-40.1,42.1-64.8,89.9
						C3879.5,1016.1,3872.5,1011.9,3865.5,1005.9z"/>
				</g>
				<g>
					<path class="st14" d="M4205.3,732.9c-24.8-7.5-316.7,217-341,266.5c23.7,43.7,92.3,32.9,167-7.3
						c88.7-47.7,129.2-75.6,155.8-108.3C4213.8,851,4230.1,740.4,4205.3,732.9z"/>
				</g>
				<g>
					<path class="st14" d="M4205.3,732.9c-24.8-7.5-320.8,198.3-341,266.5c23.7,43.7,92.3,32.9,167-7.3
						c88.7-47.7,129.2-75.6,155.8-108.3C4213.8,851,4230.1,740.4,4205.3,732.9z"/>
				</g>
				<g>
					<g>
						<path class="st3" d="M4205.3,732.9c-14.1-4.3-121.7,59.1-212.2,129.9c3.8,31.4,35.4,88.7,78.1,122.1
							c67.3-37.7,92.6-72.5,115.9-101.1C4213.8,851,4230.1,740.4,4205.3,732.9z"/>
					</g>
				</g>
				<g>
					<g>
						<g>
							<g>
								<polygon class="st9" points="4362.3,1482.4 4529.1,1993.9 4513.3,2000.9 4317.2,1490.2 								"/>
							</g>
							<g>
								<polygon class="st9" points="4288.1,1484.7 4384.8,1966 4368.2,1970.8 4242.2,1486.2 								"/>
							</g>
						</g>
						<g>
							<g>
								<polygon class="st9" points="4102.2,1509.1 4029.3,1994.6 4046.1,1998.5 4148,1508.4 								"/>
							</g>
							<g>
								<polygon class="st9" points="4021.7,1483.1 3873.7,1951.1 3889.7,1957.7 4067.1,1489.5 								"/>
							</g>
						</g>
					</g>
					<g>
						<path class="st11" d="M4075.9,1296.8c36.1-38.1,61.3-95.6,94.2-187.5c32.9-91.9,76.5-217.7,215-201.8
							c138.5,15.9,91.5,418.7,40.5,512.3c-71.6,131.2-301.8,141-406.6,127.5c-104.8-13.5-148.9-107-120.8-152.8
							C3942,1322.9,4031.6,1343.5,4075.9,1296.8z"/>
					</g>
					<g>
						<path class="st20" d="M3898.1,1394.5c43.9-71.6,133.5-51,177.8-97.7c16.8-17.7,31.3-39.7,45.2-67.4
							c25.5-11.6,44.6-21.5,52.5-27.9c34.3-28.3,53-112.2,53-112.2s111.2,125.2,117.5,274.4c1.7,40.7-77.6,67.2-117.8,84.8
							c-40.2,17.6-184.9,32-219.9,39.6c-20.9,4.6-16.6,35.6-24.9,50.3C3904,1510.5,3873.6,1434.3,3898.1,1394.5z"/>
					</g>
				</g>
				<g>
					<g>
						<path class="st2" d="M3708.4,1939.6c6,6.2,17.6,23.5,12,41.8c-9,29.3-48.8,67.8-111.6,71.7c-55.2,3.5-62.1-33.6-44.8-43.8
							c21-12.4,82.8-46.5,90.9-53.5C3673.5,1939.9,3698.5,1929.3,3708.4,1939.6z"/>
					</g>
					<g>
						<path class="st14" d="M3710.2,1967.6c0,0-28.6,26.8-67.1,34.9c-25.5,5.3-31.3-16.3-27.6-18.7c26.2-19.3,60.7-69.6,71-89
							c15.6-29.5,57-3.2,47.5,25.8C3726.3,1943.8,3711.7,1965.7,3710.2,1967.6z"/>
					</g>
				</g>
				<g>
					<g>
						<path class="st2" d="M3947.1,1872.2c8.8,1.5,15.1,10.8,21.8,28.4c10.7,28.1-11.1,91-59.7,118.4c-48.6,27.4-62.7-4.8-52.2-18
							c14.9-18.8,40-83.6,42.4-93.6C3905,1884.2,3932.5,1869.6,3947.1,1872.2z"/>
					</g>
					<g>
						<path class="st14" d="M3952.9,1885.8c0,0-5.9,38.8-31.1,68.9c-16.7,20-34.6,6.6-33.3,2.4c22.9-68.7,5.2-85.3,1.2-106.9
							c-6-32.8,42.1-44.7,52.7-16C3950.9,1857.1,3952.9,1883.3,3952.9,1885.8z"/>
					</g>
				</g>
				<g>
					<path class="st23" d="M4109.2,960.9l-15.4-120.4l-39.5,129.3c5.4,5.3,11,10.4,16.9,15C4085.7,976.7,4098.2,968.8,4109.2,960.9z
						"/>
				</g>
				<g>
					<path class="st14" d="M4364.3,1224.8c0-7.9-3.1-101.8-3.3-111.1c-3.1-170.7,82-250.3,28.1-331.8
						c-24.4-36.9-83.5-55.5-126.4-62.2c-53.9-8.4-81.5,28.9-109.3,44.9c-72.1,41.4-47.4,141.2-71,285.7c-3.4,20.7-13.2,51.6-21,80
						c-5.8,15.7-4.5,22.7,32.1,26.7C4159.9,1164.2,4291.8,1262.4,4364.3,1224.8z"/>
				</g>
				<g>
					<path class="st22" d="M4063,1124.5c0,0-299.1,134.2-331.8,198.2c-48.4,94.9,67.2,439.1,154.9,561.4
						c7.2,10.1,37.9-6.4,47.1-12.1c15.7-9.8,25-18.8,18.8-34.3c-38-94.5-73.6-406.4-73.6-406.4s269.1-148.1,279.6-192.7
						c7.5-31.9,29.5-89.4-15.3-95.8C4074.8,1133,4072.1,1129.5,4063,1124.5z"/>
					<path class="st24" d="M4115,1168.7c-4.1,15.8-8,32.8-8.2,49.2c0,3.9,6,3.9,6,0c0.1-15.8,4-32.3,8-47.6
						C4121.8,1166.6,4116,1165,4115,1168.7z"/>
				</g>
				<g>
					<path class="st24" d="M3843,1810.9l69.4-140.9c-2.6-15.1-5.1-30.3-7.5-45.4l-90.7,124.4C3823.6,1771,3833.3,1791.8,3843,1810.9
						z"/>
				</g>
				<g>
					<path class="st22" d="M4370.8,1281.7c-3.5,19.6-9.7,39.7-20,59.1c-45.5,85.2-300.5,135.3-334.9,149.6
						c-34.4,14.4-273.6,457.2-299.8,462.8c-26.2,5.6-55.9-12.6-58.5-22.6c-2.6-9.9,113.6-507.8,212.7-563.8
						c99.1-56,233.6-118.1,248.4-136.6c7.8-9.7,24.1-87.5,24.1-87.5l219.6,13c0,0,1,2.9,2.4,8.2
						C4369.7,1182.5,4379.9,1230,4370.8,1281.7z"/>
				</g>
				<g>
					<path class="st3" d="M4262.7,719.8c-53.9-8.4-87.9,23.7-114.3,41.8c-37.3,25.6-51.3,54.2-56.3,88.8c-0.6,5.4-1.2,10.9-1.7,16.4
						c-2,27.1-12.5,124.5-12.9,160c50.2,17.8,84.8,11.1,167.2,33.4c46.5,12.6,81.2,26.4,141.1,33.9c16.3-120.6,48.5-243.8,3.3-312.2
						C4364.7,745,4305.6,726.5,4262.7,719.8z"/>
				</g>
				<g>
					<path class="st24" d="M3760.4,1575.9c-0.6,0-1.1-0.1-1.7-0.3c-2.2-0.9-3.3-3.5-2.4-5.7c2.4-5.7,57.9-139.9,77.6-172.5
						c8.6-14.2,57-45.8,143.9-94c64.3-35.6,127-67.7,127.6-68c2.1-1.1,4.8-0.2,5.8,1.9c1.1,2.1,0.2,4.8-1.9,5.8
						c-69.2,35.3-252.3,132.8-268,158.7c-19.4,32-76.5,169.9-77,171.3C3763.8,1574.9,3762.1,1575.9,3760.4,1575.9z"/>
				</g>
				<g>
					<path class="st14" d="M3881.4,718.7c0,0-6-7.4-10.6-9c-4.6-1.6-30.9-17.6-37.7-21.8c-6.8-4.3-20.6-15.2-27.3-21.3
						c-6.7-6.1-13.9-8.2-11.1-12.6c2.8-4.4,26.1,10,26.1,10s-28.8-24.4-30.6-28.5c-1.7-4.1,2.4-6.3,5-6c0,0-8.9-5.1-4.5-10.7
						c4.4-5.6,10,0.5,10,0.5s0.7-4.6,3.2-5.5c2.4-0.9,21.2,10.1,24.7,12.8c3.5,2.6,34.6,24.1,34.6,24.1s-3.8-6.5-5.1-9.5
						c-1.4-3-12-10.9-8.8-18.6c3.2-7.7,8.5-2.5,12.8,4.9c4.3,7.4,20,17.5,25.8,28.2c5.8,10.7,7.2,27.1,11.2,33.1
						S3894.9,722.9,3881.4,718.7z"/>
				</g>
				<g>
					<path class="st25" d="M4296.1,508c0,0-25.2-14.1-44.6-8.2c-19.3,5.8-26.2,27.3-33.8,35.4c-7.5,8-18.8,19.2,0.8,23.1
						C4238.2,562,4299.9,516,4296.1,508z"/>
				</g>
				<g>
					<path class="st25" d="M4235.9,539.4c0,0-22.5,3.1-30.1,22.1c-7.6,19,0,30.2-4.9,40.2c-4.9,10.1-21.6,28.2-16.6,42.2
						c5,13.9,13.9,10.9,10,25c-3.8,14.1-14.7,23.7,2.4,26.8c17,3.2,64.3,11.6,75.5-20.8C4283.5,642.5,4268.8,530.1,4235.9,539.4z"/>
				</g>
				<g>
					<path class="st14" d="M4306.7,630.2c0,0-1.2,87.5-3,106.5c-0.6,6.7-62.1,18.5-59.3,9c5.5-18.8,16.5-105.1,16.5-105.1
						L4306.7,630.2z"/>
				</g>
				<g>
					<path class="st14" d="M4291.4,532.7c20.9,6.7,34.2,27.1,32.2,48.9c-3,32.4-7.8,49.1-25,63c-18,14.6-51.4,24-69.6,16.5
						c-13.2-5.4-27.1-21.4-24-43.1c2.1-14.4,6.1-22.7,7.3-28.7c3-15.2,9.9-69.6,39.1-65.7C4263.9,525.4,4278.4,528.5,4291.4,532.7z"
						/>
				</g>
				<g>
					<path class="st8" d="M4246.2,632.1c0,0-18.6-2-29.7-3.5c0,0,2.3-8.6,13-7.3C4239.7,622.4,4246.2,632.1,4246.2,632.1z"/>
				</g>
				<g>
					<path class="st2" d="M4256.3,592.5c0,0-4.5,3.1-1.9,9c2.6,6,11.2,2.5,12.4-0.4c1.2-2.9-1-6.1-1-6.1S4263.2,591.6,4256.3,592.5z
						"/>
				</g>
				<g>
					<path class="st2" d="M4219.6,586.2c0,0-3.4,3.1-1.5,9c1.9,5.9,8.2,2.4,9.1-0.5c0.9-2.9-0.7-6.1-0.7-6.1
						S4224.7,585.2,4219.6,586.2z"/>
				</g>
				<g>
					<path class="st2" d="M4271.9,599.9c-0.2,0-0.4-0.1-0.6-0.2c-0.1-0.1-7.6-5.3-12.5-6c-4.2-0.6-5.3,1.6-5.3,1.7
						c-0.2,0.5-0.9,0.8-1.4,0.6c-0.5-0.2-0.8-0.8-0.6-1.4c0.1-0.2,1.7-3.9,7.6-3c5.4,0.8,13.1,6.2,13.4,6.4c0.5,0.3,0.6,1,0.3,1.5
						C4272.6,599.7,4272.2,599.9,4271.9,599.9z"/>
				</g>
				<g>
					<path class="st2" d="M4227.5,589.7c-0.3,0-0.6-0.1-0.8-0.4l0,0c-0.2-0.2-4.2-4.6-8.3-1.7c-0.5,0.3-1.2,0.2-1.5-0.3
						c-0.3-0.5-0.2-1.2,0.3-1.5c4.6-3.2,9.3-0.1,11.2,2c0.4,0.4,0.4,1.1-0.1,1.5C4228.1,589.6,4227.8,589.7,4227.5,589.7z"/>
				</g>
				<g>
					<path class="st16" d="M4239.1,593.1c0-1.1-1.1-1.6-1.8-0.9c-2.1,2.2-5.9,5.6-11.3,8.3c-8,3.9-8.7,9.7,0.7,10.4
						c9.4,0.7,10.4,0,11.5-5.7C4238.8,602.2,4239,596.6,4239.1,593.1z"/>
				</g>
				<g>
					<path class="st2" d="M4274.9,585.7c-0.2,0-0.4-0.1-0.6-0.2c-7.6-5.1-19.2-7.6-19.3-7.6c-0.6-0.1-1-0.7-0.8-1.3
						c0.1-0.6,0.7-1,1.3-0.8c0.5,0.1,12.1,2.5,20.1,7.9c0.5,0.3,0.6,1,0.3,1.5C4275.6,585.5,4275.3,585.7,4274.9,585.7z"/>
				</g>
				<g>
					<path class="st2" d="M4216.1,578.4c-0.4,0-0.7-0.2-0.9-0.5c-0.3-0.5-0.1-1.2,0.4-1.5c3.2-1.9,7.4-3.6,12.3-4.9
						c0.6-0.2,1.2,0.2,1.3,0.8c0.2,0.6-0.2,1.2-0.8,1.3c-4.8,1.3-8.7,2.9-11.8,4.7C4216.5,578.4,4216.3,578.4,4216.1,578.4z"/>
				</g>
				<g>
					<path class="st16" d="M4256.1,665.5c-1.3,0-2.4-0.9-2.7-2.2c-0.3-1.5,0.7-2.9,2.1-3.2c0.1,0,14.2-2.9,19.8-5.5
						c1.4-0.6,3,0,3.6,1.3c0.6,1.4,0,3-1.3,3.6c-6.1,2.8-20.4,5.8-21,5.9C4256.4,665.5,4256.3,665.5,4256.1,665.5z"/>
				</g>
				<g>
					<g>
						<path class="st14" d="M4301.7,603c1.9-4.6,5.4-8.5,10.1-10.5c5-2.1,11.5-2.3,16.2,6.7c8.7,16.8-17,46.4-26.7,34.1
							C4294.4,624.6,4298.6,610.7,4301.7,603z"/>
					</g>
					<g>
						<path class="st26" d="M4307.9,629.4c-0.4,0-0.8-0.2-1-0.6c-0.1-0.2-3-6.1,0.4-8.9c1.6-1.4,3.9-1.5,5.9-1.5
							c1.8-0.1,3.5-0.1,4.1-1c1.4-2.3,3.3-7.8,2.3-12.4c-0.8-3.9-4-4.5-4.2-4.5c-0.6-0.1-1-0.7-0.9-1.2c0.1-0.6,0.6-1,1.2-0.9
							c0.2,0,4.8,0.8,5.9,6.2c1.1,5.3-0.9,11.2-2.6,13.9c-1.2,2-3.6,2-5.9,2.1c-1.7,0.1-3.6,0.1-4.6,1c-2.1,1.8,0.1,6.3,0.1,6.3
							c0.3,0.5,0,1.2-0.5,1.5C4308.2,629.4,4308.1,629.4,4307.9,629.4z"/>
					</g>
				</g>
				<g>
					<path class="st25" d="M4254.2,538.1c0,0,4.9,20.3,14,28.8s11.3,21.8,14.5,16c3.2-5.8-2.7-18.9,0.5-14.8
						c3.2,4.1,25.9,38.3,7.2,65.6c-13.5,19.8,23.9,40.7,11.9,43.6s-18.5-4.5-21.9,10.9c-2.4,11.1,4.4,28.3,46.5,14
						c10.5-3.6-0.6,18.1,35.2,3.6c9.2-3.7,13.4-22.9,19.6-25.4c25.3-10.4,17.2-23.7,11.5-37.3c-7.4-17.8-8.1-24.5-6.3-32.9
						c3.1-15,3.1-24.4-12.8-36.8c-6.1-4.7,3.9-30.3-21.9-38.3c-26.3-8.2-19-41-49.2-34.7C4265.9,508.1,4252.4,519.2,4254.2,538.1z"
						/>
				</g>
				<g>
					<path class="st25" d="M4256.6,534.5c0,0-28.4,26.5-39.9,24.5s-12.6-8.3-6.6-10.4c6-2.1,10.2-1,13.1-7.5
						c2.9-6.5,1.4-24.1,16.6-23.3C4254.9,518.6,4263.6,523.5,4256.6,534.5z"/>
				</g>
				<g>
					<path class="st14" d="M4067.3,1300.1c0,0-10.6,2.6-14.3,6.9c-3.7,4.3-32.1,25.2-39.6,30.5c-7.5,5.3-25.3,14.8-34.8,19
						c-9.5,4.2-14.8,11.1-18.5,5.4s21.8-24.1,21.8-24.1s-38.8,18.8-44,18.4c-5.2-0.4-6-6.5-4.5-9.3c0,0-9.3,7.2-13.7-1.1
						c-4.4-8.3,4.6-11.2,4.6-11.2s-4.8-3.5-4.8-6.9s19.9-18.4,24.3-20.9c4.4-2.5,40.9-25.7,40.9-25.7s-8.8,0.5-12.6,0.3
						c-3.9-0.2-17,7.4-24.2-0.8c-7.2-8.2,0.7-11.2,10.7-11.8c10-0.7,27.5-12.7,41.7-13.2c14.2-0.4,32.9,7.6,41.2,6.5
						C4049.8,1261.1,4077.6,1287,4067.3,1300.1z"/>
				</g>
				<g>
					<g>
						<path class="st22" d="M4071.3,1095.7c-3.2,11.4-6.7,23.2-9.8,34.6c-5.8,15.7-4.5,22.7,32.1,26.7
							c66.4,7.2,198.3,105.4,270.8,67.8c0-6.3-2-67.8-2.9-96.8C4245.9,1132,4110.3,1104.3,4071.3,1095.7z"/>
					</g>
				</g>
				<g>
					<path class="st24" d="M4370.8,1281.7c-7.4-8.2-17.4-15.1-33.5-21.6c-50.7-20.5-198.4,26.6-200.3,27.2l227.8-123.3
						C4369.7,1182.5,4379.9,1230,4370.8,1281.7z"/>
				</g>
				<g>
					<path class="st14" d="M4019.5,1287.8c25.4-49.9,245.7-152.9,261.5-182.7c26.5-50.2,7.8-146.6,54.2-298.9
						c10.1-33,49.6-22.6,65.9-0.3c18.8,25.7,40.5,268-13.4,356.2C4321.6,1270.5,3993.7,1338.6,4019.5,1287.8z"/>
				</g>
				<g>
					<g>
						<path class="st3" d="M4421.5,996.5c2.4-88.1-9.4-175.6-20.3-190.5c-16.3-22.3-63.6-40.5-73.6-7.5
							c-22.3,73.2-29.4,144.6-30.8,193.3C4314.7,997.6,4378.4,1009.4,4421.5,996.5z"/>
					</g>
				</g>
				<g>
					<path class="st24" d="M3984,1507.7c-1.5,0-2.9-0.7-3.7-2.1c-1.3-2-0.6-4.7,1.4-6c0.5-0.3,11.7-7.1,34.9-14.2
						c2.3-0.7,4.7,0.6,5.4,2.9c0.7,2.3-0.6,4.7-2.9,5.4c-22,6.7-32.8,13.2-32.9,13.3C3985.5,1507.5,3984.8,1507.7,3984,1507.7z"/>
				</g>
				<g>
					<path class="st23" d="M4296.8,991.2c-1.8,0-3.2-1.4-3.3-3.2c-2.4-87.6,23.3-163.7,23.5-164.4c0.6-1.7,2.4-2.6,4.1-2
						c1.7,0.6,2.6,2.4,2,4.1c-0.3,0.7-25.5,75.8-23.2,162.2C4300.1,989.7,4298.7,991.2,4296.8,991.2
						C4296.8,991.2,4296.8,991.2,4296.8,991.2z"/>
				</g>
				<g>
					<path class="st16" d="M3958.8,968.7c-0.2,0-0.4,0-0.6-0.1c-1.5-0.3-2.4-1.8-2.1-3.2c4.8-21.3-10.4-58.8-10.5-59.1
						c-0.6-1.4,0.1-3,1.5-3.5c1.4-0.6,3,0.1,3.5,1.5c0.7,1.6,16,39.4,10.8,62.4C3961.2,967.8,3960,968.7,3958.8,968.7z"/>
				</g>
			</g>
			<g>
				<g>
					<path class="st14" d="M3184.6,1899.7c5-5.1,7.2-12.5,5.9-19.7c-2.3-12.9-21.6-59.5-28.9-79.7c-12.8-35.1,58.5-37.4,58.5-37.4
						l19.4,75.4c7.8,24.5,9.7,42.3,18.8,56.8c11.3,18-134.2,62.4-107.8,38.5C3158.1,1926.6,3174.8,1909.7,3184.6,1899.7z"/>
				</g>
				<g>
					<path class="st2" d="M3262,1891.2c-3.5-4.5-6.9-9-10.6-14c-2.1,0.9-4.9,5.6-7.6,8.4c-18.1,19.2-94.2,71.4-93.4,47.9
						c-22.3,17.4-51.7,42-45.6,46.8c19.9,15.9,117-28.6,159.6-54.1c4.3-2.6,8-6.3,7.7-11.6C3271.7,1907.8,3268,1898.8,3262,1891.2z"
						/>
				</g>
			</g>
			<g>
				<g>
					<path class="st14" d="M3300,1902.8c5.4-4.7,8.1-11.9,7.4-19.2c-1.3-13.1-21-59.8-30.1-79.2c-14.3-30.5,73.4-37.8,73.4-37.8
						l4.8,82.3c1.3,24.1,10.3,40.7,22.6,52.7c6.9,6.7-142.7,54.3-114.6,32.5C3271.6,1927.6,3289.5,1912.1,3300,1902.8z"/>
				</g>
				<g>
					<path class="st2" d="M3378,1901.4c-4.1-4-8-8.7-11.3-13.9c-0.5,3.4-1.1,5.3-8,10.8c-7.6,6.1-80.2,48.9-95.3,35.6
						c-29.1,14.5-58,40.9-50.4,45.6c25.4,15.7,130.5-27.1,164.6-44.2c4.5-2.3,8.4-5.7,8.5-11
						C3386.3,1917.5,3384.9,1908.2,3378,1901.4z"/>
				</g>
			</g>
			<g>
				<path class="st14" d="M3501.6,595c0,0-32.4,106.4-28.7,112.8c3.5,5.9,56.1,20,56.4,9.9c0.6-19.9,13.3-97.9,13.3-97.9L3501.6,595
					z"/>
			</g>
			<g>
				<path class="st14" d="M3521.1,505.8c-22.1,3.2-39.1,21.3-40.8,43.6c-2.6,33.1-0.7,50.7,14.2,67.7c15.5,17.7,47.6,33,67.1,28.6
					c14.2-3.2,31-16.9,31.6-39.2c0.4-14.8-2.2-23.9-2.4-30.2c-0.4-15.8,2-71.7-28-72.8C3550,503.2,3534.9,503.9,3521.1,505.8z"/>
			</g>
			<g>
				<path class="st8" d="M3549.8,608c0,0,17.1-1.4,28.7-1.6c0,0-0.4,10.8-11.6,11.5C3556.3,618.5,3549.8,608,3549.8,608z"/>
			</g>
			<g>
				<path class="st2" d="M3546,572.1c0,0,4,3.9,0.4,9.4c-3.7,5.5-11.7,0.6-12.4-2.5c-0.7-3.1,2.1-5.9,2.1-5.9
					S3539.3,569.9,3546,572.1z"/>
			</g>
			<g>
				<path class="st2" d="M3584.1,572c0,0,2.9,3.7-0.1,9.3c-2.9,5.6-8.7,1-9.1-2.1c-0.4-3.1,1.7-6,1.7-6S3579.2,570.1,3584.1,572z"/>
			</g>
			<g>
				<path class="st2" d="M3529.3,576.7c-0.4,0-0.8-0.2-1-0.6c-0.3-0.5,0-1.2,0.5-1.4c0.4-0.2,9.1-4.3,14.6-4.1
					c6.1,0.2,7.1,4.2,7.1,4.4c0.1,0.6-0.2,1.2-0.8,1.3c-0.6,0.1-1.2-0.2-1.3-0.8c0-0.1-0.7-2.5-5-2.7c-5-0.2-13.5,3.9-13.6,3.9
					C3529.6,576.7,3529.5,576.7,3529.3,576.7z"/>
			</g>
			<g>
				<path class="st2" d="M3575.7,574.2c-0.3,0-0.6-0.1-0.8-0.4c-0.4-0.5-0.3-1.2,0.2-1.5c2.2-1.8,7.5-4.1,11.6-0.1
					c0.4,0.4,0.4,1.1,0,1.5c-0.4,0.4-1.1,0.4-1.5,0c-3.7-3.6-8.5,0.1-8.7,0.3C3576.2,574.1,3575.9,574.2,3575.7,574.2z"/>
			</g>
			<g>
				<path class="st16" d="M3561.3,577c0.2-1.1,1.4-1.5,2-0.6c1.7,2.6,4.9,6.7,10,10.3c7.4,5.3,7.1,11.3-2.5,10.4s-10.4-1.8-10.6-7.7
					C3560,586.2,3560.8,580.5,3561.3,577z"/>
			</g>
			<g>
				<path class="st2" d="M3528.7,561.9c-0.4,0-0.8-0.2-1-0.6c-0.2-0.5,0-1.2,0.5-1.4c8.9-4.1,21-4.5,21.5-4.5c0.6,0,1.1,0.5,1.1,1.1
					c0,0.6-0.5,1.1-1.1,1.1c-0.1,0-12.2,0.4-20.7,4.3C3529,561.9,3528.9,561.9,3528.7,561.9z"/>
			</g>
			<g>
				<path class="st2" d="M3589.1,564.8c-0.2,0-0.5-0.1-0.7-0.3c-2.8-2.4-6.5-4.6-11-6.7c-0.5-0.3-0.8-0.9-0.5-1.4
					c0.3-0.5,0.9-0.8,1.4-0.5c4.7,2.2,8.6,4.6,11.5,7.1c0.5,0.4,0.5,1.1,0.1,1.5C3589.7,564.7,3589.4,564.8,3589.1,564.8z"/>
			</g>
			<g>
				<path class="st27" d="M3534.2,643.8c-0.1,0-0.3,0-0.4-0.1c-0.6-0.2-14.2-5.5-19.8-9.3c-0.5-0.3-0.6-1-0.3-1.5
					c0.3-0.5,1-0.6,1.5-0.3c5.3,3.7,19.2,9.1,19.3,9.1c0.6,0.2,0.8,0.8,0.6,1.4C3535,643.6,3534.6,643.8,3534.2,643.8z"/>
			</g>
			<g>
				<path class="st2" d="M3506.2,554.6c0,0,10.9-3.7,26-6.6c1.6-0.3,3.5-8.3,5.1-8.6c0.8-0.1,1.4,7.4,2.3,7.3c6.5-1,13.6-1.8,20.7-2
					c4.2-0.1,8.4,0,12.3,0.2c1.1,0.1,2.5-9.9,3.6-9.8c1.8,0.1,3.3,10.3,4.9,10.5c8.3,0.9,13.9,2.2,13.9,2.2s6.8-27.1-14-43.7
					c-20.8-16.5-44.7-15.7-60.7-1.9C3504.4,516.2,3506.2,554.6,3506.2,554.6z"/>
			</g>
			<g>
				<path class="st2" d="M3513.2,527.7c0,0-1.5,27.1-13.1,41.2c-4.7,5.7-9.4,3.7-13.1,7c-10.8,9.8-34.6,91-44.1,91.9
					c-9.4,0.9-18.7-75.8-2.2-114.8C3465.4,494.7,3534.3,466.1,3513.2,527.7z"/>
			</g>
			<g>
				<g>
					<path class="st14" d="M3491.2,569.4c-1.8-4.6-4.9-8.3-8.7-9.7c-4.1-1.6-9.3-0.9-12.4,9.3c-5.9,19,16.4,46.7,23.4,32.3
						C3498.4,591.2,3494.1,577,3491.2,569.4z"/>
				</g>
				<g>
					<path class="st27" d="M3487.9,598.1c-0.1,0-0.2,0-0.3,0c-0.6-0.2-0.9-0.8-0.7-1.3c0.4-1.4,1.2-5.6-0.3-6.9
						c-0.8-0.7-2-0.5-3.4-0.3c-1.8,0.2-4,0.5-5.1-1.5c-1.5-2.6-3.5-8.6-2.9-14.2c0.6-5.7,4.2-7.2,4.4-7.2c0.6-0.2,1.2,0.1,1.4,0.6
						c0.2,0.6-0.1,1.2-0.6,1.4c-0.1,0.1-2.6,1.1-3,5.4c-0.5,5.1,1.3,10.6,2.6,12.9c0.4,0.7,1.2,0.7,3,0.4c1.6-0.2,3.6-0.5,5.1,0.9
						c2.8,2.5,1.1,8.5,0.9,9.2C3488.8,597.8,3488.4,598.1,3487.9,598.1z"/>
				</g>
			</g>
			<g>
				<path class="st14" d="M3265.3,994c0,0-167.1,175.4-127.4,192.4c39.7,17,155.1-66.6,180.5-113.5c8.8-16.2,8.2-48.4,11.9-72.8
					c-27.5-21-43.1-3.3-62.4-11.4L3265.3,994z"/>
			</g>
			<g>
				<path class="st14" d="M3158.4,1137.2c0,0-6.9,6.7-11.7,7.9c-4.8,1.1-33,14.3-40.3,17.9c-7.3,3.6-22.4,13.1-29.9,18.4
					s-14.9,6.8-12.6,11.4c2.3,4.7,27.4-7.2,27.4-7.2s-31.7,21.4-33.9,25.3c-2.2,3.9,1.7,6.6,4.4,6.6c0,0-9.5,4.2-5.7,10.3
					c3.8,6.1,10.1,0.6,10.1,0.6s0.2,4.7,2.6,5.9c2.4,1.2,22.4-7.9,26.3-10.1c3.9-2.3,37.5-20.5,37.5-20.5s-4.5,6.2-6.2,9
					c-1.7,2.9-13.3,9.7-10.9,17.8c2.4,8.1,8.2,3.5,13.4-3.5c5.2-7,22-15.4,29.1-25.5c7-10.1,10.2-26.5,14.9-32.1
					S3172.5,1134.4,3158.4,1137.2z"/>
			</g>
			<g>
				<path class="st18" d="M3470.2,694.1c0,0,8-30.2,9.7-30.1c1.8,0.1,58,11.2,58,11.2l-5.8,46.5c0,0-22.4,5.4-38.9-1.2
					S3466.5,707.5,3470.2,694.1z"/>
			</g>
			<g>
				<path class="st16" d="M3752.5,914.1c-0.8,0-1.6-0.3-2.1-1c-0.9-1.2-0.8-2.9,0.4-3.8c20.7-16.9,40.1-21.3,40.9-21.5
					c1.5-0.3,2.9,0.6,3.2,2.1c0.3,1.5-0.6,2.9-2.1,3.2l0,0c-0.2,0-19,4.3-38.6,20.4C3753.7,913.9,3753.1,914.1,3752.5,914.1z"/>
			</g>
			<g>
				<path class="st16" d="M3265.3,996.7c-0.8,0-1.6-0.4-2.2-1.1c-0.9-1.2-0.7-2.9,0.5-3.8c1-0.8,24.8-18.5,50-4.7
					c1.3,0.7,1.8,2.4,1.1,3.7c-0.7,1.3-2.4,1.8-3.7,1.1c-22.1-12.1-43.2,3.6-44.1,4.2C3266.4,996.6,3265.9,996.7,3265.3,996.7z"/>
			</g>
			<g>
				<path class="st16" d="M3190.1,1583.8c-1.1,0-2.2-0.7-2.6-1.8c-0.7-2-4.4-11.2-9.6-23.8c-41.6-101.8-89.2-222-88.5-248.2
					c1.5-56.3,38-68.2,39.5-68.7c1.4-0.4,3,0.4,3.4,1.8c0.4,1.4-0.4,2.9-1.8,3.4l0,0c-1.4,0.4-34.3,11.5-35.7,63.7
					c-0.7,28.4,63.8,186.5,88.1,246c5.4,13.2,8.9,21.8,9.7,24c0.5,1.4-0.3,3-1.7,3.5C3190.7,1583.8,3190.4,1583.8,3190.1,1583.8z"/>
			</g>
			<g>
				<path class="st16" d="M3287,1408.8c-1.1,0-2.1-0.6-2.5-1.7c-5.5-13.3-17.6-33-17.7-33.2c-0.8-1.3-0.4-2.9,0.9-3.7
					c1.3-0.8,2.9-0.4,3.7,0.9c0.5,0.8,12.4,20.3,18.1,34c0.6,1.4-0.1,3-1.5,3.5C3287.7,1408.7,3287.3,1408.8,3287,1408.8z"/>
			</g>
			<g>
				<path class="st8" d="M3295,1345.2c-0.8,0-1.5-0.6-1.6-1.3c-0.2-0.9,0.4-1.7,1.3-1.9c0.7-0.1,70.9-12.9,102.7-20.4
					c37-8.7,68.2-17.3,90.9-23.6c11.4-3.1,20.3-5.6,26.4-7.1c50.2-12.2,75.8-30.6,80.6-57.9c5.2-29.5,3.4-109.3,3.4-110.1
					c0-0.9,0.7-1.6,1.6-1.7c0.9,0,1.6,0.7,1.7,1.6c0,0.8,1.8,80.9-3.4,110.8c-5,28.7-31.4,48-83.1,60.5c-6,1.5-14.9,3.9-26.3,7.1
					c-22.8,6.3-54,14.9-91.1,23.7c-31.9,7.5-102.1,20.3-102.8,20.5C3295.2,1345.2,3295.1,1345.2,3295,1345.2z"/>
			</g>
		</g>
		<g>
			<g>
				<g>
					<g>
						<g>
							<path class="st2" d="M1368.3,2052.9c25.4-2.3,44.2-10.4,42.5-23.6c-0.7-0.9-1.4-1.7-2.1-2.3c-5.7-5.5-70-35.6-79.5-43.1
								c-9.5-7.5-17.5-11.3-28.7-11.2c-11.1,0.2-37.8-8.3-47.4-7c-9.6,1.3-8.5,7.7-9.4,15.5c-0.8,7.5-1.9,19.5-2.2,26.8
								c13.2,4.2,48.1,15.6,59.1,22.3C1314.4,2038.8,1341.9,2055.3,1368.3,2052.9z"/>
						</g>
					</g>
					<g>
						<g>
							<path class="st18" d="M1410.8,2029.3c1.7,13.3-17.1,21.3-42.5,23.6c-26.4,2.4-53.9-14.1-67.6-22.5
								c-11.1-6.7-45.9-18.1-59.1-22.3c0,0.3,0,0.6,0,1c-0.2,7.2,5.7,20.5,5.7,20.5c3.1,4.9,7.8,3.1,17.9,7.3s28.7,11.9,48.4,23.9
								c19.7,12,45.7,14.2,60.5,11.2s35.1-8.7,41.4-16.6C1420.8,2048.4,1416,2035.9,1410.8,2029.3z"/>
						</g>
					</g>
				</g>
				<g>
					<g>
						<path class="st28" d="M1315.8,1926.1c11,3.9-9.2,35.7-1.1,44.4c3.6,3.9,7.1,7.9,8.3,10c2.7,4.7-2.2,8.4-22.5,6.7
							c-20.3-1.8-46.2-14.1-47.7-15.9c-0.9-1,12.1-46.5,23.1-51.7C1281,1917.2,1305,1922.3,1315.8,1926.1z"/>
					</g>
				</g>
			</g>
			<g>
				<g>
					<g>
						<g>
							<path class="st2" d="M1837.8,2016.2c26.1-4.7,45.1-14.7,42.8-28.2c-0.8-0.9-1.5-1.6-2.2-2.2c-6.1-5.1-75.6-27.7-85.7-34.6
								c-10.1-6.9-18.5-10.1-29.9-8.9c-11.4,1.2-39.2-5.1-49-2.9s-8.5,8.7-9,16.9c-0.5,7.8-1.2,20.3-1.2,27.9
								c13.7,3.1,50,11.8,61.6,17.7C1779.7,2009.2,1810.8,2021.1,1837.8,2016.2z"/>
						</g>
					</g>
					<g>
						<g>
							<path class="st18" d="M1880.6,1988c2.3,13.5-16.7,23.5-42.8,28.2c-27.1,4.9-58.2-7-72.6-14.4c-11.6-5.9-47.9-14.6-61.6-17.7
								c0,0.3,0,0.7,0,1c0,7.4,3.9,17.9,3.9,17.9c3.4,4.8,18.1,5.5,28.7,8.8c10.5,3.4,26.2,6.7,46.9,17.3
								c20.7,10.6,46.2,10.7,61.4,6.2c15.1-4.5,35.7-12.2,41.9-20.9C1891.7,2006.8,1886.2,1994.3,1880.6,1988z"/>
						</g>
					</g>
				</g>
				<g>
					<g>
						<path class="st28" d="M1719.3,1896.3c12.3,1.3,67.6,52.8,69.2,54.7c3.8,4.3-0.6,9.4-22.1,12.7s-51-3.3-53-4.7
							c-1.2-0.9-31.5-36.2-21.1-44.5C1697.1,1910.7,1707.3,1895,1719.3,1896.3z"/>
					</g>
				</g>
			</g>
			<g>
				<path class="st28" d="M1119.4,967.4c0,0,177.2,204.7,169,219.4c-8.3,14.7-75.6,13-134.2-24.7
					C1095.5,1124.5,1061.8,923.3,1119.4,967.4z"/>
			</g>
			<g>
				<path class="st28" d="M1256.3,1158c21.2,7,62.8,34.2,75.2,48c12.4,13.8,53,64.8,44.4,65.4c-8.5,0.6-25.5-22.3-29.6-23.3
					c0,0,25,35.1,22.6,37.8c-2.4,2.7-8.1,0-8.1,0s-0.9,9.6-5.2,7.5c-4.3-2.1-28.1-30.8-28.1-30.8s13.8,19.1,7.7,21.8
					c-6.2,2.7-34.8-31.3-46.8-39.5c-12-8.2-37.5-15-48.2-25.1C1213,1194.1,1226.7,1148.1,1256.3,1158z"/>
			</g>
			<g>
				<g>
					<g>
						<g>
							<polygon class="st9" points="728,1402.9 545.6,1909.1 561.2,1916.5 772.9,1412.1 							"/>
						</g>
						<g>
							<polygon class="st9" points="802.2,1407.5 690.7,1885.6 707.2,1890.9 847.9,1410.4 							"/>
						</g>
					</g>
					<g>
						<g>
							<polygon class="st9" points="987.2,1437.6 1045.2,1925.1 1028.3,1928.5 941.4,1435.4 							"/>
						</g>
						<g>
							<polygon class="st9" points="1068.4,1414 1202.1,1886.4 1185.9,1892.4 1022.8,1419.1 							"/>
						</g>
					</g>
				</g>
				<g>
					<path class="st6" d="M1202,1359c0,0.7,0,1.4,0,2c0,0.3,0,0.7,0,1c0,0.6,0,1.3-0.1,1.9c0,0.5-0.1,1-0.1,1.4c0,0.3,0,0.5-0.1,0.8
						c0,0.4-0.1,0.9-0.1,1.3c0,0.3-0.1,0.6-0.1,0.9c-0.2,1.7-0.4,3.4-0.8,5.1c-0.1,0.5-0.2,1-0.3,1.5c-0.1,0.6-0.2,1.2-0.4,1.9
						c-0.1,0.4-0.2,0.8-0.2,1.1c-0.1,0.6-0.3,1.1-0.4,1.7c-0.1,0.5-0.3,1-0.4,1.5c-0.1,0.5-0.2,0.9-0.4,1.4
						c-0.4,1.3-0.8,2.6-1.2,3.9c0,0.1,0,0.1,0,0.2c-0.1,0.4-0.2,0.8-0.4,1.1c-0.1,0.4-0.3,0.8-0.4,1.2c-0.2,0.5-0.4,1.1-0.6,1.6
						c-0.2,0.7-0.5,1.3-0.8,2c-0.3,0.7-0.5,1.3-0.8,2c-1,2.4-2.2,4.8-3.4,7.2c-0.3,0.5-0.5,1.1-0.9,1.6c-0.3,0.5-0.6,1.1-0.9,1.6
						c-0.3,0.5-0.6,1.1-0.9,1.6c-0.8,1.3-1.6,2.7-2.4,4c-0.4,0.7-0.8,1.3-1.3,2c-0.4,0.6-0.8,1.2-1.2,1.9c0,0-0.1,0.1-0.1,0.2
						c-0.4,0.6-0.9,1.3-1.3,1.9c-0.4,0.7-0.9,1.3-1.4,1.9c-0.5,0.6-1,1.3-1.4,1.9c-1,1.3-2,2.6-3,3.8c-0.4,0.5-0.8,1-1.2,1.5
						c-0.2,0.2-0.4,0.4-0.5,0.6c-0.4,0.5-0.9,1-1.3,1.5c-0.1,0.1-0.2,0.2-0.2,0.3c-0.4,0.5-0.9,1-1.3,1.4c-0.2,0.2-0.5,0.5-0.7,0.8
						c-0.4,0.4-0.8,0.9-1.2,1.3c-1.7,1.8-3.5,3.6-5.4,5.4c-0.6,0.6-1.2,1.2-1.9,1.7c-0.6,0.6-1.3,1.1-1.9,1.7
						c-0.6,0.6-1.3,1.1-2,1.7c-1.3,1.1-2.7,2.2-4.1,3.3c-2.1,1.6-4.2,3.2-6.5,4.8c-0.7,0.5-1.5,1-2.2,1.5c-0.8,0.5-1.5,1-2.3,1.5
						c-1.5,1-3.1,2-4.7,2.9c-0.8,0.5-1.6,0.9-2.4,1.4c-0.8,0.4-1.5,0.9-2.3,1.3c-0.2,0.1-0.3,0.2-0.5,0.3c-0.6,0.3-1.3,0.7-1.9,1
						c-0.3,0.2-0.6,0.3-0.9,0.4c-0.6,0.3-1.2,0.6-1.9,1c-0.9,0.4-1.8,0.9-2.6,1.3c-1.7,0.8-3.5,1.6-5.3,2.4
						c-0.9,0.4-1.8,0.8-2.7,1.1c-0.9,0.4-1.7,0.7-2.6,1c-0.2,0.1-0.4,0.2-0.6,0.2c-0.8,0.3-1.5,0.6-2.3,0.9c-0.1,0-0.1,0.1-0.2,0.1
						c-1.8,0.7-3.7,1.3-5.6,1.9c-6,2-12.3,3.6-18.8,4.9c-6.1,1.2-12.3,2.2-18.9,2.8c-105.2,10.3-334.9-6.6-402.5-139.9
						c-37.4-73.8-66.6-334-12.8-452.1c15.5-34,37.9-56.1,68.9-58.7c75.1-6.3,121.3,28,152.5,75.5c26.5,40.3,42.4,90.1,56.2,132.8
						c16.1,49.6,30.2,89.4,45.3,121.6c2.1,4.5,4.2,8.9,6.4,13.2c0.8,1.5,1.5,3,2.3,4.5c0.8,1.6,1.7,3.2,2.5,4.8
						c0.4,0.7,0.8,1.5,1.2,2.2c0.3,0.5,0.5,0.9,0.8,1.4c0.5,0.8,0.9,1.6,1.4,2.4c0.9,1.6,1.9,3.2,2.8,4.8c0.5,0.8,0.9,1.6,1.4,2.3
						c2.9,4.7,5.9,9.3,8.9,13.6c0.4,0.6,0.9,1.3,1.3,1.9c0.5,0.7,1,1.4,1.5,2.1c1.2,1.7,2.4,3.3,3.7,4.9c0.5,0.6,1,1.2,1.5,1.9
						c2.4,3.1,4.9,6,7.4,8.9c42.8,48,133,30.2,174.7,103.1c0.3,0.5,0.5,1,0.8,1.5C1199.9,1339,1202.1,1348.7,1202,1359z"/>
				</g>
				<g>
					<path class="st29" d="M1197.3,1386.5c0,0.1,0,0.1,0,0.2c-0.1,0.4-0.2,0.8-0.4,1.1c-0.1,0.4-0.3,0.8-0.4,1.2
						c-0.2,0.5-0.4,1.1-0.6,1.6c-0.2,0.7-0.5,1.3-0.8,2c-0.3,0.7-0.5,1.3-0.8,2c-1,2.4-2.2,4.8-3.4,7.2c-0.3,0.5-0.5,1.1-0.9,1.6
						c-0.3,0.5-0.6,1.1-0.9,1.6c-0.3,0.5-0.6,1.1-0.9,1.6c-0.8,1.3-1.6,2.7-2.4,4c-0.4,0.7-0.8,1.3-1.3,2c-0.4,0.6-0.8,1.2-1.2,1.9
						c0,0-0.1,0.1-0.1,0.2c-0.4,0.6-0.9,1.3-1.3,1.9c-0.4,0.7-0.9,1.3-1.4,1.9c-0.5,0.6-1,1.3-1.4,1.9c-1,1.3-2,2.6-3,3.8
						c-0.4,0.5-0.8,1-1.2,1.5c-0.2,0.2-0.4,0.4-0.5,0.6c-0.4,0.5-0.9,1-1.3,1.5c-0.1,0.1-0.2,0.2-0.2,0.3c-0.4,0.5-0.9,1-1.3,1.4
						c-0.2,0.2-0.5,0.5-0.7,0.8c-0.4,0.4-0.8,0.9-1.2,1.3c-1.7,1.8-3.5,3.6-5.4,5.4c-0.6,0.6-1.2,1.2-1.9,1.7
						c-0.6,0.6-1.3,1.1-1.9,1.7c-0.6,0.6-1.3,1.1-2,1.7c-1.3,1.1-2.7,2.2-4.1,3.3c-2.1,1.6-4.2,3.2-6.5,4.8c-0.7,0.5-1.5,1-2.2,1.5
						c-0.8,0.5-1.5,1-2.3,1.5c-1.5,1-3.1,2-4.7,2.9c-0.8,0.5-1.6,0.9-2.4,1.4c-0.8,0.4-1.5,0.9-2.3,1.3c-0.2,0.1-0.3,0.2-0.5,0.3
						c-0.6,0.3-1.3,0.7-1.9,1c-0.3,0.2-0.6,0.3-0.9,0.4c-0.6,0.3-1.2,0.6-1.9,1c-0.9,0.4-1.8,0.9-2.6,1.3c-1.7,0.8-3.5,1.6-5.3,2.4
						c-0.9,0.4-1.8,0.8-2.7,1.1c-0.9,0.4-1.7,0.7-2.6,1c-0.2,0.1-0.4,0.2-0.6,0.2c-0.8,0.3-1.5,0.6-2.3,0.9c-0.1,0-0.1,0.1-0.2,0.1
						c-1.8,0.7-3.7,1.3-5.6,1.9c-6,2-12.3,3.6-18.8,4.9c-20.7-13.3-57.8-27.8-73.4-31.7c-34.8-8.7-127.3-44.3-166.9-63.1
						c-39.6-18.8-52.7-63.8-46.2-103.9c5.6-34.8-86.8-282.2-147.7-390.4c15.5-34,37.9-56.1,68.9-58.7c75.1-6.3,121.3,28,152.5,75.5
						c15.4,106.6,34.1,211,49.8,224.8c7.6,6.7,26.5,17.1,51.6,29.5c2.1,4.5,4.2,8.9,6.4,13.2c0.8,1.5,1.5,3,2.3,4.5
						c0.8,1.6,1.7,3.2,2.5,4.8c0.4,0.7,0.8,1.5,1.2,2.2c0.3,0.5,0.5,0.9,0.8,1.4c0.5,0.8,0.9,1.6,1.4,2.4c0.9,1.6,1.9,3.2,2.8,4.8
						c0.5,0.8,0.9,1.6,1.4,2.3c2.9,4.7,5.9,9.3,8.9,13.6c0.4,0.6,0.9,1.3,1.3,1.9c0.5,0.7,1,1.4,1.5,2.1c1.2,1.7,2.4,3.3,3.7,4.9
						c0.5,0.6,1,1.2,1.5,1.9c2.4,3.1,4.9,6,7.4,8.9c42.8,48,133,30.2,174.7,103.1c0.3,0.5,0.5,1,0.8,1.5
						C1202.8,1344.8,1203.2,1365,1197.3,1386.5z"/>
				</g>
			</g>
			<g>
				<path class="st3" d="M1234.5,1182.7c0,0,258,150.5,327.9,220.2c91.5,91.2,201.3,510.9,201.3,510.9l0,0
					c-21.4,25.7-51,43.1-83.8,49.3l-32.7,6.2l-214.6-465.7c0,0-250.2-87.2-330.6-151.7c-80.4-64.5-101-122.3-101-122.3
					L1234.5,1182.7z"/>
			</g>
			<g>
				<path class="st3" d="M1101.3,1220.8c0,0,297.1,126.9,337.2,219.1c19,43.8,2.1,114.1-11.9,198.7c-24,144.8-55.1,311.2-55.1,311.2
					s-30.3,11.2-62,9.2c-34.2-2.2-61.8-24.2-61.8-24.2l19.3-438.5c0,0-217.8-41.7-298.2-106.2s-101-122.3-101-122.3L1101.3,1220.8z"
					/>
			</g>
			<g>
				<path class="st30" d="M905.6,691.3c-38.7-2.9-92.9,5.3-144.4,59.1c-55.1,57.6-45.8,178.1-18.5,292.5
					c4.5,18.7,19.1,42.1,24.4,60.1c6.6,22.8,3.9,40,11,60.8c10.8,31.7,26.8,55.1,36.4,78.3c8.3,20.2,10.5,41.3,15.7,51.9
					c8.8,17.8,216.5-31.3,216.5-31.3s215.3-44.3,198.8-79.9c-9.4-20.1-104.1-181.1-109.7-195c-47.8-118.6-39.1-184.1-79.3-231.7
					C1027.5,721.8,1010.8,699.2,905.6,691.3z"/>
			</g>
			<g>
				<path class="st8" d="M872.1,691.5c0,0-16.2,0.3-20,9c-3.8,8.7,10.4,18,52.2,18.6s54-8.9,40.4-20.3
					C933.4,689.4,906.1,689.7,872.1,691.5z"/>
			</g>
			<g>
				<path class="st28" d="M862.9,617.9c0,0,2.7,24.1,3.3,47.1c0.5,18-1.8,35.2,3.2,40.4c4.7,4.8,52.4,7.1,59.5,0.3
					c7.1-6.8-10.8-65.7-10.8-65.7L862.9,617.9z"/>
			</g>
			<g>
				<path class="st28" d="M903.7,523.8c-21.6,3.3-37.9,21.3-39.4,43.1c-2.1,32.4,0.5,62.7,6.2,71.9c12,19.7,65.4,31.6,87.5,23
					c13.3-5.1,15.3-18.9,15.6-40.7c0.2-14.5-2.6-26.4-2.8-32.5c-0.6-15.4,3-66.8-26.3-67.4C931.9,520.9,917,521.7,903.7,523.8z"/>
			</g>
			<g>
				<path class="st31" d="M917.4,550.3c0,0-20.5,0.5-29.5,9.8c-7.3,7.5-4.5,29.8-10.5,37.8c-6,8-23.3,8.6-29.1,4
					c-14.9-11.6-14.8-47.2-14-56c2.7-30.4,14.4-33.9,31.8-39.7C883.5,500.5,927.7,535.8,917.4,550.3z"/>
			</g>
			<g>
				<g>
					<path class="st2" d="M909.2,583.4c-0.5,0-0.9-0.3-1-0.8c-0.2-0.6,0.1-1.2,0.7-1.4c0.3-0.1,6.9-2.1,11.6-2.1
						c4.6,0,6.9,0.4,7,0.4c0.6,0.1,1,0.7,0.9,1.3c-0.1,0.6-0.7,1-1.3,0.9c0,0-2.2-0.4-6.6-0.4c0,0-0.1,0-0.1,0c-4.3,0-10.8,2-10.8,2
						C909.4,583.4,909.3,583.4,909.2,583.4z"/>
				</g>
				<g>
					<path class="st2" d="M954.5,579.1c-0.5,0-1-0.4-1.1-0.9c-0.1-0.6,0.3-1.2,0.9-1.2c0.3-0.1,8.1-1.3,13.7-0.8
						c0.6,0.1,1,0.6,1,1.2c-0.1,0.6-0.6,1-1.2,1c-5.3-0.5-13,0.8-13.1,0.8C954.6,579.1,954.6,579.1,954.5,579.1z"/>
				</g>
				<g>
					<path class="st2" d="M920.4,580.3c4-0.1,7,3.5,6.3,7.5c-0.4,2.4-1.7,4.8-4.9,5.1c-7,0.8-8.3-9-7.5-10.3
						C914.8,581.7,917.2,580.4,920.4,580.3z"/>
				</g>
				<g>
					<path class="st2" d="M958.7,578.2c3.5-2.8,8.6,0.2,8.4,4.7c-0.2,2.9-1,6.1-3.8,6.6c-5.2,0.9-6-8.9-5.4-10.2
						C958,578.9,958.3,578.5,958.7,578.2z"/>
				</g>
			</g>
			<g>
				<path class="st2" d="M905.6,570.8c-0.5,0-0.9-0.3-1-0.7c-0.2-0.6,0.1-1.2,0.7-1.4c13.2-4.5,25.6-4.2,26.1-4.2
					c0.6,0,1.1,0.5,1.1,1.1c0,0.6-0.5,1.1-1.1,1.1c-0.1,0-12.6-0.2-25.4,4.1C905.8,570.8,905.7,570.8,905.6,570.8z"/>
			</g>
			<g>
				<path class="st2" d="M968,565.9C968,565.9,968,565.9,968,565.9l-14.7-1.2c-0.6,0-1-0.6-1-1.2c0-0.6,0.6-1,1.2-1l14.6,1.2
					c0.6,0,1,0.6,1,1.2C969.1,565.4,968.6,565.9,968,565.9z"/>
			</g>
			<g>
				<g>
					<path class="st28" d="M868.4,592.4c-2.4-3.8-6.2-6.7-10.6-7.8c-4.8-1.1-10.6-0.3-13.4,8.5c-5.1,16.4,22.5,38.7,29.2,26.1
						C878.4,610.5,872.4,598.7,868.4,592.4z"/>
				</g>
				<g>
					<path class="st16" d="M866.9,618.1c-0.2,0-0.4,0-0.6-0.1c-1.2-0.3-1.8-1.5-1.5-2.7c0.3-1.2,0.6-3.7-0.4-4.3
						c-0.7-0.4-2.2-0.2-3.5,0c-2.2,0.3-4.8,0.7-6.6-1.3c-2-2.3-5-7.6-4.8-12.9c0.2-4.6,3.3-6.9,5.1-7.5c1.1-0.4,2.4,0.2,2.8,1.4
						c0.4,1.1-0.2,2.3-1.3,2.7c-0.2,0.1-2.1,0.9-2.2,3.6c-0.1,3.7,2.1,8,3.7,9.8c0.2,0.3,2,0,2.7-0.1c1.9-0.3,4.3-0.6,6.3,0.6
						c4.2,2.5,2.5,8.6,2.3,9.3C868.7,617.5,867.9,618.1,866.9,618.1z"/>
				</g>
			</g>
			<g>
				<path class="st16" d="M943.3,590.7c0.2-1.1,1.6-1.5,2.3-0.6c2,2.5,5.8,6.4,11.7,9.8c8.7,5,8.3,10.8-3,10.2
					c-11.3-0.6-12.3-1.5-12.5-7.3C941.8,599.7,942.7,594.2,943.3,590.7z"/>
			</g>
			<g>
				<path class="st32" d="M812.4,826.5c0,0,27.8,191.3,28.4,268.6c0.3,42.2,2.7,67.1,2.7,67.1l-77.3-20.8L812.4,826.5z"/>
			</g>
			<g>
				<path class="st31" d="M881.3,556.1c0,0,28,0.9,46.3-3.3c18.3-4.2,21.2-5.6,21.2-5.6s-10.7,7.8-2.2,7.5
					c8.5-0.3,23.2-7.4,30.8-18.1c7.6-10.7-0.5-37.3-0.5-37.3s-3.6-20.3-30.1-19.9c-26.5,0.4-101.5,7.4-98.5,38.3
					C851.1,548.5,866.1,557.3,881.3,556.1z"/>
			</g>
			<g>
				<path class="st28" d="M799.1,1134.9c0,0,19.5-210.6,13.1-313c-2.3-35.7-67.5-42.8-79.2-23.2c-9.7,16.2-55.9,114.4-66.6,226
					c-5.9,61.7-12,128.2,31.1,185.7c48.8,65.1,191.4,85.9,286.1,95.4c67.4,6.7,100,1.7,89.6-29.1
					C1059.2,1235.4,799.1,1134.9,799.1,1134.9z"/>
			</g>
			<g>
				<path class="st28" d="M1048.7,1255.1c22.1,3.1,67.9,22.3,82.6,33.6c14.7,11.3,63.8,54.1,55.5,56.3c-8.3,2.1-29.1-17.3-33.4-17.6
					c0,0,30.9,30,29.1,33c-1.8,3.1-7.9,1.5-7.9,1.5s0.8,9.6-3.7,8.3c-4.6-1.3-33.2-25.2-33.2-25.2s17.1,16.3,11.5,20.1
					c-5.6,3.8-39.9-24.5-53.2-30.4c-13.3-5.9-39.6-8-52-16C1012.6,1298.4,1017.8,1250.8,1048.7,1255.1z"/>
			</g>
			<g>
				<g>
					<path class="st30" d="M804.8,1116.9c3.8-40.6,13-205.4,7.3-294.9c-2.3-35.7-56.3-68-68-48.4c-9.7,16.2-44,29.1-73.4,176.1
						c-6.2,31.1-23.3,137.6-19.8,169.9C674.6,1123,745.6,1127.2,804.8,1116.9z"/>
				</g>
			</g>
			<g>
				<path class="st28" d="M1255.7,1180.1c6.3,3.9,11.2,9.6,14.4,16.2c3,6.2,7.1,15.3,9.6,24.8c4.5,17.1,10.8,14.7,12.1,24.9
					c1.3,10.1-10,4.1-18.4-4.4c-8.5-8.5-27.7-36-30.8-51.7C1240.2,1177.6,1245.4,1173.7,1255.7,1180.1z"/>
			</g>
			<g>
				<g>
					<path class="st8" d="M650.6,1101.8c-0.2,7.1-0.2,13.2,0.3,17.7c23.6,3.5,94.6,7.7,153.8-2.6c0.4-4.3,0.9-10.1,1.4-16.9
						C757.3,1107.3,672.7,1103.1,650.6,1101.8z"/>
				</g>
			</g>
			<g>
				<path class="st23" d="M1432.8,1557.1c-0.2,0-0.5,0-0.7-0.1c-1.4-0.4-2.3-1.9-1.9-3.3c0.1-0.5,14.4-52.7,12.1-86.6
					c-0.1-2-0.3-3.9-0.4-5.8c-1.9-30.5-3-47.3-53.2-85.4c-53.5-40.7-183-111.5-184.3-112.2c-1.3-0.7-1.8-2.4-1.1-3.7
					c0.7-1.3,2.4-1.8,3.7-1.1c1.3,0.7,131.1,71.7,184.9,112.6c52.2,39.7,53.4,58.4,55.3,89.4c0.1,1.9,0.2,3.8,0.4,5.8
					c2.4,34.8-11.7,86.2-12.3,88.4C1435.1,1556.3,1434,1557.1,1432.8,1557.1z"/>
			</g>
			<g>
				<path class="st23" d="M1299.1,1533.4c-1.1,0-2.2-0.7-2.6-1.8c-6.6-19.4-30.6-32.7-30.9-32.9c-1.3-0.7-1.8-2.4-1.1-3.7
					c0.7-1.3,2.4-1.8,3.7-1.1c1.1,0.6,26.1,14.5,33.4,35.9c0.5,1.4-0.3,3-1.7,3.4C1299.7,1533.3,1299.4,1533.4,1299.1,1533.4z"/>
			</g>
			<g>
				<path class="st16" d="M924.7,665.7c-0.1,0-0.1,0-0.2,0c-34.5-2.7-45.4-15.4-45.9-15.9c-0.8-0.9-0.6-2.3,0.3-3.1
					c0.9-0.8,2.3-0.6,3.1,0.3c0.1,0.2,10.5,11.8,42.9,14.4c1.2,0.1,2.1,1.1,2,2.3C926.8,664.9,925.8,665.7,924.7,665.7z"/>
			</g>
		</g>
		<g>
			<g>
				<path class="st6" d="M301.5,1762.5c0,0-45.8-132.2-43.1-185.8c2.7-53.6,17.2-75.1,21-107.5c3.7-32.3-27.2-49.8-26-84.7
					c1.2-34.9,25.7-89.6,25.7-89.6s22.1,63.4,32.7,86.6s-14.8,67.4-8.9,88.5s41.5,88.9,49.7,125.2c8.2,36.4,25.6,172.1,25.6,172.1
					L301.5,1762.5z"/>
				<path class="st33" d="M311.9,1754.1c0,0-39.8-104-40-134.3c-0.2-30.2,1.6-82,5.8-101.6c4.2-19.5,9.9-41.2,10.2-47.4
					c0.3-6.2-8.8-42.2-17-56.1c-8.2-13.9-14.6-23.4-10.7-42.9c3.8-19.5,16.6-54.9,16.6-54.9s19.4,48.2,23.7,67.4
					c4.3,19.2,1.6,36.2-1.3,58.3c-2.9,22.2-2.8,86.4,5,100.9c7.8,14.4,13.9,4.5,27.6,36.5c13.7,32.1,13.4,77.5,17.3,117.1
					c4,39.6,7.8,62.3,4.8,64.7C350.9,1764.4,311.9,1763.6,311.9,1754.1z"/>
			</g>
			<g>
				<path class="st6" d="M390.7,1720.1c0,0,8-76.1,17.3-98.6c9.3-22.5,19.5-47.4,28.4-68.5c8.9-21.1,15.1-38.4,21.1-65.9
					c6-27.5,53.5-113.3,53.5-113.3s11,115.3,6.7,149.2c-4.4,34-17.9,82-19.9,106.5c-2,24.5-13.1,136.1-38.3,142.8
					C434.2,1778.8,386,1757.5,390.7,1720.1z"/>
				<path class="st33" d="M406.6,1747.3c0,0,8-63.3,8.8-80.2c0.8-17-0.1-38.1,7.9-52.1s34.1-53.4,36-76.9c1.8-23.5-1.2-31,10.8-47.7
					c12-16.7,22.6-28.4,23.6-38.7c1-10.3,4.3-13,5.9-7.8c1.6,5.1,10.7,34.3,6.5,50.6c-4.2,16.2-17.1,67.4-12.7,84.2
					c4.4,16.8-5.4,69.4-10.6,87.5s-24.2,37.6-21.8,53.4c2.4,15.8-8.6,56.7-26,54.9S406.6,1747.3,406.6,1747.3z"/>
			</g>
			<g>
				<path class="st6" d="M334.5,1675.1c0,0-4.3-155.1,2.7-203.1c7-48,14.5-101.1,21.3-146.1c6.8-45,11-81.7,13.1-138.6
					c2.1-56.9,39.6-154.7,39.6-154.7s37.4,138.9,38.3,208.3c1,69.4-6.4,169.9-4.3,219.6c2.1,49.7,9.1,277-19.7,298
					C396.8,1779.6,335.7,1751.6,334.5,1675.1z"/>
				<path class="st33" d="M358.4,1763.1c0,0-2.1-167.5-4.2-201.8c-2.1-34.3-7-76.4,0-106.9c7-30.5,30.9-117.5,28.8-165.2
					c-2.1-47.7-7-61.7,4.2-98.9c11.2-37.2,21.7-63.8,21-84.9s2.8-27.4,5.6-17.5c2.8,9.8,18.9,65.5,16.8,99.4s-8,140.4,0.2,172.7
					c8.2,32.3,6.1,140.8,3.3,178.8s-22,82.9-16.2,113.7s0.1,116.3-20.9,118.1C375.9,1772.6,358.4,1763.1,358.4,1763.1z"/>
			</g>
		</g>
	</g>
	<path class="st23" d="M4176.3,753.6c-9.4,11.6-20.1,22-32,31.1c-11.2,8.5-22.3,17-32.4,26.8c-4.6,4.4-9.8,8.8-13.2,14.4
		c-3.1,5.2-5.4,10.7-7.2,16.5c-3.9,13-6.2,26.8-7.7,40.3c-0.4,3.2,4.6,3.2,5,0c1.5-13,3.8-26.4,7.6-39c1.9-6.5,4.6-13.3,8.9-18.6
		c4.1-5,9.3-9.4,14-13.8c10-9.1,20.9-17,31.5-25.4c10.8-8.5,20.4-18.2,29-28.9C4181.8,754.6,4178.3,751.1,4176.3,753.6z"/>
	<path class="st32" d="M1165.4,1038.6c-7.8-16.2-15.5-32.5-23.9-48.4c-8.2-15.6-18-29.6-28.2-43.9c-10-13.9-19.3-28.3-29.3-42.2
		c-9.9-13.7-18.6-27.7-25.8-43.1c-8.5-18.3-12.9-37.4-17-57.1c-0.8-3.8-6.6-2.2-5.8,1.6c3.6,17.1,7.1,34.1,13.9,50.2
		c6.6,15.6,14.5,30.2,24.3,44.1c9.8,13.9,19.6,27.8,29.2,41.9c10.2,14.9,21.2,28.8,29.9,44.7c9.9,18,18.6,36.7,27.6,55.2
		C1161.9,1045.1,1167.1,1042,1165.4,1038.6z"/>
	<path class="st32" d="M1067.3,850c-4.2,4.2-8.5,8.5-12.7,12.7c-2.7,2.7,1.5,7,4.2,4.2c4.2-4.2,8.5-8.5,12.7-12.7
		C1074.3,851.5,1070.1,847.3,1067.3,850z"/>
	<path class="st16" d="M4299.2,983.1c0,2.6-1.4,4.7-2.2,7c-0.8,2.3-1.3,4.8-1.7,7.2c-0.9,4.9-0.6,10-1.2,14.9
		c-1.4,12.1-1,24.2-1.2,36.4c-0.1,6.1-1.3,12.3-2.3,18.4c-0.9,5.3-0.6,10.6-1.2,16c-0.6,6-2.2,11.9-2.9,17.9
		c-0.7,6.7-1.1,13.5-1.1,20.3c0,3.9,6,3.9,6,0c0-6.5,0.3-12.9,1-19.4c0.6-6,2.2-11.9,2.9-17.9c0.7-6.3,0.7-12.5,1.6-18.7
		c0.8-5.5,1.9-10.9,2-16.5c0.2-12.1-0.3-24,1.2-36c0.6-5.2,0.3-10.9,1.5-16c1-4.5,3.7-8.8,3.7-13.5
		C4305.3,979.2,4299.3,979.2,4299.2,983.1z"/>
	<path class="st22" d="M3398.6,740.1c-7.1,11.6-13.9,22.6-23.5,32.4c-8,8.3-17.3,15.4-24.3,24.7c-7.4,9.7-13.3,21.1-17.6,32.5
		c-4.6,12.1-5.2,23.7-2.4,36.2c0.8,3.8,6.6,2.2,5.8-1.6c-1.4-6.4-2.4-12.8-1.3-19.3c1.1-6.2,2.9-12,5.4-17.8
		c4.9-11.1,10.8-22.3,19.1-31.3c7.4-8,15.9-14.9,23.3-22.9c8.3-9.1,14.4-19.3,20.8-29.8C3405.9,739.8,3400.7,736.8,3398.6,740.1z"/>
	<path class="st22" d="M3330.1,1012.9c-3.2,10.2-6.3,20.5-8.6,30.9c-1,4.5-2,9-2.3,13.6c-0.4,5,0.5,9.8,0.5,14.7
		c-0.1,3.9,5.9,3.9,6,0c0.1-4.3-0.8-8.6-0.6-13c0.3-5.3,1.4-10.5,2.6-15.6c2.3-9.8,5.2-19.5,8.2-29.1
		C3337.1,1010.8,3331.3,1009.3,3330.1,1012.9z"/>
	<path class="st22" d="M3536.3,688.6c-0.3,1.1-2.3,2.5-3.1,3.2c-1.5,1.3-3.1,2.5-4.6,3.8c-3.1,2.7-6.2,5.4-9.4,8
		c-2,1.6,0.9,4.4,2.8,2.8c3.9-3.2,7.6-6.6,11.5-9.7c2.3-1.9,5.8-4,6.7-7C3540.9,687.2,3537.1,686.1,3536.3,688.6z"/>
	<path class="st34" d="M958.4,625.8c-9.4,3.4-18.3,1.1-27-3.2c-1.7-0.9-3.2,1.7-1.5,2.6c9.3,4.7,19.1,7.3,29.3,3.6
		C961,628.1,960.2,625.2,958.4,625.8z"/>
</g>
</svg>
