<svg version="1.1" id="Layer_1" xmlns="http://www.w3.org/2000/svg" x="0" y="0" viewBox="0 0 800 500" style="enable-background:new 0 0 800 500" xml:space="preserve"><style>.st1{fill-rule:evenodd;clip-rule:evenodd;fill:#017843}.st2{fill:#fff}.st3{fill-rule:evenodd;clip-rule:evenodd;fill:#039e53}.st5{fill:#24294c}.st32{fill:#130152}.st33,.st36,.st37{fill-rule:evenodd;clip-rule:evenodd;fill:#fff}.st36,.st37{fill:#ffc2a8}.st37{fill:#daf5f0}.st61{fill:#521919}.st62{fill-rule:evenodd;clip-rule:evenodd}.st63{fill:#d90804}.st63,.st64{fill-rule:evenodd;clip-rule:evenodd}.st64,.st74{fill:#ff592b}</style><path style="fill-rule:evenodd;clip-rule:evenodd;fill:#671cc9" d="M0-.5h800v500H0z"/><path class="st1" d="M278.9 401.4c-8.9 52.9 16.1 105.8 62.7 132.4 8.3 2 12.5 3 12.5 3 7.7-56.8-22.9-111.9-75.2-135.4z"/><path class="st2" d="M284.8 409.8c-.3-.5-.9-.7-1.5-.5-.5.3-.7.9-.5 1.5l63.9 125c.3.5.9.7 1.5.5.5-.3.7-.9.5-1.5l-63.9-125z"/><path class="st1" d="M192.7 508.6c39.2 36.6 97.1 45 145 20.8 6.2-5.8 9.4-8.8 9.4-8.8-43.1-37.8-105.9-42.7-154.4-12z"/><path class="st2" d="M342.5 523.9 203 508.2c-.6-.1-1.1.4-1.2 1-.1.6.4 1.1 1 1.2l139.5 15.7c.6.1 1.1-.4 1.2-1 .1-.6-.4-1.1-1-1.2z"/><path class="st3" d="M207.4 437.7c17.1 50.8 64.1 85.6 117.7 87.2 8.3-2.2 12.4-3.3 12.4-3.3-19.9-53.7-72.9-87.9-130.1-83.9z"/><path class="st2" d="M216.6 442.3c-.5-.3-1.2-.2-1.5.3-.3.5-.2 1.2.3 1.5l115.4 80c.5.3 1.2.2 1.5-.3.3-.5.2-1.2-.3-1.5l-115.4-80z"/><path class="st1" d="M510.6 530.8s4.1-1.2 12.3-3.7c45-29.3 66.9-83.5 55-135.8-50.9 26.5-78.3 83.2-67.3 139.5z"/><path class="st2" d="M573.9 399.5c-.5-.2-1.2 0-1.4.6l-56.7 128.4c-.2.5 0 1.2.6 1.4.5.2 1.2 0 1.4-.6L574.4 401c.3-.6 0-1.2-.5-1.5z"/><path class="st1" d="M491.1 511s2.8 3.2 8.4 9.7c45.2 28.9 103.6 26.6 146.4-5.8-45-35.5-108.1-37.1-154.8-3.9z"/><path class="st2" d="m635.7 513.5-140.4 1.2c-.6 0-1.1.5-1.1 1.1 0 .6.5 1.1 1.1 1.1l140.4-1.2c.6 0 1.1-.5 1.1-1.1 0-.6-.5-1.1-1.1-1.1z"/><path class="st3" d="M509.7 528.7s4.1 1.1 12.4 3.3c53.6-1.5 100.6-36.3 117.7-87.2-57.2-4-110.2 30.2-130.1 83.9z"/><path class="st2" d="m630.6 449.4-115.4 80c-.5.3-.6 1-.3 1.5s1 .6 1.5.3l115.4-80c.5-.3.6-1 .3-1.5s-1-.6-1.5-.3z"/><path d="M436 437.8c-66.5-7.9-99.7-11.9-99.7-11.9-12.3 79.1-18.5 118.7-18.5 118.7h84.7c22.6-53.5 33.9-80.3 33.9-80.3l-10.9 7 10.5-33.5z" style="fill-rule:evenodd;clip-rule:evenodd;fill:#090b19"/><path class="st5" d="M410.2 459.7c-.4-.1-.9.1-1 .6l-24 84.2v.2h1.7l23.9-84c.1-.4-.1-.9-.6-1z"/><path d="M513.5 427.6s-36.9 6.4-110.6 19.1c33.7 65.3 50.6 98 50.6 98h87.1l-14.1-55.2c-1.9-21.1-6.3-41.8-13-61.9z" style="fill-rule:evenodd;clip-rule:evenodd;fill:#141735"/><defs><filter id="Adobe_OpacityMaskFilter" filterUnits="userSpaceOnUse" x="445.7" y="430.1" width="89.3" height="114.6"><feColorMatrix values="1 0 0 0 0 0 1 0 0 0 0 0 1 0 0 0 0 0 1 0"/></filter></defs><mask maskUnits="userSpaceOnUse" x="445.7" y="430.1" width="89.3" height="114.6" id="SVGID_1_"><g style="filter:url(#Adobe_OpacityMaskFilter)"><linearGradient id="SVGID_2_" gradientUnits="userSpaceOnUse" x1="-410.829" y1="685.678" x2="-304.329" y2="619.818" gradientTransform="translate(836.48 -158.284)"><stop offset="0" style="stop-color:#000"/><stop offset="1" style="stop-color:#fff"/></linearGradient><path style="fill:url(#SVGID_2_)" d="M445.7 430.1H535v114.6h-89.3z"/></g></mask><path d="M508.3 430.1s-20.9 5.7-62.6 17.1c68 9.4 34.2 75.7 51.3 97.5h38s-5-19.1-15-57.2c-.3-12.5-4.2-31.7-11.7-57.4z" style="mask:url(#SVGID_1_);fill-rule:evenodd;clip-rule:evenodd;fill:#090b19"/><path class="st5" d="m507.9 492-19.4-66.4c-.1-.4-.6-.7-1-.6-.4.1-.7.6-.6 1l19.4 66.4 16.2 52.1h1.7v-.2L507.9 492z"/><path d="M506.3 177.8c-3-2.9-6.3-5.4-10-7.7-14.8-9-48.2-13.7-65-17.2-54.6 18.6-81.9 28-81.9 28-6.2 3.4-15.6 8.3-23.3 12.2-16.9 8.6-18.8 13.1-32.3 23.1-13.2 57.3 1.9 100.1 45.2 128.5l-17.8-.2c10.1 54.3 15.1 81.5 15.1 81.5 55.7 29 121 29.6 177.2 1.7L502.7 347l-44-.6c26.7-7.3 46.1-16.9 58.3-28.8 0 0 8.5-12.5 25.6-37.4 1.5.7 3.2.5 4.6-.4-14.2-50.3-20.9-83-40.9-102z" style="fill-rule:evenodd;clip-rule:evenodd;fill:#3c219c"/><defs><filter id="Adobe_OpacityMaskFilter_1_" filterUnits="userSpaceOnUse" x="356.3" y="364.6" width="150.4" height="73.4"><feColorMatrix values="1 0 0 0 0 0 1 0 0 0 0 0 1 0 0 0 0 0 1 0"/></filter></defs><mask maskUnits="userSpaceOnUse" x="356.3" y="364.6" width="150.4" height="73.4" id="SVGID_3_"><g style="filter:url(#Adobe_OpacityMaskFilter_1_)"><linearGradient id="SVGID_4_" gradientUnits="userSpaceOnUse" x1="-360.657" y1="725.178" x2="-286.067" y2="627.668" gradientTransform="translate(747.088 -264.997)"><stop offset="0" style="stop-color:#000"/><stop offset="1" style="stop-color:#fff"/></linearGradient><path style="fill:url(#SVGID_4_)" d="M356.3 364.6h150.4V438H356.3z"/></g></mask><path d="M356.3 382.6c54.1 1.1 86.5 19.5 97.3 55.3 17.9-2.9 35.6-8 53.1-15.4-5.3-38.6-7.9-57.9-7.9-57.9-44.4-1-91.9 5-142.5 18z" style="mask:url(#SVGID_3_);fill-rule:evenodd;clip-rule:evenodd;fill:#130152"/><defs><filter id="Adobe_OpacityMaskFilter_2_" filterUnits="userSpaceOnUse" x="369.7" y="222" width="124.4" height="115.3"><feColorMatrix values="1 0 0 0 0 0 1 0 0 0 0 0 1 0 0 0 0 0 1 0"/></filter></defs><mask maskUnits="userSpaceOnUse" x="369.7" y="222" width="124.4" height="115.3" id="SVGID_5_"><g style="filter:url(#Adobe_OpacityMaskFilter_2_)"><linearGradient id="SVGID_6_" gradientUnits="userSpaceOnUse" x1="-429.819" y1="562.177" x2="-291.379" y2="675.766" gradientTransform="translate(760.501 -365.607)"><stop offset="0" style="stop-color:#000"/><stop offset="1" style="stop-color:#fff"/></linearGradient><path style="fill:url(#SVGID_6_)" d="M369.7 222h124.4v115.3H369.7z"/></g></mask><path d="M484.2 297.9c-1.7.4-3.4.5-5.1.5-7.7-16.1-14-35.3-19-57.8-2.8-3.3-5.9-9.4-9.5-18.6 2.4 21.7-5.6 43.3-21.4 58.4-15.8 15.1-37.8 21.9-59.4 18.4 32.6 33.3 64.5 45 95.6 35.1 9.8 4.5 21.5.5 26.5-9.1 4.9-9.5 1.6-21.4-7.7-26.9z" style="mask:url(#SVGID_5_);fill-rule:evenodd;clip-rule:evenodd;fill:#130152"/><defs><filter id="Adobe_OpacityMaskFilter_3_" filterUnits="userSpaceOnUse" x="311.3" y="180.8" width="85.3" height="105.5"><feColorMatrix values="1 0 0 0 0 0 1 0 0 0 0 0 1 0 0 0 0 0 1 0"/></filter></defs><mask maskUnits="userSpaceOnUse" x="311.3" y="180.8" width="85.3" height="105.5" id="SVGID_7_"><g style="filter:url(#Adobe_OpacityMaskFilter_3_)"><linearGradient id="SVGID_8_" gradientUnits="userSpaceOnUse" x1="-336.428" y1="593.171" x2="-353.198" y2="674.871" gradientTransform="translate(702.05 -416.706)"><stop offset="0" style="stop-color:#000"/><stop offset="1" style="stop-color:#fff"/></linearGradient><path style="fill:url(#SVGID_8_)" d="M311.3 180.8h85.3v105.5h-85.3z"/></g></mask><path d="M349.4 180.8c-7.7 4.3-16.1 8.7-25.1 13.2-11.6 7.7-16.1 22.6-10.7 35.4 2.4 9.2 6.6 17.4 12.6 24.8 23.7 21.4 35.5 32 35.5 32 15.9-5.9 28-18.9 32.7-35.2 4.7-16.2 1.5-33.8-8.7-47.2-18-1.3-30.1-9-36.3-23z" style="mask:url(#SVGID_7_);fill-rule:evenodd;clip-rule:evenodd;fill:#674bcc"/><defs><filter id="Adobe_OpacityMaskFilter_4_" filterUnits="userSpaceOnUse" x="323.6" y="351.7" width="86.4" height="95.7"><feColorMatrix values="1 0 0 0 0 0 1 0 0 0 0 0 1 0 0 0 0 0 1 0"/></filter></defs><mask maskUnits="userSpaceOnUse" x="323.6" y="351.7" width="86.4" height="95.7" id="SVGID_9_"><g style="filter:url(#Adobe_OpacityMaskFilter_4_)"><linearGradient id="SVGID_10_" gradientUnits="userSpaceOnUse" x1="-318.14" y1="616.462" x2="-375.55" y2="691.812" gradientTransform="translate(714.4 -255.534)"><stop offset="0" style="stop-color:#000"/><stop offset="1" style="stop-color:#fff"/></linearGradient><path style="fill:url(#SVGID_10_)" d="M323.6 351.7H410v95.7h-86.4z"/></g></mask><path d="M349 383.8c-3.5-6.5-3.6-14.4-.2-21-3.1-13-12.9-14.7-25.1-5 0 0 4.2 22.7 12.6 68 22.8 11.9 47.8 19.2 73.4 21.5 1.6-12.7-2.1-25.5-10.3-35.4-18.9-22.6-40.4-9.6-50.4-28.1z" style="mask:url(#SVGID_9_);fill-rule:evenodd;clip-rule:evenodd;fill:#674bcc"/><defs><filter id="Adobe_OpacityMaskFilter_5_" filterUnits="userSpaceOnUse" x="450.8" y="177.7" width="47.9" height="120.2"><feColorMatrix values="1 0 0 0 0 0 1 0 0 0 0 0 1 0 0 0 0 0 1 0"/></filter></defs><mask maskUnits="userSpaceOnUse" x="450.8" y="177.7" width="47.9" height="120.2" id="SVGID_11_"><g style="filter:url(#Adobe_OpacityMaskFilter_5_)"><linearGradient id="SVGID_12_" gradientUnits="userSpaceOnUse" x1="-340.537" y1="586.106" x2="-385.697" y2="683.596" gradientTransform="translate(841.579 -405.052)"><stop offset="0" style="stop-color:#000"/><stop offset="1" style="stop-color:#fff"/></linearGradient><path style="fill:url(#SVGID_12_)" d="M450.8 177.7h47.9v120.2h-47.9z"/></g></mask><path d="M480.4 233.5c-29.8-25.2.3-40-4.5-55.9-11.4 4.7-20.1 14.3-23.5 26.2-3.4 11.9-1.3 24.6 5.9 34.7 4.3 14 6.4 21.1 6.4 21.1s4.8 12.8 14.5 38.3c12.2-6.4 19.8-19.2 19.5-33-.4-16.6-9.9-24.3-18.3-31.4z" style="mask:url(#SVGID_11_);fill-rule:evenodd;clip-rule:evenodd;fill:#674bcc"/><path class="st2" d="m460.1 240.8-8.6 11.8c-1.4 1.9-4 2.3-5.8.9l-11.9-8.7c-.7-.5-1.2-1.2-1.5-2 0-.5-.1-1-.2-1.5 0-.8.3-1.6.8-2.3l8.7-11.9c1.4-1.9 4-2.3 5.8-.9l6.4 4.7c-.2-.7-.2-1.4 0-2.1l-5.4-3.9c-2.6-1.9-6.3-1.3-8.2 1.3l-8.7 11.9c-.3.4-.5.7-.6 1.1-.3-.3-.6-.6-1-.9l-11.9-8.7c-2.6-1.9-6.3-1.3-8.2 1.3l-8.7 11.9c-.3.4-.6.9-.7 1.3-.3-.4-.7-.7-1.1-1.1l-11.9-8.7c-2.6-1.9-6.3-1.3-8.2 1.3l-8.7 11.9c-.3.4-.5.7-.6 1.1-.3-.3-.6-.6-1-.9L357 239c-2.6-1.9-6.3-1.3-8.2 1.3l-8.7 11.9c-.3.4-.6.9-.7 1.3-.3-.4-.7-.7-1.1-1.1l-11.9-8.7c-2.2-1.6-5.1-1.4-7.1.1.4.3.8.8 1.2 1.2 1.4-1.1 3.4-1.1 4.9 0l11.9 8.7c1.9 1.4 2.3 4 .9 5.8l-8.7 11.9c-1.4 1.9-4 2.3-5.8.9l-8-5.8c-.4.4-1 .7-1.5.9l8.5 6.2c2.6 1.9 6.3 1.3 8.2-1.3l8.7-11.9c.3-.4.6-.9.7-1.3.3.4.7.7 1.1 1.1l11.9 8.7c2.6 1.9 6.3 1.3 8.2-1.3l8.7-11.9c.3-.4.5-.7.6-1.1.3.3.6.6 1 .9l11.9 8.7c2.6 1.9 6.3 1.3 8.2-1.3l8.7-11.9c.3-.4.6-.9.7-1.3.3.4.7.7 1.1 1.1l11.9 8.7c2.6 1.9 6.3 1.3 8.2-1.3l8.7-11.9c.3-.4.5-.7.6-1.1.3.3.6.6 1 .9l11.9 8.7c2.6 1.9 6.3 1.3 8.2-1.3l8-11c-.3-.5-.5-1-.6-1.6-.1.1-.1 0-.2-.1zM369 255l-8.7 11.9c-1.4 1.9-4 2.3-5.8.9l-11.9-8.7c-1.9-1.4-2.3-4-.9-5.8l8.7-11.9c1.4-1.9 4-2.3 5.8-.9l11.9 8.7c.7.5 1.2 1.2 1.5 2 0 .5.1 1 .2 1.5 0 .8-.3 1.6-.8 2.3zm30.3-4.7-8.7 11.9c-1.4 1.9-4 2.3-5.8.9l-11.9-8.7c-.7-.5-1.2-1.2-1.5-2 0-.5-.1-1-.2-1.5 0-.8.3-1.6.8-2.3l8.7-11.9c1.4-1.9 4-2.3 5.8-.9l11.9 8.7c1.8 1.3 2.3 3.9.9 5.8zm30.6-4.8-8.7 11.9c-1.4 1.9-4 2.3-5.8.9l-11.9-8.7c-1.9-1.4-2.3-4-.9-5.8l8.7-11.9c1.4-1.9 4-2.3 5.8-.9l11.9 8.7c.7.5 1.2 1.2 1.5 2 0 .5.1 1 .2 1.5-.1.8-.3 1.6-.8 2.3z"/><defs><filter id="Adobe_OpacityMaskFilter_6_" filterUnits="userSpaceOnUse" x="274.7" y="257.5" width="23.8" height="5.6"><feColorMatrix values="1 0 0 0 0 0 1 0 0 0 0 0 1 0 0 0 0 0 1 0"/></filter></defs><mask maskUnits="userSpaceOnUse" x="274.7" y="257.5" width="23.8" height="5.6" id="SVGID_13_"><g style="filter:url(#Adobe_OpacityMaskFilter_6_)"><linearGradient id="SVGID_14_" gradientUnits="userSpaceOnUse" x1="-398.855" y1="651.216" x2="-354.185" y2="696.966" gradientTransform="translate(665.427 -439.85)"><stop offset="0" style="stop-color:#000"/><stop offset="1" style="stop-color:#fff"/></linearGradient><path style="fill:url(#SVGID_14_)" d="M274.7 226.6h49.2v36.5h-49.2z"/></g></mask><path d="M298.5 257.5c-15.9 3.2-23.8 4.9-23.8 4.9 8.3 1.8 17 0 23.8-4.9z" style="mask:url(#SVGID_13_);fill-rule:evenodd;clip-rule:evenodd;fill:#003d33"/><defs><filter id="Adobe_OpacityMaskFilter_7_" filterUnits="userSpaceOnUse" x="298.5" y="226.6" width="25.4" height="30.9"><feColorMatrix values="1 0 0 0 0 0 1 0 0 0 0 0 1 0 0 0 0 0 1 0"/></filter></defs><mask maskUnits="userSpaceOnUse" x="298.5" y="226.6" width="25.4" height="30.9" id="SVGID_15_"><g style="filter:url(#Adobe_OpacityMaskFilter_7_)"><linearGradient id="SVGID_16_" gradientUnits="userSpaceOnUse" x1="-398.855" y1="651.216" x2="-354.185" y2="696.966" gradientTransform="translate(665.427 -439.85)"><stop offset="0" style="stop-color:#000"/><stop offset="1" style="stop-color:#fff"/></linearGradient><path style="fill:url(#SVGID_16_)" d="M274.7 226.6h49.2v36.5h-49.2z"/></g></mask><path d="M302.3 254.3c-1.2 1.2-2.4 2.3-3.8 3.2 6.9-1.4 15.4-3.1 25.4-5.2 0 0-4.6-8.6-13.9-25.8 2.3 10-.6 20.5-7.7 27.8z" style="mask:url(#SVGID_15_);fill-rule:evenodd;clip-rule:evenodd;fill:#130152"/><path class="st32" d="M473 345.2c-.4-.1-.8-.1-1.1 0-.3.1-.6.4-.7.8-4.3 11.4-10.6 21.5-18.3 30.2-7.9 8.9-17.4 16.3-27.8 21.8-10.4 5.5-21.9 9.1-33.7 10.5-11.5 1.4-23.4.8-35.2-2.1-.4-.1-.8 0-1.1.2-.3.2-.5.5-.6.9-.1.4 0 .8.2 1.1.2.3.5.5.9.6 12.2 3 24.4 3.6 36.2 2.2 12.2-1.5 23.9-5.2 34.7-10.8 10.7-5.6 20.5-13.2 28.6-22.4 7.9-8.9 14.3-19.3 18.8-31 .1-.4.1-.8 0-1.1-.3-.5-.5-.7-.9-.9zM441.5 252.1c-.3 0-.6.2-.9.4-4.4 5.1-9.4 9.5-14.9 13.1-5.5 3.7-11.5 6.7-17.8 8.8-6.3 2.1-12.8 3.4-19.5 3.8-6.5.4-13.2-.1-19.8-1.4-6.6-1.4-12.9-3.6-18.7-6.6-6-3-11.4-6.8-16.4-11.3-4.9-4.4-9.2-9.5-12.8-15.2-3.5-5.5-6.4-11.6-8.4-18-.1-.3-.3-.6-.6-.7-.3-.1-.6-.2-1-.1-.3.1-.6.3-.7.6-.1.3-.2.6-.1 1 2.1 6.6 5 12.9 8.7 18.6 3.7 5.8 8.2 11.1 13.3 15.7 5.1 4.6 10.8 8.5 16.9 11.6 6 3.1 12.5 5.4 19.4 6.8 6.8 1.4 13.7 1.9 20.5 1.5 6.9-.4 13.7-1.7 20.1-3.9 6.5-2.2 12.7-5.2 18.4-9.1 5.6-3.8 10.8-8.3 15.4-13.6.2-.3.3-.6.3-.9 0-.3-.2-.6-.4-.9-.4-.2-.7-.3-1-.2z"/><path class="st32" d="M483.8 173.6c-.1-.4-.3-.6-.6-.8-.3-.2-.6-.2-.9-.1-3.5.9-6.8 2.3-9.9 4-3.1 1.8-6 3.9-8.6 6.3-2.6 2.4-4.9 5.2-6.8 8.2-1.9 3-3.5 6.2-4.6 9.6-1.2 3.4-1.9 6.9-2.2 10.4-.3 3.6-.1 7.2.4 10.7.5 2.8 1.2 5.5 2.2 8.1 1 2.6 2.2 5.1 3.6 7.5-.4 5.6-1.3 11-2.8 16.3-1.5 5.4-3.5 10.6-6 15.5-2.5 5-5.6 9.7-9.1 14.1s-7.4 8.4-11.7 12c-4.3 3.6-9 6.8-13.9 9.4-5 2.7-10.2 4.8-15.5 6.4-5.4 1.6-10.9 2.7-16.5 3.2-5.5.5-11.2.4-16.8-.2-.3 0-.7.1-.9.3-.2.2-.4.5-.5.8 0 .3.1.7.3.9.2.2.5.4.8.5 5.8.7 11.6.7 17.3.2 5.8-.5 11.5-1.6 17-3.3 5.5-1.7 10.9-3.9 16-6.6 5.1-2.7 9.9-6 14.3-9.7 4.5-3.7 8.5-7.9 12.1-12.4 3.6-4.5 6.7-9.4 9.4-14.6 2.4-4.7 4.3-9.6 5.8-14.6 1.4-4.9 2.4-9.9 3-15l.2.3c1.2 4.8 2.5 9.6 3.8 14.4 1.4 4.8 2.8 9.6 4.3 14.3 1.5 4.8 3.1 9.5 4.7 14.2 1.7 4.7 3.4 9.4 5.2 14.1.1.3.4.6.7.7.3.1.6.1 1 0 .3-.1.6-.4.7-.7.1-.3.1-.6 0-1-1.8-4.6-3.5-9.3-5.2-14-1.6-4.7-3.2-9.4-4.7-14.2-1.5-4.8-2.9-9.6-4.3-14.3-1.4-4.8-2.6-9.6-3.8-14.4 0-.1-.1-.2-.1-.3 0-.1-.1-.2-.1-.2-.4-.5-.8-1-1.1-1.6-.4-.5-.7-1.1-1.1-1.6-1.4-2.3-2.6-4.7-3.6-7.3-1-2.5-1.7-5.2-2.1-7.8-.5-3.3-.7-6.7-.4-10.1.3-3.3 1-6.6 2-9.9 1.1-3.2 2.6-6.3 4.4-9.1 1.8-2.8 4-5.4 6.4-7.7 2.4-2.3 5.2-4.3 8.1-5.9 2.9-1.6 6-2.9 9.3-3.8.3-.1.6-.3.7-.6.1.1.1-.3.1-.6z"/><path class="st33" d="M329.8 121.4c-1.5-1.6-4.1-1.6-5.6-.1l-29 28c-1.6 1.5-1.6 4.1-.1 5.6l22.7 23.6c1.5 1.6 4.1 1.6 5.6.1l29-28c1.6-1.5 1.6-4.1.1-5.6l-22.7-23.6z"/><path d="M323.8 122.3c-1.5-1.6-4.1-1.6-5.6-.1l-29 28c-1.6 1.5-1.6 4.1-.1 5.6l22.7 23.6c1.5 1.6 4.1 1.6 5.6.1l29-28c1.6-1.5 1.6-4.1.1-5.6l-22.7-23.6z" style="fill-rule:evenodd;clip-rule:evenodd;fill:#4d4d4d"/><path d="M323.1 125.8c-1.3-1.4-3.6-1.4-4.9-.1l-25.4 24.5c-1.4 1.3-1.4 3.6-.1 4.9l19.9 20.7c1.3 1.4 3.6 1.4 4.9.1l25.4-24.5c1.4-1.3 1.4-3.6.1-4.9l-19.9-20.7z" style="fill-rule:evenodd;clip-rule:evenodd;fill:#1a1a1a"/><path class="st36" d="M326.7 167.2c-7.8 5.5-11.7 8.2-11.7 8.2-6.8-4.5-10.2-6.8-10.2-6.8s2.1-3.9 6.4-11.7c.9.3 1.9.3 2.7-.2.9-.4 1.5-1.2 1.8-2.1l-1.8-9.9s-2.2-2.3-6.5-6.9c-1-.9-2.5-1.3-3.8-1-1.4.3-2.5 1.2-3 2.5-2.7-1.3-6-.3-7.5 2.3-3-1.3-6.5-.1-8.1 2.8 0 0-4.2 3.1-12.6 9.4-2.9 1.7-3.7 4.4-2.4 8.2 0 0 0 10.8-.1 32.3-14.1 39.6-21.1 59.4-21.1 59.4 27.2 8.5 43.2 7.3 48-3.7 3.7-33.8 5.6-50.8 5.6-50.8 4.4-1.2 8.2-3.2 11.5-5.9l17.7-18.9c1.5-1.5 1.7-3.9.5-5.7-1.2-1.6-3.4-2.3-5.4-1.5zM235.2 324c3.3 8.4 10.4 13.4 20.8 9.9 2.9-15.1-3.9-31.7-20.3-49.7-3.4 13-5.4 27.1-.5 39.8z"/><path class="st33" d="M467.7 329.1s0-.1 0 0c0-.6-.1-2-.2-4.4-2.8 1.2-4.3 2.1-4.4 2.8h-.3l-44.4-.6 13.2 31.4c.1 0 .1-.1.2-.1.4-.4 1-.4 1.5-.3l33-26.6c.9-.9 1.4-1.6 1.4-2.2 0 .1 0 .1 0 0z"/><path class="st37" d="m462.5 323.1-44.4-.6 13.5 32.1s11.5-9.2 34.4-27.7c2.8-2.4 1.6-3.7-3.5-3.8z"/><path class="st33" d="M409.2 162.1c-3.7 0-7-1.5-9.4-4-.8-.8-1.5-1.6-2-2.5-.8-1.1-1.4-2.2-1.8-3.5-.4-.7-.7-1.4-1-2.2l-1.4-2.7c-.9-1.8-1.4-3.8-1.4-5.8-.5-.7-.9-1.4-1.3-2.2-.1-.2-.2-.3-.2-.5-.7-1.3-1.2-2.7-1.4-4.2 0-.2-.1-.4-.1-.5-.1-.4-.3-.7-.4-1.1l-.3-.9c-.2-.7-.4-1.3-.6-2.1l-2.1-6.4c-.5-1.1-.8-2.2-1.1-3.4l-.4-1.3-.5-1.5-.6-1.5c-.4-1-.7-2.1-1-3.2l-.2-.5c-.7-1.4-1.1-2.9-1.3-4.4-.5-1.2-.8-2.4-1-3.6-1.6-4.2-.9-8.8 1.6-12.3-3.3.3-6.5 1.7-9.1 4.1-4.6 4.4-6.1 11.1-3.7 17L350 159c3.3 2.4 5.5 6.3 5.5 10.7 0 4.7-2.4 8.8-6.1 11.1l-.1.1c.8 21.1 19.6 32 42.1 24.3 22.5-7.7 40.3-31 39.8-52.3l-9.4-1c-1.2 5.8-6.4 10.2-12.6 10.2z"/><path d="M394.1 113.8c.4-5.4-1.2-10.5-6.1-12.8-4.9-2.4-10.8-1.4-14.7 2.3-4 3.7-5.2 9.5-3.2 14.5-11.7 29.4-17.6 44.1-17.6 44.1 3.2 4 3.7 9.6 1.3 14.1.6 18.1 16.8 27.4 36.1 20.8 19.3-6.6 34.5-26.6 34.1-44.8-8.1-.9-12.1-1.3-12.1-1.3-9.4-10.2-16.4-23.2-17.8-36.9z" style="fill-rule:evenodd;clip-rule:evenodd;fill:#ffbb9e"/><defs><filter id="Adobe_OpacityMaskFilter_8_" filterUnits="userSpaceOnUse" x="353.7" y="95.1" width="39.2" height="103.9"><feColorMatrix values="1 0 0 0 0 0 1 0 0 0 0 0 1 0 0 0 0 0 1 0"/></filter></defs><mask maskUnits="userSpaceOnUse" x="353.7" y="95.1" width="39.2" height="103.9" id="SVGID_17_"><g style="filter:url(#Adobe_OpacityMaskFilter_8_)"><linearGradient id="SVGID_18_" gradientUnits="userSpaceOnUse" x1="-398.985" y1="724.91" x2="-358.345" y2="616.88" gradientTransform="translate(744.51 -503.949)"><stop offset="0" style="stop-color:#000"/><stop offset="1" style="stop-color:#fff"/></linearGradient><path style="fill:url(#SVGID_18_)" d="M353.7 95.1h39.2V199h-39.2z"/></g></mask><path d="M354.5 165.4c1.3 3.5 1.1 7.1-.7 10.6 0 5.8 2.2 11.4 6.1 15.7 2.9 3.1 6.6 5.3 10.7 6.3 3.8.9 7.7 1.2 11.5.6 3.7-.5 7.2-1.5 10.6-2.9 1.3-.2-2.1-32.7-5.2-88.7 2.1-28.1-6.5-5.8-33 58.4z" style="mask:url(#SVGID_17_);fill-rule:evenodd;clip-rule:evenodd;fill:#ff592b"/><defs><filter id="Adobe_OpacityMaskFilter_9_" filterUnits="userSpaceOnUse" x="353.7" y="121.5" width="29.9" height="56.7"><feColorMatrix values="1 0 0 0 0 0 1 0 0 0 0 0 1 0 0 0 0 0 1 0"/></filter></defs><mask maskUnits="userSpaceOnUse" x="353.7" y="121.5" width="29.9" height="56.7" id="SVGID_19_"><g style="filter:url(#Adobe_OpacityMaskFilter_9_)"><linearGradient id="SVGID_20_" gradientUnits="userSpaceOnUse" x1="-390.762" y1="674.574" x2="-360.904" y2="674.574" gradientTransform="translate(744.51 -524.752)"><stop offset="0" style="stop-color:#000"/><stop offset="1" style="stop-color:#fff"/></linearGradient><path style="fill:url(#SVGID_20_)" d="M353.7 121.5h29.9v56.7h-29.9z"/></g></mask><path d="M354.5 165.4c1.3 3.5 1.1 7.1-.7 10.6 0 .7.1 1.4.2 2.1 21.7-9.8 33.6-33.4 28.6-56.6-10.3-1.3-19.7 13.3-28.1 43.9z" style="mask:url(#SVGID_19_);fill-rule:evenodd;clip-rule:evenodd;fill:#d90804"/><path class="st36" d="M359 72.5c-15.1-7.8-33.5-5.1-45.7 6.8-6.9 10.9-8.4 17.5-7.8 22.3.3 2.8 1.2 5 2.3 7.1 1.9 3.7 2.2 7.2 2.1 10.5-.2 5.6-.9 8.4-.2 11.5 1.6 7.9 14.4 22.7 19.4 29.7 6.8 18.1 25.8 9.2 36.4 1.1 20.7-16 18.3-43.3 14.9-51.8 2.5-16.8-6.3-29.4-21.4-37.2z"/><defs><filter id="Adobe_OpacityMaskFilter_10_" filterUnits="userSpaceOnUse" x="342" y="85.6" width="37.5" height="70.4"><feColorMatrix values="1 0 0 0 0 0 1 0 0 0 0 0 1 0 0 0 0 0 1 0"/></filter></defs><mask maskUnits="userSpaceOnUse" x="342" y="85.6" width="37.5" height="70.4" id="SVGID_21_"><g style="filter:url(#Adobe_OpacityMaskFilter_10_)"><linearGradient id="SVGID_22_" gradientUnits="userSpaceOnUse" x1="-379.967" y1="693.318" x2="-361.857" y2="635.218" gradientTransform="translate(732.764 -546.934)"><stop offset="0" style="stop-color:#000"/><stop offset="1" style="stop-color:#fff"/></linearGradient><path style="fill:url(#SVGID_22_)" d="M342 85.6h37.5V156H342z"/></g></mask><path d="M344 85.8c-12.6 49 40.3 25.7 23 70.2 8.4-11.4 12.3-23.7 11.7-36.9 4.3-24-7.3-35.1-34.7-33.3z" style="mask:url(#SVGID_21_);fill-rule:evenodd;clip-rule:evenodd;fill:#ff592b"/><defs><filter id="Adobe_OpacityMaskFilter_11_" filterUnits="userSpaceOnUse" x="334.5" y="102.3" width="41.1" height="22.6"><feColorMatrix values="1 0 0 0 0 0 1 0 0 0 0 0 1 0 0 0 0 0 1 0"/></filter></defs><mask maskUnits="userSpaceOnUse" x="334.5" y="102.3" width="41.1" height="22.6" id="SVGID_23_"><g style="filter:url(#Adobe_OpacityMaskFilter_11_)"><linearGradient id="SVGID_24_" gradientUnits="userSpaceOnUse" x1="-390.66" y1="693.089" x2="-351.02" y2="690.289" gradientTransform="translate(725.27 -578.048)"><stop offset="0" style="stop-color:#000"/><stop offset="1" style="stop-color:#fff"/></linearGradient><path style="fill:url(#SVGID_24_)" d="M334.5 102.3h41.1v22.6h-41.1z"/></g></mask><path d="M345.1 102.3c2.7 4.1 3 9.3.8 13.6-2.2 4.4-6.6 7.2-11.4 7.5 4.4 2.1 9.6 1.9 13.8-.5 4.2-2.4 7-6.8 7.4-11.7 13.3-.3 19.9-.5 19.9-.5s-1.4-2.7-4.1-8.1c0 .1-8.8 0-26.4-.3z" style="mask:url(#SVGID_23_);fill-rule:evenodd;clip-rule:evenodd;fill:#d90804"/><defs><filter id="Adobe_OpacityMaskFilter_12_" filterUnits="userSpaceOnUse" x="305.4" y="68.9" width="37.3" height="102.1"><feColorMatrix values="1 0 0 0 0 0 1 0 0 0 0 0 1 0 0 0 0 0 1 0"/></filter></defs><mask maskUnits="userSpaceOnUse" x="305.4" y="68.9" width="37.3" height="102.1" id="SVGID_25_"><g style="filter:url(#Adobe_OpacityMaskFilter_12_)"><linearGradient id="SVGID_26_" gradientUnits="userSpaceOnUse" x1="-322.474" y1="666.713" x2="-396.444" y2="644.593" gradientTransform="translate(696.127 -531.904)"><stop offset="0" style="stop-color:#000"/><stop offset="1" style="stop-color:#fff"/></linearGradient><path style="fill:url(#SVGID_26_)" d="M305.4 68.9h37.3V171h-37.3z"/></g></mask><path d="M333.1 68.9c-7.3 1.5-14.2 5-19.8 10.4-6.9 10.9-8.4 17.5-7.8 22.3.3 2.8 1.2 5 2.3 7.1 1.9 3.7 2.2 7.2 2.1 10.5-.2 5.6-.9 8.4-.2 11.5 1.6 7.9 14.4 22.7 19.4 29.7 2.9 7.6 7.9 10.5 13.6 10.6-13.1-15.7-21-36-21-58.1 0-15.9 4.1-30.9 11.4-44z" style="mask:url(#SVGID_25_);fill-rule:evenodd;clip-rule:evenodd;fill:#ffd8c4"/><path d="M374 61.7c-2.4-14.4-21.2-14.6-56.4-.5-16.9-20.7-31.8 40.4 3.9 20.7 29.6-16.3 23.5-6 22.5 2.9-1.8 15.8 25 3.4 25.5 19 6.8-3.8 14.1-3.3 18.4 3.2 4.5 7.2 6.7 10.5 7.5 5.8 7.4-37.9-4.1-54.3-21.4-51.1z" style="fill-rule:evenodd;clip-rule:evenodd;fill:#521919"/><defs><filter id="Adobe_OpacityMaskFilter_13_" filterUnits="userSpaceOnUse" x="358" y="51" width="39.6" height="63.9"><feColorMatrix values="1 0 0 0 0 0 1 0 0 0 0 0 1 0 0 0 0 0 1 0"/></filter></defs><mask maskUnits="userSpaceOnUse" x="358" y="51" width="39.6" height="63.9" id="SVGID_27_"><g style="filter:url(#Adobe_OpacityMaskFilter_13_)"><linearGradient id="SVGID_28_" gradientUnits="userSpaceOnUse" x1="-426.071" y1="650.167" x2="-360.291" y2="675.007" gradientTransform="translate(748.8 -588.02)"><stop offset="0" style="stop-color:#000"/><stop offset="1" style="stop-color:#fff"/></linearGradient><path style="fill:url(#SVGID_28_)" d="M358 51h39.6v63.9H358z"/></g></mask><path d="M374 61.7c-1-6.2-5-9.7-12.1-10.7 4.6 5.3 7.5 12.3 7.5 19.9 0 9.6-4.4 18.1-11.4 23.7 5.8.8 11.2 2.2 11.4 9.1 6.8-3.8 14.1-3.3 18.4 3.2 4.5 7.2 6.7 10.5 7.5 5.8 7.5-37.8-4-54.2-21.3-51z" style="mask:url(#SVGID_27_);fill-rule:evenodd;clip-rule:evenodd;fill:#330808"/><defs><filter id="Adobe_OpacityMaskFilter_14_" filterUnits="userSpaceOnUse" x="299.7" y="55.2" width="34.7" height="30.6"><feColorMatrix values="1 0 0 0 0 0 1 0 0 0 0 0 1 0 0 0 0 0 1 0"/></filter></defs><mask maskUnits="userSpaceOnUse" x="299.7" y="55.2" width="34.7" height="30.6" id="SVGID_29_"><g style="filter:url(#Adobe_OpacityMaskFilter_14_)"><linearGradient id="SVGID_30_" gradientUnits="userSpaceOnUse" x1="-348.522" y1="701.171" x2="-395.972" y2="675.351" gradientTransform="translate(690.448 -617.157)"><stop offset="0" style="stop-color:#000"/><stop offset="1" style="stop-color:#fff"/></linearGradient><path style="fill:url(#SVGID_30_)" d="M299.7 55.2h34.7v30.6h-34.7z"/></g></mask><path d="M318.1 83.5V82c0-11.7 6.6-21.8 16.3-26.9-5.1 1.6-10.7 3.6-16.7 6-16.4-20-30.8 36.3.4 22.4z" style="mask:url(#SVGID_29_);fill-rule:evenodd;clip-rule:evenodd;fill:#8f2828"/><path class="st61" d="M340.7 94.6c-3.9-1-7.9-1.1-11.8-.4-3.9.7-7.6 2.2-10.9 4.5-.7.5-.9 1.4-.4 2.1.5.7 1.4.9 2.1.4 3-2.1 6.3-3.4 9.7-4 3.5-.6 7-.5 10.5.4.8.2 1.6-.3 1.8-1.1.3-.9-.1-1.7-1-1.9zM311.2 101.7c-1.8.5-3.6 1.3-5.1 2.3-1.6 1-3 2.3-4.2 3.7-.5.6-.5 1.6.2 2.1.6.5 1.6.5 2.1-.2 1-1.2 2.2-2.3 3.5-3.1 1.3-.8 2.8-1.5 4.3-1.9.8-.2 1.3-1.1 1.1-1.9-.2-.7-1.1-1.2-1.9-1z"/><path class="st62" d="M332.1 108.1c-1.1 0-1.9.9-1.9 1.9 0 1.1.9 1.9 1.9 1.9s1.9-.9 1.9-1.9c0-1.1-.8-1.9-1.9-1.9zM312.2 116c-1 0-1.8.8-1.8 1.8s.8 1.8 1.8 1.8 1.8-.8 1.8-1.8-.8-1.8-1.8-1.8z"/><path class="st2" d="M319.2 117.3v-.1c-.5-3.5-2.3-6.6-4.7-8.6-2.4-2-5.6-3.1-8.8-2.6h-.1c-3.2.5-5.9 2.4-7.7 5.1-1.7 2.6-2.5 6-2 9.6v.1c.5 3.5 2.3 6.6 4.7 8.6 2.4 2 5.6 3.1 8.8 2.6h.1c3.2-.5 5.9-2.4 7.7-5.1 1.7-2.7 2.5-6.1 2-9.6zm-3.7 8.5c-1.5 2.2-3.7 3.8-6.3 4.2-2.7.4-5.2-.5-7.3-2.2-2.1-1.7-3.6-4.3-4-7.3v-.1c-.4-3.1.2-6 1.7-8.2 1.5-2.2 3.7-3.8 6.3-4.2 2.7-.4 5.2.5 7.3 2.2 2.1 1.7 3.6 4.3 4 7.3v.1c.5 3-.2 5.9-1.7 8.2z"/><path class="st33" d="M305.5 112.5c-1.6 0-2.9 1.3-2.9 2.9 0 1.6 1.3 2.9 2.9 2.9 1.6 0 2.9-1.3 2.9-2.9 0-1.6-1.3-2.9-2.9-2.9zM326.3 105.6c-1.6 0-2.9 1.3-2.9 2.9 0 1.6 1.3 2.9 2.9 2.9s2.9-1.3 2.9-2.9c.1-1.6-1.2-2.9-2.9-2.9z"/><path class="st63" d="M339.7 133.6c-3.4 3.4-6.5 5.8-9.3 7.3-2.8 1.4-5.3 1.9-7.5 1.6-.6-.1-1.2.3-1.3.9-.1.6.3 1.2.9 1.3 2.8.5 5.7-.1 8.9-1.8 3.1-1.6 6.4-4.2 9.9-7.7.4-.4.4-1.2 0-1.6-.4-.5-1.1-.5-1.6 0z"/><path class="st64" d="M328.4 124.1c-1.2-.8-2.7-.9-3.9-.2-.2-.6-4.2-16.5-6.9-14-2.6 2.3-3.5 16-3.5 17.9-.2 6.2 1.6 10.9 9.5 5.2.7-1.6 2-2.4 3.8-2.3 1.4-.4 2.4-1.5 2.6-2.9.2-1.4-.4-2.8-1.6-3.7z"/><path class="st63" d="M337.8 141.4c-1.7 1.7-3.3 3-4.8 3.7-1.4.7-2.7 1-3.8.8-.3-.1-.6.2-.7.5-.1.3.2.6.5.7 1.4.2 2.9-.1 4.6-.9 1.6-.8 3.3-2.1 5.1-3.9.2-.2.2-.6 0-.8-.3-.4-.7-.4-.9-.1z"/><path class="st2" d="m391.6 105.2-10.2-3.8c-.1 0-.2-.1-.3-.1l-34.9.2c-.5-.7-1-1.4-1.7-2-2.5-2.5-6-4.1-9.9-4.1s-7.4 1.6-9.9 4.1c-2.5 2.5-4.1 6-4.1 9.9 0 1.8.3 3.5.9 5.1-1.6-.1-3-.1-4.1.1-1.7.3-2.9.9-3.6 1.9-.4.5-.2 1.2.3 1.6.5.4 1.2.2 1.6-.3.3-.5 1-.8 2-.9 1.2-.2 2.9-.2 5 .1.6.9 1.2 1.7 1.9 2.4 2.5 2.5 6 4.1 9.9 4.1s7.4-1.6 9.9-4.1c2.5-2.5 4.1-6 4.1-9.9 0-2.1-.5-4.1-1.3-5.9l33.7-.2 10.1 3.7c.5.2 1.1-.1 1.3-.6 0-.6-.2-1.2-.7-1.3zM343 117.9c-2.2 2.2-5.2 3.5-8.5 3.5s-6.3-1.3-8.5-3.5-3.5-5.2-3.5-8.5 1.3-6.3 3.5-8.5 5.2-3.5 8.5-3.5 6.3 1.3 8.5 3.5 3.5 5.2 3.5 8.5-1.3 6.3-3.5 8.5z"/><path class="st36" d="M378.5 91c-5.5.4-10 6.9-10.1 14.5-.1 7.6 4.2 13.4 9.6 13 5.5-.4 10-6.9 10.1-14.5.2-7.6-4.1-13.4-9.6-13z"/><path class="st64" d="M380.6 97.1c-3.3.3-6 4.2-6.1 8.7-.1 4.6 2.5 8.1 5.8 7.8 3.3-.3 6-4.2 6.1-8.7.1-4.6-2.5-8.1-5.8-7.8z"/><path class="st63" d="M378.1 100c-1.9.1-3.5 2.4-3.5 5.1 0 2.6 1.5 4.7 3.4 4.5 1.9-.1 3.5-2.4 3.5-5.1 0-2.6-1.5-4.6-3.4-4.5z"/><defs><filter id="Adobe_OpacityMaskFilter_15_" filterUnits="userSpaceOnUse" x="486.9" y="179.1" width="53.8" height="102.6"><feColorMatrix values="1 0 0 0 0 0 1 0 0 0 0 0 1 0 0 0 0 0 1 0"/></filter></defs><mask maskUnits="userSpaceOnUse" x="486.9" y="179.1" width="53.8" height="102.6" id="SVGID_31_"><g style="filter:url(#Adobe_OpacityMaskFilter_15_)"><linearGradient id="SVGID_32_" gradientUnits="userSpaceOnUse" x1="-427.082" y1="626.404" x2="-340.632" y2="660.913" gradientTransform="translate(877.672 -421.21)"><stop offset="0" style="stop-color:#000"/><stop offset="1" style="stop-color:#fff"/></linearGradient><path style="fill:url(#SVGID_32_)" d="M486.9 179.1h53.8v102.6h-53.8z"/></g></mask><path d="M487.2 202.5c3.2 27.6 30.3 21.3 33 49.7 1.1 11.5-3.9 22.6-13.2 29.5 12.4-5.3 23.6-7.4 33.7-6.5-7.5-25.8-15.7-64.2-32-85.9-16.5-22-23.5-3.8-21.5 13.2z" style="mask:url(#SVGID_31_);fill-rule:evenodd;clip-rule:evenodd;fill:#130152"/><defs><filter id="Adobe_OpacityMaskFilter_16_" filterUnits="userSpaceOnUse" x="250.8" y="162.1" width="27.7" height="92.5"><feColorMatrix values="1 0 0 0 0 0 1 0 0 0 0 0 1 0 0 0 0 0 1 0"/></filter></defs><mask maskUnits="userSpaceOnUse" x="250.8" y="162.1" width="27.7" height="92.5" id="SVGID_33_"><g style="filter:url(#Adobe_OpacityMaskFilter_16_)"><linearGradient id="SVGID_34_" gradientUnits="userSpaceOnUse" x1="-326.932" y1="663.808" x2="-377.092" y2="656.658" gradientTransform="translate(641.541 -448.356)"><stop offset="0" style="stop-color:#000"/><stop offset="1" style="stop-color:#fff"/></linearGradient><path style="fill:url(#SVGID_34_)" d="M250.8 162.1h27.7v92.5h-27.7z"/></g></mask><path d="M274.5 189.2c5.3-8.9 3.4-20.4-4.5-27.1 0 10.8-.1 21.5-.1 32.3-12.8 35.9-19.1 53.9-19.1 53.9.4 4.2.7 6.3.7 6.3 10.3-1 19.4-7.3 24-16.6 10.5-21.8-10.9-32.4-1-48.8z" style="mask:url(#SVGID_33_);fill-rule:evenodd;clip-rule:evenodd;fill:#ffe0d1"/><defs><filter id="Adobe_OpacityMaskFilter_17_" filterUnits="userSpaceOnUse" x="261.2" y="197.6" width="38.9" height="66.3"><feColorMatrix values="1 0 0 0 0 0 1 0 0 0 0 0 1 0 0 0 0 0 1 0"/></filter></defs><mask maskUnits="userSpaceOnUse" x="261.2" y="197.6" width="38.9" height="66.3" id="SVGID_35_"><g style="filter:url(#Adobe_OpacityMaskFilter_17_)"><linearGradient id="SVGID_36_" gradientUnits="userSpaceOnUse" x1="-402.086" y1="643.558" x2="-344.955" y2="692.218" gradientTransform="translate(651.948 -439.035)"><stop offset="0" style="stop-color:#000"/><stop offset="1" style="stop-color:#fff"/></linearGradient><path style="fill:url(#SVGID_36_)" d="M261.2 197.6h38.9v66.3h-38.9z"/></g></mask><path d="M261.2 263.9c21.1-6.9 31.6-10.4 31.6-10.4s2.4-18.1 7.3-54.2c0 0-1.7-.6-5.2-1.7 1.6 26.6-11.3 51.9-33.7 66.3z" style="mask:url(#SVGID_35_);fill-rule:evenodd;clip-rule:evenodd;fill:#ff592b"/><path class="st74" d="M308.6 149.8c0-.1-.1-.2-.2-.3l-6.6-8.1c-.4-.4-1-.5-1.5-.1-.4.4-.5 1-.1 1.5l6.6 8 1 2.2.7 7c.1.6.6 1 1.1 1 .6-.1 1-.6 1-1.1l-.1-1.5c.3.1.6.2.9 0 .5-.2.8-.9.5-1.4l-3.3-7.2zM286.6 166.9c-.4-.4-1.1-.4-1.5 0-.4.4-.4 1.1 0 1.5 3.3 3.3 5.3 7.5 6 12 .6 4.4-.1 9-2.4 13.2-.3.5-.1 1.2.4 1.4.5.3 1.2.1 1.4-.4 2.5-4.5 3.4-9.6 2.7-14.5-.7-4.9-2.9-9.6-6.6-13.2zM302.5 197.5l-6.4-.8c-.6-.1-1.1.3-1.2.9-.1.6.3 1.1.9 1.2l6.4.8c.6.1 1.1-.3 1.2-.9 0-.6-.4-1.1-.9-1.2zM311.2 177.5c-4 .3-7.7 2-10.6 4.5-2.9 2.6-5 6-5.8 10-.1.6.3 1.1.8 1.2.6.1 1.1-.3 1.2-.8.7-3.5 2.5-6.6 5.1-8.8 2.5-2.3 5.8-3.7 9.4-4 .6 0 1-.6 1-1.1 0-.6-.5-1.1-1.1-1z"/><path class="st74" d="M308.9 160.8c-.5-.3-1.1-.1-1.4.4-.2.3-.4.5-.7.7-.3.2-.6.3-.9.3-.3 0-.7 0-1-.2-.2-.1-.4-.2-.6-.4l-1.4-7.4c0-.2-.1-.4-.2-.5l-8.2-9.6c-.4-.4-1-.5-1.5-.1-.4.4-.5 1-.1 1.5l8 9.4 1.4 7.3c0 .4-.1.9-.3 1.2-.2.4-.6.7-1 .8-.4.2-.9.2-1.3.1s-.7-.3-1-.6l-2.3-6.1c-.1-.2-.2-.3-.3-.4l-7-5.5c-.5-.4-1.1-.3-1.5.2-.4.5-.3 1.1.2 1.5l2.5 2c-1 .1-1.9.2-2.9.2-1.7 0-3.5-.1-5.2-.5-.6-.1-1.1.3-1.2.8-.1.6.3 1.1.8 1.2 1.9.4 3.7.5 5.6.5 1.7 0 3.4-.2 5.1-.5l1.9 1.5 2.3 5.9c0 .1.1.2.2.3.6.7 1.3 1.2 2.2 1.4.8.2 1.7.2 2.6-.1.9-.3 1.6-.9 2-1.7l.3-.6c.6.3 1.3.4 1.9.3.7 0 1.3-.3 1.9-.6.6-.3 1-.8 1.4-1.4.3-.4.2-1-.3-1.3z"/><path class="st33" d="M400.1 255.6c-.8-2.4-3.4-4.3-5.7-4.4l-168.5-3.4c-2.3 0-3.6 1.8-2.8 4.2l33.8 98.9c.8 2.4 3.4 4.3 5.7 4.4l168.5 3.4c2.3 0 3.6-1.8 2.8-4.2l-33.8-98.9z"/><path class="st37" d="M396.3 258.7c-.6-1.7-2.5-3.2-4.2-3.2l-165.9-3.4c-1.7 0-2.6 1.4-2.1 3.1l33.6 98.2c.6 1.7 2.5 3.2 4.2 3.2l165.9 3.4c1.7 0 2.6-1.4 2.1-3.1l-33.6-98.2z"/><path class="st33" d="M320.3 296.2c-5.2.3-8.5 4.6-7.4 9.7s6.1 9 11.3 8.8c5.2-.3 8.5-4.6 7.4-9.7s-6.1-9-11.3-8.8z"/><defs><filter id="Adobe_OpacityMaskFilter_18_" filterUnits="userSpaceOnUse" x="257.6" y="257.6" width="167.9" height="100"><feColorMatrix values="1 0 0 0 0 0 1 0 0 0 0 0 1 0 0 0 0 0 1 0"/></filter></defs><mask maskUnits="userSpaceOnUse" x="257.6" y="257.6" width="167.9" height="100" id="SVGID_37_"><g style="filter:url(#Adobe_OpacityMaskFilter_18_)"><linearGradient id="SVGID_38_" gradientUnits="userSpaceOnUse" x1="-362.571" y1="592.21" x2="-279.991" y2="682.18" gradientTransform="translate(648.34 -345.322)"><stop offset="0" style="stop-color:#000"/><stop offset="1" style="stop-color:#fff"/></linearGradient><path style="fill:url(#SVGID_38_)" d="M257.6 257.6h167.9v100H257.6z"/></g></mask><path d="M393.2 260.9c-.6-1.7-2.4-3-4-3.1l-8.1-.2c-3.6 27.7-18.7 53.7-43.8 70.4-24.4 16.3-53.3 20.4-79.7 13.9l3.2 9.4c.6 1.7 2.4 3 4 3.1l158.5 3.2c1.6 0 2.5-1.3 2-3l-32.1-93.7z" style="mask:url(#SVGID_37_);fill-rule:evenodd;clip-rule:evenodd;fill:#b3ebe1"/><path class="st36" d="M484.2 297.9c.9 5.7 3 11.2 6.3 16-12.1 7.4-62.6 25.4-84.4 32.2-1.4-4.2-4.3-6.9-8.5-7.9-3.1-.7-11.7-3.7-14.4-2.4-1.3.6-1.9 1.7-1.8 2.8.2 2.7 4 6 7.9 7.7-2 2.3-4.3 4.4-6.6 6.3l-16.7 3.6-17.2-3.4c-1.4-.1-2.7.6-3.4 1.8-.7 1.2-.6 2.7.2 3.9l-9.4-1.2c-1.3-.2-2.7.5-3.2 1.7-.6 1.2-.3 2.7.7 3.6-1.4-.1-2.6.9-2.9 2.3-.3 1.4.5 2.7 1.9 3.2l1.6.5c-.7 2.1-.2 3.5 1.5 4.3 8.8 4.6 20.2 11.8 29.7 11.5 4.2.1 27.5-5.5 31.1-6.5 21.6-2 101.3-9.3 133-20.6 10.7-3.8 16.3-6.9 19.1-12.4 6.7-13.3-2.6-50.2-6.2-64.5-10.6-2.1-39.7 5.8-58.3 17.5z"/><path class="st74" d="m398.3 349.1-8.5-3.9c-.6-.3-1.3 0-1.6.6-.3.6 0 1.3.6 1.6l4 1.8-27 5.9c-.6.1-1 .8-.9 1.4.1.6.8 1 1.4.9l27-5.9c.6-.1 1-.8.9-1.4 0-.1-.1-.2-.1-.3l3.2 1.5c.6.3 1.3 0 1.6-.6.3-.7 0-1.4-.6-1.6zM382 365.2l-16-.4-20-7.4c-.6-.2-1.3.1-1.5.7-.2.6.1 1.3.7 1.5l20.2 7.5c.1 0 .3.1.4.1l16.1.4c.6 0 1.2-.5 1.2-1.1 0-.7-.5-1.3-1.1-1.3zM373 372l-15.5-1.7-23.5-8.8c-.6-.2-1.3.1-1.5.7-.2.6.1 1.3.7 1.5l23.6 8.9c.1 0 .2.1.3.1l15.6 1.7c.6.1 1.2-.4 1.3-1 .1-.7-.3-1.3-1-1.4zM354.9 376.1l-20.2-8.7c-.6-.3-1.3 0-1.5.6-.3.6 0 1.3.6 1.5l20.2 8.7c.6.3 1.3 0 1.5-.6.3-.6 0-1.3-.6-1.5z"/><defs><filter id="Adobe_OpacityMaskFilter_19_" filterUnits="userSpaceOnUse" x="396" y="279.9" width="150.6" height="94.8"><feColorMatrix values="1 0 0 0 0 0 1 0 0 0 0 0 1 0 0 0 0 0 1 0"/></filter></defs><mask maskUnits="userSpaceOnUse" x="396" y="279.9" width="150.6" height="94.8" id="SVGID_39_"><g style="filter:url(#Adobe_OpacityMaskFilter_19_)"><linearGradient id="SVGID_40_" gradientUnits="userSpaceOnUse" x1="-390.741" y1="654.302" x2="-181.041" y2="657.782" gradientTransform="translate(786.78 -328.22)"><stop offset="0" style="stop-color:#000"/><stop offset="1" style="stop-color:#fff"/></linearGradient><path style="fill:url(#SVGID_40_)" d="M396 279.9h150.6v94.8H396z"/></g></mask><path d="M508.2 286.6c.6 11.9 22.4 17.7 20.8 37.6-.6 7.4-4.7 14.3-11.2 18.6-13.7 8.9-27.5.8-40.5-.5-22.3-2.3-20.9 18.3-40.9 24.9-15.6 5.1-28.4-4.8-40.4 7.6 65.2-6.4 108.3-13.5 129.2-21.2 9.2-3.7 14.7-6.5 17.9-10.6 8.8-11.2-1.4-49.9-5.1-63-9.2.5-19.2 2.7-29.8 6.6z" style="mask:url(#SVGID_39_);fill-rule:evenodd;clip-rule:evenodd;fill:#ff592b"/><defs><filter id="Adobe_OpacityMaskFilter_20_" filterUnits="userSpaceOnUse" x="407.1" y="299" width="98" height="51.9"><feColorMatrix values="1 0 0 0 0 0 1 0 0 0 0 0 1 0 0 0 0 0 1 0"/></filter></defs><mask maskUnits="userSpaceOnUse" x="407.1" y="299" width="98" height="51.9" id="SVGID_41_"><g style="filter:url(#Adobe_OpacityMaskFilter_20_)"><linearGradient id="SVGID_42_" gradientUnits="userSpaceOnUse" x1="-264.237" y1="739.931" x2="-350.897" y2="669.541" gradientTransform="translate(797.82 -351.963)"><stop offset="0" style="stop-color:#000"/><stop offset="1" style="stop-color:#fff"/></linearGradient><path style="fill:url(#SVGID_42_)" d="M407.1 299h98v52h-98z"/></g></mask><path d="M484.4 299.1c.9 4.9 2.8 9.6 5.5 13.9.3.5.2.9-.4 1.4-2.4 1.5-6 3.2-10.6 5.2-13.8 5.7-25.9 10.4-36.3 14.1-13.4 4.8-25.2 8.9-35.5 12.2 30.1 16.1 31.3-10.2 52.6-11.9 14-1.2 25.7 9.2 37.7.1 6.8-5.2 9.4-14.2 6.4-22.2-3-8.3-10.8-13.4-19.4-12.8z" style="mask:url(#SVGID_41_);fill-rule:evenodd;clip-rule:evenodd;fill:#ffdfcf"/><path class="st74" d="M528.7 312.1c-3.8-2.5-8.1-4.2-12.7-5-4.6-.8-9.2-.7-13.6.3s-8.7 2.8-12.5 5.5c-.5.3-.6 1-.3 1.5s1 .6 1.5.3c3.6-2.5 7.5-4.2 11.7-5.2 4.2-.9 8.5-1 12.8-.3 4.3.8 8.3 2.4 11.9 4.7 3.6 2.3 6.7 5.3 9.2 8.9.3.5 1 .6 1.5.3s.6-1 .3-1.5c-2.6-3.8-5.9-7-9.8-9.5z"/><path class="st33" d="M256.9 389.1c-1.6 0-2.9 1.3-2.9 2.9 0 1.6 1.3 2.9 2.9 2.9 1.6 0 2.9-1.3 2.9-2.9 0-1.6-1.3-2.9-2.9-2.9zM247.8 378.6c-.7 0-1.3.6-1.3 1.3 0 .7.6 1.3 1.3 1.3.7 0 1.3-.6 1.3-1.3 0-.7-.6-1.3-1.3-1.3zM250.7 353.3c-1.1 0-2 .9-2 2s.9 2 2 2 2-.9 2-2-.9-2-2-2zM224.5 372.3c-1.1 0-2 .9-2 2s.9 2 2 2 2-.9 2-2-.9-2-2-2zM275.2 471.8c-1 0-1.8.8-1.8 1.8s.8 1.8 1.8 1.8 1.8-.8 1.8-1.8-.8-1.8-1.8-1.8zM378.5 428.7c-1.3 0-2.4 1.1-2.4 2.4 0 1.3 1.1 2.4 2.4 2.4 1.3 0 2.4-1.1 2.4-2.4 0-1.3-1.1-2.4-2.4-2.4zM317.1 497.3c-1.3 0-2.4 1.1-2.4 2.4 0 1.3 1.1 2.4 2.4 2.4 1.3 0 2.4-1.1 2.4-2.4 0-1.3-1.1-2.4-2.4-2.4zM507.3 511c-1 0-1.8.8-1.8 1.8s.8 1.8 1.8 1.8 1.8-.8 1.8-1.8c.1-1-.8-1.8-1.8-1.8zM574.4 477.2c-1 0-1.8.8-1.8 1.8s.8 1.8 1.8 1.8 1.8-.8 1.8-1.8-.8-1.8-1.8-1.8zM591.2 366.5c-1.6 0-2.9 1.3-2.9 2.9 0 1.6 1.3 2.9 2.9 2.9s2.9-1.3 2.9-2.9c.1-1.6-1.2-2.9-2.9-2.9zM617 284.5c-2.3 0-4.2 1.9-4.2 4.2s1.9 4.2 4.2 4.2 4.2-1.9 4.2-4.2-1.9-4.2-4.2-4.2zM443.7 304.3c-1.2 0-2.1.9-2.1 2.1 0 1.2.9 2.1 2.1 2.1 1.2 0 2.1-.9 2.1-2.1 0-1.2-.9-2.1-2.1-2.1zM490.9 255.1c-1.2 0-2.1.9-2.1 2.1 0 1.2.9 2.1 2.1 2.1 1.2 0 2.1-.9 2.1-2.1 0-1.1-.9-2.1-2.1-2.1zM375.6 229.8c-.8 0-1.4.6-1.4 1.4 0 .8.6 1.4 1.4 1.4s1.4-.6 1.4-1.4c0-.8-.6-1.4-1.4-1.4zM323 216.7c-1.2 0-2.1.9-2.1 2.1 0 1.2.9 2.1 2.1 2.1 1.2 0 2.1-.9 2.1-2.1 0-1.1-.9-2.1-2.1-2.1zM561.3 485.2c-1.2 0-2.1.9-2.1 2.1 0 1.2.9 2.1 2.1 2.1 1.2 0 2.1-.9 2.1-2.1 0-1.1-.9-2.1-2.1-2.1zM533.9 460.7c-1.2 0-2.1.9-2.1 2.1 0 1.2.9 2.1 2.1 2.1 1.2 0 2.1-.9 2.1-2.1 0-1.1-1-2.1-2.1-2.1zM589.3 86.5c-1.2 0-2.1.9-2.1 2.1s.9 2.1 2.1 2.1c1.2 0 2.1-.9 2.1-2.1s-.9-2.1-2.1-2.1zM503.5 42c-1.7 0-3 1.4-3 3 0 1.7 1.4 3 3 3 1.7 0 3-1.4 3-3 0-1.7-1.4-3-3-3zM456.9 165.4c-1.1 0-2 .9-2 2s.9 2 2 2 2-.9 2-2c.1-1-.9-2-2-2z"/></svg>