<?xml version="1.0" encoding="utf-8"?>
<!-- Generator: Adobe Illustrator 25.2.0, SVG Export Plug-In . SVG Version: 6.00 Build 0)  -->
<svg version="1.1" id="Layer_1" xmlns="http://www.w3.org/2000/svg" xmlns:xlink="http://www.w3.org/1999/xlink" x="0px" y="0px"
	 viewBox="0 0 1775.6 1153" style="enable-background:new 0 0 1775.6 1153;" xml:space="preserve">
<style type="text/css">
	.st0{fill:#E9DAED;}
	.st1{fill:#B89DC1;}
	.st2{fill:none;stroke:#533E91;stroke-width:3;stroke-miterlimit:10;}
	.st3{fill:none;stroke:#533E91;stroke-width:3;stroke-linecap:round;stroke-linejoin:round;stroke-miterlimit:10;}
	.st4{fill:#FFFFFF;stroke:#2A599E;stroke-width:3;stroke-linecap:round;stroke-linejoin:round;stroke-miterlimit:10;}
	.st5{fill:#FFFFFF;stroke:#533E91;stroke-width:3;stroke-linecap:round;stroke-linejoin:round;stroke-miterlimit:10;}
	.st6{fill:#CEBED4;stroke:#533E91;stroke-width:3;stroke-linecap:round;stroke-linejoin:round;stroke-miterlimit:10;}
	.st7{fill:#533E91;}
	.st8{fill:none;stroke:#786AAD;stroke-miterlimit:10;}
	.st9{fill:#E9DAEC;}
	.st10{fill:#C6AECE;stroke:#533E91;stroke-width:3;stroke-miterlimit:10;}
	.st11{fill:#CEBED4;}
	.st12{fill:#FFFFFF;stroke:#533E91;stroke-width:2;stroke-linecap:round;stroke-linejoin:round;stroke-miterlimit:10;}
	.st13{fill:#FFFFFF;}
	.st14{fill:#C6AECE;}
	.st15{fill:#D5BCDC;stroke:#533E91;stroke-width:3;stroke-miterlimit:10;}
	.st16{fill:#CEBED4;stroke:#2A599E;stroke-width:3;stroke-miterlimit:10;}
	.st17{fill:#E9DAEC;stroke:#533E91;stroke-width:3;stroke-linecap:round;stroke-linejoin:round;stroke-miterlimit:10;}
	.st18{fill:#CEBED4;stroke:#533E91;stroke-width:3;stroke-miterlimit:10;}
	.st19{fill:none;stroke:#533E91;stroke-width:2;stroke-linecap:round;stroke-linejoin:round;stroke-miterlimit:10;}
	.st20{fill:#B89DC1;stroke:#533E91;stroke-width:3;stroke-miterlimit:10;}
	.st21{fill:none;stroke:#2A599E;stroke-width:5;stroke-linecap:round;stroke-linejoin:round;stroke-miterlimit:10;}
	.st22{fill:#B5CCEC;stroke:#2A599E;stroke-width:3;stroke-linecap:round;stroke-linejoin:round;stroke-miterlimit:10;}
</style>
<path class="st0" d="M1599.4,1035.7c0,18.1-14.7,32.8-32.8,32.8H231.3c-18.1,0-32.8-14.7-32.8-32.8l0,0c0-18.1,14.7-32.8,32.8-32.8
	h1335.3C1584.7,1002.9,1599.4,1017.6,1599.4,1035.7L1599.4,1035.7z"/>
<g>
	<g>
		<g>
			<path class="st1" d="M806.5,182.7l62.4-15.5c0,0,14.3,10.3,2,25.6C870.2,193.7,806.5,182.7,806.5,182.7z"/>
			<path class="st2" d="M806.5,182.7l62.4-15.5c0,0,14.3,10.3,2,25.6C870.2,193.7,806.5,182.7,806.5,182.7z"/>
		</g>
		<g>
			<path class="st1" d="M798.7,148l41.2-49.3c0,0,17.6-0.2,16.7,19.4C856.6,119.2,798.7,148,798.7,148z"/>
			<path class="st2" d="M798.7,148l41.2-49.3c0,0,17.6-0.2,16.7,19.4C856.6,119.2,798.7,148,798.7,148z"/>
		</g>
		<g>
			<path class="st1" d="M773.4,151.1l-18.8-61.5c0,0,9.5-14.8,25.4-3.4C780.9,86.8,773.4,151.1,773.4,151.1z"/>
			<path class="st2" d="M773.4,151.1l-18.8-61.5c0,0,9.5-14.8,25.4-3.4C780.9,86.8,773.4,151.1,773.4,151.1z"/>
		</g>
	</g>
</g>
<g>
	<g>
		<g>
			<path class="st1" d="M891.3,974.3l-56.4,4.4c0,0-10.9-11,1.9-22.5C837.6,955.6,891.3,974.3,891.3,974.3z"/>
			<path class="st2" d="M891.3,974.3l-56.4,4.4c0,0-10.9-11,1.9-22.5C837.6,955.6,891.3,974.3,891.3,974.3z"/>
		</g>
		<g>
			<path class="st1" d="M893.1,1005.6l-42.9,36.9c0,0-15.3-2.4-11.7-19.3C838.6,1022.2,893.1,1005.6,893.1,1005.6z"/>
			<path class="st2" d="M893.1,1005.6l-42.9,36.9c0,0-15.3-2.4-11.7-19.3C838.6,1022.2,893.1,1005.6,893.1,1005.6z"/>
		</g>
		<g>
			<path class="st1" d="M915.4,1006.6l7.5,56.1c0,0-10.4,11.5-22.5-0.7C899.7,1061.3,915.4,1006.6,915.4,1006.6z"/>
			<path class="st2" d="M915.4,1006.6l7.5,56.1c0,0-10.4,11.5-22.5-0.7C899.7,1061.3,915.4,1006.6,915.4,1006.6z"/>
		</g>
	</g>
</g>
<g>
	<path class="st0" d="M637.9,713.9h-8.5l-3.5,21.6h-10.5l3.5-21.6h-11.7v-9.6h13.3l2.3-13.9h-11.6v-9.6h13.2l3.6-21.9h10.4
		l-3.6,21.9h8.5l3.6-21.9h10.5l-3.6,21.9H666v9.6h-13.7l-2.3,13.9H662v9.6h-13.6l-3.5,21.6h-10.5L637.9,713.9z M631,704.2h8.5
		l2.3-13.9h-8.5L631,704.2z"/>
</g>
<g>
	<path class="st0" d="M461.9,1019.7c-4.6,0-8.5-1.7-11.8-5c-3.3-3.3-5-7.2-5-11.8v-63.4H249.4c-4.6,0-8.5-1.6-11.8-5
		c-3.3-3.3-5-7.2-5-11.8v-65.9c0-10.8,2.7-19.7,8.1-26.7L426.4,596c3.7-4.6,7.1-7.6,10.3-9c3.1-1.4,7.3-2.2,12.7-2.2h93.8
		c4.6,0,8.5,1.7,11.8,5c3.3,3.3,5,7.3,5,11.8v238.6h53.4c4.6,0,8.5,1.7,11.8,5c3.3,3.3,5,7.3,5,11.8v65.9c0,4.6-1.7,8.5-5,11.8
		c-3.3,3.3-7.3,5-11.8,5H560v63.4c0,4.6-1.7,8.5-5,11.8c-3.3,3.3-7.3,5-11.8,5H461.9z M448.2,840.1V725.8l-90.7,114.3H448.2z"/>
	<path class="st0" d="M935.8,389.3c31.1,0,57.8,4.6,80.2,13.7c22.4,9.1,40.9,21.3,55.6,36.7c14.7,15.3,25.7,33.2,32.9,53.7
		c7.2,20.5,11.5,41.9,12.7,64.3c0.8,17.8,1.2,36.5,1.2,55.9c0,19.5-0.4,37.7-1.2,54.7c-1.2,22.4-5.5,43.8-12.7,64.3
		c-7.3,20.5-18.2,38.4-32.9,53.7c-14.7,15.3-33.2,27.6-55.6,36.7c-22.4,9.1-49.1,13.7-80.2,13.7c-31.1,0-57.8-4.6-80.2-13.7
		c-22.4-9.1-40.9-21.3-55.6-36.7c-14.7-15.3-25.7-33.2-32.9-53.7c-7.3-20.5-11.5-41.9-12.7-64.3c-0.8-17-1.2-35.2-1.2-54.7
		c0-19.5,0.4-38.1,1.2-55.9c1.2-22.4,5.5-43.8,12.7-64.3c7.2-20.5,18.2-38.4,32.9-53.7c14.7-15.3,33.2-27.5,55.6-36.7
		C878,393.8,904.7,389.3,935.8,389.3z M1002.3,665.1c1.7-35.2,1.7-70,0-104.4c-0.8-10.3-2.4-19.9-4.7-28.6
		c-2.3-8.7-5.9-16.3-10.9-22.7c-5-6.4-11.6-11.5-19.9-15.2c-8.3-3.7-18.6-5.6-31.1-5.6c-12.4,0-22.8,1.9-31.1,5.6
		c-8.3,3.7-14.9,8.8-19.9,15.2c-5,6.4-8.7,14-11.2,22.7c-2.5,8.7-3.9,18.2-4.3,28.6c-2.1,34.4-2.1,69.2,0,104.4
		c0.4,10.4,1.8,19.9,4,28.6c2.3,8.7,6,16.3,11.2,22.7c5.2,6.4,11.9,11.5,20.2,15.2c8.3,3.7,18.6,5.6,31.1,5.6
		c12.4,0,22.8-1.9,31.1-5.6c8.3-3.7,15-8.8,20.2-15.2c5.2-6.4,8.9-14,11.2-22.7C1000.5,685,1001.8,675.5,1002.3,665.1z"/>
	<path class="st0" d="M1418.9,537c-4.6,0-8.5-1.7-11.8-5c-3.3-3.3-5-7.2-5-11.8v-63.4h-195.7c-4.6,0-8.5-1.6-11.8-5
		c-3.3-3.3-5-7.2-5-11.8v-65.9c0-10.8,2.7-19.7,8.1-26.7l185.8-234.2c3.7-4.6,7.1-7.6,10.3-9c3.1-1.4,7.4-2.2,12.7-2.2h93.8
		c4.6,0,8.5,1.7,11.8,5c3.3,3.3,5,7.3,5,11.8v238.6h53.4c4.6,0,8.5,1.7,11.8,5c3.3,3.3,5,7.3,5,11.8v65.9c0,4.6-1.7,8.5-5,11.8
		c-3.3,3.3-7.3,5-11.8,5H1517v63.4c0,4.6-1.7,8.5-5,11.8c-3.3,3.3-7.3,5-11.8,5H1418.9z M1405.2,357.4V243.1l-90.7,114.3H1405.2z"/>
</g>
<g>
	<path class="st3" d="M450.9,973c-4.6,0-8.5-1.7-11.8-5c-3.3-3.3-5-7.2-5-11.8v-63.4H238.4c-4.6,0-8.5-1.6-11.8-5
		c-3.3-3.3-5-7.2-5-11.8v-65.9c0-10.8,2.7-19.7,8.1-26.7l185.8-234.2c3.7-4.6,7.1-7.6,10.3-9c3.1-1.4,7.3-2.2,12.7-2.2h93.8
		c4.6,0,8.5,1.7,11.8,5c3.3,3.3,5,7.3,5,11.8v238.6h53.4c4.6,0,8.5,1.7,11.8,5c3.3,3.3,5,7.3,5,11.8v65.9c0,4.6-1.7,8.5-5,11.8
		c-3.3,3.3-7.3,5-11.8,5h-53.4v63.4c0,4.6-1.7,8.5-5,11.8c-3.3,3.3-7.3,5-11.8,5H450.9z M437.2,793.5V679.2l-90.7,114.3H437.2z"/>
	<path class="st3" d="M880.8,411.9c31.1,0,57.8,4.6,80.2,13.7c22.4,9.1,40.9,21.3,55.6,36.7c14.7,15.3,25.7,33.2,32.9,53.7
		c7.2,20.5,11.5,41.9,12.7,64.3c0.8,17.8,1.2,36.5,1.2,55.9c0,19.5-0.4,37.7-1.2,54.7c-1.2,22.4-5.5,43.8-12.7,64.3
		c-7.3,20.5-18.2,38.4-32.9,53.7c-14.7,15.3-33.2,27.6-55.6,36.7c-22.4,9.1-49.1,13.7-80.2,13.7c-31.1,0-57.8-4.6-80.2-13.7
		c-22.4-9.1-40.9-21.3-55.6-36.7c-14.7-15.3-25.7-33.2-32.9-53.7c-7.3-20.5-11.5-41.9-12.7-64.3c-0.8-17-1.2-35.2-1.2-54.7
		c0-19.5,0.4-38.1,1.2-55.9c1.2-22.4,5.5-43.8,12.7-64.3c7.2-20.5,18.2-38.4,32.9-53.7c14.7-15.3,33.2-27.5,55.6-36.7
		C823.1,416.4,849.8,411.9,880.8,411.9z M947.3,687.7c1.7-35.2,1.7-70,0-104.4c-0.8-10.3-2.4-19.9-4.7-28.6
		c-2.3-8.7-5.9-16.3-10.9-22.7c-5-6.4-11.6-11.5-19.9-15.2c-8.3-3.7-18.6-5.6-31.1-5.6c-12.4,0-22.8,1.9-31.1,5.6
		c-8.3,3.7-14.9,8.8-19.9,15.2c-5,6.4-8.7,14-11.2,22.7c-2.5,8.7-3.9,18.2-4.4,28.6c-2.1,34.4-2.1,69.2,0,104.4
		c0.4,10.4,1.8,19.9,4,28.6c2.3,8.7,6,16.3,11.2,22.7c5.2,6.4,11.9,11.5,20.2,15.2c8.3,3.7,18.6,5.6,31.1,5.6
		c12.4,0,22.8-1.9,31.1-5.6c8.3-3.7,15-8.8,20.2-15.2c5.2-6.4,8.9-14,11.2-22.7C945.6,707.6,946.9,698.1,947.3,687.7z"/>
	<path class="st3" d="M1367.7,559.6c-4.6,0-8.5-1.7-11.8-5c-3.3-3.3-5-7.2-5-11.8v-63.4h-195.7c-4.6,0-8.5-1.6-11.8-5
		c-3.3-3.3-5-7.2-5-11.8v-65.9c0-10.8,2.7-19.7,8.1-26.7l185.8-234.2c3.7-4.6,7.1-7.6,10.3-9c3.1-1.4,7.3-2.2,12.7-2.2h93.8
		c4.6,0,8.5,1.7,11.8,5c3.3,3.3,5,7.3,5,11.8V380h53.4c4.6,0,8.5,1.7,11.8,5c3.3,3.3,5,7.3,5,11.8v65.9c0,4.6-1.7,8.5-5,11.8
		c-3.3,3.3-7.3,5-11.8,5h-53.4v63.4c0,4.6-1.7,8.5-5,11.8c-3.3,3.3-7.3,5-11.8,5H1367.7z M1354,380V265.7L1263.3,380H1354z"/>
</g>
<line class="st4" x1="234.5" y1="1000.2" x2="1543.6" y2="1000.2"/>
<g>
	<polyline class="st5" points="476.3,960.4 465,994.7 439.4,994 447.8,965.4 	"/>
	<g>
		<g>
			<path class="st5" d="M573.1,441.1l-15.6,1.3c3.8,31.8-9.7,55.3-27.5,72.1l17.2,27C578.1,500.8,573.1,441.1,573.1,441.1z"/>
			<path class="st6" d="M466,550.2l14.4,27.7c32-3.6,53-18,66.8-36.3l-17.2-27C502.9,540.2,466,550.2,466,550.2z"/>
			<path class="st7" d="M572.9,448.1l-14.4-0.2c0,0-0.9-0.5-1.7-1.3c-0.8-0.8,0.8-3.7,0.8-3.7s-5.3-8.4-6.6-15.5
				c-1.2-7.1-6.9-14.2-3.5-14.3c3.4-0.1,3.6,6.1,5.3,5.3c0.8-0.4,1.1-6,0.2-11.5c-1-5.5-3.2-10.8-0.8-10.4
				c4.8,0.9,7.4,18.5,7.4,18.5s0.4-5.7,0.3-11.6c0-6.4-0.3-13,2.7-13c2.6,0,2.6,5.9,3.3,11.7c0.7,5.7,2.2,11.4,2.2,11.4
				s1.3-19.2,3.4-17.2c2.1,2,0.6,19.1,1.8,19.1c1.2,0,2.7-12,4.5-11c1.7,1-0.1,21.5-0.1,21.5s0.7,12.1-4,17.6
				C573.7,443.5,575.7,447.2,572.9,448.1z"/>
			
				<rect x="532.6" y="507.6" transform="matrix(0.8478 -0.5303 0.5303 0.8478 -197.5739 367.6042)" class="st6" width="18.2" height="40.9"/>
		</g>
		<g>
			<g>
				<path class="st7" d="M-857.9,395.4l-11.9-35.2c0.4-0.1,38.7-13.4,78.7-44.7c52.4-40.9,83.1-92,91.1-151.7
					c8.4-62,35.7-117,79.1-159.1c40.2-39.1,92.7-64.8,147.7-72.5c53.8-7.5,106.7,2.1,153,27.9c50.5,28.1,91.1,75,117.6,135.5
					c42.7,97.7,113.9,159.2,211.7,182.6c74.1,17.8,136.7,6.1,137.3,5.9l7.1,36.5c-2.8,0.6-69.9,13.3-151.6-5.9
					c-48.3-11.4-91.7-31.6-128.9-60.1c-46.5-35.6-83.4-84.1-109.6-144.1C-281.4,7.9-367.8-45.1-467.9-31.1
					c-85.3,11.9-178.8,78.3-195.2,199.8c-9.3,69.2-46,130.3-106.2,176.9C-814.1,380.4-856.1,394.8-857.9,395.4z"/>
			</g>
		</g>
		<path class="st8" d="M134.2,294.9c0,0-259.2,43.6-360.9-207.5c-101.7-251.1-400.1-95.3-459.5,50.2
			c-59.4,145.5-186.4,204.7-186.4,204.7"/>
		<path class="st5" d="M338.8,304.9c0,19.1-15.5,34.6-34.6,34.6H140.1c-19.1,0-34.6-15.5-34.6-34.6l0,0c0-19.1,15.5-34.6,34.6-34.6
			h164.1C323.3,270.3,338.8,285.8,338.8,304.9L338.8,304.9z"/>
		<path class="st0" d="M293.7,312H145.1c-14.9,0-27.3-10.4-30.5-24.3c-2.4,4.4-3.8,9.5-3.8,14.9c0,17.3,14,31.4,31.4,31.4h148.5
			c17.3,0,31.4-14,31.4-31.4c0-2.4-0.3-4.8-0.8-7.1C316,305.3,305.6,312,293.7,312z"/>
		<path class="st4" d="M411.8,317.7c0,35.8-29,64.7-64.7,64.7l0,0c-35.8,0-64.7-29-64.7-64.7v-25.5c0-35.8,29-64.7,64.7-64.7l0,0
			c35.8,0,64.7,29,64.7,64.7V317.7z"/>
		<path class="st0" d="M366.4,347.7c-31.7,0-57.3-25.7-57.3-57.3v-22.6c0-7.7,1.5-15,4.2-21.7c-15.2,10.3-25.3,27.7-25.3,47.5v22.6
			c0,31.7,25.7,57.3,57.3,57.3c24,0,44.5-14.7,53.1-35.7C389.3,344.1,378.3,347.7,366.4,347.7z"/>
		<path class="st5" d="M623.3,354.2c0,40.3-32.7,72.9-72.9,72.9H420.9c-40.3,0-72.9-32.7-72.9-72.9v-98.5
			c0-40.3,32.7-72.9,72.9-72.9h129.5c40.3,0,72.9,32.7,72.9,72.9V354.2z"/>
		<path class="st0" d="M574.9,384H454.6c-37.4,0-67.8-30.3-67.8-67.8v-91.5c0-8.8,1.7-17.2,4.7-24.9c-22,11.2-37,34-37,60.4v91.5
			c0,37.4,30.4,67.8,67.8,67.8h120.3c28.7,0,53.2-17.8,63.1-42.9C596.4,381.3,586,384,574.9,384z"/>
		<path class="st5" d="M634.6,134.4c-11.2,0-21.6,2-30.4,5.4c-0.1,0-0.3,0-0.4,0c-5.9,0-11.6,3.7-16.9,10.4c-4.7,4.4-7.8,9.5-8.8,15
			c-13.7,29.6-22.8,82-22.8,141.8c0,92.4,21.7,167.3,48.5,167.3c2.5,0,5-0.7,7.4-1.9c7.1,2,15.1,3.1,23.4,3.1
			c31.4,0,56.9-15.5,56.9-34.6V169.1C691.5,149.9,666,134.4,634.6,134.4z"/>
		<path class="st9" d="M521.8,350c0,2.4-1.9,4.3-4.3,4.3l0,0c-2.3,0-4.2-1.9-4.2-4.3V244.2c0-2.3,1.9-4.2,4.2-4.2l0,0
			c2.4,0,4.3,1.9,4.3,4.2V350z"/>
		<path class="st9" d="M491.1,350c0,2.4-1.9,4.3-4.3,4.3l0,0c-2.3,0-4.2-1.9-4.2-4.3V244.2c0-2.3,1.9-4.2,4.2-4.2l0,0
			c2.4,0,4.3,1.9,4.3,4.2V350z"/>
		<path class="st10" d="M716.9,307c0,92.4-21.7,167.3-48.5,167.3c-26.8,0-48.5-74.9-48.5-167.3c0-92.4,21.7-167.3,48.5-167.3
			C695.2,139.8,716.9,214.7,716.9,307z"/>
		<path class="st7" d="M657.1,333.5c0,3.6-2.9,6.5-6.5,6.5l0,0c-3.6,0-6.5-2.9-6.5-6.5V277c0-3.6,2.9-6.5,6.5-6.5l0,0
			c3.6,0,6.5,2.9,6.5,6.5V333.5z"/>
		<path class="st7" d="M693.5,311.7c0,3.6-2.9,6.5-6.5,6.5l0,0c-3.6,0-6.5-2.9-6.5-6.5v-56.6c0-3.6,2.9-6.5,6.5-6.5l0,0
			c3.6,0,6.5,2.9,6.5,6.5V311.7z"/>
		<g>
			<polyline class="st5" points="558.3,945.4 553.3,974.7 525.4,979.2 531.7,950.5 			"/>
			<path class="st7" d="M431.1,536c0,0-42,6.3-38.7,47.1c1.1,13.8,24.8,133.2,24.8,133.2l110.3-10.5c0,0-29.6-152.2-48.6-164.8
				C460.1,528.4,431.1,536,431.1,536z"/>
			<path class="st7" d="M417.2,716.3c0,0,5.3,33.7,17.2,65.6c17.9,48,33.3,71.8,29,107.3c-6.5,53.3-26.7,83.3-26.7,83.3l46.7,7.5
				c0,0,29.1-97.8,24.8-111.8c-7.6-65.6-14.5-167-14.5-167L417.2,716.3z"/>
			<path class="st7" d="M520,689.2c0,0,55.7,81.2,58.2,138.6c2.1,46.8-16.4,131-16.4,131l-39-1.2c0,0,13.9-107.1,5.3-133
				c-25.2-45.4-63-100.7-63-100.7L520,689.2z"/>
			<path class="st11" d="M419.8,553.3c0,0,28.4-8.5,39.1,20.5c10.7,29,1.2,49.4-16,52.5C406.9,632.8,381.3,557.7,419.8,553.3z"/>
			<path class="st11" d="M488.8,578.9c1,3-11.7,10.7-11.7,10.7s-3.1-8.2-7.1-14.7c-2-3.3-4.5-6.9-7.7-10.4
				c-4.8-4.5-11.1-10.8-18.2-13.9c-2.5-1.2-5.1-2.1-8-2.8c-5.6-1.4-6-7.2-0.3-8.1c2.9-0.9,5.8-1.2,8.8-1.2c3,0.1,5.9,0.5,8.9,1.3
				c3.2,0.7,6.1,1.6,8.8,2.9c2.7,1.3,5.3,2.8,7.9,4.6C473.1,548.8,483.4,562,488.8,578.9z"/>
			<g>
				<path class="st7" d="M432.1,485.3l-4.3,27.8l-19.5-17.9l-6.9-13.8l7.8-7.3c0,0,29.4-23.8,34.1-29.2c4.8-5.4,20.3,24.8,6.9,37.3"
					/>
				<path class="st5" d="M424.6,508.2l2.4,34c0,0,12.1,6.1,19.1,5.2c6.9-0.9,10.4-5.8,10.4-5.8l-11.2-33.2L424.6,508.2z"/>
				<path class="st12" d="M447.6,475.8l-20.8,8.2c0,0,2.2,9.5,1.7,10.6c0,0-5.9,3.6-5.9,3.6c-2.9,2-3.2,6.6-0.6,10.3
					c2.5,3.7,6.9,5,9.8,3c0.7-0.5,1.2-1.1,1.6-1.8c6,6.1,10.3,8.8,18.2,8.8C466.6,518.5,447.6,475.8,447.6,475.8z"/>
			</g>
			<path class="st5" d="M503,440.2h-12c1.4,27-12.7,51.9-28.9,71.6l21.2,17.7C503.7,486.3,503,440.2,503,440.2z"/>
			<path class="st6" d="M415.9,554.3c-3.3,4-5.7,7.7-7.3,10.9c-3.9,7.3-3.9,17.4,2.4,21.2c20.2,13.9,39.1-8.8,51.3-23.5
				c2.5-3.1,4.9-6.2,7.1-9.4c2.2-3.3,4.3-6.5,6.2-9.8c1.4-2.3,2.8-4.4,4.1-6.8c1.3-2.5,2.5-4.9,3.7-7.4l-21.2-17.7
				C461.8,512.2,422.3,547.3,415.9,554.3z"/>
			
				<rect x="466.3" y="497.9" transform="matrix(0.6397 -0.7687 0.7687 0.6397 -227.1088 552.2304)" class="st6" width="18.2" height="40.9"/>
			<path class="st6" d="M515.9,676.8c0,0-67.4,18.6-103.6,14.1l2.6,32.4c0,0,70-17.2,102.7-34.3c0.6-0.3,0-1.8,0-1.8L515.9,676.8z"
				/>
			<g>
				<path class="st6" d="M547.1,995.8l-2.5-3.2l-24.9-1.7l-2.1,6.8c0,0,72.2,8.2,73.5,2.8c0.4-1.7,0.8-2.7,0.7-3.6L547.1,995.8z"/>
				<path class="st6" d="M547.1,995.8l44.6,1.3c-0.3-1.8,2.9-3.8-7.4-9.8c-5.6-3.3-17.4-3.4-21.6-6.6c-7.2-5.4-10.9-12.3-10.9-12.3
					s-9.6,11.7-14.9,9.5c-5.4-2.2-11.7-4.2-11.7-4.2l-5.4,17.5l24.9,1.7L547.1,995.8z"/>
			</g>
			<g>
				<path class="st6" d="M459.9,1014.4l-2.4-3.2l-24.8-2.6l-2.4,6.7c0,0,71.8,11,73.3,5.7c0.5-1.7,0.9-2.7,0.8-3.5L459.9,1014.4z"/>
				<path class="st6" d="M459.9,1014.4l44.5,3c-0.2-1.8,3-3.7-7.1-10.1c-5.5-3.5-17.2-4.1-21.3-7.5c-7-5.7-10.4-12.8-10.4-12.8
					s-10,11.3-15.3,8.9c-5.3-2.4-11.5-4.7-11.5-4.7l-6.1,17.2l24.8,2.6L459.9,1014.4z"/>
			</g>
			<path class="st7" d="M504.8,445.6l-14.7-0.7c0,0-0.9-0.6-1.7-1.4c-0.7-0.8,0.9-3.7,0.9-3.7s-5.2-8.7-6.2-16
				c-1-7.3-6.6-14.6-3.1-14.6c3.5,0,3.5,6.3,5.2,5.6c0.9-0.3,1.3-6.1,0.5-11.7c-0.8-5.6-2.9-11.1-0.5-10.6c4.9,1,7,19,7,19
				s0.5-5.8,0.7-11.8c0.2-6.5,0-13.2,3.1-13.1c2.6,0.1,2.4,6.1,3,12c0.5,5.8,1.9,11.6,1.9,11.6s1.8-19.5,3.9-17.4
				c2.1,2.1,0.1,19.4,1.3,19.4c1.2,0,3.1-12.1,4.8-11c1.7,1-0.7,21.9-0.7,21.9s0.3,12.3-4.5,17.8C505.7,441,507.7,444.8,504.8,445.6
				z"/>
		</g>
		<path class="st13" d="M485.3,607.7c1.5,4,1.5,7.8-0.2,8.4c-1.7,0.6-4.3-2.1-5.8-6.1c-1.5-4-1.5-7.8,0.2-8.5
			C481.2,600.9,483.8,603.6,485.3,607.7z"/>
		<path class="st13" d="M499.1,599.3c1.5,4,1.5,7.8-0.2,8.4c-1.7,0.6-4.3-2.1-5.8-6.1c-1.5-4-1.5-7.8,0.2-8.5
			C494.9,592.5,497.5,595.3,499.1,599.3z"/>
	</g>
	<path class="st6" d="M446.2,749.7c0,4.5-3.6,8.1-8.1,8.1h-26.9c-4.5,0-8.1-3.6-8.1-8.1v-54.4c0-4.5,3.6-8.1,8.1-8.1h26.9
		c4.5,0,8.1,3.6,8.1,8.1V749.7z"/>
</g>
<path class="st14" d="M1544.4,804.5c-0.2-2.4-0.4-4.7-0.5-6.9c-0.2-2.2-0.2-4.2-0.3-6.1c-0.1-1.9-0.2-3.6-0.2-5.2
	c0-2.1-0.1-3.8-0.1-5.2c3.6-3.5,29.3-30.8,8.2-69.5c0,0-39,28.2-8.9,69.5c-0.2,1.4-0.5,3.1-0.7,5.2c-0.4,3.1-0.7,7-1,11.4
	c-0.1,2.2-0.2,4.5-0.3,7c-0.2,2.5,0.2,5.1,0.3,7.8c0.2,2.1,0.3,4.3,0.4,6.6c-1.4-1.9-3.4-4.4-5.3-6.9c-1-1.3-1.9-2.5-2.8-3.7
	c-0.3-0.4-0.7-0.8-1-1.3c5.8-53.7-33-61.3-33-61.3c1,56.6,23.9,61.5,31,61.7c0.5,0.6,1.1,1.3,1.7,2c0.9,1.2,1.9,2.4,2.8,3.7
	c1.9,2.5,3.8,5,5.3,6.9c0.2,0.2,0.3,0.5,0.5,0.7c0.2,0.2,0.4,0.3,0.6,0.5c0.2,0.2,0.4,0.3,0.5,0.4c0.3,2.6,0.6,5.3,0.9,8.1
	c0.2,1.5,0.3,3.1,0.5,4.7c0.2,1.6,0.5,3.2,0.7,4.8c0.5,3.2,1,6.5,1.6,9.8c0.7,3.4,1.3,6.7,2,10.1c0.4,1.6,0.7,3.2,1.1,4.9
	c-0.2-0.4-0.4-0.8-0.7-1.3c-0.5-0.8-0.9-1.5-1.4-2.3c-0.9-1.5-1.9-3.1-2.7-4.6c-1-1.4-1.8-2.7-2.6-3.9c-0.2-0.3-0.3-0.6-0.5-0.8
	c-0.2-0.2-0.5-0.4-0.7-0.6c-0.2-0.2-0.4-0.3-0.5-0.4c-1.1-8.3-8.2-41.3-48.8-48.7c0,0-2.6,48,48.4,50.6c0,0.1,0.1,0.2,0.1,0.3
	c0.1,0.3,0.4,0.5,0.5,0.8c0.8,1.1,1.6,2.4,2.6,3.8c0.9,1.4,1.8,3,2.7,4.5c0.5,0.8,0.9,1.5,1.4,2.3c0.5,0.7,0.8,1.5,1.2,2.3
	c0.7,1.5,1.4,2.9,2,4.1c0.2,0.3,0.2,0.6,0.4,0.9c0.1,0.1,0.2,0.3,0.3,0.4c1.5,6.2,3,12.5,4.1,18.9c0.7,3.5,1.1,7,1.6,10.5
	c0.2,1.7,0.3,3.5,0.5,5.2c0.1,1.8,0.3,3.5,0.3,5.2c0,0.4,0,0.8,0,1.2c-0.1-0.2-0.2-0.5-0.4-0.7c-0.5-1-1.2-2.1-1.9-3.2
	c-0.6-1.1-1.5-2.2-2.2-3.3c-0.8-1-1.7-2.1-2.6-3.1c-0.9-0.9-1.8-1.8-2.8-2.6c0.2-0.1,0.5-0.1,0.7-0.2c0,0-13.3-39.7-56.2-32.3
	c0,0,10.1,45.4,53.3,33.1c0.2,0.2,0.5,0.4,0.7,0.6c1,0.8,1.9,1.8,2.8,2.7c0.9,1,1.7,2,2.5,3c0.7,1.1,1.5,2.1,2.1,3.1
	c0.7,1,1.3,2.1,1.8,3.1c0.6,1,1,2,1.4,2.9c0.2,0.4,0.3,0.9,0.6,1.3c0,0.1,0.1,0.1,0.1,0.2c0,1.6,0,3.1-0.1,4.7
	c-0.1,1.7-0.1,3.4-0.2,5.1c-0.1,1.7-0.3,3.4-0.5,5c-0.2,1.7-0.3,3.3-0.5,4.9c-0.3,1.6-0.5,3.2-0.8,4.8c-0.5,3.2-1,6.3-1.7,9.2
	c-0.7,3-1.3,5.9-1.9,8.7c-0.2,0.7-0.4,1.3-0.5,1.9c-0.2-0.6-0.3-1.3-0.5-1.9c-0.9-2.8-2.3-5.3-3.5-7.1c-0.2-0.2-0.2-0.5-0.4-0.6
	c-0.2-0.2-0.4-0.3-0.6-0.4c-0.3-0.2-0.5-0.3-0.7-0.4c-0.4-4.4-4.4-36.6-40.1-40.3c0,0-2.3,42.2,39.3,40.8c0.1,0.2,0.2,0.5,0.3,0.8
	c0.1,0.2,0.1,0.4,0.2,0.7c0.1,0.2,0.3,0.4,0.4,0.6c1.1,1.7,2.4,4.1,3.2,6.7c0.4,1.3,0.7,2.6,0.9,3.8c0.1,0.6,0.1,1.2,0.2,1.8
	c0,0.1,0,0.2,0,0.3c-0.1,0.5-0.3,1-0.4,1.5c-0.4,1.3-0.7,2.5-1,3.8c-0.4,1.2-0.8,2.4-1,3.6c-0.6,2.4-1.1,4.6-1.7,6.7
	c-1,4.3-2.1,7.9-3,10.9c-1.7,6-2.7,9.5-2.7,9.5s1.5-3.3,4-9c1.2-2.9,2.8-6.4,4.3-10.5c0.6-1.4,1.1-2.9,1.7-4.4
	c0.1-0.1,0.2-0.1,0.4-0.2c0.2-0.1,0.4-0.2,0.7-0.3c0.2-0.1,0.4-0.4,0.6-0.5c0.4-0.4,0.8-0.8,1.4-1.1c0.5-0.4,1.1-0.7,1.7-1.1
	c0.6-0.4,1.2-0.8,1.8-1.2c0.6-0.3,1.3-0.7,2-1c0.7-0.3,1.3-0.7,2-0.9c0.7-0.3,1.4-0.5,2-0.8c0.6-0.3,1.3-0.4,1.9-0.6
	c0.6-0.1,1.2-0.4,1.7-0.4c0.3-0.1,0.6,0,0.8-0.1c0.1-0.1,0.2-0.1,0.4-0.2c7.3,1.9,41.3,8.7,63.9-26.8c0,0-43.1-20.2-64.8,25.1
	c-0.2,0-0.4,0.1-0.6,0.1c-0.6,0.1-1.2,0.3-1.8,0.4c-0.7,0.2-1.4,0.3-2,0.6c-0.7,0.3-1.4,0.5-2.1,0.8c-0.7,0.2-1.4,0.6-2.1,1
	c-0.7,0.4-1.4,0.7-2.1,1.1c-0.7,0.4-1.3,0.8-1.9,1.2c-0.6,0.4-1.2,0.8-1.7,1.2c-0.3,0.2-0.5,0.4-0.7,0.6c0.7-2,1.2-4.2,1.8-6.4
	c0.7-2.6,1.4-5.3,2.2-8.1c0.6-2.9,1.3-5.8,1.9-8.8c0.7-3,1.2-6.2,1.7-9.4c0.3-1.6,0.5-3.2,0.8-4.9c0.1-0.9,0.2-1.7,0.3-2.6
	c0.1,0,0.2-0.1,0.3-0.1c0.2-0.1,0.2-0.3,0.4-0.4c1.1-1.1,2.6-2.6,4-4c1.5-1.5,2.9-2.9,4-4c0.1-0.1,0.2-0.2,0.3-0.3
	c9.3-1.4,40.9-8.8,48.4-48.3c0,0-48.2-3-51,48.2c-0.9,0.9-2,2-3,3c-1.1,1.1-2.2,2.2-3.1,3.1c0.2-1.6,0.4-3.2,0.5-4.8
	c0.1-1.7,0.1-3.5,0.2-5.2c0.3-3.5,0.1-7,0-10.6c0-1.8-0.2-3.6-0.3-5.4c-0.2-1.8-0.2-3.6-0.5-5.4c-0.4-2.7-0.7-5.3-1.2-8
	c0-0.3,0.1-0.6,0.1-0.9c0.2-1.7,0.3-3.6,0.6-5.7c0.3-2.1,0.6-4.3,1.1-6.6c0.8-4.5,1.8-8.9,2.6-12.2c0.1-0.4,0.2-0.8,0.3-1.2
	c0-0.2,0-0.4,0-0.6c4.7-2.3,38.9-20.9,23.8-62.8c0,0-47.4,29.2-25.2,61.9c0,0,0,0.1-0.1,0.1c-0.2,0.3-0.3,0.7-0.5,1
	c-0.1,0.4-0.2,0.8-0.3,1.2c-0.8,3.3-1.8,7.8-2.6,12.3c-0.5,2.2-0.8,4.5-1.1,6.6c0,0.2,0,0.3-0.1,0.5c-1.2-5.9-2.5-11.6-3.9-17.3
	c-0.8-3.4-1.6-6.8-2.3-10.2c-0.7-3.3-1.4-6.8-2-10c-0.5-3.3-1-6.5-1.5-9.7c-0.3-1.6-0.5-3.2-0.7-4.7c-0.2-1.6-0.3-3.1-0.5-4.6
	c-0.3-2.7-0.6-5.4-0.8-8c0.1-0.7,0.2-1.5,0.4-2.2c0.2-0.9,0.4-1.9,0.8-2.8c0.3-0.9,0.6-1.9,1-2.8c0.3-0.9,0.8-1.7,1.2-2.6
	c0.8-1.6,1.7-3.1,2.5-4.4c0.2-0.3,0.4-0.6,0.6-0.9c0.1-0.3,0.3-0.6,0.4-0.9c0,0,0,0,0-0.1c7.4-2.3,31.3-12.2,25-41.8
	c0,0-34.2,8-27.2,42c-0.1,0.2-0.2,0.4-0.3,0.5c-0.9,1.3-1.8,2.8-2.7,4.6c-0.4,0.9-0.9,1.8-1.2,2.7c-0.3,0.8-0.6,1.7-0.9,2.6
	c-0.1-1.1-0.1-2.2-0.2-3.3C1544.5,809.4,1544.5,806.9,1544.4,804.5z"/>
<g>
	<g>
		<path class="st0" d="M200.3,628.8c0,3.2-2.6,5.8-5.8,5.8s-5.8-2.6-5.8-5.8c0-3.2,2.6-5.8,5.8-5.8S200.3,625.6,200.3,628.8z"/>
		<path class="st0" d="M233.5,628.8c0,3.2-2.6,5.8-5.8,5.8c-3.2,0-5.8-2.6-5.8-5.8c0-3.2,2.6-5.8,5.8-5.8
			C230.9,622.9,233.5,625.6,233.5,628.8z"/>
		<path class="st0" d="M266.7,628.8c0,3.2-2.6,5.8-5.8,5.8c-3.2,0-5.8-2.6-5.8-5.8c0-3.2,2.6-5.8,5.8-5.8
			C264.1,622.9,266.7,625.6,266.7,628.8z"/>
		<path class="st0" d="M299.9,628.8c0,3.2-2.6,5.8-5.8,5.8c-3.2,0-5.8-2.6-5.8-5.8c0-3.2,2.6-5.8,5.8-5.8
			C297.3,622.9,299.9,625.6,299.9,628.8z"/>
		<path class="st0" d="M333.2,628.8c0,3.2-2.6,5.8-5.8,5.8c-3.2,0-5.8-2.6-5.8-5.8c0-3.2,2.6-5.8,5.8-5.8
			C330.6,622.9,333.2,625.6,333.2,628.8z"/>
		<path class="st0" d="M366.4,628.8c0,3.2-2.6,5.8-5.8,5.8c-3.2,0-5.8-2.6-5.8-5.8c0-3.2,2.6-5.8,5.8-5.8
			C363.8,622.9,366.4,625.6,366.4,628.8z"/>
	</g>
	<g>
		<path class="st0" d="M200.3,665.1c0,3.2-2.6,5.8-5.8,5.8s-5.8-2.6-5.8-5.8c0-3.2,2.6-5.8,5.8-5.8S200.3,661.9,200.3,665.1z"/>
		<path class="st0" d="M233.5,665.1c0,3.2-2.6,5.8-5.8,5.8c-3.2,0-5.8-2.6-5.8-5.8c0-3.2,2.6-5.8,5.8-5.8
			C230.9,659.3,233.5,661.9,233.5,665.1z"/>
		<path class="st0" d="M266.7,665.1c0,3.2-2.6,5.8-5.8,5.8c-3.2,0-5.8-2.6-5.8-5.8c0-3.2,2.6-5.8,5.8-5.8
			C264.1,659.3,266.7,661.9,266.7,665.1z"/>
		<path class="st0" d="M299.9,665.1c0,3.2-2.6,5.8-5.8,5.8c-3.2,0-5.8-2.6-5.8-5.8c0-3.2,2.6-5.8,5.8-5.8
			C297.3,659.3,299.9,661.9,299.9,665.1z"/>
		<path class="st0" d="M333.2,665.1c0,3.2-2.6,5.8-5.8,5.8c-3.2,0-5.8-2.6-5.8-5.8c0-3.2,2.6-5.8,5.8-5.8
			C330.6,659.3,333.2,661.9,333.2,665.1z"/>
		<path class="st0" d="M366.4,665.1c0,3.2-2.6,5.8-5.8,5.8c-3.2,0-5.8-2.6-5.8-5.8c0-3.2,2.6-5.8,5.8-5.8
			C363.8,659.3,366.4,661.9,366.4,665.1z"/>
	</g>
	<g>
		<path class="st0" d="M200.3,701.5c0,3.2-2.6,5.8-5.8,5.8s-5.8-2.6-5.8-5.8c0-3.2,2.6-5.8,5.8-5.8S200.3,698.2,200.3,701.5z"/>
		<path class="st0" d="M233.5,701.5c0,3.2-2.6,5.8-5.8,5.8c-3.2,0-5.8-2.6-5.8-5.8c0-3.2,2.6-5.8,5.8-5.8
			C230.9,695.6,233.5,698.2,233.5,701.5z"/>
		<path class="st0" d="M266.7,701.5c0,3.2-2.6,5.8-5.8,5.8c-3.2,0-5.8-2.6-5.8-5.8c0-3.2,2.6-5.8,5.8-5.8
			C264.1,695.6,266.7,698.2,266.7,701.5z"/>
		<path class="st0" d="M299.9,701.5c0,3.2-2.6,5.8-5.8,5.8c-3.2,0-5.8-2.6-5.8-5.8c0-3.2,2.6-5.8,5.8-5.8
			C297.3,695.6,299.9,698.2,299.9,701.5z"/>
		<path class="st0" d="M333.2,701.5c0,3.2-2.6,5.8-5.8,5.8c-3.2,0-5.8-2.6-5.8-5.8c0-3.2,2.6-5.8,5.8-5.8
			C330.6,695.6,333.2,698.2,333.2,701.5z"/>
		<path class="st0" d="M366.4,701.5c0,3.2-2.6,5.8-5.8,5.8c-3.2,0-5.8-2.6-5.8-5.8c0-3.2,2.6-5.8,5.8-5.8
			C363.8,695.6,366.4,698.2,366.4,701.5z"/>
	</g>
	<g>
		<path class="st0" d="M200.3,737.8c0,3.2-2.6,5.8-5.8,5.8s-5.8-2.6-5.8-5.8c0-3.2,2.6-5.8,5.8-5.8S200.3,734.6,200.3,737.8z"/>
		<path class="st0" d="M233.5,737.8c0,3.2-2.6,5.8-5.8,5.8c-3.2,0-5.8-2.6-5.8-5.8c0-3.2,2.6-5.8,5.8-5.8
			C230.9,732,233.5,734.6,233.5,737.8z"/>
		<path class="st0" d="M266.7,737.8c0,3.2-2.6,5.8-5.8,5.8c-3.2,0-5.8-2.6-5.8-5.8c0-3.2,2.6-5.8,5.8-5.8
			C264.1,732,266.7,734.6,266.7,737.8z"/>
		<path class="st0" d="M299.9,737.8c0,3.2-2.6,5.8-5.8,5.8c-3.2,0-5.8-2.6-5.8-5.8c0-3.2,2.6-5.8,5.8-5.8
			C297.3,732,299.9,734.6,299.9,737.8z"/>
		<path class="st0" d="M333.2,737.8c0,3.2-2.6,5.8-5.8,5.8c-3.2,0-5.8-2.6-5.8-5.8c0-3.2,2.6-5.8,5.8-5.8
			C330.6,732,333.2,734.6,333.2,737.8z"/>
		<path class="st0" d="M366.4,737.8c0,3.2-2.6,5.8-5.8,5.8c-3.2,0-5.8-2.6-5.8-5.8c0-3.2,2.6-5.8,5.8-5.8
			C363.8,732,366.4,734.6,366.4,737.8z"/>
	</g>
</g>
<g>
	<g>
		<g>
			<path class="st14" d="M876.9,318.8c0,2.4-1.9,4.3-4.3,4.3c-2.4,0-4.3-1.9-4.3-4.3c0-2.4,1.9-4.3,4.3-4.3
				C875,314.5,876.9,316.5,876.9,318.8z"/>
			<path class="st14" d="M901.4,318.8c0,2.4-1.9,4.3-4.3,4.3s-4.3-1.9-4.3-4.3c0-2.4,1.9-4.3,4.3-4.3S901.4,316.5,901.4,318.8z"/>
			<path class="st14" d="M925.8,318.8c0,2.4-1.9,4.3-4.3,4.3c-2.4,0-4.3-1.9-4.3-4.3c0-2.4,1.9-4.3,4.3-4.3
				C923.9,314.5,925.8,316.5,925.8,318.8z"/>
			<path class="st14" d="M950.3,318.8c0,2.4-1.9,4.3-4.3,4.3c-2.4,0-4.3-1.9-4.3-4.3c0-2.4,1.9-4.3,4.3-4.3
				C948.3,314.5,950.3,316.5,950.3,318.8z"/>
			<path class="st14" d="M974.7,318.8c0,2.4-1.9,4.3-4.3,4.3c-2.4,0-4.3-1.9-4.3-4.3c0-2.4,1.9-4.3,4.3-4.3
				C972.8,314.5,974.7,316.5,974.7,318.8z"/>
			<path class="st14" d="M999.2,318.8c0,2.4-1.9,4.3-4.3,4.3c-2.4,0-4.3-1.9-4.3-4.3c0-2.4,1.9-4.3,4.3-4.3
				C997.2,314.5,999.2,316.5,999.2,318.8z"/>
		</g>
		<g>
			<path class="st14" d="M876.9,345.6c0,2.4-1.9,4.3-4.3,4.3c-2.4,0-4.3-1.9-4.3-4.3c0-2.4,1.9-4.3,4.3-4.3
				C875,341.3,876.9,343.2,876.9,345.6z"/>
			<path class="st14" d="M901.4,345.6c0,2.4-1.9,4.3-4.3,4.3s-4.3-1.9-4.3-4.3c0-2.4,1.9-4.3,4.3-4.3S901.4,343.2,901.4,345.6z"/>
			<path class="st14" d="M925.8,345.6c0,2.4-1.9,4.3-4.3,4.3c-2.4,0-4.3-1.9-4.3-4.3c0-2.4,1.9-4.3,4.3-4.3
				C923.9,341.3,925.8,343.2,925.8,345.6z"/>
			<path class="st14" d="M950.3,345.6c0,2.4-1.9,4.3-4.3,4.3c-2.4,0-4.3-1.9-4.3-4.3c0-2.4,1.9-4.3,4.3-4.3
				C948.3,341.3,950.3,343.2,950.3,345.6z"/>
			<path class="st14" d="M974.7,345.6c0,2.4-1.9,4.3-4.3,4.3c-2.4,0-4.3-1.9-4.3-4.3c0-2.4,1.9-4.3,4.3-4.3
				C972.8,341.3,974.7,343.2,974.7,345.6z"/>
			<path class="st14" d="M999.2,345.6c0,2.4-1.9,4.3-4.3,4.3c-2.4,0-4.3-1.9-4.3-4.3c0-2.4,1.9-4.3,4.3-4.3
				C997.2,341.3,999.2,343.2,999.2,345.6z"/>
		</g>
		<g>
			<path class="st14" d="M876.9,372.3c0,2.4-1.9,4.3-4.3,4.3c-2.4,0-4.3-1.9-4.3-4.3c0-2.4,1.9-4.3,4.3-4.3
				C875,368,876.9,370,876.9,372.3z"/>
			<path class="st14" d="M901.4,372.3c0,2.4-1.9,4.3-4.3,4.3s-4.3-1.9-4.3-4.3c0-2.4,1.9-4.3,4.3-4.3S901.4,370,901.4,372.3z"/>
			<path class="st14" d="M925.8,372.3c0,2.4-1.9,4.3-4.3,4.3c-2.4,0-4.3-1.9-4.3-4.3c0-2.4,1.9-4.3,4.3-4.3
				C923.9,368,925.8,370,925.8,372.3z"/>
			<path class="st14" d="M950.3,372.3c0,2.4-1.9,4.3-4.3,4.3c-2.4,0-4.3-1.9-4.3-4.3c0-2.4,1.9-4.3,4.3-4.3
				C948.3,368,950.3,370,950.3,372.3z"/>
			<path class="st14" d="M974.7,372.3c0,2.4-1.9,4.3-4.3,4.3c-2.4,0-4.3-1.9-4.3-4.3c0-2.4,1.9-4.3,4.3-4.3
				C972.8,368,974.7,370,974.7,372.3z"/>
			<path class="st14" d="M999.2,372.3c0,2.4-1.9,4.3-4.3,4.3c-2.4,0-4.3-1.9-4.3-4.3c0-2.4,1.9-4.3,4.3-4.3
				C997.2,368,999.2,370,999.2,372.3z"/>
		</g>
		<g>
			<path class="st14" d="M876.9,399.1c0,2.4-1.9,4.3-4.3,4.3c-2.4,0-4.3-1.9-4.3-4.3c0-2.4,1.9-4.3,4.3-4.3
				C875,394.8,876.9,396.7,876.9,399.1z"/>
			<path class="st14" d="M901.4,399.1c0,2.4-1.9,4.3-4.3,4.3s-4.3-1.9-4.3-4.3c0-2.4,1.9-4.3,4.3-4.3S901.4,396.7,901.4,399.1z"/>
			<path class="st14" d="M925.8,399.1c0,2.4-1.9,4.3-4.3,4.3c-2.4,0-4.3-1.9-4.3-4.3c0-2.4,1.9-4.3,4.3-4.3
				C923.9,394.8,925.8,396.7,925.8,399.1z"/>
			<path class="st14" d="M950.3,399.1c0,2.4-1.9,4.3-4.3,4.3c-2.4,0-4.3-1.9-4.3-4.3c0-2.4,1.9-4.3,4.3-4.3
				C948.3,394.8,950.3,396.7,950.3,399.1z"/>
			<path class="st14" d="M974.7,399.1c0,2.4-1.9,4.3-4.3,4.3c-2.4,0-4.3-1.9-4.3-4.3c0-2.4,1.9-4.3,4.3-4.3
				C972.8,394.8,974.7,396.7,974.7,399.1z"/>
			<path class="st14" d="M999.2,399.1c0,2.4-1.9,4.3-4.3,4.3c-2.4,0-4.3-1.9-4.3-4.3c0-2.4,1.9-4.3,4.3-4.3
				C997.2,394.8,999.2,396.7,999.2,399.1z"/>
		</g>
	</g>
</g>
<g>
	<path class="st15" d="M692.9,976.4c0,0-32.7-164.1-2.9-153c29.8,11.1,33.9,137.8,20.4,155.9"/>
	<path class="st6" d="M689.7,982.4c0,0-5.8-67-37.9-63.5c-32,3.5,14.6,58.3,22.7,63.5"/>
	<path class="st16" d="M652.4,891.5c0,0-8.7,26.2,14.6,21.6c23.3-4.7,16.5-5.5,16.5-5.5"/>
	<path class="st17" d="M696.7,981.8c0,0-7.6-100.2-18.6-104.3c-11.1-4.1-29.7,4.7-25.6,14c4.1,9.3,31.5,90.9,31.5,90.9"/>
	<path class="st18" d="M762.9,871.8c0,0,7.6,31.5-7,42c-14.6,10.5-25.7-8.8-25.7-8.8l-2.3-34.5"/>
	<path class="st17" d="M702.8,979.9c0,0,8.2-133.1,36.8-125c28.6,8.2,23.4,23.9,23.4,23.9s-7-6.4-11.1,1.8
		c-4.1,8.2-25.1,101.6-25.1,101.6"/>
	<path class="st18" d="M715.7,980.1c0,0,11.7-66.2,43.3-59.9c31.6,6.3-19.6,56.8-28.2,61.3"/>
	<path class="st19" d="M689.4,831.5c0,0,15.3,95.7,10.1,148.3"/>
	<path class="st19" d="M667.2,882.9c0,0,19.9,69.5,21.6,93.4"/>
	<path class="st19" d="M651.4,927.9c0,0,23.4,35,26.9,50.2"/>
	<path class="st19" d="M740.8,864.2c0,0-23.9,71.8-30.4,110.9"/>
	<g>
		<path class="st19" d="M721.8,979.4l-0.6-0.3c13.3-23.7,32-48.3,32.1-48.5l0.5,0.4C753.7,931.3,735,955.8,721.8,979.4z"/>
	</g>
	<rect x="657.1" y="976.9" class="st20" width="96.5" height="21.6"/>
</g>
<path class="st0" d="M1517.1,663v-12.8h-10.2c-0.8-4.3-2.5-8.2-4.9-11.7l7.2-7.2l-9-9l-7.2,7.2c-3.5-2.3-7.5-4-11.7-4.9v-10.2h-12.8
	v10.2c-4.3,0.8-8.2,2.5-11.7,4.9l-7.2-7.2l-9,9l7.2,7.2c-2.3,3.5-4,7.5-4.9,11.7h-10.2V663h10.2c0.8,4.3,2.5,8.2,4.9,11.7l-7.2,7.2
	l9,9l7.2-7.2c3.5,2.3,7.5,4,11.7,4.9v10.2h12.8v-10.2c4.3-0.8,8.2-2.5,11.7-4.9l7.2,7.2l9-9l-7.2-7.2c2.3-3.5,4-7.5,4.9-11.7H1517.1
	z M1474.9,674.7c-10,0-18.1-8.1-18.1-18.1c0-10,8.1-18.1,18.1-18.1c10,0,18.1,8.1,18.1,18.1C1493,666.6,1484.9,674.7,1474.9,674.7z"
	/>
<path class="st14" d="M1106.4,327.1v-9h-7.2c-0.6-3-1.8-5.8-3.4-8.2l5.1-5.1l-6.3-6.3l-5.1,5.1c-2.4-1.6-5.2-2.8-8.2-3.4V293h-9v7.2
	c-3,0.6-5.8,1.8-8.2,3.4l-5.1-5.1l-6.3,6.3l5.1,5.1c-1.6,2.4-2.8,5.2-3.4,8.2h-7.2v9h7.2c0.6,3,1.8,5.8,3.4,8.2l-5.1,5.1l6.3,6.3
	l5.1-5.1c2.5,1.6,5.2,2.8,8.2,3.4v7.2h9v-7.2c3-0.6,5.8-1.8,8.2-3.4l5.1,5.1l6.3-6.3l-5.1-5.1c1.6-2.4,2.8-5.2,3.4-8.2H1106.4z
	 M1076.8,335.3c-7,0-12.7-5.7-12.7-12.7c0-7,5.7-12.7,12.7-12.7c7,0,12.7,5.7,12.7,12.7C1089.5,329.6,1083.8,335.3,1076.8,335.3z"/>
<g>
	<g>
		<path class="st5" d="M1109.2,910.5c0,12.6-10.2,22.8-22.8,22.8H922.3c-12.6,0-22.8-10.2-22.8-22.8l0,0c0-12.6,10.2-22.8,22.8-22.8
			h164.1C1099,887.7,1109.2,897.9,1109.2,910.5L1109.2,910.5z"/>
		<path class="st5" d="M1109.2,779.2c0,12.6-10.2,22.8-22.8,22.8H922.3c-12.6,0-22.8-10.2-22.8-22.8l0,0c0-12.6,10.2-22.8,22.8-22.8
			h164.1C1099,756.4,1109.2,766.6,1109.2,779.2L1109.2,779.2z"/>
		<path class="st0" d="M1010,786.2c0,6-4.9,10.9-10.9,10.9h-78.8c-6,0-10.9-4.9-10.9-10.9l0,0c0-6,4.9-10.9,10.9-10.9H999
			C1005.1,775.2,1010,780.1,1010,786.2L1010,786.2z"/>
		<path class="st0" d="M1013.7,916c0,6-4.9,10.9-10.9,10.9H924c-6,0-10.9-4.9-10.9-10.9l0,0c0-6,4.9-10.9,10.9-10.9h78.8
			C1008.9,905.1,1013.7,909.9,1013.7,916L1013.7,916z"/>
		<g>
			<g>
				<g>
					<path class="st7" d="M1613.4,859.4c-35.3,0-59-1.7-62.2-1.9l3.3-45.1c2.4,0.2,225.1,15.5,344-52.2
						c-14.7-10.8-28.3-22.9-40.5-36.1c-41.5-44.9-59.1-93.4-47-129.7c10.5-31.8,33.2-50,62.2-50.1c0,0,0.1,0,0.1,0
						c44.7,0,96.4,45.6,115.3,101.8c13.1,39,8.5,76.2-12.4,106.4c32.9,13.4,70.1,19.2,108.1,9.8c86-21.2,153.6-115,195.6-271.2
						l43.7,11.7c-24.5,91.1-57.8,163.4-98.9,214.9c-37.3,46.7-80.9,76.5-129.6,88.5c-42.9,10.6-89.2,6.7-134.1-11.1
						c-6.6-2.6-13.1-5.5-19.5-8.7C1851.9,849.7,1698.9,859.4,1613.4,859.4z M1873.3,589.6C1873.3,589.6,1873.3,589.6,1873.3,589.6
						c-3.9,0-13.1,0-19.4,19.1c-5.4,16.3,4,48.8,37.3,84.8c12.1,13,27.2,26.1,44.5,37.6c19.2-24,16.6-50.7,10-70.5
						C1932.3,620.5,1895.8,589.6,1873.3,589.6z"/>
					<path class="st21" d="M1963,741.2c62.8-89.8-86.6-228.7-118.7-131.9c-35,105.6,314.7,391.1,446.6-99.5"/>
					<path class="st8" d="M1578.2,831.5c0,0,226.4,16.6,345.7-56.1"/>
				</g>
			</g>
			<g>
				<polyline class="st5" points="1455.5,928.8 1468.4,956.3 1442.4,963.7 1430.4,935.8 				"/>
				<polyline class="st5" points="1293.1,946.2 1300.3,975.1 1274.7,981.7 1273.7,948.5 				"/>
				<path class="st7" d="M1319.8,602c0,0,34.9,21,44.8,50.5c9.8,29.5,20.2,158.9,36.4,180.5c16.2,21.6,69.2,92.1,69.2,92.1
					l-40.5,23.3c0,0-60.6-82.8-74.9-106.8c-14.3-24-37.9-132.2-37.9-132.2s-30.5,83.7-32,118.2c-1.5,34.4,23.1,127.3,23.1,127.3
					l-40.8,1.2c0,0-25.6-87.3-28-132.4c-2.5-45.1,29-177.9,29-177.9"/>
				<g>
					<path class="st6" d="M1187.9,677.6c7.3-22.8,10.8-49.5,4.3-77.3c-18.4-79-41.3-41.3-41.3-19.9c0,0,7.6,44.7,3.5,89.7
						C1160.4,674.4,1170.9,678.7,1187.9,677.6z"/>
					<path class="st5" d="M1154.4,670c-2.5,27.9-9.5,55.9-25.6,73.4l19.9,5.2c0,0,26-29.1,39.3-71
						C1170.9,678.7,1160.4,674.4,1154.4,670z"/>
				</g>
				<path class="st7" d="M1146.4,579.6c0,0,7.4-42.8,52.4-36.9c45,5.9,121,59,121,59s-26.6,54.6-48.7,55.3
					c-22.1,0.7-124.7-42.8-124.7-74.5"/>
				<polyline class="st22" points="1131.7,745.3 1123.2,760.4 1105.5,775.2 1145,777.7 1141.3,765.9 1145.7,748.2 				"/>
				<path class="st11" d="M1197,620c0,0-18.8-31-11.4-49.3c7.4-18.2,14.4-19.4,14.4-19.4s-32.5-13.8-39.1,13.9
					c-6.6,27.7,17.2,46.5,17.2,46.5L1197,620z"/>
				<path class="st11" d="M1205.1,613c0,0-27.7-58.9,17.8-54.5c38,3.7,59.3,43.2,52.9,53.3C1269.4,621.9,1205.1,613,1205.1,613z"/>
				<g>
					<path class="st6" d="M1446.1,984.8l2.3-4.1l28.4-6.6l3.7,7.5c0,0-81.8,23.1-84.3,17.1c-0.8-1.9-1.4-3-1.4-4L1446.1,984.8z"/>
					<path class="st6" d="M1446.1,984.8l-51.3,9.8c0-2.2-4-3.9,6.8-12.7c5.8-4.8,19.4-7.3,23.7-11.7c7.3-7.6,10.3-16.3,10.3-16.3
						s13.2,11.7,19,8.1c5.8-3.6,12.7-7,12.7-7l9.6,19.1l-28.4,6.6L1446.1,984.8z"/>
				</g>
				<g>
					<path class="st6" d="M1275.7,995.5l3.1-3.6l29.2-1.1l2.3,8.1c0,0-84.7,7.2-86,0.9c-0.4-2-0.8-3.2-0.7-4.2L1275.7,995.5z"/>
					<path class="st6" d="M1275.7,995.5l-52.2,0c0.4-2.1-3.2-4.6,9-11.2c6.6-3.6,20.4-3.5,25.5-7c8.6-6.1,13.2-14.1,13.2-14.1
						s10.8,14,17.1,11.6c6.3-2.4,13.8-4.5,13.8-4.5l5.8,20.6l-29.2,1.1L1275.7,995.5z"/>
				</g>
				<g>
					<path class="st5" d="M1157.9,557.5l17.9,0.7c0,0,6.3,7.8,5,16.3c-1.3,8.2-6.5,12.6-12.2,13.3c-5.6,0.6-9.2-11.7-9.2-11.7"/>
					<path class="st5" d="M1125,575.7c0,0,22.6,45.3,32.5,32.5c9.8-12.8,6.6-49.2,6.6-49.2S1144.7,556,1125,575.7z"/>
					<path class="st7" d="M1149.9,572.2l7.6,4.1c0,0-1.7-4.3,0.9-5.4c2.6-1.1,7.9,2.1,6.5,7.5l5.2-8.1l-6-15.4"/>
					<path class="st7" d="M1164.9,555c0,0-1.2-22.3-23-19.3c-12.7,1.7-38.5,23.7-19.3,42.9C1122.6,578.6,1153.6,585,1164.9,555z"/>
				</g>
				<path class="st6" d="M1256.4,654.4c0,0,65.4-15.7,62.2-52.4l14,10.1c0,0-4.5,20.7-19.2,32.1c-13.4,10.5-31.7,16.2-47,15.3
					L1256.4,654.4z"/>
				
					<rect x="1160" y="646" transform="matrix(0.1945 -0.9809 0.9809 0.1945 282.6441 1689.4838)" class="st6" width="19.9" height="53.2"/>
			</g>
			<g>
				<g>
					<path class="st5" d="M1069.4,676.9c-10.5,0-20.3,1.9-28.6,5.1c-0.1,0-0.3,0-0.4,0c-5.6,0-10.9,3.5-15.9,9.8
						c-4.4,4.1-7.3,8.9-8.3,14.1c-12.9,27.8-21.4,77.1-21.4,133.3c0,86.8,20.4,157.2,45.6,157.2c2.4,0,21.1,1.1,29,1.1
						c29.5,0,53.5-14.6,53.5-32.6V709.5C1122.9,691.5,1098.9,676.9,1069.4,676.9z"/>
					<path class="st11" d="M1146.8,839.1c0,86.8-20.4,157.2-45.6,157.2c-25.2,0-45.6-70.4-45.6-157.2c0-86.8,20.4-157.2,45.6-157.2
						C1126.4,681.9,1146.8,752.3,1146.8,839.1z"/>
				</g>
				<path class="st5" d="M1350.5,837.7c0-19.1,15.5-34.6,34.7-34.6h164.1c19.1,0,34.7,15.5,34.7,34.6l0,0
					c0,19.1-15.5,34.6-34.7,34.6h-164.1C1366,872.3,1350.5,856.8,1350.5,837.7L1350.5,837.7z"/>
				<path class="st0" d="M1563,811.1c-1.1,15.5-14,27.7-29.8,27.7h-141.8c-6.2,0-12-1.9-16.8-5.2c-0.1,0.7-0.1,1.5-0.1,2.2
					c0,16.5,13.4,29.9,29.9,29.9h141.8c16.5,0,29.9-13.4,29.9-29.9C1576.1,825.6,1570.9,816.5,1563,811.1z"/>
				<path class="st5" d="M1277.6,824.9c0-35.8,29-64.7,64.7-64.7l0,0c35.8,0,64.7,29,64.7,64.7v25.5c0,35.8-29,64.7-64.7,64.7l0,0
					c-35.8,0-64.7-29-64.7-64.7V824.9z"/>
				<path class="st0" d="M1369.3,875.3c-32.3,0-58.4-26.2-58.4-58.4v-23c0-8,1.6-15.7,4.6-22.7c-17.5,10.1-29.3,29-29.3,50.7v23
					c0,32.3,26.2,58.4,58.4,58.4c24.2,0,45-14.8,53.9-35.8C1389.8,872.5,1379.9,875.3,1369.3,875.3z"/>
				<path class="st5" d="M1268.5,715.5h-91.3H1139c-10.7,0-20.8,2.3-29.9,6.4c-24.5,52.8-35.8,170.8,0,231.5
					c9.1,4.1,19.2,6.4,29.9,6.4h38.2h91.3c40.3,0,72.9-32.7,72.9-72.9v-98.5C1341.4,748.1,1308.8,715.5,1268.5,715.5z"/>
				<path class="st0" d="M1314.6,914.1h-82h-34.3c-9.6,0-18.7-2.1-26.9-5.8c-26.7-45.3-24.3-126.1-10-179.4h-18.1
					c-9.6,0-18.7,2.1-26.9,5.8c-22,47.5-32.2,153.5,0,208.1c8.2,3.7,17.3,5.8,26.9,5.8h34.3h82c25,0,46.7-14,57.8-34.5
					C1316.5,914,1315.6,914.1,1314.6,914.1z"/>
			</g>
		</g>
	</g>
	<g>
		<g>
			<path class="st6" d="M1240.6,669.5c2.9-17,4-55-1.5-73.6c-15.1-51.1-37.5-19.5-37.5-0.6c0,0,2.5,35.9,0.8,75.7
				C1211.2,671.6,1225.5,672,1240.6,669.5z"/>
			<path class="st5" d="M1202.4,670.9c-1.3,32.2-5.5,70.4-24.3,90.9l14.3,4c0,0,39.2-42.5,48.3-96.4
				C1225.5,672,1211.2,671.6,1202.4,670.9z"/>
		</g>
		<rect x="1193.4" y="667.3" class="st6" width="53.9" height="22.6"/>
		<path class="st7" d="M1195.2,761.2l-15.5-6c0,0-1.2,0.2-2.3,0.7c-1.2,0.5-0.7,4.3-0.7,4.3s-9.3,6.6-13.7,13.6
			c-4.4,7.1-13.5,12.1-9.9,13.7c3.6,1.6,6.5-4.9,7.9-3.4c0.7,0.8-1.4,6.9-4.8,12.3c-3.4,5.4-8.1,10.1-5.3,10.7
			c5.5,1.1,15.9-16.4,15.9-16.4s-2.1,6.2-4.7,12.5c-2.8,6.8-6,13.7-2.8,15c2.8,1.1,5.3-5.1,8.6-11c3.2-5.8,7.2-11.2,7.2-11.2
			s-7,21-3.9,19.8s8.9-20.1,10.2-19.5c1.3,0.5-2.3,13.9,0,13.6c2.3-0.3,9.3-23,9.3-23s5.9-12.5,3.4-20.5
			C1194,766.4,1197.8,763.4,1195.2,761.2z"/>
	</g>
</g>
<g>
	<path class="st6" d="M1365.9,635c2.4,3.8,1.3,8.8-2.4,11.2l-18.4,11.8c-3.8,2.4-8.8,1.3-11.2-2.4l-24-37.4
		c-2.4-3.8-1.3-8.8,2.4-11.2l18.4-11.8c3.8-2.4,8.8-1.3,11.2,2.4L1365.9,635z"/>
	<path class="st6" d="M1319.2,630.6c0,0,23.2-0.9,33-18.2"/>
</g>
<g>
	<path class="st7" d="M1309.4,490.4c0,14.1-11.4,25.6-25.6,25.6h-85.2c-14.1,0-25.6-11.4-25.6-25.6l0,0c0-14.1,11.4-25.6,25.6-25.6
		h85.2C1298,464.8,1309.4,476.3,1309.4,490.4L1309.4,490.4z"/>
	<rect x="1173.1" y="490.4" class="st7" width="30.3" height="25.5"/>
</g>
<path class="st10" d="M344.8,445.1H220.9c-20.5,0-37.2,19-37.2,42.4c0,23.4,16.6,42.4,37.2,42.4h123.9c1.1,0,2.2-0.1,3.3-0.2h33.9
	v-42.2C381.9,464.1,365.3,445.1,344.8,445.1z"/>
<g>
	<circle class="st13" cx="1216.7" cy="489.5" r="3.8"/>
	<circle class="st13" cx="1241.3" cy="489.5" r="3.8"/>
	<circle class="st13" cx="1265.9" cy="489.5" r="3.8"/>
</g>
<g>
	<path class="st13" d="M249,495.3h-4.4l-1.8,11.3h-5.5l1.8-11.3H233v-5h6.9l1.2-7.2h-6.1v-5h6.9l1.9-11.4h5.4l-1.9,11.4h4.4
		l1.9-11.4h5.5l-1.9,11.4h6.3v5h-7.2l-1.2,7.2h6.3v5h-7.1l-1.8,11.3h-5.5L249,495.3z M245.4,490.3h4.4l1.2-7.2h-4.4L245.4,490.3z"/>
</g>
<g>
	<path class="st13" d="M286.9,495.3h-4.4l-1.8,11.3h-5.5l1.8-11.3h-6.1v-5h6.9l1.2-7.2H273v-5h6.9l1.9-11.4h5.4l-1.9,11.4h4.4
		l1.9-11.4h5.5l-1.9,11.4h6.3v5h-7.2l-1.2,7.2h6.3v5h-7.1l-1.8,11.3H285L286.9,495.3z M283.3,490.3h4.4l1.2-7.2h-4.4L283.3,490.3z"
		/>
</g>
<g>
	<path class="st13" d="M324.7,495.3h-4.4l-1.8,11.3H313l1.8-11.3h-6.1v-5h6.9l1.2-7.2h-6.1v-5h6.9l1.9-11.4h5.4l-1.9,11.4h4.4
		l1.9-11.4h5.5l-1.9,11.4h6.3v5h-7.2l-1.2,7.2h6.3v5h-7.1l-1.8,11.3h-5.5L324.7,495.3z M321.2,490.3h4.4l1.2-7.2h-4.4L321.2,490.3z"
		/>
</g>
</svg>
