<svg version="1.1" id="Layer_1" xmlns="http://www.w3.org/2000/svg" x="0" y="0" viewBox="0 0 776.5 196" style="enable-background:new 0 0 776.5 196" xml:space="preserve"><style>.st0{stroke-width:2}.st0,.st1,.st2{fill:none;stroke:#671cc9;stroke-linecap:round;stroke-linejoin:round;stroke-miterlimit:10}.st2{stroke-width:.75}.st3{fill:#671cc9}.st4{fill:none;stroke:#671cc9;stroke-width:.5;stroke-linecap:round;stroke-linejoin:round;stroke-miterlimit:10}</style><path class="st0" d="M2.1 182.1h465.7"/><path class="st1" d="M7.3 185.6h455.4M505.3 185.6h455.4M294.7 182.1v-71.2H321v71.2M305 110.9v71.2M310.7 110.9v71.2M237.8 181.4c.1-4.7.1-9.4.1-14.1 17.7-1.2 52.5-5.5 52.5-5.5s-3.2.4 0 0v20M238.1 178.2h52.3M238.1 172.3h52.3M257.4 165.7h33M285.1 162.6v19.5M280.8 163.1v18.1M276.6 163.7v17.5M271.5 182.1v-17.6M266.9 181.2v-15.9M261.5 182.1v-16.8M256.9 182.1v-15.8M251.9 182.1v-15.8M247.8 182.1v-15.3M242.9 182.1v-14.9"/><path class="st2" d="M310.7 114.3h9.5M310.7 117.8h9.5M310.7 121.3h9.5M310.7 124.4h9.5M310.7 128h9.5M310.7 131.5h9.5M310.7 134.9h9.5M310.7 138.4h9.5M310.7 142h9.5M310.7 145.1h9.5M310.7 148.6h9.5M310.7 152.1h9.5M310.7 155.5h9.5M310.7 159.1h9.5M310.7 162.6h9.5M310.7 165.7h9.5M310.7 169.2h9.5M310.7 172.8h9.5M295.5 114.3h9.5M295.5 117.8h9.5M295.5 121.3h9.5M295.5 124.4h9.5M295.5 128h9.5M295.5 131.5h9.5M295.5 134.9h9.5M295.5 138.4h9.5M295.5 142h9.5M295.5 145.1h9.5M295.5 148.6h9.5M295.5 152.1h9.5M295.5 155.5h9.5M295.5 159.1h9.5M295.5 162.6h9.5M295.5 165.7h9.5M295.5 169.2h9.5M295.5 172.8h9.5M278.3 162.3V83.5h28.3v26.6M300.1 87.2h3.8M294 87.2h3.8M287.3 87.2h4.6M281.1 87.2h3.8M300.1 90.8h3.8M294 90.8h3.8M287.3 90.8h4.6M281.1 90.8h3.8M300.1 94.3h3.8M294 94.3h3.8M287.3 94.3h4.6M281.1 94.3h3.8M300.1 97.9h3.8M294 97.9h3.8M287.3 97.9h4.6M281.1 97.9h3.8M300.1 101.4h3.8M294 101.4h3.8M287.3 101.4h4.6M281.1 101.4h3.8M300.1 104.9h3.8M294 104.9h3.8M287.3 104.9h4.6M281.1 104.9h3.8M300.1 108.5h3.8M294 108.5h3.8M287.3 108.5h4.6M281.1 108.5h3.8M287.3 112h4.6M281.1 112h3.8M287.3 115.5h4.6M281.1 115.5h3.8M287.3 119.6h4.6M281.1 119.6h3.8M287.3 123.1h4.6M281.1 123.1h3.8M287.3 126.6h4.6M281.1 126.6h3.8M287.3 130.2h4.6M281.1 130.2h3.8M287.3 133.7h4.6M281.1 133.7h3.8M287.3 137.3h4.6M281.1 137.3h3.8M287.3 140.8h4.6M281.1 140.8h3.8M287.3 144.3h4.6M281.1 144.3h3.8M287.3 147.9h4.6M281.1 147.9h3.8M287.3 151.5h4.6M281.1 151.5h3.8M287.3 155h4.6M281.1 155h3.8M287.3 158.6h4.6M281.1 158.6h3.8"/><path class="st1" d="M190.1 151c0-10.1 7.1-18.2 15.9-18.2s15.9 8.2 15.9 18.2M189.4 151.5h33.3M190.1 151v30.7M221.9 151v30.7M190.1 158.5H221M190.1 160.8H221"/><path class="st3" d="M192.3 157h2v-2.8c-.7-.7-1.3-.7-2 0v2.8zM195.8 157h2v-2.8c-.7-.7-1.3-.7-2 0v2.8zM199.5 157h2v-2.8c-.7-.7-1.3-.7-2 0v2.8zM203.1 157h2v-2.8c-.7-.7-1.3-.7-2 0v2.8zM206.8 157h2v-2.8c-.7-.7-1.3-.7-2 0v2.8zM210.4 157h2v-2.8c-.7-.7-1.3-.7-2 0v2.8zM213.9 157h2v-2.8c-.7-.7-1.3-.7-2 0v2.8zM217.4 157h2v-2.8c-.7-.7-1.3-.7-2 0v2.8zM197.5 181.8h-4v-8.1c0-2 4-2.1 4 0v8.1zM197.5 169.3h-4v-4.7c0-1.2 4-1.2 4 0v4.7zM203.8 169.3h-4v-4.7c0-1.2 4-1.2 4 0v4.7zM212.9 169.3h-4v-4.7c0-1.2 4-1.2 4 0v4.7zM219.2 169.3h-4v-4.7c0-1.2 4-1.2 4 0v4.7zM203.5 181.8h-4v-8.1c0-2 4-2.1 4 0v8.1zM213.3 181.8h-4v-8.1c0-2 4-2.1 4 0v8.1zM219.2 181.8h-4v-8.1c0-2 4-2.1 4 0v8.1z"/><path class="st1" d="M165 157.8c0-7.8 5.5-14.2 12.4-14.2 6.8 0 12.4 6.4 12.4 14.2M164.5 158.2h25.9M165 157.8v23.9M189.7 157.8v23.9M165 163.6h24M165 165.5h24"/><path class="st3" d="M166.7 162.5h1.5v-2.1c-.5-.5-1-.5-1.5 0v2.1zM169.4 162.5h1.5v-2.1c-.5-.5-1-.5-1.5 0v2.1zM172.3 162.5h1.5v-2.1c-.5-.5-1-.5-1.5 0v2.1zM175.1 162.5h1.5v-2.1c-.5-.5-1-.5-1.5 0v2.1zM178 162.5h1.5v-2.1c-.5-.5-1-.5-1.5 0v2.1zM180.8 162.5h1.5v-2.1c-.5-.5-1-.5-1.5 0v2.1zM184.1 162.5h1.5v-2.1c-.5-.5-1-.5-1.5 0v2.1zM186.9 162.5h1.5v-2.1c-.5-.5-1-.5-1.5 0v2.1zM170.7 181.5h-3.1v-6c0-1.5 3.1-1.5 3.1 0v6zM170.7 172.1h-3.1v-3.7c0-.9 3.1-.9 3.1 0v3.7zM175.6 172.1h-3.1v-3.7c0-.9 3.1-.9 3.1 0v3.7zM182.7 172.1h-3.1v-3.7c0-.9 3.1-.9 3.1 0v3.7zM187.6 172.1h-3.1v-3.7c0-.9 3.1-.9 3.1 0v3.7zM175.4 181.5h-3.1v-6c0-1.5 3.1-1.5 3.1 0v6zM183 181.5h-3.1v-6c0-1.5 3.1-1.5 3.1 0v6zM187.6 181.5h-3.1v-6c0-1.5 3.1-1.5 3.1 0v6z"/><path class="st1" d="M177.4 143.6v-6.1"/><path class="st3" d="M177.4 131.7c1.6 0 2.9 1.3 2.9 2.9 0 1.6-1.3 2.9-2.9 2.9-1.6 0-2.9-1.3-2.9-2.9 2.1 2.9 5.9-.6 2.9-2.9z"/><path class="st1" d="M222.4 157.8c0-7.8 5.5-14.2 12.4-14.2s12.4 6.4 12.4 14.2M221.8 158.2h26M222.4 157.8v23.9M247.1 157.8v8.5M222.4 163.6h24M222.4 165.5h24"/><path class="st3" d="M224.1 162.5h1.5v-2.1c-.5-.5-1-.5-1.5 0v2.1zM226.8 162.5h1.5v-2.1c-.5-.5-1-.5-1.5 0v2.1zM229.7 162.5h1.5v-2.1c-.5-.5-1-.5-1.5 0v2.1zM232.5 162.5h1.5v-2.1c-.5-.5-1-.5-1.5 0v2.1zM235.4 162.5h1.5v-2.1c-.5-.5-1-.5-1.5 0v2.1zM238.1 162.5h1.5v-2.1c-.5-.5-1-.5-1.5 0v2.1zM241.5 162.5h1.5v-2.1c-.5-.5-1-.5-1.5 0v2.1zM244.3 162.5h1.5v-2.1c-.5-.5-1-.5-1.5 0v2.1zM228.1 181.5H225v-6c0-1.5 3.1-1.5 3.1 0v6zM228.1 172.1H225v-3.7c0-.9 3.1-.9 3.1 0v3.7zM233 172.1h-3.1v-3.7c0-.9 3.1-.9 3.1 0v3.7zM232.8 181.5h-3.1v-6c0-1.5 3.1-1.5 3.1 0v6z"/><path class="st1" d="M234.8 143.6v-6.1"/><path class="st3" d="M234.8 131.7c1.6 0 2.9 1.3 2.9 2.9 0 1.6-1.3 2.9-2.9 2.9-1.6 0-2.9-1.3-2.9-2.9 2 2.9 5.9-.6 2.9-2.9z"/><path class="st1" d="M191.8 126.5c0-9.3 6.4-16.8 14.3-16.8s14.3 7.5 14.3 16.8M191.1 127H221M191.8 126.5v16.1M220.3 126.5v15.7M210.6 133.4h8.8M191.8 133.4h10M215 135.6h4.5M191.8 135.6h5.8"/><path class="st3" d="M193.7 131.7h1.8v-2.5c-.6-.6-1.2-.6-1.8 0v2.5zM196.9 131.7h1.8v-2.5c-.6-.6-1.2-.6-1.8 0v2.5zM200.2 131.7h1.8v-2.5c-.6-.6-1.2-.6-1.8 0v2.5zM203.4 131.7h1.8v-2.5c-.6-.6-1.2-.6-1.8 0v2.5zM206.7 131.7h1.8v-2.5c-.6-.6-1.2-.6-1.8 0v2.5zM209.9 131.7h1.8v-2.5c-.6-.6-1.2-.6-1.8 0v2.5zM213.1 131.7h1.8v-2.5c-.6-.6-1.2-.6-1.8 0v2.5zM216.3 131.7h1.8v-2.5c-.6-.6-1.2-.6-1.8 0v2.5z"/><path class="st1" d="M206.5 109.7v-7.2"/><path class="st3" d="M206.5 95.7c1.9 0 3.4 1.5 3.4 3.4s-1.5 3.4-3.4 3.4-3.4-1.5-3.4-3.4c2.4 3.4 6.9-.7 3.4-3.4z"/><path class="st1" d="M182.4 144.9v-14h7.7v20.7M181.5 130.9h9.4M182.3 130.9s0-6.1 3.9-6.1c4 0 4 6.1 4 6.1"/><path class="st4" d="M186.2 124.8v-6.3"/><path class="st1" d="M182.4 129.1h7M182.3 132.8h7.8"/><path class="st3" d="M185.6 134.5h1.6v8.3h-1.6z"/><path class="st1" d="M229.5 144.9v-14h-7.7v20.7M230.5 130.9H221M229.7 130.9s0-6.1-3.9-6.1c-4 0-4 6.1-4 6.1"/><path class="st4" d="M225.8 124.8v-6.3"/><path class="st1" d="M229.5 129.1h-7M229.7 132.8h-7.9"/><path transform="rotate(-180 225.487 138.675)" class="st3" d="M224.7 134.5h1.6v8.3h-1.6z"/><path class="st1" d="M164.6 99.1v12.1M164.6 113.3v11.8M159.1 99.1l3.1-11.4 2.8 11.4zM158.1 99.4h7.7M158.1 111.5h7.7M159.6 99.1v12.1M158.4 111.5l.9 1.8h5.3l.9-1.8M159.6 113.3v11.8M157.1 125.1h9.7v2.4h-9.7zM158.1 127.8v28.5M165.8 127.5v25.2M165 157h-8.4v24.7"/><path class="st4" d="M159.6 129.1v26.3M160.7 129.1v26.3M161.9 129.1v26.3M163.1 129.1v26.3M164.3 129.1v26.3"/><path class="st3" d="M161.6 114.7h1v8.9h-1z"/><path class="st4" d="M162.2 87.7v-7.4"/><path class="st1" d="m253.2 99.1-3.1-11.4-2.9 11.4zM254.2 99.4h-7.8M254.2 111.5h-7.8M252.7 99.1v12.1M253.9 111.5l-1 1.8h-5.3l-.9-1.8M252.7 113.3v11.8"/><path transform="rotate(-180 250.282 126.272)" class="st1" d="M245.4 125.1h9.7v2.4h-9.7z"/><path class="st1" d="M254.2 127.8v28.5M246.4 127.5v25.2M247.2 157h8.4v8.2"/><path class="st4" d="M252.7 129.1v26.3M251.5 129.1v26.3M250.3 129.1v26.3M249.2 129.1v26.3M248 129.1v26.3"/><path transform="rotate(-180 250.16 119.16)" class="st3" d="M249.6 114.7h1v8.9h-1z"/><path class="st4" d="M250.1 87.7v-7.4"/><path class="st1" d="M248 99.4v11.5M247.6 113.3v11.5M259.7 165.3v-89H273v87.3M259.7 95.7H273M259.7 116.9H273M259.7 138.1H273M259.7 158.2H273"/><path class="st4" d="M261.5 76.3v88.6M263.9 76.3v88.6M266.2 76.3v88.6M268.6 76.3c.2 29.7.2 58 0 88M270.9 76.3c.2 29.7.2 58 0 87.5"/><path class="st1" d="M271.4 63.9v11.8M261.2 63.9v11.8M259.3 63.9h14M272.9 53.5v10.4M259.7 63.9V53.5M272.8 53.5h-13l2.6-2.8h7.8zM263.6 50.7V47h5.4v3.3M266.3 47V22M264.4 23.8h3.8M259.6 58.7h13.5M112.3 181.7v-28.5h15.6M151.5 181.7v-28.5h-15.6M110.4 158.5h42.5M128.3 158.5v-11.7l3.8-3.8 3.7 3.7v11.8"/><path class="st3" d="M129.2 158.2v-5l1.4-1.6 1.2 1.6v5M132.3 158.2v-5l1.3-1.6 1.3 1.6v5M132.1 145.4l-1.3 1.7v3.5l1.3 1.6 1.3-1.7V147z"/><path class="st1" d="M114.3 153.2v-10.5h35.3v10.5M115.7 142.7c0-12.6 16.2-18.6 16.2-18.6s16.3 5.7 16.3 18.6M114.3 148.8h13.6M135.9 148.8h13.7"/><path class="st4" d="M131.9 124.1V117"/><circle class="st3" cx="132" cy="119.5" r=".7"/><circle class="st3" cx="132" cy="121.9" r=".7"/><path class="st3" d="M121.1 142.7v-4.9l2-1.7 2 1.6v5M130.1 142.7v-4.9l2-1.7 2 1.6v5M138.9 142.7v-4.9l2-1.7 1.9 1.6v5"/><path class="st4" d="M112.3 160.6h39.2M112.3 163h39.2M112.3 165.4h39.2M112.3 167.7h39.2M112.3 170.1h39.2M112.3 172.4h39.2M112.3 174.8h39.2M112.3 177.1h39.2M112.3 179.5h39.2"/><path class="st1" d="M337.9 182.1v-58.4h11.6v58.4M328.7 182.1v-55.5l5.2-2.5v57.7M333.9 126.6h4"/><path class="st4" d="M335.9 182.1V127"/><path class="st1" d="M359.2 182.1v-55.5l-5.2-2.5v57.7M354 126.6h-4.1"/><path class="st4" d="M352 182.1V127M337.9 129.1h11.6M337.9 131.5h11.6M337.9 133.8h11.6M337.9 136.2h11.6M337.9 138.5h11.6M337.9 140.9h11.6M337.9 143.2h11.6M337.9 145.6h11.6M337.9 148h11.6M337.9 150.3h11.6M337.9 152.7h11.6M337.9 155h11.6M337.9 157.4h11.6M337.9 159.8h11.6M337.9 162.1h11.6M337.9 164.5h11.6M337.9 166.8h11.6M337.9 169.2h11.6M337.9 171.5h11.6M337.9 173.9h11.6M337.9 176.3h11.6"/><path class="st1" d="M92.7 181.7v-65.3h22.4V142M94.8 100.7h18.1M96 107.1h15.8M97.1 116.4v-15.1M110.6 116.4v-15.1M106.1 116.4v-9M101.6 116.4v-9"/><path class="st3" d="M97.6 115.9s-.1-8.3 1.7-8.3 1.8 8.3 1.8 8.3h.5v-8.8h-4.5v8.4l.5.4zM102.3 115.9s-.1-8.3 1.7-8.3 1.8 8.3 1.8 8.3h.5v-8.8h-4.5v8.4l.5.4z"/><path class="st3" d="M106.6 115.9s-.1-8.3 1.7-8.3 1.8 8.3 1.8 8.3h.5v-8.8h-4.5v8.4l.5.4z"/><path class="st1" d="M106.1 107.4v-5.9M101.6 107.4v-5.9"/><path class="st3" d="M97.6 107s-.1-5.4 1.7-5.4 1.8 5.4 1.8 5.4h.5v-5.7h-4.5v5.5l.5.2zM102.3 107s-.1-5.4 1.7-5.4 1.8 5.4 1.8 5.4h.5v-5.7h-4.5v5.5l.5.2z"/><path class="st3" d="M106.6 107s-.1-5.4 1.7-5.4 1.8 5.4 1.8 5.4h.5v-5.7h-4.5v5.5l.5.2z"/><path class="st1" d="M98.9 100.7s-.1-11.3 0-11.2c.1.1 9.9 0 9.9 0v11.2M99 94h9.8"/><path class="st3" d="M102.2 100.7v-5.2h3.3v5.2"/><path class="st1" d="M98.9 89.5s0-4.9 5-4.9 5 4.9 5 4.9"/><path class="st4" d="M103.9 84.2v-2.8"/><path class="st3" d="M103.9 78.7c.7 0 1.3.6 1.3 1.3 0 .7-.6 1.3-1.3 1.3-.7 0-1.3-.6-1.3-1.3.9 1.4 2.7-.2 1.3-1.3z"/><path class="st1" d="M592.3 181.7v-28.5h15.6M631.5 181.7v-28.5h-15.6M590.4 158.5h42.5M608.3 158.5v-11.7l3.8-3.8 3.7 3.7v11.8"/><path class="st3" d="M609.2 158.2v-5l1.4-1.6 1.2 1.6v5M612.3 158.2v-5l1.3-1.6 1.3 1.6v5M612.1 145.4l-1.3 1.7v3.5l1.3 1.6 1.3-1.7V147z"/><path class="st1" d="M594.3 153.2v-10.5h35.3v10.5M595.7 142.7c0-12.6 16.2-18.6 16.2-18.6s16.3 5.7 16.3 18.6M594.3 148.8h13.6M615.9 148.8h13.7"/><path class="st4" d="M611.9 124.1V117"/><circle class="st3" cx="612" cy="119.5" r=".7"/><circle class="st3" cx="612" cy="121.9" r=".7"/><path class="st3" d="M601.1 142.7v-4.9l2-1.7 2 1.6v5M610.1 142.7v-4.9l2-1.7 2 1.6v5M618.9 142.7v-4.9l2-1.7 1.9 1.6v5"/><path class="st4" d="M592.3 160.6h39.2M592.3 163h39.2M592.3 165.4h39.2M592.3 167.7h39.2M592.3 170.1h39.2M592.3 172.4h39.2M592.3 174.8h39.2M592.3 177.1h39.2M592.3 179.5h39.2"/><path class="st1" d="M572.7 181.7v-65.3h22.4V142M574.8 100.7h18.1M576 107.1h15.8M577.1 116.4v-15.1M590.6 116.4v-15.1M586.1 116.4v-9M581.6 116.4v-9"/><path class="st3" d="M577.6 115.9s-.1-8.3 1.7-8.3 1.8 8.3 1.8 8.3h.5v-8.8h-4.5v8.4l.5.4zM582.3 115.9s-.1-8.3 1.7-8.3 1.8 8.3 1.8 8.3h.5v-8.8h-4.5v8.4l.5.4z"/><path class="st3" d="M586.6 115.9s-.1-8.3 1.7-8.3 1.8 8.3 1.8 8.3h.5v-8.8h-4.5v8.4l.5.4z"/><path class="st1" d="M586.1 107.4v-5.9M581.6 107.4v-5.9"/><path class="st3" d="M577.6 107s-.1-5.4 1.7-5.4 1.8 5.4 1.8 5.4h.5v-5.7h-4.5v5.5l.5.2zM582.3 107s-.1-5.4 1.7-5.4 1.8 5.4 1.8 5.4h.5v-5.7h-4.5v5.5l.5.2z"/><path class="st3" d="M586.6 107s-.1-5.4 1.7-5.4 1.8 5.4 1.8 5.4h.5v-5.7h-4.5v5.5l.5.2z"/><path class="st1" d="M578.9 100.7s-.1-11.3 0-11.2c.1.1 9.9 0 9.9 0v11.2M579 94h9.8"/><path class="st3" d="M582.2 100.7v-5.2h3.3v5.2"/><path class="st1" d="M578.9 89.5s0-4.9 5-4.9 5 4.9 5 4.9"/><path class="st4" d="M583.9 84.2v-2.8"/><path class="st3" d="M583.9 78.7c.7 0 1.3.6 1.3 1.3 0 .7-.6 1.3-1.3 1.3-.7 0-1.3-.6-1.3-1.3.9 1.4 2.7-.2 1.3-1.3z"/><path class="st1" d="M373.1 138.4V87.2h-25.9v36.5M378.8 182.1c.4 0 0-19.5 0-19.5H400v19.2M434.2 182.1v-44h17.3v44"/><path class="st4" d="M434.2 139.8h17.3M434.2 147.5h17.3M434.2 148.6h17.3"/><path class="st1" d="M436.9 138.1v-23.9h12v23.3"/><path class="st1" d="m449 114.3 1.2-2.3h-14.6l1.4 2.3"/><path class="st3" d="M438.6 122.2h1.5v3.4h-1.5zM446.1 122.2h1.5v3.4h-1.5zM441.6 128.5h2.5v7.1h-2.5zM441.7 116.4h2.5v4.1h-2.5z"/><path class="st4" d="M436.9 135.6h12M437.4 117.8h11M437.1 116.4h11.6M437 126.6h11.8M440.3 126.6v9M445.4 126.6v8.8M435.8 109.1v2.9M437 109.1v2.9M438.2 109.1v2.9M439.3 109.1v2.9M440.5 109.1v2.9M441.7 109.1v2.9M442.9 109.1v2.9M444 109.1v2.9M445.2 109.1v2.9M446.4 109.1v2.9M447.6 109.1v2.9M448.8 109.1v2.9M449.9 109.1v2.9M435.8 110.1h14.1"/><path class="st1" d="M438.2 112v-11.2h9.3v10.9M447.6 100.8l.9-1.8h-11.3l1.1 1.8"/><path class="st3" d="M441.9 103.6h1.9v3.2h-1.9z"/><path class="st4" d="M438.6 108h8.5M438.4 102.5h9M437.4 96.8V99M438.3 96.8V99M439.2 96.8V99M440.1 96.8V99M441 96.8V99M442 96.8V99M442.9 96.8V99M443.8 96.8V99M444.7 96.8V99M445.6 96.8V99M446.5 96.8V99M447.5 96.8V99M448.4 96.8V99M437.4 97.5h11"/><path class="st1" d="M439.6 99v-7.5h6.6V99"/><path class="st4" d="M439.6 94.6h6.5"/><path class="st1" d="M439.6 91.6s0-3.2 3.3-3.2 3.3 3.2 3.3 3.2"/><path class="st4" d="M442.9 88v-1.9"/><path class="st3" d="M442.9 84.4c.5 0 .9.4.9.9s-.4.9-.9.9-.9-.4-.9-.9c.6.8 1.8-.2.9-.9z"/><path class="st1" d="M400 182.1v-44h17.3v44"/><path class="st4" d="M400 139.8h17.3M400 147.5h17.3M400 148.6h17.3"/><path class="st1" d="M402.7 138.1v-23.9h12v23.3"/><path class="st1" d="m414.8 114.3 1.2-2.3h-14.6l1.4 2.3"/><path class="st3" d="M404.4 122.2h1.5v3.4h-1.5zM411.9 122.2h1.5v3.4h-1.5zM407.4 128.5h2.5v7.1h-2.5zM407.6 116.4h2.5v4.1h-2.5z"/><path class="st4" d="M402.7 135.6h12M403.2 117.8h11M402.9 116.4h11.6M402.8 126.6h11.8M406.1 126.6v9M411.2 126.6v8.8M401.6 109.1v2.9M402.8 109.1v2.9M404 109.1v2.9M405.1 109.1v2.9M406.3 109.1v2.9M407.5 109.1v2.9M408.7 109.1v2.9M409.9 109.1v2.9M411 109.1v2.9M412.2 109.1v2.9M413.4 109.1v2.9M414.6 109.1v2.9M415.8 109.1v2.9M401.6 110.1h14.2"/><path class="st1" d="M404 112v-11.2h9.3v10.9M413.4 100.8l1-1.8H403l1.1 1.8"/><path class="st3" d="M407.7 103.6h1.9v3.2h-1.9z"/><path class="st4" d="M404.4 108h8.6M404.2 102.5h9M403.2 96.8V99M404.1 96.8V99M405 96.8V99M405.9 96.8V99M406.8 96.8V99M407.8 96.8V99M408.7 96.8V99M409.6 96.8V99M410.5 96.8V99M411.4 96.8V99M412.3 96.8V99M413.3 96.8V99M414.2 96.8V99M403.2 97.5h11"/><path class="st1" d="M405.4 99v-7.5h6.6V99"/><path class="st4" d="M405.4 94.6h6.5"/><path class="st1" d="M405.4 91.6s0-3.2 3.3-3.2 3.3 3.2 3.3 3.2"/><path class="st4" d="M408.7 88v-1.9"/><path class="st3" d="M408.7 84.4c.5 0 .9.4.9.9s-.4.9-.9.9-.9-.4-.9-.9c.6.8 1.8-.2.9-.9z"/><path class="st1" d="M417.3 144.9h16.9"/><path class="st4" d="M417.3 146.7h16.9M417.3 157.1h16.9"/><path class="st3" d="M421.2 162.1h9.1V182h-9.1z"/><path class="st1" d="M313.5 96.6h27.7M314.5 96.6v14.3M340 96.6v26.3"/><path class="st4" d="M318.3 96.6v14.3M324.4 96.6v85.2M330.1 96.6v29M336.4 96.6v29.8M314.5 99.9H340M314.5 101.1H340M314.5 103.5H340M314.5 104.6H340M314.5 107H340M314.5 108.2H340M314.5 110.5H340M321 111.7h19M321 114.1h19M321 115.2h19M321 117.6h19M321 118.8h19M321 121.1h19M321 122.3h19M334.1 124.7h3.8M321 124.7h11.3M334.1 125.9h3.8M321 125.9h8.9M321 128.2h7.7M321 129.4h7.7M321 131.8h7.7M321 132.9h7.7M321 135.3h7.7M321 136.5h7.7M321 138.8h7.7M321 140h7.7M321 142.7h7.7M321 143.9h7.7M321 146.2h7.7M321 147.4h7.7M321 149.8h7.7M321 151h7.7M321 153.3h7.7M321 154.5h7.7M321 157.2h7.7M321 158.4h7.7M321 160.7h7.7M321 161.9h7.7M321 164.3h7.7M321 165.4h7.7M321 167.8h7.7M321 169h7.7M321 171.7h7.7M321 172.8h7.7M321 175.2h7.7M321 176.4h7.7M321 178.7h7.7M321 179.9h7.7M321 182.3h7.7M350.5 87.2v39.4M354 87.1v37.6M358.3 87.1v38.5M362 87.1v52.1M365.5 87.1v52.1M369.7 87.1v51.7"/><path class="st1" d="M359.2 139.2h31v22.7"/><path class="st4" d="M359.2 142.3h31M359.2 141.2h31"/><path class="st3" d="M361 143.9h2.6v2.6H361zM364.5 143.9h2.6v2.6h-2.6zM368.1 143.9h2.6v2.6h-2.6zM371.6 143.9h2.6v2.6h-2.6zM375.2 143.9h2.6v2.6h-2.6zM378.7 143.9h2.6v2.6h-2.6zM382.2 143.9h2.6v2.6h-2.6zM385.8 143.9h2.6v2.6h-2.6zM361 147.4h2.6v2.6H361zM364.5 147.4h2.6v2.6h-2.6zM368 147.4h2.6v2.6H368zM371.6 147.4h2.6v2.6h-2.6zM375.1 147.4h2.6v2.6h-2.6zM378.6 147.4h2.6v2.6h-2.6zM382.2 147.4h2.6v2.6h-2.6zM385.7 147.4h2.6v2.6h-2.6zM361 150.9h2.6v2.6H361zM364.5 150.9h2.6v2.6h-2.6zM368 150.9h2.6v2.6H368zM371.6 150.9h2.6v2.6h-2.6zM375.1 150.9h2.6v2.6h-2.6zM378.6 150.9h2.6v2.6h-2.6zM382.2 150.9h2.6v2.6h-2.6zM385.7 150.9h2.6v2.6h-2.6zM361 154.5h2.6v2.6H361zM364.5 154.5h2.6v2.6h-2.6zM368.1 154.5h2.6v2.6h-2.6zM371.6 154.5h2.6v2.6h-2.6zM375.2 154.5h2.6v2.6h-2.6zM378.7 154.5h2.6v2.6h-2.6zM382.2 154.5h2.6v2.6h-2.6zM385.8 154.5h2.6v2.6h-2.6zM361 158h2.6v2.6H361zM364.5 158h2.6v2.6h-2.6zM368 158h2.6v2.6H368zM371.6 158h2.6v2.6h-2.6zM375.1 158h2.6v2.6h-2.6zM378.6 158h2.6v2.6h-2.6zM382.2 158h2.6v2.6h-2.6zM385.7 158h2.6v2.6h-2.6zM361 161.6h2.6v2.6H361zM364.5 161.6h2.6v2.6h-2.6zM368 161.6h2.6v2.6H368zM371.6 161.6h2.6v2.6h-2.6zM375.1 161.6h2.6v2.6h-2.6zM378.6 161.6h2.6v1.3h-2.6zM382.2 161.6h2.6v1.3h-2.6zM385.7 161.6h2.6v1.3h-2.6z"/><path class="st4" d="M359.2 166.8h19.7M359.2 165.6h19.7"/><path class="st1" d="m12.7 182.1 53-53 27 27M65.7 129.1l10.8 52.2"/><path class="st4" d="M66.6 133.4H70M66.6 135.3h4.5M67.4 137.6h6.2M68 140.4h8.1M68.7 143.7h10.6M69.6 147.9h14.9M70.5 153.2h18.8M72 159.2h20.7M73.2 165.4h19.5M74.7 172.4h18M76 178.7h16.7M382.2 162.8v18.5M387.1 162.8v18.5M392.1 162.8v18.5M397 162.8v18.5M400 164.7h-21M400 169.6h-21M400 174.6h-21M400 179.5h-21"/><path class="st1" d="M467.7 182.1v-71.2H494v71.2M478 110.9v71.2M483.7 110.9v71.2"/><path class="st2" d="M483.7 114.3h9.5M483.7 117.8h9.5M483.7 121.3h9.5M483.7 124.4h9.5M483.7 128h9.5M483.7 131.5h9.5M483.7 134.9h9.5M483.7 138.4h9.5M483.7 142h9.5M483.7 145.1h9.5M483.7 148.6h9.5M483.7 152.1h9.5M483.7 155.5h9.5M483.7 159.1h9.5M483.7 162.6h9.5M483.7 165.7h9.5M483.7 169.2h9.5M483.7 172.8h9.5M468.5 114.3h9.5M468.5 117.8h9.5M468.5 121.3h9.5M468.5 124.4h9.5M468.5 128h9.5M468.5 131.5h9.5M468.5 134.9h9.5M468.5 138.4h9.5M468.5 142h9.5M468.5 145.1h9.5M468.5 148.6h9.5M468.5 152.1h9.5M468.5 155.5h9.5M468.5 159.1h9.5M468.5 162.6h9.5M468.5 165.7h9.5M468.5 169.2h9.5M468.5 172.8h9.5M451.3 162.3V83.5h28.3v26.6M473.1 87.2h3.8M467 87.2h3.8M460.3 87.2h4.6M454.1 87.2h3.8M473.1 90.8h3.8M467 90.8h3.8M460.3 90.8h4.6M454.1 90.8h3.8M473.1 94.3h3.8M467 94.3h3.8M460.3 94.3h4.6M454.1 94.3h3.8M473.1 97.9h3.8M467 97.9h3.8M460.3 97.9h4.6M454.1 97.9h3.8M473.1 101.4h3.8M467 101.4h3.8M460.3 101.4h4.6M454.1 101.4h3.8M473.1 104.9h3.8M467 104.9h3.8M460.3 104.9h4.6M454.1 104.9h3.8M473.1 108.5h3.8M467 108.5h3.8M460.3 108.5h4.6M454.1 108.5h3.8M460.3 112h4.6M454.1 112h3.8M460.3 115.5h4.6M454.1 115.5h3.8M460.3 119.6h4.6M454.1 119.6h3.8M460.3 123.1h4.6M454.1 123.1h3.8M460.3 126.6h4.6M454.1 126.6h3.8M460.3 130.2h4.6M454.1 130.2h3.8M460.3 133.7h4.6M454.1 133.7h3.8M460.3 137.3h4.6M454.1 137.3h3.8M460.3 140.8h4.6M454.1 140.8h3.8M460.3 144.3h4.6M454.1 144.3h3.8M460.3 147.9h4.6M454.1 147.9h3.8M460.3 151.5h4.6M454.1 151.5h3.8M460.3 155h4.6M454.1 155h3.8M460.3 158.6h4.6M454.1 158.6h3.8"/><path class="st1" d="M510.9 182.1v-58.4h11.6v58.4M501.7 182.1v-55.5l5.2-2.5v57.7M506.9 126.6h4"/><path class="st4" d="M508.9 182.1V127"/><path class="st1" d="M532.2 182.1v-55.5l-5.2-2.5v57.7M527 126.6h-4.1"/><path class="st4" d="M525 182.1V127M510.9 129.1h11.6M510.9 131.5h11.6M510.9 133.8h11.6M510.9 136.2h11.6M510.9 138.5h11.6M510.9 140.9h11.6M510.9 143.2h11.6M510.9 145.6h11.6M510.9 148h11.6M510.9 150.3h11.6M510.9 152.7h11.6M510.9 155h11.6M510.9 157.4h11.6M510.9 159.8h11.6M510.9 162.1h11.6M510.9 164.5h11.6M510.9 166.8h11.6M510.9 169.2h11.6M510.9 171.5h11.6M510.9 173.9h11.6M510.9 176.3h11.6"/><path class="st1" d="M546.1 138.4V87.2h-25.9v36.5M551.8 182.1c.4 0 0-19.5 0-19.5H573v19.2M486.5 96.6h27.7M487.5 96.6v14.3M513 96.6v26.3"/><path class="st4" d="M491.3 96.6v14.3M497.4 96.6v85.2M503.1 96.6v29M509.4 96.6v29.8M487.5 99.9H513M487.5 101.1H513M487.5 103.5H513M487.5 104.6H513M487.5 107H513M487.5 108.2H513M487.5 110.5H513M494 111.7h19M494 114.1h19M494 115.2h19M494 117.6h19M494 118.8h19M494 121.1h19M494 122.3h19M507.1 124.7h3.8M494 124.7h11.3M507.1 125.9h3.8M494 125.9h8.9M494 128.2h7.7M494 129.4h7.7M494 131.8h7.7M494 132.9h7.7M494 135.3h7.7M494 136.5h7.7M494 138.8h7.7M494 140h7.7M494 142.7h7.7M494 143.9h7.7M494 146.2h7.7M494 147.4h7.7M494 149.8h7.7M494 151h7.7M494 153.3h7.7M494 154.5h7.7M494 157.2h7.7M494 158.4h7.7M494 160.7h7.7M494 161.9h7.7M494 164.3h7.7M494 165.4h7.7M494 167.8h7.7M494 169h7.7M494 171.7h7.7M494 172.8h7.7M494 175.2h7.7M494 176.4h7.7M494 178.7h7.7M494 179.9h7.7M494 182.3h7.7M523.5 87.2v39.4M527 87.1v37.6M531.3 87.1v38.5M535 87.1v52.1M538.5 87.1v52.1M542.7 87.1v51.7"/><path class="st1" d="M532.2 139.2h31v22.7"/><path class="st4" d="M532.2 142.3h31M532.2 141.2h31"/><path class="st3" d="M534 143.9h2.6v2.6H534zM537.5 143.9h2.6v2.6h-2.6zM541.1 143.9h2.6v2.6h-2.6zM544.6 143.9h2.6v2.6h-2.6zM548.2 143.9h2.6v2.6h-2.6zM551.7 143.9h2.6v2.6h-2.6zM555.2 143.9h2.6v2.6h-2.6zM558.8 143.9h2.6v2.6h-2.6zM534 147.4h2.6v2.6H534zM537.5 147.4h2.6v2.6h-2.6zM541 147.4h2.6v2.6H541zM544.6 147.4h2.6v2.6h-2.6zM548.1 147.4h2.6v2.6h-2.6zM551.6 147.4h2.6v2.6h-2.6zM555.2 147.4h2.6v2.6h-2.6zM558.7 147.4h2.6v2.6h-2.6zM534 150.9h2.6v2.6H534zM537.5 150.9h2.6v2.6h-2.6zM541 150.9h2.6v2.6H541zM544.6 150.9h2.6v2.6h-2.6zM548.1 150.9h2.6v2.6h-2.6zM551.6 150.9h2.6v2.6h-2.6zM555.2 150.9h2.6v2.6h-2.6zM558.7 150.9h2.6v2.6h-2.6zM534 154.5h2.6v2.6H534zM537.5 154.5h2.6v2.6h-2.6zM541.1 154.5h2.6v2.6h-2.6zM544.6 154.5h2.6v2.6h-2.6zM548.2 154.5h2.6v2.6h-2.6zM551.7 154.5h2.6v2.6h-2.6zM555.2 154.5h2.6v2.6h-2.6zM558.8 154.5h2.6v2.6h-2.6zM534 158h2.6v2.6H534zM537.5 158h2.6v2.6h-2.6zM541 158h2.6v2.6H541zM544.6 158h2.6v2.6h-2.6zM548.1 158h2.6v2.6h-2.6zM551.6 158h2.6v2.6h-2.6zM555.2 158h2.6v2.6h-2.6zM558.7 158h2.6v2.6h-2.6zM534 161.6h2.6v2.6H534zM537.5 161.6h2.6v2.6h-2.6zM541 161.6h2.6v2.6H541zM544.6 161.6h2.6v2.6h-2.6zM548.1 161.6h2.6v2.6h-2.6zM551.6 161.6h2.6v1.3h-2.6zM555.2 161.6h2.6v1.3h-2.6zM558.7 161.6h2.6v1.3h-2.6z"/><path class="st4" d="M532.2 166.8h19.7M532.2 165.6h19.7M555.2 162.8v18.5M560.1 162.8v18.5M565.1 162.8v18.5M570 162.8v18.5M573 164.7h-21M573 169.6h-21M573 174.6h-21"/><path class="st1" d="M647.7 182.1v-71.2H674v71.2M658 110.9v71.2M663.7 110.9v71.2"/><path class="st2" d="M663.7 114.3h9.5M663.7 117.8h9.5M663.7 121.3h9.5M663.7 124.4h9.5M663.7 128h9.5M663.7 131.5h9.5M663.7 134.9h9.5M663.7 138.4h9.5M663.7 142h9.5M663.7 145.1h9.5M663.7 148.6h9.5M663.7 152.1h9.5M663.7 155.5h9.5M663.7 159.1h9.5M663.7 162.6h9.5M663.7 165.7h9.5M663.7 169.2h9.5M663.7 172.8h9.5M648.5 114.3h9.5M648.5 117.8h9.5M648.5 121.3h9.5M648.5 124.4h9.5M648.5 128h9.5M648.5 131.5h9.5M648.5 134.9h9.5M648.5 138.4h9.5M648.5 142h9.5M648.5 145.1h9.5M648.5 148.6h9.5M648.5 152.1h9.5M648.5 155.5h9.5M648.5 159.1h9.5M648.5 162.6h9.5M648.5 165.7h9.5M648.5 169.2h9.5M648.5 172.8h9.5M631.3 162.3V83.5h28.3v26.6M653.1 87.2h3.8M647 87.2h3.8M640.3 87.2h4.6M634.1 87.2h3.8M653.1 90.8h3.8M647 90.8h3.8M640.3 90.8h4.6M634.1 90.8h3.8M653.1 94.3h3.8M647 94.3h3.8M640.3 94.3h4.6M634.1 94.3h3.8M653.1 97.9h3.8M647 97.9h3.8M640.3 97.9h4.6M634.1 97.9h3.8M653.1 101.4h3.8M647 101.4h3.8M640.3 101.4h4.6M634.1 101.4h3.8M653.1 104.9h3.8M647 104.9h3.8M640.3 104.9h4.6M634.1 104.9h3.8M653.1 108.5h3.8M647 108.5h3.8M640.3 108.5h4.6M634.1 108.5h3.8M640.3 112h4.6M634.1 112h3.8M640.3 115.5h4.6M634.1 115.5h3.8M640.3 119.6h4.6M634.1 119.6h3.8M640.3 123.1h4.6M634.1 123.1h3.8M640.3 126.6h4.6M634.1 126.6h3.8M640.3 130.2h4.6M634.1 130.2h3.8M640.3 133.7h4.6M634.1 133.7h3.8M640.3 137.3h4.6M634.1 137.3h3.8M640.3 140.8h4.6M634.1 140.8h3.8M640.3 144.3h4.6M634.1 144.3h3.8M640.3 147.9h4.6M634.1 147.9h3.8M640.3 151.5h4.6M634.1 151.5h3.8M640.3 155h4.6M634.1 155h3.8M640.3 158.6h4.6M634.1 158.6h3.8"/><path class="st1" d="M690.9 182.1v-58.4h11.6v58.4M681.7 182.1v-55.5l5.2-2.5v57.7M686.9 126.6h4"/><path class="st4" d="M688.9 182.1V127"/><path class="st1" d="M712.2 182.1v-55.5l-5.2-2.5v57.7M707 126.6h-4.1"/><path class="st4" d="M705 182.1V127M690.9 129.1h11.6M690.9 131.5h11.6M690.9 133.8h11.6M690.9 136.2h11.6M690.9 138.5h11.6M690.9 140.9h11.6M690.9 143.2h11.6M690.9 145.6h11.6M690.9 148h11.6M690.9 150.3h11.6M690.9 152.7h11.6M690.9 155h11.6M690.9 157.4h11.6M690.9 159.8h11.6M690.9 162.1h11.6M690.9 164.5h11.6M690.9 166.8h11.6M690.9 169.2h11.6M690.9 171.5h11.6M690.9 173.9h11.6M690.9 176.3h11.6"/><path class="st1" d="M726.1 138.4V87.2h-25.9v36.5M731.8 182.1c.4 0 0-19.5 0-19.5H753v19.2M666.5 96.6h27.7M667.5 96.6v14.3M693 96.6v26.3"/><path class="st4" d="M671.3 96.6v14.3M677.4 96.6v85.2M683.1 96.6v29M689.4 96.6v29.8M667.5 99.9H693M667.5 101.1H693M667.5 103.5H693M667.5 104.6H693M667.5 107H693M667.5 108.2H693M667.5 110.5H693M674 111.7h19M674 114.1h19M674 115.2h19M674 117.6h19M674 118.8h19M674 121.1h19M674 122.3h19M687.1 124.7h3.8M674 124.7h11.3M687.1 125.9h3.8M674 125.9h8.9M674 128.2h7.7M674 129.4h7.7M674 131.8h7.7M674 132.9h7.7M674 135.3h7.7M674 136.5h7.7M674 138.8h7.7M674 140h7.7M674 142.7h7.7M674 143.9h7.7M674 146.2h7.7M674 147.4h7.7M674 149.8h7.7M674 151h7.7M674 153.3h7.7M674 154.5h7.7M674 157.2h7.7M674 158.4h7.7M674 160.7h7.7M674 161.9h7.7M674 164.3h7.7M674 165.4h7.7M674 167.8h7.7M674 169h7.7M674 171.7h7.7M674 172.8h7.7M674 175.2h7.7M674 176.4h7.7M674 178.7h7.7M674 179.9h7.7M674 182.3h7.7M703.5 87.2v39.4M707 87.1v37.6M711.3 87.1v38.5M715 87.1v52.1M718.5 87.1v52.1M722.7 87.1v51.7"/><path class="st1" d="M712.2 139.2h31v22.7"/><path class="st4" d="M712.2 142.3h31M712.2 141.2h31"/><path class="st3" d="M714 143.9h2.6v2.6H714zM717.5 143.9h2.6v2.6h-2.6zM721.1 143.9h2.6v2.6h-2.6zM724.6 143.9h2.6v2.6h-2.6zM728.2 143.9h2.6v2.6h-2.6zM731.7 143.9h2.6v2.6h-2.6zM735.2 143.9h2.6v2.6h-2.6zM738.8 143.9h2.6v2.6h-2.6zM714 147.4h2.6v2.6H714zM717.5 147.4h2.6v2.6h-2.6zM721 147.4h2.6v2.6H721zM724.6 147.4h2.6v2.6h-2.6zM728.1 147.4h2.6v2.6h-2.6zM731.6 147.4h2.6v2.6h-2.6zM735.2 147.4h2.6v2.6h-2.6zM738.7 147.4h2.6v2.6h-2.6zM714 150.9h2.6v2.6H714zM717.5 150.9h2.6v2.6h-2.6zM721 150.9h2.6v2.6H721zM724.6 150.9h2.6v2.6h-2.6zM728.1 150.9h2.6v2.6h-2.6zM731.6 150.9h2.6v2.6h-2.6zM735.2 150.9h2.6v2.6h-2.6zM738.7 150.9h2.6v2.6h-2.6zM714 154.5h2.6v2.6H714zM717.5 154.5h2.6v2.6h-2.6zM721.1 154.5h2.6v2.6h-2.6zM724.6 154.5h2.6v2.6h-2.6zM728.2 154.5h2.6v2.6h-2.6zM731.7 154.5h2.6v2.6h-2.6zM735.2 154.5h2.6v2.6h-2.6zM738.8 154.5h2.6v2.6h-2.6zM714 158h2.6v2.6H714zM717.5 158h2.6v2.6h-2.6zM721 158h2.6v2.6H721zM724.6 158h2.6v2.6h-2.6zM728.1 158h2.6v2.6h-2.6zM731.6 158h2.6v2.6h-2.6zM735.2 158h2.6v2.6h-2.6zM738.7 158h2.6v2.6h-2.6zM714 161.6h2.6v2.6H714zM717.5 161.6h2.6v2.6h-2.6zM721 161.6h2.6v2.6H721zM724.6 161.6h2.6v2.6h-2.6zM728.1 161.6h2.6v2.6h-2.6zM731.6 161.6h2.6v1.3h-2.6zM735.2 161.6h2.6v1.3h-2.6zM738.7 161.6h2.6v1.3h-2.6z"/><path class="st4" d="M712.2 166.8h19.7M712.2 165.6h19.7M735.2 162.8v18.5M740.1 162.8v18.5M745.1 162.8v18.5M750 162.8v18.5M753 164.7h-21M753 169.6h-21M753 174.6h-21M573 179.5h-21"/><path class="st1" d="M16.2 191.3h48M117.8 191.3h30.4M203.1 191.3H354M381.3 191.3h61.6M453.8 191.3h30.4M539.1 191.3H690M717.3 191.3h61.6"/><path class="st0" d="M468 182.1h308.5"/></svg>