<svg xmlns="http://www.w3.org/2000/svg" xmlns:xlink="http://www.w3.org/1999/xlink" viewBox="0 0 500 500" style="enable-background:new 0 0 500 500" xml:space="preserve"><style>.st0{fill:none;stroke:#263238;stroke-linecap:round;stroke-linejoin:round;stroke-miterlimit:10}.st3{opacity:.3;clip-path:url(#XMLID_7_);fill-opacity:.7}.st4{fill:#fff;stroke:#263238;stroke-linecap:round;stroke-linejoin:round;stroke-miterlimit:10}.st5{fill:#263238}.st7,.st8{fill:none;stroke:#fff;stroke-linecap:round;stroke-linejoin:round;stroke-miterlimit:10}.st8{fill:#8342ea;stroke:#263238}</style><g id="Floor"><path class="st0" d="M76.7 438.7c64.3.3 129.3.3 193.3.3 2 0 3-2 4-3 5-8 10-15 17-21 6 0 12 0 17-2 9-4 18-5 27-9 6-3 14-7 14-14 1-5 6-7 9-10 1-1 1-2 2-3 2-2 4-4 6-4 7 1 14 2 21 2 3.3 1.1 9.4 4.2 12.6 2.6 1.9-.9 7-7.9 7.3-9.6.9-4.9 5.8-7.7 10.2-9.9 1.1-.6 2.6-1.1 3.6-.3.9.7.9 2 1.5 2.9 1.1 1.5 3.4 1.4 5.2.9 1.8-.5 3.9-1.2 5.5-.2 1.2.7 1.7 2 2.5 3.1 1.1 1.5 2.8 2.6 4.6 3 .6.1 1.3.3 1.7.8M389.3 394.3c4.3.3 10.5-2.5 10.5-2.3s7.5 1.2 7.5 1.2 9.9 2.8 11.5 1.1c1.6-1.7 6.7-.5 10.7-.9s8.1 2.9 8.1 2.9 7.1 6.1 8 6.3c.9.3 8.1 2.4 10.8 4.3"/><path class="st0" d="M270 439h17s11-5.7 16.6-5c5.6.6 10.5 4.7 10.5 4.7h9.7l11.9 1.5h7.9M383.7 414.2c-2.4-2.6-12.3-3.2-13.7-5.7-1.4-2.5-10.1 3.2-11.3 2.3-1.2-.9-7.4.7-8.5 3.7-1 3-.5 3.5-4.5 5M447.2 379.1c-1.5-1.4-4-1.4-5.5-.1-.2.2-.5.4-.7.6-.7.4-1.5.3-2.3.3-1.8 0-3.5.7-4.9 1.8-.5.4-.9.8-1.4.9-.3.1-.6.1-1 .1-.9.1-1.7.4-2.4.9M394.5 439.4c4.3 1.9 9.7.2 13-3.2 2.6-2.8 4.7-6.9 8.5-7.1 1 0 2 .2 3 .2 2.2 0 4.3-1.2 6.4-2 2.1-.8 4.7-1.2 6.4.3 1.1 1 1.6 2.6 2.8 3.4 1.2.8 2.8.7 4.2 1 1.4.3 3 1.4 2.7 2.9"/></g><g id="Clouds"><path id="XMLID_14_" class="st0" d="M72.3 151.3H54.7s1.8-4.4 15.5-2.9c0 0 6.8-7.8 16.8-7.8 0 0 .3-6.1 7.1-7.4 6.8-1.3 8.1 4.8 8.1 4.8s5-2.7 11.8 0c6.8 2.7 5.4 10.5 5.4 10.5s19.5-.6 22.8 2.9h-10"/><path class="st0" d="M75.4 151.3h2.9M94.6 151.3h27"/><path id="XMLID_13_" class="st0" d="M222.8 249.7H197s1.5-3.7 13.2-2.5c0 0 5.8-6.7 14.3-6.7 0 0 .3-5.2 6.1-6.3 5.8-1.1 6.9 4.1 6.9 4.1s4.3-2.3 10.1 0 4.6 8.9 4.6 8.9 16.6-.5 19.5 2.5h-6.2"/><path class="st0" d="M228.9 249.5h3.6"/><path id="XMLID_12_" class="st0" d="M220.9 75.8h-25.8s1.5-3.7 13.2-2.5c0 0 5.8-6.7 14.3-6.7 0 0 .3-5.2 6.1-6.3 5.8-1.1 6.9 4.1 6.9 4.1s4.3-2.3 10.1 0 4.6 8.9 4.6 8.9 16.6-.5 19.5 2.5h-6.2"/><path class="st0" d="M227 75.6h3.7"/><path id="XMLID_10_" class="st0" d="M139.9 296.8H75.6c4.8-5.1 32.8-4.2 32.8-4.2s-2-11.2 7.7-15c9.7-3.8 16.9 0 16.9 0s1.9-8.7 11.7-6.8c9.8 1.9 10.3 10.6 10.3 10.6 14.3 0 24.1 11.3 24.1 11.3 19.7-2.1 22.3 4.2 22.3 4.2h-7.2"/><path class="st0" d="M188.8 296.8H186M151.1 296.8h9.4"/><path id="XMLID_9_" class="st0" d="M360.5 142.3h-77s3.2-7.9 27.9-5.2c0 0 12.3-14.1 30.3-14.1 0 0 .6-11 12.9-13.3 12.3-2.4 14.6 8.6 14.6 8.6s9.1-4.8 21.2 0c12.2 4.8 9.7 18.8 9.7 18.8s35.1-1.1 41.1 5.3h-17.8"/><path class="st0" d="M367.8 142.3h7.2"/></g><g id="Buildings"><path id="XMLID_560_" class="st0" d="M382 316.4h61.4s-2.5-6.3-22.3-4.2c0 0-9.8-11.3-24.1-11.3 0 0-.5-8.7-10.3-10.6-9.8-1.9-11.7 6.8-11.7 6.8s-7.2-3.8-16.9 0-7.7 15-7.7 15-28-.9-32.8 4.2h18.6"/><path class="st0" d="M341.2 316.4h9.1M255.9 340.3v-48.4h7.9v19.5h7.9v29.2M287 311v-45.3h16V246h30.6v7h7.6v46.1M375 281.6v-45.3h10.3v-20.5h4v-35.3h3.3v17l8.3 8.2v20.5h9.4v45h8.5v12.4M345.8 275h7.8v-49.3h6.3V155h2.4v47.5h5.5V252h4"/><path class="st0" d="M283.5 283.6h-6.7V269h-3.5v14.6h-4.9v22M295.8 260.7v-34.5h10.8v-28.7h3.7v28.7h7.3v15.1M306.7 265.7h17.2v38.5M299.4 338.1v-22.8h-19.5v48.3M263.8 350.8v-6.5h-19.9v52.2h-5.3M389.3 251.5h13.5M389.3 258.6h13.5M389.3 266.5h12.4M328.5 249.7h-18.2M293.2 274h20.9M293.2 278.5h20.9M293.2 283.6h20.9M358.8 235.2v46.4M362.3 235.2v46.4"/></g><g id="Character"><defs><path id="XMLID_4_" d="M122.4 165.7s10.6-9.7 17.9-8.5c1.2.2-5 12.1-5 12.1l-12.9-3.6z"/></defs><use xlink:href="#XMLID_4_" style="overflow:visible;fill:#8342ea"/><clipPath id="XMLID_6_"><use xlink:href="#XMLID_4_" style="overflow:visible"/></clipPath><path d="M122.4 165.7s10.6-9.7 17.9-8.5c1.2.2-5 12.1-5 12.1l-12.9-3.6z" style="opacity:.5;clip-path:url(#XMLID_6_);fill-opacity:.7"/><use xlink:href="#XMLID_4_" style="overflow:visible;fill:none;stroke:#263238;stroke-linecap:round;stroke-linejoin:round;stroke-miterlimit:10"/><path d="M219.1 207.9s.4 31.8 1.6 37.1 4.7 11.2 4.7 11.2-3.4 69.6-2.3 72.8c1.1 3.2 5.9 25.3 5.9 25.3l5.5 84.4h-2s-7.5-79.6-7.5-82c0-2.4-5.9-23.1-5.9-23.1s-.8-69.1 0-73-4.6-14.3-4.6-14.3.1-31.9-1.6-35.1c0-.1 3.4-3 6.2-3.3z" style="fill:#757575;stroke:#263238;stroke-linecap:round;stroke-linejoin:round;stroke-miterlimit:10"/><defs><path id="XMLID_3_" d="M140.2 244.9s-10.7 18.1-7.3 34c0 0-4.1 54.8-5.7 58.3-1.6 3.6-12.3 19.3-15.5 42.2-3.2 22.9-9 41-9 41H117s21.3-67.5 25.7-71c4.4-3.6 12.4-27.1 18.1-48.2 0 0 7.7 37.4 10.7 44.5 3.1 7.1.5 27.7 4.9 40.9 4.3 13 4 33.9 4 33.9s14.9 3.7 14.7 0c-.9-25.5 4.1-47.5-2.2-70.2-3-10.6 3-72.4-7.9-105.4h-44.8z"/></defs><use xlink:href="#XMLID_3_" style="overflow:visible;fill:#bfbfbf"/><clipPath id="XMLID_7_"><use xlink:href="#XMLID_3_" style="overflow:visible"/></clipPath><path class="st3" d="M160.5 296.8c0 .7.1 2.5.2 4.8-5.7 21-13.7 44.3-18 47.8-4.4 3.6-25.7 71-25.7 71h-14.3s5.7-18.1 9-41 14-38.6 15.5-42.2c1.6-3.6 5.7-58.3 5.7-58.3-.9-4.2-.8-8.5-.2-12.6.8 5.4 4 12.2 15 13.9 0 0-2.4-6.2 1.8-12.6 0 0-2.1 11.2 6.9 16.5.4.2.3 1.8.3 1.8s3.7 8.3 3.8 10.9zM186.3 249.5c-3.7 2.2-11.6 4.8-28.4 4.1 0 0-4.1 3.1-6.8 8.2l-1.6-1.3s-7.7 4.4-16.1 2.2c2.2-9.9 6.9-17.8 6.9-17.8H185c.4 1.5.9 3 1.3 4.6z"/><use xlink:href="#XMLID_3_" style="overflow:visible;fill:none;stroke:#263238;stroke-linecap:round;stroke-linejoin:round;stroke-miterlimit:10"/><path class="st0" d="M152.3 259s-7.4 14.1.6 22.5c0 0 10.2 9.5 21.1 7.3M160.8 301.2s-1-7.7-2.9-11-1.3-4.2-1.3-4.2-8.7 2.7-14.3.6M132.9 279s5.8 6.1 14.8 5.2"/><path class="st4" d="M152.3 161.2c.8-.3 40.7-3.3 42.7-7.4 0 0-2.4-4-4.4-11.8-3.9-15.3-11.9-26.6-11.9-26.6l10-1.8c6 16.9 20.2 31.8 19.9 47.5 0 0-21.6 14.7-43.6 17.1-6.3.6-12.7-17-12.7-17z"/><path class="st4" d="M165.6 150.1c-1.7-.2-2.9.1-3.9.8-4.1 2.5-3.3 9.8-3.3 9.8l-18.1-3.4c3.9-5.7 2.9-18.9 2.9-18.9 16.9-15.9 21-1.3 22 7 .3 2.3.3 4.1.4 4.7z"/><path class="st5" d="M165.6 150.1c-1.7-.2-2.9.1-3.9.8-2.2-3.5-2.5-7.1-2.7-7.9l6.3 2.4c.2 2.3.2 4.1.3 4.7zM133.8 111.2s-1.5-9.1 13.6-10.4c15.1-1.3 29 2.8 29 13.8s-9.1 33.8-27.3 23.6-15.3-27-15.3-27z"/><path class="st4" d="M142.6 139.6c-1.6-2-5.7-9.2-6.3-11.9-4.1-16.8 5.1-18.1 12-21.5 13-6.5 24.9 6.7 23.9 18.3s4.5 10.3 4.2 11.9c-.2 1.4-3.7 2.7-3.7 2.7s-.1 1.5.1 3l-.9.8c-.5 2.2-1.5 7.8-2.2 8-1.5.4-9.6-2.4-11-5.4"/><path class="st5" d="M170.9 129.4c-.1.8-.6 1.5-1.1 1.4-.5-.1-.8-.8-.7-1.7.1-.8.6-1.5 1.1-1.4.5.1.8.9.7 1.7z"/><path class="st0" d="M171.5 122.8s-2.2-.4-4.4 1.9"/><path class="st5" d="M167 106.2c-6-4.6-39.5-9.3-33.9 17.1-.7 3.3 1.5 8.8 9 17.8 0 0 3.6-2.8 7.5-.4 0 0 2.4-7.3 6.4-8.9.9-.4 1.6-1 2.3-1.7 10.7-2.7 12.1-12.8 11.9-16.4.7-1 1.8-3.7-3.2-7.5z"/><path class="st5" d="M140.2 107s-8.7-9.8-19.4-4.3c-10.7 5.5-7.8 20.7-1.9 29 5.9 8.2-1.3 14.9 1 19.4 2.3 4.5 7.1 2.7 7.1 2.7s-2.5-1.3-2.9-4.5c-.4-3.2 6.1-4.8 6.1-13.9 0-9.2-2.1-17.4 5.5-13.6 7.7 3.7 4.5-14.8 4.5-14.8z"/><path class="st0" d="M171.9 142.9s-3.3.2-4.8-1.2"/><g style="opacity:.2"><path class="st7" d="M140.2 107s5.2 6.6-1 12.1M167 106.2s8 8.7-8 18.5M164 104.7s3.1 3-4 8.9-12.4 7.4-17.7 7.1M137.9 112.1s-4.6-7.5-11.9-2.4c-7.3 5.1-5.7 12.2-1.8 20.4 4 8.1 1.3 13.5 1.3 13.5"/><path class="st7" d="M124 103.5s-9 .3-8.3 12c.7 11.8 4.9 11.7 5.8 17.3M148.4 130.1s-9 2-12.4-5.4"/></g><path class="st4" d="M157.1 131.2s-1.5-5.4-5.4-3.6c-3.9 1.8-.5 7 1.5 9.5 1.9 2.5 4.1.4 4.4-.7"/><path class="st5" d="m139 154.4-.4 3.1c-15.4 14.4-5.2 48.3 4.5 70l-6.2 19.5s26.4 8.8 50.5 1.9l-2.3-22.9-2.6-18s2.2-6.1 2.6-18c.3-11.8-22.1-42.3-46.1-35.6z"/><path class="st4" d="M183 118.5s-4 2.1-5.7 1.6c0 0-8.6.5-8.9-3.1 0 0 4.4-.5 7.4-4.7 1.4-2 13.9-2 13.1 2.2-.3 1.6-1.3 2.5-2.3 3.1"/><path class="st4" d="M175.8 112.2c1.8-.3.9.6 2.2.5 1.3-.1 1.4-.9 2.3.3.9 1.2 1.9 0 2.9.4M177.3 120c.1-1 3.6-2.9 4.5-4.1M174.3 120c-1.1-1.3 1.4-1.9 3.8-4.3M171.4 119.5c-1.4-1.4-.8-1.8 1.3-2.8 2.1-1 3-2.3 3-2.3"/><path class="st8" d="M174.9 412.3s8.9-2.9 16.1-.3l2.2 8.5 4.8-8.2s-1.6 10.3 0 13.4c1.6 3.2 11.2 4.6 12.8 6.7 1.6 2.1 2.1 6.2 2.1 6.2h-37.3l2.9-12.9-3.6-13.4z"/><defs><path id="XMLID_2_" d="M100.6 412.3s7-2.9 14.1-.3l-.7 8.5 8.7-8.2s-5.5 10.3-3.9 13.4c1.6 3.2 11.2 4.6 12.8 6.7 1.6 2.1 2.1 6.2 2.1 6.2H96.4l3.9-12.9.3-13.4z"/></defs><use xlink:href="#XMLID_2_" style="overflow:visible;fill:#8342ea"/><clipPath id="XMLID_8_"><use xlink:href="#XMLID_2_" style="overflow:visible"/></clipPath><path d="M100.6 412.3s7-2.9 14.1-.3l-.7 8.5 8.7-8.2s-5.5 10.3-3.9 13.4c1.6 3.2 11.2 4.6 12.8 6.7 1.6 2.1 2.1 6.2 2.1 6.2H96.4l3.9-12.9.3-13.4z" style="opacity:.3;clip-path:url(#XMLID_8_);fill-opacity:.7"/><use xlink:href="#XMLID_2_" style="overflow:visible;fill:none;stroke:#263238;stroke-linecap:round;stroke-linejoin:round;stroke-miterlimit:10"/><path d="M175.6 220.4s5.4-7.2 6.4-11.2l1.1 3.5s-2.9 8-7.5 12.2v-4.5z" style="fill:#bfbfbf;stroke:#263238;stroke-linecap:round;stroke-linejoin:round;stroke-miterlimit:10"/><path class="st8" d="M154.2 223.8s7.5 2.8 12.9 1.1c5.3-1.8 9.3-6.1 9.3-6.1l1.7 3.2s-12 21-23.9 17.8"/><defs><path id="XMLID_1_" d="M155 251.5c-3.9 10.3-41.9 7.9-49.3 2.1-1.6-1.3-3.1-3.8-4.5-6.9-2.5-5.8-4.3-14-5.2-20.8-.2-1.8-.4-3.6-.5-5.2-.2-3.5.1-6.2.8-7.1 3-3.8 6.3-7.5 6.3-7.5s-5.8-31.2 0-34.2c0 0 7.2-4.5 15.6-6s22.6-5.7 29 3c.3.4.6.9.8 1.5 6.1 12.8 10.8 71.2 7 81.1z"/></defs><use xlink:href="#XMLID_1_" style="overflow:visible;fill:#8342ea"/><clipPath id="XMLID_11_"><use xlink:href="#XMLID_1_" style="overflow:visible"/></clipPath><path d="M155 251.5c-3.9 10.3-41.9 7.9-49.3 2.1-1.6-1.3-3.1-3.8-4.5-6.9-2.1-7.1-4-15.3-5.2-20.8-.8-3.4-1.2-5.8-1.3-6 0 .1.2.4.8.8 1.8 1.3 7.4 3.7 25 4.8 0 0-12.8 3.6-22.8-.8 0 0 3.4 20.7 7.1 24.8 3.7 4.1 20.4 7.5 24.4 5.3 3.9-2.3 1.3-23.3 2.1-25.4.8-2.2 4-3.9 4.2-4.6.2-.7.9-10.8.9-10.8s-24.7-5.1-31.5-4.9c-6.9.2 2.9-4.7 9.8-3.9s20.6 3.7 20.9 3.9c.3.2-2.9-30.2-6.4-34.7-3.5-4.5 4.5-4.3 6.4 2.9 1.8 7 6.4 32.4 6.8 34.1-.1-1.4-1-16.3-1.9-21.9-.9-5.8-.9-13.5.1-14.3 1-.8 6.1-2.8 6.6-3.9.1-.3.5-.6 1-.9 5.9 12.8 10.6 71.2 6.8 81.1z" style="opacity:.3;clip-path:url(#XMLID_11_);fill-opacity:.7"/><use xlink:href="#XMLID_1_" style="overflow:visible;fill:none;stroke:#263238;stroke-linecap:round;stroke-linejoin:round;stroke-miterlimit:10"/><path class="st8" d="M135.2 165.6s-3.7-3.4-9.3-4.2c-5.5-.8-10.3 6.7-10.3 6.7h2.6s3.6-6.9 10.7-.8"/><path class="st0" d="M108.9 170.9s14.6-1.2 19.4 2.6c4.7 3.8 7.2 34.4 7.2 34.4s-21.9-6.1-28.2-2.9"/><path class="st0" d="M104.4 198s-4-14-1.6-17.6c2.4-3.6 17.4-3 20.2 0 2.8 3 3 19.8 3 19.8s-12.9-2.9-18.6-2M97.3 221.9c.8 1 28.6 5.9 33.4 2.8"/><path class="st0" d="M98.5 216.6c2-1.6 22 2.4 26.1 2.6 4.2.2 11.5-4.4 11.9-5.1 0 0 5.5 29.9 3.8 35.6-1.6 5.7-6.2 6.7-6.2 6.7M103.6 247.6s1.2 6.7 25.7 8.7M143.4 222.7c1-.4 8.1-1.1 10.7-2.8 0 0 .4 5.3 0 10.1 0 0-7.7 3-9.1 2.4s-1.9-4.9-1.9-4.9M152.9 230.5s.6 12.7 0 14.5c-.6 1.7-7.6 4.3-8.4 4.1s-2.2-12.5-2.2-12.5M127.3 169.3s7.2 0 9.8 4.7c2.6 4.7 5.5 32.2 6 33.8"/><path class="st8" d="M140.3 166s16-8.8 24.4-6.1c8.4 2.7 11.8 11.2 11.8 11.2s-2.9-7.9-10.8-7.4c-8 .5-19.4 8.4-19.4 8.4"/><path class="st5" d="M165.6 163.7s9-.7 11.8 3.5c2.8 4.2 0 15.2 0 15.2s2.4 2.8-1.7 4.8-15.1 3.1-17.7-.9c-2.7-4-1.3-21 7.6-22.6z"/><path class="st4" d="M176.7 183.1s-9.5 34.4-6.4 37.8c0 0 4.1 0 11.9 2 17.9 4.5 28 1.2 28 1.2l-1.9 9.9c-17.9-.5-35.2 2.8-49.7-3.1 0 0-5.9-25.4-.2-46.8 0 0 1.7-2.1 6.6-2.8 7-.8 11.7 1.8 11.7 1.8z"/><path class="st4" d="M207.4 234.1c3.4 2.2 8.3-1.3 12.9-.8 4.6.4 2.4-12.6 2.4-12.6s-5.7-2.7-7.4-3.3c-1.7-.6-4.2 3.2-9.4 8"/><path class="st7" d="M140.9 157.3s7.2-.8 15 1.1M157.6 185.7s-1.5-2.3 0-3.3c0 0-4.5-3.4-3.8-7M178.5 177.9l-.4 4.4s2.2 1.4-1.7 3.3M180.4 209.2s-4.7 3.6-7.5 3M160.8 243.8s11.3 6.6 23.3 3.9"/><path class="st0" d="M216.6 221.9s4.5.6 6.3 1.3M216.6 226.1s5.1 0 6.5.1M216.6 229.4s6.4-.2 6.3.5M99.6 434.2s10.1-1 15.4 1.2M102 424.8s5.5-1.3 8.5 0M118.8 425.7s1.4 2.5 1 4.3M131.6 432.4s-4.5.4-7.3 0M198 425.7s3.7 4.3 3.7 5.5M210.8 432.4s-3.5.6-5.3.2M178.2 435.4s11.3-1.8 18 0M180.9 425.7s5.5.2 7.9-1.2M156.4 295.3s-6.1 36.7-14 45.4c0 0-10.3 28.4-14.4 36-4.1 7.5-9.1 31.8-9.1 31.8M127.3 337.3s3.8-5.5 8 0M175.2 343s1.8-9.7 9.7-1.8M184.9 253s4.7 20.1 3.9 31.2c0 0 2.6 41.5 1.8 53.1M195 153.8s4.9 2.5 7.8.3"/></g><g id="Plants"><path class="st8" d="M394.9 337.3s15.1 1.2 15.7 12.3c0-.1-15.2 7-15.7-12.3zM424.7 340s8.4-11.4 22-5.5c0 0-8.3 13.7-22 5.5zM445.5 304.1S447.9 326 428 320c.1 0 6.4-16.1 17.5-15.9zM421.1 291.9s15.7 8.5 4.2 21.4c0 0-11.1-9.2-4.2-21.4zM401.7 311.5s17.1-1.7 17.1 14.1c0 0-17.1.7-17.1-14.1z"/><path class="st0" d="M417.9 372.2s-7.8-16.4-.3-33.1 10-30.7 6.1-40.6"/><path class="st0" d="M407.4 315.7s10.3 4.1 13.8 14.6M440.1 312.9s-5.9 8.1-16 7.2M440.1 336.8s-16.4 4.7-23 3.2M399.8 342.3s7.3 8.1 14.7 7.9"/><path class="st8" d="M299.2 394.3s-13.1 3.2-12.1 13.1c0 0 14.4 4 12.1-13.1zM273.3 401s-9-8.8-20.2-1.7c.1-.1 9.3 10.9 20.2 1.7zM249.8 372.3s1 19.6 17.7 11.5c0 0-7.9-13.3-17.7-11.5zM269.6 358.1s-12.7 9.7-.6 19.4c0 .1 8.4-9.6.6-19.4zM289.5 372.6s-15.3.9-13.1 14.9c0 0 15.2-1.9 13.1-14.9z"/><path class="st0" d="M283.9 428.3s4.5-15.5-4.4-29.2c-9-13.6-13.2-25.6-11.2-34.9"/><path class="st0" d="M285.1 377.1s-8.5 5.1-10 14.9M255.9 379.3s6.4 6.3 15.1 4.1M259.3 400.4s15.1 1.8 20.7-.5M295.5 399.4s-5.3 8.1-11.8 9.1"/><path d="M365.6 409.4s-2.1-22.1 2.2-42.6c4.3-20.5-4-22.9-7.4-17.3-3.4 5.6-4.5 24.2-4.5 24.2s-1.7-18.8-4.7-28.4c-4.3-14.1-9-24.8-15.2-21.6-7.2 3.7 9.5 29 12.8 58.7 0 0-13.5-13.9-19.9-26.8s-14.3-5.1-8.5 6.5c5.8 11.6 19.4 15.8 27 28.1 0 0-18.9-11.2-22.7-4.4-2.1 3.8 5.5 4.6 8.9 5.5 16.6 4 24.3 21.3 24.3 21.3l7.7-3.2z" style="fill:#671cc9;stroke:#263238;stroke-linecap:round;stroke-linejoin:round;stroke-miterlimit:10"/><path d="M365.6 409.4s-2.1-22.1 2.2-42.6c4.3-20.5-4-22.9-7.4-17.3-3.4 5.6-4.5 24.2-4.5 24.2s-1.7-18.8-4.7-28.4c-4.3-14.1-9-24.8-15.2-21.6-7.2 3.7 9.5 29 12.8 58.7 0 0-13.5-13.9-19.9-26.8s-14.3-5.1-8.5 6.5c5.8 11.6 19.4 15.8 27 28.1 0 0-18.9-11.2-22.7-4.4-2.1 3.8 5.5 4.6 8.9 5.5 16.6 4 24.3 21.3 24.3 21.3l7.7-3.2z" style="opacity:.2;fill-opacity:.7;stroke:#263238;stroke-miterlimit:10"/><path class="st8" d="M371.6 413.8s1.1-20.1-6.2-36.8c-7.3-16.7-.8-18 3.1-13.8 3.9 4.2 6.9 25.8 6.9 25.8s3.5-19.3 1.9-32.7c-1.6-13.4-1.5-20.9 4-20.9 7 0 5.4 32.7-.3 52.4 0 0 9-14.3 12.1-26.4 3.2-12.2 11.3-6.9 8.4 4-2.8 10.9-13.7 17-17.9 28.8 0 0 14-13 18.5-7.9 2.5 2.9-3.9 5-6.6 6.3-13.4 6.4-16.9 22.5-16.9 22.5l-7-1.3z"/><path class="st0" d="M369.1 376.1c6.2 14.1 6.6 34.6 6.6 34.6s8.2-40.8 6.1-58"/><path class="st0" d="M396 368.1s-9.2 19.3-17.5 26.7M396 388.9s-15.5 10-19.3 16.1"/><path class="st8" d="M355.3 412.5s-11.8-16.3-14.6-34.3c-2.8-18-9-15.6-10.1-9.9-1.1 5.6 8.1 25.4 8.1 25.4s-13.4-14.4-19.3-26.5-10.1-18.4-14.7-15.4c-5.9 3.8 13.2 30.5 28.5 43.9 0 0-15.3-7.2-24.5-15.7-9.3-8.5-13.2.3-4.9 7.9 8.3 7.7 20.7 6.9 30.7 14.6 0 0-18.8-3.3-19.9 3.4-.6 3.8 5.9 2.1 9 1.7 14.8-1.8 26.4 9.8 26.4 9.8l5.3-4.9z"/><path class="st0" d="M337.1 379.5c2.4 15.2 13.1 32.7 13.1 32.7s-28.9-29.9-36.5-45.5"/><path class="st0" d="M310 387.2s18.1 11.3 29.2 13M321.3 404.8s18.4 0 24.9 3.1"/></g></svg>