<svg xmlns="http://www.w3.org/2000/svg" viewBox="0 0 750 500" style="enable-background:new 0 0 750 500" xml:space="preserve"><path style="fill:#b8a9f7" d="M661.34 427.12c33.51-52.55 42.11-118.88 32.53-179.7a236.74 236.74 0 0 0-8.04-34.21c-23.49-74.52-83.88-134.17-155.36-165.62-68.18-30-154.38-44.82-218.99 1.35-42.54 30.4-66.64 79.12-105.58 113.22-19.36 16.95-40.55 22.46-63.59 32.59-56.14 24.71-103.13 72.36-106.99 135.22-2.25 36.53 6.67 69.14 23.26 97.15h602.76z"/><path style="opacity:.8;fill:#fff" d="M661.34 427.12c33.51-52.55 42.11-118.88 32.53-179.7a236.74 236.74 0 0 0-8.04-34.21c-23.49-74.52-83.88-134.17-155.36-165.62-68.18-30-154.38-44.82-218.99 1.35-42.54 30.4-66.64 79.12-105.58 113.22-19.36 16.95-40.55 22.46-63.59 32.59-56.14 24.71-103.13 72.36-106.99 135.22-2.25 36.53 6.67 69.14 23.26 97.15h602.76z"/><path style="fill:none;stroke:#b2b2b2;stroke-linecap:round;stroke-linejoin:round;stroke-miterlimit:10" d="M390.54 82.35c-.23-.7-.47-1.41-.72-2.12-9.41-26.17-53.2-27.98-53.2 4.19 0 6.2-14.87 0-20.45 8.05s.62 13.01-6.82 15.49c-7.43 2.48-8.05-3.72-17.35-3.1-9.29.62-8.05 9.29-11.15 11.77-3.1 2.48-3.1 1.24-9.91 1.86-6.82.62-8.05 5.58-8.05 5.58h162.94s6.2-18.59-4.96-25.4c-11.15-6.82-11.15 2.48-19.83-1.24-7.15-3.07-8.49-8.9-10.5-15.08z"/><path style="fill:none;stroke:#b2b2b2;stroke-linecap:round;stroke-linejoin:round;stroke-miterlimit:10" d="M396.18 117.29s3.38-10.43-4.91-18.1c-8.28-7.67-16.88-3.38-19.33 0-2.45 3.38-2.45 9.82-6.44 10.43-3.99.61-3.07-6.75-11.66-4.91-8.59 1.84-5.22 10.43-9.21 12.27-3.99 1.84-3.99-4.91-9.51-2.76-5.52 2.15-5.22 6.14-5.22 6.14M352.11 96.44s-6.83-5.47-15.72-1.37c-8.88 4.1-4.78 12.64-8.88 14.69-4.1 2.05-6.15-.34-11.27 2.05-5.12 2.39-4.78 5.81-4.78 5.81M273.06 140.48c-.1-.31-.2-.61-.31-.92-4.1-11.39-23.15-12.17-23.15 1.82 0 2.7-6.47 0-8.9 3.5-2.43 3.5.27 5.66-2.96 6.74s-3.5-1.62-7.55-1.35c-4.04.27-3.5 4.04-4.85 5.12-1.35 1.08-1.35.54-4.31.81s-3.5 2.43-3.5 2.43h70.89s2.7-8.09-2.16-11.05-4.85 1.08-8.63-.54c-3.12-1.33-3.7-3.87-4.57-6.56z"/><path style="fill:none;stroke:#b2b2b2;stroke-linecap:round;stroke-linejoin:round;stroke-miterlimit:10" d="M275.51 155.68s1.47-4.54-2.14-7.88c-3.6-3.34-7.34-1.47-8.41 0-1.07 1.47-1.07 4.27-2.8 4.54s-1.33-2.94-5.07-2.14c-3.74.8-2.27 4.54-4.01 5.34-1.74.8-1.74-2.14-4.14-1.2-2.4.93-2.27 2.67-2.27 2.67M256.33 146.61s-2.97-2.38-6.84-.59c-3.86 1.78-2.08 5.5-3.86 6.39s-2.68-.15-4.9.89c-2.23 1.04-2.08 2.53-2.08 2.53M648.12 140.48c-.1-.31-.2-.61-.31-.92-4.1-11.39-23.15-12.17-23.15 1.82 0 2.7-6.47 0-8.9 3.5-2.43 3.5.27 5.66-2.96 6.74s-3.5-1.62-7.55-1.35c-4.04.27-3.5 4.04-4.85 5.12-1.35 1.08-1.35.54-4.31.81-2.96.27-3.5 2.43-3.5 2.43h70.89s2.7-8.09-2.16-11.05c-4.85-2.96-4.85 1.08-8.63-.54-3.11-1.33-3.7-3.87-4.57-6.56z"/><path style="fill:none;stroke:#b2b2b2;stroke-linecap:round;stroke-linejoin:round;stroke-miterlimit:10" d="M650.57 155.68s1.47-4.54-2.14-7.88c-3.6-3.34-7.34-1.47-8.41 0-1.07 1.47-1.07 4.27-2.8 4.54-1.74.27-1.34-2.94-5.07-2.14-3.74.8-2.27 4.54-4.01 5.34-1.74.8-1.74-2.14-4.14-1.2-2.4.93-2.27 2.67-2.27 2.67M631.4 146.61s-2.97-2.38-6.84-.59c-3.86 1.78-2.08 5.5-3.86 6.39-1.78.89-2.68-.15-4.9.89-2.23 1.04-2.08 2.53-2.08 2.53"/><path style="fill:#263238" d="M110.18 392.7c1.28.56 4.42.49 4.42.49.03 0-.67-2.05-.73-2.18-.69-1.44-2.86-3.82-4.63-3.58-1.28.17-1.98 1.45-1.7 2.65.29 1.24 1.55 2.15 2.64 2.62zM141.02 425.9c.51-1.12.05-2.51-1.17-2.92-1.69-.57-4.28 1.35-5.22 2.64-.04.06-.36.6-.64 1.1h6.44c.24-.25.45-.52.59-.82z"/><path style="fill:#263238" d="M131.42 417.57c.86.77 3.03 1.51 3.77 1.76-.13.62-.26 1.23-.41 1.82-.11.4-.2.8-.33 1.19-.13.4-.25.79-.38 1.17-.27.74-.54 1.5-.82 2.21-.13.34-.26.66-.39.99h1.05c.08-.22.16-.43.24-.65.27-.74.52-1.48.79-2.28.12-.39.23-.78.35-1.18.13-.39.21-.82.32-1.24.23-.97.42-1.96.58-2.96.65.23 2.95 1.04 4.14.95 1.19-.08 2.68-.52 3.37-1.58.67-1.03.43-2.47-.71-3.06-1.59-.82-4.43.69-5.56 1.82-.07.07-.79.97-1.18 1.47.09-.6.19-1.21.27-1.82.22-1.77.39-3.57.56-5.37.05-.55.11-1.1.17-1.64.23.09 2.95 1.1 4.28 1 1.19-.08 2.68-.52 3.37-1.58.67-1.03.43-2.47-.71-3.06-1.59-.82-4.43.69-5.56 1.82-.09.08-1.12 1.38-1.37 1.72.13-1.21.27-2.41.45-3.59.25-1.63.59-3.21 1.03-4.72.11.04 2.94 1.11 4.31 1.01 1.19-.08 2.68-.52 3.37-1.58.67-1.03.43-2.47-.71-3.06-1.59-.82-4.43.69-5.56 1.82-.09.09-1.2 1.48-1.39 1.75.03-.09.04-.19.07-.27.49-1.6 1.17-3.1 1.87-4.46.41-.8.84-1.53 1.28-2.24.51.25 2.84 1.38 4.08 1.43 1.19.05 2.72-.22 3.52-1.2.78-.95.7-2.41-.37-3.12-1.49-.99-4.48.2-5.73 1.19-.07.05-.7.68-1.15 1.14.2-.32.4-.65.6-.95.75-1.13 1.5-2.11 2.18-2.98.39-.49.75-.92 1.09-1.33.63-.01 3.15-.09 4.26-.61 1.08-.51 2.31-1.45 2.57-2.68.26-1.21-.49-2.46-1.77-2.6-1.78-.19-3.89 2.24-4.54 3.7-.06.13-.71 2.2-.67 2.2h.04c-.34.38-.69.79-1.07 1.25-.69.85-1.47 1.82-2.25 2.94-.78 1.11-1.59 2.34-2.33 3.71s-1.45 2.86-1.99 4.48c-.01.02-.01.04-.02.06.01-.52-.01-1.99-.03-2.1-.21-1.58-1.53-4.52-3.29-4.84-1.27-.23-2.34.76-2.44 1.99-.1 1.26.81 2.51 1.7 3.31 1 .89 3.78 1.76 4.01 1.83-.5 1.55-.88 3.18-1.17 4.85-.17.96-.31 1.92-.44 2.9-.01-.45-.02-.86-.02-.91-.21-1.58-1.53-4.52-3.29-4.84-1.27-.23-2.34.76-2.44 1.99-.1 1.26.81 2.51 1.7 3.31.9.81 3.26 1.59 3.88 1.79-.05.37-.1.75-.14 1.12-.21 1.79-.42 3.58-.68 5.33-.09.62-.2 1.22-.31 1.83-.01-.4-.02-.74-.02-.79-.21-1.58-1.53-4.52-3.29-4.84-1.27-.23-2.34.76-2.44 1.99-.1 1.24.81 2.49 1.7 3.29z"/><path style="fill:#263238" d="M111.27 401.79c1.33.19 4.13-.62 4.35-.68.44 1.57 1.02 3.14 1.7 4.7.38.89.8 1.78 1.23 2.66-.26-.37-.49-.71-.52-.75-1.04-1.21-3.77-2.92-5.41-2.23-1.18.5-1.53 1.92-.94 3 .61 1.11 2.06 1.65 3.24 1.82 1.2.17 3.6-.47 4.23-.65.17.34.33.67.5 1.01.81 1.61 1.63 3.22 2.38 4.82.27.56.51 1.13.75 1.69-.23-.33-.42-.61-.45-.65-1.04-1.21-3.77-2.92-5.41-2.23-1.18.5-1.53 1.92-.94 3 .61 1.1 2.06 1.65 3.24 1.82 1.14.17 3.36-.41 4.11-.62.23.59.46 1.17.66 1.75.13.4.27.77.38 1.18.11.4.22.8.33 1.19.18.76.38 1.55.54 2.3.12.52.22 1.02.32 1.52-.26-.56-.78-1.66-.84-1.74-.85-1.35-3.28-3.46-5.01-3.02-1.25.32-1.8 1.67-1.38 2.83.4 1.09 1.58 1.82 2.65 2.2h5.66c-.03-.12-.05-.24-.08-.37.21-.08 1.39-.56 2.44-1.15.48.52 1.34 1.08 2.1 1.52h1.65c.09-.62.19-1.38.19-1.46.02-1.06-.35-2.78-1.1-3.99 0-.16 0-.31-.03-.47-.2-1.22-1.34-2.12-2.58-1.79-1.73.46-2.82 3.49-2.9 5.08 0 .09.06 1.12.11 1.77-.09-.38-.17-.74-.26-1.13-.18-.76-.38-1.52-.6-2.33-.12-.39-.24-.78-.36-1.18-.11-.4-.28-.8-.42-1.21-.34-.93-.73-1.86-1.15-2.79.67-.16 3.03-.76 3.98-1.49.95-.73 1.95-1.91 1.94-3.17-.01-1.23-1-2.3-2.28-2.16-1.78.19-3.32 3.02-3.64 4.58-.02.1-.13 1.24-.17 1.88-.25-.56-.5-1.11-.78-1.67-.79-1.6-1.65-3.19-2.49-4.79-.26-.49-.51-.98-.77-1.47.24-.05 3.06-.71 4.13-1.53.95-.73 1.95-1.91 1.94-3.17-.01-1.23-1-2.3-2.28-2.16-1.78.19-3.32 3.02-3.64 4.58-.02.12-.17 1.77-.19 2.19-.56-1.08-1.11-2.15-1.6-3.24-.69-1.5-1.28-3-1.74-4.5.11-.03 3.06-.7 4.15-1.53.95-.73 1.95-1.91 1.94-3.17-.01-1.23-1-2.3-2.28-2.16-1.78.19-3.32 3.02-3.64 4.58-.03.12-.18 1.9-.19 2.22-.03-.09-.07-.18-.09-.27-.48-1.61-.74-3.23-.9-4.75-.1-.89-.15-1.74-.17-2.57.56-.07 3.13-.41 4.19-1.05 1.02-.62 2.15-1.69 2.28-2.94.13-1.23-.74-2.4-2.03-2.4-1.79 0-3.63 2.64-4.12 4.16-.03.08-.21.95-.33 1.59-.01-.38-.02-.76-.02-1.12 0-1.35.09-2.59.17-3.68.05-.62.11-1.18.18-1.71.52-.36 2.58-1.81 3.22-2.86.62-1.02 1.13-2.49.66-3.66-.45-1.15-1.77-1.79-2.91-1.2-1.59.82-2 4.01-1.74 5.59.02.14.62 2.22.65 2.2l.03-.02c-.07.5-.14 1.04-.2 1.64-.11 1.1-.22 2.33-.25 3.69-.04 1.35-.04 2.83.1 4.38.14 1.56.36 3.18.81 4.83.01.02.01.04.02.06-.28-.44-1.11-1.65-1.18-1.74-1.04-1.21-3.77-2.92-5.41-2.23-1.18.5-1.53 1.92-.94 3 .57 1.1 2.03 1.64 3.21 1.82zM141.9 393.39c.03.02.57-2.08.59-2.22.22-1.58-.28-4.76-1.89-5.54-1.16-.56-2.45.11-2.88 1.27-.43 1.18.12 2.64.76 3.64.76 1.18 3.42 2.85 3.42 2.85zM78.95 405.8c.79.34 2.72.3 2.72.3.02 0-.41-1.26-.45-1.34-.42-.88-1.76-2.35-2.85-2.2-.78.11-1.22.89-1.04 1.63.18.75.95 1.31 1.62 1.61zM97.91 426.21c.31-.69.03-1.54-.72-1.8-1.04-.35-2.63.83-3.21 1.62-.03.04-.22.37-.4.68h3.96c.16-.14.29-.31.37-.5z"/><path style="fill:#263238" d="M92.01 421.09c.53.47 1.86.93 2.32 1.08-.08.38-.16.76-.25 1.12-.07.25-.12.49-.21.73-.08.24-.16.48-.23.72-.17.45-.33.92-.5 1.36-.08.21-.16.41-.24.61h.65c.05-.13.1-.26.15-.4.17-.45.32-.91.48-1.4.07-.24.14-.48.22-.73.08-.24.13-.51.2-.76.14-.59.26-1.2.36-1.82.4.14 1.81.64 2.55.59.73-.05 1.65-.32 2.07-.97.41-.64.27-1.52-.44-1.88-.98-.5-2.73.42-3.42 1.12-.04.04-.49.6-.72.9.06-.37.12-.74.17-1.12.14-1.09.24-2.2.35-3.3.03-.34.07-.67.11-1.01.14.05 1.81.68 2.63.62.73-.05 1.65-.32 2.07-.97.41-.64.27-1.52-.44-1.88-.98-.5-2.73.42-3.42 1.12-.05.05-.69.85-.84 1.06.08-.74.16-1.48.28-2.21.15-1 .36-1.97.63-2.9.07.02 1.81.68 2.65.62.73-.05 1.65-.32 2.07-.97.41-.64.27-1.52-.44-1.88-.98-.5-2.73.42-3.42 1.12-.05.05-.74.91-.85 1.08.02-.06.03-.11.04-.17.3-.99.72-1.9 1.15-2.74.25-.49.52-.94.78-1.38.31.16 1.75.85 2.51.88.73.03 1.67-.14 2.16-.74.48-.59.43-1.48-.23-1.92-.92-.61-2.76.12-3.52.73-.04.03-.43.42-.71.7.12-.19.25-.4.37-.58.46-.69.92-1.3 1.34-1.83.24-.3.46-.57.67-.82.39-.01 1.94-.05 2.62-.37.66-.31 1.42-.89 1.58-1.65.16-.74-.3-1.52-1.09-1.6-1.09-.12-2.39 1.38-2.79 2.28-.03.08-.43 1.35-.41 1.35h.02c-.21.23-.43.49-.66.77-.43.52-.91 1.12-1.38 1.81-.48.68-.98 1.44-1.43 2.28-.46.84-.89 1.76-1.22 2.75 0 .01-.01.02-.01.03.01-.32-.01-1.22-.02-1.29-.13-.97-.94-2.78-2.02-2.98-.78-.14-1.44.47-1.5 1.22-.06.77.5 1.55 1.04 2.03.62.55 2.33 1.08 2.46 1.13-.3.95-.54 1.96-.72 2.98-.1.59-.19 1.18-.27 1.78 0-.28-.01-.53-.01-.56-.13-.97-.94-2.78-2.02-2.98-.78-.14-1.44.47-1.5 1.22-.06.77.5 1.55 1.04 2.03.55.5 2 .98 2.39 1.1l-.09.69c-.13 1.1-.26 2.2-.42 3.28-.06.38-.12.75-.19 1.12 0-.25-.01-.46-.01-.49-.13-.97-.94-2.78-2.02-2.98-.78-.14-1.44.47-1.5 1.22-.08.79.48 1.56 1.03 2.05z"/><path style="fill:#263238" d="M79.62 411.38c.82.12 2.54-.38 2.68-.42.27.96.63 1.93 1.04 2.89.24.55.49 1.09.75 1.64l-.32-.46c-.64-.74-2.32-1.8-3.33-1.37-.73.31-.94 1.18-.58 1.85.37.68 1.27 1.02 1.99 1.12.74.11 2.21-.29 2.6-.4.1.21.2.42.31.62.5.99 1 1.98 1.46 2.96.16.35.31.69.46 1.04l-.28-.4c-.64-.74-2.32-1.8-3.33-1.37-.73.31-.94 1.18-.58 1.85.37.68 1.27 1.02 1.99 1.12.7.1 2.07-.25 2.53-.38.14.36.29.72.41 1.08.08.24.17.47.23.72.07.25.14.49.2.73.11.47.23.95.33 1.41.07.32.13.63.2.93-.16-.35-.48-1.02-.52-1.07-.52-.83-2.02-2.13-3.08-1.86-.77.2-1.11 1.02-.85 1.74.25.67.97 1.12 1.63 1.35h3.48c-.02-.08-.03-.15-.05-.23.13-.05.86-.35 1.5-.71.29.32.82.66 1.29.93h1.02c.06-.38.12-.85.12-.9.01-.65-.22-1.71-.68-2.46 0-.1 0-.19-.02-.29-.12-.75-.82-1.31-1.59-1.1-1.06.28-1.73 2.15-1.79 3.13 0 .06.03.69.07 1.09-.05-.23-.1-.46-.16-.69-.11-.47-.24-.93-.37-1.44-.07-.24-.15-.48-.22-.73-.07-.24-.17-.49-.26-.74-.21-.57-.45-1.15-.71-1.72.41-.1 1.86-.47 2.45-.92.58-.45 1.2-1.18 1.19-1.95-.01-.76-.62-1.42-1.4-1.33-1.09.12-2.04 1.86-2.24 2.82-.01.06-.08.77-.11 1.15-.16-.34-.31-.68-.48-1.02-.49-.98-1.01-1.96-1.53-2.94-.16-.3-.31-.6-.47-.9.15-.03 1.88-.44 2.54-.94.58-.45 1.2-1.18 1.19-1.95-.01-.76-.62-1.42-1.4-1.33-1.09.12-2.04 1.86-2.24 2.82-.01.07-.11 1.09-.12 1.35-.34-.66-.68-1.33-.99-1.99-.42-.92-.79-1.85-1.07-2.77.07-.02 1.88-.43 2.55-.94.58-.45 1.2-1.18 1.19-1.95-.01-.76-.62-1.42-1.4-1.33-1.09.12-2.04 1.86-2.24 2.82-.02.08-.11 1.17-.12 1.37-.02-.06-.04-.11-.06-.16-.29-.99-.45-1.98-.56-2.92-.06-.55-.09-1.07-.11-1.58.35-.04 1.93-.25 2.58-.65.63-.38 1.32-1.04 1.4-1.81.08-.76-.46-1.48-1.25-1.48-1.1 0-2.23 1.62-2.53 2.56-.02.05-.13.59-.2.98 0-.23-.01-.47-.01-.69 0-.83.05-1.59.11-2.26.03-.38.07-.73.11-1.05.32-.22 1.59-1.12 1.98-1.76.38-.63.69-1.53.41-2.25-.28-.71-1.09-1.1-1.79-.74-.98.5-1.23 2.47-1.07 3.44.01.08.38 1.37.4 1.35l.02-.01c-.04.31-.09.64-.12 1.01-.07.67-.14 1.44-.16 2.27-.02.83-.02 1.74.06 2.69.08.96.22 1.96.5 2.97 0 .01.01.02.01.03-.17-.27-.68-1.01-.73-1.07-.64-.74-2.32-1.8-3.33-1.37-.73.31-.94 1.18-.58 1.85.43.68 1.32 1.02 2.05 1.12zM98.45 406.22c.02.01.35-1.28.36-1.37.14-.97-.17-2.93-1.16-3.41-.71-.34-1.51.07-1.77.78-.27.73.07 1.62.47 2.24.47.73 2.1 1.76 2.1 1.76zM601.88 405.8c.79.34 2.72.3 2.72.3.02 0-.41-1.26-.45-1.34-.42-.88-1.76-2.35-2.85-2.2-.78.11-1.22.89-1.04 1.63.17.75.95 1.31 1.62 1.61zM620.84 426.21c.31-.69.03-1.54-.72-1.8-1.04-.35-2.63.83-3.21 1.62-.03.04-.22.37-.4.68h3.96c.16-.14.28-.31.37-.5z"/><path style="fill:#263238" d="M614.94 421.09c.53.47 1.86.93 2.32 1.08-.08.38-.16.76-.25 1.12-.07.25-.12.49-.21.73-.08.24-.16.48-.23.72-.17.45-.33.92-.5 1.36-.08.21-.16.41-.24.61h.65c.05-.13.1-.26.15-.4.17-.45.32-.91.48-1.4.07-.24.14-.48.22-.73.08-.24.13-.51.2-.76.14-.59.26-1.2.36-1.82.4.14 1.81.64 2.55.59.73-.05 1.65-.32 2.07-.97.41-.64.27-1.52-.44-1.88-.98-.5-2.73.42-3.42 1.12-.04.04-.49.6-.72.9.06-.37.12-.74.17-1.12.14-1.09.24-2.2.35-3.3.03-.34.07-.67.1-1.01.14.05 1.81.68 2.64.62.73-.05 1.65-.32 2.07-.97.41-.64.27-1.52-.44-1.88-.98-.5-2.73.42-3.42 1.12-.05.05-.69.85-.84 1.06.08-.74.16-1.48.28-2.21.15-1 .36-1.97.63-2.9.07.02 1.81.68 2.65.62.73-.05 1.65-.32 2.07-.97.41-.64.27-1.52-.44-1.88-.98-.5-2.73.42-3.42 1.12-.05.05-.74.91-.85 1.08.02-.06.03-.11.04-.17.3-.99.72-1.9 1.15-2.74.25-.49.52-.94.78-1.38.31.16 1.75.85 2.51.88.73.03 1.67-.14 2.16-.74.48-.59.43-1.48-.23-1.92-.92-.61-2.76.12-3.52.73-.04.03-.43.42-.71.7.12-.19.25-.4.37-.58.46-.69.92-1.3 1.34-1.83.24-.3.46-.57.67-.82.39-.01 1.94-.05 2.62-.37.66-.31 1.42-.89 1.58-1.65.16-.74-.3-1.52-1.09-1.6-1.09-.12-2.39 1.38-2.79 2.28-.03.08-.43 1.35-.41 1.35h.02c-.21.23-.43.49-.66.77-.43.52-.91 1.12-1.38 1.81-.48.68-.98 1.44-1.43 2.28-.46.84-.89 1.76-1.22 2.75 0 .01-.01.02-.01.03.01-.32-.01-1.22-.02-1.29-.13-.97-.94-2.78-2.02-2.98-.78-.14-1.44.47-1.5 1.22-.06.77.5 1.55 1.04 2.03.62.55 2.33 1.08 2.46 1.13-.3.95-.54 1.96-.72 2.98-.11.59-.19 1.18-.27 1.78 0-.28-.01-.53-.01-.56-.13-.97-.94-2.78-2.02-2.98-.78-.14-1.44.47-1.5 1.22-.06.77.5 1.55 1.04 2.03.55.5 2 .98 2.39 1.1l-.09.69c-.13 1.1-.26 2.2-.42 3.28-.06.38-.12.75-.19 1.12 0-.25-.01-.46-.01-.49-.13-.97-.94-2.78-2.02-2.98-.78-.14-1.44.47-1.5 1.22-.08.79.48 1.56 1.03 2.05z"/><path style="fill:#263238" d="M602.54 411.38c.82.12 2.54-.38 2.68-.42.27.96.63 1.93 1.04 2.89.24.55.49 1.09.76 1.64l-.32-.46c-.64-.74-2.32-1.8-3.33-1.37-.73.31-.94 1.18-.58 1.85.37.68 1.27 1.02 1.99 1.12.74.11 2.21-.29 2.6-.4.1.21.2.42.31.62.5.99 1 1.98 1.46 2.96.16.35.31.69.46 1.04l-.28-.4c-.64-.74-2.32-1.8-3.33-1.37-.73.31-.94 1.18-.58 1.85.37.68 1.27 1.02 1.99 1.12.7.1 2.07-.25 2.53-.38.14.36.29.72.41 1.08.08.24.17.47.23.72.07.25.14.49.2.73.11.47.23.95.33 1.41.07.32.13.63.2.93-.16-.35-.48-1.02-.52-1.07-.52-.83-2.02-2.13-3.08-1.86-.77.2-1.11 1.02-.85 1.74.25.67.97 1.12 1.63 1.35h3.48c-.02-.08-.03-.15-.05-.23.13-.05.86-.35 1.5-.71.29.32.82.66 1.29.93h1.02c.06-.38.12-.85.12-.9.02-.65-.22-1.71-.68-2.46 0-.1 0-.19-.02-.29-.12-.75-.82-1.31-1.59-1.1-1.06.28-1.73 2.15-1.79 3.13 0 .06.03.69.07 1.09-.05-.23-.1-.46-.16-.69-.11-.47-.24-.93-.37-1.44-.07-.24-.15-.48-.22-.73-.07-.24-.17-.49-.26-.74-.21-.57-.45-1.15-.71-1.72.41-.1 1.86-.47 2.45-.92.58-.45 1.2-1.18 1.19-1.95-.01-.76-.62-1.42-1.4-1.33-1.09.12-2.04 1.86-2.24 2.82-.01.06-.08.77-.11 1.15-.16-.34-.31-.68-.48-1.02-.49-.98-1.01-1.96-1.53-2.94-.16-.3-.31-.6-.47-.9.15-.03 1.88-.44 2.54-.94.58-.45 1.2-1.18 1.19-1.95-.01-.76-.62-1.42-1.4-1.33-1.09.12-2.04 1.86-2.24 2.82-.01.07-.11 1.09-.12 1.35-.34-.66-.68-1.33-.99-1.99-.42-.92-.79-1.85-1.07-2.77.07-.02 1.88-.43 2.55-.94.58-.45 1.2-1.18 1.19-1.95-.01-.76-.62-1.42-1.4-1.33-1.09.12-2.04 1.86-2.24 2.82-.02.08-.11 1.17-.12 1.37-.02-.06-.04-.11-.06-.16-.29-.99-.45-1.98-.56-2.92-.06-.55-.09-1.07-.11-1.58.35-.04 1.93-.25 2.58-.65.63-.38 1.32-1.04 1.4-1.81.08-.76-.46-1.48-1.25-1.48-1.1 0-2.23 1.62-2.53 2.56-.02.05-.13.59-.2.98 0-.23-.01-.47-.01-.69 0-.83.05-1.59.11-2.26.03-.38.07-.73.11-1.05.32-.22 1.59-1.12 1.98-1.76.38-.63.69-1.53.41-2.25-.28-.71-1.09-1.1-1.79-.74-.98.5-1.23 2.47-1.07 3.44.01.08.38 1.37.4 1.35l.02-.01c-.04.31-.09.64-.12 1.01-.07.67-.14 1.44-.16 2.27-.02.83-.02 1.74.06 2.69.09.96.22 1.96.5 2.97 0 .01.01.02.01.03-.17-.27-.68-1.01-.73-1.07-.64-.74-2.32-1.8-3.33-1.37-.73.31-.94 1.18-.58 1.85.42.68 1.32 1.02 2.04 1.12zM621.38 406.22c.02.01.35-1.28.36-1.37.14-.97-.17-2.93-1.16-3.41-.71-.34-1.51.07-1.77.78-.27.73.07 1.62.47 2.24.47.73 2.1 1.76 2.1 1.76z"/><path style="fill:#7444e4" d="M69.38 161.26s44.73 4.43 67.4 32.15c0 0 23.95-32.12 66.97-31.46 12.48-15.05 19.99-34.37 20-55.44.02-48.01-38.89-86.95-86.91-86.97-48.01-.02-86.95 38.89-86.97 86.91-.01 20.81 7.3 39.92 19.5 54.89l.01-.08z"/><path style="opacity:.4;fill:#fff" d="M69.38 161.26s44.73 4.43 67.4 32.15c0 0 23.95-32.12 66.97-31.46 12.48-15.05 19.99-34.37 20-55.44.02-48.01-38.89-86.95-86.91-86.97-48.01-.02-86.95 38.89-86.97 86.91-.01 20.81 7.3 39.92 19.5 54.89l.01-.08z"/><path style="fill:#263238" d="M179.84 110.97s-26.74 6.34-41.49 27.84l-.84-31.27.06.42s15.1-27.18 42.28-35.48c0 0-27.98 6.64-42.49 29.36l-2.05-42.1-.64 60.34C120.44 98.46 94.53 92.1 94.53 92.1c22.89 7.25 36.89 28.87 40.09 34.25l-.21 31.1c-14.27-21.31-39.88-27.61-39.88-27.61 22.34 7.08 36.22 27.84 39.84 33.83l-.58 263.54h7.55l-1.83-245.39c4.87-7.38 18.81-25.78 40.33-32.36 0 0-25.57 6.06-40.49 26.44l-.84-31.03c3.67-5.89 18.07-26.79 41.33-33.9z"/><path style="fill:#263238" d="M179.84 110.97s-26.74 6.34-41.49 27.84l-.84-31.27.06.42s15.1-27.18 42.28-35.48c0 0-27.98 6.64-42.49 29.36l-2.05-42.1-.64 60.34C120.44 98.46 94.53 92.1 94.53 92.1c22.89 7.25 36.89 28.87 40.09 34.25l-.21 31.1c-14.27-21.31-39.88-27.61-39.88-27.61 22.34 7.08 36.22 27.84 39.84 33.83l-.58 263.54h7.55l-1.83-245.39c4.87-7.38 18.81-25.78 40.33-32.36 0 0-25.57 6.06-40.49 26.44l-.84-31.03c3.67-5.89 18.07-26.79 41.33-33.9z"/><path style="fill:#7444e4" d="M35.13 304.65s36.47 3.61 54.95 26.22c0 0 19.53-26.19 54.6-25.65 10.18-12.27 16.3-28.02 16.31-45.21.01-39.15-31.71-70.9-70.86-70.91-39.15-.01-70.9 31.71-70.91 70.86-.01 16.97 5.96 32.55 15.9 44.75l.01-.06z"/><path style="opacity:.4;fill:#fff" d="M35.13 304.65s36.47 3.61 54.95 26.22c0 0 19.53-26.19 54.6-25.65 10.18-12.27 16.3-28.02 16.31-45.21.01-39.15-31.71-70.9-70.86-70.91-39.15-.01-70.9 31.71-70.91 70.86-.01 16.97 5.96 32.55 15.9 44.75l.01-.06z"/><path style="fill:#263238" d="M55.63 279.04c18.22 5.77 29.53 22.7 32.48 27.59l-.27 120.49h5.24l-.78-105.69c3.97-6.01 15.34-21.02 32.89-26.38 0 0-20.85 4.94-33.02 21.56l-.68-25.3c3-4.81 14.74-21.85 33.7-27.65 0 0-21.8 5.17-33.83 22.7l-.69-25.5.05.34s12.31-22.16 34.47-28.93c0 0-22.81 5.41-34.64 23.94l-1.67-34.32-.52 49.2c-11.59-17.62-32.72-22.81-32.72-22.81 18.66 5.91 30.08 23.54 32.69 27.93l-.17 25.36c-11.65-17.39-32.53-22.53-32.53-22.53z"/><path style="fill:#263238" d="M55.63 279.04c18.22 5.77 29.53 22.7 32.48 27.59l-.27 120.49h5.24l-.78-105.69c3.97-6.01 15.34-21.02 32.89-26.38 0 0-20.85 4.94-33.02 21.56l-.68-25.3c3-4.81 14.74-21.85 33.7-27.65 0 0-21.8 5.17-33.83 22.7l-.69-25.5.05.34s12.31-22.16 34.47-28.93c0 0-22.81 5.41-34.64 23.94l-1.67-34.32-.52 49.2c-11.59-17.62-32.72-22.81-32.72-22.81 18.66 5.91 30.08 23.54 32.69 27.93l-.17 25.36c-11.65-17.39-32.53-22.53-32.53-22.53z"/><path style="fill:#7444e4" d="M560.36 304.65s36.47 3.61 54.95 26.22c0 0 19.53-26.19 54.6-25.65 10.18-12.27 16.3-28.02 16.31-45.21.01-39.15-31.71-70.9-70.86-70.91-39.15-.01-70.9 31.71-70.91 70.86-.01 16.97 5.96 32.55 15.9 44.75l.01-.06z"/><path style="opacity:.4;fill:#fff" d="M560.36 304.65s36.47 3.61 54.95 26.22c0 0 19.53-26.19 54.6-25.65 10.18-12.27 16.3-28.02 16.31-45.21.01-39.15-31.71-70.9-70.86-70.91-39.15-.01-70.9 31.71-70.91 70.86-.01 16.97 5.96 32.55 15.9 44.75l.01-.06z"/><path style="fill:#263238" d="M580.87 279.04c18.22 5.77 29.53 22.7 32.48 27.59l-.27 120.49h5.24l-.79-105.69c3.97-6.01 15.34-21.02 32.89-26.38 0 0-20.85 4.94-33.02 21.56l-.68-25.3c3-4.81 14.74-21.85 33.7-27.65 0 0-21.8 5.17-33.83 22.7l-.69-25.5.05.34s12.31-22.16 34.47-28.93c0 0-22.82 5.41-34.64 23.94l-1.67-34.32-.52 49.2c-11.59-17.62-32.72-22.81-32.72-22.81 18.66 5.91 30.08 23.54 32.69 27.93l-.17 25.36c-11.64-17.39-32.52-22.53-32.52-22.53z"/><path style="fill:#263238" d="M580.87 279.04c18.22 5.77 29.53 22.7 32.48 27.59l-.27 120.49h5.24l-.79-105.69c3.97-6.01 15.34-21.02 32.89-26.38 0 0-20.85 4.94-33.02 21.56l-.68-25.3c3-4.81 14.74-21.85 33.7-27.65 0 0-21.8 5.17-33.83 22.7l-.69-25.5.05.34s12.31-22.16 34.47-28.93c0 0-22.82 5.41-34.64 23.94l-1.67-34.32-.52 49.2c-11.59-17.62-32.72-22.81-32.72-22.81 18.66 5.91 30.08 23.54 32.69 27.93l-.17 25.36c-11.64-17.39-32.52-22.53-32.52-22.53z"/><circle transform="rotate(-11.747 554.217 91.78)" style="fill:#7444e4;stroke:#263238;stroke-miterlimit:10" cx="554.28" cy="91.79" r="32.56"/><path style="fill:none;stroke:#263238;stroke-miterlimit:10" d="M554.28 35.13v15.63M554.28 132.81v15.63M610.93 91.79H595.3M513.25 91.79h-15.63M594.34 51.72l-11.05 11.06M525.27 120.8l-11.06 11.05M514.21 51.72l11.06 11.06M583.29 120.8l11.05 11.05"/><path style="fill:#fff" d="M160.74 319.61H576.9v107.07H160.74z"/><path style="opacity:.31" d="M160.74 319.61H576.9v19.06H160.74z"/><path style="fill:none;stroke:#263238;stroke-linecap:round;stroke-linejoin:round;stroke-miterlimit:10" d="M160.74 319.61H576.9v107.07H160.74z"/><path style="fill:#fff;stroke:#263238;stroke-linecap:round;stroke-linejoin:round;stroke-miterlimit:10" d="M156.48 319.61h424.69v4.9H156.48z"/><path style="fill:#263238;stroke:#263238;stroke-linecap:round;stroke-linejoin:round;stroke-miterlimit:10" d="M582.29 319.69H151.93l35.86-122.96h358.64z"/><path style="fill:#7444e4;stroke:#fff;stroke-miterlimit:10" d="M238.39 300.26h-64.71l24.63-91.35 56.79.24z"/><path style="fill:#92e3a9;stroke:#fff;stroke-miterlimit:10" d="m212.29 209.09-22.6 91.01M226.97 209.15l-20.56 90.95M241.63 209.21 223.1 300.1M194.99 221.58l58.22.21M191.08 236.09l59.48.17M186.99 251.24l60.81.13M182.73 267.07l62.19.1M178.26 283.64l63.64.05"/><path style="fill:#7444e4;stroke:#fff;stroke-miterlimit:10" d="M313.98 300.26h-64.26l15.33-91.07 56.44.23z"/><path style="fill:#92e3a9;stroke:#fff;stroke-miterlimit:10" d="M278.96 209.37 265.6 300.1M293.55 209.43l-11.34 90.67M308.12 209.49l-9.33 90.61M263.01 221.82l57.87.21M260.58 236.29l59.11.17M258.04 251.4l60.41.13M255.39 267.18l61.77.1M252.61 283.7l63.2.05"/><path style="fill:#7444e4;stroke:#fff;stroke-miterlimit:10" d="M494.77 300.26h64.7l-24.63-91.35-56.78.24z"/><path style="fill:#92e3a9;stroke:#fff;stroke-miterlimit:10" d="m520.86 209.09 22.6 91.01M506.18 209.15l20.56 90.95M491.53 209.21l18.52 90.89M538.17 221.58l-58.23.21M542.08 236.09l-59.49.17M546.16 251.24l-60.81.13M550.43 267.07l-62.19.1M554.89 283.64l-63.63.05"/><path style="fill:#7444e4;stroke:#fff;stroke-miterlimit:10" d="M419.17 300.26h64.26l-15.33-91.07-56.44.23z"/><path style="fill:#92e3a9;stroke:#fff;stroke-miterlimit:10" d="m454.2 209.37 13.35 90.73M439.61 209.43l11.34 90.67M425.04 209.49l9.33 90.61M470.14 221.82l-57.86.21M472.57 236.29l-59.11.17M475.11 251.4l-60.41.13M477.77 267.18l-61.78.1M480.54 283.7l-63.2.05"/><path style="fill:#ccc" d="M336.77 338.66h8.05v13.93h-8.05zM336.77 355.52h8.05v12.47h-8.05zM336.77 370.91h8.05v12.47h-8.05zM336.77 386.31h8.05v15.99h-8.05zM325.03 386.31h9.69v15.99h-9.69zM325.03 370.91h9.69v12.47h-9.69zM325.03 355.52h9.69v12.47h-9.69zM325.03 338.66h9.69v13.93h-9.69zM403.54 338.66h8.05v13.93h-8.05zM403.54 355.52h8.05v12.47h-8.05zM403.54 370.91h8.05v12.47h-8.05zM403.54 386.31h8.05v15.99h-8.05zM391.8 386.31h9.69v15.99h-9.69zM391.8 370.91h9.69v12.47h-9.69zM391.8 355.52h9.69v12.47h-9.69zM391.8 338.66h9.69v13.93h-9.69z"/><path style="fill:#7444e4;stroke:#263238;stroke-linecap:round;stroke-linejoin:round;stroke-miterlimit:10" d="M347.61 337.98h41.75v79.98h-41.75z"/><path style="fill:none;stroke:#263238;stroke-width:.5;stroke-linecap:round;stroke-linejoin:round;stroke-miterlimit:10" d="M353.67 342.7h30.3v39.06h-30.3zM353.67 396.57h30.3v16.16h-30.3zM353.67 386.47h30.3v6.06h-30.3z"/><path style="fill:#263238" d="M348.67 376.93h3.79v12.8h-3.79z"/><circle style="fill:none;stroke:#263238;stroke-linecap:round;stroke-linejoin:round;stroke-miterlimit:10" cx="369.16" cy="325.84" r="7.02"/><path style="fill:#fff;stroke:#263238;stroke-width:2;stroke-linecap:round;stroke-linejoin:round;stroke-miterlimit:10" d="M371.9 338.67h-5.5l-1.07-6.78h7.64z"/><path style="fill:#fff;stroke:#263238;stroke-linecap:round;stroke-linejoin:round;stroke-miterlimit:10" d="M371.36 326.51h-4.43l-2.3 5.37h9.03z"/><path style="fill:#263238;stroke:#263238;stroke-linecap:round;stroke-linejoin:round;stroke-miterlimit:10" d="M368.05 323.84h2.2v2.61h-2.2z"/><path style="fill:#fff;stroke:#263238;stroke-linecap:round;stroke-linejoin:round;stroke-miterlimit:10" d="m330.93 327.81 10.75-3.38a85.68 85.68 0 0 1 49.87-.47l13.11 3.85h21.39v-25.77l-59.5-70.45-58.38 70.45v25.77h22.76z"/><path style="fill:#263238;stroke:#263238;stroke-linecap:round;stroke-linejoin:round;stroke-miterlimit:10" d="M308.17 417.26h117.88v9.43H308.17z"/><path style="fill:none;stroke:#b0b0b0;stroke-linecap:round;stroke-linejoin:round;stroke-miterlimit:10" d="M332.05 418.22v7.38M338.15 418.22v7.38M344.24 418.22v7.38M350.34 418.22v7.38M356.44 418.22v7.38M362.54 418.22v7.38M368.63 418.22v7.38M374.73 418.22v7.38M380.83 418.22v7.38M386.93 418.22v7.38M393.03 418.22v7.38M399.12 418.22v7.38M405.22 418.22v7.38"/><path style="fill:#fff;stroke:#263238;stroke-linecap:round;stroke-linejoin:round;stroke-miterlimit:10" d="m367.11 222.5-72.06 91.71h34.76v-9h-17.64l54.94-67.75 54.94 67.75h-17.54v9h34.66zM295.05 314.21h34.71v8.29h-34.71zM300.78 336.05h10.31v84.68h-10.31z"/><path style="fill:#fff;stroke:#263238;stroke-linecap:round;stroke-linejoin:round;stroke-miterlimit:10" d="M300.19 332.96h11.49v3.2h-11.49z"/><path style="fill:#fff;stroke:#263238;stroke-linecap:round;stroke-linejoin:round;stroke-miterlimit:10" d="M299.4 322.61h13.07v10.53H299.4z"/><path transform="rotate(-180 305.936 414.669)" style="fill:#fff;stroke:#263238;stroke-linecap:round;stroke-linejoin:round;stroke-miterlimit:10" d="M300.19 413.07h11.49v3.2h-11.49z"/><path transform="rotate(-180 305.936 421.354)" style="fill:#fff;stroke:#263238;stroke-linecap:round;stroke-linejoin:round;stroke-miterlimit:10" d="M299.4 416.09h13.07v10.53H299.4z"/><path style="fill:#fff;stroke:#263238;stroke-linecap:round;stroke-linejoin:round;stroke-miterlimit:10" d="M316.14 336.05h10.31v84.68h-10.31z"/><path style="fill:#fff;stroke:#263238;stroke-linecap:round;stroke-linejoin:round;stroke-miterlimit:10" d="M315.56 332.96h11.49v3.2h-11.49z"/><path style="fill:#fff;stroke:#263238;stroke-linecap:round;stroke-linejoin:round;stroke-miterlimit:10" d="M314.77 322.61h13.07v10.53h-13.07z"/><path transform="rotate(-180 321.3 414.669)" style="fill:#fff;stroke:#263238;stroke-linecap:round;stroke-linejoin:round;stroke-miterlimit:10" d="M315.56 413.07h11.49v3.2h-11.49z"/><path transform="rotate(-180 321.301 421.354)" style="fill:#fff;stroke:#263238;stroke-linecap:round;stroke-linejoin:round;stroke-miterlimit:10" d="M314.77 416.09h13.07v10.53h-13.07z"/><path style="fill:#fff;stroke:#263238;stroke-linecap:round;stroke-linejoin:round;stroke-miterlimit:10" d="M404.45 314.21h34.71v8.29h-34.71zM410.18 336.05h10.31v84.68h-10.31z"/><path style="fill:#fff;stroke:#263238;stroke-linecap:round;stroke-linejoin:round;stroke-miterlimit:10" d="M409.59 332.96h11.49v3.2h-11.49z"/><path style="fill:#fff;stroke:#263238;stroke-linecap:round;stroke-linejoin:round;stroke-miterlimit:10" d="M408.8 322.61h13.07v10.53H408.8z"/><path transform="rotate(-180 415.336 414.669)" style="fill:#fff;stroke:#263238;stroke-linecap:round;stroke-linejoin:round;stroke-miterlimit:10" d="M409.59 413.07h11.49v3.2h-11.49z"/><path transform="rotate(-180 415.336 421.354)" style="fill:#fff;stroke:#263238;stroke-linecap:round;stroke-linejoin:round;stroke-miterlimit:10" d="M408.8 416.09h13.07v10.53H408.8z"/><path style="fill:#fff;stroke:#263238;stroke-linecap:round;stroke-linejoin:round;stroke-miterlimit:10" d="M425.54 336.05h10.31v84.68h-10.31z"/><path style="fill:#fff;stroke:#263238;stroke-linecap:round;stroke-linejoin:round;stroke-miterlimit:10" d="M424.96 332.96h11.49v3.2h-11.49z"/><path style="fill:#fff;stroke:#263238;stroke-linecap:round;stroke-linejoin:round;stroke-miterlimit:10" d="M424.16 322.61h13.07v10.53h-13.07z"/><path transform="rotate(-180 430.7 414.669)" style="fill:#fff;stroke:#263238;stroke-linecap:round;stroke-linejoin:round;stroke-miterlimit:10" d="M424.96 413.07h11.49v3.2h-11.49z"/><path transform="rotate(-180 430.7 421.354)" style="fill:#fff;stroke:#263238;stroke-linecap:round;stroke-linejoin:round;stroke-miterlimit:10" d="M424.16 416.09h13.07v10.53h-13.07z"/><path style="fill:#ccc" d="M195.35 370.91h9.9v12.47h-9.9zM185.25 338.66h8.05v13.93h-8.05zM185.25 355.52h8.05v12.47h-8.05zM195.35 355.52h9.9v12.47h-9.9zM185.25 370.91h8.05v12.47h-8.05zM195.35 338.66h9.9v13.93h-9.9zM185.25 386.31h8.05v15.99h-8.05zM195.35 386.31h9.9v15.99h-9.9zM173.5 386.31h9.69v15.99h-9.69zM173.5 370.91h9.69v12.47h-9.69zM173.5 355.52h9.69v12.47h-9.69zM173.5 338.66h9.69v13.93h-9.69zM233.38 370.91h9.9v12.47h-9.9zM223.28 338.66h8.05v13.93h-8.05zM223.28 355.52h8.05v12.47h-8.05zM233.38 355.52h9.9v12.47h-9.9zM223.28 370.91h8.05v12.47h-8.05zM233.38 338.66h9.9v13.93h-9.9zM223.28 386.31h8.05v15.99h-8.05zM233.38 386.31h9.9v15.99h-9.9zM211.54 386.31h9.69v15.99h-9.69zM211.54 370.91h9.69v12.47h-9.69zM211.54 355.52h9.69v12.47h-9.69zM211.54 338.66h9.69v13.93h-9.69zM271.42 370.91h9.9v12.47h-9.9zM261.31 338.66h8.05v13.93h-8.05zM261.31 355.52h8.05v12.47h-8.05zM271.42 355.52h9.9v12.47h-9.9zM261.31 370.91h8.05v12.47h-8.05zM271.42 338.66h9.9v13.93h-9.9zM261.31 386.31h8.05v15.99h-8.05zM271.42 386.31h9.9v15.99h-9.9zM249.57 386.31h9.69v15.99h-9.69zM249.57 370.91h9.69v12.47h-9.69zM249.57 355.52h9.69v12.47h-9.69zM249.57 338.66h9.69v13.93h-9.69z"/><path style="fill:none;stroke:#263238;stroke-linecap:round;stroke-linejoin:round;stroke-miterlimit:10" d="M168.49 331.92h117.17v75.42H168.49z"/><path style="fill:#ccc" d="M478.51 370.91h9.9v12.47h-9.9zM468.41 338.66h8.05v13.93h-8.05zM468.41 355.52h8.05v12.47h-8.05zM478.51 355.52h9.9v12.47h-9.9zM468.41 370.91h8.05v12.47h-8.05zM478.51 338.66h9.9v13.93h-9.9zM468.41 386.31h8.05v15.99h-8.05zM478.51 386.31h9.9v15.99h-9.9zM456.67 386.31h9.69v15.99h-9.69zM456.67 370.91h9.69v12.47h-9.69zM456.67 355.52h9.69v12.47h-9.69zM456.67 338.66h9.69v13.93h-9.69zM516.54 370.91h9.9v12.47h-9.9zM506.44 338.66h8.05v13.93h-8.05zM506.44 355.52h8.05v12.47h-8.05zM516.54 355.52h9.9v12.47h-9.9zM506.44 370.91h8.05v12.47h-8.05zM516.54 338.66h9.9v13.93h-9.9zM506.44 386.31h8.05v15.99h-8.05zM516.54 386.31h9.9v15.99h-9.9zM494.7 386.31h9.69v15.99h-9.69zM494.7 370.91h9.69v12.47h-9.69zM494.7 355.52h9.69v12.47h-9.69zM494.7 338.66h9.69v13.93h-9.69zM554.58 370.91h9.9v12.47h-9.9zM544.48 338.66h8.05v13.93h-8.05zM544.48 355.52h8.05v12.47h-8.05zM554.58 355.52h9.9v12.47h-9.9zM544.48 370.91h8.05v12.47h-8.05zM554.58 338.66h9.9v13.93h-9.9zM544.48 386.31h8.05v15.99h-8.05zM554.58 386.31h9.9v15.99h-9.9zM532.74 386.31h9.69v15.99h-9.69zM532.74 370.91h9.69v12.47h-9.69zM532.74 355.52h9.69v12.47h-9.69zM532.74 338.66h9.69v13.93h-9.69z"/><path style="fill:none;stroke:#263238;stroke-linecap:round;stroke-linejoin:round;stroke-miterlimit:10" d="M451.65 331.92h117.17v75.42H451.65zM704.99 427.22h7.77M41.04 427.22h653.25M25.49 427.22h6.8"/><path style="fill:#263238;stroke:#263238;stroke-miterlimit:10" d="M628.97 346.32s-1.67 38.61-1.46 60.52c.21 21.91 2.92 58.51 2.92 58.51l-1.88 3.55.21 5.22 12.1 3.55.83-4.38s2.09-1.67 2.09-2.71-.21-6.68-.21-8.35 6.89-79.31 6.89-79.31l2.92-.21 13.36 85.36-2.71 1.67 3.76 7.3 6.26-2.09 6.68.42s1.88-4.59 1.88-5.43-2.3-1.88-2.3-3.34-2.3-89.19-2.3-89.19l-3.97-31.1h-45.07z"/><path style="fill:#fff;stroke:#263238;stroke-miterlimit:10" d="m628.76 474.11-6.89 5.43s-8.77 3.34-8.56 4.8c.21 1.46 1.88 1.67 3.13 1.67h24.84l-.42-8.35-12.1-3.55zM667.79 477.03s2.71 8.77 3.55 9.81c.83 1.04 8.56 4.38 10.64 3.76 2.09-.63 4.38-3.55 3.55-6.47-.83-2.92-4.8-8.77-4.8-8.77l-6.68-.42-6.26 2.09zM651.1 270.77l-10.43 1.46s-4.59 11.69-6.26 31.1c-1.67 19.41-.21 43.62-.21 43.62h35.48s9.18-51.76 6.26-60.31c-2.92-8.56-7.72-13.57-7.72-13.57l-17.12-2.3z"/><path style="fill:#7444e4;stroke:#263238;stroke-miterlimit:10" d="M642.33 278.7s-4.8 15.86-4.8 29.64c0 13.77 2.09 63.86 2.09 63.86l-19.2-3.97 4.59-32.77-2.09-35.06-16.07 16.9-12-6.81s26.61-36.18 27.44-36.39c.83-.21 23.72-4.61 23.72-4.61l-3.68 9.21z"/><path style="fill:none;stroke:#263238;stroke-miterlimit:10" d="m621.76 288.46 1.16 11.94-4.17-12.94M621.25 283.29l.25 2.57"/><path style="fill:#7444e4;stroke:#263238;stroke-miterlimit:10" d="m666.53 270.06 24.45 6.16c.83.21 26.47 47.13 26.47 47.13l-11.48 5.01-21.27-26.22-4.4 37.9 5.63 29.01-24.84 1.88-2.09-29.64 4.38-64.07 3.15-7.16z"/><path style="fill:none;stroke:#263238;stroke-miterlimit:10" d="m681.48 292.47 3.23 9.68-5.11-6.19"/><path style="fill:#263238;stroke:#263238;stroke-miterlimit:10" d="M644.73 232.69s-3.88-2.77-3.51-4.06c.37-1.29 8.87-6.28 10.16-6.84 1.29-.55 16.81 2.77 19.4 4.43 2.59 1.66 5.36 11.45 5.73 16.07.37 4.62-11.08 13.67-11.08 13.67l-7.39.18.92-5.54-7.57-1.48 1.29-6.28-6.84-7.57 1.85-4.25-2.96 1.67z"/><path style="fill:#fff;stroke:#263238;stroke-miterlimit:10" d="m647.18 265.82-6.27 8.16s-3.21 8.46-2.48 8.02c.73-.44 4.67-4.23 4.67-4.23l9.39 5.71 10.87-5.42 5.39 5.83s1.17-16.48.29-17.79c-.87-1.31-5.54-2.33-6.71-2.48-1.16-.13-15.15 2.2-15.15 2.2z"/><path style="fill:#fff;stroke:#263238;stroke-miterlimit:10" d="M646.94 228.62s-8.13 8.68-7.2 10.53c.92 1.85 1.11 3.14 1.11 3.14s-6.47 5.73-5.54 6.84c.92 1.11 3.51 2.59 3.51 2.59s-1.11 7.76 0 9.61c1.11 1.85 7.21.74 7.21.74s4.25 22.91 6.47 21.43c2.22-1.48 12.75-15.15 12.56-16.81-.18-1.66.37-10.16.37-10.71 0-.55-3.69-.18-3.69-.18s4.8-7.02 2.96-9.05c-1.85-2.03-5.54-1.48-6.84-.55-1.29.92-2.03 2.03-2.03 2.03l-2.03-.55s1.48-3.33 1.66-4.25c.18-.92-4.25-5.36-4.06-6.1.04-.15.29-.48.66-.91 1.47-1.71 4.88-5 4.88-5l-10-2.8z"/><path style="fill:#263238" d="M644.48 243.87c-.08.9-.46 1.61-.84 1.57-.38-.04-.62-.8-.53-1.7s.46-1.61.84-1.57c.38.04.62.8.53 1.7z"/><path style="fill:none;stroke:#263238;stroke-miterlimit:10" d="M642.36 239.46s2.34-1.7 3.93.53M640.02 253.37s4.46.32 6.69-2.34"/><path style="fill:#263238;stroke:#263238;stroke-miterlimit:10" d="m646.02 262.06 6.75-.94-5.63 6.47z"/><path style="fill:#fff;stroke:#263238;stroke-miterlimit:10" d="m607.57 340.75 4.83-4.61-5.18-3.57z"/><path style="fill:#fff;stroke:#263238;stroke-miterlimit:10" d="m609.87 323.59 3.81 4.4-2.89 10.11-4.9-3.99z"/><path style="fill:#7444e4;stroke:#263238;stroke-miterlimit:10" d="M599.43 304.04s-6.04 7.41-7.02 9.78c-.97 2.36 15.16 26.94 15.16 26.94l3.92-15.55-2.88-8.64 1.32-4.99-6.5-2.49"/><path style="fill:#fff;stroke:#263238;stroke-miterlimit:10" d="m613.21 327.73 8.11-1.13s5.84 5.28 6.12 5.98c.28.69.14 1.25-.14 2.22-.28.97-1.11 1.67-1.11 1.67s-2.22 5.42-2.64 6.12c-.42.7-2.92.42-3.89.28-.97-.14-8.86-4.77-8.86-4.77l2.41-10.37zM692.88 328.55l-2.09 2.64 3.35 8.67 4.44-2.55z"/><path style="fill:#7444e4;stroke:#263238;stroke-miterlimit:10" d="m704.6 315.76-13.11 12.65 8.9 11.26s17.83-14.6 16.86-16.96c-.97-2.36-5.14-8.2-5.14-8.2"/><path style="fill:#fff;stroke:#263238;stroke-miterlimit:10" d="m690.79 331.19-7.65-1.39s-5.84 5.28-6.12 5.98c-.28.7-.14 1.25.14 2.22.28.97 1.11 1.67 1.11 1.67s2.22 5.42 2.64 6.12c.42.7 2.92.42 3.89.28.97-.14 8.53-8.12 8.53-8.12l-2.54-6.76z"/></svg>