<svg xmlns="http://www.w3.org/2000/svg" viewBox="0 0 750 500" style="enable-background:new 0 0 750 500" xml:space="preserve"><path style="fill:#baa4ff" d="M721.88 326.75c19.7-112.4-67.9-221.83-176.15-257.92-1.38-.46-2.78-.91-4.18-1.36-112.25-35.49-154.98 33.31-208.58 70.97-53.59 37.66-135.5-7.05-220.89 19.55C12.14 189.14-14.76 352.88 82.39 415.1c64.46 41.28 127.46 41.28 247.68 20.28s191.2 42 317.21-6.52c49.09-18.89 68.27-65.98 74.6-102.11z"/><path style="opacity:.8;fill:#fff" d="M721.88 326.75c19.7-112.4-67.9-221.83-176.15-257.92-1.38-.46-2.78-.91-4.18-1.36-112.25-35.49-154.98 33.31-208.58 70.97-53.59 37.66-135.5-7.05-220.89 19.55C12.14 189.14-14.76 352.88 82.39 415.1c64.46 41.28 127.46 41.28 247.68 20.28s191.2 42 317.21-6.52c49.09-18.89 68.27-65.98 74.6-102.11z"/><path style="fill:none;stroke:#263238;stroke-miterlimit:10" d="M112.13 142.64c.29-.91-.36-2.68-.6-3.21-1.24-2.76-4.3-4-7.2-3.76-1.05.09-2.14.34-3.15.03-1.26-.39-2.11-1.56-2.73-2.73-1.18-2.23-2.53-4.19-4.29-6.03-2.61-2.72-6.14-4.73-10.02-4.59-10.44.36-9.36 9-12.24 11.52-1.6 1.4-2.76-.59-4.12-1.28-1.8-.91-3.8-.75-5.37.57-1.49 1.26-2.37 3.07-3.55 4.63-1.17 1.56-2.93 2.96-4.86 2.75-1.62-.18-2.91-1.43-4.46-1.95-1.77-.6-3.77-.16-5.39.79-1.41.83-2.57 2.01-3.62 3.27h71.6zM709.62 142.64c.29-.91-.36-2.68-.6-3.21-1.24-2.76-4.3-4-7.2-3.76-1.05.09-2.14.34-3.15.03-1.26-.39-2.11-1.56-2.73-2.73-1.18-2.23-2.53-4.19-4.29-6.03-2.61-2.72-6.14-4.73-10.02-4.59-10.44.36-9.36 9-12.24 11.52-1.6 1.4-2.76-.59-4.12-1.28-1.8-.91-3.8-.75-5.37.57-1.49 1.26-2.37 3.07-3.55 4.63-1.17 1.56-2.93 2.96-4.86 2.75-1.62-.18-2.91-1.43-4.46-1.95-1.77-.6-3.77-.16-5.39.79-1.41.83-2.57 2.01-3.62 3.27h71.6zM224.79 76.43c.45-1.4-.56-4.11-.93-4.93-1.9-4.23-6.6-6.14-11.05-5.78-1.62.13-3.28.52-4.83.04-1.94-.59-3.24-2.39-4.19-4.18-1.81-3.43-3.89-6.44-6.59-9.25-4.01-4.18-9.42-7.26-15.38-7.05-16.02.55-14.37 13.81-18.78 17.68-2.46 2.15-4.23-.91-6.32-1.96-2.77-1.39-5.84-1.15-8.25.87-2.29 1.93-3.64 4.72-5.44 7.11-1.8 2.39-4.49 4.55-7.47 4.23-2.49-.27-4.47-2.2-6.85-3-2.72-.91-5.79-.24-8.27 1.21-2.16 1.27-3.94 3.09-5.56 5.01h109.91zM628.18 76.43c.45-1.4-.56-4.11-.93-4.93-1.9-4.23-6.6-6.14-11.05-5.78-1.62.13-3.28.52-4.83.04-1.94-.59-3.24-2.39-4.19-4.18-1.81-3.43-3.89-6.44-6.59-9.25-4.01-4.18-9.42-7.26-15.38-7.05-16.02.55-14.37 13.81-18.78 17.68-2.46 2.15-4.23-.91-6.32-1.96-2.77-1.39-5.84-1.15-8.25.87-2.29 1.93-3.64 4.72-5.44 7.11-1.8 2.39-4.49 4.55-7.47 4.23-2.49-.27-4.47-2.2-6.85-3-2.72-.91-5.79-.24-8.27 1.21-2.16 1.27-3.94 3.09-5.56 5.01h109.91zM446.15 102.68c.29-.91-.36-2.68-.6-3.21-1.24-2.76-4.3-4-7.2-3.76-1.05.09-2.14.34-3.15.03-1.26-.39-2.11-1.56-2.73-2.73-1.18-2.23-2.53-4.19-4.29-6.03-2.61-2.72-6.14-4.73-10.02-4.59-10.44.36-9.36 9-12.24 11.52-1.6 1.4-2.76-.59-4.12-1.28-1.8-.91-3.8-.75-5.37.57-1.49 1.26-2.37 3.07-3.55 4.63-1.17 1.56-2.93 2.96-4.86 2.75-1.62-.18-2.91-1.43-4.46-1.95-1.77-.6-3.77-.16-5.39.79-1.41.83-2.57 2.01-3.62 3.27h71.6z"/><path style="fill:#7444e4" d="M197.47 217.02c0 36.74-31.44 66.53-70.21 66.53s-70.21-29.79-70.21-66.53 31.44-89.93 70.21-89.93 70.21 53.18 70.21 89.93z"/><path style="opacity:.28;fill:#fff" d="M197.47 217.02c0 36.74-31.44 66.53-70.21 66.53s-70.21-29.79-70.21-66.53 31.44-89.93 70.21-89.93 70.21 53.18 70.21 89.93z"/><path style="fill:#787878" d="m121.29 295.15 1.11-22.05-21.26-32.05 21.24 23.65v-24.62l-11.59-37.65 12.55 29.93 1.32-41.13 2.06 45.47.49 8.69L161 214.02l-32.35 38.13-.48 12.55 14-11.58 14-21.24-9.88 19.92 21.95-1.1-23.66 3.61-15.44 14.97.96 25.83z"/><path style="fill:#7444e4" d="M316.61 250.87c0 20.82-17.82 37.71-39.79 37.71-21.98 0-39.79-16.88-39.79-37.71s17.82-50.97 39.79-50.97 39.79 30.14 39.79 50.97z"/><path style="opacity:.28;fill:#fff" d="M316.61 250.87c0 20.82-17.82 37.71-39.79 37.71-21.98 0-39.79-16.88-39.79-37.71s17.82-50.97 39.79-50.97 39.79 30.14 39.79 50.97z"/><path style="fill:#787878" d="m273.43 295.15.63-12.5-12.05-18.16 12.04 13.4v-13.95l-6.56-21.34 7.11 16.96-.82-19.42 2.73 21.88.28 4.93 19.15-17.78-18.33 21.61-.28 7.11 7.94-6.56 7.93-12.04-5.59 11.29 12.43-.62-13.4 2.04-8.76 8.48.55 14.65z"/><path style="fill:#7444e4" d="M282.85 164.14c0 36.74-31.44 66.53-70.21 66.53s-70.21-29.79-70.21-66.53 31.44-89.93 70.21-89.93 70.21 53.19 70.21 89.93z"/><path style="opacity:.5;fill:#fff" d="M282.85 164.14c0 36.74-31.44 66.53-70.21 66.53s-70.21-29.79-70.21-66.53 31.44-89.93 70.21-89.93 70.21 53.19 70.21 89.93z"/><path style="fill:#787878" d="m206.67 294.71 1.11-74.49-21.26-32.05 21.24 23.65v-24.61l-11.58-37.66 12.55 29.93 2.18-48.93 1.2 53.28.48 8.69 33.79-31.38-32.34 38.13-.48 12.55 13.99-11.58 14-21.24-9.87 19.92 21.94-1.09-23.65 3.6-15.45 14.97.97 78.28z"/><path style="fill:#7444e4" d="M397.98 192.63c0 28.73-24.58 52.01-54.89 52.01-30.32 0-54.89-23.29-54.89-52.01s24.58-70.31 54.89-70.31c30.31-.01 54.89 41.58 54.89 70.31z"/><path style="opacity:.5;fill:#fff" d="M397.98 192.63c0 28.73-24.58 52.01-54.89 52.01-30.32 0-54.89-23.29-54.89-52.01s24.58-70.31 54.89-70.31c30.31-.01 54.89 41.58 54.89 70.31z"/><path style="fill:#787878" d="m348.54 294.71-.87-58.23 16.62-25.06-16.61 18.49v-19.25l9.06-29.44-9.81 23.4-.8-46.33-1.84 49.73-.38 6.79-26.42-24.53 25.29 29.82.37 9.81-10.94-9.06-10.95-16.6 7.72 15.57-17.15-.86 18.49 2.83 12.08 11.69-.76 61.21z"/><path style="fill:#7444e4" d="M506.07 217.02c0 36.74-31.44 66.53-70.21 66.53-38.78 0-70.21-29.79-70.21-66.53s31.44-89.93 70.21-89.93c38.77-.01 70.21 53.18 70.21 89.93z"/><path style="opacity:.28;fill:#fff" d="M506.07 217.02c0 36.74-31.44 66.53-70.21 66.53-38.78 0-70.21-29.79-70.21-66.53s31.44-89.93 70.21-89.93c38.77-.01 70.21 53.18 70.21 89.93z"/><path style="fill:#787878" d="m429.88 295.15 1.11-22.05-21.26-32.05 21.24 23.65v-24.62l-11.58-37.65 12.55 29.93 1.31-41.13 2.07 45.47.48 8.69 33.79-31.37-32.34 38.13-.48 12.55 13.99-11.58 14-21.24-9.87 19.92 21.94-1.1-23.65 3.61-15.45 14.97.97 25.83z"/><path style="fill:#7444e4" d="M625.2 250.87c0 20.82-17.82 37.71-39.79 37.71-21.98 0-39.79-16.88-39.79-37.71s17.82-50.97 39.79-50.97c21.98 0 39.79 30.14 39.79 50.97z"/><path style="opacity:.28;fill:#fff" d="M625.2 250.87c0 20.82-17.82 37.71-39.79 37.71-21.98 0-39.79-16.88-39.79-37.71s17.82-50.97 39.79-50.97c21.98 0 39.79 30.14 39.79 50.97z"/><path style="fill:#787878" d="m582.03 295.15.63-12.5-12.05-18.16 12.04 13.4v-13.95l-6.57-21.34 7.11 16.96-.82-19.42 2.74 21.88.27 4.93 19.15-17.78-18.33 21.61-.27 7.11 7.93-6.56 7.94-12.04-5.6 11.29 12.44-.62-13.41 2.04-8.75 8.48.54 14.65z"/><path style="fill:#7444e4" d="M591.45 164.14c0 36.74-31.44 66.53-70.21 66.53s-70.21-29.79-70.21-66.53 31.44-89.93 70.21-89.93 70.21 53.19 70.21 89.93z"/><path style="opacity:.5;fill:#fff" d="M591.45 164.14c0 36.74-31.44 66.53-70.21 66.53s-70.21-29.79-70.21-66.53 31.44-89.93 70.21-89.93 70.21 53.19 70.21 89.93z"/><path style="fill:#787878" d="m515.26 294.71 1.11-74.49-21.25-32.05 21.24 23.65v-24.61l-11.59-37.66 12.55 29.93 2.18-48.93 1.2 53.28.48 8.69 33.79-31.38-32.34 38.13-.48 12.55 14-11.58 14-21.24-9.88 19.92 21.94-1.09-23.65 3.6-15.45 14.97.97 78.28z"/><path style="fill:#7444e4" d="M706.57 192.63c0 28.73-24.58 52.01-54.89 52.01-30.32 0-54.89-23.29-54.89-52.01s24.58-70.31 54.89-70.31c30.32-.01 54.89 41.58 54.89 70.31z"/><path style="opacity:.5;fill:#fff" d="M706.57 192.63c0 28.73-24.58 52.01-54.89 52.01-30.32 0-54.89-23.29-54.89-52.01s24.58-70.31 54.89-70.31c30.32-.01 54.89 41.58 54.89 70.31z"/><path style="fill:#787878" d="m657.13 294.71-.87-58.23 16.62-25.06-16.6 18.49v-19.25l9.05-29.44-9.81 23.4-.79-46.33-1.85 49.73-.38 6.79-26.42-24.53 25.29 29.82.38 9.81-10.95-9.06-10.94-16.6 7.72 15.57-17.16-.86 18.5 2.83 12.07 11.69-.75 61.21z"/><path style="fill:#a1a1a1" d="M723.48 294.7s-3.74-1.19-5.14-1.98c-1.4-.79-4.21 0-7.48 0-3.27 0-9.82-12.67-24.31-10.3-14.5 2.38-16.83 9.5-18.7 6.34-1.87-3.17-6.08-6.73-17.82-7.18s-10.23 7.97-16.78 9.16c-6.55 1.19-4.21-1.58-10.75-5.54-6.55-3.96-16.83 1.98-21.98-.4-5.14-2.38-7.01-10.3-20.57-9.9-13.56.4-18.7 13.86-18.7 13.86s-7.01-.79-10.29-3.17c-3.27-2.38-11.22 2.38-15.9 4.75-4.68 2.38-7.48 0-15.9-2.38s-4.21 1.58-10.75 1.98c-6.55.4-4.68-3.17-14.96-7.52-10.29-4.36-15.43 1.58-21.98 5.15-6.55 3.56-9.82-6.73-20.57-8.71-10.75-1.98-11.69 9.11-23.38 10.3s-13.56-13.46-24.78-12.28c-11.22 1.19-10.29 8.71-14.03 11.48-3.74 2.77-10.75-1.98-16.37-1.19-.32.05-.64.12-.96.21-3.93-3.13-9.44-6.24-17.27-4.96-14.5 2.38-16.83 9.5-18.7 6.34-1.87-3.17-6.08-6.73-17.82-7.18-11.75-.45-10.23 7.97-16.78 9.16-6.55 1.19-4.21-1.58-10.75-5.54-6.55-3.96-16.83 1.98-21.98-.4-5.14-2.38-7.01-10.3-20.57-9.9-13.56.4-18.7 13.86-18.7 13.86s-5.6-2.33-10.29-3.17c-3.98-.71-11.22 2.38-15.9 4.75-4.68 2.38-3.32-1.53-11.74-3.91s-8.37 3.12-14.91 3.51c-6.55.4-4.68-3.17-14.96-7.52-10.29-4.36-15.43 1.58-21.98 5.15-6.55 3.56-9.82-6.73-20.57-8.71-10.75-1.98-11.69 9.11-23.38 10.3S81.52 275.7 70.3 276.88c-11.22 1.19-10.29 8.71-14.03 11.48-3.74 2.77-10.75-1.98-16.37-1.19-5.61.79-10.75 8.32-10.75 8.32l332.99-.73c-.34.45-.53.73-.53.73l361.87-.79z"/><path style="fill:none;stroke:#263238;stroke-linecap:round;stroke-linejoin:round;stroke-miterlimit:10" d="M85.98 303.85h91.92M156.01 308.95h28.45M136.32 317.71H49.5M85.98 310.41h23.34M124.64 326.46h30.64M103.49 326.46H79.41M74.31 301.66H61.18M206.35 303.12h24.8M228.23 311.87h-26.26M288.78 303.85h91.92M358.81 308.95h28.45M339.12 317.71h-86.81M288.78 310.41h23.35M327.45 326.46h30.63M306.29 326.46h-24.07M277.11 301.66h-13.13M409.15 303.12h24.8M431.03 311.87h-26.26M491.58 303.85h91.92M561.62 308.95h28.45M541.92 317.71h-86.81M491.58 310.41h23.35M530.25 326.46h30.64M509.09 326.46h-24.07M479.91 301.66h-13.13M611.95 303.12h24.8M633.84 311.87h-26.27M668.85 317.71h-77.32M694.39 310.41h23.34M642.59 326.46h30.64M711.89 326.46h-24.07M682.71 301.66h-13.13M85.98 387.07h91.92M156.01 397.44h28.45M136.32 415.2H49.5M85.98 400.4h23.34M124.64 432.97h30.64M103.49 432.97H79.41M74.31 382.63H61.18M206.35 385.59h24.8M228.23 403.36h-26.26M288.78 387.07h91.92M358.81 397.44h28.45M339.12 415.2h-86.81M288.78 400.4h23.35M327.45 432.97h30.63M306.29 432.97h-24.07M277.11 382.63h-13.13M409.15 385.59h24.8M431.03 403.36h-26.26M491.58 387.07h91.92M561.62 397.44h28.45M541.92 415.2h-86.81M491.58 400.4h23.35M530.25 432.97h30.64M509.09 432.97h-24.07M479.91 382.63h-13.13M611.95 385.59h24.8M633.84 403.36h-26.27M668.85 415.2h-77.32M694.39 400.4h23.34M642.59 432.97h30.64M711.89 432.97h-24.07M682.71 382.63h-13.13M15.95 295.23h716.37"/><path style="fill:#fff;stroke:#263238;stroke-linecap:round;stroke-linejoin:round;stroke-miterlimit:10" d="M283.42 266.13c.19-.09.39-.14.6-.16 1.59-.15 8.87-.71 13.81 1.03 4.93 1.74 9.1 3.05 10 3.32.12.04.24.06.37.07l14.49 1.3c.26.02.52-.01.77-.1 1.52-.55 7.35-2.6 10.8-3.18 3.99-.67 21.99 3.1 26.57 3.37 4.58.27 4.19.09 7.25.4l2.78.28c.18.02.36.01.54-.03 1.37-.28 7.57-1.55 9.59-2.28 1.33-.48 2.93-.31 4.03-.09.78.16 1.35.8 1.43 1.59.18 1.7.51 4.61.8 5.4.41 1.13-.34 1.53-2.79 2.92-.2.12-.41.23-.61.33-.86.44-1.13 1.42-.86 2.34 0 .01.01.02.01.03.21.95-.34 1.53-1.1 1.74-.76.21-4.19-.09-6.29-.04-2.1.05-5.62-4.06-6.61-5.56-.99-1.5-13.27 1.51-13.27 1.51l-9.89 2.28s-9.85 2.52-15.97 1.52c-5.39-.88-8.85-1.51-9.6-1.65-.11-.02-.21-.03-.32-.03l-21.19-.06c-.12 0-.24-.01-.35-.04l-16.97-3.41a1.82 1.82 0 0 1-1.13-.74c-1.4-1.93-5.06-8.32 3.11-12.06z"/><path style="fill:none;stroke:#263238;stroke-linecap:round;stroke-linejoin:round;stroke-miterlimit:10" d="M382.34 271.79s2.32 5.43 2.22 6.82l-.1 1.39M385.03 270.09l1.92 5.98M382.82 280.52l-2.52.81"/><path style="fill:#737373;stroke:#263238;stroke-linecap:round;stroke-linejoin:round;stroke-miterlimit:10" d="M370.26 289.15c-.62 0-1.22-.29-1.6-.84-.6-.88-.38-2.09.5-2.69l8.95-7.49c.88-.6 2.09-.38 2.69.5.6.88.38 2.09-.5 2.69l-8.95 7.49c-.34.23-.72.34-1.09.34z"/><path style="fill:#fff;stroke:#263238;stroke-linecap:round;stroke-linejoin:round;stroke-miterlimit:10" d="M297.06 231.8s1.04 5.21.69 6.6c-.35 1.39-.52 3.48-.52 3.48s5.73 4.52 5.04 5.91c-.69 1.39-3.82 2.61-3.82 2.61s.46 2.08.63 2.6c.17.52-.35 2.43-.35 2.43s1.8 3.48 1.45 5.04c-.35 1.56-1.91 2.09-3.65 2.78s-4.87.52-6.26.17l-1.39-.35-1.39 10.6-23.8-3.82s3.48-6.95 3.65-7.99c.17-1.04 0-14.6 0-14.6s-3.82-.52-6.26-6.43c-2.43-5.91-1.91-8.51 0-10.77s2.95-.7 4-4c1.04-3.3 1.39-5.73 4.87-5.73s4.17 2.43 6.26 1.04c2.09-1.39 1.91-4.52 5.73-4 3.82.52 4.17 2.95 5.56 2.26 1.39-.7 1.04-2.09 3.3-2.43 2.26-.35 4.52 2.26 5.04 2.95.52.69 1.56-1.56 3.3 0 1.74 1.56 1.91 3.82 1.91 5.04 0 1.22 1.91-1.39 2.43 2.95.53 4.36-6.42 3.66-6.42 3.66z"/><path style="fill:none;stroke:#263238;stroke-linecap:round;stroke-linejoin:round;stroke-miterlimit:10" d="m282.97 268.83-5.59-7.93M296.48 240.63s-1.17-4.43-4.89-.7"/><path style="fill:#263238;stroke:#263238;stroke-linecap:round;stroke-linejoin:round;stroke-miterlimit:10" d="M296.54 263.25c1.74-.7 3.3-1.22 3.65-2.78.35-1.56-1.45-5.04-1.45-5.04s-.32-4.9-.29-5.04c-.63 0-3.58 2.96-4.24 3.49-1.74 1.39.76 4.85-3.75 2.94-4.52-1.91-9.38-2.61-10.6-8.69-1.22-6.08-1.56-7.12.17-9.73 1.74-2.61 4.17-1.56 5.04-3.13s-.87-2.26 1.39-4c2.26-1.74 10.6.52 10.6.52s6.95.69 6.43-3.65c-.52-4.34-2.43-1.74-2.43-2.95 0-1.22-.17-3.48-1.91-5.04s-2.78.7-3.3 0-2.78-3.3-5.04-2.95c-2.26.35-1.91 1.74-3.3 2.43-1.39.7-1.74-1.74-5.56-2.26-3.82-.52-3.65 2.61-5.73 4-2.08 1.39-2.78-1.04-6.26-1.04s-3.82 2.43-4.87 5.73c-1.04 3.3-2.09 1.74-4 4-1.91 2.26-2.43 4.87 0 10.77 2.43 5.91 6.26 6.43 6.26 6.43s.06 4.67.07 8.74c.82.12 1.55.18 2.01.12 1.56-.17 5.21-3.3 4.69-3.48-.52-.17-4.69-3.48-3.65-7.65 1.04-4.17 3.48-3.48 4.52-.52 1.04 2.95 2.09 11.12 4.34 14.94 2.26 3.82 9.56 3.65 9.56 3.65l1.39.35c1.39.36 4.52.54 6.26-.16z"/><path style="fill:#263238" d="M295.15 242.75c0 1.06-.39 1.91-.87 1.91s-.87-.86-.87-1.91.39-1.91.87-1.91.87.85.87 1.91z"/><path style="fill:#fff;stroke:#263238;stroke-linecap:round;stroke-linejoin:round;stroke-miterlimit:10" d="M292.89 274.89s-11.29-8.86-21.02-8.86-15.12 5.91-18.59 12.51c-3.48 6.6-9.38 20.5-9.56 42.4-.17 21.89 9.13 36.59 13.21 39.09 4.28 2.64 15.64 5.39 26.24 2.08 10.23-3.19 17.9-7.99 22.76-13.03 7.34-7.6 20.28-20.47 20.28-20.47s2.79 7.47 6.11 10.63c3.32 3.16 10.49 8.34 10.49 8.34s17.02 16.09 17.56 17.24.47 2.92 4.07 3.39c3.6.48 8.02-3.75 9.2-5.18 1.18-1.42 5.11-4.34 7.82-8.3s3.95-7.15 2.99-8.75c-.96-1.6-3.51.04-5.55 1.6s-9.05 4.98-11.14 5.14c-2.09.16-3.91-.25-3.91-.25s-5.83-5.57-9.08-11.56-10.53-17.31-13.13-22.53c-2.6-5.21-5.71-10.34-8.96-11.93a9.914 9.914 0 0 0-9.29.26c-2.58 1.47-26.49 12.13-31.36 15.08-4.87 2.95-5.73 3.65-5.73 3.65s1.04-1.04 0-3.3 0-5.04 0-5.04 5.73-8.86 7.99-14.07c2.26-5.21 2.78-10.43 2.78-10.43s16.33-.35 20.5 1.04c4.17 1.39 10.6 1.22 15.64-.52 5.04-1.74 22.41-3.48 22.41-3.48s1.56 2.61 3.48 3.3c1.91.69 4 .35 4.87.52l.87.17.17 1.91c2.08.87 1.39 1.39 3.13 0s2.78-2.43 4.17-3.13c1.39-.7 2.26-2.26 2.08-3.3-.17-1.04.17-4.69-.87-5.39-1.04-.7-15.64-1.39-15.64-1.39s-24.5-4.87-29.02-4.87-11.29 1.56-11.29 1.56l-24.68-4.13z"/><path style="fill:none;stroke:#263238;stroke-linecap:round;stroke-linejoin:round;stroke-miterlimit:10" d="M367.43 287.02s.95 3.65.95 4.6.92 3.13-.25 3.94M369.16 285.62s1.01 2.33 2.07 4.58c1.06 2.25 0 2.7 0 2.7M372.35 284.48s2.22 4.6 1.59 6.51M281.34 286.77s6.99-4.89 9.79-7.46M312.33 288.17s2.8 1.17 5.13 1.17 10.02-3.73 10.02-3.73M271.52 291.57l8.86-2.61s7.3 3.48 10.6 3.48 6.08.17 6.08.17"/><path style="fill:#7444e4;stroke:#263238;stroke-linecap:round;stroke-linejoin:round;stroke-miterlimit:10" d="M305.92 349.09c3.03-3.13 6.81-7.23 10.21-10.96-4.6-11.87-8.41-19.05-10.72-22.9-5.97 2.76-11.41 5.38-13.38 6.58-4.87 2.95-5.73 3.65-5.73 3.65s1.04-1.04 0-3.3 0-5.04 0-5.04 5.73-8.86 7.99-14.07c2.01-4.64 2.64-9.28 2.76-10.24l-6.06-.36-4.34-.52s-2.08 5.21-9.56 9.9c-7.47 4.69-23.28-4.52-21.72-18.94.64-5.89 1.94-9.48 3.26-11.68-2.2 2.1-3.94 4.66-5.35 7.34-3.48 6.6-9.38 20.5-9.56 42.4-.17 21.89 9.14 36.59 13.21 39.09 4.28 2.64 15.64 5.39 26.24 2.08 10.22-3.19 17.89-7.99 22.75-13.03z"/><path style="fill:none;stroke:#263238;stroke-linecap:round;stroke-linejoin:round;stroke-miterlimit:10" d="M286.29 325.46s.22-.24.36-.7l-.36.7z"/><path style="fill:#263238;stroke:#263238;stroke-linecap:round;stroke-linejoin:round;stroke-miterlimit:10" d="M316.13 338.13c-4.6-11.87-8.41-19.05-10.72-22.9-5.97 2.76-11.41 5.38-13.38 6.58-4.87 2.95-5.73 3.65-5.73 3.65s-10.08 1.91-20.5 6.43c-10.38 4.5-14.21 4.52-18.19 12.93 3 8.41 7.01 13.8 9.33 15.22 4.28 2.64 15.64 5.39 26.24 2.08 10.23-3.19 17.9-7.99 22.76-13.03 3.01-3.14 6.79-7.23 10.19-10.96z"/><path style="fill:#fff;stroke:#263238;stroke-linecap:round;stroke-linejoin:round;stroke-miterlimit:10" d="M257.44 333.28c-.52 1.74-.7 2.78-.7 2.78l6.78-2.78s-1.22-2.43-1.04-3.65c.17-1.22 1.56-3.65 1.56-3.65s-1.39.35-1.56-.7c-.17-1.04 2.08-1.91 2.95-4.17.87-2.26 0-1.04-.87-2.26s-.17-1.04.7-6.78c.52-3.44.79-7.68.92-10.54-1.91-.9-3.75-2.17-5.37-3.76-.17 4.14-.45 12.41-.07 14.47.52 2.78.52 6.08-.52 6.6-1.04.52-2.78 1.39-2.43 2.61s2.43 2.78 2.43 2.78-4.87 3.48-3.82 4.69c1.04 1.22 2.26.87 2.26.87s-.52 2.08-.87 2.78c-.35.71.18-1.03-.35.71z"/><path style="fill:#b0b0b0;stroke:#263238;stroke-linecap:round;stroke-linejoin:round;stroke-miterlimit:10" d="M437.13 265.33s9.42-2.9 16.88-1.66c7.46 1.24 11.4 5.8 11.4 5.8l21.55 2.28s13.47-2.69 16.58-2.69c3.11 0 13.26 2.49 18.86 4.15 5.6 1.66 14.09 2.9 15.34 2.9 1.24 0 6.84-1.04 8.08-1.24 1.24-.21 4.15 3.11 4.97 4.35.83 1.24 1.04 1.24.21 3.11-.83 1.87-1.66 1.87-2.28 3.11-.62 1.24-1.45 2.49-3.52 2.9-2.07.41-1.66-.21-3.94-1.45-2.28-1.24-31.5-4.97-35.03-5.18-3.52-.21-16.58 0-33.99 2.28-17.41 2.28-34.61-2.49-34.61-2.49s0-3.52-7.67-8.5c-7.65-4.98 7.17-7.67 7.17-7.67z"/><path style="fill:none;stroke:#263238;stroke-linecap:round;stroke-linejoin:round;stroke-miterlimit:10" d="M544.24 279.05s3.14 5.96 3.29 6.43c.16.47-.31 1.88-.31 1.88M545.5 276.7s3.45 5.18 3.45 5.96c0 .78-.22 2.77-.22 2.77M548.64 276.7s1.25 3.29 1.41 4.08c.16.78 0 3.14 0 3.14"/><path style="fill:#b0b0b0;stroke:#263238;stroke-linecap:round;stroke-linejoin:round;stroke-miterlimit:10" d="M425.02 257.54s3.84-6.77 3.84-8.12c0-1.35-3.38-11.06-3.84-14.67-.45-3.61 4.29-11.96 7.45-13.99 3.16-2.03 13.31-2.03 17.6-.45 4.29 1.58 7.9 6.77 9.48 11.28s-.23 9.25-.23 9.25 4.96 5.19 4.51 6.32c-.45 1.13-3.38 2.26-3.38 2.26s-2.26 8.8-3.16 11.06-3.38 3.16-5.64 2.48c-2.26-.68-5.64-1.81-5.64-1.81s-2.03 4.51-2.48 5.87-.68 2.26-.68 2.26l-27.98-.9 10.15-10.84z"/><path style="fill:#263238;stroke:#263238;stroke-linecap:round;stroke-linejoin:round;stroke-miterlimit:10" d="m446.01 261.15-4.36-3.27-.7 7.45 2.58 1.68z"/><path style="fill:none;stroke:#263238;stroke-linecap:round;stroke-linejoin:round;stroke-miterlimit:10" d="M441.04 244.22s-4.06-5.19-6.32-.68.23 5.87 1.81 7 5.42.23 5.42.23-1.58 3.38-.68 4.06M452.69 236.67s4.08-.35 5.86 1.78"/><path style="fill:#263238" d="M457.13 241.91c0 1.03-.4 1.86-.89 1.86s-.89-.83-.89-1.86c0-1.03.4-1.86.89-1.86.49-.01.89.83.89 1.86z"/><path style="fill:#b0b0b0;stroke:#263238;stroke-linecap:round;stroke-linejoin:round;stroke-miterlimit:10" d="M459.62 274.45s-12.16-8.21-22.49-9.12c-10.33-.91-18.27-1.73-28.3 8.91-10.03 10.64-16.08 19.05-15.47 40.93.61 21.88 11.55 31 19.76 36.17 8.21 5.17 14.89 7.6 28.57 3.04s27.96-11.85 33.43-18.54 8.62-10.56 8.62-10.56.27 10.37 8.02 18.16c7.74 7.79 11.93 8.96 17.83 12.06 5.9 3.1 15.94 13.16 17.7 14.18 1.76 1.02 4.72-2.45 8.03-6.81 3.31-4.36 8.39-12.58 9.5-15.86 1.12-3.28-.99-3.72-3.17-2.94-2.18.78-12.07 8.09-14.27 9.17l-2.2 1.08s-12.89-13.28-16.17-19.27c-3.29-5.99-14.38-28.6-17.58-30.93-3.21-2.33-15.58.93-21.05 3.06-5.47 2.13-15.02 2.21-31.13 13.45 0 0-.61-3.65 2.74-9.12 3.34-5.47 8.81-19.15 8.81-19.15s13.98.3 19.15-.91c5.17-1.22 8.21-2.74 8.21-2.74s9.73.61 16.41.61c6.69 0 24.92-2.13 24.92-2.13l2.13.91s3.95 3.95 5.77 4.86c1.82.91 3.95-.3 3.95-.3s-1.22 3.34 1.52 3.65c2.74.3 4.56-2.43 5.77-3.04 1.22-.61 3.95-.61 3.95-3.04s-.91-6.38-1.82-6.99c-.91-.61-8.51-1.82-13.37-2.43s-25.53-6.38-31-6.08c-5.47.3-11.25 2.43-11.25 2.43l-25.52-2.71z"/><path style="fill:none;stroke:#263238;stroke-linecap:round;stroke-linejoin:round;stroke-miterlimit:10" d="M534.99 287.68s1.57 3.29 1.57 4.23c0 .94-.78 3.45-.78 3.45M536.72 285.48s1.88 3.76 2.35 4.55c.47.78-.42 3.26-.42 3.26M538.91 283.6s2.35 3.14 2.51 4.86c.16 1.72-.31 3.92-.31 3.92"/><path style="fill:#7444e4;stroke:#263238;stroke-linecap:round;stroke-linejoin:round;stroke-miterlimit:10" d="M456.71 329.58c-2.39-6.12-2.3-13.73-2.07-17.52-4.3 1.77-9.39 4.41-15.38 8.59 0 0-.61-3.65 2.74-9.12 3.34-5.47 8.81-19.15 8.81-19.15s-19.8 16.27-28.92 14.4c-9.12-1.87-18.45-16.37-8.7-29.64 5.23-7.12 10.69-10.59 14.63-12.29-6.3.21-12.16 2.14-18.98 9.38-10.03 10.64-16.08 19.05-15.47 40.93.61 21.88 11.55 31 19.76 36.17 8.21 5.17 14.89 7.6 28.57 3.04 8.93-2.98 18.11-7.12 24.93-11.5-3.54-3.43-8.03-8.46-9.92-13.29z"/><path style="fill:#fff;stroke:#263238;stroke-linecap:round;stroke-linejoin:round;stroke-miterlimit:10" d="m415.67 330.41 3.52-1.66-.83-2.07s2.69-1.66 1.66-3.52c-1.04-1.87-2.28-.62-2.28-1.45s2.49-1.66 1.66-4.56c-.83-2.9-2.07-2.28-1.66-5.39.23-1.72.96-4.07 1.58-5.83-1.24-.57-2.45-1.36-3.58-2.33-1.31 3.91-3.47 10.6-3.18 11.47.41 1.24 2.07 2.28 1.87 3.94-.21 1.66-3.32 4.77-2.9 6.01.41 1.24 3.94.83 3.94.83s-1.24 1.87-1.66 2.9l1.86 1.66z"/><path style="fill:none;stroke:#263238;stroke-linecap:round;stroke-linejoin:round;stroke-miterlimit:10" d="m450.81 292.38-11.72-1.97s-10.98 6.43-17 8.29M442.62 286.26s9.33-2.69 13.26-8.08M489.04 282.94c.62-.21 3.32-.41 7.25-2.49 3.94-2.07 9.12-2.49 9.12-2.49M486.76 283.77s-6.01 2.9-7.67 2.9-3.94-.83-3.94-.83"/><path style="fill:#263238;stroke:#263238;stroke-linecap:round;stroke-linejoin:round;stroke-miterlimit:10" d="M441.69 354.38c8.93-2.98 18.11-7.12 24.93-11.5-3.53-3.44-8.03-8.47-9.91-13.3-2.39-6.12-2.3-13.73-2.07-17.52-4.3 1.77-9.39 4.41-15.38 8.59 0 0-3.48 1.89-5.55 2.3-2.07.41-4.15.21-13.47 4.35-9.22 4.1-13.77 8.2-15.48 17.5 2.78 2.79 5.72 4.88 8.37 6.55 8.2 5.16 14.88 7.59 28.56 3.03z"/><path style="fill:#fff;stroke:#263238;stroke-linecap:round;stroke-linejoin:round;stroke-miterlimit:10" d="M699.45 357.71 598 353.43l-9.47-7.07-193.54-2.49h-47.04l-172.33.33-12.94 6.98-119.2 6.53s-2.25 5.62 4.5 6.75c6.75 1.12 101.23 6.75 101.23 6.75l459.22.54s79.76-6.16 86.51-7.29c6.76-1.12 4.51-6.75 4.51-6.75z"/><path style="fill:#263238;stroke:#263238;stroke-linecap:round;stroke-linejoin:round;stroke-miterlimit:10" d="M175.62 344.2s22.5-14.43 25.87-14.99c3.37-.56 18.56 14.62 18.56 14.62l-44.43.37z"/><path style="fill:#737373;stroke:#263238;stroke-linecap:round;stroke-linejoin:round;stroke-miterlimit:10" d="M444.16 360.33a1.931 1.931 0 0 1-1.17-3.47l87.63-66.7a1.93 1.93 0 0 1 2.71.37c.65.85.48 2.07-.37 2.71l-87.62 66.7c-.36.26-.77.39-1.18.39z"/><path style="fill:none;stroke:#263238;stroke-linecap:round;stroke-linejoin:round;stroke-miterlimit:10" d="m464.88 348.07 87.88-2.5 3.91.36-97.48 6.76zM459.19 352.69l-3.2 2.85 100.68-9.61z"/><path style="fill:#fff;stroke:#263238;stroke-linecap:round;stroke-linejoin:round;stroke-miterlimit:10" d="M445.81 361.97c-1.46 0-2.9-.66-3.85-1.91a4.833 4.833 0 0 1 .92-6.78l27.07-20.61a4.833 4.833 0 0 1 6.78.92 4.833 4.833 0 0 1-.92 6.78l-27.07 20.61c-.87.67-1.91.99-2.93.99z"/><path style="fill:#263238;stroke:#263238;stroke-linecap:round;stroke-linejoin:round;stroke-miterlimit:10" d="M454.57 344.86s5.69 2.85 4.62 7.83l5.69-4.62s-1.07-4.62-6.05-7.12l-4.26 3.91z"/><path style="fill:#737373;stroke:#263238;stroke-linecap:round;stroke-linejoin:round;stroke-miterlimit:10" d="M445.7 357.22a1.932 1.932 0 0 0-2.71-.37l-42.31 32.2h6.39l38.26-29.12a1.94 1.94 0 0 0 .37-2.71zM275.86 360.33a1.931 1.931 0 0 1-1.17-3.47l87.63-66.7a1.93 1.93 0 0 1 2.71.37c.65.85.48 2.07-.37 2.71l-87.62 66.7c-.36.26-.77.39-1.18.39z"/><path style="fill:none;stroke:#263238;stroke-linecap:round;stroke-linejoin:round;stroke-miterlimit:10" d="m296.96 348.07 86.45-4.27h8.54l-100.68 8.89z"/><path style="fill:none;stroke:#263238;stroke-linecap:round;stroke-linejoin:round;stroke-miterlimit:10" d="m291.27 352.69-3.2 2.85 103.88-11.74z"/><path style="fill:#fff;stroke:#263238;stroke-linecap:round;stroke-linejoin:round;stroke-miterlimit:10" d="M277.52 361.97c-1.46 0-2.9-.66-3.85-1.91a4.833 4.833 0 0 1 .92-6.78l27.07-20.61a4.833 4.833 0 0 1 6.78.92 4.833 4.833 0 0 1-.92 6.78l-27.07 20.61c-.88.67-1.91.99-2.93.99z"/><path style="fill:#263238;stroke:#263238;stroke-linecap:round;stroke-linejoin:round;stroke-miterlimit:10" d="M286.64 344.86s5.69 2.85 4.62 7.83l5.69-4.62s-1.07-4.62-6.05-7.12l-4.26 3.91z"/><path style="fill:#737373;stroke:#263238;stroke-linecap:round;stroke-linejoin:round;stroke-miterlimit:10" d="m238.78 389.05 38.26-29.12c.85-.65 1.02-1.86.37-2.71a1.932 1.932 0 0 0-2.71-.37l-42.31 32.2h6.39z"/></svg>