<svg xmlns="http://www.w3.org/2000/svg" viewBox="0 0 750 500" style="enable-background:new 0 0 750 500" xml:space="preserve"><path style="fill:#baa4ff" d="M-400.29 326.75c19.7-112.4-67.9-221.83-176.15-257.92-1.38-.46-2.78-.91-4.18-1.36-112.25-35.49-154.98 33.31-208.58 70.97-53.59 37.66-135.5-7.05-220.89 19.55-99.94 31.14-126.84 194.88-29.69 257.1 64.46 41.28 127.46 41.28 247.68 20.28s191.2 42 317.21-6.52c49.09-18.88 68.27-65.97 74.6-102.1z"/><path style="opacity:.8;fill:#fff" d="M-400.29 326.75c19.7-112.4-67.9-221.83-176.15-257.92-1.38-.46-2.78-.91-4.18-1.36-112.25-35.49-154.98 33.31-208.58 70.97-53.59 37.66-135.5-7.05-220.89 19.55-99.94 31.14-126.84 194.88-29.69 257.1 64.46 41.28 127.46 41.28 247.68 20.28s191.2 42 317.21-6.52c49.09-18.88 68.27-65.97 74.6-102.1z"/><path style="fill:none;stroke:#263238;stroke-miterlimit:10" d="M-1010.04 142.64c.29-.91-.36-2.68-.6-3.21-1.24-2.76-4.3-4-7.2-3.76-1.05.09-2.14.34-3.15.03-1.26-.39-2.11-1.56-2.73-2.73-1.18-2.23-2.53-4.19-4.29-6.03-2.61-2.72-6.14-4.73-10.02-4.59-10.44.36-9.36 9-12.24 11.52-1.6 1.4-2.76-.59-4.12-1.28-1.8-.91-3.8-.75-5.37.57-1.49 1.26-2.37 3.07-3.55 4.63-1.17 1.56-2.93 2.96-4.86 2.75-1.62-.18-2.91-1.43-4.46-1.95-1.77-.6-3.77-.16-5.39.79-1.41.83-2.57 2.01-3.62 3.27h71.6zM-412.55 142.64c.29-.91-.36-2.68-.6-3.21-1.24-2.76-4.3-4-7.2-3.76-1.05.09-2.14.34-3.15.03-1.26-.39-2.11-1.56-2.73-2.73-1.18-2.23-2.53-4.19-4.29-6.03-2.61-2.72-6.14-4.73-10.02-4.59-10.44.36-9.36 9-12.24 11.52-1.6 1.4-2.76-.59-4.12-1.28-1.8-.91-3.8-.75-5.37.57-1.49 1.26-2.37 3.07-3.55 4.63-1.17 1.56-2.93 2.96-4.86 2.75-1.62-.18-2.91-1.43-4.46-1.95-1.77-.6-3.77-.16-5.39.79-1.41.83-2.57 2.01-3.62 3.27h71.6zM-897.38 76.43c.45-1.4-.56-4.11-.93-4.93-1.9-4.23-6.6-6.14-11.05-5.78-1.62.13-3.28.52-4.83.04-1.94-.59-3.24-2.39-4.19-4.18-1.81-3.43-3.89-6.44-6.59-9.25-4.01-4.18-9.42-7.26-15.38-7.05-16.02.55-14.37 13.81-18.78 17.68-2.46 2.15-4.23-.91-6.32-1.96-2.77-1.39-5.84-1.15-8.25.87-2.29 1.93-3.64 4.72-5.44 7.11-1.8 2.39-4.49 4.55-7.47 4.23-2.49-.27-4.47-2.2-6.85-3-2.72-.91-5.79-.24-8.27 1.21-2.16 1.27-3.94 3.09-5.56 5.01h109.91zM-493.99 76.43c.45-1.4-.56-4.11-.93-4.93-1.9-4.23-6.6-6.14-11.05-5.78-1.62.13-3.28.52-4.83.04-1.94-.59-3.24-2.39-4.19-4.18-1.81-3.43-3.89-6.44-6.59-9.25-4.01-4.18-9.42-7.26-15.38-7.05-16.02.55-14.37 13.81-18.78 17.68-2.46 2.15-4.23-.91-6.32-1.96-2.77-1.39-5.84-1.15-8.25.87-2.29 1.93-3.64 4.72-5.44 7.11-1.8 2.39-4.49 4.55-7.47 4.23-2.49-.27-4.47-2.2-6.85-3-2.72-.91-5.79-.24-8.27 1.21-2.16 1.27-3.94 3.09-5.56 5.01h109.91zM-676.02 102.68c.29-.91-.36-2.68-.6-3.21-1.24-2.76-4.3-4-7.2-3.76-1.05.09-2.14.34-3.15.03-1.26-.39-2.11-1.56-2.73-2.73-1.18-2.23-2.53-4.19-4.29-6.03-2.61-2.72-6.14-4.73-10.02-4.59-10.44.36-9.36 9-12.24 11.52-1.6 1.4-2.76-.59-4.12-1.28-1.8-.91-3.8-.75-5.37.57-1.49 1.26-2.37 3.07-3.55 4.63s-2.93 2.96-4.86 2.75c-1.62-.18-2.91-1.43-4.46-1.95-1.77-.6-3.77-.16-5.39.79-1.41.83-2.57 2.01-3.62 3.27h71.6z"/><path style="fill:#7444e4" d="M-924.7 217.02c0 36.74-31.44 66.53-70.21 66.53-38.78 0-70.21-29.79-70.21-66.53s31.44-89.93 70.21-89.93c38.78-.01 70.21 53.18 70.21 89.93z"/><path style="opacity:.28;fill:#fff" d="M-924.7 217.02c0 36.74-31.44 66.53-70.21 66.53-38.78 0-70.21-29.79-70.21-66.53s31.44-89.93 70.21-89.93c38.78-.01 70.21 53.18 70.21 89.93z"/><path style="fill:#787878" d="m-1000.88 295.15 1.11-22.05-21.26-32.05 21.24 23.65v-24.62l-11.59-37.65 12.55 29.93 1.32-41.13 2.06 45.47.49 8.69 33.79-31.37-32.35 38.13-.48 12.55 14-11.58 14-21.24-9.88 19.92 21.95-1.1-23.66 3.61-15.44 14.97.96 25.83z"/><path style="fill:#7444e4" d="M-805.56 250.87c0 20.82-17.82 37.71-39.79 37.71-21.98 0-39.79-16.88-39.79-37.71s17.82-50.97 39.79-50.97 39.79 30.14 39.79 50.97z"/><path style="opacity:.28;fill:#fff" d="M-805.56 250.87c0 20.82-17.82 37.71-39.79 37.71-21.98 0-39.79-16.88-39.79-37.71s17.82-50.97 39.79-50.97 39.79 30.14 39.79 50.97z"/><path style="fill:#787878" d="m-848.74 295.15.63-12.5-12.05-18.16 12.04 13.4v-13.95l-6.56-21.34 7.11 16.96-.82-19.42 2.73 21.88.28 4.93 19.15-17.78-18.33 21.61-.28 7.11 7.94-6.56 7.93-12.04-5.59 11.29 12.43-.62-13.4 2.04-8.76 8.48.55 14.65z"/><path style="fill:#7444e4" d="M-839.32 164.14c0 36.74-31.44 66.53-70.21 66.53s-70.21-29.79-70.21-66.53 31.44-89.93 70.21-89.93 70.21 53.19 70.21 89.93z"/><path style="opacity:.5;fill:#fff" d="M-839.32 164.14c0 36.74-31.44 66.53-70.21 66.53s-70.21-29.79-70.21-66.53 31.44-89.93 70.21-89.93 70.21 53.19 70.21 89.93z"/><path style="fill:#787878" d="m-915.5 294.71 1.11-74.49-21.26-32.05 21.24 23.65v-24.61l-11.58-37.66 12.55 29.93 2.18-48.93 1.2 53.28.48 8.69 33.79-31.38-32.34 38.13-.49 12.55 14-11.58 14-21.24-9.87 19.92 21.94-1.09-23.65 3.6-15.45 14.97.97 78.28z"/><path style="fill:#7444e4" d="M-724.19 192.63c0 28.73-24.58 52.01-54.89 52.01-30.32 0-54.89-23.29-54.89-52.01s24.58-70.31 54.89-70.31c30.31-.01 54.89 41.58 54.89 70.31z"/><path style="opacity:.5;fill:#fff" d="M-724.19 192.63c0 28.73-24.58 52.01-54.89 52.01-30.32 0-54.89-23.29-54.89-52.01s24.58-70.31 54.89-70.31c30.31-.01 54.89 41.58 54.89 70.31z"/><path style="fill:#787878" d="m-773.63 294.71-.87-58.23 16.62-25.06-16.61 18.49v-19.25l9.06-29.44-9.81 23.4-.8-46.33-1.85 49.73-.37 6.79-26.42-24.53 25.29 29.82.37 9.81-10.94-9.06-10.95-16.6 7.72 15.57-17.15-.86 18.49 2.83 12.08 11.69-.76 61.21z"/><path style="fill:#7444e4" d="M-616.1 217.02c0 36.74-31.44 66.53-70.21 66.53-38.78 0-70.21-29.79-70.21-66.53s31.44-89.93 70.21-89.93c38.77-.01 70.21 53.18 70.21 89.93z"/><path style="opacity:.28;fill:#fff" d="M-616.1 217.02c0 36.74-31.44 66.53-70.21 66.53-38.78 0-70.21-29.79-70.21-66.53s31.44-89.93 70.21-89.93c38.77-.01 70.21 53.18 70.21 89.93z"/><path style="fill:#787878" d="m-692.29 295.15 1.11-22.05-21.26-32.05 21.24 23.65v-24.62l-11.58-37.65 12.55 29.93 1.31-41.13 2.07 45.47.48 8.69 33.79-31.37-32.34 38.13-.48 12.55 13.99-11.58 14-21.24-9.87 19.92 21.94-1.1-23.65 3.61-15.45 14.97.97 25.83z"/><path style="fill:#7444e4" d="M-496.97 250.87c0 20.82-17.82 37.71-39.79 37.71-21.98 0-39.79-16.88-39.79-37.71s17.82-50.97 39.79-50.97c21.98 0 39.79 30.14 39.79 50.97z"/><path style="opacity:.28;fill:#fff" d="M-496.97 250.87c0 20.82-17.82 37.71-39.79 37.71-21.98 0-39.79-16.88-39.79-37.71s17.82-50.97 39.79-50.97c21.98 0 39.79 30.14 39.79 50.97z"/><path style="fill:#787878" d="m-540.14 295.15.63-12.5-12.05-18.16 12.04 13.4v-13.95l-6.57-21.34 7.11 16.96-.82-19.42 2.74 21.88.27 4.93 19.15-17.78-18.33 21.61-.27 7.11 7.93-6.56 7.94-12.04-5.6 11.29 12.44-.62-13.41 2.04-8.75 8.48.54 14.65z"/><path style="fill:#7444e4" d="M-530.72 164.14c0 36.74-31.44 66.53-70.21 66.53-38.78 0-70.21-29.79-70.21-66.53s31.44-89.93 70.21-89.93c38.77 0 70.21 53.19 70.21 89.93z"/><path style="opacity:.5;fill:#fff" d="M-530.72 164.14c0 36.74-31.44 66.53-70.21 66.53-38.78 0-70.21-29.79-70.21-66.53s31.44-89.93 70.21-89.93c38.77 0 70.21 53.19 70.21 89.93z"/><path style="fill:#787878" d="m-606.91 294.71 1.11-74.49-21.25-32.05 21.24 23.65v-24.61l-11.59-37.66 12.55 29.93 2.18-48.93 1.2 53.28.48 8.69 33.79-31.38-32.34 38.13-.48 12.55 14-11.58 14-21.24-9.88 19.92 21.94-1.09-23.65 3.6-15.45 14.97.97 78.28z"/><path style="fill:#7444e4" d="M-415.6 192.63c0 28.73-24.58 52.01-54.89 52.01-30.32 0-54.89-23.29-54.89-52.01s24.58-70.31 54.89-70.31c30.32-.01 54.89 41.58 54.89 70.31z"/><path style="opacity:.5;fill:#fff" d="M-415.6 192.63c0 28.73-24.58 52.01-54.89 52.01-30.32 0-54.89-23.29-54.89-52.01s24.58-70.31 54.89-70.31c30.32-.01 54.89 41.58 54.89 70.31z"/><path style="fill:#787878" d="m-465.04 294.71-.87-58.23 16.62-25.06-16.6 18.49v-19.25l9.05-29.44-9.81 23.4-.79-46.33-1.85 49.73-.38 6.79-26.42-24.53 25.29 29.82.38 9.81-10.95-9.06-10.94-16.6 7.72 15.57-17.16-.86 18.5 2.83 12.07 11.69-.75 61.21z"/><path style="fill:#a1a1a1" d="M-398.69 294.7s-3.74-1.19-5.14-1.98c-1.4-.79-4.21 0-7.48 0-3.27 0-9.82-12.67-24.31-10.3-14.5 2.38-16.83 9.5-18.7 6.34-1.87-3.17-6.08-6.73-17.82-7.18s-10.23 7.97-16.78 9.16c-6.55 1.19-4.21-1.58-10.75-5.54-6.55-3.96-16.83 1.98-21.98-.4-5.14-2.38-7.01-10.3-20.57-9.9s-18.7 13.86-18.7 13.86-7.01-.79-10.29-3.17c-3.27-2.38-11.22 2.38-15.9 4.75-4.68 2.38-7.48 0-15.9-2.38s-4.21 1.58-10.75 1.98c-6.55.4-4.68-3.17-14.96-7.52-10.29-4.36-15.43 1.58-21.98 5.15-6.55 3.56-9.82-6.73-20.57-8.71-10.75-1.98-11.69 9.11-23.38 10.3-11.69 1.19-13.56-13.46-24.78-12.28-11.22 1.19-10.29 8.71-14.03 11.48-3.74 2.77-10.75-1.98-16.37-1.19-.32.05-.64.12-.96.21-3.93-3.13-9.44-6.24-17.27-4.96-14.5 2.38-16.83 9.5-18.7 6.34-1.87-3.17-6.08-6.73-17.82-7.18s-10.23 7.97-16.78 9.16c-6.55 1.19-4.21-1.58-10.75-5.54-6.55-3.96-16.83 1.98-21.98-.4-5.14-2.38-7.01-10.3-20.57-9.9-13.56.4-18.7 13.86-18.7 13.86s-5.6-2.33-10.29-3.17c-3.98-.71-11.22 2.38-15.9 4.75-4.68 2.38-3.32-1.53-11.74-3.91s-8.37 3.12-14.91 3.51c-6.55.4-4.68-3.17-14.96-7.52-10.29-4.36-15.43 1.58-21.98 5.15-6.55 3.56-9.82-6.73-20.57-8.71-10.75-1.98-11.69 9.11-23.38 10.3-11.69 1.19-13.56-13.46-24.78-12.28-11.22 1.19-10.29 8.71-14.03 11.48-3.74 2.77-10.75-1.98-16.37-1.19-5.61.79-10.75 8.32-10.75 8.32l332.99-.73c-.34.45-.53.73-.53.73l361.87-.79z"/><path style="fill:none;stroke:#263238;stroke-linecap:round;stroke-linejoin:round;stroke-miterlimit:10" d="M-1036.19 303.85h91.92M-966.16 308.95h28.45M-985.85 317.71h-86.82M-1036.19 310.41h23.34M-997.53 326.46h30.64M-1018.68 326.46h-24.08M-1047.86 301.66h-13.13M-915.82 303.12h24.8M-893.94 311.87h-26.26M-833.39 303.85h91.92M-763.36 308.95h28.45M-783.05 317.71h-86.81M-833.39 310.41h23.35M-794.72 326.46h30.63M-815.88 326.46h-24.07M-845.06 301.66h-13.13M-713.02 303.12h24.8M-691.14 311.87h-26.26M-630.59 303.85h91.92M-560.55 308.95h28.45M-580.25 317.71h-86.81M-630.59 310.41h23.35M-591.92 326.46h30.64M-613.08 326.46h-24.07M-642.26 301.66h-13.13M-510.22 303.12h24.8M-488.33 311.87h-26.27M-453.32 317.71h-77.32M-427.78 310.41h23.34M-479.58 326.46h30.64M-410.28 326.46h-24.07M-439.46 301.66h-13.13M-1036.19 387.07h91.92M-966.16 397.44h28.45M-985.85 415.2h-86.82M-1036.19 400.4h23.34M-997.53 432.97h30.64M-1018.68 432.97h-24.08M-1047.86 382.63h-13.13M-915.82 385.59h24.8M-893.94 403.36h-26.26M-833.39 387.07h91.92M-763.36 397.44h28.45M-783.05 415.2h-86.81M-833.39 400.4h23.35M-794.72 432.97h30.63M-815.88 432.97h-24.07M-845.06 382.63h-13.13M-713.02 385.59h24.8M-691.14 403.36h-26.26M-630.59 387.07h91.92M-560.55 397.44h28.45M-580.25 415.2h-86.81M-630.59 400.4h23.35M-591.92 432.97h30.64M-613.08 432.97h-24.07M-642.26 382.63h-13.13M-510.22 385.59h24.8M-488.33 403.36h-26.27M-453.32 415.2h-77.32M-427.78 400.4h23.34M-479.58 432.97h30.64M-410.28 432.97h-24.07M-439.46 382.63h-13.13M-1106.22 295.23h716.37"/><path style="fill:#fff;stroke:#263238;stroke-linecap:round;stroke-linejoin:round;stroke-miterlimit:10" d="M-838.75 266.13c.19-.09.39-.14.6-.16 1.59-.15 8.87-.71 13.81 1.03 4.93 1.74 9.1 3.05 10 3.32.12.04.24.06.37.07l14.49 1.3c.26.02.52-.01.77-.1 1.52-.55 7.35-2.6 10.8-3.18 3.99-.67 21.99 3.1 26.57 3.37 4.58.27 4.19.09 7.25.4l2.78.28c.18.02.36.01.54-.03 1.37-.28 7.57-1.55 9.59-2.28 1.33-.48 2.93-.31 4.03-.09.78.16 1.35.8 1.43 1.59.18 1.7.51 4.61.8 5.4.41 1.13-.34 1.53-2.79 2.92-.2.12-.41.23-.61.33-.86.44-1.13 1.42-.86 2.34 0 .01.01.02.01.03.21.95-.34 1.53-1.1 1.74-.76.21-4.19-.09-6.29-.04-2.1.05-5.62-4.06-6.61-5.56-.99-1.5-13.27 1.51-13.27 1.51l-9.89 2.28s-9.85 2.52-15.97 1.52c-5.39-.88-8.85-1.51-9.6-1.65-.11-.02-.21-.03-.32-.03l-21.19-.06c-.12 0-.24-.01-.35-.04l-16.97-3.41a1.82 1.82 0 0 1-1.13-.74c-1.4-1.93-5.06-8.32 3.11-12.06z"/><path style="fill:none;stroke:#263238;stroke-linecap:round;stroke-linejoin:round;stroke-miterlimit:10" d="M-739.83 271.79s2.32 5.43 2.22 6.82l-.1 1.39M-737.14 270.09l1.92 5.98M-739.35 280.52l-2.52.81"/><path style="fill:#737373;stroke:#263238;stroke-linecap:round;stroke-linejoin:round;stroke-miterlimit:10" d="M-751.91 289.15c-.62 0-1.22-.29-1.6-.84-.6-.88-.38-2.09.5-2.69l8.95-7.49c.88-.6 2.09-.38 2.69.5.6.88.38 2.09-.5 2.69l-8.95 7.49c-.34.23-.72.34-1.09.34z"/><path style="fill:#fff;stroke:#263238;stroke-linecap:round;stroke-linejoin:round;stroke-miterlimit:10" d="M-825.11 231.8s1.04 5.21.7 6.6c-.35 1.39-.52 3.48-.52 3.48s5.73 4.52 5.04 5.91c-.7 1.39-3.82 2.61-3.82 2.61s.46 2.08.63 2.6c.17.52-.35 2.43-.35 2.43s1.8 3.48 1.45 5.04c-.35 1.56-1.91 2.09-3.65 2.78s-4.87.52-6.26.17l-1.39-.35-1.39 10.6-23.8-3.82s3.48-6.95 3.65-7.99c.17-1.04 0-14.6 0-14.6s-3.82-.52-6.26-6.43-1.91-8.51 0-10.77 2.95-.7 4-4c1.04-3.3 1.39-5.73 4.87-5.73s4.17 2.43 6.26 1.04c2.09-1.39 1.91-4.52 5.73-4 3.82.52 4.17 2.95 5.56 2.26 1.39-.7 1.04-2.09 3.3-2.43 2.26-.35 4.52 2.26 5.04 2.95.52.69 1.56-1.56 3.3 0s1.91 3.82 1.91 5.04c0 1.22 1.91-1.39 2.43 2.95.52 4.36-6.43 3.66-6.43 3.66z"/><path style="fill:none;stroke:#263238;stroke-linecap:round;stroke-linejoin:round;stroke-miterlimit:10" d="m-839.2 268.83-5.59-7.93M-825.69 240.63s-1.16-4.43-4.89-.7"/><path style="fill:#263238;stroke:#263238;stroke-linecap:round;stroke-linejoin:round;stroke-miterlimit:10" d="M-825.63 263.25c1.74-.7 3.3-1.22 3.65-2.78.35-1.56-1.45-5.04-1.45-5.04s-.32-4.9-.29-5.04c-.63 0-3.58 2.96-4.24 3.49-1.74 1.39.76 4.85-3.75 2.94-4.52-1.91-9.38-2.61-10.6-8.69-1.22-6.08-1.56-7.12.17-9.73 1.74-2.61 4.17-1.56 5.04-3.13.87-1.56-.87-2.26 1.39-4 2.26-1.74 10.6.52 10.6.52s6.95.69 6.43-3.65c-.52-4.34-2.43-1.74-2.43-2.95 0-1.22-.17-3.48-1.91-5.04s-2.78.7-3.3 0-2.78-3.3-5.04-2.95c-2.26.35-1.91 1.74-3.3 2.43-1.39.7-1.74-1.74-5.56-2.26-3.82-.52-3.65 2.61-5.73 4-2.09 1.39-2.78-1.04-6.26-1.04s-3.82 2.43-4.87 5.73c-1.04 3.3-2.09 1.74-4 4-1.91 2.26-2.43 4.87 0 10.77 2.43 5.91 6.26 6.43 6.26 6.43s.06 4.67.07 8.74c.82.12 1.55.18 2.01.12 1.56-.17 5.21-3.3 4.69-3.48-.52-.17-4.69-3.48-3.65-7.65 1.04-4.17 3.48-3.48 4.52-.52 1.04 2.95 2.09 11.12 4.34 14.94 2.26 3.82 9.56 3.65 9.56 3.65l1.39.35c1.39.36 4.52.54 6.26-.16z"/><path style="fill:#263238" d="M-827.02 242.75c0 1.06-.39 1.91-.87 1.91s-.87-.86-.87-1.91.39-1.91.87-1.91.87.85.87 1.91z"/><path style="fill:#fff;stroke:#263238;stroke-linecap:round;stroke-linejoin:round;stroke-miterlimit:10" d="M-829.28 274.89s-11.29-8.86-21.02-8.86-15.12 5.91-18.59 12.51c-3.48 6.6-9.38 20.5-9.56 42.4-.17 21.89 9.14 36.59 13.21 39.09 4.28 2.64 15.64 5.39 26.24 2.08 10.23-3.19 17.9-7.99 22.76-13.03 7.34-7.6 20.28-20.47 20.28-20.47s2.79 7.47 6.11 10.63c3.32 3.16 10.49 8.34 10.49 8.34s17.02 16.09 17.56 17.24c.54 1.15.47 2.92 4.07 3.39 3.6.48 8.02-3.75 9.2-5.18 1.18-1.42 5.11-4.34 7.82-8.3s3.95-7.15 2.99-8.75c-.96-1.6-3.51.04-5.55 1.6s-9.05 4.98-11.14 5.14c-2.09.16-3.91-.25-3.91-.25s-5.83-5.57-9.08-11.56-10.53-17.31-13.13-22.53c-2.6-5.21-5.71-10.34-8.96-11.93a9.914 9.914 0 0 0-9.29.26c-2.58 1.47-26.49 12.13-31.36 15.08-4.87 2.95-5.73 3.65-5.73 3.65s1.04-1.04 0-3.3 0-5.04 0-5.04 5.73-8.86 7.99-14.07c2.26-5.21 2.78-10.43 2.78-10.43s16.33-.35 20.5 1.04c4.17 1.39 10.6 1.22 15.64-.52 5.04-1.74 22.41-3.48 22.41-3.48s1.56 2.61 3.48 3.3c1.91.69 4 .35 4.87.52l.87.17.17 1.91c2.09.87 1.39 1.39 3.13 0s2.78-2.43 4.17-3.13c1.39-.7 2.26-2.26 2.08-3.3-.17-1.04.17-4.69-.87-5.39-1.04-.7-15.64-1.39-15.64-1.39s-24.5-4.87-29.02-4.87-11.29 1.56-11.29 1.56l-24.68-4.13z"/><path style="fill:none;stroke:#263238;stroke-linecap:round;stroke-linejoin:round;stroke-miterlimit:10" d="M-754.74 287.02s.95 3.65.95 4.6.92 3.13-.25 3.94M-753.01 285.62s1.01 2.33 2.07 4.58c1.06 2.25 0 2.7 0 2.7M-749.82 284.48s2.22 4.6 1.59 6.51M-840.83 286.77s6.99-4.89 9.79-7.46M-809.84 288.17s2.8 1.17 5.13 1.17 10.02-3.73 10.02-3.73M-850.65 291.57l8.86-2.61s7.3 3.48 10.6 3.48 6.08.17 6.08.17"/><path style="fill:#7444e4;stroke:#263238;stroke-linecap:round;stroke-linejoin:round;stroke-miterlimit:10" d="M-816.25 349.09c3.03-3.13 6.81-7.23 10.21-10.96-4.6-11.87-8.41-19.05-10.72-22.9-5.97 2.76-11.41 5.38-13.38 6.58-4.87 2.95-5.73 3.65-5.73 3.65s1.04-1.04 0-3.3 0-5.04 0-5.04 5.73-8.86 7.99-14.07c2.01-4.64 2.64-9.28 2.76-10.24l-6.06-.36-4.34-.52s-2.09 5.21-9.56 9.9c-7.47 4.69-23.28-4.52-21.72-18.94.64-5.89 1.94-9.48 3.26-11.68-2.2 2.1-3.94 4.66-5.35 7.34-3.48 6.6-9.38 20.5-9.56 42.4-.17 21.89 9.14 36.59 13.21 39.09 4.28 2.64 15.64 5.39 26.24 2.08 10.22-3.19 17.89-7.99 22.75-13.03z"/><path style="fill:none;stroke:#263238;stroke-linecap:round;stroke-linejoin:round;stroke-miterlimit:10" d="M-835.88 325.46s.22-.24.36-.7l-.36.7z"/><path style="fill:#263238;stroke:#263238;stroke-linecap:round;stroke-linejoin:round;stroke-miterlimit:10" d="M-806.04 338.13c-4.6-11.87-8.41-19.05-10.72-22.9-5.97 2.76-11.41 5.38-13.38 6.58-4.87 2.95-5.73 3.65-5.73 3.65s-10.08 1.91-20.5 6.43c-10.38 4.5-14.21 4.52-18.19 12.93 3 8.41 7.01 13.8 9.33 15.22 4.28 2.64 15.64 5.39 26.24 2.08 10.23-3.19 17.9-7.99 22.76-13.03 3.01-3.14 6.79-7.23 10.19-10.96z"/><path style="fill:#fff;stroke:#263238;stroke-linecap:round;stroke-linejoin:round;stroke-miterlimit:10" d="M-864.73 333.28c-.52 1.74-.7 2.78-.7 2.78l6.78-2.78s-1.22-2.43-1.04-3.65c.17-1.22 1.56-3.65 1.56-3.65s-1.39.35-1.56-.7c-.17-1.04 2.09-1.91 2.95-4.17.87-2.26 0-1.04-.87-2.26-.87-1.22-.17-1.04.7-6.78.52-3.44.79-7.68.92-10.54-1.91-.9-3.75-2.17-5.37-3.76-.17 4.14-.45 12.41-.07 14.47.52 2.78.52 6.08-.52 6.6-1.04.52-2.78 1.39-2.43 2.61.35 1.22 2.43 2.78 2.43 2.78s-4.87 3.48-3.82 4.69c1.04 1.22 2.26.87 2.26.87s-.52 2.08-.87 2.78c-.35.71.17-1.03-.35.71z"/><path style="fill:#b0b0b0;stroke:#263238;stroke-linecap:round;stroke-linejoin:round;stroke-miterlimit:10" d="M-685.04 265.33s9.42-2.9 16.88-1.66c7.46 1.24 11.4 5.8 11.4 5.8l21.55 2.28s13.47-2.69 16.58-2.69c3.11 0 13.26 2.49 18.86 4.15 5.6 1.66 14.09 2.9 15.34 2.9 1.24 0 6.84-1.04 8.08-1.24 1.24-.21 4.15 3.11 4.97 4.35.83 1.24 1.04 1.24.21 3.11-.83 1.87-1.66 1.87-2.28 3.11-.62 1.24-1.45 2.49-3.52 2.9-2.07.41-1.66-.21-3.94-1.45-2.28-1.24-31.5-4.97-35.03-5.18-3.52-.21-16.58 0-33.99 2.28-17.41 2.28-34.61-2.49-34.61-2.49s0-3.52-7.67-8.5c-7.65-4.98 7.17-7.67 7.17-7.67z"/><path style="fill:none;stroke:#263238;stroke-linecap:round;stroke-linejoin:round;stroke-miterlimit:10" d="M-577.93 279.05s3.14 5.96 3.29 6.43c.16.47-.31 1.88-.31 1.88M-576.67 276.7s3.45 5.18 3.45 5.96c0 .78-.22 2.77-.22 2.77M-573.53 276.7s1.25 3.29 1.41 4.08c.16.78 0 3.14 0 3.14"/><path style="fill:#b0b0b0;stroke:#263238;stroke-linecap:round;stroke-linejoin:round;stroke-miterlimit:10" d="M-697.15 257.54s3.84-6.77 3.84-8.12c0-1.35-3.38-11.06-3.84-14.67-.45-3.61 4.29-11.96 7.45-13.99 3.16-2.03 13.31-2.03 17.6-.45 4.29 1.58 7.9 6.77 9.48 11.28s-.23 9.25-.23 9.25 4.96 5.19 4.51 6.32c-.45 1.13-3.38 2.26-3.38 2.26s-2.26 8.8-3.16 11.06-3.38 3.16-5.64 2.48c-2.26-.68-5.64-1.81-5.64-1.81s-2.03 4.51-2.48 5.87-.68 2.26-.68 2.26l-27.98-.9 10.15-10.84z"/><path style="fill:#263238;stroke:#263238;stroke-linecap:round;stroke-linejoin:round;stroke-miterlimit:10" d="m-676.16 261.15-4.36-3.27-.7 7.45 2.58 1.68z"/><path style="fill:none;stroke:#263238;stroke-linecap:round;stroke-linejoin:round;stroke-miterlimit:10" d="M-681.13 244.22s-4.06-5.19-6.32-.68c-2.26 4.51.23 5.87 1.81 7s5.42.23 5.42.23-1.58 3.38-.68 4.06M-669.48 236.67s4.08-.35 5.86 1.78"/><path style="fill:#263238" d="M-665.04 241.91c0 1.03-.4 1.86-.89 1.86s-.89-.83-.89-1.86c0-1.03.4-1.86.89-1.86.49-.01.89.83.89 1.86z"/><path style="fill:#b0b0b0;stroke:#263238;stroke-linecap:round;stroke-linejoin:round;stroke-miterlimit:10" d="M-662.55 274.45s-12.16-8.21-22.49-9.12c-10.33-.91-18.27-1.73-28.3 8.91-10.03 10.64-16.08 19.05-15.47 40.93s11.55 31 19.76 36.17c8.21 5.17 14.89 7.6 28.57 3.04s27.96-11.85 33.43-18.54 8.62-10.56 8.62-10.56.27 10.37 8.02 18.16c7.74 7.79 11.93 8.96 17.83 12.06 5.9 3.1 15.94 13.16 17.7 14.18 1.76 1.02 4.72-2.45 8.03-6.81 3.31-4.36 8.39-12.58 9.5-15.86 1.12-3.28-.99-3.72-3.17-2.94-2.18.78-12.07 8.09-14.27 9.17l-2.2 1.08s-12.89-13.28-16.17-19.27c-3.29-5.99-14.38-28.6-17.58-30.93-3.21-2.33-15.58.93-21.05 3.06-5.47 2.13-15.02 2.21-31.13 13.45 0 0-.61-3.65 2.74-9.12s8.81-19.15 8.81-19.15 13.98.3 19.15-.91c5.17-1.22 8.21-2.74 8.21-2.74s9.73.61 16.41.61c6.69 0 24.92-2.13 24.92-2.13l2.13.91s3.95 3.95 5.77 4.86c1.82.91 3.95-.3 3.95-.3s-1.22 3.34 1.52 3.65c2.74.3 4.56-2.43 5.77-3.04 1.22-.61 3.95-.61 3.95-3.04s-.91-6.38-1.82-6.99c-.91-.61-8.51-1.82-13.37-2.43s-25.53-6.38-31-6.08c-5.47.3-11.25 2.43-11.25 2.43l-25.52-2.71z"/><path style="fill:none;stroke:#263238;stroke-linecap:round;stroke-linejoin:round;stroke-miterlimit:10" d="M-587.18 287.68s1.57 3.29 1.57 4.23c0 .94-.78 3.45-.78 3.45M-585.45 285.48s1.88 3.76 2.35 4.55c.47.78-.42 3.26-.42 3.26M-583.26 283.6s2.35 3.14 2.51 4.86c.16 1.72-.31 3.92-.31 3.92"/><path style="fill:#7444e4;stroke:#263238;stroke-linecap:round;stroke-linejoin:round;stroke-miterlimit:10" d="M-665.46 329.58c-2.39-6.12-2.3-13.73-2.07-17.52-4.3 1.77-9.39 4.41-15.38 8.59 0 0-.61-3.65 2.74-9.12 3.34-5.47 8.81-19.15 8.81-19.15s-19.8 16.27-28.92 14.4c-9.12-1.87-18.45-16.37-8.7-29.64 5.23-7.12 10.69-10.59 14.63-12.29-6.3.21-12.16 2.14-18.98 9.38-10.03 10.64-16.08 19.05-15.47 40.93s11.55 31 19.76 36.17c8.21 5.17 14.89 7.6 28.57 3.04 8.93-2.98 18.11-7.12 24.93-11.5-3.54-3.43-8.03-8.46-9.92-13.29z"/><path style="fill:#fff;stroke:#263238;stroke-linecap:round;stroke-linejoin:round;stroke-miterlimit:10" d="m-706.5 330.41 3.52-1.66-.83-2.07s2.69-1.66 1.66-3.52c-1.04-1.87-2.28-.62-2.28-1.45s2.49-1.66 1.66-4.56c-.83-2.9-2.07-2.28-1.66-5.39.23-1.72.96-4.07 1.58-5.83-1.24-.57-2.45-1.36-3.58-2.33-1.31 3.91-3.47 10.6-3.18 11.47.41 1.24 2.07 2.28 1.87 3.94-.21 1.66-3.32 4.77-2.9 6.01.41 1.24 3.94.83 3.94.83s-1.24 1.87-1.66 2.9l1.86 1.66z"/><path style="fill:none;stroke:#263238;stroke-linecap:round;stroke-linejoin:round;stroke-miterlimit:10" d="m-671.36 292.38-11.72-1.97s-10.98 6.43-17 8.29M-679.55 286.26s9.33-2.69 13.26-8.08M-633.13 282.94c.62-.21 3.32-.41 7.25-2.49 3.94-2.07 9.12-2.49 9.12-2.49M-635.41 283.77s-6.01 2.9-7.67 2.9-3.94-.83-3.94-.83"/><path style="fill:#263238;stroke:#263238;stroke-linecap:round;stroke-linejoin:round;stroke-miterlimit:10" d="M-680.48 354.38c8.93-2.98 18.11-7.12 24.93-11.5-3.53-3.44-8.03-8.47-9.91-13.3-2.39-6.12-2.3-13.73-2.07-17.52-4.3 1.77-9.39 4.41-15.38 8.59 0 0-3.48 1.89-5.55 2.3-2.07.41-4.15.21-13.47 4.35-9.22 4.1-13.77 8.2-15.48 17.5 2.78 2.79 5.72 4.88 8.37 6.55 8.2 5.16 14.88 7.59 28.56 3.03z"/><path style="fill:#fff;stroke:#263238;stroke-linecap:round;stroke-linejoin:round;stroke-miterlimit:10" d="m-422.72 357.71-101.44-4.29-9.47-7.07-193.54-2.49h-47.04l-172.33.33-12.94 6.98-119.2 6.53s-2.25 5.62 4.5 6.75c6.75 1.12 101.23 6.75 101.23 6.75l459.22.54s79.76-6.16 86.51-7.29c6.75-1.11 4.5-6.74 4.5-6.74z"/><path style="fill:#263238;stroke:#263238;stroke-linecap:round;stroke-linejoin:round;stroke-miterlimit:10" d="M-946.55 344.2s22.5-14.43 25.87-14.99 18.56 14.62 18.56 14.62l-44.43.37z"/><path style="fill:#737373;stroke:#263238;stroke-linecap:round;stroke-linejoin:round;stroke-miterlimit:10" d="M-678.01 360.33a1.931 1.931 0 0 1-1.17-3.47l87.63-66.7a1.93 1.93 0 0 1 2.71.37c.65.85.48 2.07-.37 2.71l-87.62 66.7c-.36.26-.77.39-1.18.39z"/><path style="fill:none;stroke:#263238;stroke-linecap:round;stroke-linejoin:round;stroke-miterlimit:10" d="m-657.29 348.07 87.88-2.5 3.91.36-97.48 6.76z"/><path style="fill:none;stroke:#263238;stroke-linecap:round;stroke-linejoin:round;stroke-miterlimit:10" d="m-662.98 352.69-3.2 2.85 100.68-9.61z"/><path style="fill:#fff;stroke:#263238;stroke-linecap:round;stroke-linejoin:round;stroke-miterlimit:10" d="M-676.36 361.97c-1.46 0-2.9-.66-3.85-1.91a4.833 4.833 0 0 1 .92-6.78l27.07-20.61a4.833 4.833 0 0 1 6.78.92 4.833 4.833 0 0 1-.92 6.78l-27.07 20.61c-.87.67-1.91.99-2.93.99z"/><path style="fill:#263238;stroke:#263238;stroke-linecap:round;stroke-linejoin:round;stroke-miterlimit:10" d="M-667.61 344.86s5.69 2.85 4.62 7.83l5.69-4.62s-1.07-4.62-6.05-7.12l-4.26 3.91z"/><path style="fill:#737373;stroke:#263238;stroke-linecap:round;stroke-linejoin:round;stroke-miterlimit:10" d="M-676.47 357.22a1.932 1.932 0 0 0-2.71-.37l-42.31 32.2h6.39l38.26-29.12a1.94 1.94 0 0 0 .37-2.71zM-846.31 360.33a1.931 1.931 0 0 1-1.17-3.47l87.63-66.7a1.93 1.93 0 0 1 2.71.37c.65.85.48 2.07-.37 2.71l-87.62 66.7c-.36.26-.77.39-1.18.39z"/><path style="fill:none;stroke:#263238;stroke-linecap:round;stroke-linejoin:round;stroke-miterlimit:10" d="m-825.21 348.07 86.45-4.27h8.54l-100.68 8.89zM-830.9 352.69l-3.2 2.85 103.88-11.74z"/><path style="fill:#fff;stroke:#263238;stroke-linecap:round;stroke-linejoin:round;stroke-miterlimit:10" d="M-844.65 361.97c-1.46 0-2.9-.66-3.85-1.91a4.833 4.833 0 0 1 .92-6.78l27.07-20.61a4.833 4.833 0 0 1 6.78.92 4.833 4.833 0 0 1-.92 6.78l-27.07 20.61c-.88.67-1.91.99-2.93.99z"/><path style="fill:#263238;stroke:#263238;stroke-linecap:round;stroke-linejoin:round;stroke-miterlimit:10" d="M-835.53 344.86s5.69 2.85 4.62 7.83l5.69-4.62s-1.07-4.62-6.05-7.12l-4.26 3.91z"/><path style="fill:#737373;stroke:#263238;stroke-linecap:round;stroke-linejoin:round;stroke-miterlimit:10" d="m-883.39 389.05 38.26-29.12c.85-.65 1.02-1.86.37-2.71a1.932 1.932 0 0 0-2.71-.37l-42.31 32.2h6.39z"/><path style="fill:#d1c3fc" d="M706 136S667 46 544 27 366.11 42.05 331 88s-60-10-163-14c-36.5-1.42-77.72 5.12-102.79 34.33-19.3 22.49-26.81 57.33-8.5 82.69C72.94 213.51 110.08 247.35 92 278c-23 39-53 99-21 144s66 64 165 45 134-58 182-34 147 61 206 47 40-86 36-111 61-51 63-118-6-90-17-115z"/><path style="opacity:.7;fill:#fff" d="M706 136S667 46 544 27 366.11 42.05 331 88s-60-10-163-14c-36.5-1.42-77.72 5.12-102.79 34.33-19.3 22.49-26.81 57.33-8.5 82.69C72.94 213.51 110.08 247.35 92 278c-23 39-53 99-21 144s66 64 165 45 134-58 182-34 147 61 206 47 40-86 36-111 61-51 63-118-6-90-17-115z"/><g style="opacity:.3"><path style="fill:none;stroke:#000;stroke-linecap:round;stroke-linejoin:round;stroke-miterlimit:10" d="m544.59 188.56 12.76-12.76 1.64-.33-8.83 10.14 2.29 2.29 17.34-18.97 2.62.65 3.93-4.58s4.58 6.21 4.58 11.12h3.27s-.65-9.49-6.54-16.03l2.62-2.29 3.27 2.94 9.49-8.18 5.56-4.58s4.25-1.31 6.54-2.94c.84-.6 1.85-1.46 2.8-2.42 1.64-1.67 3.09-3.65 3.09-5.1v-4.25s2.94 3.6 1.96 6.54-6.54 13.08-6.54 13.08-2.29 7.2-2.29 12.1-3.27 11.45-1.64 14.39 3.27 3.93 3.27 3.93l1.3 26.48v12.76s-5.23 5.89-6.87 6.54c-1.64.65-5.56.98-5.56 3.27v1.89h14.89l2.12-.91 4.25-1.31s.65-.98.65-4.58-.33-6.54-.33-7.52c0-.98-.65-7.85-.65-7.85s.98-3.93.98-8.18 1.65-22.56 1.65-22.56l4.58-10.14 1.31-1.96h2.29s3.27 8.18 4.91 11.12c1.64 2.94 7.2 18.32 7.2 18.32s1.31 10.14 2.94 13.08c1.64 2.94 3.6 10.47 3.6 10.47l2.62 10.47s-.12.64-.12 1.55h10.55c-1.36-4.54-5.98-12.35-6.83-14.64-.98-2.62-1.96-18.32-3.6-21.26-1.64-2.94-1.96-4.91-1.96-4.91s-.33-21.92-2.29-25.19c-1.96-3.27-6.21-11.12-6.21-11.12s2.62-2.94 2.62-5.89.98-3.93 0-4.91-2.29-3.6-2.29-3.6l-.33-1.64 2.62-1.31 1.64-1.31 7.52 17.34 4.58-2.94-3.6-10.14s2.62-8.18 2.62-9.81c0-1.64-.65-8.83-.98-9.81-.33-.98-1.64-4.25-1.64-4.25l-1.31-4.25v-3.27l.98-1.64 1.64-2.29v-2.62l16.03-15.05-1.64-3.27-17.99 16.03-5.56-5.89h-1.96l3.27 4.91-7.2 1.96-1.64-1.31-1.31.33 2.62 4.91-2.29 1.64-2.94-2.29s1.31-6.87.65-11.45c-.65-4.58-7.52-4.58-8.83-3.6l-9.16-13.41-2.29 1.31 9.16 14.07s-2.94 1.31-2.94 4.25.33 7.52.33 7.52-7.85 4.58-10.47 7.85c-2.62 3.27-4.58 10.14-4.58 10.14s-.33 2.62-.33 5.89c0 3.27-.98 4.91-.98 8.83 0 0-2.62-.65-6.54 1.96l-4.58-2.94-11.12 12.43h-6.21l3.93-4.58-1.31-.98-11.78 12.76 2.29 1.96 1.64-2.29 1.64 2.62-11.18 9.84-3.6-.65 2.29 3.93-14.07 14.72 1.97 1.62z"/><path style="fill:none;stroke:#000;stroke-linecap:round;stroke-linejoin:round;stroke-miterlimit:10" d="M538.86 63.86h140.87v170.69H538.86zM533.6 234.61H685v16.09H533.6zM538.33 251h141.33v204.67H538.33z"/></g><g style="opacity:.3"><path style="fill:none;stroke:#000;stroke-linecap:round;stroke-linejoin:round;stroke-miterlimit:10" d="M315.86 63.86h140.87v170.69H315.86zM310.6 234.61H462v16.09H310.6zM315.33 251h141.33v204.67H315.33z"/><path style="fill:none;stroke:#000;stroke-linecap:round;stroke-linejoin:round;stroke-miterlimit:10" d="M346.99 161.51c.73.24 2.93 2.93 3.91 2.93s1.47-1.22.49-1.95-1.71-2.2-1.71-2.2l1.71-5.37 2.2.49s2.2 2.93 2.93 1.47c.73-1.47-.49-2.44-.98-3.42s-1.47-3.42-1.47-3.42 8.3-16.61 8.79-18.32c.49-1.71 4.88-10.5 4.88-10.5l.98 9.28s-3.91 8.06-2.2 10.01c1.71 1.95 1.71 3.17 1.71 3.17s-2.44 2.44-2.44 3.42 1.22.98 1.22.98-3.91 8.79-4.64 15.63c-.73 6.84-4.4 33.7-4.4 35.9 0 2.2 1.95 5.86 2.69 9.04s2.2 8.79 2.2 9.77c0 .98-3.42 1.71-1.47 3.66s2.2 2.69 2.2 2.69-3.66 3.91-5.37 5.13c-1.71 1.22-4.4 1.47-3.66 3.66.08.24.19.46.31.66h9.08c1.21-.73 2.23-1.39 2.58-1.39.73 0 3.66-1.22 3.91-4.15.24-2.93 0-16.12.49-16.85.49-.73 2.93-9.28 2.93-9.28s1.71-.49 2.93-.24c1.22.24 6.84.24 6.84.24l.24-26.38 2.2 3.17 3.42 41.52s2.93-1.71 6.35-3.42c3.42-1.71 5.37-3.42 5.37-3.42s1.95 7.82 2.44 10.75c.49 2.93.98 6.59 2.2 7.82.96.96 2.67 1.47 3.36 1.64h11.35c-.07-.51-.32-1.06-.79-1.64-2.2-2.69-5.37-5.86-6.35-8.55-.98-2.69-3.66-12.7-3.66-12.7s1.22-.98 1.71-1.95c.49-.98.73-2.93.73-2.93l3.17-2.69s3.91 10.01 3.91 7.33c0-2.69-13.19-49.09-13.19-49.09s-1.22-4.64-2.44-7.33c-1.22-2.69-1.22-2.44-1.95-3.91-.73-1.47-1.22-2.2-1.22-2.2l.49-4.15s0-10.26-.98-11.97c-.98-1.71-3.42-.98-3.42-.98v-3.42l2.2-6.59 3.91 8.3s.49 3.66.73 4.88c.24 1.22.49 9.04 1.47 11.48.98 2.44 4.88 11.72 4.88 11.72s-2.69 4.88-1.22 5.62c1.47.73 2.93 1.71 4.15 1.71 1.22 0 4.4.24 4.4-1.95 0-2.2-.24-5.13-.24-5.13s.73-1.22.73-3.42-4.4-17.58-5.13-20.27c-.73-2.69-1.22-5.62-1.47-6.59-.24-.98-3.66-9.04-3.66-9.04s.24-4.64-.49-7.08c-.73-2.44-5.13-6.35-7.33-7.57-2.2-1.22-4.88-1.95-4.88-1.95l-2.93-3.42.24-1.95s1.95-12.21-.24-16.12c-2.2-3.91-6.84-5.86-10.26-2.69-3.42 3.17-5.13 17.58-5.13 17.58s-6.84 2.69-9.28 6.11c-2.44 3.42-2.93 4.4-2.93 4.4s-2.44 3.42-2.69 6.59c-.24 3.18-2.2 5.86-2.2 5.86s-2.93 6.84-4.15 9.77c-1.22 2.93-2.93 7.08-3.42 9.52-.49 2.44-3.66 10.99-3.66 12.94 0 1.95-.73 5.62-.73 7.82-.01 2.19-.98 2.68-.25 2.93z"/></g><g style="opacity:.3"><path style="fill:none;stroke:#000;stroke-linecap:round;stroke-linejoin:round;stroke-miterlimit:10" d="m266.83 318.87-74.04-61.7-76.09 61.7V31.98h150.13z"/><path style="fill:none;stroke:#000;stroke-linecap:round;stroke-linejoin:round;stroke-miterlimit:10" d="M140.33 50.95v3.47h-4.28v-3.7c0-3.64-1.45-5.84-4.74-5.84-3.24 0-4.74 2.2-4.74 5.84v21.39c0 3.64 1.5 5.84 4.74 5.84 3.3 0 4.74-2.2 4.74-5.84v-8.09h-4.16v-4.05h8.44v11.91c0 6.13-2.89 10.18-9.13 10.18-6.19 0-9.08-4.05-9.08-10.18V50.95c0-6.13 2.89-10.18 9.08-10.18 6.24.01 9.13 4.05 9.13 10.18zM159.01 59.1v4.05h-9.89v14.4h12.14v4.11h-16.65V41.18h16.65v4.1h-12.14V59.1h9.89zM179.82 59.1v4.05h-9.89v14.4h12.14v4.11h-16.65V41.18h16.65v4.1h-12.14V59.1h9.89zM193.12 64.08l-2.37 3.99v13.59h-4.51V41.18h4.51v19.54l10.75-19.54h4.57l-10.23 18.44 10.58 22.03h-4.62l-8.68-17.57zM246.39 58.99h-3.64v-4.28h3.87c3.64 0 5.84-1.45 5.84-4.74 0-3.24-2.2-4.74-5.84-4.74h-21.39c-3.64 0-5.84 1.5-5.84 4.74 0 3.3 2.2 4.74 5.84 4.74h5.26v4.28h-5.03c-6.13 0-10.18-2.89-10.18-9.13 0-6.19 4.05-9.08 10.18-9.08h20.93c6.13 0 10.18 2.89 10.18 9.08-.01 6.24-4.06 9.13-10.18 9.13zM246.39 62.74c6.19 0 10.18 3.06 10.18 9.25 0 6.24-3.99 9.31-10.18 9.31h-20.93c-6.13 0-10.18-3.06-10.18-9.31 0-6.19 4.05-9.25 10.18-9.25h20.93zm-21.16 4.46c-3.7 0-5.84 1.56-5.84 4.8 0 3.3 2.14 4.8 5.84 4.8h21.39c3.64 0 5.84-1.5 5.84-4.8 0-3.24-2.2-4.8-5.84-4.8h-21.39zM215.69 89.57v-4.05h40.47v5.72l-29.25 9.37h29.25v3.99h-40.47v-4.68l32.72-10.35h-32.72zM256.16 112.64l-35.21 6.59 35.21 6.53v4.16l-40.47-7.57v-6.65l40.47-7.63v4.57zM238.23 147.79h-4.05v-9.89h-14.4v12.14h-4.1v-16.65h40.47v16.65h-4.1V137.9h-13.82v9.89zM215.69 158.2v-4.05h40.47v5.72l-29.25 9.37h29.25v3.99h-40.47v-4.68l32.72-10.35h-32.72zM215.69 183.69h36.37v-7.46h4.1v19.37h-4.1v-7.46h-36.37v-4.45zM256.16 203.18h-40.47v-4.51h40.47v4.51zM246.39 207.45c6.19 0 10.18 3.06 10.18 9.25 0 6.24-3.99 9.31-10.18 9.31h-20.93c-6.13 0-10.18-3.06-10.18-9.31 0-6.19 4.05-9.25 10.18-9.25h20.93zm-21.16 4.45c-3.7 0-5.84 1.56-5.84 4.8 0 3.3 2.14 4.8 5.84 4.8h21.39c3.64 0 5.84-1.5 5.84-4.8 0-3.24-2.2-4.8-5.84-4.8h-21.39zM215.69 234.28v-4.05h40.47v5.72l-29.25 9.37h29.25v3.99h-40.47v-4.68l32.72-10.35h-32.72zM126.15 91.7v68.68l77.11-68.68zM203.26 111.21l-47.6 46.34 47.6-12.36zM203.26 183.45l-71.73-20.68 71.73 61.75zM126.8 188.2v86.07l58.03-45.64z"/></g><path style="fill:#7444e4;stroke:#263238;stroke-linecap:round;stroke-linejoin:round;stroke-miterlimit:10" d="M601.5 288.8s3.66 31.3-.67 50.62c-4.33 19.32-6.66 39.3-6.66 39.3s3.33 8.66-.33 20.98-8.33 36.63-8.33 36.63 1.67 4 3 5.66c1.33 1.67 10.66.33 12.32 4.66 1.67 4.33.33 8.99.33 8.99h-33.3s-1.33-4.33-1.33-9.66 3.66-12.99 3.66-16.32-2-34.97-2-46.62c0-11.66-5-52.28-5-52.28l-5.33-.33-15.98 36.63s-22.98 67.6-24.64 71.6c-1.67 4-2.66 14.65-5.99 15.65s-10.99-2.66-10.99-2.66l-2-3s-3.66.67-5 .67c-1.33 0-14.65-5.99-17.65-7.99-3-2 0-5 1.67-6.66s5.33-2.66 9.32-1c4 1.67 17.32 2 17.32 2s3.45-38.14 3.45-41.14 5.88-29.13 8.21-33.12c2.33-4 2-55.28 18.32-77.93l67.6 5.32z"/><path style="fill:#263238;stroke:#263238;stroke-linecap:round;stroke-linejoin:round;stroke-miterlimit:10" d="m601.5 288.8-13.65-1.08v41.21l-22.95 14.06.36 5.73 22.59-7.53v25.53l-20.74-.25c.56 6.09.98 11.61 1.07 15.24h26.78c-.37-1.91-.78-3-.78-3s2.33-19.98 6.66-39.3c4.32-19.31.66-50.61.66-50.61zM546.41 284.45l-12.52-.99c-16.32 22.65-15.98 73.93-18.32 77.93-.51.87-1.1 2.91-1.7 5.61l24.5 10.37c2.12-6.22 3.51-10.31 3.51-10.31l1.41-3.23-19.62-7.61 8.36-26.4 19.6 14.96 2.15-5.02-18.35-20.68 10.98-34.63z"/><path style="fill:#263238;stroke:#263238;stroke-linecap:round;stroke-linejoin:round;stroke-miterlimit:10" d="m603.16 276.14-1 14.66s-11.53 6.13-37.5 2.46c-25.98-3.66-30.76-9.79-30.76-9.79l4.33-16.32s27.63 11.65 64.93 8.99z"/><path style="fill:#fff;stroke:#263238;stroke-linecap:round;stroke-linejoin:round;stroke-miterlimit:10" d="M560.25 284.45c-.26 2.41 3.72 4.81 8.89 5.36 5.17.55 9.56-.96 9.82-3.37s-3.72-4.81-8.89-5.36c-5.17-.55-9.57.96-9.82 3.37z"/><path style="fill:#7444e4;stroke:#263238;stroke-linecap:round;stroke-linejoin:round;stroke-miterlimit:10" d="M492.94 181.23c1.99 2.66 13.32 7.66 13.32 7.66s6.33 58.61 11.65 61.61c5.33 3 20.65-9.66 20.65-9.66s-1.66 20.31-1 24.98c.66 4.66.33 6.99 7.66 8.99 7.33 1.99 35.63 6.66 44.95 5.99 9.33-.67 10.33-.67 12.99-4.66 2.67-3.99 1.66-29.31 1.66-29.31s16.32 18.65 20.98 20.98c4.66 2.33 9.33-2.33 13.98-9.32 4.66-7 9.33-37.97 9.33-37.97s7.66-.67 12.65-4.66c4.99-4 7.66-10.98 7.66-13.98s-8.33 4-9.33 4-6.99 3.33-6.99 3.33.33-1.33.66-2.33c.34-1 1.01-1.66 3-3.33 2-1.66 1-4.33-.67-4-1.66.34-5.32 1.34-9.99 4-4.66 2.66-5.32 10.99-5.32 10.99l-14.66 25.98-6.99-17.98s0-.45-.06-1.28c-.14-2.19-.68-7.01-2.61-13.04-1.82-5.68-13.4-9.03-20.58-10.59-.71-.15-1.36-.28-1.97-.4-2.28-.45-3.77-.66-3.77-.66l.67-11.32-16.99-3.67-3.66 10.33h-2s-.87-.54-2.38-1.2c-.46-.21-.99-.42-1.56-.65-3.94-1.48-10.32-2.95-16.7-.48-10.33 4-11.32 19.32-11.32 19.32l-.41.53-8.58 10.8-11.32-29.64s1.34-5.99 1.99-8.99c.67-2.99-2.32-5.99-4.66-7.66-2.33-1.66-4.99-2.67-6.33-4.66-1.34-1.99-5.33-1-4.66 1 .64 1.92 3.72 4.75 3.98 4.98-.4-.18-9.32-5.48-7.64-4.65 1.33.66-3.67-2-4.66-3.33-1-1.34-2.33-1.66-4.33 0-1.97 1.63 1.36 11.29 3.36 13.95z"/><path style="fill:#263238;stroke:#263238;stroke-linecap:round;stroke-linejoin:round;stroke-miterlimit:10" d="m596.38 229.45-10.9 7.31 8.39 10.1-12.88-2.53-1.2 13.06-7.32-10.89-10.09 8.38 2.53-12.87-13.06-1.21 10.89-7.31-8.39-10.1 12.88 2.54 1.21-13.07 7.31 10.89 10.09-8.38-2.53 12.87z"/><path style="fill:none;stroke:#263238;stroke-linecap:round;stroke-linejoin:round;stroke-miterlimit:10" d="M589.56 207.57s3.6 14.93 3.6 25.23M591.02 272.95c-.94 2.03-2.1 3.86-3.52 5.15M594.71 259.05s-.6 5.42-2.43 10.75M555.49 223.28a48.68 48.68 0 0 0-.94 4.36M566.91 201.39s-6.37 7.04-10.18 17.88M551.98 252.88s-2.57 9.78 2.57 19.56M568.02 321.45l-3.17 3.5M583.9 303.85l-11.48 12.72M547.34 295.61l5.15 17.5"/><path style="fill:#263238;stroke:#263238;stroke-linecap:round;stroke-linejoin:round;stroke-miterlimit:10" d="m527.24 220.2 3.2 9.97M626.14 240.51l-6.07 7.69M595.91 197.62c9.56 13.05 9.25 38.9 9.25 38.9l13.93-15.26c-.14-2.19 1.12-6.36-.58-12.46-2.93-10.6-15.42-9.62-22.6-11.18zM568.2 191.89s-.87-.54-2.38-1.2c.74 4.94 3.36 15.73 12.04 17.52 9.22 1.9 14.46-7.45 16.09-10.99-2.28-.45-3.77-.66-3.77-.66l.67-11.32-16.99-3.67-3.66 10.33h-2zM535.82 209.4l5.08 13.79 23.36-33.15c-3.94-1.48-10.32-2.95-16.7-.48-10.33 4-11.32 19.32-11.32 19.32l-.42.52z"/><path style="fill:#fff;stroke:#263238;stroke-linecap:round;stroke-linejoin:round;stroke-miterlimit:10" d="M592.18 143.27s12.65 2.66 12.32 14.32c-.33 11.66-6.99 24.98-10.99 29.31-4 4.33-11.32 4-16.65 1-5.33-3-8.99-11.66-7.33-20.65 1.67-8.99.33-17.65 7.33-22.31 6.99-4.67 15.32-1.67 15.32-1.67z"/><path style="fill:#263238;stroke:#263238;stroke-linecap:round;stroke-linejoin:round;stroke-miterlimit:10" d="M581.92 172.7s-1.35.76-3.66.07c-2.32-.69-5.02-3.15-4.79-.69.22 2.46 1.16 5.3 3.78 6.86 2.62 1.56 4.49-.18 4.49-.18l1.5-.81s-.89 2.56 3.62 2.6c4.51.04 6.4-3.96 6.27-5.3-.13-1.35-5.39 1.24-11.21-2.55z"/><path style="fill:#263238;stroke:#263238;stroke-linecap:round;stroke-linejoin:round;stroke-miterlimit:10" d="M576.86 144.93c6.99-4.66 15.32-1.67 15.32-1.67s12.65 2.66 12.32 14.32c-.22 7.55-3.09 15.79-6.17 21.85-3.03-3.67-11.12-12.93-15.14-11.85-3.7.99-9.97 2.89-14.05 4.76-.05-1.66.07-3.37.39-5.09 1.67-9 .33-17.66 7.33-22.32z"/><path style="fill:#fff;stroke:#263238;stroke-linecap:round;stroke-linejoin:round;stroke-miterlimit:10" d="M571.53 161.25c0 2.94 2.76 5.33 6.16 5.33 3.4 0 6.16-2.39 6.16-5.33s-2.76-5.33-6.16-5.33c-3.4 0-6.16 2.39-6.16 5.33zM588.55 163.89c-.33 2.92 2.14 5.6 5.53 5.98 3.38.38 6.39-1.68 6.72-4.6.33-2.92-2.14-5.6-5.53-5.98-3.38-.39-6.39 1.68-6.72 4.6z"/><path style="fill:#263238" d="M592.52 164.54c-.17 1.18.36 2.24 1.18 2.35.82.12 1.62-.75 1.79-1.93.17-1.18-.36-2.24-1.18-2.35-.82-.12-1.62.74-1.79 1.93zM577.37 161.71c-.17 1.18.36 2.24 1.18 2.35.82.12 1.62-.75 1.79-1.93.17-1.18-.36-2.24-1.18-2.35-.82-.12-1.62.74-1.79 1.93z"/><path style="fill:none;stroke:#263238;stroke-linecap:round;stroke-linejoin:round;stroke-miterlimit:10" d="m583.19 167.58-1 4.99 3.99 1.67"/><path style="fill:#fff;stroke:#263238;stroke-linecap:round;stroke-linejoin:round;stroke-miterlimit:10" d="M602.5 167.91s5.33.67 2.66 5c-2.66 4.33-6.33 5-6.33 5l3.67-10zM570.2 161.92s-3-4.33-4.33-.33 3.66 8.99 3.66 8.99l.67-8.66z"/><path style="fill:#263238;stroke:#263238;stroke-linecap:round;stroke-linejoin:round;stroke-miterlimit:10" d="m538.56 240.84-.33-15.32-3.91 17.69zM605.83 247.17l1.67-8.66.92 12.75zM493.94 167.25c1 1.33 5.99 3.99 4.66 3.33-1.68-.84 7.24 4.47 7.64 4.65-.25-.24-3.34-3.07-3.98-4.98-.67-1.99 3.33-2.99 4.66-1 1.34 1.99 4 3 6.33 4.66 2.33 1.66 5.32 4.66 4.66 7.66-.66 3-1.99 8.99-1.99 8.99l8.31 21.75c-2.37 1.63-6.81 3.73-14.41 4.42-2.1-14.36-3.56-27.83-3.56-27.83s-11.32-4.99-13.32-7.66c-2-2.66-5.33-12.32-3.33-13.99 1.99-1.67 3.33-1.34 4.33 0zM628.26 236.76l12.54-22.22s.66-8.33 5.32-10.99 8.32-3.66 9.99-4c1.66-.33 2.67 2.33.67 4-1.99 1.66-2.66 2.33-3 3.33-.33 1.01-.66 2.33-.66 2.33s5.99-3.33 6.99-3.33 9.33-7 9.33-4-2.67 9.99-7.66 13.98c-4.99 4-12.65 4.66-12.65 4.66s-2.31 15.32-5.3 26.84c-5.05.19-11.85-1.51-15.57-10.6zM566.53 445.98c0-5.33 3.66-12.99 3.66-16.32 0-2.37-1.01-19.01-1.59-32.64h25.93c-.2.87-.42 1.75-.69 2.66-3.66 12.32-8.33 36.63-8.33 36.63s1.67 4 3 5.66c1.33 1.67 10.66.33 12.32 4.66 1.67 4.33.33 8.99.33 8.99h-33.3c.01.02-1.33-4.31-1.33-9.64zM477.29 434.66c1.67-1.67 5.33-2.66 9.32-1 4 1.67 17.32 2 17.32 2s3.45-38.14 3.45-41.14c0-.95.78-3.19 1.4-7.7l22.85 10.33c-6.36 18.6-13.48 39.34-14.38 41.5-1.67 4-2.66 14.65-5.99 15.65s-10.99-2.66-10.99-2.66l-2-3s-3.66.67-5 .67c-1.33 0-14.65-5.99-17.65-7.99-3-2 0-5 1.67-6.66z"/><path style="fill:#949494;stroke:#263238;stroke-linecap:round;stroke-linejoin:round;stroke-miterlimit:10" d="M457.27 274.46s7.99 37.15 7.52 62.07c-.47 24.92-3.29 39.5-3.29 39.5h-26.8s-5.17-12.23-2.35-35.74 24.92-65.83 24.92-65.83z"/><path style="fill:#263238;stroke:#263238;stroke-linecap:round;stroke-linejoin:round;stroke-miterlimit:10" d="M405.91 250.23s-9.08 27.54-9.39 48.2c-.31 20.66 6.26 46.01 8.45 50.7 2.19 4.69.63 16.59 3.76 27.85 3.13 11.27 14.4 36.3 15.96 40.37 1.56 4.07 2.5 12.21 2.5 13.77 0 1.56-.31 7.51-.31 11.89s-5.32 3.13-5.95 4.69c-.63 1.56-.94 6.57.31 7.51 1.25.94 20.03 0 20.03 0l.94-10.95 1.25 10.95h2.82s.31-10.33.63-15.65-1.88-10.33-3.13-11.27c-1.25-.94-2.5-3.13-2.5-3.13l-2.5-16.9-6.89-46.63s13.46-39.12 16.9-56.65c3.44-17.53 8.14-31.92 8.14-38.81 0-6.89-6.57-21.91-6.57-21.91l-43.19-1.25-1.26 7.22z"/><path style="fill:#fff;stroke:#263238;stroke-linecap:round;stroke-linejoin:round;stroke-miterlimit:10" d="M454.42 257.74s12.83 28.48 5.32 53.52c-7.51 25.04-18.78 42.25-18.78 42.25s8.14 14.4 5.63 30.98c-2.5 16.59-5.95 35.99-5.95 35.99l.63 4.69s1.88 2.82 2.5 9.08c.63 6.26-.31 20.97-.31 20.97h-3.76v-9.7l-3.44 10.01h-20.03s-.31-4.69.31-6.26c.63-1.56 4.69-4.07 6.89-6.26s2.5-9.7 3.44-12.83 2.19-6.89 2.19-6.89-2.82-19.4-5.32-28.48c-2.5-9.08-6.89-37.24-6.89-38.5s0-10.33.31-11.58 5.32-45.69 14.4-69.48"/><path style="fill:#263238;stroke:#263238;stroke-linecap:round;stroke-linejoin:round;stroke-miterlimit:10" d="M443.46 455.22s.94-14.71.31-20.97c-.63-6.26-2.5-9.08-2.5-9.08l-.63-4.69s3.44-19.4 5.95-35.99c2.5-16.59-5.63-30.98-5.63-30.98s2.55-3.9 6.03-10.67c-11.67-15.58-22.35-13.36-28.13-10.2-1.02 7-1.58 11.7-1.68 12.1-.31 1.25-.31 10.33-.31 11.58s4.38 29.42 6.89 38.5c2.5 9.08 5.32 28.48 5.32 28.48s-1.25 3.76-2.19 6.89-1.25 10.64-3.44 12.83c-2.19 2.19-6.26 4.69-6.89 6.26-.63 1.56-.31 6.26-.31 6.26h20.03l3.44-10.02v9.7h3.74z"/><path style="fill:#949494;stroke:#263238;stroke-linecap:round;stroke-linejoin:round;stroke-miterlimit:10" d="M447.48 247.32s2.62 5.23-10.47 27.8c-13.08 22.57-16.35 46.77-17.66 54.62-1.31 7.85-4.25 24.53-2.62 28.45 1.64 3.92 2.29 15.04 2.29 15.04l.65 2.62h-30.42s-5.56-28.45 0-66.07c5.56-37.61 16.64-59.57 16.64-59.57l41.59-2.89z"/><path style="fill:#fff;stroke:#263238;stroke-linecap:round;stroke-linejoin:round;stroke-miterlimit:10" d="m395.98 320.07-6.27 26.96 7.53-11.28 1.25 32.6 5.64-29.47 9.41 19.44-3.14-36.36"/><path style="fill:#fff;stroke:#263238;stroke-linecap:round;stroke-linejoin:round;stroke-miterlimit:10" d="M411.03 247.97s-8.34 21.28-14.51 50.45c-6.18 29.18-3.67 46.73 6.36 45.48 10.03-1.25 11.29-23.83 18.18-44.52 6.9-20.69 18.81-50.79 18.81-50.79l-28.84-.62z"/><path style="fill:#fff;stroke:#263238;stroke-linecap:round;stroke-linejoin:round;stroke-miterlimit:10" d="M414.79 249.85S401 301.89 401 318.82s5.02-3.13 13.17-23.83c8.15-20.69 15.67-44.52 15.67-44.52l-15.05-.62z"/><path style="fill:#263238;stroke:#263238;stroke-linecap:round;stroke-linejoin:round;stroke-miterlimit:10" d="M405.59 213.61s-9.08 15.91-9.08 24.41c0 16.59 14.71 16.27 33.8 16.27 19.09 0 26.92-12.52 29.11-19.09s5.63-17.21 1.88-22.22c-3.76-5.01-13.77-20.34-21.91-18.47-8.14 1.88-16.27 5.32-17.53 6.57-1.25 1.25-7.82 9.08-7.82 9.08l-8.45 3.45z"/><path style="fill:#fff;stroke:#263238;stroke-linecap:round;stroke-linejoin:round;stroke-miterlimit:10" d="M446.9 196.66c-2.53-1.74-5.1-2.7-7.5-2.15-8 1.85-15.99 5.2-17.44 6.5.38 4.02 2.08 10.76 8.99 12.27 8.03 1.77 14.04-9.15 15.95-16.62z"/><path style="fill:#7444e4;stroke:#263238;stroke-linecap:round;stroke-linejoin:round;stroke-miterlimit:10" d="M419.36 204.22s-10.01-1.88-18.47-4.69c-8.45-2.82-10.95-3.44-10.95-3.44s-.94 16.27 8.45 20.66c9.39 4.38 18.78 1.25 18.78 1.25l2.19-13.78z"/><path style="fill:#fff;stroke:#263238;stroke-linecap:round;stroke-linejoin:round;stroke-miterlimit:10" d="M419.05 186.07s-1.56 12.83-5.01 24.1c-3.44 11.27-6.89 15.34-6.89 15.34l14.71-.31s3.44-8.76 5.32-15.02c1.88-6.26 3.13-11.58 3.13-11.58s-11.26-8.15-11.26-12.53z"/><path style="fill:#fff;stroke:#263238;stroke-linecap:round;stroke-linejoin:round;stroke-miterlimit:10" d="M415.92 172.92s.31 10.33 1.25 13.77c.94 3.44 6.26 11.27 9.39 13.14 3.13 1.88 5.95 1.56 9.7-.63 3.76-2.19 6.26-7.82 8.14-11.27 1.88-3.44 2.82-14.08 2.82-14.08s-12.83-7.2-19.4-7.2c-6.58.01-11.9 6.27-11.9 6.27z"/><path style="fill:#fff;stroke:#263238;stroke-linecap:round;stroke-linejoin:round;stroke-miterlimit:10" d="M442.21 170.73s-2.5 20.34-6.57 34.11-8.76 21.91-8.76 21.91l20.97-1.25 4.69-18.78 17.53-2.19s-9.08-12.21-13.14-17.84c-4.07-5.63-5.63-8.14-5.63-8.14l-9.09-7.82z"/><path style="fill:none;stroke:#263238;stroke-width:2;stroke-linecap:round;stroke-linejoin:round;stroke-miterlimit:10" d="M424.37 177.3s-2.25-2.6-5.95.31M430.32 176.99s5.01-2.5 7.2.63"/><path style="fill:none;stroke:#263238;stroke-linecap:round;stroke-linejoin:round;stroke-miterlimit:10" d="M425.62 175.74s.63 1.25.63 3.13-2.82 5.95-2.82 5.95l4.69-.31M425.62 188.57s7.91 2.03 10.64-3.76"/><path style="fill:#fff;stroke:#263238;stroke-linecap:round;stroke-linejoin:round;stroke-miterlimit:10" d="M438.65 277.02c-3.42 1.74-6.14 2.94-6.14 2.94l-11.27-2.5s-8.76 3.44-9.7 4.69c-.94 1.25.94 4.38 2.82 4.69l1.88.31s3.44 4.38 4.69 4.69c1.25.31 12.52-2.82 12.52-2.82s3.37-1.26 8.21-3.11l-3.01-8.89z"/><path style="fill:#fff;stroke:#263238;stroke-linecap:round;stroke-linejoin:round;stroke-miterlimit:10" d="M470.26 436.26 384.2 159.02c11.66-4.83 19.63-16.82 18.39-30.46-1.31-14.46-13.11-26.02-27.58-27.07-18.3-1.33-33.49 13.9-32.08 32.22 1.05 13.6 11.42 24.89 24.87 27.16 4.16.7 8.17.49 11.92-.4l86.04 277.18c.39 1.24 1.7 1.93 2.94 1.55h0c1.25-.38 1.95-1.7 1.56-2.94zM347.55 131.35c0-13.92 11.32-25.24 25.24-25.24s25.24 11.32 25.24 25.24c0 13.92-11.32 25.24-25.24 25.24s-25.24-11.32-25.24-25.24z"/><circle transform="rotate(-45.001 398.959 124.175)" style="fill:#7444e4;stroke:#263238;stroke-linecap:round;stroke-linejoin:round;stroke-miterlimit:10" cx="398.96" cy="124.17" r="11.41"/><circle transform="rotate(-13.326 349.923 113.422)" style="fill:#7444e4;stroke:#263238;stroke-linecap:round;stroke-linejoin:round;stroke-miterlimit:10" cx="349.95" cy="113.43" r="7.38"/><circle transform="rotate(-13.239 360.066 153.723)" style="fill:#7444e4;stroke:#263238;stroke-linecap:round;stroke-linejoin:round;stroke-miterlimit:10" cx="360.02" cy="153.71" r="7.38"/><path style="fill:#263238;stroke:#263238;stroke-linecap:round;stroke-linejoin:round;stroke-miterlimit:10" d="M482.27 194.2s5.95 4.38 3.13 13.77c-2.82 9.39-10.95 11.27-10.95 11.27l-5.63-10.64c-.01 0 10.32-9.7 13.45-14.4z"/><path style="fill:#fff;stroke:#263238;stroke-linecap:round;stroke-linejoin:round;stroke-miterlimit:10" d="M458.17 216.74s.63 5.63 3.13 11.89c2.5 6.26 7.51 25.98 7.51 25.98s-13.46 10.33-18.47 15.02c-5.01 4.69-17.84 10.33-17.84 10.33l-11.27-2.5s-8.76 3.44-9.7 4.69c-.94 1.25.94 4.38 2.82 4.69l1.88.31s3.44 4.38 4.69 4.69c1.25.31 12.52-2.82 12.52-2.82s35.05-13.14 41.63-16.59c6.57-3.44 8.45-4.69 9.08-8.14.63-3.44-1.56-25.35-1.56-31.3 0-5.95-2.82-18.78-4.07-21.28-1.25-2.5-3.13-5.01-3.13-5.01l-17.22 10.04z"/><path style="fill:#263238;stroke:#263238;stroke-linecap:round;stroke-linejoin:round;stroke-miterlimit:10" d="m482.59 233.29-17.55 7.23c.82 2.92 1.61 5.84 2.26 8.27l15.78-6.52c-.27-3.78-.48-7.07-.49-8.98z"/><path style="fill:#7444e4;stroke:#263238;stroke-linecap:round;stroke-linejoin:round;stroke-miterlimit:10" d="M482.27 194.2s-19.4 8.76-23.47 10.64c-4.07 1.88-7.51.94-7.51 7.82 0 6.89 6.89 7.2 16.59 3.44 9.7-3.74 14.39-21.9 14.39-21.9zM439.27 276.7c-3.71 1.92-6.76 3.26-6.76 3.26l-11.27-2.5s-8.76 3.44-9.7 4.69c-.94 1.25.94 4.38 2.82 4.69l1.88.31s3.44 4.38 4.69 4.69c1.25.31 12.52-2.82 12.52-2.82s3.86-1.45 9.26-3.51l-3.44-8.81z"/><path style="fill:#7444e4;stroke:#263238;stroke-linecap:round;stroke-linejoin:round;stroke-miterlimit:10" d="m433.13 277.45 5.01 12.52 10.02-3.44-5.95-13.14z"/><path style="fill:#92e3a9;stroke:#263238;stroke-linecap:round;stroke-linejoin:round;stroke-miterlimit:10" d="M403.3 201.81s2.73-1.37 3.42-.68c.68.68 2.56 4.44 2.56 6.32s-2.91 1.54-3.93.34c-1.02-1.19-2.05-5.98-2.05-5.98z"/><path style="fill:#fff;stroke:#263238;stroke-linecap:round;stroke-linejoin:round;stroke-miterlimit:10" d="M403.2 200.67h0c-.01 0-11.7 2.53-11.7 4.43s-.32 16.12-.32 16.12-7.9 16.12-8.53 25.92c-.63 9.8 3.16 11.7 8.53 10.43 5.37-1.26 8.53-6.95 9.17-16.12.63-9.17.32-20.86.32-20.86s7.27-4.74 7.59-6.32c.31-1.59-5.06-13.6-5.06-13.6z"/><path style="fill:#7444e4;stroke:#263238;stroke-linecap:round;stroke-linejoin:round;stroke-miterlimit:10" d="m392.85 219.13-4.39 1.88-1.25 8.78s6.9 4.28 13.31 2.15c2.63-.88 1.1-9.64 1.1-9.64l-6.25-3.17h-2.52z"/><path style="fill:#7444e4;stroke:#263238;stroke-linecap:round;stroke-linejoin:round;stroke-miterlimit:10" d="M391.5 205.09c0 1.9-.32 16.12-.32 16.12s-.17.34-.44.93c1.26 2.17 4.03 3.88 9.99 2.11-.02-2.24-.06-3.67-.06-3.67s7.27-4.74 7.59-6.32c.32-1.58-5.06-13.59-5.06-13.59-.01 0-11.7 2.53-11.7 4.42z"/><path style="fill:none;stroke:#263238;stroke-linecap:round;stroke-linejoin:round;stroke-miterlimit:10" d="M430.32 172.89s3.08-3.82 8.43 1.72M424.7 172.89s-4.93-1.19-7 2.57"/><path style="fill:#7444e4;stroke:#263238;stroke-linecap:round;stroke-linejoin:round;stroke-miterlimit:10" d="M414.36 167.6s1.25-1.56-2.5-8.45c-3.76-6.89-1.88-20.34 2.82-17.53 4.69 2.82 4.69 9.7 4.69 9.7s-2.82-18.15 11.27-23.79c14.08-5.63 8.45 18.78 8.45 18.78s14.08-10.02 19.4-6.26c5.32 3.76-8.76 20.34-8.76 20.34s17.53-3.13 15.65 4.07-11.89 11.58-11.89 11.58-10.95-7.51-20.66-10.64c-9.71-3.12-18.47 2.2-18.47 2.2z"/><path style="fill:none;stroke:#263238;stroke-linecap:round;stroke-linejoin:round;stroke-miterlimit:10" d="M428.1 144.13c.44-1.3.98-2.56 1.64-3.72M416.3 155.87l6.34 8.37 3.55-4.31s-.42-6.55 1.12-13.04M444.02 156.8l-9.97 7.69 12.42 8.11 8.62-4.56M446.21 155.11l-.73.57"/><path style="fill:#263238;stroke:#263238;stroke-linecap:round;stroke-linejoin:round;stroke-miterlimit:10" d="M415.29 174.17s5.95-5.32 15.02-4.69c9.08.63 22.22 9.7 22.22 9.7l.94-3.13s-3.76-2.82-7.82-6.26c-4.07-3.44-5.95-3.76-5.95-3.76s-11.27-13.14-15.34-10.33c-4.07 2.82-10.02 11.89-10.02 11.89l.95 6.58zM269.52 411.75l.7 25.37s-9.51 9.51-11.98 10.22c-2.47.7-9.16 4.58-7.4 6.69 1.76 2.11 35.59 0 35.59 0h4.93s2.47-7.4 1.41-11.27c-1.06-3.88-4.93-9.16-4.58-14.09.35-4.93 2.47-18.32 2.47-18.32l-21.14 1.4z"/><path style="fill:#949494;stroke:#263238;stroke-linecap:round;stroke-linejoin:round;stroke-miterlimit:10" d="m250.26 275.57-11.76 7.63s-6.04-5.4-9.21-4.77c-3.18.64-6.35 6.67-5.4 7.31.95.64-2.22 5.72.32 9.21 2.54 3.5 3.5 4.77 8.26 3.5 4.77-1.27 13.03-5.4 13.03-5.4l7.31-2.22c-.01-.01.94-14.63-2.55-15.26z"/><path style="fill:#949494;stroke:#263238;stroke-linecap:round;stroke-linejoin:round;stroke-miterlimit:10" d="M238.18 295.9s-3.41 4.43-8.49 4.11c-5.08-.32-6.44-3.79-9.3-5.7-2.86-1.91-.64-7.94 0-9.85.64-1.91 6.04.64 6.04.64s10.8 3.18 11.44 4.77c.64 1.59-.95 3.5-2.54 4.45"/><path style="fill:#949494;stroke:#263238;stroke-linecap:round;stroke-linejoin:round;stroke-miterlimit:10" d="M226.11 280.33s-4.77 2.86-3.81 6.04c.95 3.18 11.76 3.5 12.07 1.59.32-1.91-4.13-3.5-4.13-3.5"/><path style="fill:#949494;stroke:#263238;stroke-linecap:round;stroke-linejoin:round;stroke-miterlimit:10" d="M234.37 287.96s4.13-1.91 7.63 0"/><path style="fill:#7444e4;stroke:#263238;stroke-linecap:round;stroke-linejoin:round;stroke-miterlimit:10" d="M251.65 290.42s-2.47 32.23-.49 46.09c1.98 13.85 10.88 24.24 10.88 24.24s-1.26 14.28.22 21.7 3.24 16.81 9.18 17.8c5.94.99 22.26.99 23.75-1.98 1.48-2.97-3.46-36.61-3.46-38.59 0-1.98-2.97-65.31-2.97-65.31l-37.11-3.95z"/><path style="fill:#7444e4;stroke:#263238;stroke-linecap:round;stroke-linejoin:round;stroke-miterlimit:10" d="M271.94 298.34s-.64 23.23 5.44 41.06c5.07 14.87 7.85 20.43 7.85 20.43s.87 17.55 1.74 21.92c1.39 6.96 6.74 18.99 6.74 18.99h22.76s5.44-17.81 2.97-28.2-5.94-20.28-5.94-22.26c0-1.98 8.41-48.48 2.47-60.85-5.94-12.37-39.08 0-44.03 8.91z"/><path style="fill:#949494;stroke:#263238;stroke-linecap:round;stroke-linejoin:round;stroke-miterlimit:10" d="M293.48 398.01s-15.85-4.58-29.24 0l3.17 17.62h25.02l1.05-17.62z"/><path style="fill:#263238;stroke:#263238;stroke-linecap:round;stroke-linejoin:round;stroke-miterlimit:10" d="M293.13 408.58s2.47 23.61 2.47 26.07c0 2.47-9.16 9.16-10.92 11.63-1.76 2.47-6.69 5.29-5.28 8.1 1.41 2.82 35.94 0 35.94 0s.7-5.28.7-10.57c0-5.28-.7-13.04-.7-13.04l.35-17.97c-.01.01-13.4-7.74-22.56-4.22z"/><path style="fill:#949494;stroke:#263238;stroke-linecap:round;stroke-linejoin:round;stroke-miterlimit:10" d="m288.9 396.6 2.11 19.03h29.24v-20.08c.01 0-19.37-3.88-31.35 1.05z"/><path style="fill:#7444e4;stroke:#263238;stroke-linecap:round;stroke-linejoin:round;stroke-miterlimit:10" d="M272.89 133.95s-11.91.66-14.56 12.91c-2.65 12.24 1.65 34.42 3.97 35.74 2.32 1.32 10.59-.99 10.59-.99s-1.65 5.96-5.63 9.6c-3.97 3.64-18.53 9.93-22.17 26.47-3.64 16.55-4.96 37.06-3.31 43.02 1.65 5.96 7.61 4.96 7.61 4.96l.33 7.28s-3.64 10.92-1.99 16.55c1.65 5.63 11.58 16.88 20.19 20.19 8.6 3.31 8.66-5.65 21.16-11 9.24-3.96 20.54-5.54 25.17-4.88 4.63.66 6.62-8.27 7.28-14.23.66-5.96-3.64-10.26-3.64-10.26l-2.32-8.27 14.23-2.65s3.97-27.8 3.97-43.35-7.28-21.51-15.22-24.16c-7.94-2.65-13.57-3.97-13.57-3.97s-8.94-6.95-9.6-8.6c-.66-1.65 0-15.22.66-21.51s1.99-17.54-4.63-21.51c-6.61-3.99-18.52-1.34-18.52-1.34z"/><path style="fill:none;stroke:#263238;stroke-linecap:round;stroke-linejoin:round;stroke-miterlimit:10" d="M260.06 159.46s-2.39 3.58-1.19 5.73c1.19 2.15 3.11 8.12 3.11 8.12"/><path style="fill:#7444e4;stroke:#263238;stroke-linecap:round;stroke-linejoin:round;stroke-miterlimit:10" d="M314.26 293.79c4.63.66 6.62-8.27 7.28-14.23.46-4.14-1.47-7.47-2.7-9.13l-69.21.47.09 2.04s-3.64 10.92-1.99 16.55c1.65 5.63 11.58 16.88 20.19 20.19 8.6 3.31 8.66-5.65 21.16-11 9.24-3.97 20.54-5.56 25.18-4.89z"/><path style="fill:#263238" d="m309.04 220.17-12.86-13.86 8.41 16.33z"/><path style="fill:#263238;stroke:#263238;stroke-miterlimit:10" d="m272.89 181.6 8.85-1.92 4.23-.85 5.27-5.17s-5.44 9.4-7.42 13.36c-1.98 3.96-14.35 2.47-14.35 2.47l3.42-7.89"/><ellipse style="fill:#fff;stroke:#263238;stroke-linecap:round;stroke-linejoin:round;stroke-miterlimit:10" cx="272.56" cy="153.14" rx="6.29" ry="5.29"/><path style="fill:none;stroke:#263238;stroke-linecap:round;stroke-linejoin:round;stroke-miterlimit:10" d="M269.5 150.83s3-3.33 7-.83"/><path style="fill:#fff;stroke:#263238;stroke-linecap:round;stroke-linejoin:round;stroke-miterlimit:10" d="M260.32 154.13c0-2.28-1.09-4.13-2.47-4.27-.32 2.64-.4 5.57-.31 8.55.05 0 .09.02.13.02 1.46 0 2.65-1.92 2.65-4.3z"/><ellipse style="fill:#fff;stroke:#263238;stroke-linecap:round;stroke-linejoin:round;stroke-miterlimit:10" cx="291.42" cy="156.61" rx="4.3" ry="5.79"/><path style="fill:#263238;stroke:#263238;stroke-linecap:round;stroke-linejoin:round;stroke-miterlimit:10" d="m249.73 272.94 52.4-2.24-1.25-10.04-52.43 4.08z"/><path style="fill:#fff;stroke:#263238;stroke-linecap:round;stroke-linejoin:round;stroke-miterlimit:10" d="M313.93 235.87c-34.76-7.14-60.26-2.64-71.84.45-1.2 10.84-1.36 20.57-.3 24.37 1.65 5.96 7.61 4.96 7.61 4.96l66.19-4.63-1.66-25.15z"/><ellipse transform="rotate(-57.073 264.8 214.388)" style="fill:#263238;stroke:#263238;stroke-linecap:round;stroke-linejoin:round;stroke-miterlimit:10" cx="264.81" cy="214.4" rx="15.39" ry="12.75"/><ellipse transform="rotate(-57.073 264.8 214.388)" style="fill:#fff;stroke:#263238;stroke-linecap:round;stroke-linejoin:round;stroke-miterlimit:10" cx="264.81" cy="214.4" rx="11.6" ry="9.61"/><path style="fill:#263238;stroke:#263238;stroke-linecap:round;stroke-linejoin:round;stroke-miterlimit:10" d="M268.78 208.26c2.81 1.82 3.3 6.04 1.11 9.42-2.19 3.39-6.25 4.66-9.05 2.84-2.81-1.82-3.3-6.04-1.11-9.42 2.19-3.38 6.25-4.65 9.05-2.84z"/><path style="fill:#92e3a9;stroke:#263238;stroke-linecap:round;stroke-linejoin:round;stroke-miterlimit:10" d="M266.71 211.47c1.34.87 1.58 2.88.53 4.5s-2.98 2.22-4.32 1.36c-1.34-.87-1.58-2.88-.53-4.5 1.04-1.62 2.98-2.23 4.32-1.36z"/><circle transform="rotate(-21.782 323.217 266.455)" style="fill:#263238;stroke:#263238;stroke-linecap:round;stroke-linejoin:round;stroke-miterlimit:10" cx="323.25" cy="266.48" r="50.94"/><circle transform="rotate(-80.666 323.239 266.469)" style="fill:#fff;stroke:#263238;stroke-linecap:round;stroke-linejoin:round;stroke-miterlimit:10" cx="323.25" cy="266.48" r="39.48"/><circle transform="rotate(-76.891 323.252 266.49)" style="fill:#263238;stroke:#263238;stroke-linecap:round;stroke-linejoin:round;stroke-miterlimit:10" cx="323.25" cy="266.48" r="25.98"/><circle style="fill:#7444e4;stroke:#263238;stroke-linecap:round;stroke-linejoin:round;stroke-miterlimit:10" cx="323.25" cy="266.48" r="13.71"/><path style="fill:#263238" d="M274.99 153.43c0 1.06-.53 1.93-1.19 1.93-.65 0-1.19-.86-1.19-1.93 0-1.06.53-1.93 1.19-1.93.66.01 1.19.87 1.19 1.93zM260.47 154.28c0 .84-.42 1.53-.94 1.53s-.94-.68-.94-1.53c0-.84.42-1.53.94-1.53s.94.68.94 1.53z"/><path style="fill:#949494;stroke:#263238;stroke-linecap:round;stroke-linejoin:round;stroke-miterlimit:10" d="M120.49 219.86s4.77-5.41 11.77-3.5c7 1.91 8.91 7 8.91 7l15.27 4.45s6.05 1.27 13.05 1.27c7 0 15.27 1.59 15.27 1.59l-2.86 10.18-52.5 2.55-12.09-21.32 3.18-2.22z"/><path style="fill:#7444e4;stroke:#263238;stroke-linecap:round;stroke-linejoin:round;stroke-miterlimit:10" d="M124.3 292.72s3.82.95 3.82 5.73c0 4.77.64 9.23.64 9.23s18.14 17.18 28.64 35 8.91 25.46 8.59 28.96c-.32 3.5-9.55 53.14-9.55 57.27s.64 6.05.64 6.05 2.23 6.36 7 8.59c4.77 2.23 7.32 1.91 7.64 5.41.32 3.5 0 5.41 0 5.41h-34.05s-.64-9.55-.64-14c0-4.45 5.41-12.41 5.41-12.41s-1.91-35.96-1.91-42c0-6.05 2.86-18.46 2.86-18.46l-38.18-31.18s10.5 36.27 8.59 47.09c-1.91 10.82-21.96 45.18-21.96 45.18l-1.27 10.5s5.73 6.36 7.95 7.95c2.23 1.59 3.5 3.82 2.23 5.73-1.27 1.91-1.59 2.86-1.59 2.86H80.39s-9.55-6.05-10.18-7c-.64-.95 0-8.59 2.23-12.41 2.23-3.82 7.32-10.5 7.32-10.5s3.5-32.46 6.05-37.55c2.55-5.09 5.41-9.86 5.41-9.86s-16.23-19.41-21.96-37.55c-5.73-18.14-5.41-30.23.64-38.5s8.59-12.09 8.59-12.09l30.55 1.27 15.26 1.28z"/><path style="fill:none;stroke:#263238;stroke-linecap:round;stroke-linejoin:round;stroke-miterlimit:10" d="M119.9 319.22c-3.33 4.53-8.37 10-14.03 11.31M124.04 312.74s-.76 1.44-2.09 3.51M86.66 308.59c-1.49-.6-3.07-1.04-4.75-1.26M105.87 334.39s-4.47-16.84-15.8-24.03M92.34 306.17s-4.64-6.96-14.69-3.48"/><path style="fill:#263238;stroke:#263238;stroke-linecap:round;stroke-linejoin:round;stroke-miterlimit:10" d="m126.53 283.82-.32 10.5s-3.82 2.23-19.73 2.23-28-6.36-28-6.36l1.27-8.59 46.78 2.22z"/><path style="fill:#fff;stroke:#263238;stroke-linecap:round;stroke-linejoin:round;stroke-miterlimit:10" d="m107.89 299.09 11.98-.58v-10.87l-11.98.59z"/><path style="fill:#7444e4;stroke:#263238;stroke-linecap:round;stroke-linejoin:round;stroke-miterlimit:10" d="m113.17 213.81-1.27 7.64 8.59-1.59s8.27 6.05 11.77 17.18c3.5 11.14 4.77 20.05.32 24.82s-3.82 3.5-3.82 3.5.64 17.82-1.91 20.05c-2.55 2.23-23.55 3.18-34.68.64-11.14-2.55-13.05-3.82-13.05-7.32s1.59-10.82 1.59-10.82-9.86-17.82-10.82-29.91c-.95-12.09 2.23-19.41 8.91-21.96 6.68-2.55 14 1.91 14 1.91l3.18-13.68 17.19 9.54z"/><path style="fill:#949494;stroke:#263238;stroke-linecap:round;stroke-linejoin:round;stroke-miterlimit:10" d="m113.17 213.81-1.27 7.64s1.59 16.23 0 16.86c-1.59.64-19.09-20.36-19.09-20.36l3.18-13.68 17.18 9.54zM78.8 216.04c2.11-.8 4.29-.91 6.27-.68 2.12 1.59 5.78 4.81 9.32 10.22 5.41 8.27.95 27.05-18.77 30.86-.13.03-.25.03-.38.05-2.45-5.79-4.9-12.79-5.35-18.51-.95-12.08 2.23-19.39 8.91-21.94z"/><path transform="rotate(-180 209.103 222.404)" style="fill:#878787;stroke:#263238;stroke-linecap:round;stroke-linejoin:round;stroke-miterlimit:10" d="M206.08 217h6.05v10.82h-6.05z"/><path transform="rotate(-180 206.716 236.246)" style="fill:#878787;stroke:#263238;stroke-linecap:round;stroke-linejoin:round;stroke-miterlimit:10" d="M204.17 227.81h5.09v16.86h-5.09z"/><path style="fill:#263238;stroke:#263238;stroke-linecap:round;stroke-linejoin:round;stroke-miterlimit:10" d="M206.08 217h-36.91v15.59h10.82v11.77l24.18.32v-16.87h1.91z"/><path style="fill:#949494;stroke:#263238;stroke-linecap:round;stroke-linejoin:round;stroke-miterlimit:10" d="M183.49 230.68h7.32c2.28 0 4.14 1.85 4.14 4.14v0c0 2.28-1.85 4.14-4.14 4.14h-8.59l1.27-8.28z"/><path style="fill:#878787;stroke:#263238;stroke-linecap:round;stroke-linejoin:round;stroke-miterlimit:10" d="M221.67 223.04h-11.11c-1.41 0-2.55-1.14-2.55-2.55h0c0-1.41 1.14-2.55 2.55-2.55h11.11v5.1z"/><path style="fill:#263238;stroke:#263238;stroke-linecap:round;stroke-linejoin:round;stroke-miterlimit:10" d="M224.06 224.63h-7.16a4.3 4.3 0 0 1-4.3-4.3h0a4.3 4.3 0 0 1 4.3-4.3h7.16a4.3 4.3 0 0 1 4.3 4.3h0a4.306 4.306 0 0 1-4.3 4.3z"/><path transform="rotate(-180 184.443 213.813)" style="fill:#263238;stroke:#263238;stroke-linecap:round;stroke-linejoin:round;stroke-miterlimit:10" d="M180.94 210.63h7v6.36h-7z"/><path transform="rotate(-180 185.065 209.04)" style="fill:#263238;stroke:#263238;stroke-linecap:round;stroke-linejoin:round;stroke-miterlimit:10" d="M176.46 207.13h17.21v3.82h-17.21z"/><path style="fill:#263238;stroke:#263238;stroke-linecap:round;stroke-linejoin:round;stroke-miterlimit:10" d="M169.14 212.54h3.98c2.02 0 3.66-1.64 3.66-3.66h0c0-2.02-1.64-3.66-3.66-3.66h-3.98c-2.02 0-3.66 1.64-3.66 3.66h0c0 2.02 1.64 3.66 3.66 3.66zM194.44 212.54h4.79c2.02 0 3.66-1.64 3.66-3.66h0c0-2.02-1.64-3.66-3.66-3.66h-4.79c-2.02 0-3.66 1.64-3.66 3.66h0c0 2.02 1.64 3.66 3.66 3.66z"/><path style="fill:#949494;stroke:#263238;stroke-linecap:round;stroke-linejoin:round;stroke-miterlimit:10" d="M70.74 225.81s1.23-13.82 15.67-11.18c9.5 1.74 16.57 12.86 16.57 12.86l14 5.73s6.68-.64 15.59.32c8.91.95 26.09 2.86 26.09 2.86l-1.59 12.41s-21.64 2.55-36.91 2.55-29.27-3.18-33.73-3.82c-4.45-.64-9.86-2.23-9.86-2.23"/><path style="fill:#263238;stroke:#263238;stroke-linecap:round;stroke-linejoin:round;stroke-miterlimit:10" d="M102.97 227.47c.01.01.02.03.02.03l9.75 3.99c-3.89 1.52-14.44 6.8-11.23 18.52-5.6-.75-10.22-1.64-13.14-2.15-.3-3.96-.35-10.99 2.53-14.32 2.6-3.01 8.25-5.01 12.07-6.07zM135.12 250.72c-4.43-7.08-1.46-13.55.75-16.83 9.27 1.01 22.8 2.51 22.8 2.51l-1.59 12.41s-10.42 1.23-21.91 1.98c-.02-.02-.03-.04-.05-.07z"/><path style="fill:#949494;stroke:#263238;stroke-linecap:round;stroke-linejoin:round;stroke-miterlimit:10" d="m158.67 236.4 10.82-7.32 18.14 2.23s2.55 3.18.32 5.41-5.73 1.91-5.73 1.91 1.59 9.23-2.23 10.82c-3.82 1.59-22.91-.64-22.91-.64l1.59-12.41z"/><path style="fill:#263238;stroke:#263238;stroke-linecap:round;stroke-linejoin:round;stroke-miterlimit:10" d="M106.77 341.94c.42 1.56.9 3.39 1.41 5.39-13.82-2.46-25.1 3.88-31.82 9.23-1.42-2.53-2.78-5.17-4-7.85 11.4-11.1 28.06-8.36 34.41-6.77z"/><path style="fill:#263238;stroke:#263238;stroke-linecap:round;stroke-linejoin:round;stroke-miterlimit:10" d="M66.87 343.51a7.785 7.785 0 0 1 3.39-9.34c2.16-1.27 4.55-2.48 6-2.62 3.18-.32 8.27 2.23 9.55 8.27 1.27 6.05 6.68 28 3.82 29.91-2.86 1.91-9.55-.32-12.09-4.77-1.94-3.39-7.91-13.74-10.67-21.45z"/><path style="fill:#263238" d="M148.21 329.34c1.64 2.11 3.26 4.3 4.81 6.54l-.03.18c-.83-.15-19.87-3.28-25.97 18.07l-5.48-4.48c5.9-16.66 18.98-19.92 26.67-20.31zM143.4 367.5s4.14-9.55 10.5-11.14c6.36-1.59 12.09-.64 12.73 7.32.64 7.95 1.27 11.77-7.95 13.05-9.23 1.27-15.91-5.73-15.91-5.73l.63-3.5zM113.93 377.84s-1.2 4.45-7.76 4.93c-9.88.73-14.96-4.45-14.96-4.45l-1.91 4.14s3.82 9.23 10.5 11.77c6.68 2.55 11.14-1.59 12.41-3.5 1.28-1.91 2.67-6.53 1.72-12.89zM141.95 418.46c8 1.86 13.48.62 16.03-.29-.92 5.57-1.54 9.68-1.54 10.75 0 4.14.64 6.05.64 6.05s2.23 6.36 7 8.59c4.77 2.23 7.32 1.91 7.64 5.41.32 3.5 0 5.41 0 5.41h-34.05s-.64-9.55-.64-14c0-4.45 5.41-12.41 5.41-12.41s-.21-3.99-.49-9.51zM79.76 425.73s.22-2.05.59-5.2c3.31 5.85 9.26 5.61 13.58 4.43-1.28 2.26-2.09 3.64-2.09 3.64l-1.27 10.5s5.73 6.36 7.95 7.95c2.23 1.59 3.5 3.82 2.23 5.73-1.27 1.91-1.59 2.86-1.59 2.86H80.39s-9.55-6.05-10.18-7c-.64-.95 0-8.59 2.23-12.41 2.23-3.82 7.32-10.5 7.32-10.5z"/><path style="fill:none;stroke:#263238;stroke-linecap:round;stroke-linejoin:round;stroke-miterlimit:10" d="M114.12 260.59s-6.36 5.73-14.64 3.18"/><path style="fill:#263238;stroke:#263238;stroke-linecap:round;stroke-linejoin:round;stroke-miterlimit:10" d="M135.44 172.45s14.32-12.41 17.18-9.86c2.86 2.55-2.86 7.64-2.86 7.64s17.5 0 20.05 5.73c2.55 5.73-13.05 3.5-13.05 3.5s11.45 9.55 7.95 13.68c-3.5 4.14-17.82-4.14-17.82-4.14s4.77 10.18-.64 10.82c-5.41.64-14.32-8.27-16.23-12.73-1.9-4.46-5.08-13.37 5.42-14.64z"/><path style="fill:#263238;stroke:#263238;stroke-linecap:round;stroke-linejoin:round;stroke-miterlimit:10" d="M130.35 165.77s12.09-1.59 9.55 3.18c-2.55 4.77-8.59 7.64-8.59 7.64s5.73 2.55 4.45 6.36c-1.27 3.82-5.73 4.14-5.73 4.14s7.32 2.55 4.77 8.27c-2.55 5.73-7 7.64-11.45 10.82-4.45 3.18-28.96-.64-28.96-.64s-6.36 0-9.55-.32c-3.18-.32-2.55-3.5-2.55-3.5s-6.05 3.5-7.95 1.27c-1.91-2.23-.32-7.95-.32-7.95s-4.45-1.27-4.14-5.09 1.91-6.68 1.91-6.68-8.91-4.45-4.77-9.55c4.14-5.09 10.18-7.32 10.18-7.32s-7.64-4.45-4.14-7.64 11.45-1.27 11.45-1.27-.32-8.27 6.05-8.91c6.36-.64 13.05 4.14 13.05 4.14s5.09-7.95 11.45-6.36c6.36 1.59-1.27 7-1.27 7s14.96-7 19.09-1.91c4.14 5.09-3.82 10.5-3.82 10.5s8.61-3.5 1.29 3.82z"/><path style="fill:#263238;stroke:#263238;stroke-linecap:round;stroke-linejoin:round;stroke-miterlimit:10" d="M73.08 178.18s-12.09-14.64-18.46-14c-6.36.64-.95 8.59-.95 8.59s-12.41 6.36-12.41 9.55 5.41 4.77 5.41 4.77-7.95 17.18-3.5 19.73c4.45 2.55 13.36-3.82 13.36-3.82s.95 4.14 4.77 3.5 6.36-15.27 6.36-15.27.95 6.68 4.77 3.18c3.83-3.51 4.46-15.28.65-16.23z"/><path style="fill:#949494;stroke:#263238;stroke-linecap:round;stroke-linejoin:round;stroke-miterlimit:10" d="M125.58 196.63s-5.41 18.77-9.23 19.73c-3.82.95-16.86-7.95-19.41-9.86-2.55-1.91-.95-9.55-.95-9.55l25.46 1.27 4.13-1.59z"/><path style="fill:#7444e4;stroke:#263238;stroke-linecap:round;stroke-linejoin:round;stroke-miterlimit:10" d="M125.58 177.86v18.77l-8.59 6.68-21-6.36-.95-7.32s3.5-2.55 3.5-3.5c0-.95.32-2.23.32-2.23s2.55 1.27 3.5-2.23c.95-3.5 1.59-6.36 1.59-6.36s5.73 3.82 9.55 3.82c3.82 0 6.36-3.82 6.36-3.82s4.76 4.14 5.72 2.55z"/><path style="fill:#263238" d="M108.4 192.81c0 1.41.64 2.55 1.43 2.55.79 0 1.43-1.14 1.43-2.55s-.64-2.55-1.43-2.55c-.79.01-1.43 1.15-1.43 2.55z"/><ellipse style="fill:#263238" cx="121.6" cy="191.86" rx="1.43" ry="2.55"/><path style="fill:none;stroke:#263238;stroke-linecap:round;stroke-linejoin:round;stroke-miterlimit:10" d="M113.8 188.68s-2.86-3.18-7.64-1.91M125.26 186.45s-2.55-.64-4.77 2.23M116.99 203.31l-.32-11.13M116.99 207.13s-7 .95-11.14-3.82"/><path style="fill:#949494;stroke:#263238;stroke-linecap:round;stroke-linejoin:round;stroke-miterlimit:10" d="M198.04 244.51s-6.45 6.45-12.48 6.89c-6.02.43-9.04-4.73-9.9-6.02-.86-1.29-.43-2.58 1.72-2.58s2.61 1.57 2.61 1.57.4-1.57 2.99-1.57c2.58 0 5.16 1.29 5.16 1.29l9.9.42z"/><path style="fill:none;stroke:#263238;stroke-linecap:round;stroke-linejoin:round;stroke-miterlimit:10" d="M179.99 244.36s3.85 5.32 6.43 5.32M188.14 244.08s.86 1.72 2.58 3.01"/><ellipse style="fill:#7444e4;stroke:#263238;stroke-miterlimit:10" cx="670.9" cy="315.84" rx="9.19" ry="24.11"/><path style="fill:#7444e4;stroke:#263238;stroke-miterlimit:10" d="M699.47 300.97c-2.87 9.05-8.39 15.36-12.33 14.11-3.94-1.25-4.8-9.6-1.92-18.64 2.87-9.05 8.39-15.36 12.33-14.11 3.93 1.25 4.79 9.6 1.92 18.64zM632.01 355.51c-9.36-1.59-16.38-6.17-15.69-10.24.69-4.07 8.83-6.09 18.19-4.5 9.36 1.59 16.38 6.17 15.69 10.24-.69 4.07-8.83 6.09-18.19 4.5zM708.12 333.22c-7.82 7.75-17.05 11.11-20.63 7.51-3.58-3.61-.14-12.81 7.68-20.56 7.82-7.75 17.05-11.11 20.63-7.51 3.57 3.6.14 12.81-7.68 20.56zM654.27 311.96c7.56 10.97 9.81 22.52 5.03 25.82-4.78 3.29-14.78-2.92-22.34-13.89-7.56-10.97-9.81-22.52-5.03-25.82 4.78-3.3 14.78 2.92 22.34 13.89z"/><path style="fill:none;stroke:#263238;stroke-linecap:round;stroke-miterlimit:10" d="m671.55 338.75.71 73.36M670.69 306.88l.86 31.87M670.75 301.67l-.06 2.45M659.26 336.21c4.61 9.68 8.35 21.43 9.08 34.79v45.37M643.47 312.05c4.29 4.95 10.59 13.23 15.79 24.16M638.5 306.8s.95.87 2.52 2.54M688.07 339.62c-5.36 7.41-10.75 17.12-14.9 29.58M698.64 327.46c-3.25 3.08-6.91 7.08-10.58 12.15M709.94 318.86s-3.28 1.68-8.05 5.71"/><path style="fill:none;stroke:#263238;stroke-linecap:round;stroke-miterlimit:10" d="M687.68 312.84c-5.09 16.03-11.93 39.71-15.12 60.27M690.78 303.34c-.91 2.7-1.96 5.91-3.1 9.51M693.96 294.14s-.89 2.45-2.32 6.66M649.73 348.79c6.36 2.41 15.06 9.14 18.08 17.96M637.98 346.4c3.42.2 7.62.82 11.75 2.39M630.36 346.59s1.13-.16 3-.23"/><path style="fill:#7444e4;stroke:#263238;stroke-miterlimit:10" d="M650.37 390.77c-8.6 4.02-16.99 4.24-18.73.49-1.75-3.74 3.81-10.03 12.41-14.05 8.6-4.02 16.99-4.24 18.73-.49 1.74 3.75-3.81 10.04-12.41 14.05z"/><path style="fill:none;stroke:#263238;stroke-linecap:round;stroke-miterlimit:10" d="M650.09 379.88c2.93-1.78 6.74-3.66 11.03-4.72 0 0 2.87-1.92 5.92.11 1.16.78.78 6.59.78 6.59v30.24M643.94 384.36s.84-.78 2.34-1.9"/><path style="fill:#7444e4;stroke:#263238;stroke-miterlimit:10" d="M712.09 355.51c9.36-1.59 16.38-6.17 15.69-10.24-.69-4.07-8.83-6.09-18.19-4.5-9.36 1.59-16.38 6.17-15.69 10.24.69 4.07 8.83 6.09 18.19 4.5z"/><path style="fill:none;stroke:#263238;stroke-linecap:round;stroke-miterlimit:10" d="M694.57 348.71c-1.12.42-2.24.9-3.33 1.47-7.73 3.98-12.46 12.09-12.46 20.79v39.97M707.11 346.35c-3.53.13-8.06.7-12.54 2.36M713.74 346.59s-.75-.11-2.03-.19"/><ellipse transform="rotate(-60.04 706.452 376.393)" style="fill:#7444e4;stroke:#263238;stroke-miterlimit:10" cx="706.43" cy="376.41" rx="7.48" ry="17.18"/><path style="fill:none;stroke:#263238;stroke-linecap:round;stroke-miterlimit:10" d="M704.69 372.66c-2.81-2.15-6.66-4.6-11.17-6.17 0 0-10.2-1.68-12.53 4.91M709.65 377.06s-.51-.56-1.44-1.43"/><path style="fill:#7444e4;stroke:#263238;stroke-miterlimit:10" d="M682.55 371.79s-12.02-2.33-12.02 5.82c0 8.14 8.53 14.73 12.02 24.04 3.49 9.3 10.08 9.69 13.57.39 3.49-9.32-1.55-26.38-13.57-30.25z"/><path style="fill:#7444e4;stroke:#263238;stroke-miterlimit:10" d="M674.41 372.17s10.47 4.26 13.57 17.83"/><path style="fill:none;stroke:#263238;stroke-linecap:round;stroke-miterlimit:10" d="M675.18 390.01v22.1"/><path style="fill:#263238" d="M694.44 455.14c2.75-8.56 4.35-18.44 4.35-28.29 0-6.1-.62-11.92-1.74-17.3h-48.97c-1.12 5.37-1.74 11.2-1.74 17.3 0 9.84 1.6 19.73 4.35 28.29h43.75z"/><path style="fill:#7a7a7a" d="M646.82 417.64a88 88 0 0 0-.33 4.04h52.14c-.08-1.37-.19-2.71-.33-4.04h-51.48zM698.07 438.31c.16-1.34.31-2.69.41-4.04h-51.85c.11 1.36.25 2.7.41 4.04h51.03z"/><path style="fill:#8c8c8c" d="M652.67 427.08c0 1.12-.94 2.04-2.11 2.04s-2.11-.91-2.11-2.04.94-2.04 2.11-2.04c1.16 0 2.11.91 2.11 2.04zM663.22 427.08c0 1.12-.94 2.04-2.11 2.04s-2.11-.91-2.11-2.04.94-2.04 2.11-2.04c1.16 0 2.11.91 2.11 2.04zM673.77 427.08c0 1.12-.94 2.04-2.11 2.04s-2.11-.91-2.11-2.04.94-2.04 2.11-2.04c1.16 0 2.11.91 2.11 2.04zM684.32 427.08c0 1.12-.94 2.04-2.11 2.04s-2.11-.91-2.11-2.04.94-2.04 2.11-2.04c1.16 0 2.11.91 2.11 2.04zM694.87 427.08c0 1.12-.94 2.04-2.11 2.04s-2.11-.91-2.11-2.04.94-2.04 2.11-2.04c1.16 0 2.11.91 2.11 2.04z"/><path style="fill:none;stroke:#263238;stroke-linecap:round;stroke-linejoin:round;stroke-miterlimit:10" d="M631 455.64h78.93M151.93 455.64H622M27.58 455.64h115.64"/></svg>