<?xml version="1.0" encoding="utf-8"?>
<!-- Generator: Adobe Illustrator 25.2.0, SVG Export Plug-In . SVG Version: 6.00 Build 0)  -->
<svg version="1.1" id="Layer_1" xmlns="http://www.w3.org/2000/svg" xmlns:xlink="http://www.w3.org/1999/xlink" x="0px" y="0px"
	 viewBox="0 0 500 500" style="enable-background:new 0 0 500 500;" xml:space="preserve">
<style type="text/css">
	.st0{fill:#C8ABFF;}
	.st1{opacity:0.7;fill:#FFFFFF;}
	.st2{fill:none;stroke:#1A2E35;stroke-linecap:round;stroke-linejoin:round;stroke-miterlimit:10;}
	.st3{opacity:0.3;}
	.st4{fill:#1A2E35;stroke:#1A2E35;stroke-linecap:round;stroke-linejoin:round;stroke-miterlimit:10;}
	.st5{fill:none;stroke:#000000;stroke-linecap:round;stroke-linejoin:round;stroke-miterlimit:10;}
	.st6{fill:#8342EA;}
	.st7{opacity:0.2;}
	.st8{fill:#8342EA;stroke:#263238;stroke-linecap:round;stroke-linejoin:round;stroke-miterlimit:10;}
	.st9{fill:#FFFFFF;stroke:#1A2E35;stroke-linecap:round;stroke-linejoin:round;stroke-miterlimit:10;}
	.st10{fill:#C7C7C7;stroke:#1A2E35;stroke-linecap:round;stroke-linejoin:round;stroke-miterlimit:10;}
	.st11{fill:#1A2E35;}
	.st12{fill:#4F4F4F;stroke:#1A2E35;stroke-linecap:round;stroke-linejoin:round;stroke-miterlimit:10;}
</style>
<g id="Background_Simple">
</g>
<g id="Graphics">
</g>
<g id="Shadow_4">
</g>
<g id="Shadow_3">
</g>
<g id="Shadow_2">
</g>
<g id="Shadow_1">
</g>
<g id="Character_4">
</g>
<g id="Character_2_1_">
</g>
<g id="Character_1">
</g>
<g id="Text">
</g>
<g>
	<g>
		<path class="st0" d="M466.5,279.6c-14.7,39.4-44.8,82.1-87.1,94.7c-64,19.1-71.6,70.7-186.2,65.9c-17.9-0.7-34.4-3.3-49.5-7.3
			c-8.2-2.2-15.9-4.8-23.3-7.7C53.5,398.1,18.5,338.4,15.7,276c-3.8-82.1,53.5-121.2,90.7-144.2c37.2-22.9,82.1-111.7,194.8-107.9
			c17.2,0.6,34.3,2.9,50.9,7.4c37.9,10.3,76.4,33,98.8,66.1c1.7,2.5,3.3,5,4.8,7.6C485.6,156,486.6,225.8,466.5,279.6z"/>
		<path class="st1" d="M466.5,279.6c-14.7,39.4-44.8,82.1-87.1,94.7c-64,19.1-71.6,70.7-186.2,65.9c-17.9-0.7-34.4-3.3-49.5-7.3
			c-8.2-2.2-15.9-4.8-23.3-7.7C53.5,398.1,18.5,338.4,15.7,276c-3.8-82.1,53.5-121.2,90.7-144.2c37.2-22.9,82.1-111.7,194.8-107.9
			c17.2,0.6,34.3,2.9,50.9,7.4c37.9,10.3,76.4,33,98.8,66.1c1.7,2.5,3.3,5,4.8,7.6C485.6,156,486.6,225.8,466.5,279.6z"/>
	</g>
	<g>
		<path class="st2" d="M469.3,48.4c0,0-10.1,2.9-11.5-4.2c-0.8-4.3-3-15.5-14-17.6s-18.5,9.2-18.5,15.5c0,6.3-4.7,3.1-9.4,4.7
			c-4.7,1.6-8.4,4.2-9.4,8.9c-1,4.7-2.1,2.1-8.9,3.1c-6.8,1-8.9,5.2-8.9,5.2h95.8c0,0,0.3-8.9-3.9-12.6
			C476.4,47.8,472.5,47.8,469.3,48.4z"/>
		<path class="st2" d="M410.6,35c0,0-5.4,1.6-6.1-2.2c-0.4-2.3-1.6-8.3-7.4-9.4c-5.8-1.1-9.8,4.9-9.8,8.3s-2.5,1.7-5,2.5
			c-2.5,0.8-4.5,2.2-5,4.7c-0.6,2.5-1.1,1.1-4.7,1.7c-3.6,0.6-4.7,2.8-4.7,2.8h50.9c0,0,0.1-4.7-2.1-6.7
			C414.3,34.7,412.3,34.8,410.6,35z"/>
		<g>
			<line class="st2" x1="477.7" y1="66.7" x2="477.7" y2="80.7"/>
			<line class="st2" x1="469.7" y1="74.2" x2="469.7" y2="88.2"/>
			<line class="st2" x1="462.2" y1="66.7" x2="462.2" y2="80.7"/>
			<line class="st2" x1="454.2" y1="74.2" x2="454.2" y2="88.2"/>
			<line class="st2" x1="446.7" y1="66.7" x2="446.7" y2="80.7"/>
			<line class="st2" x1="438.7" y1="74.2" x2="438.7" y2="88.2"/>
			<line class="st2" x1="431.2" y1="66.7" x2="431.2" y2="80.7"/>
			<line class="st2" x1="423.2" y1="74.2" x2="423.2" y2="88.2"/>
			<line class="st2" x1="415.7" y1="66.7" x2="415.7" y2="80.7"/>
			<line class="st2" x1="407.7" y1="74.2" x2="407.7" y2="88.2"/>
			<line class="st2" x1="400.2" y1="66.7" x2="400.2" y2="80.7"/>
		</g>
		<g>
			<line class="st2" x1="408.7" y1="46.2" x2="408.7" y2="49.2"/>
			<line class="st2" x1="400.7" y1="51.6" x2="400.7" y2="56.2"/>
			<line class="st2" x1="393.2" y1="46.2" x2="393.2" y2="56.3"/>
			<line class="st2" x1="385.2" y1="51.6" x2="385.2" y2="61.7"/>
			<line class="st2" x1="377.7" y1="46.2" x2="377.7" y2="56.3"/>
			<line class="st2" x1="369.7" y1="51.6" x2="369.7" y2="61.7"/>
		</g>
	</g>
	<g>
		
			<ellipse transform="matrix(0.7071 -0.7071 0.7071 0.7071 -19.0758 66.3822)" class="st2" cx="70.6" cy="56.2" rx="15.9" ry="15.9"/>
		<line class="st2" x1="70.4" y1="76" x2="70.4" y2="87.5"/>
		<line class="st2" x1="70.4" y1="25.2" x2="70.4" y2="36.6"/>
		<line class="st2" x1="90.1" y1="56.3" x2="101.5" y2="56.3"/>
		<line class="st2" x1="39.2" y1="56.3" x2="50.7" y2="56.3"/>
		<line class="st2" x1="84.3" y1="42.4" x2="92.4" y2="34.3"/>
		<line class="st2" x1="48.4" y1="78.4" x2="56.5" y2="70.3"/>
		<line class="st2" x1="84.3" y1="70.3" x2="92.4" y2="78.4"/>
		<line class="st2" x1="48.4" y1="34.3" x2="56.5" y2="42.4"/>
	</g>
	<g class="st3">
		<path class="st4" d="M433.4,430L433.4,430c0.6,0,1-0.5,1-1v-10h-2.1v10C432.4,429.5,432.9,430,433.4,430z"/>
		<g>
			<path d="M453.9,238.2c-0.1-6.6-5.5-11.9-12.1-11.8c-6.6,0.1-11.9,5.5-11.8,12.1l0.3,23.7c0,1,0.5,1.9,1.2,2.4l0.1,12.1l0.3-0.7
				c0.4-1,1.8-1,2.2,0l1.2,3l-0.1-14.4c0.7-0.6,1.2-1.5,1.2-2.5l-0.3-23.7c0-3.2,2.5-5.8,5.8-5.9c3.2,0,5.8,2.5,5.9,5.8l0.1,6.4
				c0,1.7,1.4,3.1,3.1,3c1.7,0,3.1-1.4,3-3.1L453.9,238.2z"/>
			<path class="st2" d="M399.5,284.8l3.5-8.9c0.4-1,1.8-1,2.2,0l3.5,8.9h0.4l3.5-8.9c0.4-1,1.8-1,2.2,0l3.5,8.9h0.4l3.5-8.9
				c0.4-1,1.8-1,2.2,0l3.5,8.9h0.4l3.5-8.9c0.4-1,1.8-1,2.2,0l3.5,8.9h0.4l3.5-8.9c0.4-1,1.8-1,2.2,0l3.5,8.9h0.4l3.5-8.9
				c0.4-1,1.8-1,2.2,0l3.5,8.9h0.4l3.5-8.9c0.4-1,1.8-1,2.2,0l3.5,8.9h2.3l-35.3,138l-35.3-138H399.5z"/>
			<g>
				<path class="st2" d="M434.1,420.6l3.9-135.8l3.5-8.9c0.4-1,1.8-1,2.2,0l3.5,8.9h0.4l3.5-8.9c0.4-1,1.8-1,2.2,0l3.5,8.9h0.4
					l-22.6,134.1L434.1,420.6z"/>
				<path class="st2" d="M399.5,284.8l3.5-8.9c0.4-1,1.8-1,2.2,0l3.5,8.9h0.4l3.5-8.9c0.4-1,1.8-1,2.2,0l3.5,8.9h0.4l14.7,138
					l-35.3-138H399.5z"/>
			</g>
		</g>
	</g>
	<g class="st3">
		<path d="M369.1,168.2c-1.1-0.2-2.1-0.3-3.2-0.5l-11,20.2c-0.7,0.1-1.4,0.6-1.8,1.3l-9.2,16.9c-1.2,2.3-4.1,3.1-6.4,1.9
			c-2.3-1.2-3.1-4.1-1.9-6.4l2.5-4.5c0.7-1.2,0.2-2.7-1-3.4c-1.2-0.7-2.7-0.2-3.4,1l-2.5,4.5c-2.6,4.7-0.8,10.6,3.9,13.2
			s10.6,0.8,13.2-3.9l9.2-16.9c0.4-0.7,0.4-1.5,0.1-2.2L369.1,168.2z"/>
		<path d="M400.8,103.5c-0.2-0.1-0.5-0.2-0.8-0.3l6.9-11.4c0.2-0.4,0.7-0.6,1.1-0.3c0.4,0.2,0.6,0.7,0.3,1.1l-5.8,12
			C401.4,103.9,400.8,103.5,400.8,103.5z"/>
		<g>
			<path class="st5" d="M400.8,103.5c0,0,19.4,12.5,35.2,31s19.6,54.6,19.6,54.6s-9.9-10.5-21.7,8.1c0,0-41.6-30.1-77.6-30.2
				c0,0-23-32.5-55.9-41.1c0,0,13.9-17.5,6.5-18.4c0,0,27.5-15.9,44-15.2C367.3,93.1,393.2,100.9,400.8,103.5z"/>
			<g>
				<path class="st5" d="M416.2,120.3c5.7,7.9,12.1,18.7,14.1,29.5c3.9,20.9,2.1,40.7,2.1,40.7"/>
				<path class="st5" d="M406.1,108c0,0,3.4,3.5,7.7,9.1"/>
				<path class="st5" d="M361.7,157.1c-2.2,4-3.3,6-3.3,6"/>
				<path class="st5" d="M398.2,105.3c0,0-19.7,21-27.8,35.8c-2.4,4.4-4.4,8.1-6.1,11.2"/>
				<path class="st5" d="M371.5,99.7c0,0-16.7-0.9-34.5,5.1c-17.8,6-29,15.1-29,15.1"/>
			</g>
		</g>
	</g>
	<g class="st3">
		<path d="M189.7,199.2l-2.5-4.5c-0.7-1.2-2.2-1.7-3.4-1c-1.2,0.7-1.7,2.2-1,3.4l2.5,4.5c1.2,2.3,0.4,5.2-1.9,6.4
			c-2.3,1.2-5.2,0.4-6.4-1.9l-9.2-16.9c-0.4-0.7-1.1-1.2-1.8-1.3l-11-20.2c-1.1,0.1-2.1,0.3-3.2,0.5l11.5,21.2
			c-0.3,0.7-0.3,1.5,0.1,2.2l9.2,16.9c2.6,4.7,8.5,6.4,13.2,3.9C190.5,209.8,192.3,203.9,189.7,199.2z"/>
		<path d="M120.2,103.5c0.2-0.1,0.5-0.2,0.8-0.3L114,91.9c-0.2-0.4-0.7-0.6-1.1-0.3c-0.4,0.2-0.6,0.7-0.3,1.1l5.8,12
			C119.5,103.9,120.2,103.5,120.2,103.5z"/>
		<g>
			<path class="st5" d="M120.2,103.5c0,0-19.4,12.5-35.2,31c-15.8,18.4-19.6,54.6-19.6,54.6s9.9-10.5,21.7,8.1
				c0,0,41.6-30.1,77.6-30.2c0,0,23-32.5,55.9-41.1c0,0-13.9-17.5-6.5-18.4c0,0-27.5-15.9-44-15.2
				C153.7,93.1,127.8,100.9,120.2,103.5z"/>
			<g>
				<path class="st5" d="M104.7,120.3c-5.7,7.9-12.1,18.7-14.1,29.5c-3.9,20.9-2.1,40.7-2.1,40.7"/>
				<path class="st5" d="M114.8,108c0,0-3.4,3.5-7.7,9.1"/>
				<path class="st5" d="M159.2,157.1c2.2,4,3.3,6,3.3,6"/>
				<path class="st5" d="M122.7,105.3c0,0,19.7,21,27.8,35.8c2.4,4.4,4.4,8.1,6.1,11.2"/>
				<path class="st5" d="M149.4,99.7c0,0,16.7-0.9,34.5,5.1c17.8,6,29,15.1,29,15.1"/>
			</g>
		</g>
	</g>
	<g class="st3">
		<path class="st4" d="M76.8,430L76.8,430c-0.6,0-1-0.5-1-1v-10h2.1v10C77.9,429.5,77.4,430,76.8,430z"/>
		<g>
			<path d="M68.4,226.3c-6.6-0.1-12,5.2-12.1,11.8l-0.1,6.4c0,1.7,1.3,3.1,3,3.1c1.7,0,3.1-1.3,3.1-3l0.1-6.4c0-3.2,2.7-5.8,5.9-5.8
				c3.2,0,5.8,2.7,5.8,5.9l-0.3,23.7c0,1,0.5,1.9,1.2,2.5L75,279l1.2-3c0.4-1,1.8-1,2.2,0l0.3,0.7l0.1-12.1c0.7-0.6,1.2-1.4,1.2-2.4
				l0.3-23.7C80.4,231.9,75,226.4,68.4,226.3z"/>
			<path class="st2" d="M110.8,284.8l-3.5-8.9c-0.4-1-1.8-1-2.2,0l-3.5,8.9h-0.4l-3.5-8.9c-0.4-1-1.8-1-2.2,0l-3.5,8.9h-0.4L88,276
				c-0.4-1-1.8-1-2.2,0l-3.5,8.9h-0.4l-3.5-8.9c-0.4-1-1.8-1-2.2,0l-3.5,8.9h-0.4l-3.5-8.9c-0.4-1-1.8-1-2.2,0l-3.5,8.9h-0.4
				l-3.5-8.9c-0.4-1-1.8-1-2.2,0l-3.5,8.9h-0.4l-3.5-8.9c-0.4-1-1.8-1-2.2,0l-3.5,8.9h-2.3l35.3,138l35.3-138H110.8z"/>
			<g>
				<path class="st2" d="M76.2,420.6l-3.9-135.8l-3.5-8.9c-0.4-1-1.8-1-2.2,0l-3.5,8.9h-0.4l-3.5-8.9c-0.4-1-1.8-1-2.2,0l-3.5,8.9
					h-0.4l22.6,134.1L76.2,420.6z"/>
				<path class="st2" d="M110.8,284.8l-3.5-8.9c-0.4-1-1.8-1-2.2,0l-3.5,8.9h-0.4l-3.5-8.9c-0.4-1-1.8-1-2.2,0l-3.5,8.9h-0.4
					l-14.7,138l35.3-138H110.8z"/>
			</g>
		</g>
	</g>
	<g>
		<path class="st6" d="M124.7,390.6c2.1,0.8,6.9,0.3,6.9,0.3c0.1,0-1.2-3.1-1.3-3.3c-1.2-2.2-4.8-5.7-7.6-5.1c-2,0.4-3,2.4-2.4,4.3
			C120.9,388.6,123,389.9,124.7,390.6z"/>
		<path class="st6" d="M187.8,370c-2.8-0.1-5.9,3.9-6.7,6.2c-0.1,0.2-0.9,3.5-0.8,3.5c0,0,0,0,0.1,0c-0.5,0.6-1,1.3-1.6,2.1
			c-1,1.4-2.1,3-3.2,4.8c-1.1,1.8-2.3,3.8-3.3,6c-1,2.2-2,4.6-2.7,7.2c0,0,0,0.1,0,0.1c0-0.8-0.2-3.1-0.2-3.3
			c-0.5-2.5-2.8-6.9-5.6-7.3c-2-0.2-3.6,1.4-3.6,3.3c0,2,1.5,3.9,3,5c1.6,1.3,6.1,2.4,6.4,2.5c-0.6,2.5-1.1,5-1.4,7.7
			c-0.2,1.5-0.3,3-0.4,4.6c-0.1-0.7-0.1-1.3-0.1-1.4c-0.5-2.5-2.8-6.9-5.6-7.3c-2-0.2-3.6,1.4-3.6,3.3c0,2,1.5,3.9,3,5
			c1.5,1.2,5.2,2.2,6.2,2.4c0,0.6-0.1,1.2-0.1,1.8c-0.2,2.8-0.3,5.6-0.6,8.4c-0.1,1-0.2,1.9-0.3,2.9c0-0.6-0.1-1.2-0.1-1.2
			c-0.5-2.5-2.8-6.9-5.6-7.3c-2-0.2-3.6,1.4-3.6,3.3c0,2,1.5,3.9,3,5c1.4,1.1,4.9,2.1,6.1,2.4c-0.1,1-0.3,1.9-0.5,2.9
			c-0.1,0.6-0.2,1.3-0.4,1.9c-0.2,0.6-0.3,1.3-0.5,1.9c-0.3,1.2-0.7,2.4-1.1,3.5c-0.3,0.8-0.5,1.5-0.8,2.3c0.1-1,0.2-2.9,0.2-3
			c-0.1-1.7-0.8-4.3-2.1-6.1c0-0.2,0-0.5-0.1-0.7c-0.4-1.9-2.3-3.2-4.2-2.6c-2.7,0.9-4.1,5.7-4.1,8.2c0,0.1,0.2,1.7,0.3,2.7
			c-0.2-0.6-0.3-1.1-0.5-1.7c-0.4-1.2-0.7-2.3-1.2-3.6c-0.2-0.6-0.4-1.2-0.7-1.8c-0.2-0.6-0.5-1.2-0.8-1.8c-0.6-1.4-1.3-2.8-2.1-4.2
			c1-0.3,4.7-1.5,6.1-2.7c1.4-1.2,2.9-3.2,2.7-5.1c-0.1-1.9-1.8-3.5-3.8-3.2c-2.8,0.5-4.9,5-5.3,7.5c0,0.2-0.1,2-0.1,2.9
			c-0.4-0.8-0.9-1.7-1.4-2.5c-1.4-2.4-2.9-4.8-4.3-7.2c-0.4-0.7-0.9-1.5-1.3-2.2c0.4-0.1,4.7-1.4,6.3-2.8c1.4-1.2,2.9-3.2,2.7-5.1
			c-0.1-1.9-1.8-3.5-3.8-3.2c-2.8,0.5-4.9,5-5.3,7.5c0,0.2-0.1,2.8-0.1,3.4c-1-1.6-1.9-3.3-2.8-4.9c-1.2-2.3-2.3-4.6-3.1-6.9
			c0.2-0.1,4.7-1.4,6.3-2.8c1.4-1.2,2.9-3.2,2.7-5.1c-0.1-1.9-1.8-3.5-3.8-3.2c-2.8,0.5-4.9,5-5.3,7.5c0,0.2-0.1,3-0.1,3.5
			c-0.1-0.1-0.1-0.3-0.2-0.4c-0.9-2.5-1.5-5-1.9-7.3c-0.2-1.4-0.4-2.7-0.5-4c0.9-0.2,4.8-0.9,6.4-2c1.5-1.1,3.2-2.8,3.3-4.8
			c0.1-1.9-1.4-3.7-3.4-3.6c-2.8,0.2-5.4,4.5-6,6.9c0,0.1-0.2,1.5-0.4,2.5c0-0.6-0.1-1.2-0.1-1.8c-0.1-2.1-0.1-4-0.1-5.8
			c0-1,0.1-1.9,0.1-2.7c0.8-0.6,3.9-3.1,4.8-4.8c0.9-1.6,1.5-4,0.7-5.8c-0.8-1.8-2.9-2.6-4.7-1.6c-2.4,1.4-2.8,6.5-2.2,8.9
			c0,0.2,1.2,3.4,1.2,3.4c0,0,0,0,0,0c-0.1,0.8-0.1,1.6-0.2,2.6c-0.1,1.7-0.1,3.7,0,5.8c0.1,2.1,0.2,4.4,0.6,6.8
			c0.4,2.4,0.9,4.9,1.7,7.5c0,0,0,0.1,0,0.1c-0.5-0.7-1.9-2.5-2-2.6c-1.7-1.8-6.2-4.2-8.7-3c-1.8,0.9-2.2,3.1-1.2,4.8
			c1.1,1.7,3.4,2.4,5.2,2.5c2.1,0.2,6.4-1.4,6.7-1.5c0.8,2.4,1.9,4.8,3.1,7.2c0.7,1.4,1.4,2.7,2.2,4c-0.4-0.6-0.8-1.1-0.9-1.1
			c-1.7-1.8-6.2-4.2-8.7-3c-1.8,0.9-2.2,3.1-1.2,4.8c1.1,1.7,3.4,2.4,5.2,2.5c1.9,0.2,5.6-1.1,6.5-1.4c0.3,0.5,0.6,1,0.9,1.5
			c1.4,2.4,2.8,4.9,4.2,7.3c0.5,0.9,0.9,1.7,1.3,2.6c-0.4-0.5-0.7-0.9-0.8-1c-1.7-1.8-6.2-4.2-8.7-3c-1.8,0.9-2.2,3.1-1.2,4.8
			c1.1,1.7,3.4,2.4,5.2,2.5c1.8,0.2,5.2-1,6.4-1.4c0.4,0.9,0.8,1.8,1.2,2.7c0.2,0.6,0.5,1.2,0.7,1.8c0.2,0.6,0.4,1.2,0.6,1.8
			c0.4,1.2,0.7,2.4,1.1,3.5c0.2,0.8,0.4,1.6,0.6,2.3c-0.5-0.9-1.4-2.5-1.5-2.6c-1.5-2-5.5-5.1-8.1-4.2c-1.9,0.6-2.7,2.8-1.9,4.5
			c0.8,1.8,3,2.9,4.8,3.3c2,0.5,6.3-0.3,6.8-0.4c0.3,1.3,0.7,2.5,0.9,3.7c0.1,0.3,0.1,0.5,0.2,0.7h1.7c-0.1-0.4-0.2-0.7-0.3-1.1
			c-0.3-1.3-0.7-2.7-1.1-4.1c0.3-0.1,2.1-1,3.7-2c1.5,1.5,5.3,3,5.8,3.3c-0.4,1.3-0.8,2.5-1.3,3.6c-0.1,0.1-0.1,0.3-0.1,0.4h1.8
			c0.4-1.2,0.8-2.5,1.3-3.9c0.5,0.1,4.9,0.7,6.8,0.1c1.8-0.5,3.9-1.7,4.6-3.5c0.7-1.8-0.2-3.9-2.1-4.5c-2.7-0.7-6.6,2.5-7.9,4.6
			c-0.1,0.1-0.8,1.6-1.2,2.5c0.2-0.6,0.4-1.1,0.5-1.7c0.4-1.2,0.7-2.4,1-3.6c0.1-0.6,0.3-1.2,0.4-1.9c0.2-0.6,0.3-1.3,0.4-2
			c0.3-1.5,0.5-3.1,0.6-4.7c1,0.3,4.7,1.3,6.6,1.1c1.8-0.2,4.1-1.1,5.1-2.8c1-1.7,0.4-3.9-1.4-4.7c-2.6-1.1-6.9,1.5-8.5,3.4
			c-0.1,0.1-1.1,1.6-1.7,2.4c0.1-1,0.2-1.9,0.2-2.9c0.2-2.8,0.3-5.6,0.4-8.4c0-0.9,0.1-1.7,0.1-2.6c0.4,0.1,4.7,1.4,6.8,1.2
			c1.8-0.2,4.1-1.1,5.1-2.8c1-1.7,0.4-3.9-1.4-4.7c-2.6-1.1-6.9,1.5-8.5,3.4c-0.1,0.1-1.6,2.3-2,2.8c0.1-1.9,0.2-3.8,0.4-5.6
			c0.2-2.6,0.6-5.1,1.2-7.5c0.2,0.1,4.7,1.5,6.8,1.2c1.8-0.2,4.1-1.1,5.1-2.8c1-1.7,0.4-3.9-1.4-4.7c-2.6-1.1-6.9,1.5-8.5,3.4
			c-0.1,0.1-1.7,2.4-2,2.9c0-0.1,0.1-0.3,0.1-0.4c0.6-2.6,1.5-4.9,2.5-7.1c0.6-1.3,1.2-2.5,1.8-3.6c0.8,0.3,4.6,1.9,6.5,1.9
			c1.9,0,4.2-0.6,5.4-2.2c1.1-1.6,0.9-3.8-0.9-4.8c-2.4-1.4-7,0.7-8.8,2.4c-0.1,0.1-1,1.1-1.7,1.9c0.3-0.5,0.6-1,0.9-1.5
			c1.1-1.8,2.1-3.4,3.1-4.9c0.6-0.8,1.1-1.5,1.6-2.2c1-0.1,4.9-0.4,6.6-1.3c1.6-0.9,3.5-2.5,3.8-4.4
			C191.1,372,189.9,370.1,187.8,370z"/>
		<path class="st6" d="M174.3,388.7c0,0,0.7-3.3,0.7-3.5c0.2-2.5-0.9-7.4-3.5-8.5c-1.9-0.8-3.8,0.4-4.4,2.3
			c-0.6,1.9,0.4,4.1,1.5,5.6C170,386.3,174.3,388.7,174.3,388.7z"/>
	</g>
	<g>
		<path class="st6" d="M385.9,390.6c-2.1,0.8-6.9,0.3-6.9,0.3c-0.1,0,1.2-3.1,1.3-3.3c1.2-2.2,4.8-5.7,7.6-5.1c2,0.4,3,2.4,2.4,4.3
			C389.7,388.6,387.7,389.9,385.9,390.6z"/>
		<path class="st6" d="M322.8,370c2.8-0.1,5.9,3.9,6.7,6.2c0.1,0.2,0.9,3.5,0.8,3.5c0,0,0,0-0.1,0c0.5,0.6,1,1.3,1.6,2.1
			c1,1.4,2.1,3,3.2,4.8c1.1,1.8,2.3,3.8,3.3,6c1,2.2,2,4.6,2.7,7.2c0,0,0,0.1,0,0.1c0-0.8,0.2-3.1,0.2-3.3c0.5-2.5,2.8-6.9,5.6-7.3
			c2-0.2,3.6,1.4,3.6,3.3c0,2-1.5,3.9-3,5c-1.6,1.3-6.1,2.4-6.4,2.5c0.6,2.5,1.1,5,1.4,7.7c0.2,1.5,0.3,3,0.4,4.6
			c0.1-0.7,0.1-1.3,0.1-1.4c0.5-2.5,2.8-6.9,5.6-7.3c2-0.2,3.6,1.4,3.6,3.3c0,2-1.5,3.9-3,5c-1.5,1.2-5.2,2.2-6.2,2.4
			c0,0.6,0.1,1.2,0.1,1.8c0.2,2.8,0.3,5.6,0.6,8.4c0.1,1,0.2,1.9,0.3,2.9c0-0.6,0.1-1.2,0.1-1.2c0.5-2.5,2.8-6.9,5.6-7.3
			c2-0.2,3.6,1.4,3.6,3.3c0,2-1.5,3.9-3,5c-1.4,1.1-4.9,2.1-6.1,2.4c0.1,1,0.3,1.9,0.5,2.9c0.1,0.6,0.2,1.3,0.4,1.9
			c0.2,0.6,0.3,1.3,0.5,1.9c0.3,1.2,0.7,2.4,1.1,3.5c0.3,0.8,0.5,1.5,0.8,2.3c-0.1-1-0.2-2.9-0.2-3c0.1-1.7,0.8-4.3,2.1-6.1
			c0-0.2,0-0.5,0.1-0.7c0.4-1.9,2.3-3.2,4.2-2.6c2.7,0.9,4.1,5.7,4.1,8.2c0,0.1-0.2,1.7-0.3,2.7c0.2-0.6,0.3-1.1,0.5-1.7
			c0.4-1.2,0.7-2.3,1.2-3.6c0.2-0.6,0.4-1.2,0.7-1.8c0.2-0.6,0.5-1.2,0.8-1.8c0.6-1.4,1.3-2.8,2.1-4.2c-1-0.3-4.7-1.5-6.1-2.7
			c-1.4-1.2-2.9-3.2-2.7-5.1c0.1-1.9,1.8-3.5,3.8-3.2c2.8,0.5,4.9,5,5.3,7.5c0,0.2,0.1,2,0.1,2.9c0.4-0.8,0.9-1.7,1.4-2.5
			c1.4-2.4,2.9-4.8,4.3-7.2c0.4-0.7,0.9-1.5,1.3-2.2c-0.4-0.1-4.7-1.4-6.3-2.8c-1.4-1.2-2.9-3.2-2.7-5.1c0.1-1.9,1.8-3.5,3.8-3.2
			c2.8,0.5,4.9,5,5.3,7.5c0,0.2,0.1,2.8,0.1,3.4c1-1.6,1.9-3.3,2.8-4.9c1.2-2.3,2.3-4.6,3.1-6.9c-0.2-0.1-4.7-1.4-6.3-2.8
			c-1.4-1.2-2.9-3.2-2.7-5.1c0.1-1.9,1.8-3.5,3.8-3.2c2.8,0.5,4.9,5,5.3,7.5c0,0.2,0.1,3,0.1,3.5c0.1-0.1,0.1-0.3,0.2-0.4
			c0.9-2.5,1.5-5,1.9-7.3c0.2-1.4,0.4-2.7,0.5-4c-0.9-0.2-4.8-0.9-6.4-2c-1.5-1.1-3.2-2.8-3.3-4.8c-0.1-1.9,1.4-3.7,3.4-3.6
			c2.8,0.2,5.4,4.5,6,6.9c0,0.1,0.2,1.5,0.4,2.5c0-0.6,0.1-1.2,0.1-1.8c0.1-2.1,0.1-4,0.1-5.8c0-1-0.1-1.9-0.1-2.7
			c-0.8-0.6-3.9-3.1-4.8-4.8c-0.9-1.6-1.5-4-0.7-5.8c0.8-1.8,2.9-2.6,4.7-1.6c2.4,1.4,2.8,6.5,2.2,8.9c0,0.2-1.2,3.4-1.2,3.4
			c0,0,0,0,0,0c0.1,0.8,0.1,1.6,0.2,2.6c0.1,1.7,0.1,3.7,0,5.8c-0.1,2.1-0.2,4.4-0.6,6.8c-0.4,2.4-0.9,4.9-1.7,7.5c0,0,0,0.1,0,0.1
			c0.5-0.7,1.9-2.5,2-2.6c1.7-1.8,6.2-4.2,8.7-3c1.8,0.9,2.2,3.1,1.2,4.8c-1.1,1.7-3.4,2.4-5.2,2.5c-2.1,0.2-6.4-1.4-6.7-1.5
			c-0.8,2.4-1.9,4.8-3.1,7.2c-0.7,1.4-1.4,2.7-2.2,4c0.4-0.6,0.8-1.1,0.9-1.1c1.7-1.8,6.2-4.2,8.7-3c1.8,0.9,2.2,3.1,1.2,4.8
			c-1.1,1.7-3.4,2.4-5.2,2.5c-1.9,0.2-5.6-1.1-6.5-1.4c-0.3,0.5-0.6,1-0.9,1.5c-1.4,2.4-2.8,4.9-4.2,7.3c-0.5,0.9-0.9,1.7-1.3,2.6
			c0.4-0.5,0.7-0.9,0.8-1c1.7-1.8,6.2-4.2,8.7-3c1.8,0.9,2.2,3.1,1.2,4.8c-1.1,1.7-3.4,2.4-5.2,2.5c-1.8,0.2-5.2-1-6.4-1.4
			c-0.4,0.9-0.8,1.8-1.2,2.7c-0.2,0.6-0.5,1.2-0.7,1.8c-0.2,0.6-0.4,1.2-0.6,1.8c-0.4,1.2-0.7,2.4-1.1,3.5c-0.2,0.8-0.4,1.6-0.6,2.3
			c0.5-0.9,1.4-2.5,1.5-2.6c1.5-2,5.5-5.1,8.1-4.2c1.9,0.6,2.7,2.8,1.9,4.5c-0.8,1.8-3,2.9-4.8,3.3c-2,0.5-6.3-0.3-6.8-0.4
			c-0.3,1.3-0.7,2.5-0.9,3.7c-0.1,0.3-0.1,0.5-0.2,0.7h-1.7c0.1-0.4,0.2-0.7,0.3-1.1c0.3-1.3,0.7-2.7,1.1-4.1c-0.3-0.1-2.1-1-3.7-2
			c-1.5,1.5-5.3,3-5.8,3.3c0.4,1.3,0.8,2.5,1.3,3.6c0.1,0.1,0.1,0.3,0.1,0.4h-1.8c-0.4-1.2-0.8-2.5-1.3-3.9
			c-0.5,0.1-4.9,0.7-6.8,0.1c-1.8-0.5-3.9-1.7-4.6-3.5c-0.7-1.8,0.2-3.9,2.1-4.5c2.7-0.7,6.6,2.5,7.9,4.6c0.1,0.1,0.8,1.6,1.2,2.5
			c-0.2-0.6-0.4-1.1-0.5-1.7c-0.4-1.2-0.7-2.4-1-3.6c-0.1-0.6-0.3-1.2-0.4-1.9c-0.2-0.6-0.3-1.3-0.4-2c-0.3-1.5-0.5-3.1-0.6-4.7
			c-1,0.3-4.7,1.3-6.6,1.1c-1.8-0.2-4.1-1.1-5.1-2.8c-1-1.7-0.4-3.9,1.4-4.7c2.6-1.1,6.9,1.5,8.5,3.4c0.1,0.1,1.1,1.6,1.7,2.4
			c-0.1-1-0.2-1.9-0.2-2.9c-0.2-2.8-0.3-5.6-0.4-8.4c0-0.9-0.1-1.7-0.1-2.6c-0.4,0.1-4.7,1.4-6.8,1.2c-1.8-0.2-4.1-1.1-5.1-2.8
			c-1-1.7-0.4-3.9,1.4-4.7c2.6-1.1,6.9,1.5,8.5,3.4c0.1,0.1,1.6,2.3,2,2.8c-0.1-1.9-0.2-3.8-0.4-5.6c-0.2-2.6-0.6-5.1-1.2-7.5
			c-0.2,0.1-4.7,1.5-6.8,1.2c-1.8-0.2-4.1-1.1-5.1-2.8c-1-1.7-0.4-3.9,1.4-4.7c2.6-1.1,6.9,1.5,8.5,3.4c0.1,0.1,1.7,2.4,2,2.9
			c0-0.1-0.1-0.3-0.1-0.4c-0.6-2.6-1.5-4.9-2.5-7.1c-0.6-1.3-1.2-2.5-1.8-3.6c-0.8,0.3-4.6,1.9-6.5,1.9c-1.9,0-4.2-0.6-5.4-2.2
			c-1.1-1.6-0.9-3.8,0.9-4.8c2.4-1.4,7,0.7,8.8,2.4c0.1,0.1,1,1.1,1.7,1.9c-0.3-0.5-0.6-1-0.9-1.5c-1.1-1.8-2.1-3.4-3.1-4.9
			c-0.6-0.8-1.1-1.5-1.6-2.2c-1-0.1-4.9-0.4-6.6-1.3c-1.6-0.9-3.5-2.5-3.8-4.4C319.5,372,320.8,370.1,322.8,370z"/>
		<path class="st6" d="M336.3,388.7c0,0-0.7-3.3-0.7-3.5c-0.2-2.5,0.9-7.4,3.5-8.5c1.9-0.8,3.8,0.4,4.4,2.3c0.6,1.9-0.4,4.1-1.5,5.6
			C340.6,386.3,336.3,388.7,336.3,388.7z"/>
	</g>
	<ellipse class="st7" cx="254.6" cy="461.3" rx="100.7" ry="15.4"/>
	<g>
		<g>
			<path class="st8" d="M355.5,323.8c-11.4,10-37,36.8-37,36.8L266.9,391c-22.4-8.6-94.3-23.3-94.3-23.3
				c-2.4-15.2-15.2-72.4-15.2-72.4l60-72.9l83.8-10.5c17.6,10.5,56.7,42.4,56.7,42.4C355.1,272.9,355.5,323.8,355.5,323.8z"/>
			<path class="st9" d="M240.6,296.5l18-5.4l-19.6-4.4l-1.6-0.1l-44.3-3.7l-35.4,12l-0.3,0.4c0,0,12.9,57.2,15.2,72.4
				c0,0,8.5-21.8,18.6-33.2C201.4,323.1,240.6,296.5,240.6,296.5z"/>
			<path class="st9" d="M301.2,211.9l-83.1,10.4l1.6,12.5l14.2,19l28.8,32.9c0,0,7.3-28.8,11.4-40.5c4.1-11.7,14.2-24.2,14.2-24.2
				l4.2-4.7L301.2,211.9C301.3,211.9,301.3,211.9,301.2,211.9z"/>
			<path class="st2" d="M287.5,216.6c0,0,12.3,0.4,21,4.9"/>
			<path class="st2" d="M234.5,228.9c1.5-0.4,3.2-0.9,4.9-1.2"/>
			<path class="st2" d="M215.2,237.5c0,0,5.4-4.3,16.7-7.8"/>
			<polygon class="st9" points="266.9,391 263.7,291.4 318.6,360.6 			"/>
			<path class="st9" d="M355.5,323.8c0,0-32.6-27.4-89-36.9c0,0,50-33,91.3-32.7C355.1,272.9,355.5,323.8,355.5,323.8z"/>
		</g>
		<g>
			<path class="st4" d="M238.8,418.3l-17.8,1.3c0,0-6.2-0.2-3.1,9.8s16.5,21.8,29.8,26.9c13.3,5.1,36,6.7,42.7,5.6
				c6.7-1.1,17.1-12.9,24.2-20.5c7.1-7.6,11.1-16.2,11.1-16.9c0-0.7-4.9-3.3-19.3-5.3c-14.5-2-52.3-1.8-62.3-1.8L238.8,418.3z"/>
			<g>
				<rect x="237.3" y="302.9" class="st4" width="39.1" height="31.6"/>
				<path class="st10" d="M255.2,324c1.1,0.2,13.4,0.7,17.5,0.7c4.1,0,9.5,3.2,9.5,3.2s-1.4,24-1.4,32.7s5.9,51.9,6.1,52.9
					c0.2,0.9,2,7.9-2.3,9.8c-4.3,1.8-20-0.9-24-0.7c-4.1,0.2-10.4,1.6-20.9,0.7s-11.3-0.9-10.4-2.5c0.9-1.6,3.9-88,6.4-90.7
					c2.5-2.7,8.8-5.2,8.8-5.2C248.1,323.4,254,323.8,255.2,324z"/>
				<path class="st2" d="M260.6,422.5c0,0,5.2-1.4,9.5-1.6"/>
				<path class="st2" d="M265.1,403.1c-0.8,1.2-1.7,2.4-2.7,3.5"/>
				<path class="st2" d="M274.9,365.1c0,0,0.5,20.7-8.4,35.8"/>
			</g>
			<g>
				<path class="st9" d="M248.1,313.2v9l-8.3,4.4c0,0,4.6,9.9,15.8,10.3c11.2,0.5,20.4-12.2,20.4-12.2l-10.1-1.6l-0.2-9.9H248.1z"/>
				<line class="st2" x1="248.1" y1="322.2" x2="248.3" y2="330.4"/>
				<line class="st2" x1="266" y1="323.1" x2="266" y2="329.5"/>
			</g>
			<g>
				<path class="st9" d="M240.3,325.4c0,0-20.7,10.6-22,14c-1.4,3.4-12.2,41.3-12.2,42s-9,6-11.2,10.1c-2.3,4.1-0.5,9.9,0.2,10.8
					c0.7,0.9,13.5,12.2,21.1,17.4c7.6,5.3,9.9,4.6,15.4-0.7c5.5-5.3,7.8-15.8,7.6-24.8C238.9,385.3,240.3,325.4,240.3,325.4z"/>
				<g>
					<g>
						<path class="st2" d="M222.2,403.5c0,0.8,0,1.5,0,2c-0.5,7.6-1.8,9.2-1.8,9.2"/>
						<path class="st2" d="M216.2,347.4c0,0,4.6,36.2,5.7,51.9"/>
						<path class="st2" d="M233,403.1c0.7-1,1.3-2,2-3.1"/>
						<path class="st2" d="M213,416.1c0,0,9,1.7,18.9-11.4"/>
					</g>
					<path class="st2" d="M210,388c2.6,5.4,6,14.6,5,24.9"/>
					<path class="st2" d="M207.2,383c0,0,0.8,1.2,1.9,3.2"/>
				</g>
			</g>
			<g>
				<path class="st9" d="M278.3,326.2c0,0-0.3,26.5-1.6,51.5c-1.3,24.9,4.6,38.3,9.4,42.4c4.8,4,7.8,4.6,7.8,4.6s19-10.5,21.2-13.4
					c2.1-2.9,7-11.8,5.9-19.6c-1.1-7.8-7.8-18.2-8.6-20.6c-0.8-2.4-9.4-15-12.3-21.7c-2.9-6.7-7-14.5-10.2-17.2
					C286.6,329.4,278.3,326.2,278.3,326.2z"/>
				<path class="st9" d="M284.5,395.4c-2.1,11.3,9.9,19.3,17.4,19.8c7.5,0.5,14.5-5.6,14.5-5.6"/>
				<path class="st9" d="M300,352.2c0,0-11.8,28-15,40.8"/>
				<path class="st9" d="M318.1,399c1-5.6,1.2-12.6-1.4-19.2"/>
				<path class="st9" d="M297.3,371.5c-2.6,5.6-6.7,15.2-7.7,22c-1.6,10.2,8,13.9,13.7,15c4.9,0.9,11.6-2.4,14-6.9"/>
				<path class="st9" d="M299.5,367c0,0-0.6,1.2-1.5,3"/>
			</g>
			<g>
				<path class="st2" d="M195.5,393.6c0,0,1.2-0.3,2.5,3c1.3,3.3,4.2,3.6,4.9,3.6c0.8,0,3.8,0,4.9,1.6c1.2,1.6-2,4.8-4,4.8
					c-2.1,0-7.9-1.7-10.3-0.8c-2.3,0.9-0.9-4.2-0.1-6.6C194.2,396.7,195.5,393.6,195.5,393.6z"/>
				<g>
					<g>
						<path class="st2" d="M195.5,393.6c0,0-5-0.5-5,3c0,3.4,2.5,9.4,4.6,8.3c2.1-1.1,1.8-3,1.8-6.4
							C196.9,394.9,195.5,393.6,195.5,393.6z"/>
						<path class="st2" d="M190.3,395.4c0,0-2.5-1.2-2.7,4.3s2.9,7.6,4.4,7.6c1.6,0,1.7-2.3,1.7-2.3S190.3,400.8,190.3,395.4z"/>
						<path class="st2" d="M187.9,396.9c0,0-2.2,3.4-2.5,6.3c-0.3,2.9,3.9,7,5.7,4.8l-0.4-1.2C190.7,406.8,186.8,404.2,187.9,396.9z
							"/>
						<path class="st2" d="M185,404.2c0,0-1.2,2.6-0.3,5.6c0.9,3,3.6,3.6,3.4,1.7c-0.3-2-0.9-4.6-0.9-4.6L185,404.2z"/>
					</g>
					<path class="st2" d="M203,400.8c0,0,0.1,6.6,2.6,7.4c2.5,0.8,3.6-3.8,2.6-5.9c-1-2.1-4.7-3.1-6-2.5"/>
				</g>
			</g>
			<path class="st9" d="M303.7,340.2c-1.1-0.4-2.3,0.3-2.5,1.5c-0.5,2.5-1.6,7.6-3.1,9.4c-2.1,2.4-2.6,5.7-0.8,8.5
				c1.8,2.7,3.2,4.6,3.2,4.6s1,3.5,0,6.2c-1,2.7-2.6,12.5-2.2,18.4c0.3,5.9,2.6,6.9,7,6.7c4.5-0.2,7.3-6.9,7.2-11.7
				c-0.2-4.8-3.4-15.3-3.4-17.2s1.8-5.7,1.8-5.7s-5.4-7.8-6.1-9.1s-1.1-2.4-1.1-2.4S306.8,341.5,303.7,340.2z"/>
			<g>
				<g>
					<path class="st11" d="M315.6,376.8c-0.7-0.1-1.4-0.5-1.8-1.2l-13.9-22.9c-0.7-1.1-0.3-2.6,0.8-3.3c1.1-0.7,2.6-0.3,3.3,0.8
						l13.9,22.9c0.7,1.1,0.3,2.6-0.8,3.3C316.6,376.8,316.1,376.9,315.6,376.8z"/>
				</g>
				<g>
					
						<rect x="284.3" y="292.6" transform="matrix(0.8556 -0.5176 0.5176 0.8556 -126.6409 194.635)" class="st9" width="2.4" height="63.5"/>
				</g>
			</g>
			<g>
				<path class="st9" d="M306.2,352.2c0,0-6.5,1.8-6.1,4.3c0.5,2.6,2.2,1.8,3.7,1.1c1.4-0.6,5.4-1.6,5.4-3.5
					S307.5,352.1,306.2,352.2z"/>
				<path class="st9" d="M303.8,357.6c0,0-2.7,1.3-1.9,2.9c0.8,1.6,1.6,1.9,2.4,1.4c0.8-0.5,5.9-2.4,6.7-4c0.8-1.6-1.4-2.9-2.1-2.7
					C308.3,355.4,303.8,357.6,303.8,357.6z"/>
				<path class="st9" d="M304.3,362c0,0-0.2,1.1,1.4,2.2c1.6,1.1,5.4-1.8,6.2-3.4c0.8-1.6-1-2.9-1-2.9S305.2,361.5,304.3,362z"/>
				<path class="st9" d="M307.5,352.2c0,0,0.5-3.2-1.1-4.2c-1.6-1-5.6,1.1-6.1,3.2c-0.5,2.1,1,2.9,2.2,2.2
					C303.8,352.9,307.5,352.2,307.5,352.2z"/>
			</g>
			<g>
				<path class="st4" d="M328.2,418.3c0.7,11.8-21.3,25.6-31.8,30.2c-3,1.3-7,3-11.5,4.8c-11.4,4.5-25.6,9.6-31.2,11
					c-7.8,2-18.5,2.2-29.1,2.2c-10.7,0-16.5-2.9-18-11.1c-1.6-8.2,2.4-8.7,6-8.7c3.6,0,19.6,5.8,27.1,4.7
					c7.6-1.1,14.9-7.8,25.6-16.7c1.2-1,2.7-2.2,4.3-3.4c12.4-9.5,34.1-23.9,34.1-23.9s6.4-3.3,10.4-4.4
					C318.2,401.9,327.5,406.5,328.2,418.3z"/>
				<path class="st12" d="M284.9,453.3c-11.4,4.5-25.6,9.6-31.2,11c-7.8,2-18.5,2.2-29.1,2.2c-10.7,0-16.5-2.9-18-11.1
					c-1.6-8.2,2.4-8.7,6-8.7c3.6,0,19.6,5.8,27.1,4.7c7.6-1.1,14.9-7.8,25.6-16.7c1.2-1,2.7-2.2,4.3-3.4c-0.2,4.2,0.2,11.8,5.7,16.6
					C278.7,450.9,282.2,452.5,284.9,453.3z"/>
			</g>
			<g>
				<path class="st4" d="M236.8,434.1c0,0-9.3-8.9-18.5-18.7c-9.1-9.8-17.3-15.1-26.3-8.2c-9,6.9-4.3,14.9,2.5,24.9
					c6.9,10,20.2,20,35.1,26.7c14.9,6.7,34.5,10.7,42.5,10.7c8,0,23.8,2.9,28,1.6c4.2-1.3,5.8-7.6,5.1-12.2
					c-0.7-4.7-3.1-6.2-8.4-6.2s-15.6,4.4-26,3.8C260.4,455.7,244.8,443,236.8,434.1z"/>
				<path class="st12" d="M229.7,458.8c14.9,6.7,34.5,10.7,42.5,10.7c8,0,23.8,2.9,28,1.6s5.8-7.6,5.1-12.2
					c-0.7-4.7-3.1-6.2-8.4-6.2s-15.6,4.4-26,3.8c-10.5-0.7-26-13.3-34-22.2c0,0-3.7-3.5-8.6-8.5c-0.5,2.5-2.6,9-9.6,13.6
					c-4.9,3.2-9.5,4.4-12.7,4.9C212.6,449.7,220.9,454.8,229.7,458.8z"/>
			</g>
			<g>
				<g>
					<path class="st9" d="M241.9,308.9c0,0,10.8,12.2,14.9,12.2c4.1,0,15.4-10.8,16.3-12.9c0.9-2.1,0.7-26.6,0.7-26.6
						s-8.5-5.3-19.1-3.4c-10.6,1.8-12.9,5.7-12.9,5.7V308.9z"/>
					<path class="st2" d="M246.5,293c0,0,3.4-1.6,5.5-0.7"/>
					<path class="st2" d="M268.5,293c-2.3-2.3-5.7-0.9-5.7-0.9"/>
					<line class="st2" x1="260" y1="298.8" x2="257" y2="299.9"/>
					<path class="st2" d="M261.6,287.1c0,0,4.1-3,7.3,1.1"/>
					<path class="st2" d="M253.8,287.1c0,0-5-3.2-7.6,2.3"/>
					<path class="st2" d="M250.4,304c0,0,2.8,3,7.3,3c4.6,0,7.1-3.7,7.1-3.7"/>
				</g>
				<path class="st4" d="M243.3,282c0,0-1.6,39.2-0.5,47.5c1.1,8.3,6.9,28.5,8.7,31.2c1.8,2.8,2.8,3,2.8,3s-10.4,3.7-16.5-4.1
					c-3.2-4.1-6.7-8.3-7.8-19.3c-1.6-15.1,5-49.6,5-49.6S236.8,282.2,243.3,282z"/>
				<path class="st4" d="M271.5,282c0,0,1.6,39.2,0.5,47.5c-1.1,8.3-6.9,28.5-8.7,31.2c-1.8,2.8-2.8,3-2.8,3s10.4,3.7,16.5-4.1
					c3.2-4.1,6.7-8.3,7.8-19.3c1.6-15.1-5-49.6-5-49.6S277.9,282.2,271.5,282z"/>
				<path class="st10" d="M235.5,283.7c0,0,3.9-15.3,19.5-16.9c15.6-1.6,21.8,6.9,22.5,14.5c0,0-8.3-7.1-22.3-5.5
					C241.2,277.4,235.5,283.7,235.5,283.7z"/>
				<path class="st10" d="M234.1,294.9c0,0,1.6-8,12.9-11.9c11.2-3.9,20.9-0.7,23.6,0.2c2.8,0.9,8,5.3,9.2,8.3c0,0,0.5-2.3,0-4.8
					c-0.5-2.5,0.5-6.7-3.7-9.9c-4.1-3.2-15.6-5.5-24.3-4.1c-8.7,1.4-15.1,6.7-17.4,11.5C232,288.9,233.2,294.2,234.1,294.9z"/>
			</g>
		</g>
	</g>
</g>
</svg>
