<?xml version="1.0" encoding="utf-8"?>
<!-- Generator: Adobe Illustrator 25.2.0, SVG Export Plug-In . SVG Version: 6.00 Build 0)  -->
<svg version="1.1" id="Layer_1" xmlns="http://www.w3.org/2000/svg" xmlns:xlink="http://www.w3.org/1999/xlink" x="0px" y="0px"
	 viewBox="0 0 500 500" style="enable-background:new 0 0 500 500;" xml:space="preserve">
<style type="text/css">
	.st0{fill:#A87BFF;stroke:#1A2E35;stroke-linecap:round;stroke-linejoin:round;stroke-miterlimit:10;}
	.st1{opacity:0.8;fill:#FFFFFF;}
	.st2{fill:#1A2E35;}
	.st3{opacity:0.3;fill:#1A2E35;}
	.st4{fill:none;stroke:#1A2E35;stroke-linecap:round;stroke-linejoin:round;stroke-miterlimit:10;}
	.st5{fill:#8342EA;stroke:#1A2E35;stroke-linecap:round;stroke-linejoin:round;stroke-miterlimit:10;}
	.st6{fill:#5AE4A7;stroke:#1A2E35;stroke-linecap:round;stroke-linejoin:round;stroke-miterlimit:10;}
	.st7{fill:#1A2E35;stroke:#1A2E35;stroke-linecap:round;stroke-linejoin:round;stroke-miterlimit:10;}
	.st8{fill:#FFFFFF;stroke:#1A2E35;stroke-linecap:round;stroke-linejoin:round;stroke-miterlimit:10;}
	.st9{fill:#999999;stroke:#1A2E35;stroke-linecap:round;stroke-linejoin:round;stroke-miterlimit:10;}
	.st10{fill:none;stroke:#1A2E35;stroke-width:2;stroke-linecap:round;stroke-linejoin:round;stroke-miterlimit:10;}
	.st11{fill:none;stroke:#999999;stroke-linecap:round;stroke-linejoin:round;stroke-miterlimit:10;}
</style>
<g id="Background_Simple">
</g>
<g id="Graphics">
</g>
<g id="Shadow_4">
</g>
<g id="Shadow_3">
</g>
<g id="Shadow_2">
</g>
<g id="Shadow_1">
</g>
<g id="Character_4">
</g>
<g id="Character_2_1_">
</g>
<g id="Character_1">
</g>
<g id="Text">
</g>
<g>
	<g>
		<path class="st0" d="M468.7,297.4c-14.7,39.4-44.8,82.1-87.1,94.7c-64,19.1-71.6,70.7-186.2,65.9c-17.9-0.7-34.4-3.3-49.5-7.3
			c-8.2-2.2-15.9-4.8-23.3-7.7C55.7,415.9,20.8,356.2,17.9,293.8c-3.8-82.1,53.5-121.2,90.7-144.2C145.8,126.8,190.6,38,303.3,41.8
			c17.2,0.6,34.3,2.9,50.9,7.4c37.9,10.3,76.4,33,98.8,66.1c1.7,2.5,3.3,5,4.8,7.6C487.8,173.8,488.8,243.6,468.7,297.4z"/>
		<path class="st1" d="M468.7,297.4c-14.7,39.4-44.8,82.1-87.1,94.7c-64,19.1-71.6,70.7-186.2,65.9c-17.9-0.7-34.4-3.3-49.5-7.3
			c-8.2-2.2-15.9-4.8-23.3-7.7C55.7,415.9,20.8,356.2,17.9,293.8c-3.8-82.1,53.5-121.2,90.7-144.2C145.8,126.8,190.6,38,303.3,41.8
			c17.2,0.6,34.3,2.9,50.9,7.4c37.9,10.3,76.4,33,98.8,66.1c1.7,2.5,3.3,5,4.8,7.6C487.8,173.8,488.8,243.6,468.7,297.4z"/>
	</g>
	<g>
		<path class="st2" d="M455.7,365.4c0.1,0,1.1-4.5,1.2-4.8c0.4-3.4-0.8-10.3-4.3-11.9c-2.5-1.2-5.3,0.4-6.2,2.9
			c-0.9,2.6,0.4,5.7,1.8,7.8C449.9,361.9,455.7,365.4,455.7,365.4z"/>
		<path class="st2" d="M387.1,365.3c2.8,1.2,9.6,0.9,9.6,0.9c0.1,0-1.6-4.4-1.7-4.7c-1.6-3.1-6.4-8.1-10.2-7.5
			c-2.7,0.4-4.2,3.2-3.5,5.8C381.9,362.4,384.7,364.3,387.1,365.3z"/>
		<path class="st2" d="M389.8,384.9c2.9,0.4,8.9-1.5,9.4-1.7c1,3.4,2.4,6.7,3.9,10.1c0.9,1.9,1.8,3.8,2.8,5.7
			c-0.6-0.8-1.1-1.5-1.2-1.6c-2.3-2.6-8.3-6.2-11.8-4.6c-2.5,1.1-3.2,4.2-1.9,6.5c1.4,2.4,4.5,3.5,7.1,3.8c2.6,0.3,7.8-1.2,9.1-1.6
			c0.4,0.7,0.7,1.4,1.1,2.2c1.8,3.5,3.7,6.9,5.4,10.3c0.6,1.2,1.1,2.4,1.7,3.6c-0.5-0.7-0.9-1.3-1-1.4c-2.3-2.6-8.3-6.2-11.8-4.6
			c-2.5,1.1-3.2,4.2-1.9,6.5c1.4,2.4,4.5,3.5,7.1,3.8c2.5,0.3,7.2-1,8.9-1.5c0.5,1.3,1.1,2.5,1.5,3.8c0.3,0.9,0.6,1.7,0.9,2.5
			c0.3,0.9,0.5,1.7,0.8,2.6c0.4,1.6,0.9,3.3,1.3,4.9c0.3,1.1,0.5,2.2,0.8,3.3c-0.6-1.2-1.8-3.6-1.9-3.7c-1.9-2.9-7.3-7.3-11-6.3
			c-2.7,0.7-3.8,3.7-2.9,6.2c1,2.5,4,4.1,6.4,4.8c2.7,0.8,8.7-0.1,9.5-0.2c0.4,1.8,0.8,3.5,1.1,5.2c0.9,4.5,1.5,8.5,2,11.6h2.6
			c-0.5-3.2-1.3-7.3-2.3-12.1c-0.4-1.8-0.9-3.7-1.3-5.7c0.4-0.2,3-1.3,5.2-2.6c2,2.1,7.1,4.5,7.8,4.8c-0.7,1.7-1.3,3.4-1.9,4.9
			c-1.7,4.2-3.4,7.9-4.7,10.7h2.8c1.2-2.7,2.6-6,4-9.8c0.7-1.7,1.4-3.6,2-5.5c0.7,0.1,6.7,1.2,9.5,0.5c2.5-0.6,5.5-2.1,6.6-4.6
			c1.1-2.5,0-5.4-2.7-6.3c-3.7-1.2-9.2,3.1-11.2,5.9c-0.1,0.2-1.2,2.1-1.8,3.4c0.3-0.8,0.6-1.5,0.8-2.4c0.6-1.6,1.1-3.2,1.6-5
			c0.2-0.8,0.5-1.7,0.7-2.6c0.3-0.9,0.4-1.8,0.6-2.7c0.5-2.1,0.8-4.3,1.1-6.4c1.4,0.5,6.4,2.1,9,1.9c2.6-0.2,5.8-1.2,7.2-3.6
			c1.4-2.3,0.8-5.4-1.7-6.6c-3.5-1.7-9.6,1.7-11.9,4.2c-0.1,0.2-1.7,2.1-2.5,3.2c0.2-1.3,0.4-2.6,0.5-3.9c0.4-3.8,0.7-7.7,1-11.6
			c0.1-1.2,0.2-2.4,0.3-3.6c0.5,0.2,6.4,2.2,9.3,2c2.6-0.2,5.8-1.2,7.2-3.6c1.4-2.3,0.8-5.4-1.7-6.6c-3.5-1.7-9.6,1.7-11.9,4.2
			c-0.2,0.2-2.4,3-2.9,3.8c0.2-2.6,0.5-5.2,0.8-7.8c0.5-3.5,1.1-7,2-10.2c0.2,0.1,6.4,2.3,9.4,2c2.6-0.2,5.8-1.2,7.2-3.6
			c1.4-2.3,0.8-5.4-1.7-6.6c-3.5-1.7-9.6,1.7-11.9,4.2c-0.2,0.2-1.8,2.3-2.6,3.4c-0.1-0.1-0.1,0-0.2-0.1c1-3.5,2.4-6.8,3.8-9.8
			c0.8-1.7,1.7-3.4,2.7-4.9c1.1,0.5,6.2,2.9,8.9,2.9c2.6,0,5.9-0.6,7.6-2.7c1.7-2.1,1.4-5.2-0.9-6.7c-3.3-2.1-9.7,0.6-12.3,2.8
			c-0.1,0.1-1.5,1.5-2.4,2.5c0.4-0.7,0.8-1.4,1.3-2.1c1.6-2.5,3.1-4.6,4.6-6.5c0.8-1.1,1.6-2,2.3-2.9c1.4-0.1,6.8-0.3,9.2-1.5
			c2.3-1.1,4.9-3.2,5.4-5.9c0.5-2.6-1.2-5.3-3.9-5.5c-3.8-0.3-8.3,5-9.6,8.2c-0.1,0.3-1.4,4.8-1.4,4.8c0,0,0.1,0,0.1,0
			c-0.7,0.8-1.5,1.7-2.3,2.8c-1.5,1.9-3.1,4-4.7,6.5c-1.6,2.4-3.3,5.1-4.9,8.1c-1.5,3-3,6.2-4.1,9.8c0,0,0,0.1,0,0.1
			c0-1.1-0.1-4.3-0.2-4.5c-0.5-3.4-3.5-9.7-7.3-10.3c-2.7-0.4-5,1.7-5.2,4.4c-0.2,2.7,1.9,5.4,3.8,7.1c2.2,1.9,8.3,3.6,8.7,3.8
			c-1,3.4-1.8,6.9-2.3,10.5c-0.3,2.1-0.6,4.2-0.8,6.3c0-1-0.1-1.9-0.1-2c-0.5-3.4-3.5-9.7-7.3-10.3c-2.7-0.4-5,1.7-5.2,4.4
			c-0.2,2.7,1.9,5.4,3.8,7.1c2,1.7,7.1,3.3,8.5,3.7c-0.1,0.8-0.2,1.6-0.3,2.4c-0.4,3.9-0.7,7.8-1.2,11.6c-0.2,1.3-0.4,2.6-0.6,4
			c0-0.9-0.1-1.6-0.1-1.7c-0.5-3.4-3.5-9.7-7.3-10.3c-2.7-0.4-5,1.7-5.2,4.4c-0.2,2.7,1.9,5.4,3.8,7.1c1.9,1.6,6.6,3.1,8.2,3.6
			c-0.3,1.3-0.5,2.7-0.8,4c-0.2,0.9-0.4,1.7-0.7,2.6c-0.3,0.9-0.5,1.7-0.8,2.6c-0.5,1.6-1.1,3.3-1.7,4.8c-0.4,1.1-0.8,2.1-1.2,3.1
			c0.2-1.3,0.5-3.9,0.5-4.2c0-2.3-0.9-6-2.6-8.6c0-0.3,0-0.7-0.1-1c-0.5-2.6-3-4.5-5.7-3.8c-3.7,1.1-5.9,7.7-6,11.1
			c0,0.2,0.2,2.4,0.3,3.8c-0.2-0.8-0.4-1.6-0.6-2.4c-0.4-1.6-0.9-3.3-1.4-5c-0.3-0.8-0.5-1.7-0.8-2.5c-0.3-0.9-0.6-1.7-1-2.6
			c-0.8-2-1.7-4-2.6-6c1.4-0.4,6.5-1.8,8.5-3.4c2-1.6,4.1-4.2,4-6.9c-0.1-2.7-2.3-4.9-5-4.6c-3.8,0.5-7,6.7-7.7,10.1
			c0,0.2-0.2,2.7-0.3,4.1c-0.6-1.2-1.1-2.4-1.8-3.6c-1.8-3.4-3.7-6.8-5.6-10.2c-0.6-1-1.1-2.1-1.7-3.1c0.5-0.1,6.6-1.7,8.9-3.5
			c2-1.6,4.1-4.2,4-6.9c-0.1-2.7-2.3-4.9-5-4.6c-3.8,0.5-7,6.7-7.7,10.1c0,0.3-0.3,3.8-0.3,4.7c-1.3-2.3-2.5-4.6-3.6-6.9
			c-1.6-3.2-2.9-6.4-4-9.7c0.2-0.1,6.6-1.6,8.9-3.5c2-1.6,4.1-4.2,4-6.9c-0.1-2.7-2.3-4.9-5-4.6c-3.8,0.5-7,6.7-7.7,10.1
			c0,0.2-0.2,2.9-0.3,4.2c-0.1,0-0.1,0-0.2,0c-1.1-3.5-1.7-7-2.2-10.3c-0.3-1.9-0.4-3.8-0.5-5.6c1.2-0.2,6.8-1,9-2.5
			c2.2-1.4,4.6-3.7,4.8-6.5c0.2-2.7-1.7-5.2-4.5-5.1c-3.9,0.1-7.7,5.9-8.7,9.2c-0.1,0.2-0.4,2.1-0.6,3.4c0-0.8-0.1-1.6-0.1-2.4
			c-0.1-2.9,0.1-5.6,0.2-8c0.1-1.3,0.2-2.6,0.3-3.7c1.1-0.8,5.5-4,6.8-6.3c1.3-2.2,2.3-5.4,1.3-7.9c-1-2.5-3.9-3.8-6.3-2.5
			c-3.4,1.8-4.2,8.8-3.5,12.2c0.1,0.3,1.4,4.8,1.5,4.7c0,0,0.1,0,0.1,0c-0.1,1.1-0.3,2.3-0.4,3.5c-0.2,2.4-0.4,5.1-0.4,8
			c0,2.9,0.1,6.1,0.4,9.5c0.4,3.4,0.9,6.9,2,10.4c0,0,0,0.1,0,0.1c-0.6-0.9-2.5-3.5-2.6-3.7c-2.3-2.6-8.3-6.1-11.8-4.6
			c-2.5,1.1-3.2,4.2-1.9,6.5C384.1,383.5,387.3,384.6,389.8,384.9z"/>
		<path class="st3" d="M387.1,365.3c2.8,1.2,9.6,0.9,9.6,0.9c0.1,0-1.6-4.4-1.7-4.7c-1.6-3.1-6.4-8.1-10.2-7.5
			c-2.7,0.4-4.2,3.2-3.5,5.8C381.9,362.4,384.7,364.3,387.1,365.3z"/>
		<path class="st3" d="M455.7,365.4c0.1,0,1.1-4.5,1.2-4.8c0.4-3.4-0.8-10.3-4.3-11.9c-2.5-1.2-5.3,0.4-6.2,2.9
			c-0.9,2.6,0.4,5.7,1.8,7.8C449.9,361.9,455.7,365.4,455.7,365.4z"/>
		<path class="st3" d="M389.8,384.9c2.9,0.4,8.9-1.5,9.4-1.7c1,3.4,2.4,6.7,3.9,10.1c0.9,1.9,1.8,3.8,2.8,5.7
			c-0.6-0.8-1.1-1.5-1.2-1.6c-2.3-2.6-8.3-6.2-11.8-4.6c-2.5,1.1-3.2,4.2-1.9,6.5c1.4,2.4,4.5,3.5,7.1,3.8c2.6,0.3,7.8-1.2,9.1-1.6
			c0.4,0.7,0.7,1.4,1.1,2.2c1.8,3.5,3.7,6.9,5.4,10.3c0.6,1.2,1.1,2.4,1.7,3.6c-0.5-0.7-0.9-1.3-1-1.4c-2.3-2.6-8.3-6.2-11.8-4.6
			c-2.5,1.1-3.2,4.2-1.9,6.5c1.4,2.4,4.5,3.5,7.1,3.8c2.5,0.3,7.2-1,8.9-1.5c0.5,1.3,1.1,2.5,1.5,3.8c0.3,0.9,0.6,1.7,0.9,2.5
			c0.3,0.9,0.5,1.7,0.8,2.6c0.4,1.6,0.9,3.3,1.3,4.9c0.3,1.1,0.5,2.2,0.8,3.3c-0.6-1.2-1.8-3.6-1.9-3.7c-1.9-2.9-7.3-7.3-11-6.3
			c-2.7,0.7-3.8,3.7-2.9,6.2c1,2.5,4,4.1,6.4,4.8c2.7,0.8,8.7-0.1,9.5-0.2c0.4,1.8,0.8,3.5,1.1,5.2c0.9,4.5,1.5,8.5,2,11.6h2.6
			c-0.5-3.2-1.3-7.3-2.3-12.1c-0.4-1.8-0.9-3.7-1.3-5.7c0.4-0.2,3-1.3,5.2-2.6c2,2.1,7.1,4.5,7.8,4.8c-0.7,1.7-1.3,3.4-1.9,4.9
			c-1.7,4.2-3.4,7.9-4.7,10.7h2.8c1.2-2.7,2.6-6,4-9.8c0.7-1.7,1.4-3.6,2-5.5c0.7,0.1,6.7,1.2,9.5,0.5c2.5-0.6,5.5-2.1,6.6-4.6
			c1.1-2.5,0-5.4-2.7-6.3c-3.7-1.2-9.2,3.1-11.2,5.9c-0.1,0.2-1.2,2.1-1.8,3.4c0.3-0.8,0.6-1.5,0.8-2.4c0.6-1.6,1.1-3.2,1.6-5
			c0.2-0.8,0.5-1.7,0.7-2.6c0.3-0.9,0.4-1.8,0.6-2.7c0.5-2.1,0.8-4.3,1.1-6.4c1.4,0.5,6.4,2.1,9,1.9c2.6-0.2,5.8-1.2,7.2-3.6
			c1.4-2.3,0.8-5.4-1.7-6.6c-3.5-1.7-9.6,1.7-11.9,4.2c-0.1,0.2-1.7,2.1-2.5,3.2c0.2-1.3,0.4-2.6,0.5-3.9c0.4-3.8,0.7-7.7,1-11.6
			c0.1-1.2,0.2-2.4,0.3-3.6c0.5,0.2,6.4,2.2,9.3,2c2.6-0.2,5.8-1.2,7.2-3.6c1.4-2.3,0.8-5.4-1.7-6.6c-3.5-1.7-9.6,1.7-11.9,4.2
			c-0.2,0.2-2.4,3-2.9,3.8c0.2-2.6,0.5-5.2,0.8-7.8c0.5-3.5,1.1-7,2-10.2c0.2,0.1,6.4,2.3,9.4,2c2.6-0.2,5.8-1.2,7.2-3.6
			c1.4-2.3,0.8-5.4-1.7-6.6c-3.5-1.7-9.6,1.7-11.9,4.2c-0.2,0.2-1.8,2.3-2.6,3.4c-0.1-0.1-0.1,0-0.2-0.1c1-3.5,2.4-6.8,3.8-9.8
			c0.8-1.7,1.7-3.4,2.7-4.9c1.1,0.5,6.2,2.9,8.9,2.9c2.6,0,5.9-0.6,7.6-2.7c1.7-2.1,1.4-5.2-0.9-6.7c-3.3-2.1-9.7,0.6-12.3,2.8
			c-0.1,0.1-1.5,1.5-2.4,2.5c0.4-0.7,0.8-1.4,1.3-2.1c1.6-2.5,3.1-4.6,4.6-6.5c0.8-1.1,1.6-2,2.3-2.9c1.4-0.1,6.8-0.3,9.2-1.5
			c2.3-1.1,4.9-3.2,5.4-5.9c0.5-2.6-1.2-5.3-3.9-5.5c-3.8-0.3-8.3,5-9.6,8.2c-0.1,0.3-1.4,4.8-1.4,4.8c0,0,0.1,0,0.1,0
			c-0.7,0.8-1.5,1.7-2.3,2.8c-1.5,1.9-3.1,4-4.7,6.5c-1.6,2.4-3.3,5.1-4.9,8.1c-1.5,3-3,6.2-4.1,9.8c0,0,0,0.1,0,0.1
			c0-1.1-0.1-4.3-0.2-4.5c-0.5-3.4-3.5-9.7-7.3-10.3c-2.7-0.4-5,1.7-5.2,4.4c-0.2,2.7,1.9,5.4,3.8,7.1c2.2,1.9,8.3,3.6,8.7,3.8
			c-1,3.4-1.8,6.9-2.3,10.5c-0.3,2.1-0.6,4.2-0.8,6.3c0-1-0.1-1.9-0.1-2c-0.5-3.4-3.5-9.7-7.3-10.3c-2.7-0.4-5,1.7-5.2,4.4
			c-0.2,2.7,1.9,5.4,3.8,7.1c2,1.7,7.1,3.3,8.5,3.7c-0.1,0.8-0.2,1.6-0.3,2.4c-0.4,3.9-0.7,7.8-1.2,11.6c-0.2,1.3-0.4,2.6-0.6,4
			c0-0.9-0.1-1.6-0.1-1.7c-0.5-3.4-3.5-9.7-7.3-10.3c-2.7-0.4-5,1.7-5.2,4.4c-0.2,2.7,1.9,5.4,3.8,7.1c1.9,1.6,6.6,3.1,8.2,3.6
			c-0.3,1.3-0.5,2.7-0.8,4c-0.2,0.9-0.4,1.7-0.7,2.6c-0.3,0.9-0.5,1.7-0.8,2.6c-0.5,1.6-1.1,3.3-1.7,4.8c-0.4,1.1-0.8,2.1-1.2,3.1
			c0.2-1.3,0.5-3.9,0.5-4.2c0-2.3-0.9-6-2.6-8.6c0-0.3,0-0.7-0.1-1c-0.5-2.6-3-4.5-5.7-3.8c-3.7,1.1-5.9,7.7-6,11.1
			c0,0.2,0.2,2.4,0.3,3.8c-0.2-0.8-0.4-1.6-0.6-2.4c-0.4-1.6-0.9-3.3-1.4-5c-0.3-0.8-0.5-1.7-0.8-2.5c-0.3-0.9-0.6-1.7-1-2.6
			c-0.8-2-1.7-4-2.6-6c1.4-0.4,6.5-1.8,8.5-3.4c2-1.6,4.1-4.2,4-6.9c-0.1-2.7-2.3-4.9-5-4.6c-3.8,0.5-7,6.7-7.7,10.1
			c0,0.2-0.2,2.7-0.3,4.1c-0.6-1.2-1.1-2.4-1.8-3.6c-1.8-3.4-3.7-6.8-5.6-10.2c-0.6-1-1.1-2.1-1.7-3.1c0.5-0.1,6.6-1.7,8.9-3.5
			c2-1.6,4.1-4.2,4-6.9c-0.1-2.7-2.3-4.9-5-4.6c-3.8,0.5-7,6.7-7.7,10.1c0,0.3-0.3,3.8-0.3,4.7c-1.3-2.3-2.5-4.6-3.6-6.9
			c-1.6-3.2-2.9-6.4-4-9.7c0.2-0.1,6.6-1.6,8.9-3.5c2-1.6,4.1-4.2,4-6.9c-0.1-2.7-2.3-4.9-5-4.6c-3.8,0.5-7,6.7-7.7,10.1
			c0,0.2-0.2,2.9-0.3,4.2c-0.1,0-0.1,0-0.2,0c-1.1-3.5-1.7-7-2.2-10.3c-0.3-1.9-0.4-3.8-0.5-5.6c1.2-0.2,6.8-1,9-2.5
			c2.2-1.4,4.6-3.7,4.8-6.5c0.2-2.7-1.7-5.2-4.5-5.1c-3.9,0.1-7.7,5.9-8.7,9.2c-0.1,0.2-0.4,2.1-0.6,3.4c0-0.8-0.1-1.6-0.1-2.4
			c-0.1-2.9,0.1-5.6,0.2-8c0.1-1.3,0.2-2.6,0.3-3.7c1.1-0.8,5.5-4,6.8-6.3c1.3-2.2,2.3-5.4,1.3-7.9c-1-2.5-3.9-3.8-6.3-2.5
			c-3.4,1.8-4.2,8.8-3.5,12.2c0.1,0.3,1.4,4.8,1.5,4.7c0,0,0.1,0,0.1,0c-0.1,1.1-0.3,2.3-0.4,3.5c-0.2,2.4-0.4,5.1-0.4,8
			c0,2.9,0.1,6.1,0.4,9.5c0.4,3.4,0.9,6.9,2,10.4c0,0,0,0.1,0,0.1c-0.6-0.9-2.5-3.5-2.6-3.7c-2.3-2.6-8.3-6.1-11.8-4.6
			c-2.5,1.1-3.2,4.2-1.9,6.5C384.1,383.5,387.3,384.6,389.8,384.9z"/>
	</g>
	<g>
		<rect x="52.9" y="64.8" class="st4" width="223.1" height="381.9"/>
		<rect x="59.5" y="73.1" class="st4" width="209.8" height="365.4"/>
		<rect x="59.5" y="186.7" class="st4" width="206.2" height="8.4"/>
		<polyline class="st4" points="166.8,324 166.8,438.4 158.4,438.4 158.4,324 		"/>
		<line class="st4" x1="158.4" y1="315.7" x2="158.4" y2="195.1"/>
		<line class="st4" x1="166.8" y1="315.7" x2="166.8" y2="195.1"/>
		<polyline class="st4" points="158.4,186.7 158.4,73 166.8,73 166.8,186.7 		"/>
		<rect x="59.5" y="315.7" class="st4" width="206.2" height="8.4"/>
		<line class="st4" x1="260" y1="315.7" x2="260" y2="195.1"/>
		<polyline class="st4" points="260,186.7 260,73.1 59.5,73.1 59.5,186.7 59.5,195.1 59.5,315.7 59.5,324 59.5,438.5 260,438.5 
			260,324 		"/>
		<line class="st4" x1="253.9" y1="90.6" x2="189.2" y2="155.4"/>
		<line class="st4" x1="232" y1="129.1" x2="214.8" y2="146.4"/>
		<line class="st4" x1="210.1" y1="152.4" x2="202.8" y2="159.7"/>
		<line class="st4" x1="111.9" y1="247.3" x2="81.3" y2="277.8"/>
		<line class="st4" x1="149.7" y1="228.7" x2="113.5" y2="264.9"/>
		<line class="st4" x1="141.1" y1="86" x2="103.2" y2="123.8"/>
		<line class="st4" x1="111.2" y1="150.4" x2="102.6" y2="159"/>
		<line class="st4" x1="244" y1="277.8" x2="234.7" y2="287.1"/>
		<line class="st4" x1="246.6" y1="240.7" x2="192.2" y2="295.1"/>
		<line class="st4" x1="203.5" y1="414.6" x2="231" y2="387"/>
		<line class="st4" x1="86.7" y1="382.7" x2="73.4" y2="396"/>
	</g>
	<g>
		<rect x="334.9" y="67.4" class="st4" width="136.1" height="172.6"/>
		<rect x="340.1" y="74" class="st4" width="125.8" height="159.5"/>
		<rect x="369.5" y="111.4" class="st4" width="66.8" height="84.7"/>
	</g>
	<g>
		<g>
			<path class="st5" d="M114,414.1c1-3.3,1.7-6.9,2.1-10.5c0.2-1.8,0.4-3.6,0.4-5.3c0-1.8-0.1-3.5-0.3-5.2l-0.2-1.3l-0.3-1.3
				l-0.6-2.7c-0.4-1.8-0.8-3.6-1.2-5.5c-0.4-1.8-0.7-3.7-0.9-5.6c-0.2-1.9-0.2-3.8-0.2-5.7l0,0c0-0.6,0.5-1,1-1c0.5,0,1,0.4,1,1
				c0.1,3.6,0.7,7.1,1.7,10.7c0.5,1.8,1,3.5,1.5,5.3l0.8,2.7l0.4,1.3l0.4,1.4c0.4,1.9,0.7,3.9,0.7,5.8c0.1,1.9,0.1,3.9,0,5.8
				c-0.2,3.8-0.8,7.5-1.6,11.4c-0.3,1.3-1.6,2.1-2.9,1.8s-2.1-1.6-1.8-2.9C114,414.3,114,414.2,114,414.1L114,414.1z"/>
			<g>
				<path class="st5" d="M115.7,376.3c0,0,0-5.6,3.1-8.7c3.1-3.1,7.1-3.8,9.8-4.1c2.8-0.3,15.8,1.9,15.8,1.9s-3.4,5.3-9.1,9.4
					C129.8,378.8,115.7,376.3,115.7,376.3z"/>
				<path class="st4" d="M133,368.4c1.4-0.3,2.9-0.6,4.3-0.8"/>
				<path class="st4" d="M115.7,376.3c0,0,6.2-4.7,14.8-7.3"/>
			</g>
			<g>
				<path class="st5" d="M112.9,371c0,0-3.4-8.2-9.1-10.5c-5.7-2.4-13.5,3.4-13.5,3.4s3.4,7.3,10.3,8.3
					C107.5,373.2,112.9,371,112.9,371z"/>
				<path class="st6" d="M112.9,371c0,0-7.4-4.6-13.5-5.6"/>
			</g>
		</g>
		<polygon class="st7" points="149.3,408.7 86,408.7 93.3,454.7 142,454.7 		"/>
	</g>
	<g>
		<path class="st8" d="M289.9,362.7c0,0-25.8-3.9-37.8-6.4c-9.2-1.9-22.4-5.3-22.4-5.3s-29.7-12.5-32.5-12
			c-2.8,0.5-11.1,8.5-11.1,8.5s16.3,21.6,17,21.5c0.8-0.1,21.4-5,21.4-5s46.6,27.4,55.2,30.1c8.6,2.7,13.2,3.8,13.2,3.8L289.9,362.7
			z"/>
		<g>
			<path class="st8" d="M174.8,342.9c0,0,17.2,20.9,19.4,26.3c2.2,5.4,7.1,30.8,9.8,36.1c1.5,3,6.6,9.9,10.7,15.5
				c3.2,4.2,9.2,5,13.3,1.7l20.4-16.3c4.2-3.3,4.7-9.5,1.2-13.5l-9.3-11.2c-1-1.2-2.2-2.3-3.4-3.2c-7.3-5.3-33.5-24.3-38.3-29.7
				c-5.6-6.4-10.9-13.3-10.9-13.3L174.8,342.9z"/>
			<g>
				<path class="st9" d="M177.4,345.6l11.8-7.8c0,0-0.9-2.2,0.7-3.8c1.6-1.6,4-5.7,2.2-8.5c-1.8-2.8-14.8-3.5-19.9,0.3
					c-5.1,3.8-13.5,13.1-13.5,13.1l5.7,7.2l6.7-3.8C171,342.2,174.9,345.2,177.4,345.6z"/>
				<polygon class="st8" points="159.3,339.7 156,342.7 159.8,347.5 163.4,344.6 				"/>
				<line class="st4" x1="154.3" y1="345.3" x2="142.9" y2="348.6"/>
				<line class="st4" x1="150.5" y1="358.1" x2="148.6" y2="360.9"/>
				<line class="st4" x1="156.7" y1="348.8" x2="152.2" y2="355.5"/>
			</g>
		</g>
		<g>
			<path class="st8" d="M178,346.8c0,0-4.1,1.6-3.6,4.5c0.5,2.9,3.6,4.4,3.6,4.4s9.7-0.6,10-1.9c0.2-1.3-1.7-3.3-3.5-3.9
				c-1.8-0.6-4.9-1.2-4.9-1.2L178,346.8z"/>
			<path class="st8" d="M178,355.7c0,0-0.5,2.3,1.3,4.6c1.8,2.3,2.4,3,5.4,2.1c3-1,8-3.7,7.9-5.9c-0.1-2.2-4.5-2.7-4.5-2.7
				S180.4,355.9,178,355.7z"/>
			<path class="st8" d="M182.2,363.1c0,0,0.2,3.2,2.4,3.8c2.1,0.6,5.2-0.9,6.6-1.8c1.4-0.9,5.1-4.1,4.3-6.7
				c-0.7-2.5-3.8-0.1-3.8-0.1S186.5,362.4,182.2,363.1z"/>
			<path class="st8" d="M187.1,367.1c0,0,0.3,2.6,1.8,3.1c1.5,0.5,5.5-1.9,6.8-4c1.4-2.1-1-3.7-1-3.7S188.6,367.2,187.1,367.1z"/>
		</g>
		<path class="st8" d="M227.5,352c0,0-23.6-15.6-26.6-17.5c-2.9-1.9-6.5,0.3-7.6,1.6c-1.1,1.2-6.7,5.1-9.7,6.1c-3,1-5.9,2.3-3.8,3.8
			c2.1,1.5,5.3,2,8.9,1.4c3.6-0.6,9.2-2.9,9.2-2.9s3.8,11.7,12.2,11.3"/>
		<g>
			<path class="st8" d="M274.6,169.8c0,0-3.3,12-1.6,15c1.6,3,3.8,6.3,3.5,9.5c-0.3,3.3-5.4,12.8-3.8,14.4s7.6,3.3,7.6,3.3
				s10.1,19.9,12.5,19.9c2.4,0,9.8-4.1,11.2-4.4c1.4-0.3,3.3-0.3,5.4,4.1c2.2,4.4,4.9,9,4.9,10.1c0,1.1-9,9.2-9,9.2
				s-20.9,12-22.6,16.6c-1.6,4.6-8.2,38.1-9.8,43.5c-1.6,5.4-8.2,7.3-5.7,10.9c2.4,3.5,2.7,6.8,2.7,6.8s-7.1,6-4.9,9.5
				c2.2,3.5,6.3,9.2,6.3,9.2s-3.3-1.1-3.8,2.7c-0.5,3.8-4,8.4-3,8.4c1.1,0,10.3-1,18.2,2c7.9,3,5.7,3.8,5.7,3.8l-10.9,90.8h127.8
				l-3.8-83.8c0,0-5.7-89.8-6.3-103.6c-0.5-13.9-0.5-13.9-6.5-16.6c-6-2.7-34.5-11.4-38.1-12.5c-3.5-1.1-6.3-3-7.9-4.9
				c-1.6-1.9-7.1-15.5-7.1-15.5s-9.5-41.3-15.8-54.4c-6.3-13.1-13.6-16-26.1-11.4C281.4,157,277.3,163.6,274.6,169.8z"/>
			<path class="st8" d="M288.8,455.1h44.8c0.1-21.6,0.7-128.7,4.6-151.2c3.7-21.3,14.9-54.2,18.1-63.5c-2.8-0.9-4.8-1.5-5.6-1.7
				c-0.6-0.2-1.2-0.4-1.7-0.6c-5.4,9.4-28,47.6-36.3,47.1c-9.5-0.5-3.6-37.7-3.6-37.7s-10.5,17.6-15.1,34.5c-4.6,16.9-3,54.9-3,54.9
				v38.6L288.8,455.1z"/>
			<path class="st2" d="M286.9,191c0.7,1.6,0.6,3.2-0.2,3.5c-0.8,0.4-2.1-0.6-2.8-2.2c-0.7-1.6-0.6-3.2,0.2-3.5
				C285,188.5,286.2,189.5,286.9,191z"/>
			<path class="st10" d="M279.2,184c0,0,1.1-3.3,6-1.9"/>
			<path class="st4" d="M286.3,213.3c0,0,5.4,0.8,8.2-4.9"/>
			<g>
				<path class="st5" d="M288.4,364.3l-10.9,90.8H292c0.1-13.8,0.7-112.3,2.2-125.7c1.4-12.5,12.1-67.9,14.9-82.1
					c-2,1.9-3.7,3.5-3.7,3.5s-20.9,12-22.6,16.6c-1.6,4.6-8.2,38.1-9.8,43.5c-1.6,5.4-8.2,7.3-5.7,10.9c2.4,3.5,2.7,6.8,2.7,6.8
					s-7.1,6-4.9,9.5c2.2,3.5,6.3,9.2,6.3,9.2s-3.3-1.1-3.8,2.7c-0.5,3.8-4,8.4-3,8.4c1.1,0,7.5,3.3,15.3,4
					C288.3,363.2,288.4,364.3,288.4,364.3z"/>
				<path class="st5" d="M401.6,371.4c0,0-5.7-89.8-6.3-103.6c-0.5-13.9-0.5-13.9-6.5-16.6c-6-2.7-34.5-11.4-38.1-12.5
					c-0.7-0.2-1.3-0.5-2-0.7c-4.6,13.5-21.5,64.5-23.6,84.2c-2.2,20.5,0.2,114.3,0.7,133h79.5L401.6,371.4z"/>
				<polyline class="st6" points="370.8,409.1 340.5,411.1 340.5,415.2 380.1,412.3 				"/>
			</g>
			<path class="st4" d="M288.9,284.4c0.7-3.5,1.2-5.8,1.2-5.8"/>
			<path class="st4" d="M288.4,364.3c0,0,0.3-16-0.3-19.3c-0.5-3.3-5.7-11.7-5.4-22c0.2-6.7,3.3-23.6,5.4-34.5"/>
			<path class="st4" d="M279.9,346.7c-1.6,0-2.9-0.1-2.9-0.1"/>
			<path class="st4" d="M282.7,334.6c0,0-12.2,1.4-10.1,2.7c2.2,1.4,17.4,5.2,15.5,7.6c-0.6,0.8-2,1.2-3.5,1.5"/>
			<g>
				<path class="st8" d="M372.8,377.9c0,0-4.6,15.2-8.2,28.3c-3.5,12.9-15.8,43.5-15.8,43.5l-2.2,5.4h22.8c0,0,14.7-28,20.7-37.3
					c6-9.2,11.7-22,14.4-28.3c2.7-6.3,2.7-6.3,2.7-6.3l1.1-3.3l-34.5-4.6L372.8,377.9z"/>
				<path class="st5" d="M363,289.2c0,0,5.4,40.3,6,44.1c0.5,3.8-4.4,9.2-3.3,12.2c1.1,3,12,12,11.7,12.8c-0.3,0.8-6.3,3-5.4,6.3
					c0.8,3.3,2.4,7.9,2.4,7.9l-1.6,5.4c0,0,5.2,3,15.8,4.6s20.7,1.1,21.2-0.3c0.5-1.4-1.1-14.7-1.1-16.9c0-2.2,0-4.9,2.2-7.3
					c2.2-2.4,3.3-5.7,1.4-10.3c-1.9-4.6-2.4-9.2-2.4-9.2s6.5-9,4.9-13.9c-1.6-4.9-8.7-11.4-8.7-13.1c0-1.6-2.4-43-4.6-51.4
					c-2.2-8.4-26.4-12.5-26.4-12.5"/>
				<path class="st4" d="M410.3,329.5c0,0-34.3,10.9-26.4,11.2c7.9,0.3,23.4-6.5,23.4-6.5"/>
				<path class="st4" d="M379.6,350.7c0,0,27.7,5.4,24.2,6.5c-3.5,1.1-18.5-1.6-19.3-1.6"/>
				<path class="st4" d="M376.3,373.3c0,0,33.7,3,32.1,4.4s-10.3-0.5-10.3-0.5"/>
			</g>
			<path class="st4" d="M311.6,372.2c1.4,2.5,2.7,4.7,3.9,6.4"/>
			<path class="st4" d="M298,342.6c0,0,5.8,14.2,11.5,25.5"/>
			<path class="st4" d="M303.7,363.6c0,0,7.9,22.3,12.3,29.4"/>
		</g>
		<g>
			<path class="st7" d="M278.9,136.1c0,0-8.4,8.4-11.7,19.3s-1.9,17.4-1.9,17.4l15,0.3L283,163l1.4,9.8l6.5,0.8l3-6
				c0,0,1.1,3.3,3.8,12.8c2.7,9.5,7.1,16,8.2,30.5c1.1,14.4-2.7,27.2-2.7,27.2s7.9,0.5,32.4-3c24.5-3.5,34.5-9.2,37.8-9.8
				c3.3-0.5,8.2,0,8.2,0s-6.8-12.5-10.1-25.8c-3.3-13.3-6.3-34.3-7.6-43.2s-7.9-20.4-23.7-29.4c-15.8-9-39.4-5.7-47.6-1.1
				C284.4,130.4,278.9,136.1,278.9,136.1z"/>
			<g>
				<path class="st11" d="M309.3,184.1c0.3,1.5,0.5,2.9,0.8,4.2"/>
				<path class="st11" d="M301.3,155.2c0,0,4.7,13.7,7.5,26.2"/>
				<path class="st11" d="M305.5,146c1.1-0.4,12,21.9,13.4,35.6"/>
				<path class="st11" d="M327.8,162.9c0.5,1.5,1,3.1,1.4,4.6"/>
				<path class="st11" d="M317.9,142.8c0,0,5.3,8,9,17.6"/>
				<path class="st11" d="M329.1,143.9c0,0,8.8,16.2,9.5,25.4"/>
				<path class="st11" d="M342.5,163.2c0.2,0.9,0.3,1.8,0.4,2.6"/>
				<path class="st11" d="M333.4,140.4c0,0,6.2,11.4,8.6,20.5"/>
				<path class="st11" d="M344.8,150c2.2,4.1,4.1,9,4.5,14"/>
				<path class="st11" d="M336.9,138.6c0,0,3.3,3.6,6.5,9"/>
				<path class="st11" d="M357.6,164.2c0.4,2,0.7,4.1,0.9,6.1"/>
				<path class="st11" d="M352.1,145.6c0,0,2.8,7,4.8,15.3"/>
				<path class="st11" d="M278.3,140.4c0,0-5.3,7.4-7.4,14.8"/>
				<path class="st11" d="M277.4,153.6c-0.6,1.3-1.2,2.6-1.5,3.6"/>
				<path class="st11" d="M285,140.7c0,0-3.4,5.1-6.2,10.1"/>
				<path class="st11" d="M290,144.6c0,0-4.3,9.8-5.6,14.1"/>
				<path class="st11" d="M292,156.7c-0.3,1-0.6,2.1-0.9,3.1"/>
				<path class="st11" d="M296,146c0,0-1.5,3.6-3.1,7.9"/>
			</g>
		</g>
	</g>
	<line class="st4" x1="476.3" y1="455.1" x2="26.2" y2="455.1"/>
</g>
</svg>
