<?xml version="1.0" encoding="utf-8"?>
<!-- Generator: Adobe Illustrator 25.2.0, SVG Export Plug-In . SVG Version: 6.00 Build 0)  -->
<svg version="1.1" id="Layer_1" xmlns="http://www.w3.org/2000/svg" xmlns:xlink="http://www.w3.org/1999/xlink" x="0px" y="0px"
	 viewBox="0 0 500 500" style="enable-background:new 0 0 500 500;" xml:space="preserve">
<style type="text/css">
	.st0{fill:#8342EA;}
	.st1{opacity:0.7;fill:#FFFFFF;}
	.st2{opacity:0.5;fill:none;stroke:#000000;stroke-linecap:round;stroke-linejoin:round;stroke-miterlimit:10;}
	.st3{opacity:0.3;fill:#FFFFFF;stroke:#000000;stroke-linecap:round;stroke-linejoin:round;stroke-miterlimit:10;}
	.st4{opacity:0.5;}
	.st5{fill:none;stroke:#000000;stroke-linecap:round;stroke-linejoin:round;stroke-miterlimit:10;}
	.st6{opacity:0.3;fill:#5AE4A7;stroke:#000000;stroke-linecap:round;stroke-linejoin:round;stroke-miterlimit:10;}
	.st7{fill:#1A2E35;stroke:#1A2E35;stroke-linecap:round;stroke-linejoin:round;stroke-miterlimit:10;}
	.st8{opacity:0.25;fill:#FFFFFF;stroke:#1A2E35;stroke-linecap:round;stroke-linejoin:round;stroke-miterlimit:10;}
	.st9{fill:none;stroke:#FFFFFF;stroke-linecap:round;stroke-linejoin:round;stroke-miterlimit:10;}
	.st10{fill:none;stroke:#1A2E35;stroke-linecap:round;stroke-linejoin:round;stroke-miterlimit:10;}
	.st11{fill:#8342EA;stroke:#1A2E35;stroke-linecap:round;stroke-linejoin:round;stroke-miterlimit:10;}
	.st12{fill:#5AE4A7;stroke:#1A2E35;stroke-linecap:round;stroke-linejoin:round;stroke-miterlimit:10;}
	.st13{fill:#FFFFFF;stroke:#1A2E35;stroke-width:2;stroke-linecap:round;stroke-linejoin:round;stroke-miterlimit:10;}
	.st14{fill:none;stroke:#1A2E35;stroke-width:2;stroke-linecap:round;stroke-linejoin:round;stroke-miterlimit:10;}
	.st15{fill:#FFFFFF;stroke:#1A2E35;stroke-linecap:round;stroke-linejoin:round;stroke-miterlimit:10;}
	.st16{fill:#1A2E35;}
	.st17{fill:none;stroke:#1A2E35;stroke-width:4;stroke-linecap:round;stroke-linejoin:round;stroke-miterlimit:10;}
</style>
<g id="Background_Simple">
</g>
<g id="Graphics">
</g>
<g id="Shadow_4">
</g>
<g id="Shadow_3">
</g>
<g id="Shadow_2">
</g>
<g id="Shadow_1">
</g>
<g id="Character_4">
</g>
<g id="Character_2_1_">
</g>
<g id="Character_1">
</g>
<g id="Text">
</g>
<g>
	<path class="st0" d="M437.4,314.9c0,0,51.1-57.4,34.9-157.3C456,57.7,372.6,20.9,317.2,40.1c-55.4,19.2-67.8,52.7-113,71.8
		s-131.1,6-174,70.3c-42.9,64.3,11.9,170.8,81.7,237.6C181.6,486.7,359.8,444.8,437.4,314.9z"/>
	<path class="st1" d="M437.4,314.9c0,0,51.1-57.4,34.9-157.3C456,57.7,372.6,20.9,317.2,40.1c-55.4,19.2-67.8,52.7-113,71.8
		s-131.1,6-174,70.3c-42.9,64.3,11.9,170.8,81.7,237.6C181.6,486.7,359.8,444.8,437.4,314.9z"/>
</g>
<g>
	<rect x="138" y="138" class="st2" width="321.1" height="214.4"/>
	<rect x="142.3" y="140.9" class="st2" width="312.5" height="208.7"/>
	<path class="st3" d="M180.2,172.1c0,0,3.4,18.5,3.4,23.9c0,5.5,0,19.2,0,19.2s13.7,0.7,24.6,0c10.9-0.7,23.9-7.5,23.9-7.5
		s-4.8-18.5-4.8-23.3c0-4.8-2.7-16.4-2.7-16.4L180.2,172.1z"/>
	<path class="st3" d="M181.5,287c0,0-2.1,15.7-2.1,22.6c0,6.8-3.4,17.8-3.4,17.8s16.4,6.2,20.5,6.2c4.1,0,21.9-1.4,21.9-1.4
		l2.7-40.4C221.2,291.8,187,288.4,181.5,287z"/>
	<path class="st3" d="M257.5,202.2l8.2,37.6c0,0,10.3,0.7,21.2,0.7c10.9,0,29.4-10.3,29.4-10.3s-8.9-17.8-8.9-22.6
		c0-4.8-2.7-18.5-2.7-18.5s-28,8.9-32.1,9.6C268.4,199.5,257.5,202.2,257.5,202.2z"/>
	<path class="st3" d="M319,192c0,0-2.1,24.6-2.1,27.4c0,2.7-0.7,13.7-0.7,13.7s13.7,2.1,21.2,2.1c7.5,0,20.5-0.7,20.5-0.7
		s-0.7-23.9,0.7-26c1.4-2.1,2.1-13,2.1-13S321.8,192.6,319,192z"/>
	<path class="st3" d="M334.1,246.7c0,0,0,13.7,0,16.4c0,2.7-1.4,22.6-1.4,22.6s17.8,0.7,24.6,0c6.8-0.7,20.5-4.8,20.5-4.8l-2.1-21.9
		l-1.4-15C374.4,243.9,341.6,248.7,334.1,246.7z"/>
	<path class="st3" d="M437.4,154.3l-15.7,0.7h-8.2c0,0,0,8.2,0,11.6c0,3.4-0.7,14.4-0.7,16.4c0,2.1,10.9,3.4,15.7,3.4
		c4.8,0,17.1,0,17.1,0l0.7-33.5L437.4,154.3z"/>
	<g class="st4">
		<line class="st5" x1="397.7" y1="228.2" x2="427.1" y2="228.2"/>
		<line class="st5" x1="397.7" y1="235.1" x2="427.1" y2="235.1"/>
		<line class="st5" x1="397.7" y1="241.9" x2="427.1" y2="241.9"/>
		<line class="st5" x1="397.7" y1="248.7" x2="427.1" y2="248.7"/>
	</g>
	<g class="st4">
		<line class="st5" x1="245.8" y1="150.2" x2="343" y2="150.2"/>
		<line class="st5" x1="245.8" y1="157.1" x2="343" y2="157.1"/>
	</g>
	<g class="st4">
		<line class="st5" x1="345" y1="299.3" x2="374.4" y2="299.3"/>
		<line class="st5" x1="345" y1="306.2" x2="374.4" y2="306.2"/>
		<line class="st5" x1="345" y1="313" x2="374.4" y2="313"/>
		<line class="st5" x1="345" y1="319.9" x2="374.4" y2="319.9"/>
	</g>
	<g class="st4">
		<line class="st5" x1="162.4" y1="254.2" x2="191.8" y2="254.2"/>
		<line class="st5" x1="162.4" y1="261" x2="191.8" y2="261"/>
		<line class="st5" x1="162.4" y1="267.9" x2="191.8" y2="267.9"/>
		<line class="st5" x1="162.4" y1="274.7" x2="191.8" y2="274.7"/>
	</g>
	<g class="st4">
		<line class="st5" x1="369.6" y1="168" x2="399" y2="168"/>
		<line class="st5" x1="369.6" y1="174.9" x2="399" y2="174.9"/>
		<line class="st5" x1="369.6" y1="181.7" x2="399" y2="181.7"/>
		<line class="st5" x1="369.6" y1="188.5" x2="399" y2="188.5"/>
	</g>
	<path class="st4" d="M261.9,233.3l-16.9,4.8l4.3,3.8c-7.9,5.2-24.6,14.1-35.5,5.1c-14.7-12.1-10.7-22.6-10.5-23l-1.3-0.5l-1.3-0.5
		c-0.2,0.5-5,12.7,11.3,26.2c4,3.3,8.6,4.6,13.2,4.6c10.2,0,20.7-6.1,26.3-9.9l5.5,4.8L261.9,233.3z"/>
	<polygon class="st4" points="432.2,204.6 427.3,188.3 418.4,201.3 423.4,202.5 418.2,221 420.9,221.8 426.1,203.1 	"/>
	<path class="st3" d="M208.2,174.2c0-2.3-1.8-4.1-4.1-4.1c-2.3,0-4.1,1.8-4.1,4.1s1.8,4.1,4.1,4.1
		C206.4,178.3,208.2,176.4,208.2,174.2z"/>
	<path class="st6" d="M283.5,200.2c0-2.3-1.8-4.1-4.1-4.1c-2.3,0-4.1,1.8-4.1,4.1c0,2.3,1.8,4.1,4.1,4.1
		C281.6,204.3,283.5,202.4,283.5,200.2z"/>
	<circle class="st3" cx="341.6" cy="194" r="4.1"/>
	<path class="st3" d="M359.4,250.8c0-2.3-1.8-4.1-4.1-4.1c-2.3,0-4.1,1.8-4.1,4.1s1.8,4.1,4.1,4.1
		C357.5,254.9,359.4,253.1,359.4,250.8z"/>
	<path class="st6" d="M208.2,294.6c0-2.3-1.8-4.1-4.1-4.1c-2.3,0-4.1,1.8-4.1,4.1c0,2.3,1.8,4.1,4.1,4.1
		C206.4,298.7,208.2,296.8,208.2,294.6z"/>
	<circle class="st6" cx="429.8" cy="154.3" r="4.1"/>
</g>
<g>
	<g>
		<rect x="327.2" y="336" class="st7" width="142.8" height="104.5"/>
		<rect x="334.1" y="341" class="st8" width="129.1" height="94.4"/>
		<rect x="386.9" y="436.5" class="st7" width="25.6" height="20.5"/>
	</g>
	<line class="st9" x1="337.9" y1="355.3" x2="458.7" y2="355.3"/>
	<line class="st9" x1="339.3" y1="377.9" x2="368.2" y2="377.9"/>
	<line class="st9" x1="357.4" y1="386" x2="373.7" y2="386"/>
	<line class="st9" x1="339.3" y1="386" x2="355.1" y2="386"/>
	<line class="st9" x1="366.2" y1="394.1" x2="394.1" y2="394.1"/>
	<line class="st9" x1="339.3" y1="394.1" x2="362.6" y2="394.1"/>
	<line class="st9" x1="339.3" y1="402.1" x2="356.1" y2="402.1"/>
	<line class="st9" x1="355.4" y1="410.2" x2="373.7" y2="410.2"/>
	<line class="st9" x1="339.3" y1="410.2" x2="350.8" y2="410.2"/>
	<line class="st9" x1="402.6" y1="418.2" x2="410.8" y2="418.2"/>
	<line class="st9" x1="351.5" y1="418.2" x2="397.7" y2="418.2"/>
	<line class="st9" x1="339.3" y1="418.2" x2="347.9" y2="418.2"/>
</g>
<g>
	<g>
		<line class="st10" x1="46.2" y1="301.4" x2="62.4" y2="456.9"/>
		<g>
			<g>
				<line class="st10" x1="62.1" y1="454" x2="53.9" y2="445.3"/>
				<path class="st11" d="M56.6,448.2c0,0,0.3-4.2-3.6-7.6c-2.3-2.1-14.4-7.2-15.6-2.9C36.2,442.3,48.6,451.4,56.6,448.2z"/>
				<line class="st10" x1="56.6" y1="448.2" x2="45" y2="441"/>
			</g>
			<g>
				<line class="st10" x1="56.5" y1="400" x2="48.4" y2="392.7"/>
				<path class="st11" d="M51.1,395.5c0,0,0.3-4.2-3.6-7.6c-2.3-2.1-14.4-7.2-15.6-2.9C30.7,389.7,43.1,398.8,51.1,395.5z"/>
				<line class="st10" x1="51.1" y1="395.5" x2="39.5" y2="388.3"/>
			</g>
			<g>
				<line class="st10" x1="58.8" y1="423" x2="50.6" y2="414.3"/>
				<path class="st11" d="M53.3,417.1c0,0,0.3-4.2-3.6-7.6c-2.3-2.1-14.4-7.2-15.6-2.9C32.9,411.2,45.3,420.4,53.3,417.1z"/>
				<line class="st10" x1="53.3" y1="417.1" x2="41.8" y2="409.9"/>
			</g>
			<g>
				<line class="st10" x1="52.9" y1="366" x2="44.7" y2="357.6"/>
				<path class="st11" d="M47.4,360.5c0,0,0.3-4.2-3.6-7.6c-2.3-2.1-14.4-7.2-15.6-2.9C27,354.6,39.4,363.7,47.4,360.5z"/>
				<line class="st10" x1="47.4" y1="360.5" x2="35.9" y2="353.3"/>
			</g>
			<g>
				<line class="st10" x1="48.9" y1="328.5" x2="41" y2="322.4"/>
				<path class="st11" d="M43.8,325.3c0,0,0.3-4.2-3.6-7.6c-2.3-2.1-14.4-7.2-15.6-2.9C23.3,319.4,35.8,328.5,43.8,325.3z"/>
				<line class="st10" x1="43.8" y1="325.3" x2="32.2" y2="318.1"/>
			</g>
			<g>
				<line class="st10" x1="61.3" y1="442.1" x2="68.1" y2="430.9"/>
				<path class="st11" d="M66.1,434.3c0,0-1.1-4.1,1.9-8.2c1.8-2.5,12.6-10,14.6-6C84.8,424.3,74.6,435.8,66.1,434.3z"/>
				<line class="st10" x1="66.1" y1="434.3" x2="74.2" y2="426.6"/>
			</g>
			<g>
				<line class="st10" x1="55.4" y1="385.3" x2="62.2" y2="374.1"/>
				<path class="st11" d="M60.1,377.5c0,0-1.1-4.1,1.9-8.2c1.8-2.5,10.3-8.7,12.3-4.8C76.5,368.8,68.6,379,60.1,377.5z"/>
				<line class="st10" x1="60.1" y1="377.5" x2="70.5" y2="367.5"/>
			</g>
			<g>
				<line class="st10" x1="52.8" y1="360.3" x2="59.6" y2="349.2"/>
				<path class="st11" d="M57.5,352.5c0,0-1.1-4.1,1.9-8.2c1.8-2.5,12.6-10,14.6-6C76.3,342.6,66,354.1,57.5,352.5z"/>
				<line class="st10" x1="57.5" y1="352.5" x2="67.9" y2="342.6"/>
			</g>
			<g>
				<line class="st10" x1="49" y1="323.7" x2="55.8" y2="312.6"/>
				<path class="st11" d="M53.7,315.9c0,0-1.1-4.1,1.9-8.2c1.8-2.5,12.6-10,14.6-6C72.5,306,62.2,317.5,53.7,315.9z"/>
				<line class="st10" x1="53.7" y1="315.9" x2="64.1" y2="306"/>
				<path class="st11" d="M46.1,300.3c0,0-1.1-4.1,1.9-8.2c1.8-2.5,12.6-10,14.6-6C64.8,290.4,54.5,301.9,46.1,300.3z"/>
				<line class="st10" x1="46.1" y1="300.3" x2="56.4" y2="290.4"/>
				<path class="st11" d="M46.7,300.8c0,0-4.1,0.7-7.9-2.8c-2.3-2.1-8.6-13.6-4.5-15.2C38.7,281.1,49.1,292.5,46.7,300.8z"/>
				<line class="st10" x1="46.7" y1="300.8" x2="37.9" y2="289.4"/>
			</g>
		</g>
	</g>
	<line class="st10" x1="75.9" y1="250.3" x2="75.9" y2="457.3"/>
	<g>
		<line class="st10" x1="98.4" y1="327.5" x2="84.9" y2="456.7"/>
		<g>
			<g>
				<line class="st10" x1="88.5" y1="424.3" x2="81.7" y2="418.7"/>
				<path class="st11" d="M83.8,420.6c0,0,1.1-4.1-1.9-8.2c-1.8-2.5-12.6-10-14.7-6C65.1,410.7,75.3,422.2,83.8,420.6z"/>
				<line class="st10" x1="83.8" y1="420.6" x2="74" y2="411.2"/>
			</g>
			<g>
				<line class="st10" x1="86" y1="448.2" x2="79.5" y2="438.9"/>
				<path class="st11" d="M81.6,442.2c0,0,1.1-4.1-1.9-8.2c-1.8-2.5-12.6-10-14.7-6C62.8,432.3,73.1,443.8,81.6,442.2z"/>
				<line class="st10" x1="81.6" y1="442.2" x2="71.8" y2="432.8"/>
			</g>
			<g>
				<line class="st10" x1="91.9" y1="389.8" x2="85.4" y2="382.2"/>
				<path class="st11" d="M87.5,385.6c0,0,1.1-4.1-1.9-8.2c-1.8-2.5-12.6-10-14.7-6C68.7,375.6,79,387.1,87.5,385.6z"/>
				<line class="st10" x1="87.5" y1="385.6" x2="77.6" y2="376.2"/>
			</g>
			<g>
				<line class="st10" x1="95.3" y1="356.8" x2="89" y2="347"/>
				<path class="st11" d="M91.1,350.4c0,0,1.1-4.1-1.9-8.2c-1.8-2.5-12.6-10-14.7-6C72.4,340.4,82.6,351.9,91.1,350.4z"/>
				<line class="st10" x1="91.1" y1="350.4" x2="81.3" y2="341"/>
			</g>
			<g>
				<line class="st10" x1="90.2" y1="411.5" x2="99.1" y2="402"/>
				<path class="st11" d="M96.4,404.8c0,0-0.3-4.2,3.6-7.6c2.3-2.1,14.4-7.2,15.6-2.9C116.8,399,104.4,408.1,96.4,404.8z"/>
				<line class="st10" x1="96.4" y1="404.8" x2="108.6" y2="397.3"/>
			</g>
			<g>
				<line class="st10" x1="92.7" y1="386.5" x2="101.7" y2="377"/>
				<path class="st11" d="M99,379.9c0,0-0.3-4.2,3.6-7.6c2.3-2.1,14.4-7.2,15.6-2.9C119.4,374,107,383.1,99,379.9z"/>
				<line class="st10" x1="99" y1="379.9" x2="111.2" y2="372.3"/>
			</g>
			<g>
				<line class="st10" x1="96.4" y1="348.1" x2="105.5" y2="340.5"/>
				<path class="st11" d="M102.8,343.3c0,0-0.3-4.2,3.6-7.6c2.3-2.1,14.4-7.2,15.6-2.9C123.2,337.4,110.8,346.6,102.8,343.3z"/>
				<line class="st12" x1="102.8" y1="343.3" x2="115" y2="335.7"/>
				<path class="st11" d="M98.5,326.5c0,0-0.3-4.2,3.6-7.6c2.3-2.1,14.4-7.2,15.6-2.9C118.9,320.6,106.5,329.7,98.5,326.5z"/>
				<line class="st10" x1="98.5" y1="326.5" x2="110.7" y2="318.9"/>
				<path class="st11" d="M99,327c0,0-4.2-0.2-7.2-4.3c-1.8-2.5-5.6-15.1-1.2-15.8C95.3,306.1,103.1,319.4,99,327z"/>
				<line class="st10" x1="99" y1="327" x2="92.7" y2="314.1"/>
			</g>
		</g>
	</g>
	<g>
		<g>
			<line class="st10" x1="75.6" y1="453.7" x2="68.1" y2="443.8"/>
			<path class="st11" d="M70.5,446.9c0,0,0.7-4.1-2.8-7.9c-2.1-2.3-13.6-8.6-15.2-4.5C50.9,438.9,62.3,449.3,70.5,446.9z"/>
			<line class="st10" x1="70.5" y1="446.9" x2="59.8" y2="438.5"/>
		</g>
		<g>
			<line class="st10" x1="75.8" y1="405.8" x2="68.1" y2="398.7"/>
			<path class="st11" d="M70.5,401.8c0,0,0.7-4.1-2.8-7.9c-2.1-2.3-13.6-8.6-15.2-4.5C50.9,393.8,62.3,404.2,70.5,401.8z"/>
			<line class="st10" x1="70.5" y1="401.8" x2="59.8" y2="393.4"/>
		</g>
		<g>
			<line class="st10" x1="76.1" y1="356.1" x2="68.1" y2="345.7"/>
			<path class="st11" d="M70.5,348.8c0,0,0.7-4.1-2.8-7.9c-2.1-2.3-13.6-8.6-15.2-4.5C50.9,340.9,62.3,351.3,70.5,348.8z"/>
			<line class="st10" x1="70.5" y1="348.8" x2="59.8" y2="340.5"/>
		</g>
		<g>
			<line class="st10" x1="75.6" y1="317.2" x2="68.1" y2="310.5"/>
			<path class="st11" d="M70.5,313.6c0,0,0.7-4.1-2.8-7.9c-2.1-2.3-13.6-8.6-15.2-4.5C50.9,305.7,62.3,316,70.5,313.6z"/>
			<line class="st10" x1="70.5" y1="313.6" x2="59.8" y2="305.2"/>
		</g>
		<g>
			<line class="st10" x1="76" y1="281.9" x2="68.3" y2="276.3"/>
			<path class="st11" d="M70.5,278.2c0,0,0.7-4.1-2.8-7.9c-2.1-2.3-13.6-8.6-15.2-4.5C50.9,270.3,62.3,280.6,70.5,278.2z"/>
			<line class="st10" x1="70.5" y1="278.2" x2="59.8" y2="269.8"/>
		</g>
		<g>
			<line class="st10" x1="75.9" y1="396.2" x2="83.8" y2="385.8"/>
			<path class="st11" d="M81.4,388.9c0,0-0.7-4.1,2.8-7.9c2.1-2.3,13.6-8.6,15.2-4.5C101.1,381,89.7,391.3,81.4,388.9z"/>
			<line class="st10" x1="81.4" y1="388.9" x2="92.8" y2="380.1"/>
		</g>
		<g>
			<line class="st10" x1="75.9" y1="360.8" x2="83.8" y2="350.4"/>
			<path class="st11" d="M81.4,353.5c0,0-0.7-4.1,2.8-7.9c2.1-2.3,13.6-8.6,15.2-4.5C101.1,345.6,89.7,355.9,81.4,353.5z"/>
			<line class="st10" x1="81.4" y1="353.5" x2="92.8" y2="344.7"/>
		</g>
		<g>
			<line class="st10" x1="75.9" y1="314" x2="83.8" y2="303.6"/>
			<path class="st11" d="M81.4,306.7c0,0-0.7-4.1,2.8-7.9c2.1-2.3,13.6-8.6,15.2-4.5C101.1,298.8,89.7,309.2,81.4,306.7z"/>
			<line class="st10" x1="81.4" y1="306.7" x2="92.8" y2="297.9"/>
		</g>
		<g>
			<line class="st10" x1="76.2" y1="273.6" x2="84" y2="267.5"/>
			<path class="st11" d="M81.4,270c0,0-0.7-4.1,2.8-7.9c2.1-2.3,13.6-8.6,15.2-4.5C101.1,262,89.7,272.4,81.4,270z"/>
			<line class="st10" x1="81.4" y1="270" x2="92.8" y2="261.2"/>
			<path class="st11" d="M75.4,253.6c0,0-0.7-4.1,2.8-7.9c2.1-2.3,13.6-8.6,15.2-4.5C95.1,245.7,83.7,256.1,75.4,253.6z"/>
			<line class="st10" x1="75.4" y1="253.6" x2="86.8" y2="244.8"/>
			<path class="st11" d="M76,254.1c0,0-4.2,0.3-7.6-3.6c-2.1-2.3-7.1-14.4-2.9-15.6C70.1,233.7,79.2,246.1,76,254.1z"/>
			<line class="st10" x1="76" y1="254.1" x2="68.4" y2="241.9"/>
		</g>
	</g>
</g>
<g>
	<line class="st10" x1="443" y1="457.7" x2="471" y2="457.7"/>
	<line class="st10" x1="32.3" y1="457.7" x2="432" y2="457.7"/>
</g>
<g>
	<g>
		<path class="st13" d="M269.6,63.8c0-17.3-14.6-31.2-32.2-30c-14.7,1-26.6,12.8-27.8,27.4c-0.7,8.3,2,16,6.9,21.8
			c4.4,5.3,6.9,12,6.9,18.9v4.1h32.5V102c0-6.9,2.4-13.6,6.8-18.9C267,77.9,269.6,71.2,269.6,63.8z"/>
		<rect x="223.3" y="106.1" class="st13" width="32.5" height="8"/>
		<path class="st13" d="M251.1,122.2H228c-2.6,0-4.7-2.1-4.7-4.7v-3.3h32.5v3.3C255.8,120.1,253.7,122.2,251.1,122.2z"/>
		<path class="st13" d="M245.3,130.2h-11.5c-3.5,0-6.4-2.9-6.4-6.4v-1.6h24.3v1.6C251.7,127.4,248.9,130.2,245.3,130.2z"/>
	</g>
	<g>
		<line class="st14" x1="273.9" y1="64" x2="287.7" y2="64"/>
		<line class="st14" x1="190.2" y1="64" x2="204.1" y2="64"/>
		<line class="st14" x1="238.9" y1="29" x2="238.9" y2="15.2"/>
		<line class="st14" x1="263.9" y1="39" x2="273.4" y2="29.5"/>
		<line class="st14" x1="204.5" y1="98.5" x2="214.1" y2="88.8"/>
		<line class="st14" x1="213.7" y1="38.7" x2="204.5" y2="29.5"/>
		<line class="st14" x1="273.4" y1="98.5" x2="264.2" y2="89.3"/>
	</g>
</g>
<g>
	<path class="st15" d="M347.8,193.8c0,0-6.8-14.6-7.6-16c-0.8-1.4-1.6-9.5-1.1-11.9c0.5-2.4,7.3-10.8,7.3-10.8s0.8-17.4,1.9-22
		c1.1-4.6,0.5-8.7,3.3-9.5c2.7-0.8,3.5-0.5,3.8,3c0.3,3.5-0.5,11.9-0.5,12.7c0,0.8,1.4,13.3,1.4,13.3s12.7,13,14.1,14.4
		c1.4,1.4,3.5,4.3,1.4,11.4c-2.2,7.1-6.2,11.7-6.2,11.7l1.1,5.4l-18.7,1.4V193.8z"/>
	<path class="st15" d="M346.4,186.8c0,0-6.5-7.1-8.4-11.1c-1.9-4.1-1.4-13.8-0.5-15.2c0.8-1.4,7.3-4.6,9-5.4
		c1.6-0.8,12.7-1.6,15.2-3c2.4-1.4,5.2,2.7,1.6,6.2c-3.5,3.5-14.1,6.5-14.1,6.5s7.9,5.4,6,13.3"/>
	<path class="st15" d="M366.7,153.6c0,0-5.5,15.1-2.9,16.9c2.6,1.8,5.8,1.3,6.6-1.6c0.8-2.9,5-10,4.5-13.7
		C374.3,151.5,369.6,150,366.7,153.6z"/>
	<path class="st15" d="M373.8,158.7c0,0-4.5,12.2-2.4,13.7c2.1,1.5,4.7,1.1,5.3-1.3c0.6-2.4,4.1-8.1,3.6-11.1
		C380,157,376.2,155.7,373.8,158.7z"/>
	<path class="st15" d="M360.3,149.4c0,0-5.7,15.5-3,17.4c2.7,1.9,6,1.4,6.8-1.6c0.8-3,5.2-10.3,4.6-14.1
		C368.1,147.2,363.3,145.6,360.3,149.4z"/>
	<polygon class="st11" points="346.7,202.5 344.8,190.9 368.1,188.7 372.2,202.5 	"/>
	<path class="st11" d="M159.6,457.7l16.9-84.2l6.5,84.2h120.5c0.1-5.4,2-77.7,1.5-90.2c-0.5-13,6-35,6-35s80.5-17,91-24
		s4.5-16,3.5-21S375,204.5,374,201s-5.5-3-10-3s-20,1-20,4s8.5,76,8.5,76h-4l-1.5,3.5l-21.5-4.5c0,0-16-12-21.5-12.5s-38-3.5-38-3.5
		h-55.5c0,0-62,29-66.5,34.5s-4.5,24-4.5,24l-14,138.2H159.6z"/>
	<g>
		<line class="st10" x1="271.1" y1="417.1" x2="276" y2="410.5"/>
		<path class="st10" d="M242.7,455.2c8.3-12.2,17.3-23.2,26.1-35"/>
		<path class="st10" d="M279.5,412.3c-4.4,8.2-11.8,20.4-20,29.2"/>
		<path class="st10" d="M284,403.5c0,0-0.9,2-2.6,5.1"/>
	</g>
	<line class="st10" x1="318.6" y1="303.4" x2="321.7" y2="291.5"/>
	<line class="st10" x1="311" y1="332.5" x2="317.5" y2="307.6"/>
	<line class="st10" x1="314.3" y1="319.9" x2="327.2" y2="295.7"/>
	<path class="st10" d="M365.4,294.5c0.5,0.8,1,1.6,1.4,2.3"/>
	<path class="st10" d="M356.9,295.7c-5-8.7-4.4-17.7-4.4-17.7s5.8,6.6,10.4,12.9"/>
	<path class="st10" d="M163.2,316.9c-1.3-2.8-2.3-4.8-2.3-4.8"/>
	<path class="st10" d="M176.5,373.5c0,0-7.1-40.7-8.9-46.1c-0.6-1.9-1.7-4.5-2.8-6.9"/>
	<path class="st10" d="M165,337.1c-1.9-3.7-3.7-7.1-4.8-8.6c-3.2-4.6-8.9-12.8-8.9-12.8"/>
	<path class="st10" d="M173,353.4c0,0-3.3-7-6.7-13.7"/>
	<polygon class="st7" points="225.7,287.7 236.3,303.3 221.3,421.3 241,440.7 256,418 243.3,302 254,286 238.3,273.3 	"/>
	<polygon class="st11" points="235.7,281.3 216.3,303 206.3,265.3 214,253 220.3,252.3 259.7,253 272.7,265 264,301.7 242.3,280 	
		"/>
	<path class="st15" d="M215,239.3l1.3,19.7c0,0,19.3,25.3,22,25.3c2.7,0,21.3-27,21.3-27l0.3-17L215,239.3z"/>
	<g>
		<path class="st15" d="M205.7,212.3c0,0-3.7-11.3-8.3-4c-4.7,7.3,5.7,18.7,7.7,20c2,1.3,2,1.3,2,1.3L205.7,212.3z"/>
		<path class="st15" d="M270.7,212.3c0,0,3.7-11.3,8.3-4c4.7,7.3-5.7,18.7-7.7,20c-2,1.3-2,1.3-2,1.3L270.7,212.3z"/>
		<path class="st15" d="M205,211c0,0,1,23,4.5,28s15.5,17.5,24.5,19.5s12.5,0,19.5-4.5s16.5-13.5,17.5-19s1-28.5,1-28.5l-2-24
			c0,0-1-14-18-20s-30.5-10-36,0s-12.5,21-12.5,21L205,211z"/>
		<path class="st10" d="M233.5,228.3c0,0,10.4,3.1,20.4-3.7"/>
		<line class="st10" x1="218.4" y1="205.3" x2="227.8" y2="207.4"/>
		<line class="st10" x1="251.8" y1="207.9" x2="262.8" y2="204.8"/>
		<path class="st7" d="M224,170c0,0-1,11-7,15.5s-10,7.5-10,7.5l1,18.5l-3-0.5l-1.5-12c0,0-6-16-6-27.5s9-18.5,12.5-19s9,0,9,0
			s7-10,25.5-11s33,18.5,31,22s-2,3.5-2,3.5s4,7,4,15s-5,15.5-5,15.5V213l-4-17c0,0-3.5-10.5-4.5-12.5s-11.5-1-17.5-3.5
			s-10.5-9.5-10.5-9.5s5,9.5,1,9.5S224,170,224,170z"/>
		<path class="st7" d="M261,219c-4-2-20.7-6.3-20.7-6.3s-19.7,5.3-22.7,8.7s-0.3,20,3,26.3c3.3,6.3,7,11.7,17.3,12
			c10.3,0.3,21-5.7,22.7-11.7C262.3,242,265,221,261,219z M254.7,243c-2.7,4.7-8.7,4.3-9,1.7c-0.3-2.7-0.3-5.7-3.7-5.7
			c-3.3,0-2.3,1.3-2,5c0.3,3.7-4.3,6.3-9.3,3.3s-7.3-15.3-7.3-19.3s17.3-9.7,17.3-9.7s14.7,0.7,16.7,4.7
			C259.3,227,257.3,238.3,254.7,243z"/>
		<ellipse class="st16" cx="225.8" cy="200" rx="1.5" ry="3.3"/>
		<ellipse class="st16" cx="252.5" cy="200" rx="1.5" ry="3.3"/>
		<path class="st17" d="M219,190.7c0,0,3.7-7,14.7-4.7"/>
		<path class="st17" d="M247.3,185.3c0,0,8.3-3.7,15.3,4.3"/>
		<polyline class="st15" points="244.7,188.3 245.3,214.7 232.7,211.3 		"/>
	</g>
</g>
</svg>
