<?xml version="1.0" encoding="utf-8"?>
<!-- Generator: Adobe Illustrator 25.2.0, SVG Export Plug-In . SVG Version: 6.00 Build 0)  -->
<svg version="1.1" id="Layer_1" xmlns="http://www.w3.org/2000/svg" xmlns:xlink="http://www.w3.org/1999/xlink" x="0px" y="0px"
	 viewBox="0 0 500 500" style="enable-background:new 0 0 500 500;" xml:space="preserve">
<style type="text/css">
	.st0{fill:#8342EA;}
	.st1{opacity:0.7;fill:#FFFFFF;}
	.st2{fill:#1A2E35;stroke:#1A2E35;stroke-linejoin:round;stroke-miterlimit:10;}
	.st3{fill:#FFFFFF;stroke:#1A2E35;stroke-linejoin:round;stroke-miterlimit:10;}
	.st4{fill:#ABABAB;stroke:#1A2E35;stroke-linejoin:round;stroke-miterlimit:10;}
	.st5{fill:none;stroke:#1A2E35;stroke-linejoin:round;stroke-miterlimit:10;}
	.st6{fill:none;stroke:#1A2E35;stroke-width:2;stroke-linejoin:round;stroke-miterlimit:10;}
	.st7{fill:#FFFFFF;stroke:#000000;stroke-linejoin:round;stroke-miterlimit:10;}
	.st8{fill:#8342EA;stroke:#1A2E35;stroke-linejoin:round;stroke-miterlimit:10;}
</style>
<g id="Background_Simple">
</g>
<g id="Graphics">
</g>
<g id="Shadow_4">
</g>
<g id="Shadow_3">
</g>
<g id="Shadow_2">
</g>
<g id="Shadow_1">
</g>
<g id="Character_4">
</g>
<g id="Character_2_1_">
</g>
<g id="Character_1">
</g>
<g id="Text">
</g>
<g>
	<path class="st0" d="M452.9,163.5c0,0-70.9-121.8-170-142C195.4,3.7,110.1,39.4,91.4,129.7c-6.7,32.2-16.8,67.6-32,96.2
		c-17.1,32.1-43.9,57.9-30.1,123.3c13.8,65.5,88.7,129.6,146.6,134c57.9,4.5,116.4-43.8,165.1-88S536,317.5,452.9,163.5z"/>
	<path class="st1" d="M452.9,163.5c0,0-70.9-121.8-170-142C195.4,3.7,110.1,39.4,91.4,129.7c-6.7,32.2-16.8,67.6-32,96.2
		c-17.1,32.1-43.9,57.9-30.1,123.3c13.8,65.5,88.7,129.6,146.6,134c57.9,4.5,116.4-43.8,165.1-88S536,317.5,452.9,163.5z"/>
</g>
<g>
	<path class="st2" d="M222,71.8c0,0-31.8,24.4-35.1,36.6s1.2,33.6,0,37.8c-1.2,4.2-21.1,16.2-21.4,33.3
		c-0.2,17.2,7.5,34.1,69.4,41.5c61.9,7.5,85.6-27.6,85.6-46.5c0-18.9-15.9-30.8-18.7-39.8c-2.7-9,8.7-25.1-7.7-45
		C277.7,69.8,234.9,50.6,222,71.8z"/>
	<g>
		<path class="st3" d="M360.1,292.7c0,0,5.8,49.4,7,62.6c1.2,13.2-1.9,20.9-11.3,25.7c-9.4,4.8-14.4,7.9-24-1.9
			c-9.6-9.8-2.9-28.8-3.4-36.2c-0.5-7.4-7.2-36-7.2-36L360.1,292.7z"/>
		<polygon class="st2" points="361.3,306.5 324.9,318.7 321.3,306.8 360.1,292.7 		"/>
		<path class="st3" d="M338.1,339.9c0,0,16.8-4.3,24.7,11.3"/>
	</g>
	<g>
		<path class="st4" d="M303.8,356.4l9.6-56.3l46.7-12.9c0,0-1.7-38.6-11.8-53.6c-10.1-15-36.4-23.5-53-28.9
			c-16.6-5.3-32.3-8.5-32.3-8.5s-29.9-4.1-43.1,3.2c0,0-45.3,19.9-53.2,23.8c-8,3.9-16.9,8.2-20.2,26.9c-3.4,18.7-5.1,35.4-5.1,35.4
			l31.1,15.5l9.4,55.3l-2,15.6l-34.8,69.4h196.3L306.1,371L303.8,356.4z"/>
		<circle class="st5" cx="253.4" cy="282.8" r="1.9"/>
		<circle class="st5" cx="253.4" cy="312.1" r="1.9"/>
		<circle class="st5" cx="253.4" cy="341.5" r="1.9"/>
		<path class="st5" d="M255.4,370.9c0,1.1-0.9,1.9-1.9,1.9c-1.1,0-1.9-0.9-1.9-1.9c0-1.1,0.9-1.9,1.9-1.9
			C254.5,369,255.4,369.8,255.4,370.9z"/>
		<circle class="st5" cx="253.4" cy="400.2" r="1.9"/>
		<path class="st5" d="M255.4,429.6c0,1.1-0.9,1.9-1.9,1.9c-1.1,0-1.9-0.9-1.9-1.9c0-1.1,0.9-1.9,1.9-1.9
			C254.5,427.7,255.4,428.6,255.4,429.6z"/>
		<line class="st5" x1="246.5" y1="271.8" x2="246.5" y2="419.6"/>
		<polyline class="st5" points="314,281.4 311.5,296.3 320.8,280.5 		"/>
		<polyline class="st5" points="175.6,281.4 178.2,296.3 168.9,280.5 		"/>
		<path class="st2" d="M205.4,242.7c0,0-6.1,10.1-3.1,9.2c3.1-0.9,20.2-12.3,20.2-12.3s-6.6,10.1-1.3,13.6
			c5.3,3.5,26.8,13.7,26.8,13.7s25.5-10.2,25.9-14.1c0.4-4-0.9-5.7-0.9-7.9c0-2.2-2.6-4.8,2.6-3.1c5.3,1.8,24.6,12.3,23.3,9.7
			c-1.3-2.6-22.7-45-25.6-46.4c-2.9-1.4-42.5-2.8-49.5,1.2C216.8,210.2,205.4,242.7,205.4,242.7z"/>
		<polygon class="st4" points="135.5,272.9 131.8,290.8 175.5,312.3 179.7,297.1 		"/>
		<polygon class="st4" points="311.5,296.3 315.6,312 367.4,296.5 360.4,277.8 		"/>
	</g>
	<g>
		<path class="st4" d="M223.3,187.2c0,0-11.2,13.6-12.4,15.7c-1.2,2.2-10.1,37.5-13.7,44.5c-3.6,7,1.9,4.8,5.8,0.5s20-14,19.5-11.1
			s-4.8,9.9-2.2,11.3c2.7,1.4,24.3,19.5,26.3,19.5c1.9,0,29.4-17.6,30.4-20c1-2.4-5.3-12-2.2-11.6c3.1,0.5,26,21.4,28.7,19.8
			c2.7-1.7-12-35.9-19-51.3c-7-15.4-21-18.1-24.8-18.3C255.7,186,223.3,187.2,223.3,187.2z"/>
		<path class="st3" d="M224,181.9c0,0-4.3,19.5-4.3,24.8c0,5.3,23.8,67.2,28.4,60.2c4.6-7,25.3-58,25.3-61.9
			c0-3.9-1.9-24.6-1.9-24.6s-16.9,11.3-24.1,12C240.1,193.2,224,181.9,224,181.9z"/>
		<path class="st2" d="M222.7,184.8c0,0-6.7,26.2,0.4,28.2s47.8-25.7,47.8-25.7L222.7,184.8z"/>
		<g>
			<path class="st3" d="M229,100.9c0,0-2,12.4-7.5,23.6c-5.5,11.2-16.4,20.1-16.4,20.1s-1.7,5.5,0.5,9c2.2,3.5,5.5,5,5.5,5
				s5.7,17.2,8,21.4c2.2,4.2,18.4,20.6,22.6,22.4c4.2,1.7,12.4,1.5,15.9-0.5c3.5-2,16.7-17.2,18.4-21.6c1.7-4.5,6-22.6,6-22.6
				s3.2-1,5.2-6c2-5,2.2-10.7,2.2-10.7s-6.7-1.2-16.9-4c-10.2-2.7-12.2-4.5-12.2-4.5s-8.2,0.2-18.4-7.2
				C231.7,117.8,229,100.9,229,100.9z"/>
			<path class="st3" d="M238.7,104.9c0,0,1,13.4,7.5,18.7c6.5,5.2,10.4,4.2,10.4,4.2S243.9,116.5,238.7,104.9z"/>
			<path class="st6" d="M224,151.6c0,0,6.5,4,14.2,0.2"/>
			<path class="st6" d="M256.8,151.6c0,0,6.5,4,14.2,0.2"/>
			<path class="st5" d="M238.2,140.4c0,0-7.5-3.7-15.7,3"/>
			<path class="st5" d="M257.1,140.4c0,0,7.5-3.7,15.7,3"/>
			<path class="st5" d="M241.6,171.8c0,0,2.2,3,5.2,3.2c3,0.2,6-0.5,7.5-2.5"/>
			<path class="st5" d="M236.7,180.7c0,0,6,4,11.7,3.5s11.2-4.5,11.2-4.5"/>
		</g>
	</g>
	<g>
		<path class="st3" d="M344.8,346.6c0,0-5.3-8.4-7.7-11.5c-2.4-3.1-7.7-4.6-14.4-11.7c-6.7-7.2-9.4-0.2-7.2,4.6s7.9,8.6,10.5,10.3
			c2.6,1.7,4.8,6.2,4.8,8.4s-1.4,7.2-1.4,7.2s-1.2-1.8-7.1-8.1c-5.9-6.3-10.2-11.3-11.4-6.1c-1.2,5.3,1,7.9,5,11.5
			c4.1,3.6,8.4,8.2,8.9,9.1c0.5,1,1.9,8.4,4.1,9.8c2.2,1.4,4.8,2.4,4.8,3.6c0,1.2-1.9,5.5,2.6,10.8c4.6,5.3,10.1,4.6,12.9-3.1
			c2.9-7.7,2.6-21.6-0.2-28.3C346.2,346.4,344.8,346.6,344.8,346.6z"/>
		<path class="st3" d="M342.6,344.4c0,0-6.2,6.2-13.2,9.4c-7,3.1-11.5,4.6-12,7.2c-0.5,2.6,0.2,5,5.8,4.6c5.5-0.5,22.3-7,25.2-10.5
			C351.3,351.4,349.6,340.6,342.6,344.4z"/>
		<path class="st3" d="M351.1,367.6c0,0,1.1,2.7-3.9,7.3c-5,4.6-14.9,9.6-18.9,10.5c-4.1,1-7.4-1-4.8-3.6c2.6-2.6,10.3-8.2,10.3-8.2
			S341,372.2,351.1,367.6z"/>
		<path class="st3" d="M348.4,355c0,0,4.1-1.7,5.3,6.7c1.2,8.4-15.8,12.7-22.5,13.2c-6.7,0.5-11.3-2.2-10.3-4.3
			c1-2.2,1.9-2.4,10.1-5.8C339,361.5,348.4,355,348.4,355z"/>
	</g>
	<g>
		<path class="st3" d="M138.6,278c0,0-11.1,4.1-7.5,14.7c3.6,10.6,5.1,13.5,6.3,20c1.2,6.5-3.1,11.3-7.2,35.2
			c-4.1,23.9,10.1,28.9,17.3,33.3s18.1-20,19.3-27.2c1.2-7.2-7.5-28.7-9.2-40.2c-1.7-11.6-4.1-18.1,1.4-26c5.5-8-3.6-10.6-6.5-12.3
			C149.7,273.7,138.6,278,138.6,278z"/>
		<path class="st3" d="M145.6,311.8c8,0,13.3-7.7,13.3-7.7s4.1-1.2,6.6-4.3c2.5-3.1,2.5-8.9,2.5-8.9s6.1-8.7,10.6-11.3
			c4.5-2.6,7.7-4.3,9.2-8.9c1.5-4.6-0.7-7-6.5-2.2c-5.8,4.8-8.4,5.8-8.4,5.8l-20,4.1"/>
		<g>
			
				<rect x="159.1" y="278.8" transform="matrix(0.9099 -0.4149 0.4149 0.9099 -111.2336 99.9324)" class="st3" width="30.6" height="54.4"/>
			<line class="st3" x1="165.3" y1="284.7" x2="184.2" y2="326.1"/>
			<g>
				<path class="st2" d="M159.2,299L159.2,299c1.1,0.5,2.5,0,3-1.1l2.8-6.1c0.5-1.1,0-2.5-1.1-3l0,0c-1.1-0.5-2.5,0-3,1.1l-2.8,6.1
					C157.6,297.1,158.1,298.5,159.2,299z"/>
				<path class="st2" d="M163.7,308.9L163.7,308.9c1.1,0.5,2.5,0,3-1.1l2.8-6.1c0.5-1.1,0-2.5-1.1-3l0,0c-1.1-0.5-2.5,0-3,1.1
					l-2.8,6.1C162.1,307,162.6,308.3,163.7,308.9z"/>
				<path class="st2" d="M168.2,318.7L168.2,318.7c1.1,0.5,2.5,0,3-1.1l2.8-6.1c0.5-1.1,0-2.5-1.1-3l0,0c-1.1-0.5-2.5,0-3,1.1
					l-2.8,6.1C166.6,316.8,167.1,318.2,168.2,318.7z"/>
				<path class="st2" d="M172.7,328.6L172.7,328.6c1.1,0.5,2.5,0,3-1.1l2.8-6.1c0.5-1.1,0-2.5-1.1-3l0,0c-1.1-0.5-2.5,0-3,1.1
					l-2.8,6.1C171.1,326.7,171.6,328.1,172.7,328.6z"/>
			</g>
			<g>
				<path class="st2" d="M172.2,293.1L172.2,293.1c1.1,0.5,2.5,0,3-1.1l2.8-6.1c0.5-1.1,0-2.5-1.1-3l0,0c-1.1-0.5-2.5,0-3,1.1
					l-2.8,6.1C170.5,291.2,171,292.6,172.2,293.1z"/>
				<path class="st2" d="M176.7,303L176.7,303c1.1,0.5,2.5,0,3-1.1l2.8-6.1c0.5-1.1,0-2.5-1.1-3l0,0c-1.1-0.5-2.5,0-3,1.1l-2.8,6.1
					C175,301.1,175.5,302.4,176.7,303z"/>
				<path class="st2" d="M181.2,312.8L181.2,312.8c1.1,0.5,2.5,0,3-1.1l2.8-6.1c0.5-1.1,0-2.5-1.1-3l0,0c-1.1-0.5-2.5,0-3,1.1
					l-2.8,6.1C179.5,310.9,180,312.3,181.2,312.8z"/>
				<path class="st2" d="M185.7,322.7L185.7,322.7c1.1,0.5,2.5,0,3-1.1l2.8-6.1c0.5-1.1,0-2.5-1.1-3l0,0c-1.1-0.5-2.5,0-3,1.1
					l-2.8,6.1C184,320.8,184.5,322.2,185.7,322.7z"/>
			</g>
		</g>
		<path class="st3" d="M154.7,269.6c0,0,6.5-6.7,9.9-5.5c3.4,1.2,12,10.1,12.3,12.3c0.2,2.2,3.4,9.2,2.2,9.6
			c-1.2,0.5-9.2-4.6-12.5-8S154.7,269.6,154.7,269.6z"/>
		<path class="st3" d="M141.7,279c0,0,5.3-11.6,8.9-11.6c3.6,0,16.6,5.8,18.3,8.2c1.7,2.4,9.4,9.9,7.5,10.8c-1.9,1-6-1-8.9-3.1
			c-2.9-2.2-4.6-3.1-4.6-3.1l-8.2-2.4"/>
		<path class="st3" d="M133.3,283.3c0,0,5.3-11.6,8.9-11.6s16.6,5.8,18.3,8.2c1.7,2.4,9.4,9.9,7.5,10.8c-1.9,1-6-1-8.9-3.1
			c-2.9-2.2-4.6-3.1-4.6-3.1l-8.2-2.4"/>
		<path class="st3" d="M131.1,288.6c0,0-2.7-5.8,0-7c2.7-1.2,19.8-5.3,21.4-6.3s4.8,0.5,1,4.8c-3.9,4.3-15.2,7-16.4,7.2"/>
	</g>
</g>
<g>
	<path class="st7" d="M98.1,205.1l-13.5,9.3c0,0-7.1,4.1-10.8,10.7l-14.9,40c0,0-1.7,2.1-3.6,1.6c-1.9-0.5-3.5-1.3-3.5-1.3
		s-3.4-1.9-6.7-0.5c-3.3,1.4-6.1,4.2-6.8,9.4c-0.7,5.2,1,9.3,4.5,10.8c3.4,1.5,6.7,1.2,9.6-1.1c2.9-2.3,5.3-7.5,6-9.3
		c0.5-1.3,1.1-3.2,1.4-4.1l12.1-30.3l2.2-0.7c0,0,7.3-13.6,10.5-16.1c3.2-2.4,12.5-9.5,14-12C99.8,209.1,98.1,205.1,98.1,205.1z
		 M51.8,282.5c-1.4,1.4-4.8,2.5-8.6,0.8c-3.8-1.6-4.4-6.3-3.9-9.2c0.5-3,3.7-7.8,6.9-7.7c3.2,0.1,6.7,1.3,8.3,4.1
		c1.5,2.9,0.3,7,0.3,7C53.8,280,53.3,281.1,51.8,282.5z"/>
	<path class="st7" d="M84,273.6c-2.6-2.3-7.8-1.9-7.8-1.9s-2.5-0.2-2.3-2.7c0.2-2.5,6.7-40.9,6.7-40.9l1-5L94.4,199l1.7-4.5
		c0,0-0.7-0.7-1.2-0.6l-3.1,3.3c0,0-17,21.6-17.3,23.3c-0.4,1.6-0.8,4.6-0.8,4.6l-1.9,13c0,0,3.4,2.6,3.5,4.3c0.1,1.5-5,33.4-6,39.8
		c-0.1,0.4-0.2,0.8-0.2,1.1c-0.2,3.3,1.5,8.9,6.4,8.8c4.9-0.1,8.3-2.7,10.3-7.2C87.8,280.4,86.6,275.9,84,273.6z M84.3,284.6
		c-1.6,3.6-4.4,5.7-8.3,5.8c-3.9,0.1-5.3-4.5-5.2-7.1c0.2-2.9,1.6-5.8,3.8-7.7c1-0.8,2.6-1.8,4-1.6c1.4,0.1,3.1,0.5,4.3,1.5
		C85,277.4,85.9,281,84.3,284.6z"/>
	<line class="st7" x1="76.5" y1="220.6" x2="81.6" y2="223.1"/>
	<g>
		<path class="st7" d="M79.1,229.8c-0.4,1-1.4,1.6-2.3,1.2s-1.4-1.4-1-2.4c0.4-1,1.4-1.6,2.3-1.2S79.5,228.8,79.1,229.8z"/>
		<line class="st7" x1="79.1" y1="229.8" x2="75.8" y2="228.6"/>
	</g>
	<path class="st7" d="M83.4,219.3c0,0-0.1-0.8-0.7-1.6s-1.6-1.5-0.9-2.8c0.6-1.3,10.7-17.2,10.7-17.2l1.2,0.9"/>
</g>
<g>
	<path class="st7" d="M169.4,59.7c-3.3-8-8.9-13.3-12.6-11.8c-0.5,0.2-1,0.6-1.4,1.1L94.8,92.4l11.9,29.1L168.6,77
		C172.3,75.5,172.6,67.7,169.4,59.7z"/>
	<path class="st7" d="M164.7,63c-3.3-8-8.9-13.3-12.6-11.8c-0.5,0.2-1,0.6-1.4,1.1L90.1,95.7l11.9,29.1L164,80.3
		C167.6,78.8,168,71.1,164.7,63z"/>
	<path class="st7" d="M107.9,105.2C103.5,94.5,96,87.4,91.1,89.4c-0.7,0.3-1.3,0.8-1.9,1.4L71,103.8l15.9,38.9l20.1-14.4
		C111.9,126.3,112.3,116,107.9,105.2z"/>
	<path class="st7" d="M87.8,119.6c4.4,10.7,4,21.1-1,23.1c-4.9,2-12.5-5.1-16.8-15.8c-4.4-10.7-4-21.1,1-23.1
		C75.9,101.8,83.4,108.8,87.8,119.6z"/>
	
		<ellipse transform="matrix(0.9258 -0.3779 0.3779 0.9258 -40.7125 38.9664)" class="st7" cx="78.9" cy="123.2" rx="8.4" ry="18.3"/>
	
		<rect x="107.7" y="93" transform="matrix(0.5843 0.8115 -0.8115 0.5843 124.6136 -49.4718)" class="st7" width="5.7" height="7.9"/>
</g>
<g>
	
		<rect x="378.9" y="66.5" transform="matrix(0.2952 0.9554 -0.9554 0.2952 373.4604 -309.8763)" class="st7" width="35.7" height="63.4"/>
	<line class="st7" x1="422.7" y1="90.9" x2="372" y2="106.6"/>
	<g>
		<path class="st7" d="M407.3,81.4l-0.4,0.6c-0.7,1.1-0.4,2.5,0.7,3.2l7.3,4.6c1.1,0.7,2.5,0.4,3.2-0.7l0.4-0.6
			c0.7-1.1,0.4-2.5-0.7-3.2l-7.3-4.6C409.4,80,408,80.3,407.3,81.4z"/>
		<path class="st7" d="M395.2,85.1l-0.4,0.6c-0.7,1.1-0.4,2.5,0.7,3.2l7.3,4.6c1.1,0.7,2.5,0.4,3.2-0.7l0.4-0.6
			c0.7-1.1,0.4-2.5-0.7-3.2l-7.3-4.6C397.3,83.7,395.9,84.1,395.2,85.1z"/>
		<path class="st7" d="M383.1,88.9l-0.4,0.6c-0.7,1.1-0.4,2.5,0.7,3.2l7.3,4.6c1.1,0.7,2.5,0.4,3.2-0.7l0.4-0.6
			c0.7-1.1,0.4-2.5-0.7-3.2l-7.3-4.6C385.2,87.5,383.8,87.8,383.1,88.9z"/>
		<path class="st7" d="M371.1,92.6l-0.4,0.6c-0.7,1.1-0.4,2.5,0.7,3.2l7.3,4.6c1.1,0.7,2.5,0.4,3.2-0.7l0.4-0.6
			c0.7-1.1,0.4-2.5-0.7-3.2l-7.3-4.6C373.1,91.2,371.7,91.5,371.1,92.6z"/>
	</g>
	<g>
		<path class="st7" d="M412.2,97.2l-0.4,0.6c-0.7,1.1-0.4,2.5,0.7,3.2l7.3,4.6c1.1,0.7,2.5,0.4,3.2-0.7l0.4-0.6
			c0.7-1.1,0.4-2.5-0.7-3.2l-7.3-4.6C414.3,95.9,412.9,96.2,412.2,97.2z"/>
		<path class="st7" d="M400.1,101l-0.4,0.6c-0.7,1.1-0.4,2.5,0.7,3.2l7.3,4.6c1.1,0.7,2.5,0.4,3.2-0.7l0.4-0.6
			c0.7-1.1,0.4-2.5-0.7-3.2l-7.3-4.6C402.2,99.6,400.8,99.9,400.1,101z"/>
		<path class="st7" d="M388,104.7l-0.4,0.6c-0.7,1.1-0.4,2.5,0.7,3.2l7.3,4.6c1.1,0.7,2.5,0.4,3.2-0.7l0.4-0.6
			c0.7-1.1,0.4-2.5-0.7-3.2l-7.3-4.6C390.1,103.3,388.7,103.6,388,104.7z"/>
		<path class="st7" d="M376,108.4l-0.4,0.6c-0.7,1.1-0.4,2.5,0.7,3.2l7.3,4.6c1.1,0.7,2.5,0.4,3.2-0.7l0.4-0.6
			c0.7-1.1,0.4-2.5-0.7-3.2l-7.3-4.6C378,107,376.6,107.4,376,108.4z"/>
	</g>
</g>
<g>
	<polygon class="st7" points="398.1,202 391.7,207.9 383.6,196.4 387.4,192.9 	"/>
	<path class="st7" d="M395,201.7l-2.9,2.6c-2.8,2.6-2.9,6.9-0.4,9.6l44.8,48.3l4.8,8.7l18.9-18.9l-8.7-4.8l-47.2-45.4
		C401.7,199.2,397.6,199.2,395,201.7z"/>
	<polygon class="st7" points="429.4,254.6 438.3,244.2 404.5,211.3 396.3,218.9 	"/>
</g>
<g>
	<rect x="402.7" y="393.3" class="st3" width="24.4" height="48.2"/>
	<rect x="407.2" y="408.1" class="st3" width="15.4" height="18.6"/>
	<g>
		<rect x="408.1" y="380.7" class="st3" width="13.6" height="12.4"/>
		<polygon class="st3" points="417.1,361.1 412.8,361.1 411.3,380.8 418.5,380.8 		"/>
		<rect x="408.1" y="386.7" class="st3" width="13.6" height="6.4"/>
	</g>
</g>
<g>
	<rect x="349.7" y="408.5" class="st3" width="36.5" height="33"/>
	<rect x="349.7" y="422.1" class="st3" width="36.5" height="19.4"/>
	<rect x="349.7" y="425.6" class="st3" width="29.5" height="12.4"/>
</g>
<g>
	<rect x="90.1" y="384.5" class="st3" width="36.5" height="57"/>
	<line class="st5" x1="108.1" y1="385.1" x2="108.1" y2="441.2"/>
	<g>
		<g>
			<rect x="92.9" y="389.9" class="st5" width="9.6" height="15.2"/>
			<rect x="94.5" y="392.5" class="st5" width="6.3" height="10"/>
		</g>
		<g>
			<rect x="113.3" y="389.9" class="st5" width="9.6" height="15.2"/>
			<rect x="115" y="392.5" class="st5" width="6.3" height="10"/>
		</g>
		<rect x="102.5" y="393.7" class="st5" width="10.9" height="7"/>
	</g>
	<g>
		<g>
			<rect x="92.9" y="415.8" class="st5" width="9.6" height="15.2"/>
			<rect x="94.5" y="418.4" class="st5" width="6.3" height="10"/>
		</g>
		<g>
			<rect x="113.3" y="415.8" class="st5" width="9.6" height="15.2"/>
			<rect x="115" y="418.4" class="st5" width="6.3" height="10"/>
		</g>
		<rect x="102.5" y="419.6" class="st5" width="10.9" height="7"/>
	</g>
</g>
<g>
	<rect x="173.6" y="315.9" class="st2" width="143.1" height="125.6"/>
	<rect x="173.6" y="354.1" class="st8" width="143.1" height="87.4"/>
	<polygon class="st3" points="268.4,388.5 254.6,388.5 254.6,374.8 235.7,374.8 235.7,388.5 221.8,388.5 221.8,407.1 235.7,407.1 
		235.7,420.7 254.6,420.7 254.6,407.1 268.4,407.1 	"/>
	<rect x="173.9" y="309.2" class="st8" width="142.6" height="12.6"/>
</g>
<line class="st5" x1="41.4" y1="441.5" x2="459.5" y2="441.5"/>
</svg>
