<?xml version="1.0" encoding="utf-8"?>
<!-- Generator: Adobe Illustrator 25.2.0, SVG Export Plug-In . SVG Version: 6.00 Build 0)  -->
<svg version="1.1" id="Layer_1" xmlns="http://www.w3.org/2000/svg" xmlns:xlink="http://www.w3.org/1999/xlink" x="0px" y="0px"
	 viewBox="0 0 500 500" style="enable-background:new 0 0 500 500;" xml:space="preserve">
<style type="text/css">
	.st0{fill:#8342EA;}
	.st1{opacity:0.7;fill:#FFFFFF;}
	.st2{fill:#1A2E35;stroke:#1A2E35;stroke-miterlimit:10;}
	.st3{fill:#8342EA;stroke:#1A2E35;stroke-miterlimit:10;}
	.st4{fill:#7A7A7A;}
	.st5{fill:none;stroke:#1A2E35;stroke-miterlimit:10;}
	.st6{fill:#FFFFFF;stroke:#1A2E35;stroke-miterlimit:10;}
	.st7{fill:none;stroke:#7A7A7A;stroke-miterlimit:10;}
	.st8{opacity:0.3;fill:none;stroke:#000000;stroke-miterlimit:10;}
	.st9{opacity:0.4;fill:#FFFFFF;}
	.st10{fill:#BABABA;}
	.st11{fill:#1A2E35;}
	.st12{fill:none;stroke:#1A2E35;stroke-width:3;stroke-linecap:round;stroke-miterlimit:10;}
</style>
<g id="Background_Simple">
</g>
<g id="Graphics">
</g>
<g id="Shadow_4">
</g>
<g id="Shadow_3">
</g>
<g id="Shadow_2">
</g>
<g id="Shadow_1">
</g>
<g id="Character_4">
</g>
<g id="Character_2_1_">
</g>
<g id="Character_1">
</g>
<g id="Text">
</g>
<g>
	<path class="st0" d="M423.1,146.2c0,0-76.1-109.5-171.1-121.2C168.1,14.8,90.3,54.9,79.5,141.5c-3.9,30.9-10.7,65-22.9,93.2
		c-13.7,31.6-37.1,57.9-19.2,118.6c17.9,60.7,93.5,115.6,148.4,115.4c54.9-0.1,106.5-50.1,149.1-95.5
		C377.5,327.9,513.1,285.2,423.1,146.2z"/>
	<path class="st1" d="M423.1,146.2c0,0-76.1-109.5-171.1-121.2C168.1,14.8,90.3,54.9,79.5,141.5c-3.9,30.9-10.7,65-22.9,93.2
		c-13.7,31.6-37.1,57.9-19.2,118.6c17.9,60.7,93.5,115.6,148.4,115.4c54.9-0.1,106.5-50.1,149.1-95.5
		C377.5,327.9,513.1,285.2,423.1,146.2z"/>
</g>
<g>
	<path class="st2" d="M140.5,114.8c0,2.3-2,4.3-4.5,4.3c-2.5,0-4.5-1.9-4.5-4.3c0-2.3,2-4.3,4.5-4.3
		C138.5,110.5,140.5,112.4,140.5,114.8z"/>
	<path class="st2" d="M69.4,29.3l-6.8,91c0,0-9.1,7.1-11,16.1s-0.4,49.6,0.4,57.9c0.8,8.3,1.2,35,1.6,52c0.4,16.9,1.2,42.1,4.3,46.5
		c3.1,4.3,11,9.1,22,9.8c11,0.8,23.5-1.7,36.9-3.3c13.4-1.6,31.6-9.3,32-18c0.4-8.7,5.5-73.2,5.9-79.5c0.4-6.3,3.5-12.6,3.1-21.7
		c-0.4-9.1,0-40.9-1.6-48c-1.6-7.1-13.4-12.2-13.4-12.2l0.8-3.1l-15.4-3.5l-1.4,3.6c0,0-23.8-2-34-0.8l-2.8-86.2
		c-0.2-5.5-4.7-9.9-10.2-10l0,0C74.5,19.6,69.8,23.8,69.4,29.3z"/>
	<path class="st3" d="M101.7,126.9c0,0-19,1.1-23.9,4.7c-5,3.6-6.3,8.3-6.9,14.6c-0.6,6.3-1.7,41.6-1.4,46.2
		c0.3,4.7,1.9,11.6,1.9,19.8c0,8.3,0.8,14.3,0.8,14.3l22.6,8.3c0,0,14.6-9.1,23.1-8.5c8.5,0.6,17.1,4.4,17.1,4.4l17.3-9.9
		c0,0-0.3-23.4,0.6-26.4c0.8-3,1.7-5.2,1.7-8.8c0-3.6,1.1-40.7,1.1-45.1c0-4.4-4.1-8.8-9.6-10.7
		C140.5,127.7,117.4,125.2,101.7,126.9z"/>
	<path class="st4" d="M105.1,126.6c0,0,5.4-3.8,11.9-3.1s9,3.5,9,3.5S108.6,126.3,105.1,126.6z"/>
	<path class="st2" d="M82.8,141.9c0,0-0.2,28.8,0.7,33.6c1,4.8,9.4,14.2,17,16.3c0,0,2.6,1,4.3,0c1.7-1,8.4-4.1,15.1-3.6
		c6.7,0.5,8.9,2.4,10.1,2.2c1.2-0.2,8.6-4.6,13.2-10.6c4.6-6,4.6-14.2,4.8-16.3c0.2-2.2-0.7-20.6-1-22.8c-0.2-2.2-3.4-2.4-7.2-3.1
		c-3.8-0.7-20.4-1.7-36-0.7C88.4,137.8,83.8,140,82.8,141.9z"/>
	<path class="st2" d="M145.7,185.5l-13.9,10.1v7.9c0,0,0.5,1.9,3.1,1.4s9.8-3.1,10.8-4.3c1-1.2,2.2-12,1.9-13.7
		S145.7,185.5,145.7,185.5z"/>
	<path class="st2" d="M100.8,198.7c0,0,0.7,5,0.2,6.2c-0.5,1.2-2.4,1.9-4.1,1.9s-11.8-1.2-13-2.4c-1.2-1.2-2.4-13.7-1.2-14.9
		C84,188.4,100.8,198.7,100.8,198.7z"/>
	<path class="st2" d="M108.3,207.1c0,0-1,12-0.7,13c0.3,1,0.7,1.3,1.7,1.3c1,0,6.1,0.4,9.3,0c3.3-0.4,5.5-1.4,5.7-2.7
		c0.1-1.3,0-12.2-0.6-12.9c-0.6-0.7-1.3-0.8-3-1c-1.7-0.1-11,0.7-11.9,1.1C108,206.4,108.3,207.1,108.3,207.1z"/>
	<path class="st2" d="M101.3,214.1c0,0-11.9-2.1-14.1-2.3c-2.3-0.1-3.7,0.6-3.8,2.7c-0.1,2.1,0.3,9.3,0.6,9.8
		c0.3,0.4,9.6,4,10.6,3.7c1-0.3,6.6-3.1,7.1-3.7c0.4-0.6,0.4-7.4,0.6-8.6C102.2,214.4,101.3,214.1,101.3,214.1z"/>
	<path class="st2" d="M142.7,208.2c0,0-11.7,2.7-12.7,3.4c-1,0.7-0.8,1.4-1,2.5c-0.1,1.1,0.3,7.4,0.3,7.4s5.2,3.1,6.4,2.8
		c1.1-0.3,9.3-4,9.5-5.7c0.1-1.7,0.6-8.1,0.4-9C145.4,208.6,144.2,208,142.7,208.2z"/>
	<path class="st5" d="M118.9,197.9c0,1.2-1.2,2.2-2.7,2.2s-2.7-1-2.7-2.2c0-1.2,1.2-2.2,2.7-2.2S118.9,196.7,118.9,197.9z"/>
	<path class="st6" d="M133.7,174.2l-37.4,0.9c-1.7,0-3.1-1.3-3.1-3v-21.9c0-1.6,1.3-3,2.9-3l37.4-0.9c1.7,0,3.1,1.3,3.1,3v21.9
		C136.7,172.8,135.4,174.2,133.7,174.2z"/>
	<g>
		<g>
			<path class="st7" d="M94.5,244.5c-1,0-1.9-0.8-2-1.8c-0.1-1.1,0.7-2.1,1.8-2.2c0.2,0,23.6-2.3,40-3.8c1.1-0.1,2.1,0.7,2.2,1.8
				c0.1,1.1-0.7,2.1-1.8,2.2c-16.4,1.5-39.8,3.8-40,3.8C94.6,244.5,94.6,244.5,94.5,244.5z"/>
		</g>
		<g>
			<path class="st7" d="M86.1,255.9c-1,0-1.9-0.8-2-1.9c-0.1-1.1,0.8-2.1,1.9-2.1c0.4,0,39.3-2.8,53-6.1c1.1-0.3,2.2,0.4,2.4,1.5
				c0.3,1.1-0.4,2.2-1.5,2.4c-14,3.3-52,6.1-53.6,6.2C86.2,255.9,86.1,255.9,86.1,255.9z"/>
		</g>
		<g>
			<path class="st7" d="M83.8,268.4c-1,0-1.9-0.8-2-1.8c-0.1-1.1,0.7-2.1,1.8-2.2c17.1-1.7,51.1-5.4,57.1-7.5c1-0.4,2.2,0.2,2.6,1.2
				c0.4,1-0.2,2.2-1.2,2.6c-8,2.9-56,7.6-58.1,7.8C83.9,268.4,83.9,268.4,83.8,268.4z"/>
		</g>
		<g>
			<path class="st7" d="M129.5,273.9c-17.3,2.5-43.1,4.9-44.5,5c-0.1,0-0.1,0-0.2,0c-1,0-1.9-0.8-2-1.8c-0.1-1.1,0.7-2.1,1.8-2.2
				c0.4,0,39.3-3.6,53.8-6.6c1.1-0.2,2.1,0.5,2.4,1.6c0.2,1.1-0.5,2.1-1.6,2.4c-1.6,0.3-3.6,0.7-5.7,1"/>
		</g>
		<g>
			<path class="st7" d="M91.7,288.8c-1,0-1.9-0.8-2-1.9c-0.1-1.1,0.8-2.1,1.9-2.1c0.3,0,29.7-2.1,39.9-4.8c1.1-0.3,2.2,0.3,2.5,1.4
				c0.3,1.1-0.3,2.2-1.4,2.5c-10.5,2.8-39.4,4.8-40.7,4.9C91.8,288.8,91.7,288.8,91.7,288.8z"/>
		</g>
	</g>
	<path class="st7" d="M51.7,144.8c0,0,0-3.8,0.8-4.3c0.8-0.5,6.1,0.3,6.4,1.8c0.3,1.5,1,36.2,0,40c-1,3.8-5.1,3.3-6.1,1.5"/>
	<path class="st7" d="M55,185.4c0,0,0.3,7.4,0.5,12.7c0.3,5.4,2.3,20.1,1.8,28.8c-0.5,8.7,1.5,58.1,1.5,58.1s0.5,6.9,1.8,8.7"/>
	<path class="st7" d="M65.7,287.9c0.2,3.3,0.5,5.4,0.8,6.1c1.8,3.8,4.3,5.6,6.4,6.1"/>
	<path class="st7" d="M64.5,228.8c0.1,15.5,0.3,40.9,1,55"/>
	<path class="st7" d="M154.4,129.5c0,0-7.9-5.9-19.4-7.4c-11.5-1.5-33.6-0.8-45.9,1.5c-12.2,2.3-22.2,5.4-26.3,12s-2.8,53.5-2,59.9
		c0.8,6.4,3.6,10.7,3.6,21.7c0,1.5,0,4,0,7.2"/>
	<path class="st5" d="M72.6,230.7c0,0-0.5,58.1-0.5,61.4c0,3.3,3.3,7.1,9.9,7.9c6.6,0.8,27-1.3,40.5-3.3"/>
	<path class="st5" d="M96.1,171.9l33.3-1.2c1.9-0.1,3.4-1.6,3.5-3.5l0.7-18.5"/>
	<path class="st7" d="M70.7,56.1l1.9-28.4c0,0,3.2-8.1,7.4-8"/>
	<path class="st7" d="M55.8,140c0,0-0.5-9.3,4.2-11.6c4.7-2.3,6.5-9.3,6.5-9.3l3.9-58.3"/>
	<path class="st7" d="M70.7,111.1c0,0,13.5-0.9,20-3.7"/>
	<path class="st7" d="M69.8,115.8c0,0,13.5-0.9,20-3.7"/>
</g>
<path class="st8" d="M445.8,107.2c0,0-15.6-29.5-44.2-33.8c-28.6-4.3-31.2,18.2-34.7,24.3c-3.5,6.1-19.1-10.4-33.8-3.5
	c-14.7,6.9-9.5,22.5-15.6,25.1c-6.1,2.6-17.3-4.3-23.4,1.7c-6.1,6.1-6.1,16.5-6.1,16.5h199.4c0,0-4.3-19.1-16.5-26.9
	C458.8,102.9,457,118.5,445.8,107.2z"/>
<path class="st8" d="M226.2,49.4c0,0-7.9-14.9-22.3-17.1c-14.4-2.2-15.7,9.2-17.5,12.2s-9.6-5.2-17.1-1.7
	c-7.4,3.5-4.8,11.4-7.9,12.7c-3.1,1.3-8.7-2.2-11.8,0.9c-3.1,3.1-3.1,8.3-3.1,8.3h100.6c0,0-2.2-9.6-8.3-13.6
	C232.8,47.3,231.9,55.1,226.2,49.4z"/>
<g>
	<g>
		<path class="st0" d="M484.7,273.2c0,49.7-25.1,69.5-56.1,69.5s-56.1-19.8-56.1-69.5c0-49.7,25.1-122.6,56.1-122.6
			S484.7,223.5,484.7,273.2z"/>
		<path class="st9" d="M484.7,273.2c0,49.7-25.1,69.5-56.1,69.5s-56.1-19.8-56.1-69.5c0-49.7,25.1-122.6,56.1-122.6
			S484.7,223.5,484.7,273.2z"/>
	</g>
	<g>
		<polygon class="st10" points="421.5,454.9 434.6,454.9 429.8,283.2 430.3,289.7 460.3,253.4 429.8,282.3 428.7,243.7 441.6,228.5 
			428.5,238.3 428,220 427.1,255.1 412.2,245.5 426.9,259.2 		"/>
		<polygon class="st10" points="425.2,313.5 399.1,295.9 425.2,319.7 		"/>
	</g>
</g>
<g>
	<path class="st6" d="M232,285.4l-76.2,22.4c0,0-42.8,75.1-45.4,90.2c-2.6,15.1-13.6,56.9-13.6,56.9h329.2c0,0,11-64.7,12-73.6
		c1-8.9,3.7-12.5,3.7-12.5s-30.3-45.4-36.5-52.2c-6.3-6.8-85-25.6-85-25.6s-33.9-7.8-48.5-9.9C257.1,279.2,232,285.4,232,285.4z"/>
	<path class="st2" d="M428.3,442l-17.1-36.5l-36.4-17.4l-26.9,2.6l16,64.2h62.1C426.1,455,427,449.7,428.3,442z"/>
	<polygon class="st6" points="247.7,248.9 249.2,273.4 276.9,294 291.3,319 303,294.8 315.5,280.7 319.1,236.4 	"/>
	<polygon class="st2" points="249.2,273.4 258.6,280.4 286.3,261.3 282.3,246.5 274.2,244.3 247.7,248.9 	"/>
	<g>
		<polygon class="st3" points="266.2,306 283.1,320.6 293.3,338.3 294.8,454.9 329,454.9 305.4,343.6 303.3,334.4 311.8,305.2 
			286.9,306.6 272.9,291.9 		"/>
		<line class="st5" x1="293.3" y1="338.3" x2="303.3" y2="334.4"/>
		<polyline class="st5" points="283.1,320.6 286.9,306.6 310.4,305 		"/>
	</g>
	<polygon class="st6" points="243.5,261 226.8,284.4 263.3,324 281.6,290.1 	"/>
	<path class="st2" d="M338.1,291.9c-0.9,0.8-1.6,12.6,1.2,13.8c2.8,1.2,63,12,65.9,11.1c2.9-0.9,3.7-8.7,1.3-9.9
		C404.2,305.6,341.3,289.1,338.1,291.9z"/>
	<g>
		<path class="st6" d="M234.6,169.8c0,0,0.6,52.4,1.2,57.5c0.6,5.2,16.4,35.1,19,37.1c2.6,2,9.8,4.9,14.7,4.3
			c4.9-0.6,33.1-14.1,40.9-19.3c7.8-5.2,15.8-24.2,15.8-24.2s11.2-4.9,15-11.2c3.7-6.3,1.2-20.7,0.9-22.2c-0.3-1.4-0.3-1.4-0.3-1.4
			s-1.7-15.2-3.7-19.9c-2-4.6-28.8-21.6-48.6-27.6c-19.9-6-38.6-2.6-45.5,7.5C236.9,160.6,234.6,169.8,234.6,169.8z"/>
		<path class="st5" d="M281.8,193.7c0,0,3.4,4.8,12,5.8"/>
		<path class="st5" d="M255.8,194.4c0,0-7.2,4.8-9.9,5.5"/>
		<path class="st2" d="M341.9,192c0,0-2.9-4.6-5.5-3.2c-2.6,1.4-7.8,10.1-9.2,9.2c-1.4-0.9-6.6-19.9-7.5-24.7
			c-0.9-4.9,3.2-4.3,5.8-2C328.1,173.6,341.9,189.4,341.9,192z"/>
		<path class="st3" d="M326.6,174.1l15.2,17.8c0,0,0.9-25.3,0-37.7c-0.9-12.4-17.5-31.6-26.8-37.4c-9.2-5.8-34.5-10.4-43.7-7.2
			c-9.2,3.2-25.9,9.2-27.6,15.2c-1.7,6-7.8,26.2-7.8,26.2s19.6-8.6,31.9-4c12.4,4.6,46.6,22.2,48.3,23.3
			C318,171.6,326.6,174.1,326.6,174.1z"/>
		<path class="st2" d="M223.1,162.3c0,0-2.6,3.7,2,6.6c4.6,2.9,9.5,0.9,9.5,0.9s6.9-15.5,18.7-18.1c11.8-2.6,18.7,0.3,18.7,0.3
			s-10.9-8.6-21.6-8.1C239.7,144.5,225.1,157.5,223.1,162.3z"/>
		<path class="st3" d="M223.1,162.3c0,0,15.5-18.7,34.2-15.5c18.7,3.2,36.2,31.4,46.3,33.9c10.1,2.6,23-6.6,23-6.6
			s-30.8-27.9-59.8-31.9C237.7,138.2,223.9,157.5,223.1,162.3z"/>
		<path class="st5" d="M259,193.7l-3.3,15.3c-0.8,3.9,1.5,7.7,5.4,8.6c1.6,0.4,3.2,0.6,4.5,0.5"/>
		<path class="st5" d="M251.8,230.5c0,0,3.8,4,8.9,4.9c8.8,1.6,15.2-3.5,15.2-3.5"/>
		<path class="st11" d="M251,191.1c0,1.7-1,3.2-2.3,3.2s-2.3-1.4-2.3-3.2s1-3.2,2.3-3.2S251,189.4,251,191.1z"/>
		<path class="st11" d="M289.5,189.4c0,1.7-1,3.2-2.3,3.2c-1.3,0-2.3-1.4-2.3-3.2c0-1.7,1-3.2,2.3-3.2
			C288.5,186.2,289.5,187.6,289.5,189.4z"/>
		<path class="st12" d="M239.7,184.5c0.6-0.9,6.3-6.9,16.4-2.9"/>
		<path class="st12" d="M277.4,180.5c0,0,10.1-7.8,22.2,2.6"/>
	</g>
	<g>
		<path class="st2" d="M292.6,213.6c0.2-0.5,1.8-3,4.6-3.4c2.8-0.4,9.2,3,9.8,3.4c0.5,0.4,2.1,0.7,3.2-0.7
			c1.1-1.4,10.8-23.3,10.8-23.3s4.4-0.9,7.5,3.6l-10.3,28.4c0,0,1.4,5,0.5,7.5c-0.9,2.5-5.9,8.4-5.9,8.4L292.6,213.6z"/>
		<g>
			<path class="st6" d="M315.3,235.3c0,0-23.7-26.8-27.7-28.2c-4-1.4-10.5,0.6-11.9,4.8c-1.4,4.2-0.6,6.5-0.6,6.5s-7.1,0.6-9.9,3.7
				s-1.1,7.9-1.1,7.9s-1.5,1.1-3.4,5.5c-1.9,4.4,0.6,6.9,0.6,6.9s-3.7,2-4,5.6c-0.3,3.7,1.1,5.9,2.8,8.8
				c1.7,2.8,13.6,33.6,16.7,37.3c3.1,3.7,16.9,18.4,16.9,18.4l9.6,13.3l27.1-28.2l-10.7-13.3l6.2-33.6c0,0,2-17.2,1.7-19.2
				c-0.3-2-0.6-7.9-0.3-14.1c0.3-6.2-3.1-9-6.8-5.4c-3.7,3.7-3.1,17.2-3.1,18.4C317.6,231.3,315.3,235.3,315.3,235.3z"/>
			<path class="st5" d="M315.3,235.3c0,0,6.8,8.8,7.1,12.4"/>
			<path class="st5" d="M275.2,218.3c0,0,10.5,6.2,16.1,14.1"/>
			<path class="st5" d="M264.2,229.9c0,0,7.6,3.4,14.4,11.6"/>
			<path class="st5" d="M261.3,242.3c0,0,9.9,6.5,12.7,11"/>
		</g>
		<path class="st6" d="M327.4,288.4c0,0-30.9,34.3-29.8,34.6c1.1,0.3,27.2,41.4,27.2,41.4l35.3-48.3L327.4,288.4z"/>
		<g>
			<path class="st6" d="M324.9,364.4c0,0,6.5,14.4,9.6,16.9s54,59,57.1,61.7c3.1,2.6,40.2,10.4,48,6.8c7.8-3.7,14.6-38.6,14.6-48
				c0-9.4-11-30.8-12.5-32.9s-32.3-14.6-38.6-23.5c-18-25.6-42.9-29.4-42.9-29.4L324.9,364.4z"/>
			<path class="st6" d="M433,401.8c1,2.6,1.7,5,2.1,7.2"/>
			<path class="st6" d="M406.6,359c0,0,17,21.6,24.9,39.2"/>
			<path class="st6" d="M349.1,370.5c1.4,1.7,3.1,3.4,4.9,5"/>
			<path class="st6" d="M337.5,347.6c0,0,1.2,9.4,9.3,20"/>
		</g>
	</g>
	<path class="st2" d="M149.4,306c0,0,11,5.1,15.7,4.7c4.7-0.4,55.8-20.8,57.8-23.2c2-2.4-0.8-7.1-5.1-7.5
		C213.5,279.7,149,302.1,149.4,306z"/>
	<path class="st5" d="M169.8,354.6c6.3,19,15.2,48.2,17,64.3c2.8,25.2,2,35.4,2,35.4"/>
	<path class="st5" d="M163.5,336.3c0,0,1.2,3.4,3.1,9"/>
	<path class="st2" d="M126.2,352.8l9-3.5l4.7,7.5c0,0-16.5,47.6-19.3,49.2c-2.8,1.6-5.9,2.8-9-1.6c-3.1-4.3-1.6-9-1.6-9L126.2,352.8
		z"/>
	<g>
		<polyline class="st6" points="244.7,402.7 276.8,398.8 272.1,378.6 		"/>
		<polyline class="st6" points="271.4,367.8 195.5,379.4 201.7,408.1 237.6,403.6 		"/>
		<path class="st6" d="M279,435.9c0.5,4,0.9,7,0.9,7.8"/>
		<path class="st6" d="M274.5,405c0,0,2,13.5,3.6,24.5"/>
		<line class="st6" x1="207.5" y1="439.9" x2="208.7" y2="446"/>
		<line class="st6" x1="202.5" y1="413.5" x2="206.5" y2="434.7"/>
	</g>
</g>
<line class="st5" x1="479.6" y1="455" x2="35.6" y2="455"/>
</svg>
