<svg version="1.1" id="Layer_1" xmlns="http://www.w3.org/2000/svg" x="0" y="0" viewBox="0 0 500 500" style="enable-background:new 0 0 500 500" xml:space="preserve"><style>.st2{opacity:.3}.st3,.st4,.st5,.st6{fill:none;stroke:#000;stroke-miterlimit:10}.st4,.st5,.st6{fill:#8342ea;stroke:#1a2e35}.st5,.st6{fill:none}.st6{fill:#ccc}.st8{fill:#1a2e35}.st10,.st9{fill:#fff;stroke:#1a2e35;stroke-miterlimit:10}.st10{fill:none;stroke-linecap:round}</style><path d="M321.2 64.4S244 34.9 169.6 78c-74.4 43.1-110.7 130.7-142 200.9-31.3 70.2-11.1 142.6 47 176.6s96.2-13.7 176.8-14.5c80.5-.8 102.4 11.5 168.4-33.9s76-155.5 21.7-238.2C387.1 86.2 321.2 64.4 321.2 64.4z" style="fill:#8342ea"/><path d="M321.2 64.4S244 34.9 169.6 78c-74.4 43.1-110.7 130.7-142 200.9-31.3 70.2-11.1 142.6 47 176.6s96.2-13.7 176.8-14.5c80.5-.8 102.4 11.5 168.4-33.9s76-155.5 21.7-238.2C387.1 86.2 321.2 64.4 321.2 64.4z" style="opacity:.7;fill:#fff"/><g class="st2"><path class="st3" d="M45.3 48.3h171.9v216.8H45.3z"/><path class="st3" d="M45.3 219.3c12.5-15 29.2-31.4 51.2-46.9 41-28.8 87.7-42.9 120.7-64.3M45.3 164.9c25.5-14.4 56.3-34.3 80.7-57.7 27.1-26 34.4-46 35.2-58.9M90.3 265.1c17-37.9 49.3-103.4 57.5-74.4 6.3 22.3-3 52.2-12.4 74.4M88.6 48.3C74.9 63.1 61.1 83 74.7 92.5 93 105.3 117 76.7 129.4 48.3"/><circle class="st3" cx="180.3" cy="85.1" r="22.1"/><circle class="st3" cx="69.5" cy="121.6" r="11.6"/><circle transform="rotate(-13.286 81.366 222.359)" class="st3" cx="81.4" cy="222.4" r="18"/></g><g class="st2"><path class="st3" d="M346.6 194.3h3.6M445.6 194.3h-95.4M449.2 194.3h-3.6M346.6 194.3h-95.4M449.2 194.3h24.1v-9.2H225.4v9.2h22.2M247.6 194.3h3.6M445.6 260.6h-95.4M445.6 269.8h-95.4M346.6 260.6h-95.4M346.6 269.8h-95.4M247.6 260.6h-22.2v9.2h22.2M449.2 269.8h24.1v-9.2h-24.1M251.2 336.1h95.4M251.2 345.3h95.4M445.6 336.1h-95.4M445.6 345.3h-95.4M449.2 345.3h24.1v-9.2h-24.1M247.6 336.1h-22.2v9.2h22.2M449.2 420.8h24.1v-9.2h-24.1M350.2 411.6h95.4M251.2 411.6h95.4M251.2 420.8h95.4M247.6 411.6h-22.2v9.2h22.2M350.2 420.8h95.4M445.6 420.8v-9.2M449.2 411.6v9.2M449.2 336.1v9.2M449.2 411.6v-66.3M445.6 420.8v26.4h3.6v-26.4M449.2 260.6v9.2M449.2 336.1v-66.3M449.2 194.3v66.3"/><path class="st3" d="M449.2 194.3v-.1h-3.6v.1M445.6 260.6v-66.3M445.6 411.6v-66.3M445.6 345.3v-9.2M445.6 260.6v9.2M445.6 336.1v-66.3M346.6 336.1v-66.3M346.6 411.6v-66.3M350.2 345.3v-9.2M350.2 411.6v-66.3M346.6 336.1v9.2M350.2 269.8v66.3M350.2 194.3v66.3M346.6 194.3v66.3M350.2 420.8v-9.2M350.2 269.8v-9.2M346.6 260.6v9.2M350.2 194.3v-.1h-3.6v.1M346.6 420.8v26.4h3.6v-26.4M346.6 420.8v-9.2M247.6 269.8v66.3M247.6 194.3v66.3M247.6 345.3v66.3M251.2 260.6v9.2M247.6 420.8v26.4h3.6v-26.4M251.2 194.3v-.1h-3.6v.1M251.2 269.8v66.3M251.2 194.3v66.3M251.2 336.1v9.2M251.2 345.3v66.3M251.2 420.8v-9.2M247.6 420.8v-9.2M247.6 269.8v-9.2M247.6 345.3v-9.2"/><circle class="st3" cx="404.9" cy="230" r="30"/><circle transform="rotate(-79.805 404.906 230.006)" class="st3" cx="404.9" cy="230" r="13.9"/><circle class="st3" cx="283.7" cy="381.3" r="30"/><circle class="st3" cx="283.7" cy="381.3" r="13.9"/><circle class="st3" cx="395.2" cy="389.4" r="22.5"/><circle transform="rotate(-76.656 395.193 389.384)" class="st3" cx="395.2" cy="389.4" r="10.4"/><path class="st3" d="M369.4 336.3H387c8.2-4.4 14-14.7 14-26.7 0-8.9-3.2-16.9-8.2-22.3h-29.1c-5 5.3-8.2 13.3-8.2 22.3-.1 12 5.7 22.3 13.9 26.7zM356.5 302.9h10M370.4 302.9h5.6M369.9 316.8h30M380.4 321.2h-7.7M392.7 294h-10.6M416.5 336.3h12.6c5.9-3.1 10.1-10.6 10.1-19.2 0-6.4-2.3-12.2-5.9-16h-21c-3.6 3.8-5.9 9.6-5.9 16 0 8.6 4.1 16 10.1 19.2zM407.2 312.2h7.2M417.2 312.2h4M416.8 322.2h21.6M424.4 325.4h-5.6M433.2 305.8h-7.6"/><path class="st3" d="m417.2 301.2-6.2-10 6.2 3.9-1.2-13.9 5.1 9.4 1.1-17.8 3.9 20.1 5-11.2-1.7 12.3 3.9-6.7-2.8 13.4M302.6 215.5h12.2v45.1h-12.2z"/><path class="st3" d="M302.6 215.5h12.2v45.1h-12.2z"/><path class="st3" d="M302.6 215.5h12.2V227h-12.2zM434.8 140.1H447v45.1h-12.2z"/><path class="st3" d="M434.8 140.1H447v45.1h-12.2z"/><path class="st3" d="M434.8 140.1H447v11.5h-12.2zM418.2 148.4h10v36.8h-10z"/><path class="st3" d="M418.2 148.4h10v36.8h-10z"/><path class="st3" d="M418.2 148.4h10v9.4h-10zM285.4 215.5h12.2v45.1h-12.2z"/><path class="st3" d="M285.4 215.5h12.2v45.1h-12.2z"/><path class="st3" d="M285.4 215.5h12.2V227h-12.2zM268.2 215.5h12.2v45.1h-12.2z"/><path class="st3" d="M268.2 215.5h12.2v45.1h-12.2z"/><path class="st3" d="M268.2 215.5h12.2V227h-12.2zM271.2 125.8s-5 2.7-6.6 5.8c-1.5 3.1 1.9 20.1 2.3 21.3.4 1.2 8.5-.4 8.5-.4s.8 2.7-.8 4.6c-1.5 1.9-5.4 4.6-8.1 7.7-2.7 3.1-3.5 11.2-3.5 11.2h9.7v4.6H261v3.9h32.4v-4.3h-12.1v-4.3h10.1s.8-11.2-1.2-14.3c-1.9-3.1-4.3-3.9-4.3-3.9v-10s3.1-9.3 3.5-12.8c.4-3.5-3.5-8.1-7-9.7-3.4-1.3-11.2.6-11.2.6z"/><path class="st3" d="M284.8 128.3s-10.3 1.1-11.5 4c-1.1 2.9 2.9 12.6 2 14.9-.9 2.3-6.6 5.2-7.5 5.5M275.5 152.5l7.6-1.9-.6 8.3s-3.4 3.7-4.6 7.7c-1.1 4-1.7 8.6-1.7 8.6h3.2"/></g><path class="st4" d="m172.4 248.6 2.2 17.9s-52.4 26.1-53.2 28.5c-.8 2.4-13 101.3-13 105.7 0 4.3 4.9 14.1 10.6 17.4 5.7 3.3 18.7 6.2 18.7 6.2l3.8-.8v23.6h135l-6.2-75 4.3-50.5s45.1 20.1 48.9 20.6c3.8.5 12.8-3.8 15.2-6.5 2.4-2.7 6-19.6 6.5-23.4.5-3.8-4.9-10.3-4.9-10.3s-54.6-32.9-56-34.2c-1.4-1.4-11.4-6.2-14.1-6.5-2.7-.3-51.3-6-51.3-6s0-9.5-.3-10.3c-.3-.7-46.2 3.6-46.2 3.6z"/><path class="st5" d="M315.5 307.9c1.5-1.2 3.2-2.5 5.2-3.7M305.2 325.9s-.2-7.1 6.8-14.8M313.3 333.3s-5.2-4.1-3.7-14"/><path class="st6" d="M194.4 309.5c14.7 5.7 26.6-9.2 29.3-23.1 1.8-9.2 1.7-22.4 1.4-30.2-3.8-.4-6.3-.7-6.3-.7s0-9.5-.3-10.3c-.3-.8-46.2 3.5-46.2 3.5l2.2 17.9-6.2 3.1c3.2 8.3 13.8 35 26.1 39.8z"/><path class="st5" d="m174.6 266.6 1.3 11.8M218.8 255.4l1.7 14.1"/><path class="st6" d="M165.4 153.4s-19.2 13.7-20.7 21.4c-1.5 7.7 11.2 52.7 13.9 57.6 2.6 4.8 18.8 27.5 21.5 30.3 2.7 2.7 14.2 6.5 21.5 4.6 7.3-1.9 14.1-8.2 15.6-12.9 1.5-4.6 4.5-30.4 4.1-36.1-.4-5.8-1.1-17-1.2-18-.1-1-6.1-32.8-12-41.7-5.9-9-31-10.4-42.7-5.2z"/><path class="st6" d="M151.4 210.3s-7.1-5-6.7 4.2c.4 9.2 12.4 14.2 12.4 14.2l-5.7-18.4zM219.1 196s4-4.7 5.7-.7c1.7 4-.4 12.8-1.3 15.7s-2.5 5.7-2.5 5.7l-1.9-20.7z"/><path class="st5" d="m193.3 214.3-1.3-7s6.9-7.4 15.2-5.6M174.2 209.7s-4.7-2.6-12.4 2.3M184.1 233.7s-.8 4.5.9 5.5 4.2.1 5.3.7c1.1.7 3.2 1.8 4.7.6 1.4-1.2 3-3.2 3-3.2s3.1-1 2.7-3.7c-.3-2.7-1.2-3.6-1.2-3.6M184.8 247.2s9.6 2.4 17.9-3.2"/><path d="m220.7 208.7-1-3.2-1.1 17.2-8 16.3s-5.2 0-7.3.3c-2.2.3-6.6 1.4-6.6 1.4s8 .2 9.5 1.4 2.2 3.7 2.6 6.6c.4 2.9-.2 8.2-1.2 9.9-1 1.7-5 5-7.5 5.7-2.5.7-5.7.3-7.5.3-1.8 0-5.9-.9-7.4-2.1-1.5-1.2-5.6-9.9-5.7-12.4-.1-2.6 1.7-4.4 1.7-4.4l8.7-3.8s-8.9.7-11.1 1.8c-2.3 1.1-3.8 1.7-3.8 1.7s-13.5-14.1-14.1-14.8c-.6-.6-6.9-14-8.4-17.3 2.6 9.4 5.1 17.2 6.1 19 2.6 4.8 18.8 27.5 21.5 30.3 2.7 2.7 14.2 6.5 21.5 4.6 7.3-1.9 14.1-8.2 15.6-12.9 1.5-4.6 4.5-30.4 4.1-36.1-.2-2.6-.4-6.2-.6-9.5z" style="fill:#1a2e35;stroke:#1a2e35;stroke-miterlimit:10"/><path class="st8" d="M204.2 215.4c.2 1.7-.4 3.2-1.4 3.4-1 .1-1.9-1.2-2.1-2.9-.2-1.7.4-3.2 1.4-3.4.9-.2 1.9 1.1 2.1 2.9zM174.9 219.7c.2 1.7-.4 3.2-1.4 3.4-1 .1-1.9-1.2-2.1-2.9-.2-1.7.4-3.2 1.4-3.4.9-.1 1.8 1.2 2.1 2.9z"/><path class="st9" d="m228.2 256.5-3.6-.3 16.3 73.1-68.7 8.1-2.3-68.6-8.1 3.8-1.5 118.9-8-5.8 3.6 14.8s-.8 14.8-5.4 18.1c-4.6 3.3-9 5-9 5v23.6h135l-6.2-75-38.5-115.3c-1.4-.1-2.5-.3-3.6-.4z"/><path class="st5" d="m274.5 321.7 4.6-33.7M283.1 295.6l1.8-4.1M276.2 311.9l5.1-12M144.6 306.7l16.4 24.2M139.3 298.9l2.1 3.1M132.2 321.4l19.6 8.4"/><path class="st6" d="M176.9 336.9s2.8-5.4 3.9-7.7c1.1-2.4 6.2-4.9 6.2-8.4 0-3.4-8.1-3-13.2 4s-1.4 11.1-1.4 11.1l4.5 1zM146.1 331.6l-6.4 24.5s-25.2 29.6-25.6 31.1-2.4 14.6 9.5 21.5c11.8 6.9 17.7 2.8 20.5 1.6 2.8-1.2 9.7-27.8 10.1-28.6s7.1-25 7.1-25l9.9-13.4-25.1-11.7z"/><path class="st10" d="m177.4 321.3 7-10 6 1.3M133.9 383.5l12-17.1"/><path class="st9" d="M145.9 369.2c-.6 0-1.1-.2-1.6-.5-1.3-.9-1.6-2.6-.7-3.9l31.5-45c.9-1.3 2.6-1.6 3.9-.7 1.3.9 1.6 2.6.7 3.9l-31.5 45c-.5.7-1.4 1.2-2.3 1.2z"/><path class="st6" d="M160.7 311.1s-5.9 3.5-6.2 5.4 8.2 14.1 8.9 15.3c.7 1.2 6.4 12.6 9.2 12.4 2.7-.2 5.7-3 5.9-4.5.2-1.5-3-13.4-3.5-15.1-.4-1.3-6.8-9-10-12.9-1-1.1-2.8-1.4-4.3-.6z"/><path class="st6" d="M154.6 319.3s-7.2 4.2-7.4 7.7c-.2 3.5 5.2 10.1 8.4 13.4 3.2 3.2 8.9 6.2 10.6 6.4 1.7.2 4.5-1.2 4.5-2.5s-11.1-18.6-11.1-18.6l-5-6.4z"/><path class="st6" d="M147.1 327s-5.2 5.9-4.2 11.1c1 5.2 5.9 8.9 9.2 10.1 3.2 1.2 7.4 3.5 9.4 2.2 2-1.2 4.7-3.7 4.7-3.7s-8.9-4.5-10.6-6.4c-1.8-1.9-8.5-13.3-8.5-13.3z"/><path class="st6" d="M144.1 341.8s-.6 8 .1 9 7.7 4.5 9.9 4.4c2.2-.1 3.2-1 4.2-1.3 1-.3 3.2-3.4 3.2-3.4s-8.5-1.5-9.4-2.2c-.9-.7-3.7-2.5-4.1-2.9-.4-.5-3.9-3.6-3.9-3.6zM377.1 279.2l-9.7 10.1s-20.6 44.8-21.8 45.9c-1.2 1.1-10.3 13.8-22.3 7.2-12-6.6-9.7-22.3-10.1-25.3-.4-3 16.2-18.4 16.7-19.1.5-.7 23.5-22.5 23.5-22.5l5.5-19.9 18.2 23.6z"/><path class="st6" d="M371.6 251.6s-6.9-2.5-10.8-4.5c-4-2-9.9 0-11.9.4s-10.1-4.1-10.4.2c-.3 4.3 4 6.5 6.1 6.6 2.2.2 9.4 1.1 9.4 1.1l6.5 6.8 11.1-10.6z"/><path class="st6" d="M383.7 246.8s3.8 5.7 3.1 7.6c-.7 1.9-13.6 9-14.8 9.8-1.2.8-11.4 8.4-13.7 7-2.3-1.4-3.8-5.2-3.3-6.6.4-1.4 8.6-10.6 9.8-12 .9-1 10.1-5.1 14.7-7.1 1.5-.7 3.3-.1 4.2 1.3z"/><path class="st6" d="M383.1 256.9s4.6 7 3.2 10.2c-1.3 3.2-9.2 6.8-13.5 8.2-4.3 1.4-10.7 1.6-12.4 1-1.7-.5-3.4-3.1-2.9-4.2.6-1.1 18.2-11.7 18.2-11.7l7.4-3.5z"/><path class="st6" d="M386.3 267s2 7.6-1.2 11.8c-3.2 4.2-9.3 5.3-12.7 5-3.4-.3-8.2-.2-9.4-2.2-1.2-2-2.6-5.4-2.6-5.4s10 0 12.4-1c2.4-.9 13.5-8.2 13.5-8.2z"/><path class="st6" d="M382.4 281.7s-3 7.4-4.1 8c-1.1.6-8.9.6-10.8-.5-1.9-1.1-2.4-2.3-3.2-3.1-.8-.7-1.3-4.5-1.3-4.5s8.3 2.5 9.4 2.2c1.1-.3 4.4-.6 5-.8.5-.1 5-1.3 5-1.3z"/><path class="st4" d="M368.8 264.1c-.2-1.5-7-16.2-8-18.2s-4.2-7.7-5.2-9c-1-1.2-5.2-13.4-7-16.9-1.7-3.5-3.5-6.2-4.5-7.2s-16.9-23.7-17.7-25.2c-.7-1.5-3-11.7-3-11.7l11-12.7c1.2-1.5 3.2-7.5 3-11-.2-3.5-6.2-13.9-8-15.4-1.7-1.5-13.9-5.2-17.7-5-3.7.2-12 5-12 5s-8 10.2-7.7 11.8c.3 1.6.2 3.1.2 3.1s-8 5.8-7.7 6.3c.3.5 3.9 5 3.9 5s-2.2 2-2 3c.2.9.6 2.2.6 2.2s-.2.8-.2 1.4c0 .6.2 2.7.2 2.7s-3.6 2.5-3.3 4.1c.3 1.6 1.4 3.9 1.4 3.9l11.6.9 4.5 11.4s-18.6 4.5-20.7 9.2c-2 4.7-7.8 17.2-7.8 18.6v1.4s-12.1 14.9-12.7 16.9c-.6 2-1.6 3.8-1.6 3.8s-8.3 10.5-8.9 11.3c-.6.8-4.2 5-4.4 5.5-.2.5-14.9 28.7-14.9 29.3 0 .6-3.3 6.7-3.9 7.5-.6.8-13.9 8.5-13.9 8.5l-3.1 6.4-3.1 4.1-6 4.7-1.4 1.3-.6 3.1-.9 3.4-4.1 9.2V447h153.4V317.9l-5.2-4.2-6.2-2.2-2.2-2s22.4-19.9 25.4-23.4 8-14.9 9.7-17.2c1.7-2.3.9-3.3.7-4.8zm-96.9 21.7-16.2-1.2-2 2.5-4.5 7.2-4.5 2-6.5-2s9-11.5 9.7-12c.7-.5 15.9-11 16.7-12 .7-1 6-17.4 6-17.4l3.5-3.5c1-1 9-6.7 9-6.7l.7 23.9-11.9 19.2zm66.3.8c-3 7.2-10.5 19.7-10.5 19.7s-4.5-.7-5.2-.7c-.7 0-4.5-.7-4.5-.7l7.5-31.1 15.4-19.9 10.7 11.5c0-.3-10.5 13.9-13.4 21.2z"/><path class="st5" d="m283.1 242.7 16.2-11.7M291.6 239.7s3 17.9 7.5 23.2M317.7 265.4s7.5-10.5 9.5-16.9M324.5 196.9s2.5 5.2 2.5 14.7M340.9 253.7l6-12.5M296.8 181.3l10.7-2.6-7.2 12.5zM302 153.3l-4.7-.2v2.5s2.5.2 3.2 0c.7-.2 5.2-2 5.2-2l-3.7-4.5-6.7-.2M313.5 160.8s-8.2 2.7-9 3.5c-.7.7-2.7 5.2-4 6.5-1.2 1.2-2.7 2-2.7 2M308.5 136.6s4 1 6.2 1.2c2.2.2 5.2.5 5.2.5M315.7 141.9s1.7 1 3.2 1.2M320 145.3s2.5 2.2 5 2M317 148.3s.7 1.7 3.5 1.7M323.5 151.1s2.5 1.5 4.7 1.2M315.5 154.8s2.7 2.7 5.2 2.5M321.2 161.3s4.7-4 6-1c1.2 3 0 9.2-2.7 10.5-2.7 1.2-6.5.2-6.5.2M286.1 205.6s3.7 2.7 5.2 2.5c1.5-.2 3.2-1.7 3.2-1.7M296.6 208.8s1 1.7 2.7 1.5c1.7-.2 3.5-2 3.5-2M310 220.3c2.7 1.7 5.2 0 5.2 0M256.7 256.7s2 5.2 5.2 3.5c3.2-1.7 8.7-7.2 8.7-7.2M302.5 246.7s1.7 2.7 4 2.7c2.2 0 3.7-1 3.7-1M309.3 256.4s1.7 2 3.2.7M293.3 268.1s.2 3 2.7 1.5M299.6 279.3s-7.5-4.7-9.7-4c-2.2.7-20.4 16.2-20.4 16.2M265.4 290.3l-3.7 1.5 29.4 29.9 13.4-3L310 308l4.7-1.8M256.7 287l-3.7 15.2 6.5 12.7 13.7 11.5"/><path class="st5" d="m244.8 296.3.7 17.6 4.5 10.3 31.4 2.7"/><path class="st5" d="M223.1 298.8s-1.2 2.2-1.7 3c-.5.7-4.7 10-5.2 11.5s4 9 4.2 11c.2 2 7 7.7 7 7.7l8.5-1 16.9-2.7 22.7 7 14.9 4.7 22.4-4.5 21.7 1.7s2.7-6.5 3.5-6.7c.7-.2 8.7-12.5 8.7-12.5"/><path class="st5" d="m332.9 309.5-8.4 10.7 6.7 6.9 6.2-2.9M348.4 251.4s2.5 2.5 4.7 0M356.1 255.7s2.5 1 4.5 0M279.4 223.3s.7 1.7 2.7.7 3.7-2 3.7-2M284.9 218.8s2.7 2.5 5.2.5M247.8 263.1s2 1.7 4.5.2M241 272.9l11.2-6.3 5-3.5M312.8 335.4v111.7M34.9 447.2h444.9"/></svg>