<svg version="1.1" id="Layer_1" xmlns="http://www.w3.org/2000/svg" x="0" y="0" viewBox="0 0 500 500" style="enable-background:new 0 0 500 500" xml:space="preserve"><style>.st2,.st3{fill:#cfcfcf;stroke:#1a2e35;stroke-linecap:round;stroke-linejoin:round;stroke-miterlimit:10}.st3{fill:#fff}.st4{fill:none}.st4,.st5{stroke:#1a2e35;stroke-linecap:round;stroke-linejoin:round;stroke-miterlimit:10}.st5,.st6{fill:#1a2e35}.st7,.st8{fill:#9c9c9c;stroke:#1a2e35;stroke-linecap:round;stroke-linejoin:round;stroke-miterlimit:10}.st8{fill:#8342ea}</style><path d="M376.7 90.2c-5.5-4-11.2-7.8-17-11.7-28-18.7-60.1-37.7-93.8-42.1-5.7-.7-11.4-1-17.1-.3-22.3 2.5-44.4 19-62.2 31.6-27.5 19.5-53.3 41.8-76.7 66.2-20.4 21.1-41.3 44.8-53.2 72.2-15.4 35.6 8.1 77.6 28.7 106.4 40.1 56 95.7 99.7 165.5 105.9 84.3 7.5 160.5-58.6 189.2-135.8 17-45.9 18.2-101.4-11.2-142.5-14.7-20.4-32.6-35.8-52.2-49.9z" style="fill:#8342ea"/><path d="M376.7 90.2c-5.5-4-11.2-7.8-17-11.7-28-18.7-60.1-37.7-93.8-42.1-5.7-.7-11.4-1-17.1-.3-22.3 2.5-44.4 19-62.2 31.6-27.5 19.5-53.3 41.8-76.7 66.2-20.4 21.1-41.3 44.8-53.2 72.2-15.4 35.6 8.1 77.6 28.7 106.4 40.1 56 95.7 99.7 165.5 105.9 84.3 7.5 160.5-58.6 189.2-135.8 17-45.9 18.2-101.4-11.2-142.5-14.7-20.4-32.6-35.8-52.2-49.9z" style="opacity:.7;fill:#fff"/><path class="st2" d="M107.4 342.9H65.7c-16 0-29 13-29 29v28.8h99.7V372c0-16.1-13-29.1-29-29.1zM215.4 342.9h-41.7c-16 0-29 13-29 29v28.8h99.7V372c0-16.1-13-29.1-29-29.1zM323.5 342.9h-41.7c-16 0-29 13-29 29v28.8h99.7V372c0-16.1-13-29.1-29-29.1zM431.5 342.9h-41.7c-16 0-29 13-29 29v28.8h99.7V372c0-16.1-12.9-29.1-29-29.1z"/><path class="st3" d="m242.4 234.3-1.4 16.4s8 7.1 11.8 7.1c3.8 0 11.8-6.9 12.4-7.4.6-.5-1.5-15.7-1.5-15.7s-11.8 4.6-21.3-.4z"/><path class="st4" d="M236.2 216.5s-2.5-3.4-4 .6 1.5 7.7 2.9 8.8c1.4 1.1 2.5 1.5 2.5 1.5l-1.4-10.9z"/><path class="st3" d="M270.2 216.5s2.5-3.4 4 .6-1.5 7.7-2.9 8.8c-1.4 1.1-2.5 1.5-2.5 1.5l1.4-10.9z"/><path class="st5" d="M261.6 190.5s-3.5-4.5-10-5.1c-6.4-.6-9.5 4.5-10 4.9-.5.5-8.3 6.3-8.9 11.4-.6 5.1 2.9 12.9 3.2 13.5.3.6 1.5 2.9 1.5 1.4s0-10.7.3-12.9 5.5-8.3 5.5-8.3 6 3.2 10 2.5c4-.8 5.5-1.7 6-1.8.5-.2 5.7 5.1 6.9 6 1.2.9 2.5 14.4 3.5 14.6 1.1.2 2-.3 2.1-2.9.2-2.6.3-9.4-.6-14.3-.8-5-3.7-9.6-9.5-9z"/><path class="st3" d="M242.5 193.1s-6 6.3-6.4 10.3c-.5 4-.2 18.6 1.7 25 1.8 6.4 9.2 15.5 14.6 16.1 5.4.6 10.6-5.5 14.7-11.1 4.1-5.5 3.2-22.3 2.6-27-.6-4.8-6.1-9.5-7.5-10.9-1.4-1.4-2.5-2.1-4.5-1.4-2 .8-4.8 2.6-7.5 1.8-2.8-.6-7.7-2.8-7.7-2.8z"/><path class="st4" d="m255.5 202.2 2.5 9.3-4.3 3.1"/><path class="st6" d="M247.8 207.1c0 1.1-.4 2-1 2s-1-.9-1-2 .4-2 1-2 1 .9 1 2zM261.3 207.1c0 1.1-.4 2-1 2s-1-.9-1-2 .4-2 1-2 1 .9 1 2z"/><path class="st4" d="M242.8 202.8s1.7-3.1 6.9-1.1M257.5 201.4s3.4-2.1 6.8.5M244.6 216.1s3.8 4.1 8.8 3.8c4.9-.3 10.3-3.2 10.3-3.2"/><path class="st5" d="M246.7 218.3s1.8 7.2 5.8 8.3c4 1.1 7.2-8.1 7.2-8.1s-3.5 1.7-6.4 1.5c-2.9-.2-6.6-1.7-6.6-1.7z"/><path class="st4" d="m245.7 215.1-2.6 2.4M262.7 215.1l1.9 3.2"/><path class="st3" d="M256.5 224.7c-3-1.2-5.3-.7-6.7 0 .8.9 1.7 1.7 2.8 2 1.4.3 2.8-.7 3.9-2z"/><path class="st3" d="M335.5 156.9s-16 25.1-20.2 31c-4.2 5.9-10.8 19.2-10.8 19.2l-12.3 20.7-27 22.7s-9.2 7.1-12.4 7.4c-3.3.3-11.8-7.1-11.8-7.1s-16.4-13.9-20.1-18.6c-3.7-4.7-13.5-18.9-17.2-25.8s-36.4-51.6-36.4-51.6l-3.4 11.3s11.3 33.4 18 43.3c6.6 9.8 13 16.5 13 16.5s11.8 26.3 15.2 31.7c3.4 5.4 4.7 9.6 4.7 9.6s6.1 46.2 6.4 48.7c.2 2.5-4.7 55.3-4.7 55.3l-6.9 69.5 35.1.1 5.3-41.2h6.6l5.4 40.6.1.7 33.6.1-7.3-72.5-4.7-49.9 6.4-50.9s13.5-24.6 14.3-25.8c.7-1.2 18.9-27.5 22.9-41.6 3.9-14 14.8-38.9 14.8-38.9l-6.6-4.5z"/><path class="st4" d="m222.6 370.2 14.9 12.3M224.9 375.9l13.5 10.2M280.8 372.3l-14.2 11.6M272.8 381.6l-11.9 8.5"/><path class="st6" d="m176 166.7-5.3 14.9 12.1-5.4c-2.4-3.4-4.7-6.6-6.8-9.5zM327.7 169l6 12.1c1.7-4.5 3.5-8.8 4.9-12.2l-7.1-5.9c-1 1.7-2.3 3.8-3.8 6z"/><path class="st5" d="M303 244c-4.3-2.9-9.5-7.4-13.7-13.8l-24 20.2s-9.2 7.1-12.4 7.4c-3.3.3-11.8-7.1-11.8-7.1s-16.4-13.9-20.1-18.6c-.6-.8-1.4-1.8-2.3-3.1L204 245.3c2.5 5.3 4.9 10.1 6.2 12.1 3.4 5.4 4.7 9.6 4.7 9.6s6.1 46.2 6.4 48.7c.2 2-2.9 35.7-4.1 49.5 9 1.5 37.1 5.4 71.1.8l-4.5-47.6 6.4-50.9c-.2 0 9.3-17.1 12.8-23.5z"/><path class="st7" d="M239.3 248.7s6.7 28.4 14.3 47c7.6 18.6 8.3 19.2 8.3 19.2l3.8-1s3.4-41.1 3.7-48.9c.3-7.9-.8-16.6-.8-16.6l-3.3 1.9s.7 39.4-2.6 54.9c0 0-2 1.7-8.4-16.6-6.5-18.3-11-35.7-11-35.7l-4-4.2z"/><path transform="rotate(-12.569 267.274 328.743)" class="st3" d="M258.7 314.2h17.2v29h-17.2z"/><path class="st8" d="M350.8 167.7c-1.3-9.2-.7-21.3-.7-21.3-.7-5.6-2.3-5.2-15.1-4.9-10.3.3-53.7 2.2-70.2 3-2.9.1-5.8.1-8.7 0-15.6-.6-68.2-2.7-79.1-3-12.8-.3-14.4-.7-15.1 4.9 0 0 .7 12.1-.7 21.3-1.3 9.2-16.4 47.2-16.4 47.2l19.3 13.8s7.5-8.9 9.8-26.9-.3-30.5 3.6-33.8c3.2-2.7 53.6-.3 71.9.6 4.3.2 8.7.2 13 0 18.2-.9 68.6-3.3 71.9-.6 3.9 3.3 1.3 15.7 3.6 33.8 2.3 18 9.8 26.9 9.8 26.9l19.3-13.8c.2 0-14.9-38-16.2-47.2z"/><path class="st3" d="m357.6 189.5-19.3 14.3c.3 1.9.6 3.7 1 5.4l20.1-14.5c-.5-1.7-1.2-3.5-1.8-5.2zM362.1 201.6l-20.9 14c.8 2.2 1.6 4.1 2.3 5.8l21.2-12.9c-.8-2-1.7-4.4-2.6-6.9zM171.8 212.8l-20.7-14c-1 2.6-1.9 5.1-2.8 7.3l21 13.7c.9-2 1.7-4.3 2.5-7zM174.5 197.8 157 182.5c-.5 1.6-1.1 3.3-1.7 4.9l18.7 15.2c0-.3.1-.5.1-.8.2-1.4.3-2.7.4-4zM162.5 143.8s-4.7-1.6-5.4.7c-.7 2.3 4.7 7.9 6.8 6.3 2-1.6-1.4-7-1.4-7z"/><path class="st3" d="M157.8 147.2s-2.1 1.6-1.5 3.2c.6 1.6 5 4.1 6.1 3.3 1.1-.9.1-2.6.1-2.6s-4.9-2.6-4.7-3.9z"/><path class="st3" d="M156.3 150.4s-.6 3.7.4 4.5c1 .9 5 2.6 6 1.8 1-.7-.2-3-.2-3s-4.7-1-6.2-3.3z"/><path class="st3" d="M156.7 154.9s.4 2.2 1.7 3.3c1.3 1.1 4 2.1 4.1 1 .1-1.1-1.2-2.2-1.2-2.2s-3.8-1.7-4.6-2.1zM348.8 143.8s4.7-1.6 5.4.7c.7 2.3-4.7 7.9-6.8 6.3-2-1.6 1.4-7 1.4-7z"/><path class="st3" d="M353.5 147.2s2.1 1.6 1.5 3.2c-.6 1.6-5 4.1-6.1 3.3s-.1-2.6-.1-2.6 4.8-2.6 4.7-3.9z"/><path class="st3" d="M355 150.4s.6 3.7-.4 4.5c-1 .9-5 2.6-6 1.8-1-.7.2-3 .2-3s4.7-1 6.2-3.3z"/><path class="st3" d="M354.6 154.9s-.4 2.2-1.7 3.3c-1.3 1.1-4 2.1-4.1 1-.1-1.1 1.2-2.2 1.2-2.2s3.8-1.7 4.6-2.1z"/><path class="st2" d="M103.1 380.9H57.7c-16 0-29 13-29 29v31h103.4v-31c.1-16-12.9-29-29-29zM215.3 380.9h-45.4c-16 0-29 13-29 29v31h103.4v-31c0-16-13-29-29-29zM327.4 380.9H282c-16 0-29 13-29 29v31h103.4v-31c0-16-13-29-29-29zM439.5 380.9h-45.4c-16 0-29 13-29 29v31h103.4v-31c0-16-13-29-29-29z"/><path class="st4" d="M289.2 321s-.5-7.2-.2-9.5 8.5.7 10.7 1.5c2.2.8-.3 4.5-2.7 6.2-2.3 1.6-6 2.5-7.8 1.8z"/><path class="st3" d="M304.1 291.6s.8-16.5 2.5-26.9c1.6-10.4 2.8-19.8 2.8-19.8s4.2-3.3 4.8-4.9c.6-1.6.9-4.3 1.2-4.9.3-.6 4.3-6 5.4-7.9 1-1.9 1.5-4.8-.4-3.9-1.9.9-4 3.6-5.7 5.8-1.6 2.2-1.8 1.2-2.8.9-1-.3-1.9-5.4-1.9-6.4s.9-9.5.7-11.3c-.1-1.8-2.7-1.5-3.3 1.2-.6 2.7-2.7 11.9-2.7 11.9s-1 2.5-1.6 3.3c-.6.7-7.9 5.1-8.6 7.7-.7 2.7 1.8 13.5 1.8 13.5s-9.7 24.9-13 31.9-2.7 23.2-.9 27.7c1.8 4.5 12.2 5.7 13.2 4.9 1-.7 6.4-11 7.3-14.6.8-3.5 1.2-8.2 1.2-8.2z"/><path class="st3" d="M294.3 238.6s-.4-3.6.6-6.3c1-2.7 4-1.9 5.1-.7 1 1.2 2.8 4.3 3.3 5.7.4 1.3 0 3.4-.7 4-.7.6-3 .6-4-.6l-1.3-2.7"/><path class="st3" d="M298.4 230.3s1.3-3.1 3.3-3c1.9.1 5.7 8 5.5 10.3-.1 2.2-3.1 2.7-3.1 2.7s.1-1-.7-3c-1-1.9-4.3-7.4-5-7z"/><path class="st3" d="M301.6 227.3s.7-3.7 3-1.9c2.2 1.8 5.2 7 5.2 9.4 0 2.4-2.7 2.8-2.7 2.8s-.3-2.8-1.5-5.2c-1.1-2.4-4-5.1-4-5.1z"/><path class="st4" d="M299.3 247.7s2.8 1.5 4.8.1c1.9-1.3 3.4-3.6 3.4-3.6"/><path class="st8" d="M298.2 268.4c-3.1-.2-5.9-2.2-7.8-3.9-2.7 6.8-5.7 14-7.2 17.3-3.3 7-2.7 23.2-.9 27.7 1.8 4.5 12.2 5.7 13.2 4.9 1-.7 6.4-11 7.3-14.6.9-3.6 1.3-8.3 1.3-8.3s.8-15.1 2.3-25.5c-2.1 1.3-5 2.7-8.2 2.4z"/><path class="st3" d="M420.8 291.6s-.8-16.5-2.5-26.9c-1.6-10.4-2.8-19.8-2.8-19.8s-4.2-3.3-4.8-4.9c-.6-1.6-.9-4.3-1.2-4.9-.3-.6-4.3-6-5.4-7.9-1-1.9-1.5-4.8.4-3.9 1.9.9 4 3.6 5.7 5.8 1.6 2.2 1.8 1.2 2.8.9 1-.3 1.9-5.4 1.9-6.4s-.9-9.5-.7-11.3c.1-1.8 2.7-1.5 3.3 1.2.6 2.7 2.7 11.9 2.7 11.9s1 2.5 1.6 3.3c.6.7 7.9 5.1 8.6 7.7s-1.8 13.5-1.8 13.5 9.7 24.9 13 31.9 2.7 23.2.9 27.7-12.2 5.7-13.2 4.9c-1-.7-6.4-11-7.3-14.6-.9-3.5-1.2-8.2-1.2-8.2z"/><path class="st3" d="M430.5 238.6s.4-3.6-.6-6.3c-1-2.7-4-1.9-5.1-.7-1 1.2-2.8 4.3-3.3 5.7-.4 1.3 0 3.4.7 4 .7.6 3 .6 4-.6l1.3-2.7"/><path class="st3" d="M426.5 230.3s-1.3-3.1-3.3-3c-1.9.1-5.7 8-5.5 10.3.1 2.2 3.1 2.7 3.1 2.7s-.1-1 .7-3c1-1.9 4.3-7.4 5-7z"/><path class="st3" d="M423.2 227.3s-.7-3.7-3-1.9-5.2 7-5.2 9.4c0 2.4 2.7 2.8 2.7 2.8s.3-2.8 1.5-5.2c1.2-2.4 4-5.1 4-5.1z"/><path class="st4" d="M425.6 247.7s-2.8 1.5-4.8.1c-1.9-1.3-3.4-3.6-3.4-3.6"/><path class="st3" d="M435.1 320.1s.5-7.9.2-10.9c-.4-2.9-6.7 2.7-7.4 4.3-.9 1.6 5.4 6.3 7.2 6.6z"/><path class="st8" d="M426.6 268.4c3.1-.2 5.9-2.2 7.8-3.9 2.7 6.8 5.7 14 7.2 17.3 3.3 7 2.7 23.2.9 27.7-1.8 4.5-12.2 5.7-13.2 4.9-1-.7-6.4-11-7.3-14.6-.9-3.6-1.3-8.3-1.3-8.3s-.8-15.1-2.3-25.5c2.1 1.3 5.1 2.7 8.2 2.4z"/><path class="st3" d="M314.2 441s-.2-3.7 3.3-25 12-43.2 12.3-45.6c.4-2.4-4.8-36.6-4.8-36.6s-2.9-1.8-12.3-5.2c-9.4-3.3-23.5-7.5-23.5-7.5s6.6-5.9 8.6-12.1c2-6.3 6.3-17.3 6.3-17.3l8.1 1.3s9.9-.2 15.8.6c5.9.7 16.7 4.6 16.7 4.6s9.9 3.7 20.6 5.3c10.7 1.7 12.3-.2 19.7-4 7.4-3.9 12.1-6.8 18.6-6.6 6.4.2 11-.4 11-.4l6.1-1.5s1.1 9 4.4 14.5c3.3 5.5 9.9 14.7 9.9 14.7s-26.7 8.6-28.7 10.1-2.8 2.4-2.8 2.4-4.2 32.7-4.2 36.1c0 3.3 9.2 32.2 11.8 40.8 2.6 8.6 5.9 24.5 6.6 31.1"/><path class="st4" d="m338.7 425.2 20.8 12.4M395.2 424.4l-22.5 12.2"/><path class="st5" d="M406.4 330.2c2-1.5 28.7-10.1 28.7-10.1s-6.6-9.2-9.9-14.7c-3.3-5.5-4.4-14.5-4.4-14.5l-6.1 1.5s-4.6.6-11 .4c-6.4-.2-11.2 2.8-18.6 6.6-7.4 3.9-9 5.7-19.7 4-10.7-1.7-20.6-5.3-20.6-5.3s-10.9-3.9-16.7-4.6c-5.9-.7-15.8-.6-15.8-.6l-8.1-1.3s-4.2 11-6.3 17.3c-2 6.3-8.6 12.1-8.6 12.1s14.2 4.2 23.5 7.5c9.4 3.3 12.3 5.2 12.3 5.2s5.2 34.2 4.8 36.6c-.4 2.3-8 22.2-11.8 42.6 7.7 3.7 25.2 10.1 51.7 9.9 21.4-.2 34.9-5 42.6-9.1-.4-1.5-.8-2.9-1.2-4.2-2.6-8.6-11.8-37.5-11.8-40.8 0-3.3 4.2-36.1 4.2-36.1s.8-.9 2.8-2.4z"/><path class="st8" d="M378.4 302.1s1.8 43.8 1.8 60.9 1.8 23.9 1.8 23.9 10.1.9 15.1-1.3 9.7-4.2 9.7-4.2-4.2-15.3-9.4-35.9c-5.2-20.6-9.4-32.9-11-38.1-1.7-5.2-2.9-7.7-2.9-7.7l-5.1 2.4z"/><path class="st3" d="m380.1 353.3 18.5-3.4c-.4-1.5-.7-2.9-1.1-4.4-.1-.6-.3-1.1-.4-1.7l-17.1 3.1c0 2.2.1 4.4.1 6.4zM401.4 360.5l-21.1 4.1c0 2.6.1 4.9.2 7l23.1-3c-.7-2.4-1.5-5.1-2.2-8.1z"/><path class="st8" d="M341.8 296s-3.1 26.3-6.1 43.4c-2.9 17.1-10.7 44.5-10.7 44.5s7.2 2 12 2.8c4.8.7 10.1 1.5 10.1 1.5s3.1-21.7 4.2-45.6c1.1-23.9-3.1-45.6-3.1-45.6l-6.4-1z"/><path class="st3" d="m333.1 352.2 17.5 2.7c.2-2.2.3-4.4.4-6.6l-16.6-2.4c-.3 2.1-.8 4.2-1.3 6.3zM350 363.1l-18.8-2.5c-.6 2.4-1.2 4.8-1.8 7.1l19.9 2.3c.2-2.2.4-4.5.7-6.9z"/><path class="st7" d="m347.5 303.5 14.4 76.2h3.3l-15.9-76zM365.2 379.7l13.2-77.6 3.3-1-13.6 79.1z"/><path class="st3" d="m347.1 284.4.4 19.1s-.4 4.2 8.5 8.3c8.8 4 14-.4 16.2-2.4 2.2-2 6.3-7.4 6.3-7.4l-2.8-14.3s-12.5 3.1-18.2 2.6c-5.8-.6-10.4-5.9-10.4-5.9z"/><path class="st8" d="M371.6 246.3s-5.7-8.1-12.9-8.6c-7.2-.6-24.3 18.2-25.8 26.9-1.5 8.6 2.9 14 4 16.4 1.1 2.4-2.2 9.4-3.9 17.1-1.7 7.7 2 11.6 5.5 16.2s3.1 9.9.4 8.5c-2.8-1.5-.9-5.3-2.9-3.7-2 1.7-6.8 7.7 3.7 12.5s13.8-8.5 14.7-12.5c.9-4 .6-10.3-2.9-15.6-3.5-5.3-4.8-13.4-4.8-16.4s3.9-23.4 11.8-27.8c7.9-4.4 13.8-1.5 16.4 3.1 2.6 4.6 5.2 11 6.6 10.9 1.5-.2 2.2 1.5 2.8.4.6-1.1 4-8.5 0-16.7-4-8.5-12.7-10.7-12.7-10.7z"/><path class="st3" d="M369.6 245.8s-13.2 4.2-16.7 8.5c-3.5 4.2-6.8 10.5-7.9 13.4-1.1 2.9-2.4 6.3-2.4 6.3s-3.7-3.5-5 1.8c-1.3 5.3 2.2 8.5 4.2 9.2l2 .7s2.2 3.5 4.4 5.3c2.2 1.8 7.9 7.9 16.4 7.5 8.5-.4 13.2-7.9 14.5-10.5l1.3-2.6s5.2-4.6 5.5-8.6c.4-4-2.6-5.9-3.7-6.1l-2.2-.4s-1.1-11-5.2-17.7c-3.9-6.5-5.2-6.8-5.2-6.8z"/><path class="st3" d="M359.3 270.1s2.4 1.7 4 1.5c1.7-.2 3.3-1.7 3.3-1.7"/><path class="st6" d="M357.6 275s5.7 1.8 11.2-.4c0 0-.9 7.4-4 8.8-3.1 1.6-5-1-7.2-8.4z"/><path class="st5" d="M360.4 261.2s-4.6-1.1-9.6-.9c-5 .2-9.9 1.5-9.9 2.6s1.3 2 1.7 3.9c.4 1.8-.2 5.3 6.4 5.9 6.6.6 10.3-2.4 11-6.1.8-3.7.4-5.4.4-5.4zM365 261.2s4.6-1.1 9.6-.9c5 .2 9.9 1.5 9.9 2.6s-1.3 2-1.7 3.9c-.4 1.8.2 5.3-6.4 5.9-6.6.6-10.3-2.4-11-6.1-.8-3.7-.4-5.4-.4-5.4z"/><path class="st5" d="M360.4 261.2s3.1-.9 4.6 0v2s-1.5-1.1-4.2 0l-.4-2z"/><path transform="rotate(1.307 364.721 393.739) scale(.99996)" class="st3" d="M355.6 378.3h18.3v30.9h-18.3z"/><path class="st4" d="M167.1 246.2s-.6 2.1.4 2.5c1 .4 2.9.8 3.9-.2s.4-2.3.4-2.3h-4.7z"/><path class="st4" d="M171.9 247.2s1.2 1.9 3.5 2.1c2.3.2 7.2-2.5 7.2-2.5s-8.1-3.9-8.7-3.9-1.6 2-2 4.3z"/><path class="st5" d="m107.6 441 2-37.3s14.2 9.8 37.5 6.3c23.3-3.5 32.2-9.4 32.2-9.4l6.8 39.7"/><path class="st3" d="M125.1 289S98 300.6 93.9 305.1c-4.1 4.6-11.4 36.8-11.4 36.8s-5.4 17.6-5 21.5c.4 3.9 9.5 6.2 17 3.7 7.4-2.5 11.6-6.2 11.6-6.2l3.1 20.5-.2 25.5s14.7 9.9 36 7.5c21.3-2.5 32.9-10.6 33.9-11.4l1-.8S176 366 176 363.5s6.4-48.4 6.8-49c.4-.6 17.4 2.3 27.7-.8 10.3-3.1 12.2-6.8 11.4-12.4-.8-5.6-12.4-28.8-18.4-36.8-6-8.1-15.3-23-17.6-25.2-2.3-2.3-15.3-4.8-17.4-5.6-2.1-.8-3.3 1.2-3.5 2.1-.2.8-.6 7.2-1.2 8.7-.6 1.4 3.7 2.5 5.8 2.9 2.1.4 3.3-1.9 3.3-1.9s3.1 1.4 5.2 1.4h4.6s7.7 17 8.9 23.2c1.2 6.2 3.5 20.5 3.5 20.5l-16.3-6.8s-4.3-3.9-10.8-3.3c-6.4.6-14.3 5-15.3 5h-7.4l-20.2 3.5z"/><path class="st8" d="m190.9 288.7-12.2-5.1s-4.3-3.9-10.8-3.3c-6.4.6-14.3 5-15.3 5h-7.4l-20.1 3.7S98 300.6 93.9 305.1c-4.1 4.6-11.4 36.8-11.4 36.8s-.2.6-.5 1.6l21 5.2 3.1 12.2 3.1 20.5-.2 25.5s14.7 9.9 36 7.5c21.3-2.5 32.9-10.6 33.9-11.4l1-.8S176 366 176 363.5s6.4-48.4 6.8-49c.1-.2 2.1 0 5.1.2-1.6-2.3-3-5.5-3-9.7 0-7.3 4-13.6 6-16.3z"/><path class="st7" d="m122.6 298.3.2-8.3c-1 .4-2.2 1-3.7 1.6.1 7.2.6 24.4 3.1 39.8 3.3 20.1 10.3 39.3 10.3 39.3l2.9-.4s-3.7-16.1-7.7-29.2c-3.8-13-5.1-42.8-5.1-42.8zM147.9 332.4c2.9-16.1 4.6-36 4.8-40.8.1-2.6.2-4.9.2-6.4H149.6c.3 2.8.2 9.2-1.8 24.2-3.7 27.1-12.2 60.8-12.2 60.8l3.5 1c-.1.1 5.9-22.6 8.8-38.8z"/><path class="st4" d="m172.9 245.3-2.9-3.1-1.4 2.1M195.1 290.4s.6 8.1 2.3 10.3M102.8 347.3l-3.7-19.9M182.9 314.4l-8.9-.4"/><path transform="rotate(6.615 135.226 383.283)" class="st3" d="M126.6 368.8h17.2v29h-17.2z"/><path class="st3" d="M106.1 353.3s-8.5.6-9.1.6c-.6 0-9.9-.6-16.6 1.2s-7.2 12-7.2 14.7c0 2.7 3.3 9.1 10.3 9.7 7 .6 19.7-13.7 20.1-14.3.4-.6 6.2-.4 7.9-1 1.7-.6 4.8-2.9 4.8-2.9s.8 1.9 2.3 1.7c1.4-.2 12.2-11.2 12.8-13.2.6-2.1 1.2-2.7-.4-3.7-1.7-1-7.5-6-9.7-5.4-2.4.6-15.2 12.6-15.2 12.6z"/><path class="st3" d="M131.3 349.8s3.1-.4 2.9 1c-.2 1.4-2.5 5.8-4.8 6.4-2.3.6-2.9-1.7-2.9-1.7l4.8-5.7z"/><path class="st4" d="M112.5 349.7s1-.3 1.6.9c.6 1.2 1.5 2.1 1.5 2.1l7 6.4M116.5 345.9s1 0 1.1.8c.1.8.2 1.3.2 1.3l8.8 7.6M120.1 342.6s1.4.6 1.6 1.4c.2.8.5 1.3.5 1.3s7.3 5.7 7.3 6M116.2 361.4s.7-2 1.1-2.1c.4-.1.8.8.8.8"/><path class="st3" d="M122.6 279.1s-1 12.7.4 22.8c.3 2.5 7.8 6.8 15.1 5.7 7.3-1.2 10.6-8.3 11.2-11.2.6-2.9-2.5-24.4-2.5-24.4s-1.2 7.3-11.2 9.3c-9.9 2-13-2.2-13-2.2zM116.3 258.2s-2.8-3.1-4.4-1.2c-1.6 1.9-1.1 7.3 2 9.6s4.1 1.2 4.1 1.2l-.4-8.8-1.3-.8z"/><path class="st5" d="M114.6 238.7s-4.5 6-3.2 9.6c1.3 3.6 4.5 8.4 4.6 8.9.1.5 1.3 3.2 1.3 3.2l-.5-19.8c0-.1-.2-3.5-2.2-1.9z"/><path class="st3" d="M149.6 258.2s2.8-3.1 4.4-1.2c1.6 1.9 1.1 7.3-2 9.6s-4.1 1.2-4.1 1.2l.4-8.8 1.3-.8z"/><path class="st5" d="M145 234.3s4.5.3 6.1 3.8c1.6 3.4-2 17.2-2.1 18.7-.1 1.5-6-22.2-6-22.2s1.2-.7 2-.3z"/><path class="st5" d="M145 234.3s-17 4.6-21.7 6.6c-4.6 1.9-12 1.2-13.2-5-1.2-6.2 14.7-15.1 24-14.7 9.3.3 14.2 8.8 10.9 13.1z"/><path class="st3" d="M145 234.3s2.9 6.8 3.5 11.8c.6 5 .2 18.8.2 23.6s-1 11-5.8 14.9c-4.8 3.9-10.8 3.9-15.5 1.5-4.6-2.3-8.7-11-9.2-15.3-.6-4.3-2.3-30.4-2.3-30.4s4.1-4.3 14.7-6.8c10.5-2.4 14.4.7 14.4.7z"/><path class="st5" d="M148.8 251.5h-.3l-2.1 14.1s-8.1-5.2-13.7-4.5c-5.6.8-11 7.4-12.4 7-1.4-.4-3.3-15.5-3.3-15.5l-.3.3c.5 7.4 1.2 15.6 1.5 17.9.6 4.3 4.6 13 9.2 15.3 4.6 2.3 10.6 2.3 15.5-1.5 4.8-3.9 5.8-10.1 5.8-14.9 0-3.6.2-12 .1-18.2z"/><path class="st3" d="M130.5 257.7s-1.7 1.9-.4 2.9c1.4 1 4.1 3.7 5.6 2.3 1.5-1.4 3.1-2.7 2.9-4.1l-.2-1.4M127.4 267.7s6.8 3.3 13.9-.4c0 0-1 8.7-6.8 9.7-4.4.8-7.1-9.3-7.1-9.3z"/><path class="st4" d="M137.5 250.1s4.1-3.1 8-2.1M129.6 250.5s-3.3-2.9-8.4-1.5"/><path class="st6" d="M128.1 252.9c0 1.1-.6 2.1-1.3 2.1-.7 0-1.3-.9-1.3-2.1 0-1.1.6-2.1 1.3-2.1.7.1 1.3 1 1.3 2.1zM141.8 252.5c0 1.1-.6 2.1-1.3 2.1-.7 0-1.3-.9-1.3-2.1 0-1.1.6-2.1 1.3-2.1.7 0 1.3.9 1.3 2.1z"/><path class="st4" d="M16.4 441h463.7"/><path class="st3" d="m251.2 99.8-4.8 4.8 4.8 3.4zM292.7 96.2l-4.8-4.8-3.4 4.8zM280.2 126.6l-4.8-4.8-3.4 4.8zM171.7 77.8l-4.8 4.8 4.8 3.4zM213.2 74.2l-4.8-4.8-3.4 4.8zM200.7 104.6l-4.8-4.8-3.4 4.8zM378.1 83.3l-4.8 4.8 4.8 3.4zM419.6 79.6l-4.8-4.7-3.4 4.8zM407 110.1l-4.7-4.8-3.4 4.8zM272.3 377.2l-4.8 4.8 4.8 3.4zM313.8 373.6l-4.8-4.8-3.4 4.8zM301.3 404l-4.8-4.8-3.4 4.8zM431.8 304.6l-4.7 4.8 4.7 3.4zM473.3 301l-4.8-4.8-3.4 4.8zM460.8 331.4l-4.8-4.8-3.4 4.8zM298.6 61.3l-4.8 4.7 4.8 3.4zM340.1 57.6l-4.8-4.7-3.4 4.7zM327.6 88l-4.8-4.7-3.4 4.7zM276.3 201.2l-4.8 4.7 4.8 3.4zM317.8 197.5l-4.8-4.7-3.4 4.7zM305.3 227.9l-4.8-4.7-3.4 4.8zM196.8 179.1l-4.8 4.8 4.8 3.4zM238.3 175.5l-4.8-4.8-3.4 4.8zM225.8 205.9l-4.8-4.8-3.4 4.8zM145.9 203.5l-4.8 4.8 4.8 3.4zM187.4 199.9l-4.8-4.8-3.4 4.8zM174.9 230.3l-4.8-4.7-3.4 4.7zM66.4 181.5l-4.8 4.8 4.8 3.4zM107.9 177.9l-4.8-4.8-3.4 4.8zM95.4 208.3l-4.8-4.8-3.4 4.8zM129.8 280.9l-4.8 4.8 4.8 3.4zM50.3 258.9l-4.7 4.8 4.7 3.4zM91.8 255.2l-4.8-4.7-3.4 4.8zM79.3 285.7l-4.8-4.8-3.4 4.8zM255.3 341l-4.7 4.8 4.7 3.4zM175.8 318.9l-4.7 4.8 4.7 3.4zM217.3 315.3l-4.8-4.8-3.4 4.8zM204.8 345.7 200 341l-3.4 4.7zM126.2 408.8l-4.8 4.8 4.8 3.4zM46.7 386.8l-4.8 4.7 4.8 3.4zM88.2 383.1l-4.8-4.7-3.4 4.7zM75.7 413.5l-4.8-4.7-3.4 4.7zM444.7 389.2l-4.8 4.7 4.8 3.4zM365.2 367.1l-4.8 4.8 4.8 3.4zM406.7 363.5l-4.8-4.8-3.4 4.8zM394.2 393.9l-4.8-4.8-3.4 4.8zM459.5 212.4l-4.8 4.7 4.8 3.4zM380 190.3l-4.7 4.8 4.7 3.4zM421.5 186.7l-4.8-4.8-3.4 4.8zM409 217.1l-4.8-4.8-3.4 4.8zM132.8 117.2 128 122l4.8 3.4zM174.3 113.6l-4.8-4.8-3.4 4.8zM161.8 144l-4.8-4.8-3.4 4.8zM53.3 95.2l-4.8 4.8 4.8 3.4zM94.8 91.5 90 86.8l-3.4 4.8zM82.3 122l-4.8-4.8-3.4 4.8zM422.2 130l-4.8 4.8 4.8 3.4zM463.7 126.4l-4.8-4.8-3.4 4.8zM451.2 156.8l-4.8-4.8-3.4 4.8zM138.9 46.8l-4.8-4.8-3.4 4.8zM126.4 77.2l-4.8-4.8-3.4 4.8z"/></svg>