<?xml version="1.0" encoding="utf-8"?>
<!-- Generator: Adobe Illustrator 25.2.0, SVG Export Plug-In . SVG Version: 6.00 Build 0)  -->
<svg version="1.1" xmlns="http://www.w3.org/2000/svg" xmlns:xlink="http://www.w3.org/1999/xlink" x="0px" y="0px"
	 viewBox="0 0 500 500" style="enable-background:new 0 0 500 500;" xml:space="preserve">
<style type="text/css">
	.st0{fill:#8342EA;}
	.st1{opacity:0.8;fill:#FFFFFF;}
	.st2{opacity:0.3;}
	.st3{fill:none;stroke:#000000;stroke-miterlimit:10;}
	.st4{fill:#2B0291;}
	.st5{opacity:0.5;fill:#FFFFFF;}
	.st6{fill:#BABABA;}
	.st7{fill:none;stroke:#263238;stroke-miterlimit:10;}
	.st8{fill:#263238;stroke:#263238;stroke-miterlimit:10;}
	.st9{fill:#FFFFFF;stroke:#263238;stroke-miterlimit:10;}
	.st10{fill:#A6A6A6;stroke:#263238;stroke-miterlimit:10;}
	.st11{fill:#696969;stroke:#263238;stroke-miterlimit:10;}
	.st12{fill:#8342EA;stroke:#263238;stroke-miterlimit:10;}
	.st13{fill:#263238;}
</style>
<g id="Background_Simple">
	<g>
		<path class="st0" d="M443.4,336.8c-21.7,34.4-58.5,68.9-101,72.5c-64.2,5.5-81.6,52.8-189,25.7c-16.7-4.2-31.9-9.8-45.4-16.6
			c-7.3-3.6-14.1-7.6-20.5-11.9c-58-38.8-79.3-102.1-69.7-161.7c12.5-78.4,74.4-104.2,114.1-118.5c39.7-14.4,99.6-89.5,205.4-63.8
			c16.1,3.9,31.9,9.5,46.7,17c33.8,17.1,65.8,46.2,80.5,81.9c1.1,2.7,2.1,5.4,3.1,8.2C485.7,223.7,472.9,289.9,443.4,336.8z"/>
		<path class="st1" d="M443.4,336.8c-21.7,34.4-58.5,68.9-101,72.5c-64.2,5.5-81.6,52.8-189,25.7c-16.7-4.2-31.9-9.8-45.4-16.6
			c-7.3-3.6-14.1-7.6-20.5-11.9c-58-38.8-79.3-102.1-69.7-161.7c12.5-78.4,74.4-104.2,114.1-118.5c39.7-14.4,99.6-89.5,205.4-63.8
			c16.1,3.9,31.9,9.5,46.7,17c33.8,17.1,65.8,46.2,80.5,81.9c1.1,2.7,2.1,5.4,3.1,8.2C485.7,223.7,472.9,289.9,443.4,336.8z"/>
	</g>
</g>
<g id="Building">
	<g class="st2">
		<g>
			<rect x="380.7" y="45.1" class="st3" width="36.5" height="56.3"/>
			<rect x="383.1" y="48.8" class="st3" width="31.8" height="49"/>
			<line class="st3" x1="398.6" y1="49.1" x2="398.6" y2="98"/>
			<line class="st3" x1="383.2" y1="86.8" x2="414.5" y2="86.8"/>
			<line class="st3" x1="383.2" y1="73.4" x2="414.5" y2="73.4"/>
			<line class="st3" x1="383.2" y1="60.1" x2="414.5" y2="60.1"/>
		</g>
		<g>
			<rect x="380.7" y="127.1" class="st3" width="36.5" height="56.3"/>
			<rect x="383.1" y="130.8" class="st3" width="31.8" height="49"/>
			<line class="st3" x1="398.6" y1="131.1" x2="398.6" y2="180"/>
			<line class="st3" x1="383.2" y1="168.8" x2="414.5" y2="168.8"/>
			<line class="st3" x1="383.2" y1="155.4" x2="414.5" y2="155.4"/>
			<line class="st3" x1="383.2" y1="142.1" x2="414.5" y2="142.1"/>
		</g>
		<g>
			<rect x="298.6" y="45.1" class="st3" width="36.5" height="56.3"/>
			<rect x="300.9" y="48.8" class="st3" width="31.8" height="49"/>
			<line class="st3" x1="316.5" y1="49.1" x2="316.5" y2="98"/>
			<line class="st3" x1="301" y1="86.8" x2="332.3" y2="86.8"/>
			<line class="st3" x1="301" y1="73.4" x2="332.3" y2="73.4"/>
			<line class="st3" x1="301" y1="60.1" x2="332.3" y2="60.1"/>
		</g>
		<g>
			<rect x="298.6" y="127.1" class="st3" width="36.5" height="56.3"/>
			<rect x="300.9" y="130.8" class="st3" width="31.8" height="49"/>
			<line class="st3" x1="316.5" y1="131.1" x2="316.5" y2="180"/>
			<line class="st3" x1="301" y1="168.8" x2="332.3" y2="168.8"/>
			<line class="st3" x1="301" y1="155.4" x2="332.3" y2="155.4"/>
			<line class="st3" x1="301" y1="142.1" x2="332.3" y2="142.1"/>
		</g>
		<g>
			<rect x="216.4" y="45.1" class="st3" width="36.5" height="56.3"/>
			<rect x="218.8" y="48.8" class="st3" width="31.8" height="49"/>
			<line class="st3" x1="234.3" y1="49.1" x2="234.3" y2="98"/>
			<line class="st3" x1="218.8" y1="86.8" x2="250.2" y2="86.8"/>
			<line class="st3" x1="218.8" y1="73.4" x2="250.2" y2="73.4"/>
			<line class="st3" x1="218.8" y1="60.1" x2="250.2" y2="60.1"/>
		</g>
		<g>
			<rect x="216.4" y="127.1" class="st3" width="36.5" height="56.3"/>
			<rect x="218.8" y="130.8" class="st3" width="31.8" height="49"/>
			<line class="st3" x1="234.3" y1="131.1" x2="234.3" y2="180"/>
			<line class="st3" x1="218.8" y1="168.8" x2="250.2" y2="168.8"/>
			<line class="st3" x1="218.8" y1="155.4" x2="250.2" y2="155.4"/>
			<line class="st3" x1="218.8" y1="142.1" x2="250.2" y2="142.1"/>
		</g>
		<g>
			<rect x="134.2" y="45.1" class="st3" width="36.5" height="56.3"/>
			<rect x="136.6" y="48.8" class="st3" width="31.8" height="49"/>
			<line class="st3" x1="152.1" y1="49.1" x2="152.1" y2="98"/>
			<line class="st3" x1="136.7" y1="86.8" x2="168" y2="86.8"/>
			<line class="st3" x1="136.7" y1="73.4" x2="168" y2="73.4"/>
			<line class="st3" x1="136.7" y1="60.1" x2="168" y2="60.1"/>
		</g>
		<g>
			<rect x="134.2" y="127.1" class="st3" width="36.5" height="56.3"/>
			<rect x="136.6" y="130.8" class="st3" width="31.8" height="49"/>
			<line class="st3" x1="152.1" y1="131.1" x2="152.1" y2="180"/>
			<line class="st3" x1="136.7" y1="168.8" x2="168" y2="168.8"/>
			<line class="st3" x1="136.7" y1="155.4" x2="168" y2="155.4"/>
			<line class="st3" x1="136.7" y1="142.1" x2="168" y2="142.1"/>
		</g>
		<g>
			<rect x="52.1" y="45.1" class="st3" width="36.5" height="56.3"/>
			<rect x="54.4" y="48.8" class="st3" width="31.8" height="49"/>
			<line class="st3" x1="70" y1="49.1" x2="70" y2="98"/>
			<line class="st3" x1="54.5" y1="86.8" x2="85.8" y2="86.8"/>
			<line class="st3" x1="54.5" y1="73.4" x2="85.8" y2="73.4"/>
			<line class="st3" x1="54.5" y1="60.1" x2="85.8" y2="60.1"/>
		</g>
		<g>
			<rect x="52.1" y="127.1" class="st3" width="36.5" height="56.3"/>
			<rect x="54.4" y="130.8" class="st3" width="31.8" height="49"/>
			<line class="st3" x1="70" y1="131.1" x2="70" y2="180"/>
			<line class="st3" x1="54.5" y1="168.8" x2="85.8" y2="168.8"/>
			<line class="st3" x1="54.5" y1="155.4" x2="85.8" y2="155.4"/>
			<line class="st3" x1="54.5" y1="142.1" x2="85.8" y2="142.1"/>
		</g>
		<g>
			<rect x="380.7" y="208.1" class="st3" width="36.5" height="56.3"/>
			<rect x="383.1" y="211.8" class="st3" width="31.8" height="49"/>
			<line class="st3" x1="398.6" y1="212.1" x2="398.6" y2="261"/>
			<line class="st3" x1="383.2" y1="249.8" x2="414.5" y2="249.8"/>
			<line class="st3" x1="383.2" y1="236.4" x2="414.5" y2="236.4"/>
			<line class="st3" x1="383.2" y1="223.1" x2="414.5" y2="223.1"/>
		</g>
		<g>
			<rect x="298.6" y="208.1" class="st3" width="36.5" height="56.3"/>
			<rect x="300.9" y="211.8" class="st3" width="31.8" height="49"/>
			<line class="st3" x1="316.5" y1="212.1" x2="316.5" y2="261"/>
			<line class="st3" x1="301" y1="249.8" x2="332.3" y2="249.8"/>
			<line class="st3" x1="301" y1="236.4" x2="332.3" y2="236.4"/>
			<line class="st3" x1="301" y1="223.1" x2="332.3" y2="223.1"/>
		</g>
		<g>
			<rect x="216.4" y="208.1" class="st3" width="36.5" height="56.3"/>
			<rect x="218.8" y="211.8" class="st3" width="31.8" height="49"/>
			<line class="st3" x1="234.3" y1="212.1" x2="234.3" y2="261"/>
			<line class="st3" x1="218.8" y1="249.8" x2="250.2" y2="249.8"/>
			<line class="st3" x1="218.8" y1="236.4" x2="250.2" y2="236.4"/>
			<line class="st3" x1="218.8" y1="223.1" x2="250.2" y2="223.1"/>
		</g>
		<g>
			<rect x="134.2" y="208.1" class="st3" width="36.5" height="56.3"/>
			<rect x="136.6" y="211.8" class="st3" width="31.8" height="49"/>
			<line class="st3" x1="152.1" y1="212.1" x2="152.1" y2="261"/>
			<line class="st3" x1="136.7" y1="249.8" x2="168" y2="249.8"/>
			<line class="st3" x1="136.7" y1="236.4" x2="168" y2="236.4"/>
			<line class="st3" x1="136.7" y1="223.1" x2="168" y2="223.1"/>
		</g>
		<g>
			<rect x="52.1" y="208.1" class="st3" width="36.5" height="56.3"/>
			<rect x="54.4" y="211.8" class="st3" width="31.8" height="49"/>
			<line class="st3" x1="70" y1="212.1" x2="70" y2="261"/>
			<line class="st3" x1="54.5" y1="249.8" x2="85.8" y2="249.8"/>
			<line class="st3" x1="54.5" y1="236.4" x2="85.8" y2="236.4"/>
			<line class="st3" x1="54.5" y1="223.1" x2="85.8" y2="223.1"/>
		</g>
		<path class="st3" d="M98.7,311.8L98.7,311.8c-31.8,0-57.5,25.7-57.5,57.5v83.5h115v-83.5C156.2,337.5,130.5,311.8,98.7,311.8z"/>
		<path class="st3" d="M229.7,311.8L229.7,311.8c-31.8,0-57.5,25.7-57.5,57.5v83.5h115v-83.5C287.2,337.5,261.5,311.8,229.7,311.8z"
			/>
		<path class="st3" d="M360.7,311.8L360.7,311.8c-31.8,0-57.5,25.7-57.5,57.5v83.5h115v-83.5C418.2,337.5,392.5,311.8,360.7,311.8z"
			/>
		<line class="st3" x1="42.2" y1="292.8" x2="422.2" y2="292.8"/>
		<line class="st3" x1="354.2" y1="35.8" x2="354.2" y2="291.8"/>
		<line class="st3" x1="364.2" y1="35.8" x2="364.2" y2="291.8"/>
		<line class="st3" x1="269.2" y1="35.8" x2="269.2" y2="291.8"/>
		<line class="st3" x1="279.2" y1="35.8" x2="279.2" y2="291.8"/>
		<line class="st3" x1="187.2" y1="35.8" x2="187.2" y2="291.8"/>
		<line class="st3" x1="197.2" y1="35.8" x2="197.2" y2="291.8"/>
		<line class="st3" x1="105.2" y1="35.8" x2="105.2" y2="291.8"/>
		<line class="st3" x1="115.2" y1="35.8" x2="115.2" y2="291.8"/>
	</g>
</g>
<g id="Tree">
	<g>
		<g>
			<path class="st4" d="M490.5,207.6c0,53.4-27,74.7-60.3,74.7S370,260.9,370,207.6s27-131.8,60.3-131.8S490.5,154.2,490.5,207.6z"
				/>
			<path class="st5" d="M490.5,207.6c0,53.4-27,74.7-60.3,74.7S370,260.9,370,207.6s27-131.8,60.3-131.8S490.5,154.2,490.5,207.6z"
				/>
		</g>
		<g>
			<polygon class="st6" points="421.2,452.8 438.1,452.8 431.5,218.3 432.1,225.3 464.3,186.3 431.5,217.3 430.3,175.8 444.2,159.5 
				430.2,170.1 429.6,150.4 428.6,188.1 412.6,177.8 428.5,192.5 			"/>
			<polygon class="st6" points="426.6,250.9 398.6,232 426.6,257.6 			"/>
		</g>
	</g>
</g>
<g id="Line">
	<line class="st7" x1="20.9" y1="452.8" x2="475.2" y2="452.8"/>
</g>
<g id="Character_2">
	<g>
		<polygon class="st8" points="297.4,452 298.1,386.7 347.9,387.5 407.2,390.5 411.3,452.8 		"/>
		<path class="st9" d="M322.2,389.4c0,0,11.3,5.3,27.5,5.3s32.5-4.5,32.5-4.5l-10.2-166l-10.6-4.5l-5.3-9.1l-37,15.5
			c0,0-5.7,3-5.3,24.5C314.3,272,322.2,389.4,322.2,389.4z"/>
		<g>
			<path class="st10" d="M303.8,145.8c0,0-8,20.3-7.7,22.9s2.6,10.3,2.6,11.5s-6,10.3-5.2,12.6s8,21.2,9.7,22.9
				c1.7,1.7,14.6,3.2,16.6,2.6c2-0.6,4,2.6,4,3.4c0,0.9,2.3,12.6,15.8,8.9c13.5-3.7,18.9-14.9,18.9-19.2c0-4.3-4-14.9-4-14.9
				s6.3-8.9,8.3-11.7c2-2.9,5.2-12.6,3.7-19.8c-1.4-7.2-7.2-18.3-12.9-23.2c-5.7-4.9-19.2-12-31.8-7.4
				C309.2,138.9,304.6,142.6,303.8,145.8z"/>
			<path class="st9" d="M345.6,215.1"/>
			<path class="st10" d="M329.8,183.3c0,0,0.9-10.6,9.2-10.6s6,17.5,3.7,20.9c-2.3,3.4-9.7,5.2-10.3,3.4"/>
			<path class="st7" d="M299.2,172.2c0,0,5.7-4.6,10-1.4"/>
			<path class="st7" d="M303.2,180.2c0,0,1.7-4,5.7-1.1"/>
			<g>
				<path class="st11" d="M353.6,141.8c-5.7-4.9-19.2-12-31.8-7.4c-12.6,4.6-17.2,8.3-18,11.5c0,0-0.3,0.7-0.7,1.8
					c1.7-1.3,4.6-3.5,6.7-4.1c3.2-0.9,17.2,2.6,15.8,4.3c-1.4,1.7-9.5,14.6-8,16.9c1.4,2.3,10.3,7.7,10,9.2
					c-0.3,1.4-2.6,5.7-1.4,6.3c1.1,0.6,3.2,0.6,4,0.3c0.9-0.3,4.9-9.7,11.7-6c6.9,3.7,5.2,13.5,4.3,15.5c-0.9,2-1.4,4.3,1.7,4.9
					c1.9,0.4,4.8,0.8,7.3,0.8c1.7-2.4,6-8.5,7.6-10.8c2-2.9,5.2-12.6,3.7-19.8C365.1,157.8,359.4,146.7,353.6,141.8z"/>
				<path class="st8" d="M353.6,141.8c-5.7-4.9-19.2-12-31.8-7.4c-12.6,4.6-17.2,8.3-18,11.5c0,0-0.3,0.7-0.7,1.8
					c1.7-1.3,4.6-3.5,6.7-4.1c3.2-0.9,17.2,2.6,15.8,4.3c-1.1,1.3-5.9,9-7.6,13.6c5.6-0.2,23.9,0.4,48.4,13.4
					c0.6-3.3,0.8-6.8,0.2-9.8C365.1,157.8,359.4,146.7,353.6,141.8z"/>
			</g>
			<polygon class="st8" points="334.5,199.4 324,219.7 319.8,218.3 			"/>
			<path class="st12" d="M294.9,188.2l35.2-7.7c0,0-7.2,2.9-8,4.3c-0.9,1.4-5.2,10-3.2,13.5c2,3.4,9.7,3.7,11.7,2.9
				c2-0.9,6-3.4,6-3.4s-14.6,18.9-16.9,20.6c-2.3,1.7-17.5,2-20.1-4C297.2,208.2,290.3,193.4,294.9,188.2z"/>
		</g>
		<path class="st12" d="M323.8,221.7l-11.7,2.9c0,0-31.8,6.3-35.5,11.5c-3.7,5.2-19.2,26.9-20.1,28.9c-0.9,2-29.8,21.2-30.4,25.8
			c-0.6,4.6,8,18.9,15.2,20.6c7.2,1.7,45.8-3.7,45.8-3.7l1.7,104.6c0,0,4.9,3.2,10.6,5.4c5.7,2.3,20.1,7.4,22.6,7.4
			c2.6,0,12.6,1.7,12.6,1.7l-7.2-88.2c0,0-6.3-83.1-5.4-84.2c0.9-1.1,6.3-9.7,6.6-15.5S323.8,221.7,323.8,221.7z"/>
		<path class="st8" d="M391.2,225.4c0,0,6.6-9.2,9.2-9.5c2.6-0.3,7.7,11.7,7.7,11.7s-5.7-8.9-7.4-8.6c-1.7,0.3-6.3,8.6-6.3,8.6
			L391.2,225.4z"/>
		<path class="st8" d="M410.9,386.4c0,0,17.5,1.4,19.8,0.6c2.3-0.9,20.6-11.7,22.1-22.9c1.4-11.2-0.6-21.2-2-25.8
			c-1.4-4.6-37.2-18-41.5-15.5C404.9,325.4,410.9,386.4,410.9,386.4z"/>
		<path class="st12" d="M358.5,211.4c0,0-4.9,14-5.7,18c-0.9,4-5.2,10.6-4.3,12.6s4,13.5,4,13.5s-0.6,41.8,1.1,67.3
			c1.7,25.5,8.6,99.4,8.6,99.4s11.7,3.7,16.9,0.6s11.7-12.9,13.2-13.5c1.4-0.6,13.8-3.2,16.9-5.2s4.6-4.9,4.6-4.9l-1.1-72.5
			l46.4-2.3c0,0-21.2-64.7-26.1-73.6c-4.9-8.9-20.1-23.5-29.5-24.6s-19.2-1.7-23.5-3.2c-4.3-1.4-9.2-2.6-9.2-2.6l-4.9-2
			C365.9,218.6,360.5,208.5,358.5,211.4z"/>
		<path class="st8" d="M384.9,318.5l32.7,42.7l2-8.3l-30.1-36.1C389.4,316.8,386,315.4,384.9,318.5z"/>
		<path class="st8" d="M383.7,224.3c0,0-15.2,41.8-17.2,53.3c-2,11.5,2,28.4,5.2,26.9c3.2-1.4,9.2-38.4,18.6-59.3s6.6-20.1,6.6-20.1
			S386.6,220.3,383.7,224.3z"/>
		<path class="st10" d="M363.7,279c0,0-6.9-2.9-8-0.9c-1.1,2-3.7,10.3-1.1,12.3s7.2,0.9,7.4-2C362.2,285.6,363.7,279,363.7,279z"/>
		<path class="st8" d="M372.2,308.2c0,0,0.9,0,0.9,23.2c0,23.2,2,38.7,2.6,39.5c0.6,0.9,9.2-2.3,9.2-2.3s-3.2-2.6-4.9-18.3
			c-1.7-15.8-2.9-24.9-3.2-28.6s-0.6-14.6-0.6-14.6S372.2,305.4,372.2,308.2z"/>
		<g>
			<path class="st10" d="M397.7,311.1l-5.4-8.9c0,0-3.2-18.6-5.2-19.5c-2-0.9-22.1-4.6-23.5-3.7c-1.4,0.9-1.4,6.6-1.4,6.6
				s-1.4,3.4-1.4,4.9c0,1.4,0,1.4,0,1.4s-0.9,2.6-0.6,4c0.3,1.4,0.6,3.4,0.6,3.4s-0.6,4.6,0.6,6.9c1.1,2.3,4.9,8.3,6.6,8
				c1.7-0.3,4.3-3.2,4.3-3.2s5.4,6.3,7.7,8c2.3,1.7,3.7,2.6,3.7,2.6l3.4,2.6c0,0,6.3,2,10-2.6C400.9,317.1,397.7,311.1,397.7,311.1z
				"/>
			<line class="st7" x1="360.8" y1="299.4" x2="371.7" y2="299.6"/>
			<line class="st7" x1="360.8" y1="291.9" x2="373.7" y2="293.6"/>
			<line class="st7" x1="362.2" y1="285.6" x2="376.5" y2="286.5"/>
			<path class="st7" d="M372.2,311.1c0,0-4,0.3-5.4-1.4"/>
		</g>
		<g>
			<polyline class="st7" points="408.6,246.6 398.9,276.7 416.7,319.1 			"/>
			<line class="st7" x1="415.3" y1="257" x2="418.9" y2="252.7"/>
			<line class="st7" x1="398.9" y1="276.7" x2="411.4" y2="261.7"/>
			<line class="st7" x1="415.2" y1="314.3" x2="432.7" y2="293.9"/>
		</g>
		<path class="st12" d="M452.2,315.7c0,0-39.5-1.7-40.7-1.7c-1.1,0-13.8-2.9-13.8-2.9s0,4.6-2.3,8.3c-2.3,3.7-8.3,4.9-8.3,4.9
			s10,8.6,13.8,11.2c3.7,2.6,6.6,5.7,24.4,11.2c17.8,5.4,36.4,4.6,39,0.9c2.6-3.7,3.7-19.8-0.6-25.5c-4.3-5.7-8.6-6.6-8.6-6.6"/>
		<g>
			<line class="st7" x1="288" y1="301.3" x2="288.3" y2="249.5"/>
			<path class="st7" d="M277,257.5c-1.4-2.9-2.7-5.6-3.8-7.6"/>
			<path class="st7" d="M288.7,284.3c0,0-4.9-12-9.7-22.5"/>
			<path class="st7" d="M282.9,250.7c2.3,8.6,5.1,19.8,5.4,24.2"/>
			<path class="st7" d="M279.9,239.8c0,0,0.5,1.7,1.2,4.3"/>
		</g>
		<path class="st12" d="M245.9,282.2c0,0,1.4,1.1,12.9,7.2s60.2,24.1,60.2,24.1s-4.3,6.3-5.7,11.5c-1.4,5.2-1.1,10.3-1.1,10.3
			s-37.2-6-56.4-8.6s-30.9-17.2-32.1-22.9c-1.1-5.7,2.3-14.3,6.9-17.8c4.6-3.4,7.7-3.7,7.7-3.7"/>
		<g>
			<path class="st10" d="M319,313.4c0,0,11.5,0,15.8,0c4.3,0,11.7-2.6,13.8-0.6c2,2,8.9,15.2,8.9,17.5s2.9,10,0.6,11.2
				c-2.3,1.1-3.3-5.1-4.3-4c-1.4,1.5-3.9,1.8-4.5,3.2c-0.6,1.4-3,2.3-5,4c-2,1.7-4.6,2-7.7,1.7s-6.9-0.3-6.9-2.3c0-2,0-3.4,0-3.4
				l-4.3,0.3c0,0-7.7-1.1-9.5-2.6c-1.7-1.4-3.7-3.2-3.7-3.2S310.4,320.8,319,313.4z"/>
			<path class="st7" d="M353.6,337.5c0,0,0.3-3.5-0.5-4.8c-0.8-1.3-7.9-12.5-7.9-12.5"/>
			<path class="st7" d="M349.6,339.7c0,0-5.5-9.1-6.8-11c-1.3-1.9-3.6-4.8-3.6-4.8"/>
			<path class="st7" d="M344.2,344.6c0,0,0.1-1.1-0.8-2.2c-0.8-1.1-9.1-12.6-9.1-12.6"/>
			<path class="st7" d="M329.6,340.6c0,0,2.7,2.7,4,3.2"/>
		</g>
	</g>
</g>
<g id="Character_1">
	<g>
		<g>
			<path class="st10" d="M47.9,366.9c0,0-0.3,17.2-0.6,32c-0.3,14.8,2.2,20.9,13.8,22.1c11.7,1.2,23.4-4,24.9-10.8
				c1.5-6.8-0.9-40.3-0.6-49.5c0.3-9.2-3.1-44.3-3.4-47c-0.3-2.8-2.8-0.9-9.2,3.1c-6.5,4-10.5,8.3-12.9,13.5
				c-2.5,5.2-2.8,9.8-3.1,14.1c-0.3,4.3,1.5,14.4-2.2,17.5C50.9,365.1,47.9,366.9,47.9,366.9z"/>
			<path class="st8" d="M78,309.4c0,0-13.8,8-16.6,11.7c-2.8,3.7-6.1,11.7-6.1,18.1c0,6.5-3.1,17.5-4.9,21.8
				c-1.8,4.3-9.8,8.6-7.4,9.5c2.5,0.9,8.3-3.4,11.7-8.6c3.4-5.2,3.7-20.6,6.1-28.6c2.5-8,14.8-13.2,16.3-16
				C78.6,314.7,79.5,310.7,78,309.4z"/>
			<path class="st8" d="M86,410.3c0.4-1.6,0.5-4.6,0.5-8.4c-18.8-3.5-30.8,5.4-37.2,12.5c2,4,5.6,6,11.8,6.7
				C72.8,422.3,84.4,417,86,410.3z"/>
		</g>
		<path class="st8" d="M173.5,184.6c0,0,1.6-1.9,1.7-3.7c0.2-1.7-3.7-9.1-14.9-13.6c-11.2-4.5-27.9,0.2-34.9,4.1
			c-7,3.9-20.6,26-20.6,33.6c0,7.6,2.5,14.2,2.5,14.2s-4.3,13.2-12.2,18.4s-15.3,11.8-14.5,15.9c0.8,4.1,3.5,9.3,2.1,11.4
			c-1.4,2.1-6.4,3.3-6,8.3c0.4,5,8.3,15.9,11.2,17.1c2.9,1.2,85-6.2,91.7-14.7c6.8-8.5,11.6-18.4,6.6-25.4c-5-7-12.2-11.1-11.8-13.8
			c0.4-2.7,2.1-11.6,2.1-13.2s-1.7-17.1-2.1-19.2c-0.4-2.1-3.3-19-3.3-19L173.5,184.6z"/>
		<polygon class="st8" points="205.4,449.5 196.3,407.3 94.5,412.7 94.2,452.2 206.4,452.2 		"/>
		<g>
			<path class="st9" d="M94.3,423.4c0,0,22.9,9.5,43.3,11.4c20.5,1.9,42.6-1.5,48.7-5.6c6.1-4.1,11.7-11.2,11.7-11.2l-2.2-6.3
				c0,0-26.5-4.1-43.6-3.4c-17,0.7-56.5,7.8-56.5,7.8L94.3,423.4z"/>
			<line class="st7" x1="153" y1="435.3" x2="153" y2="413.4"/>
			<line class="st7" x1="159.3" y1="431.2" x2="158.9" y2="416.1"/>
		</g>
		<path class="st12" d="M132.3,247.5c0,0-27.1,6.7-27.1,7.8s6.1,27.1,4.7,50.6c-1.4,23.5-14.8,57-14.8,57l4.2,58.7
			c0,0,17.9-6.1,40.8-7.3c22.9-1.1,60.6,4.2,60.6,4.2s-4.5-45.8-5.9-59.2c-1.4-13.4-1.7-19.6-1.7-20.9c0-1.4,5.9-29.3,5.9-29.3
			s34.1-12.3,34.9-19.6c0.8-7.3-24.3-28.5-28.8-36.6c-4.5-8.1-14.2-8.4-17-8.1c-2.8,0.3-6.4,0.6-12,1.7c-5.6,1.1-17,1.1-23.7,1.1
			C145.7,247.5,132.3,247.5,132.3,247.5z"/>
		<g>
			<path class="st9" d="M137.2,221.8l1.6,28.3c0,0,10.7,7.4,16.1,6.4c5.4-1,14.5-9.1,14.5-9.1l-2.1-19l-29.1-10.5L137.2,221.8z"/>
			<path class="st8" d="M137.2,221.8c0,0,17.3,15.5,21.8,16.1c4.5,0.6,8.2-2.5,8.2-2.5L137.2,221.8z"/>
			<g>
				<path class="st9" d="M132.3,206.9c0,0,14.9-4.3,18.2-14c3.3-9.7,4.3-14.5,8.1-16.5c3.9-1.9,13.4,2.3,14.5,5.8
					c1.2,3.5,2.1,6.4,2.3,10.5s3.9,9.7,3.1,16.1c-0.8,6.4-2.7,20-3.9,22.9c-1.2,2.9-3.1,3.9-13.4,2.3c-10.3-1.6-22.7-10.3-24.2-12.2
					c-1.6-1.9-3.7-12-3.7-12L132.3,206.9z"/>
				<path class="st12" d="M132.2,204.2c0,0,13.4,2.3,19,1.9c5.6-0.4,17.8-5.6,21.7-4.8c3.9,0.8,6.8,2.1,6.8,2.1s-1.2,21.7-3.1,26.6
					c-1.9,4.8-6.7,7.5-17.3,4.2c-10.7-3.3-18.5-8.8-18.5-8.8l-3.5-3.5l-2.1-4.5c0,0,2.3,1.9,6.6,4.7c4.3,2.7,6.4,1.2,6.8-5.4
					c0.4-6.6-2.3-6.8-8.5-9.7C133.7,204,132.2,204.2,132.2,204.2z"/>
				<path class="st9" d="M136,208c0,0-6.4-6.6-8.3-4.3c-1.9,2.3-1.7,9.5,1.6,12.4c3.3,2.9,7.8-0.4,7.8-0.4"/>
				<path class="st7" d="M163.6,191.9c0,0-7-1.2-9.3,3.9"/>
				<path class="st7" d="M174.6,190.8c-2.1-2.5-5.2,1.4-5.2,1.4s0.2,4.1,0.8,4.7c0.6,0.6,2.7,4.5,2.7,4.5"/>
				<path class="st13" d="M161.3,199c0.2,1.2-0.3,2.3-1.2,2.4c-0.8,0.1-1.6-0.8-1.8-2c-0.2-1.2,0.3-2.3,1.2-2.4
					C160.3,196.9,161.1,197.8,161.3,199z"/>
				<path class="st13" d="M175.3,196.4c0.2,1.2-0.3,2.3-1.2,2.4c-0.8,0.1-1.6-0.8-1.8-2c-0.2-1.2,0.3-2.3,1.2-2.4
					S175.2,195.2,175.3,196.4z"/>
			</g>
			<polygon class="st9" points="134.9,234.2 129.1,249.3 148.1,264.1 152.7,244.1 			"/>
			<polygon class="st9" points="155.2,244.1 160.9,263.5 172.5,248.2 168.6,238.9 			"/>
		</g>
		<path class="st8" d="M113.9,251.4c0,0-12.8,3.6-12.6,5.3c0.3,1.7,4.2,30.4,4.7,43.3c0.6,12.8-2.5,39.1-2.5,39.1
			s8.4-16.2,11.5-32.4c3.1-16.2,4.7-31.6,3.4-40.5C117,257.3,116.1,251.4,113.9,251.4z"/>
		<g>
			<path class="st9" d="M104.9,426.5c0,0,2.2,9.5,2.5,10.3c0.3,0.8-4.5,8.9-4.5,8.9s-0.3,5-1.7,6.4c-1.4,1.4-7.5,3.4-9.5,2
				c-2-1.4-5.6-3.6-5.6-3.6s-8.4,0.3-9.2-5.3c-0.8-5.6,1.7-19.3,1.7-19.3l22.9-1.7L104.9,426.5z"/>
			<g>
				<path class="st12" d="M101.3,256.7c0,0-9.5-0.6-13.7,8.7c-4.2,9.2-14.8,54.7-14.8,62c0,7.3-2.5,14.5-1.7,20.9
					c0.8,6.4,5.9,64,5.9,64s6.1,1.4,10.1,1.1c3.9-0.3,13.1-3.4,13.7-4.2c0.6-0.8-1.7-53.6-1.7-53.6l6.7-27.4c0,0,6.1-15.4,4.5-41.1
					C108.6,261.5,103.6,255.3,101.3,256.7z"/>
				<path class="st7" d="M81.5,341.1c0,0,12.8,11.7,14,19"/>
				<path class="st7" d="M94.3,342.6c0.5,2.7,0.9,5.1,0.9,7.1"/>
				<path class="st7" d="M80.6,302.2c0,0,8.9,20.9,12.7,36.4"/>
				<path class="st7" d="M101,306.7c0,0-0.3,14.8-3.4,27.1"/>
			</g>
			<path class="st9" d="M100.8,409.2l4.2,17.3c0,0,0.6,3.1-9.5,3.6c-10.1,0.6-18.7-2-18.7-2l0.3-15.9
				C77,412.3,94.1,412.8,100.8,409.2z"/>
		</g>
		<g>
			<path class="st7" d="M190.5,289.1c0,0,6.1-17.4,10.4-26.9"/>
			<path class="st7" d="M194.2,258.7c0.5-2.1,1.1-3.9,1.8-5.5"/>
			<path class="st7" d="M190.5,292.2c0,0,0.3-14.4,2.3-26.7"/>
			<path class="st12" d="M222.5,278.5c0,0-12.8,2.2-17.3,4.5c-4.5,2.2-13.7,4.2-15.6,4.5c-2,0.3-31,8.9-31,8.9s1.4,0.3,2,5.9
				c0.6,5.6,0.3,19,0.3,19l39.7-5c0,0,25.1-3.1,29.6-6.1c4.5-3.1,10.3-9.8,7.3-18.4c-3.1-8.7-9.2-12-9.2-12"/>
			<path class="st9" d="M143.2,328.5c0,0-4.2-2.8-3.1-4.7c1.1-2,7.8-5.9,8.4-5C149.1,319.6,143.2,328.5,143.2,328.5z"/>
			<g>
				<path class="st9" d="M142.9,298.9c0,0-8.1-2.5-10.3-2.2c-2.2,0.3-3.6,2.2-4.2,3.6c-0.6,1.4-3.6,24.3-3.6,24.3s-7.8,3.6-6.7,5.6
					c1.1,2,11.2,2,13.7,0.6c2.5-1.4,4.5-2.5,4.5-2.5s8.1-1.4,10.3-3.6S144.9,301.1,142.9,298.9z"/>
				<path class="st9" d="M132.6,296.7c0,0-3-1.7-5.3,0.5c-2.2,2.2-2.8,6.8-1.8,7.3c0.9,0.6,6.8,4.8,8.8,3.9c2-0.9,3.9-1.8,2.4-3.7
					c-1.5-1.8-5.1-4.6-5.1-4.6"/>
				<path class="st9" d="M125.5,304.5c0,0-2.9,2.2-2.4,5.3c0.6,3.1,9.6,7.3,12.5,5.9c2.9-1.5,1.5-3.5-0.9-4.6
					c-2.4-1.1-6.1-5-7.2-5.7C126.4,304.7,125.5,304.5,125.5,304.5z"/>
				<path class="st9" d="M123.1,309.9c0,0-2.6,3.1-1.1,6.8c1.5,3.7,10.5,5.7,12.5,5.1c2-0.6,4.8-2.4,2.9-4.2
					c-1.8-1.8-1.8-1.8-1.8-1.8s-4.4-0.2-6.1-0.9C127.9,314.1,123.1,309.9,123.1,309.9z"/>
				<path class="st9" d="M122,316.7c0,0-2.2,5.3-0.4,6.8c1.8,1.5,5.3,2,8.3,2.4c2.9,0.4,4.6,1.1,6.2-1.1c1.7-2.2,1.5-3.9,1.5-3.9
					l-3.1,0.9c0,0-6.1-0.6-8.6-1.8C123.3,318.7,122,316.7,122,316.7z"/>
			</g>
			<path class="st9" d="M158.6,296.4l-15.6,2.5c0,0,3.1,8.4,2.8,15.9c-0.3,7.5-2.5,13.7-2.5,13.7l17.6-7.3
				C160.8,321.2,163.3,300.3,158.6,296.4z"/>
		</g>
	</g>
</g>
</svg>
