<svg version="1.1" id="Layer_1" xmlns="http://www.w3.org/2000/svg" x="0" y="0" viewBox="0 0 500 500" style="enable-background:new 0 0 500 500" xml:space="preserve"><style>.st0{fill:#8342ea}.st2{fill:#1a2e35}.st3,.st4{fill:none;stroke:#1a2e35;stroke-linecap:round;stroke-linejoin:round;stroke-miterlimit:10}.st4{fill:#1a2e35}.st11,.st12,.st13,.st5,.st6,.st7,.st9{fill:none;stroke:#1a2e35;stroke-miterlimit:10}.st11,.st12,.st13,.st6,.st7,.st9{fill:#1a2e35}.st11,.st12,.st13,.st7,.st9{fill:#fff}.st11,.st12,.st13,.st9{fill:#8342ea}.st11,.st12,.st13{fill:#6e6e6e}.st12,.st13{fill:#c4c4c4}.st13{fill:none;stroke-width:2;stroke-linecap:round;stroke-linejoin:round}</style><path class="st0" d="M412 117.6s-87.4-84.8-189.9-75C119.6 52.4 2.2 252 25 321.2s98.5 124.6 186.6 144.2c88.1 19.6 175.7-10.6 218.6-72.4s99.3-137.7-18.2-275.4z"/><path d="M412 117.6s-87.4-84.8-189.9-75C119.6 52.4 2.2 252 25 321.2s98.5 124.6 186.6 144.2c88.1 19.6 175.7-10.6 218.6-72.4s99.3-137.7-18.2-275.4z" style="opacity:.7;fill:#fff"/><path class="st2" d="M443 306.1c0-.1 0-.1 0 0l-.1-.1c-2.2 5.1-3.8 10.5-5.1 15.9-1.3 5.4-2.2 11-2.8 16.5l-.4 4.2c-.1.7-.1 1.4-.2 2.1l-.1 2.1c-.1 1.4-.1 2.8-.2 4.2V357.3c0 .7.1 1.4.1 2.1l.3 4.2c.3 2.8.7 5.5 1.1 8.3 0 0 0 .1.1.1 0 0 .1 0 .1-.1 0-1.4-.1-2.8-.1-4.2 0-1.4-.2-2.8-.1-4.2V350.9l.1-4.2v-2.1c0-.7.1-1.4.1-2.1l.3-4.2c.5-5.5 1.2-11 2.4-16.5 1.1-5.1 2.5-10.6 4.5-15.7zM443.6 327.8s0-.1 0 0c-.1-.1-.1-.1-.1 0-1.2 3.5-2.2 7-3 10.6-.8 3.6-1.4 7.2-1.7 10.9-.4 3.6-.8 7.3-.8 10.9-.1 3.7 0 7.3.4 11 0 0 0 .1.1.1 0 0 .1 0 .1-.1.4-3.6.7-7.3.9-10.9.3-3.6.3-7.3.5-10.9.2-3.6.7-7.2 1.3-10.8.5-3.7 1.3-7.3 2.3-10.8zM455.6 335.5h-.1c-3 1.9-5.7 4.3-8.1 7-1.2 1.4-2.2 2.8-3.2 4.4l-.6 1.2-.5 1.3c-.2.4-.3.9-.4 1.3-.1.4-.3.9-.4 1.3-.9 3.5-1.5 7.1-1.7 10.6-.1 3.6-.1 7.2.4 10.7 0 0 0 .1.1.1 0 0 .1 0 .1-.1l.9-10.6c.4-3.5.6-7 1.3-10.5.1-.4.2-.8.3-1.3.1-.4.2-.8.4-1.2l.4-1.2.6-1.2c.8-1.5 1.8-3 2.9-4.4 2.2-2.8 4.7-5.3 7.6-7.4.1 0 .1 0 0 0z"/><path class="st2" d="M449.8 349.1c-1.6 1.1-2.7 2.7-3.7 4.4-.9 1.7-1.6 3.5-2.1 5.4-.1.5-.3.9-.4 1.4l-.3 1.4c-.2.9-.3 1.9-.4 2.9v2.9c.1 1 .2 1.9.4 2.9 0 0 0 .1.1.1 0 0 .1 0 .1-.1.2-.9.4-1.9.5-2.8.1-.9.3-1.9.4-2.8.1-.9.3-1.8.3-2.8.1-.9.2-1.9.4-2.8.3-1.8.9-3.6 1.6-5.3.7-1.7 1.6-3.4 3.1-4.6v-.1c.1-.1 0-.1 0-.1zM432.9 359.7c-.4-4.7-1.2-9.4-1.9-14-.7-4.7-1.5-9.3-2.4-13.9-.9-4.6-1.8-9.2-2.8-13.9 0 0 0-.1-.1-.1 0 0-.1 0-.1.1.8 4.6 1.5 9.3 2.2 13.9.7 4.7 1.4 9.3 2 14 .6 4.7 1 9.3 1.6 14l1.7 14s0 .1.1.1c0 0 .1 0 .1-.1.1-1.2.1-2.4.1-3.5 0-1.2 0-2.4-.1-3.5 0-2.4-.2-4.8-.4-7.1zM430.1 359.6c-.3-1.9-.6-3.7-.9-5.6l-.7-2.7c-.2-.9-.4-1.8-.7-2.7-.9-3.6-2.1-7.2-3.6-10.7l-.6-1.3-.6-1.3c-.4-.9-.9-1.7-1.3-2.5-1-1.6-2-3.2-3.4-4.5h-.1v.1c1.3 1.3 2.2 3 3.1 4.6.4.8.8 1.7 1.2 2.5l.6 1.3.5 1.3c1.3 3.5 2.3 7.1 3.1 10.7.4 1.8.7 3.7 1.1 5.5l.4 2.8c.2.9.4 1.8.5 2.8.3 1.8.6 3.7 1 5.5.3 1.8.6 3.7 1 5.5 0 0 0 .1.1.1 0 0 .1 0 .1-.1 0-1.9 0-3.8-.1-5.6-.3-1.9-.5-3.8-.7-5.7zM426.2 359.9c-.9-2.5-1.9-4.9-3-7.3-1.1-2.4-2.3-4.7-3.7-6.9h-.1v.1c1.2 2.3 2.3 4.7 3.2 7.1 1 2.4 1.8 4.8 2.5 7.3s1.3 5 1.9 7.5c.7 2.5 1.3 5 2 7.5 0 0 0 .1.1.1 0 0 .1 0 .1-.1 0-2.6-.2-5.3-.7-7.8-.5-2.6-1.4-5.1-2.3-7.5zM426 368.1c-.4-1.5-1.2-3-2.1-4.3-.8-1.4-1.8-2.7-3-3.7-.6-.5-1.2-1-1.9-1.4-.7-.4-1.4-.8-2.2-1h-.1v.1c1.4.6 2.6 1.7 3.6 2.8 1 1.1 1.8 2.4 2.5 3.8s1.1 2.8 1.7 4.2c.3.7.5 1.4.9 2.1.3.7.6 1.5.9 2.2h.1s.1 0 .1-.1c0-.8 0-1.6-.1-2.4 0-.7-.2-1.5-.4-2.3z"/><path class="st0" d="M426.3 324.6s-7.7-1.8-9.5-10.1c-1.8-8.3 4-4.7-1.2-17.8-5.1-13-4-16-2.2-19.8 1.8-3.8 2.8-2.6 4.3 2.4 1.6 4.9 7.3 12.7 9.5 27.1 2.3 14.5-.9 18.2-.9 18.2zM441.5 310.6s-5.1-1.8-5.3-11.5c-.2-9.7 3.8-7.7 4.3-19.8.6-12.1 1.4-20.6 3.6-20.8 2.2-.2 7.9 5.9 9.9 19.4 2 13.4-2.6 22.3-6.5 26.3-4 4-6 6.4-6 6.4zM423.6 336.3s-1.2-7.1-3.6-10.5c-2.4-3.4-7.5-6.3-10.9-12.9-3.4-6.5-7.1-9.7-6.9-.4.2 9.3 4.3 14 9.5 17.2 5.1 3.2 11.9 6.6 11.9 6.6zM421.4 348.5s-4.7-9.1-11.7-15.8c-6.9-6.7-12.5-10.1-10.5-6.7 2 3.4 4.3 3.2 7.7 9.1 3.4 5.9 2.4 10.3 7.1 13.6 4.8 3.4 7.4-.2 7.4-.2zM420.8 360.2c-.2-.6-.4-4.9-7.1-8.5-6.7-3.6-13-2.2-12.3-.4.8 1.8 4.9 4.7 9.1 6.5 4.2 1.8 10.3 2.4 10.3 2.4zM441.2 336.7s-3-3.8-1.4-11.7c1.6-7.9 5.1-5.9 9.1-10.1 4-4.2 3.2-4.7 7.1-9.1 4-4.3 7.5-6.7 9.1-4.9 1.6 1.8-.8 7.3-3.2 10.5-2.4 3.2-6.1 4.7-7.9 8.7-1.8 4-1 10.3-5.5 13.2-4.6 3-7.3 3.4-7.3 3.4zM451 338.9s7.1-8.1 12.3-14c5.1-5.9 7.1-10.5 7.3-6.5.2 4 1.8 7.1-2.4 12.3-4.1 5-17.2 8.2-17.2 8.2zM447.3 351.9s-.2-3.2 11.1-10.5c11.3-7.3 16-8.7 14.8-5.7-1.2 3-6.1 5.9-11.5 11.3-5.3 5.3-14.4 4.9-14.4 4.9z"/><path class="st3" d="M426.8 323.8s-2.6-14.2-5.4-24.3c-2.8-10.1-4.5-16.2-4.5-16.2M441.1 310.7s4.8-15.4 6.4-24.7c1.6-9.3-.2-16.2-1-20.4M422.9 336s-2.9-5.2-7.3-10.4c-4.3-5.1-7.7-7.9-9.7-12.9M441.2 336.7s1.6-9.5 5.3-14.4c3.8-4.9 11.3-12.7 14.2-17.6M420.3 360s-6.7-4.3-11.4-6.7"/><path class="st4" d="M458.4 399.8c-.4-12-13.8-20-13.8-20h-20.4s-13.3 8-13.8 20c-.4 12 15.1 56 15.1 56H443.3s15.6-44 15.1-56zM447.3 368.1h-26.1l3 11.7h20.1z"/><path class="st5" d="M300.7 25.7h107.5V147H300.7z"/><path class="st5" d="M305.6 31.3h97.6v110.1h-97.6z"/><path class="st5" d="M331.3 60.3h46.1v52.1h-46.1zM417.5 101.2h59.7v67.3h-59.7z"/><path class="st5" d="M420.2 104.3h54.2v61.1h-54.2z"/><path class="st5" d="M434.5 120.4h25.6v28.9h-25.6z"/><circle transform="rotate(-45.001 119.1 80.744)" class="st5" cx="119.1" cy="80.7" r="40.1"/><circle transform="rotate(-80.492 119.089 80.74)" class="st5" cx="119.1" cy="80.7" r="37.1"/><path class="st5" d="M122.3 80.7c0 1.8-1.4 3.2-3.2 3.2-1.8 0-3.2-1.4-3.2-3.2 0-1.8 1.4-3.2 3.2-3.2 1.8.1 3.2 1.5 3.2 3.2zM115.9 80.7h-10.8M119.1 83.9v24.3"/><path class="st6" d="M115.8 272.9h34v3h-34z"/><path class="st6" d="M115.8 251.3h17.4v24.6h-17.4z"/><path class="st6" d="M66.6 166.8H177V253H66.6z"/><path class="st7" d="M69.9 166.8h110.4V253H69.9z"/><path style="fill:#ededed;stroke:#1a2e35;stroke-miterlimit:10" d="M73.8 169.8h102.7v80.1H73.8z"/><path class="st7" d="M157.5 272.1h85.2v3.7h-85.2zM75 282.1l-.1 6.4-3.3 163.8c0 2-1.6 3.5-3.6 3.5s-3.6-1.6-3.6-3.5l-3.3-163.8-.1-6.4h14z"/><path class="st6" d="m75 282.1-.1 6.4H61.1l-.1-6.4z"/><path class="st7" d="M384.8 455.8c-2 0-3.5-1.6-3.6-3.5l-3.4-170.2h14l-3.4 170.2c0 2-1.6 3.5-3.6 3.5z"/><path class="st6" d="M377.9 288.5h13.8l.2-6.4h-14.1z"/><path class="st7" d="M52.7 275.8h346.2v8.3H52.7z"/><path class="st6" d="M248.7 352h17.4v66.9h-17.4zM184.7 314.9l7.2 26 3.3-4.9-8.4-21.4z"/><path class="st9" d="M197.3 299.6h-10.8c-1.5 0-2.9.4-4.1 1.3-1.5 1.1-9.5 10.9-11.4 14.1-.8 1.3.2 3 1.7 3h10.7c.7 0 1.4-.1 2.1-.3 1.3-.4 2.5-1.3 3.3-2.5l9.5-12.9s1.1-1.4-1-2.7z"/><path class="st6" d="m326 314.9-7.2 26-3.3-4.9 8.4-21.4z"/><path class="st9" d="M313.4 299.6h10.8c1.5 0 2.9.4 4.1 1.3 1.5 1.1 9.5 10.9 11.4 14.1.8 1.3-.2 3-1.7 3h-10.7c-.7 0-1.4-.1-2.1-.3-1.3-.4-2.5-1.3-3.3-2.5l-9.5-12.9s-1.1-1.4 1-2.7zM286.8 248.4h-62.5c-13.5 0-24.5 11-24.5 24.5v61.7h111.5v-61.7c0-13.6-10.9-24.5-24.5-24.5z"/><path class="st9" d="M314.6 347.5H196.7c-4.1 0-6.8-4.3-5-8l8.2-6.8c1-2.1 3.1-3.4 5.4-3.4H306c2.3 0 4.4 1.3 5.4 3.4l8.2 6.8c1.8 3.7-.9 8-5 8z"/><path class="st6" d="M200.1 347.1s22 6.4 55.7 7.6c33.8 1.1 58.7-7.2 58.7-7.2l-114.4-.4z"/><path style="fill:none;stroke:#1a2e35;stroke-width:2;stroke-miterlimit:10" d="m251.7 353.6-40.2 5.6"/><path class="st2" d="M214.3 365.1h-5.4c-.6 0-1.1-.5-1-1.1l.6-5.1c.1-.5.5-.9 1-.9h4.1c.5 0 .9.4 1 .9l.6 5.1c.2.5-.3 1.1-.9 1.1z"/><path class="st2" d="M214.3 365.8h-5.4c-.5 0-1-.2-1.3-.6-.3-.4-.5-.9-.4-1.4l.6-5.1c.1-.9.9-1.6 1.8-1.6h4.1c.9 0 1.7.7 1.8 1.6l.6 5.1c.1.5-.1 1-.4 1.4-.4.4-.9.6-1.4.6zm-4.7-7.1c-.1 0-.2.1-.2.2l-.6 5.1c0 .1 0 .2.1.2 0 0 .1.1.2.1h5.4c.1 0 .1 0 .2-.1 0 0 .1-.1.1-.2l-.6-5.1c0-.1-.1-.2-.2-.2h-4.4zM193.2 447.6H187v-7.4c0-13.4 10.9-24.4 24.4-24.4h37.3v6.2h-37.3c-10 0-18.2 8.2-18.2 18.2v7.4zM319.9 447.6h6.2v-7.4c0-13.4-10.9-24.4-24.4-24.4h-37.3v6.2h37.3c10 0 18.2 8.2 18.2 18.2v7.4z"/><path class="st11" d="M201.7 449.4c0-3.6-2.9-6.4-6.4-6.4s-6.4 2.9-6.4 6.4c0 3.6 2.9 6.4 6.4 6.4s6.4-2.8 6.4-6.4zM324.6 449.4c0-3.6-2.9-6.4-6.4-6.4-3.6 0-6.4 2.9-6.4 6.4 0 3.6 2.9 6.4 6.4 6.4 3.5 0 6.4-2.8 6.4-6.4z"/><path class="st2" d="M253.3 416.7h7.8v31h-7.8z"/><path class="st11" d="M255.9 455.5h2.8c1.4 0 2.6-1.2 2.6-2.6V446c0-1.4-1.2-2.6-2.6-2.6h-2.8c-1.4 0-2.6 1.2-2.6 2.6v6.9c0 1.5 1.2 2.6 2.6 2.6z"/><path class="st12" d="M145.7 245.7s-3.4-2.8-4.9-5.4c-1.5-2.6-2.8-2.6-4.6-3.4s-8.7-4.1-10.7-6.5c-2-2.4-4.9-1.9-4.9-.4s4 6.5 5.7 7.5c1.7 1.1 3.8 2.8 1.9 3.7-2 .9-4.9 2-6.5 2.4-1.6.4-6.6-.8-8.1-.8s-.4 2.3 3.4 7.1c3.8 4.9 9.9 7.5 14.2 6.8 4.2-.8 9-1.1 9-1.1l6.9 3.4-1.4-13.3z"/><path class="st12" d="M122.1 249.6s.1-5.6.1-7.5c0-2 1.3-7.9.8-8.9-.5-.9-2.8 0-2.8 0s1.2-4.4.8-4.6c-.4-.3-2.1.4-2.9.8-.8.4-2.4 0-2.9.7s-5.2 8.6-5.2 10.7c0 2.1 2.8 6.5 5.6 8.5 2.8 1.9 6.1 4.4 6.5.3z"/><path class="st12" d="M120.3 233.1s-2.9 7.5-3 12.8M118.1 229.3s-5.8 9.8-5.4 13.4c.4 3.6 1.7 4.4 1.7 4.4"/><path class="st12" d="M140.9 248.9s-3.8-2.6-6.6-2.4c-2.8.3-10.1 3.8-10.1 3.8s-7.7-5.4-8.7-5.8c-1.1-.4-2.9-1.1-2.9.1 0 1.2 2.9 2.4 4.6 4.6 1.7 2.3 5.6 5.2 6.9 5.4 1.3.3 4.2 1.5 4.2 1.5"/><path class="st7" d="m149.6 245.9-5.4-1.4.6 15.7 4 1.1z"/><path class="st9" d="m245.1 209.4-15.4 6.2v91.8s14.4-2.3 26.2-2.3 23.7 2.3 23.7 2.3l2.6-95.9-9.8-2.6-27.3.5z"/><path class="st12" d="M272.4 208.9s-12.9 16.2-14.4 16.5c-1.5.3-14.4-14.4-14.4-14.4v-2.2l-.2-16 2.8.7 24.7 6.5 1.5 8.9z"/><path class="st6" d="m256.6 206.9-13 1.8-.3-16 2.8.7z"/><path class="st12" d="M247.1 150.1s-11.1 4.9-11.4 11.4c-.3 6.5 1.6 19.2 1.6 19.2s-3.1-2.8-3.1 1 .3 7 1.6 8.3c1.3 1.3 4.9 1.8 4.9 1.8s2.8 5.7 3.6 8.3c.8 2.6 7.2 7.8 12.2 9.6 4.9 1.8 10.1-2.3 11.6-3.4 1.6-1 5.7-5.2 6.2-7.5s2.9-8 2.9-8 3.9-1.6 4.9-6.5c1-4.9-3.6-5.4-3.6-5.4s-.3-17.1-2.6-21.5c-2.3-4.4-9.1-6.7-15-8.5-6-1.9-13.8 1.2-13.8 1.2z"/><path class="st3" d="M251.8 193.6s6.2 5.7 14.2-.5M254.1 185.9s1.8 2.3 4.7 2.1c2.8-.3 3.9-2.8 3.9-2.8M244 177.3s3.9-2.8 6.7-.8M264.7 175.8s3.9-1.6 7.5.8"/><path class="st6" d="M260.8 148.8c-6-1.8-13.7 1.3-13.7 1.3s-11.1 4.9-11.4 11.4c-.3 6.5 1.6 19.2 1.6 19.2s2.6-1 2.3-4.1c-.3-3.1-1.8-9.8 0-15s5.2-8.5 8.3-8.5c3.1 0 7.8.8 11.4 1 3.6.3 4.7-1.3 8.5-1 3.9.3 5.7 6.7 5.4 9.6-.3 2.8 0 4.1 1 6.7 1 2.6 2.6 8.3 2.6 9.3s1.6.3 1.6.3-.3-17.1-2.6-21.5c-2.3-4.5-9-6.8-15-8.7z"/><path class="st13" d="M255.4 169.3s-16.3 1-18.1 2.8c-1.8 1.8 2.3 9.6 4.9 10.4 2.6.8 9.8.8 11.6-.8 1.8-1.6 2.7-9.9 2.7-9.9h1.6v-2.5h-2.7z"/><path class="st13" d="M259.6 169.3s16.3 1 18.1 2.8c1.8 1.8-2.3 9.6-4.9 10.4-2.6.8-9.8.8-11.6-.8-1.8-1.6-2.7-9.9-2.7-9.9h-1.6v-2.5h2.7zM242 168.9s4.4-3.7 11.4-1.5M270.8 168.9s-4.4-3.7-11.4-1.5"/><path class="st6" d="M243.6 209.4s1.3 28-1.5 58.4c-2.8 30.3-8.2 42.9-8.2 42.9s-10.8 2.8-11.6 2.8c-.8 0-11.8-.5-11.8-.5l-.3-53s-23.4 8-30.1 8.7c-6.7.8-33.6-5.5-33.6-5.5l2.2-20.7s29.6 4.9 31.1 4.9 23.7-10.8 23.7-10.8 4.4-18.3 8.7-20.8 31.4-6.4 31.4-6.4z"/><path class="st12" d="M360.9 245.7s3.4-2.8 4.9-5.4c1.5-2.6 2.8-2.6 4.6-3.4 1.9-.8 8.7-4.1 10.7-6.5 2-2.4 4.9-1.9 4.9-.4s-4 6.5-5.7 7.5c-1.7 1.1-3.8 2.8-1.9 3.7 2 .9 4.9 2 6.5 2.4 1.6.4 6.6-.8 8.1-.8s.4 2.3-3.4 7.1c-3.8 4.9-9.9 7.5-14.2 6.8-4.2-.8-9-1.1-9-1.1l-6.9 3.4 1.4-13.3z"/><path class="st12" d="M384.5 249.6s-.1-5.6-.1-7.5c0-2-1.3-7.9-.8-8.9.5-.9 2.8 0 2.8 0s-1.2-4.4-.8-4.6c.4-.3 2.1.4 2.9.8.8.4 2.4 0 2.9.7s5.2 8.6 5.2 10.7c0 2.1-2.8 6.5-5.6 8.5-2.8 1.9-6.1 4.4-6.5.3z"/><path class="st12" d="M386.4 233.1s2.9 7.5 3 12.8M388.5 229.3s5.8 9.8 5.4 13.4c-.4 3.6-1.7 4.4-1.7 4.4"/><path class="st12" d="M365.7 248.9s3.8-2.6 6.6-2.4c2.8.3 10.1 3.8 10.1 3.8s7.7-5.4 8.7-5.8c1.1-.4 2.9-1.1 2.9.1 0 1.2-2.9 2.4-4.6 4.6-1.7 2.3-5.6 5.2-6.9 5.4-1.3.3-4.2 1.5-4.2 1.5"/><path class="st7" d="m357.1 245.9 5.3-1.4-.6 15.7-4 1.1z"/><path class="st6" d="M272.4 209.4s-1.3 28 1.5 58.4c2.8 30.3 8.2 42.9 8.2 42.9s10.8 2.8 11.6 2.8c.8 0 11.8-.5 11.8-.5l.3-53s23.4 8 30.1 8.7c6.7.8 23-6.8 23-6.8l.1-17.1s-21.3 2.6-22.9 2.6c-1.5 0-23.7-10.8-23.7-10.8s-4.4-18.3-8.7-20.8-31.3-6.4-31.3-6.4z"/><path class="st5" d="m244.7 235.6 12.8-7.7 13.5 11.2"/><path class="st11" d="M197.7 300.1s11.7 24.8 31.1 32.2c19.4 7.4 30.5 9.1 47.3 5.4 16.8-3.7 38.5-19.1 42.5-45.1 0 0-18.5 15.4-36.5 20.8s-47.1-.6-59.9-6.6c-12.8-5.9-27-15-24.5-6.7z"/><path class="st11" d="M288.3 305.8s-18.1-3.5-33.2-3.9c-15-.4-34.3 11.6-34.3 11.6s32.4 19.7 38.2 21.2c5.8 1.5 23.9-13.9 28.2-18.5 4.2-4.6 4.2-10.4 1.1-10.4z"/><path class="st11" d="M269 325.2s-13.9-4.2-29.3-23.5-34.3-44.4-40.9-51.3c-6.6-6.9-20.8.4-20.1 16.6.8 16.2 20.1 39.7 40.1 52.5 20.1 12.7 44.7 20.1 50.9 21.6 6.2 1.5 22 9.3 29.7 8.1 7.7-1.2 12.7-17.4 6.9-20.4-5.8-3.1-25.5.4-32-1.5-6.4-2.1-5.3-2.1-5.3-2.1z"/><path class="st6" d="M306.5 328.7c-5.8-3.1-25.5.4-32-1.5-.3-.1-.6-.2-.8-.2-1.7 1.9-3.4 4.9-3.4 9.1 0 1.9.5 3.8 1.2 5.5 7 2.2 21 8.7 28.1 7.6 7.6-1.2 12.6-17.4 6.9-20.5z"/><path class="st11" d="M240.7 326.4s13.9-4.2 29.3-23.5 34.3-44.4 40.9-51.3c6.6-6.9 20.8.4 20.1 16.6-.8 16.2-20.1 39.7-40.1 52.5-20.1 12.7-44.7 20.1-50.9 21.6-6.2 1.5-22 9.3-29.7 8.1-7.7-1.2-12.7-17.4-6.9-20.4 5.8-3.1 25.5.4 32-1.5 6.4-2.1 5.3-2.1 5.3-2.1z"/><path class="st6" d="M203.2 329.8c5.8-3.1 25.5.4 32-1.5.3-.1.6-.2.8-.2 1.7 1.9 3.4 4.9 3.4 9.1 0 1.9-.5 3.8-1.2 5.5-7 2.2-21 8.7-28.1 7.6-7.6-1.2-12.6-17.4-6.9-20.5z"/><path class="st5" d="m245.9 275.7 17.7 11.6M255.5 286.2l9.7 5"/><path class="st7" d="M15.9 455.8h466.6"/></svg>