<svg version="1.1" id="Layer_1" xmlns="http://www.w3.org/2000/svg" x="0" y="0" viewBox="0 0 500 500" style="enable-background:new 0 0 500 500" xml:space="preserve"><style>.st0{fill:#8342ea}.st2{fill:#1a2e35}.st3,.st4{stroke:#1a2e35}.st3{fill:none;stroke-linecap:round;stroke-linejoin:round;stroke-miterlimit:10}.st4{fill:#1a2e35}.st10,.st11,.st4,.st5,.st6,.st7,.st8,.st9{stroke-linecap:round;stroke-linejoin:round;stroke-miterlimit:10}.st5{opacity:.3;fill:none;stroke:#000}.st10,.st11,.st6,.st7,.st8,.st9{fill:#8342ea;stroke:#1a2e35}.st10,.st11,.st7,.st8,.st9{fill:#5ae4a7}.st10,.st11,.st8,.st9{fill:#c2c2c2}.st10,.st11,.st9{fill:#fff}.st10,.st11{fill:none;stroke:#7d7d7d}.st11{stroke:#1a2e35;stroke-width:2}</style><path class="st0" d="M478.5 236.3c6.1-53.9-12.1-107.9-50.3-146.4-18.8-18.9-44.5-36.7-78.7-45.3-95.8-24.1-157.9-2-188.9 56.7S40.5 149.9 26.4 251.1 81 463.6 197.7 469.7s101.7-52 165.5-76.9c48.9-19.1 106.2-76.1 115.3-156.5z"/><path d="M478.5 236.3c6.1-53.9-12.1-107.9-50.3-146.4-18.8-18.9-44.5-36.7-78.7-45.3-95.8-24.1-157.9-2-188.9 56.7S40.5 149.9 26.4 251.1 81 463.6 197.7 469.7s101.7-52 165.5-76.9c48.9-19.1 106.2-76.1 115.3-156.5z" style="opacity:.7;fill:#fff"/><path class="st2" d="M95.3 245.9c0-.1 0-.2-.1-.2s-.1 0-.2.1c-4.1 9.5-7 19.5-9.4 29.5-2.3 10.1-4 20.3-5.2 30.6l-.7 7.7c-.1 1.3-.3 2.6-.3 3.9l-.2 3.9c-.1 2.6-.3 5.2-.3 7.8l.1 7.8.1 3.9c.1 1.3.2 2.6.2 3.9.2 2.6.4 5.2.6 7.7.5 5.2 1.3 10.3 2.1 15.4 0 .1.1.1.1.1.1 0 .1-.1.1-.1 0-2.6-.1-5.2-.2-7.8-.1-2.6-.3-5.1-.3-7.7 0-2.6-.1-5.1-.1-7.7l-.1-3.9.1-3.9v-7.7l.2-7.7.1-3.9c0-1.3.1-2.6.2-3.8l.5-7.7c.9-10.2 2.3-20.4 4.4-30.5 2-10.1 4.6-20.1 8.3-29.7zM96.4 286.2c0-.1 0-.1-.1-.2-.1 0-.1 0-.2.1-2.2 6.4-4 13-5.5 19.6-1.4 6.6-2.6 13.3-3.2 20.1-.7 6.7-1.4 13.5-1.5 20.3-.1 6.8 0 13.6.7 20.3 0 .1.1.1.1.1.1 0 .1 0 .2-.1.8-6.8 1.3-13.5 1.7-20.2.5-6.7.5-13.5 1-20.2.4-6.7 1.2-13.4 2.4-20 1.2-6.7 2.6-13.3 4.4-19.8zM118.8 300.4c0-.1-.1-.1-.2 0-5.6 3.5-10.6 8-14.9 13-2.1 2.5-4.1 5.2-5.8 8.1l-1.2 2.3-.9 2.4c-.3.8-.6 1.6-.8 2.4-.2.8-.5 1.6-.7 2.4-1.7 6.5-2.8 13.1-3.1 19.7-.3 6.6-.1 13.3.7 19.8 0 .1.1.1.1.1.1 0 .1-.1.1-.1l1.7-19.6c.7-6.5 1.1-13 2.5-19.4.2-.8.4-1.6.6-2.3.2-.8.4-1.6.7-2.3l.8-2.3 1-2.1c1.5-2.8 3.4-5.6 5.4-8.1 4-5.1 8.7-9.8 14-13.7v-.3z"/><path class="st2" d="M108 325.6c-3 2-5.1 5.1-6.8 8.2-1.6 3.2-2.9 6.5-3.8 10-.3.9-.5 1.7-.7 2.6l-.6 2.6c-.3 1.8-.6 3.5-.7 5.3 0 1.8-.1 3.6 0 5.3.1 1.8.3 3.5.7 5.3 0 .1.1.1.1.1.1 0 .1 0 .2-.1.4-1.8.7-3.5.9-5.2.3-1.7.5-3.4.8-5.2.3-1.7.5-3.4.6-5.1.2-1.7.4-3.4.7-5.1.6-3.4 1.6-6.7 2.9-9.9 1.3-3.2 3.1-6.3 5.7-8.5.1 0 .1-.1 0-.2.1-.1 0-.1 0-.1zM76.6 345.3c-.7-8.7-2.2-17.4-3.5-26-1.4-8.6-2.9-17.2-4.4-25.8-1.6-8.6-3.3-17.1-5.2-25.7 0-.1-.1-.1-.2-.1s-.1.1-.1.2c1.5 8.6 2.8 17.2 4.1 25.8 1.3 8.6 2.5 17.3 3.6 25.9 1.1 8.7 1.9 17.3 3 26l3.2 26c0 .1.1.1.1.1.1 0 .1-.1.1-.1.1-2.2.1-4.4.2-6.6 0-2.2-.1-4.4-.1-6.6-.1-4.4-.4-8.7-.8-13.1zM71.4 345.2c-.5-3.5-1.1-6.9-1.8-10.3l-1.2-5.1c-.4-1.7-.8-3.4-1.3-5.1-1.7-6.8-4-13.4-6.7-19.8l-1-2.4-1.2-2.3c-.7-1.6-1.6-3.1-2.5-4.6-1.8-3-3.7-5.9-6.3-8.3h-.2c-.1.1-.1.1 0 .2 2.4 2.5 4.1 5.5 5.8 8.5.8 1.6 1.6 3.1 2.2 4.7l1 2.4.9 2.4c2.4 6.5 4.4 13.1 5.8 19.8.8 3.4 1.3 6.8 2 10.2l.8 5.1c.3 1.7.7 3.4.9 5.1.5 3.4 1.2 6.8 1.8 10.2.5 3.4 1.2 6.8 1.9 10.3 0 .1.1.1.1.1.1 0 .1-.1.1-.1 0-3.5-.1-7-.2-10.5-.1-3.6-.5-7.1-.9-10.5zM64.2 345.6c-1.6-4.6-3.5-9.1-5.5-13.4-2.1-4.4-4.3-8.7-6.9-12.7 0-.1-.1-.1-.2 0-.1 0-.1.1 0 .2 2.3 4.2 4.2 8.7 5.9 13.1 1.8 4.5 3.4 9 4.7 13.6 1.4 4.6 2.3 9.3 3.6 13.9 1.3 4.6 2.3 9.3 3.7 13.9 0 .1.1.1.1.1.1 0 .1-.1.1-.1.1-4.9-.4-9.7-1.4-14.5-.8-4.9-2.5-9.5-4.1-14.1zM63.9 360.9c-.8-2.9-2.2-5.5-3.8-8.1-1.6-2.5-3.4-4.9-5.6-6.9-1.1-1-2.3-1.9-3.6-2.7-1.3-.8-2.6-1.4-4-1.8-.1 0-.1 0-.2.1 0 .1 0 .1.1.2 2.6 1.2 4.8 3.1 6.7 5.2 1.9 2.1 3.4 4.5 4.7 7.1 1.3 2.5 2 5.3 3.2 7.9.5 1.3 1 2.7 1.6 4 .5 1.3 1.1 2.7 1.8 4l.1.1c.1 0 .1-.1.1-.1.1-1.5 0-3-.2-4.5-.3-1.6-.6-3.1-.9-4.5z"/><path class="st0" d="M64.4 280.3s-14.3-3.3-17.6-18.7c-3.3-15.4 7.3-8.8-2.2-33s-7.3-29.7-4-36.6c3.3-7 5.1-4.8 8.1 4.4 2.9 9.2 13.6 23.5 17.6 50.2 4 26.7-1.9 33.7-1.9 33.7zM92.6 254.3s-9.5-3.3-9.9-21.3c-.4-18 7-14.3 8.1-36.6 1.1-22.4 2.6-38.1 6.6-38.5 4-.4 14.7 11 18.3 35.9 3.7 24.9-4.8 41.4-12.1 48.7-7.3 7.4-11 11.8-11 11.8zM59.3 301.9s-2.2-13.2-6.6-19.4c-4.4-6.2-13.9-11.7-20.2-23.8-6.2-12.1-13.2-18-12.8-.7.4 17.2 8.1 26 17.6 31.9 9.5 5.8 22 12 22 12zM55.3 324.6s-8.8-16.9-21.6-29.3c-12.8-12.5-23.1-18.7-19.4-12.5 3.7 6.2 8.1 5.9 14.3 16.9 6.2 11 4.4 19.1 13.2 25.3 8.7 6.2 13.5-.4 13.5-.4zM54.2 346.3c-.4-1.1-.7-9.2-13.2-15.8-12.5-6.6-24.2-4-22.7-.7s9.2 8.8 16.9 12.1c7.6 3.3 19 4.4 19 4.4zM91.9 302.6s-5.5-7-2.6-21.6c2.9-14.7 9.5-11 16.9-18.7 7.3-7.7 5.9-8.8 13.2-16.9 7.3-8.1 13.9-12.5 16.9-9.2 2.9 3.3-1.5 13.6-5.9 19.4-4.4 5.9-11.4 8.8-14.7 16.1-3.3 7.3-1.8 19.1-10.3 24.6-8.4 5.6-13.5 6.3-13.5 6.3zM110.2 306.7s13.2-15 22.7-26 13.2-19.4 13.6-12.1c.4 7.3 3.3 13.2-4.4 22.7s-31.9 15.4-31.9 15.4zM103.3 330.9s-.4-5.9 20.5-19.4c20.9-13.6 29.7-16.1 27.5-10.6-2.2 5.5-11.4 11-21.3 20.9-9.9 9.8-26.7 9.1-26.7 9.1z"/><path class="st3" d="M65.3 278.7s-4.9-26.3-10-45-8.4-30-8.4-30M91.8 254.6s8.9-28.5 11.8-45.7c2.9-17.2-.4-30-1.8-37.7M58.1 301.4s-5.4-9.7-13.5-19.2-14.3-14.7-18-23.8M91.9 302.6s2.9-17.6 9.9-26.8 20.9-23.5 26.4-32.6M53.3 345.9s-12.3-8-21.1-12.4"/><path class="st4" d="M109 374.2c.6-6.2 0-11.4-2.4-14.4-8.1-9.8-42.9-9.8-50.9 0-2.5 3-3 8.2-2.4 14.4H109z"/><path class="st3" d="M16.1 374.5h466.2"/><path class="st5" d="M448 189.3c0 3.4 2.5 6.2 5.6 6.2 1.1 0 2.1-.3 2.9-.9 1.2-.8 2.6-1.1 3.9-.7.9.3 1.7.8 2.1 1.5l.8 1.2v14.8h-14.8l-1.2-.8c-.7-.5-1.3-1.2-1.5-2.1-.5-1.3-.1-2.7.7-3.9.6-.8.9-1.8.9-2.9 0-3.1-2.8-5.6-6.2-5.6-3.5 0-6.3 2.5-6.3 5.6 0 1.1.3 2.1.9 2.9.8 1.1 1.1 2.6.7 3.9-.3.9-.8 1.7-1.6 2.2l-1.2.8h-14.8v-14.8l-.8-1.2c-.5-.7-1.2-1.3-2.1-1.5-1.3-.5-2.7-.1-3.9.7-.8.6-1.8.9-2.9.9-3.1 0-5.6-2.8-5.6-6.2 0-3.5 2.5-6.3 5.6-6.3 1.1 0 2.1.3 2.9.9 1.1.8 2.6 1.1 3.9.7.9-.3 1.7-.8 2.2-1.6l.8-1.2v-14.8h14.8l1.2-.8c.7-.5 1.3-1.3 1.6-2.2.4-1.3.1-2.7-.7-3.9-.6-.8-.9-1.8-.9-2.9 0-3.1 2.8-5.6 6.2-5.6 3.4 0 6.3 2.5 6.3 5.6 0 1.1-.3 2.1-.9 2.9-.8 1.2-1.1 2.6-.7 3.9.3.9.8 1.7 1.5 2.1l1.2.8h14.8v14.8l-.8 1.2c-.5.7-1.3 1.3-2.2 1.6-1.3.4-2.7.1-3.9-.7-.8-.6-1.8-.9-2.9-.9-3.2.1-5.6 2.9-5.6 6.3zM101 124.5c0 3.4-2.5 6.2-5.6 6.2-1.1 0-2.1-.3-2.9-.9-1.2-.8-2.6-1.1-3.9-.7-.9.3-1.7.8-2.1 1.5l-.8 1.2v14.8H70.9l-1.2-.8c-.7-.5-1.3-1.3-1.6-2.2-.4-1.3-.1-2.7.7-3.9.6-.8.9-1.8.9-2.9 0-3.1-2.8-5.6-6.2-5.6-3.5 0-6.3 2.5-6.3 5.6 0 1.1.3 2.1.9 2.9.8 1.2 1.1 2.6.7 3.9-.3.9-.8 1.7-1.6 2.1l-1.2.8H41.4v-14.8l-.8-1.2c-.5-.7-1.2-1.3-2.1-1.5-1.3-.5-2.7-.1-3.9.7-.8.6-1.8.9-2.9.9-3.1 0-5.6-2.8-5.6-6.2 0-3.5 2.5-6.3 5.6-6.3 1.1 0 2.1.3 2.9.9 1.1.8 2.6 1.1 3.9.7.9-.3 1.7-.8 2.2-1.6l.8-1.2v-14.8h14.8l1.2-.8c.7-.5 1.3-1.2 1.6-2.1.4-1.3.1-2.7-.7-3.9-.6-.8-.9-1.8-.9-2.9 0-3.1 2.8-5.6 6.2-5.6 3.4 0 6.3 2.5 6.3 5.6 0 1.1-.3 2.1-.9 2.9-.8 1.2-1.1 2.6-.7 3.9.3.9.8 1.7 1.6 2.2l1.2.8H86V117l.8 1.2c.5.7 1.3 1.3 2.2 1.6 1.3.4 2.7.1 3.9-.7.8-.6 1.8-.9 2.9-.9 2.7.1 5.2 2.9 5.2 6.3zM167.3 86.6c0 3.4-2.5 6.2-5.6 6.2-1.1 0-2.1-.3-2.9-.9-1.2-.8-2.6-1.1-3.9-.7-.9.3-1.7.8-2.1 1.5L152 94v14.8h-14.8l-1.2-.8c-.7-.5-1.2-1.2-1.5-2.1-.5-1.3-.1-2.7.7-3.9.6-.8.9-1.8.9-2.9 0-3.1-2.8-5.6-6.3-5.6-3.4 0-6.3 2.5-6.3 5.6 0 1.1.3 2.1.9 2.9.8 1.1 1.1 2.6.7 3.9-.3.9-.8 1.7-1.6 2.2l-1.2.8h-14.8V94l-.8-1.2c-.5-.7-1.2-1.3-2.1-1.5-1.3-.5-2.8-.1-3.9.7-.9.6-1.8.9-2.9.9-3.1 0-5.6-2.8-5.6-6.2 0-3.5 2.5-6.3 5.6-6.3 1.1 0 2 .3 2.9.9 1.2.8 2.6 1.1 3.9.7.9-.3 1.7-.8 2.2-1.6l.8-1.2V64.4h14.8l1.2-.8c.7-.5 1.3-1.3 1.6-2.2.4-1.3.1-2.7-.7-3.9-.6-.8-.9-1.8-.9-2.9 0-3.1 2.8-5.6 6.3-5.6 3.4 0 6.3 2.5 6.3 5.6 0 1.1-.3 2.1-.9 2.9-.8 1.2-1.1 2.6-.7 3.9.3.9.8 1.7 1.6 2.1l1.2.8H152v14.8l.8 1.2c.5.7 1.3 1.3 2.2 1.6 1.3.4 2.7.1 3.9-.7.8-.6 1.8-.9 2.9-.9 3 .1 5.5 2.9 5.5 6.3zM142.1 204.9c0 3.4 2.5 6.2 5.6 6.2 1.1 0 2-.3 2.9-.9 1.2-.8 2.6-1.1 3.9-.7.9.3 1.7.8 2.2 1.6l.8 1.2v14.8h-14.8l-1.2-.8c-.7-.5-1.3-1.2-1.6-2.1-.5-1.3-.1-2.7.7-3.9.6-.8.9-1.8.9-2.9 0-3.1-2.8-5.6-6.3-5.6s-6.2 2.5-6.2 5.6c0 1.1.3 2 .9 2.9.8 1.1 1.1 2.6.7 3.9-.3.9-.8 1.7-1.6 2.2l-1.2.8H113v-14.8l.8-1.2c.5-.7 1.3-1.3 2.2-1.6 1.3-.4 2.7-.1 3.9.7.8.6 1.8.9 2.9.9 3.1 0 5.6-2.8 5.6-6.2 0-3.5-2.5-6.3-5.6-6.3-1.1 0-2.1.3-2.9.9-1.2.8-2.6 1.1-3.9.7-.9-.3-1.7-.8-2.1-1.6l-.8-1.2v-14.8h14.8l1.2-.8c.7-.5 1.3-1.3 1.6-2.2.4-1.3.1-2.7-.7-3.9-.6-.8-.9-1.8-.9-2.9 0-3.1 2.8-5.6 6.2-5.6s6.3 2.5 6.3 5.6c0 1.1-.3 2.1-.9 2.9-.8 1.2-1.1 2.6-.7 3.9.3.9.8 1.7 1.6 2.1l1.2.8h14.8v14.8l-.8 1.2c-.5.7-1.3 1.3-2.1 1.6-1.3.4-2.8.1-3.9-.7-.8-.6-1.8-.9-2.9-.9-3.3 0-5.8 2.8-5.8 6.3zM392.9 65.5c0 3.4-2.5 6.2-5.6 6.2-1.1 0-2.1-.3-2.9-.9-1.1-.8-2.6-1.1-3.9-.7-.9.3-1.7.8-2.2 1.6l-.8 1.2v14.8h-14.8l-1.2-.8c-.7-.5-1.2-1.2-1.5-2.1-.5-1.3-.1-2.7.7-3.9.6-.8.9-1.8.9-2.9 0-3.1-2.8-5.6-6.3-5.6-3.4 0-6.3 2.5-6.3 5.6 0 1.1.3 2 .9 2.9.8 1.1 1.1 2.6.7 3.9-.3.9-.8 1.7-1.6 2.2l-1.2.8H333V43.3h15l1.2-.8c.7-.5 1.3-1.3 1.6-2.2.4-1.3.1-2.7-.7-3.9-.6-.8-.9-1.8-.9-2.9 0-3.1 2.8-5.6 6.3-5.6 3.4 0 6.3 2.5 6.3 5.6 0 1.1-.3 2.1-.9 2.9-.8 1.2-1.1 2.6-.7 3.9.3.9.8 1.7 1.5 2.1l1.2.8h14.8V58l.8 1.2c.5.7 1.2 1.3 2.1 1.6 1.3.4 2.7.1 3.9-.7.8-.6 1.8-.9 2.9-.9 3 0 5.5 2.8 5.5 6.3zM362.8 165.4c0 3.4 2.5 6.3 5.6 6.3 1.1 0 2.1-.3 2.9-.9 1.2-.8 2.6-1.1 3.9-.7.9.3 1.7.8 2.1 1.6l.8 1.2v14.8h-14.8l-1.2-.8c-.7-.5-1.3-1.3-1.5-2.1-.5-1.3-.1-2.8.7-3.9.6-.8.9-1.8.9-2.9 0-3.1-2.8-5.6-6.2-5.6-3.5 0-6.3 2.5-6.3 5.6 0 1.1.3 2 .9 2.9.8 1.2 1.1 2.6.7 3.9-.3.9-.8 1.7-1.6 2.2l-1.2.8h-14.8V173l-.8-1.2c-.5-.7-1.2-1.3-2.1-1.6-1.3-.5-2.7-.1-3.9.7-.8.6-1.8.9-2.9.9-3.1 0-5.6-2.8-5.6-6.3 0-3.4 2.5-6.2 5.6-6.2 1.1 0 2.1.3 2.9.9 1.1.8 2.6 1.1 3.9.7.9-.3 1.7-.8 2.2-1.6l.8-1.2v-14.8h14.8l1.2-.8c.7-.5 1.3-1.3 1.6-2.2.4-1.3.1-2.7-.7-3.9-.6-.9-.9-1.8-.9-2.9 0-3.1 2.8-5.6 6.3-5.6 3.4 0 6.2 2.5 6.2 5.6 0 1.1-.3 2.1-.9 2.9-.8 1.2-1.1 2.6-.7 3.9.3.9.8 1.7 1.5 2.1l1.2.8h14.8V158l-.8 1.2c-.5.7-1.3 1.3-2.2 1.6-1.3.4-2.7.1-3.9-.7-.8-.6-1.8-.9-2.9-.9-3.1 0-5.6 2.8-5.6 6.2zM453.9 64.6c0 3.4-2.5 6.3-5.6 6.3-1.1 0-2.1-.3-2.9-.9-1.1-.8-2.6-1.1-3.9-.7-.9.3-1.7.8-2.2 1.6l-.8 1.2v14.8h-14.8l-1.2-.8c-.7-.5-1.3-1.2-1.6-2.2-.5-1.3-.1-2.7.7-3.9.6-.8.9-1.8.9-2.9 0-3.1-2.8-5.6-6.3-5.6-3.4 0-6.2 2.5-6.2 5.6 0 1.1.3 2 .9 2.9.8 1.1 1.1 2.6.7 3.9-.3.9-.8 1.6-1.5 2.1l-1.2.8h-14.8V72l.8-1.2c.5-.7 1.3-1.3 2.2-1.6 1.3-.5 2.7-.1 3.9.7.8.6 1.8.9 2.9.9 3.1 0 5.6-2.8 5.6-6.3 0-3.4-2.5-6.2-5.6-6.2-1.1 0-2.1.3-2.9.9-1.2.8-2.6 1.1-3.9.7-.9-.3-1.7-.8-2.1-1.5l-.8-1.2V42.4H409l1.2-.8c.7-.5 1.3-1.3 1.5-2.1.5-1.3.1-2.8-.7-3.9-.6-.8-.9-1.8-.9-2.9 0-3.1 2.8-5.6 6.2-5.6 3.4 0 6.3 2.5 6.3 5.6 0 1.1-.3 2-.9 2.9-.8 1.2-1.1 2.6-.7 3.9.3.9.8 1.7 1.6 2.2l1.2.8h14.8v14.8l.8 1.2c.5.7 1.2 1.3 2.1 1.5 1.3.5 2.7.1 3.9-.7.8-.6 1.8-.9 2.9-.9 3.1 0 5.6 2.8 5.6 6.2zM438.8 338.4c-3.4 0-6.3-2.5-6.3-5.6 0-1.1.3-2 .9-2.9.8-1.1 1.1-2.6.7-3.9-.3-.9-.8-1.7-1.6-2.2l-1.2-.8h-14.8v-14.8l.8-1.2c.5-.7 1.2-1.3 2.1-1.5 1.3-.5 2.8-.1 3.9.7.9.6 1.8.9 2.9.9 3.1 0 5.6-2.8 5.6-6.2 0-3.5-2.5-6.3-5.6-6.3-1.1 0-2 .3-2.9.9-1.2.8-2.6 1.1-3.9.7-.9-.3-1.7-.8-2.2-1.6l-.8-1.2v-14.8h14.8l1.2-.8c.7-.5 1.3-1.3 1.6-2.2.5-1.3.1-2.7-.7-3.9-.6-.8-.9-1.8-.9-2.9 0-3.1 2.8-5.6 6.2-5.6 3.4 0 6.3 2.5 6.3 5.6 0 1.1-.3 2.1-.9 2.9-.8 1.2-1.1 2.6-.7 3.9.3.9.8 1.6 1.5 2.1l1.2.8h14.8v14.8l.8 1.2c.5.7 1.3 1.3 2.2 1.6 1.3.4 2.7.1 3.9-.7.8-.6 1.8-.9 2.9-.9 3.1 0 5.6 2.8 5.6 6.3 0 3.4-2.5 6.2-5.6 6.2-1.1 0-2.1-.3-2.9-.9-1.1-.8-2.6-1.1-3.9-.7-.9.3-1.6.8-2.1 1.5l-.8 1.2v14.8h-14.8l-1.2.8c-.7.5-1.3 1.2-1.5 2.1-.5 1.3-.1 2.7.7 3.9.6.8.9 1.8.9 2.9 0 3.3-2.8 5.8-6.2 5.8z"/><path class="st6" d="M190.4 386.9V387.2s0 0 0 0 0 .1.1.1l.1.1c.1.1.2.2.4.3.1 0 .1.1.2.1s.2.1.3.1c.1 0 .2.1.4.1H193.4c.1 0 .2 0 .3-.1.1 0 .2 0 .3-.1.1 0 .2 0 .3-.1h1.5c.4.1.7.2.9.3l.3.2-.8 2.9h-20.7l3.4-8.5h19.7l-.8 2.8-.4.2c-.3.1-.6.2-1.1.3-.6.1-1.2 0-1.7-.1-.3-.1-.8-.2-1.3-.2-1.3.1-2.6.6-2.9 1.3z"/><path class="st6" d="M190.6 394.5c.5 0 1 .1 1.3.2.5.2 1.2.2 1.8.1.4-.1.8-.2 1.1-.3l.4-.2.9-3h-6.9l-.5-.2c-.3-.1-.5-.3-.6-.4-.1-.3.1-.5.6-.8.3-.2.5-.4.6-.6.2-.6-.9-1.1-2.5-1.1s-3 .5-3.3 1.1c-.1.2 0 .4.2.6.3.2.3.5 0 .8-.2.2-.5.3-.9.4l-.6.2h-6.9l-3.8 9.4h7.3l.6-.2c.4-.1.7-.3.9-.5.3-.3.3-.6 0-.9-.2-.2-.3-.4-.2-.6.2-.7 1.8-1.2 3.5-1.2s2.8.5 2.6 1.2c-.1.2-.3.5-.6.6-.5.3-.7.6-.6.9.1.2.3.4.6.5l.5.2h7.3l.9-3.3-.3-.2c-.2-.2-.5-.3-.9-.3-.6-.1-1.3 0-1.9.1-.4.1-.9.2-1.5.2-1.5 0-2.5-.6-2.3-1.3.3-.8 1.7-1.4 3.2-1.4z"/><path class="st6" d="M208.7 395.8c-.2.7.9 1.3 2.4 1.3.5 0 1-.1 1.4-.2.6-.2 1.3-.2 1.9-.1.4.1.8.2 1 .3l.3.2-.6 3.3h-7.3l-.5-.2c-.3-.1-.6-.3-.7-.5-.2-.3.1-.6.5-.9.3-.2.5-.4.6-.6.1-.7-1.1-1.2-2.7-1.2-1.7 0-3.1.5-3.3 1.2-.1.2.1.5.3.6.3.3.4.6.1.9-.2.2-.5.4-.9.5l-.6.2h-7.3l.9-3.3-.3-.2c-.2-.2-.5-.3-.9-.3-.6-.1-1.3 0-1.9.1-.4.1-.9.2-1.5.2-1.5 0-2.5-.6-2.3-1.3.2-.7 1.6-1.3 3.1-1.3.5 0 1 .1 1.3.2.5.2 1.2.2 1.8.1.4-.1.8-.2 1.1-.3l.4-.2.9-3h6.9l.6-.2c.4-.1.6-.3.8-.4.3-.3.2-.5-.1-.8-.2-.2-.3-.4-.3-.6.2-.6 1.5-1.1 3.1-1.1s2.8.5 2.6 1.1c0 .2-.2.4-.5.6-.4.2-.6.5-.5.8.1.2.3.3.6.4l.5.2h6.9l-.5 3-.4.2c-.3.2-.6.3-1.1.3-.6.1-1.3 0-1.8-.1-.4-.1-.8-.2-1.3-.2-1.2 0-2.5.6-2.7 1.3z"/><path class="st7" d="M230.8 386.9c-.1.7 1 1.2 2.4 1.2.5 0 .9-.1 1.3-.2.5-.2 1.2-.2 1.8-.1.4.1.8.2 1 .3l.3.2-.2 2.9h-6.9l-.5-.2c-.3-.1-.6-.3-.7-.4-.2-.3 0-.5.4-.8.3-.2.5-.4.5-.6.1-.6-1.2-1.1-2.8-1.1-1.6 0-2.9.5-3 1.1 0 .2.1.4.3.6.3.2.5.5.2.8-.2.2-.4.3-.8.4l-.6.2h-6.9l.5-2.9.4-.2c.2-.1.6-.2 1-.3.6-.1 1.3 0 1.8.1.4.1.8.2 1.3.2 1.4 0 2.6-.5 2.7-1.2.1-.7-1-1.2-2.4-1.2-.5 0-.9.1-1.3.2-.5.1-1.2.2-1.8.1-.4-.1-.7-.2-.9-.3l-.3-.2.5-2.8H238l-.2 2.8-.4.2c-.2.1-.6.2-1 .3-.6.1-1.2 0-1.8-.1-.4-.1-.8-.2-1.3-.2-1.2 0-2.4.5-2.5 1.2z"/><path class="st6" d="M244.6 395.8c0 .7-1.2 1.3-2.7 1.3-.5 0-1-.1-1.4-.2-.5-.2-1.2-.2-1.9-.1-.4.1-.8.2-1 .3l-.4.2-.2 3.3h-7.3l-.6-.2c-.3-.1-.6-.3-.7-.5-.2-.3 0-.6.4-.9.3-.2.5-.4.5-.6.1-.7-1.2-1.2-2.9-1.2s-3.1.5-3.2 1.2c0 .2.1.5.4.6.3.3.5.6.2.9-.2.2-.5.4-.8.5l-.6.2h-7.3l.6-3.3-.3-.2c-.2-.2-.5-.3-1-.3-.6-.1-1.3 0-1.9.1-.4.1-.9.2-1.4.2-1.5 0-2.6-.6-2.4-1.3.2-.7 1.5-1.3 2.9-1.3.5 0 1 .1 1.3.2.5.2 1.2.2 1.8.1.4-.1.8-.2 1.1-.3l.4-.2.5-3h6.9l.6-.2c.4-.1.6-.2.8-.4.2-.3.1-.5-.2-.8-.2-.2-.4-.4-.3-.6.1-.6 1.4-1.1 3-1.1s2.8.5 2.8 1.1c0 .2-.2.4-.5.6-.4.2-.6.5-.4.8.1.2.4.3.7.4l.5.2h6.9l-.2 3 .3.2c.2.2.6.3 1 .3.6.1 1.3 0 1.9-.1.4-.1.9-.2 1.4-.2 1.5 0 2.7.6 2.7 1.3zM224.6 386.9c-.1.7-1.3 1.2-2.7 1.2-.5 0-.9-.1-1.3-.2-.5-.2-1.1-.2-1.8-.1-.4.1-.8.2-1 .3l-.4.2-.5 2.9H210l-.5-.2c-.3-.1-.5-.2-.6-.4-.2-.3.1-.5.5-.8.3-.2.5-.4.5-.6.1-.6-1-1.1-2.6-1.1s-3 .5-3.1 1.1c-.1.2.1.4.3.6.3.2.4.5.1.8-.2.2-.5.3-.8.4l-.6.2h-6.9l.8-2.9-.3-.2c-.2-.1-.5-.2-.9-.3H194.4c-.1 0-.2 0-.3.1-.1 0-.2.1-.3.1-.1 0-.2 0-.3.1H192c-.1 0-.3 0-.4-.1-.1 0-.2-.1-.3-.1-.1 0-.2-.1-.2-.1-.1-.1-.3-.2-.4-.3l-.1-.1s0-.1-.1-.1c0 0 0 0 0 0V387c.2-.7 1.5-1.2 2.9-1.2.5 0 .9.1 1.3.2.5.1 1.1.2 1.7.1.4-.1.8-.2 1.1-.3l.4-.2.8-2.8h19.7l-.5 2.8.3.2c.2.1.5.2.9.3.6.1 1.2 0 1.8-.1.4-.1.9-.2 1.3-.2 1.4-.1 2.4.4 2.4 1.1z"/><path class="st7" d="M192.6 388.1h.4-.9.5zM194 387.9c.1 0 .2 0 .3-.1-.1.1-.2.1-.3.1-.1 0-.2.1-.3.1.1-.1.2-.1.3-.1z"/><path class="st6" d="M251.2 395.8c0 .7 1.2 1.3 2.7 1.3.5 0 1-.1 1.4-.2.5-.2 1.2-.2 1.9-.1.4.1.8.2 1 .3l.4.2.2 3.3h-7.3l-.6-.2c-.4-.1-.6-.3-.8-.5-.2-.3-.1-.6.3-.9.3-.2.4-.4.4-.6 0-.7-1.4-1.2-3-1.2-1.7 0-3 .5-3 1.2 0 .2.1.5.4.6.4.3.5.6.3.9-.2.2-.4.4-.8.5l-.6.2H237l.2-3.3.4-.2c.2-.2.6-.3 1-.3.6-.1 1.3 0 1.9.1.4.1.9.2 1.4.2 1.5 0 2.7-.6 2.7-1.3 0-.7-1.2-1.3-2.6-1.3-.5 0-1 .1-1.4.2-.5.2-1.2.2-1.9.1-.4-.1-.8-.2-1-.3l-.3-.2.2-3h6.9l.5-.2c.3-.1.6-.3.7-.4.2-.3.1-.5-.3-.8-.3-.2-.4-.4-.4-.6 0-.6 1.3-1.1 2.9-1.1 1.6 0 2.9.5 2.9 1.1 0 .2-.1.4-.4.6-.4.2-.5.5-.3.8.1.2.4.3.7.4l.5.2h6.9l.2 3-.3.2c-.2.2-.6.3-1 .3-.6.1-1.3 0-1.9-.1-.4-.1-.9-.2-1.4-.2-1.5 0-2.6.6-2.6 1.3zM271.2 386.9c.1.7 1.3 1.2 2.7 1.2.5 0 .9-.1 1.3-.2.5-.2 1.1-.2 1.7-.1.4.1.8.2 1 .3l.4.2.5 2.9H272l-.6-.2c-.4-.1-.6-.3-.8-.4-.2-.3-.1-.5.2-.8.3-.2.4-.4.3-.6-.1-.6-1.4-1.1-3-1.1s-2.8.5-2.7 1.1c0 .2.2.4.5.6.4.2.6.5.4.8-.1.2-.4.3-.7.4l-.5.2h-6.9l-.2-2.9.3-.2c.2-.1.6-.2 1-.3.6-.1 1.3 0 1.8.1.4.1.8.2 1.3.2 1.4 0 2.5-.5 2.5-1.2-.1-.7-1.3-1.2-2.6-1.2-.5 0-.9.1-1.3.2-.5.1-1.2.2-1.8.1-.4-.1-.8-.2-1-.3l-.4-.2-.2-2.8h19.7l.5 2.8-.3.2c-.2.1-.5.2-.9.3-.6.1-1.2 0-1.8-.1-.4-.1-.9-.2-1.3-.2-1.3 0-2.4.5-2.3 1.2z"/><path class="st6" d="M264.9 386.9c.1.7-1 1.2-2.5 1.2-.5 0-.9-.1-1.3-.2-.5-.2-1.2-.2-1.8-.1-.4.1-.8.2-1 .3l-.3.2.2 2.9h-6.9l-.5-.2c-.3-.1-.6-.2-.7-.4-.2-.3-.1-.5.3-.8.3-.2.4-.4.4-.6 0-.6-1.3-1.1-2.9-1.1-1.6 0-2.9.5-2.9 1.1 0 .2.2.4.4.6.4.2.5.5.3.8-.1.2-.4.3-.7.4l-.5.2h-6.9l.2-2.9-.3-.2c-.2-.1-.6-.2-1-.3-.6-.1-1.3 0-1.8.1-.4.1-.9.2-1.3.2-1.4 0-2.5-.5-2.4-1.2.1-.7 1.2-1.2 2.6-1.2.5 0 .9.1 1.3.2.5.1 1.1.2 1.8.1.4-.1.8-.2 1-.3l.4-.2.2-2.8H258l.2 2.8.4.2c.2.1.6.2 1 .3.6.1 1.2 0 1.8-.1.4-.1.8-.2 1.3-.2 1 0 2.2.5 2.2 1.2zM305.3 386.9c.2.7-.8 1.2-2.2 1.2-.5 0-1-.1-1.4-.2-.6-.2-1.2-.2-1.8-.1-.4.1-.7.2-.9.3l-.3.2.8 2.9h-6.9l-.6-.2c-.4-.1-.6-.2-.8-.4-.3-.3-.2-.5.1-.8.2-.2.3-.4.3-.6-.2-.6-1.6-1.1-3.1-1.1-1.6 0-2.8.5-2.6 1.1 0 .2.2.4.5.6.4.2.6.5.5.8-.1.2-.3.3-.6.4l-.5.2h-6.9l-.5-2.9-.4-.2c-.2-.1-.6-.2-1-.3-.6-.1-1.2 0-1.7.1-.4.1-.8.2-1.3.2-1.4 0-2.6-.5-2.7-1.2-.1-.7 1-1.2 2.4-1.2.5 0 .9.1 1.3.2.5.1 1.2.2 1.8.1.4-.1.7-.2.9-.3l.3-.2-.5-2.8h19.7l.8 2.8.4.2c.3.1.6.2 1.1.3.6.1 1.2 0 1.7-.1.3-.1.8-.2 1.3-.2 1.3 0 2.6.5 2.8 1.2z"/><path class="st6" d="M308.3 395.8c.2.7-.8 1.3-2.3 1.3-.5 0-1-.1-1.5-.2-.6-.2-1.3-.2-1.9-.1-.4.1-.7.2-.9.3l-.3.2.9 3.3H295l-.6-.2c-.4-.1-.7-.3-.9-.5-.3-.3-.2-.6.1-.9.2-.2.3-.4.3-.6-.2-.7-1.7-1.2-3.3-1.2-1.7 0-2.9.5-2.8 1.2 0 .2.3.5.6.6.4.3.7.6.5.9-.1.2-.3.4-.7.5l-.5.2h-7.3l-.6-3.3-.4-.2c-.3-.2-.6-.3-1.1-.3-.7-.1-1.3 0-1.9.1-.4.1-.9.2-1.4.2-1.5 0-2.8-.6-2.9-1.3-.1-.7 1-1.3 2.5-1.3.5 0 1 .1 1.4.2.6.2 1.3.2 1.9.1.4-.1.8-.2 1-.3l.3-.2-.5-3h6.9l.5-.2c.3-.1.5-.3.6-.4.1-.3-.1-.5-.5-.8-.3-.2-.5-.4-.5-.6-.1-.6 1-1.1 2.6-1.1s3 .5 3.1 1.1c.1.2-.1.4-.3.6-.3.2-.4.5-.1.8.2.2.5.3.8.4l.6.2h6.9l.9 3 .4.2c.3.2.7.3 1.1.3.7.1 1.3 0 1.8-.1.4-.1.8-.2 1.3-.2 1.8 0 3.2.6 3.5 1.3zM316.9 382.7l3.4 8.5h-6.9l-.6-.2c-.4-.1-.7-.3-.9-.4-.3-.3-.2-.5 0-.8.2-.2.3-.4.2-.6-.2-.6-1.7-1.1-3.3-1.1-1.6 0-2.7.5-2.5 1.1.1.2.3.4.6.6.4.2.7.5.6.8-.1.2-.3.3-.6.4l-.5.2h-6.9l-.8-2.9.3-.2c.2-.1.5-.2.9-.3.6-.1 1.2 0 1.8.1.4.1.9.2 1.4.2 1.4 0 2.4-.5 2.2-1.2-.2-.7-1.5-1.2-2.9-1.2-.5 0-.9.1-1.3.2-.5.1-1.1.2-1.7.1-.4-.1-.8-.2-1.1-.3l-.4-.2-.8-2.8h19.8zM215.2 400.7l-1.8 10.5h-7.7l-.6-.2c-.4-.1-.6-.3-.7-.5-.2-.3.1-.7.6-1 .3-.2.6-.5.6-.7.2-.8-1.1-1.4-2.9-1.4-1.8 0-3.3.6-3.5 1.4-.1.3 0 .5.3.7.3.3.4.6.1 1-.2.2-.5.4-.9.5l-.6.2h-7.7l3-10.5h7.3l.6-.2c.4-.1.7-.3.9-.5.3-.3.2-.6-.1-.9-.2-.2-.3-.4-.3-.6.2-.7 1.6-1.2 3.3-1.2 1.7 0 2.9.5 2.7 1.2 0 .2-.3.5-.6.6-.4.3-.7.6-.5.9.1.2.3.4.7.5l.5.2h7.3zM251.4 405.8c0 .8 1.3 1.5 2.9 1.5.5 0 1-.1 1.5-.2.6-.2 1.3-.3 2-.2.5.1.9.2 1.1.4l.4.3.2 3.6h-7.7l-.6-.2c-.4-.1-.7-.3-.8-.5-.2-.3-.1-.7.3-1 .3-.2.5-.5.5-.7 0-.8-1.4-1.4-3.2-1.4-1.8 0-3.2.6-3.2 1.4 0 .3.2.5.5.7.4.3.6.6.3 1-.2.2-.4.4-.8.5l-.6.2h-7.7l.2-3.6.4-.3c.3-.2.7-.3 1.1-.4.7-.1 1.4 0 2 .2.4.1.9.2 1.5.2 1.6 0 2.9-.7 2.9-1.5s-1.2-1.5-2.8-1.5c-.5 0-1 .1-1.5.2-.6.2-1.3.3-2 .2-.4-.1-.8-.2-1.1-.4l-.4-.3.2-3.4h7.3l.6-.2c.4-.1.6-.3.8-.5.2-.3.1-.6-.3-.9-.3-.2-.4-.4-.4-.6 0-.7 1.4-1.2 3-1.2 1.7 0 3 .5 3 1.2 0 .2-.2.5-.4.6-.4.3-.5.6-.3.9.2.2.4.4.8.5l.6.2h7.3l.2 3.4-.4.3c-.2.2-.6.3-1.1.4-.7.1-1.4 0-2-.2-.4-.1-.9-.2-1.5-.2-1.6 0-2.9.7-2.8 1.5z"/><path class="st6" d="M272.4 395.8c.1.7 1.4 1.3 2.9 1.3.5 0 1-.1 1.4-.2.5-.2 1.2-.2 1.9-.1.4.1.8.2 1.1.3l.4.2.6 3.3h-7.3l-.6-.2c-.4-.1-.7-.3-.8-.5-.3-.3-.1-.6.2-.9.3-.2.4-.4.4-.6-.1-.7-1.5-1.2-3.2-1.2-1.7 0-3 .5-2.9 1.2 0 .2.2.5.5.6.4.3.6.6.4.9-.1.2-.4.4-.7.5l-.6.2h-7.3l-.2-3.3-.4-.2c-.2-.2-.6-.3-1-.3-.6-.1-1.3 0-1.9.1-.4.1-.9.2-1.4.2-1.5 0-2.7-.6-2.7-1.3 0-.7 1.2-1.3 2.6-1.3.5 0 1 .1 1.4.2.6.2 1.2.2 1.9.1.4-.1.8-.2 1-.3l.3-.2-.2-3h6.9l.5-.2c.3-.1.6-.2.7-.4.2-.3 0-.5-.4-.8-.3-.2-.5-.4-.5-.6-.1-.6 1.2-1.1 2.7-1.1s2.9.5 3 1.1c0 .2-.1.4-.3.6-.3.2-.5.5-.2.8.2.2.4.3.8.4l.6.2h6.9l.5 3-.3.2c-.2.2-.5.3-1 .3-.6.1-1.3 0-1.9-.1-.4-.1-.9-.2-1.4-.2-1.4 0-2.5.6-2.4 1.3z"/><path class="st6" d="M311.5 405.8c.3.8-.8 1.5-2.4 1.5-.5 0-1.1-.1-1.5-.2-.6-.2-1.4-.3-2-.2-.4.1-.8.2-1 .4l-.3.3 1 3.6h-7.7l-.7-.2c-.4-.1-.7-.3-.9-.5-.3-.3-.2-.7.1-1 .2-.2.4-.5.3-.7-.2-.8-1.8-1.4-3.5-1.4-1.8 0-3 .6-2.9 1.4.1.3.3.5.6.7.5.3.7.6.6 1-.1.2-.3.4-.7.5l-.6.2h-7.7l-1.8-10.5h7.3l.5-.2c.3-.1.6-.3.7-.5.1-.3-.1-.6-.5-.9-.3-.2-.5-.4-.6-.6-.1-.7 1.1-1.2 2.8-1.2 1.7 0 3.1.5 3.3 1.2.1.2-.1.5-.3.6-.3.3-.4.6-.1.9.2.2.5.4.9.5l.6.2h7.3l1 3.4.5.3c.3.2.7.3 1.2.4.7.1 1.4 0 1.9-.2.4-.1.8-.2 1.4-.2 1.5-.1 3 .6 3.2 1.4zM320.3 391.2l3.8 9.4h-7.3l-.6-.2c-.4-.1-.7-.3-.9-.5-.3-.3-.3-.6 0-.9.2-.2.3-.4.2-.6-.2-.7-1.8-1.2-3.5-1.2s-2.8.5-2.6 1.2c.1.2.3.5.7.6.5.3.7.6.6.9-.1.2-.3.4-.6.5l-.5.2h-7.3l-.9-3.3.3-.2c.2-.2.5-.3.9-.3.6-.1 1.3 0 1.9.1.4.1.9.2 1.5.2 1.5 0 2.5-.6 2.3-1.3-.2-.7-1.6-1.3-3.1-1.3-.5 0-1 .1-1.3.2-.5.2-1.2.2-1.8.1-.4-.1-.9-.2-1.1-.3l-.4-.2-.9-3h6.9l.5-.2c.3-.1.5-.2.6-.4.1-.3-.1-.5-.6-.8-.3-.2-.5-.4-.6-.6-.2-.6.9-1.1 2.5-1.1s3 .5 3.3 1.1c.1.2 0 .4-.2.6-.3.2-.3.5 0 .8.2.2.5.3.9.4l.6.2h6.7z"/><path class="st6" d="m324.1 400.7 4.2 10.5h-7.7l-.6-.2c-.4-.1-.8-.3-1-.5-.3-.3-.3-.7 0-1 .2-.2.3-.5.2-.7-.3-.8-1.9-1.4-3.7-1.4-1.8 0-3 .6-2.7 1.4.1.3.3.5.7.7.5.3.8.6.7 1-.1.2-.3.4-.6.5l-.5.2h-7.7l-1-3.6.3-.3c.2-.2.5-.3 1-.4.6-.1 1.4 0 2 .2.5.1 1 .2 1.5.2 1.6 0 2.6-.7 2.4-1.5-.3-.8-1.7-1.5-3.3-1.5-.5 0-1 .1-1.4.2-.5.2-1.2.3-1.9.2-.5-.1-.9-.2-1.2-.4l-.5-.3-1-3.4h7.3l.5-.2c.3-.1.5-.3.6-.5.1-.3-.2-.6-.6-.9-.3-.2-.6-.4-.7-.6-.2-.7 1-1.2 2.6-1.2 1.7 0 3.2.5 3.5 1.2.1.2 0 .5-.2.6-.3.3-.3.6 0 .9.2.2.5.4.9.5l.6.2h7.3zM184.2 405.8c-.3.8.8 1.5 2.4 1.5.5 0 1.1-.1 1.5-.2.6-.2 1.4-.3 2-.2.4.1.8.2 1 .4l.3.3-1 3.6h-7.7l-.5-.2c-.3-.1-.5-.3-.6-.5-.1-.3.2-.7.7-1 .4-.2.6-.4.7-.7.2-.8-1-1.4-2.7-1.4-1.8 0-3.4.6-3.7 1.4-.1.3 0 .5.2.7.3.3.4.6 0 1-.2.2-.6.4-1 .5l-.7.2h-7.7l4.2-10.5h7.3l.6-.2c.4-.1.7-.3.9-.5.3-.3.3-.6 0-.9-.2-.2-.3-.4-.2-.6.2-.7 1.8-1.2 3.5-1.2s2.8.5 2.6 1.2c-.1.2-.3.5-.6.6-.5.3-.7.6-.6.9.1.2.3.4.6.5l.5.2h7.3l-1 3.4-.5.3c-.3.2-.7.3-1.2.4-.7.1-1.4 0-1.9-.2-.4-.1-.9-.2-1.4-.2-1.5-.1-3 .6-3.3 1.4z"/><path class="st7" d="m182.2 411 .5.2H175l.7-.2c.4-.1.7-.3 1-.5.3-.3.3-.7 0-1-.2-.2-.3-.5-.2-.7.3-.8 1.9-1.4 3.7-1.4 1.8 0 3 .6 2.7 1.4-.1.3-.3.5-.7.7-.5.3-.8.6-.7 1 .1.2.3.3.7.5zM192.4 404l-1 3.5-.3-.3c-.2-.2-.5-.3-1-.4-.6-.1-1.4 0-2 .2-.5.1-1 .2-1.5.2-1.6 0-2.6-.7-2.4-1.5.3-.8 1.7-1.5 3.3-1.5.5 0 1 .1 1.4.2.5.2 1.2.3 1.9.2.5-.1.9-.2 1.2-.4l.4-.2z"/><path class="st7" d="m192.4 404-1 3.5-.3-.3c-.2-.2-.5-.3-1-.4-.6-.1-1.4 0-2 .2-.5.1-1 .2-1.5.2-1.6 0-2.6-.7-2.4-1.5.3-.8 1.7-1.5 3.3-1.5.5 0 1 .1 1.4.2.5.2 1.2.3 1.9.2.5-.1.9-.2 1.2-.4l.4-.2z"/><path class="st6" d="M145.8 421.8c-.2.9 1 1.7 2.6 1.7.6 0 1.1-.1 1.6-.2.7-.2 1.4-.3 2.1-.2.5.1.9.2 1.1.4l.4.3-.7 4.1h-8.1l-.6-.2c-.4-.1-.6-.3-.7-.6-.2-.4.1-.8.6-1.1.4-.2.6-.5.7-.8.2-.8-1.2-1.5-3-1.5-1.9 0-3.5.7-3.7 1.5-.1.3 0 .6.3.8.3.3.4.7.1 1.1-.2.3-.6.5-1 .6l-.7.2h-8.1l1.2-4.1-.3-.3c-.2-.2-.6-.3-1-.4-.7-.1-1.5 0-2.1.2-.5.2-1.1.2-1.6.2-1.7 0-2.8-.7-2.5-1.7.3-.9 1.9-1.6 3.5-1.6.6 0 1.1.1 1.5.2.5.2 1.3.3 2 .2.5-.1.9-.2 1.3-.4l.5-.3 1.1-3.8h7.7l.6-.2c.4-.1.7-.3.9-.5.3-.3.2-.7-.1-1-.2-.2-.4-.5-.3-.7.2-.8 1.8-1.4 3.5-1.4 1.8 0 3 .6 2.9 1.4-.1.3-.3.5-.6.7-.5.3-.7.6-.6 1 .1.2.3.4.7.5l.6.2h7.7l-.7 3.8-.5.3c-.3.2-.7.3-1.2.4-.7.1-1.5 0-2-.2-.4-.2-.9-.2-1.5-.2-1.9-.1-3.4.7-3.6 1.6zM244.2 416.9c0 .9-1.4 1.7-3 1.7-.6 0-1.1-.1-1.5-.2-.6-.2-1.4-.3-2.1-.2-.5.1-.9.2-1.2.4l-.4.3-.2 4.1h-8.1l-.6-.2c-.4-.1-.7-.3-.8-.6-.2-.4 0-.8.5-1.1.3-.2.5-.5.6-.8.1-.8-1.3-1.5-3.2-1.5-1.9 0-3.5.7-3.6 1.5 0 .3.1.6.4.8.4.3.5.7.2 1.1-.2.2-.5.5-.9.6l-.7.2h-8.1l.7-4.1-.4-.3c-.2-.2-.6-.3-1.1-.4-.7-.1-1.5 0-2.1.2-.5.2-1 .2-1.6.2-1.7 0-2.8-.7-2.6-1.7.2-.9 1.7-1.6 3.3-1.6.6 0 1.1.1 1.5.2.6.2 1.3.3 2 .2.5-.1.9-.2 1.2-.4l.5-.3.7-3.8h7.7l.6-.2c.4-.1.7-.3.9-.5.3-.3.1-.7-.2-1-.3-.2-.4-.5-.4-.7.1-.8 1.6-1.4 3.4-1.4 1.8 0 3.1.6 3 1.4 0 .3-.2.5-.5.7-.4.3-.6.6-.4 1 .1.2.4.4.8.5l.6.2h7.7l-.2 3.8.4.3c.2.2.6.3 1.1.4.7.1 1.5 0 2.1-.2.5-.2 1-.2 1.5-.2 1.2-.1 2.5.6 2.5 1.6z"/><path class="st6" d="M251.5 416.9c0 .9 1.4 1.7 3 1.7.6 0 1.1-.1 1.5-.2.6-.2 1.4-.3 2.1-.2.5.1.9.2 1.2.4l.4.3.2 4.1h-8.1l-.6-.2c-.4-.1-.7-.3-.9-.6-.3-.4-.1-.8.4-1.1.3-.2.5-.5.5-.8 0-.8-1.5-1.5-3.4-1.5s-3.4.7-3.4 1.5c0 .3.2.6.5.8.4.3.6.7.3 1.1-.2.3-.5.5-.9.6l-.6.2h-8.1l.2-4.1.4-.3c.3-.2.7-.3 1.2-.4.7-.1 1.5 0 2.1.2.4.2 1 .2 1.5.2 1.7 0 3-.7 3-1.7 0-.9-1.3-1.6-2.9-1.6-.6 0-1.1.1-1.5.2-.6.2-1.4.3-2.1.2-.5-.1-.9-.2-1.1-.4l-.4-.3.2-3.8h7.7l.6-.2c.4-.1.7-.3.8-.5.2-.3.1-.7-.3-1-.3-.2-.5-.5-.5-.7 0-.8 1.4-1.4 3.2-1.4 1.8 0 3.2.6 3.2 1.4 0 .3-.2.5-.5.7-.4.3-.6.6-.3 1 .2.2.4.4.8.5l.6.2h7.7l.2 3.8-.4.3c-.2.2-.6.3-1.1.4-.7.1-1.5 0-2.1-.2-.5-.2-1-.2-1.5-.2-1.5-.1-2.8.6-2.8 1.6zM163.4 403.3c0 .8-1.3 1.5-2.9 1.5-.5 0-1-.1-1.5-.2-.6-.2-1.3-.3-2-.2-.5.1-.9.2-1.1.4l-.4.3-.2 3.6h-7.7l-.6-.2c-.4-.1-.6-.3-.8-.5-.2-.3 0-.7.4-1 .3-.2.5-.5.5-.7.1-.8-1.3-1.4-3-1.4-1.8 0-3.3.6-3.4 1.4 0 .3.1.5.4.7.4.3.5.6.2 1-.2.2-.5.4-.9.5l-.6.2h-7.7l1.8-10.5h7.3l.6-.2c.4-.1.7-.3.8-.5.2-.3.1-.6-.2-.9-.3-.2-.4-.4-.4-.6.1-.7 1.5-1.2 3.2-1.2 1.7 0 3 .5 2.9 1.2 0 .2-.2.5-.5.6-.4.3-.6.6-.4.9.1.2.4.4.7.5l.6.2h7.3l-.2 3.4.4.3c.2.2.6.3 1.1.4.7.1 1.4 0 2-.2.4-.1.9-.2 1.5-.2 1.6 0 2.8.6 2.8 1.4zM280.6 400.7l1.8 10.5h-7.7l-.6-.2c-.4-.1-.7-.3-.9-.5-.3-.3-.1-.7.2-1 .3-.2.4-.5.4-.7-.1-.8-1.6-1.4-3.4-1.4-1.8 0-3.1.6-3 1.4 0 .3.2.5.5.7.4.3.6.6.4 1-.1.2-.4.4-.7.5l-.6.2h-7.7l-.2-3.6-.4-.3c-.3-.2-.7-.3-1.1-.4-.7-.1-1.4 0-2 .2-.4.1-.9.2-1.5.2-1.6 0-2.9-.7-2.9-1.5s1.2-1.5 2.8-1.5c.5 0 1 .1 1.5.2.6.2 1.3.3 2 .2.4-.1.8-.2 1.1-.4l.4-.3-.2-3.4h7.3l.6-.2c.3-.1.6-.3.7-.5.2-.3 0-.6-.4-.9-.3-.2-.5-.4-.5-.6-.1-.7 1.2-1.2 2.9-1.2s3.1.5 3.2 1.2c0 .2-.1.5-.4.6-.3.3-.5.6-.2.9.2.2.5.4.8.5l.6.2h7.2zM298.9 416.9c.2.9 1.8 1.7 3.4 1.7.6 0 1.1-.1 1.5-.2.6-.2 1.3-.3 2.1-.2.5.1.9.2 1.3.4l.5.3 1.2 4.1h-8.1l-.7-.2c-.4-.1-.8-.3-1-.6-.3-.4-.2-.8.1-1.1.3-.2.4-.5.3-.8-.2-.8-1.9-1.5-3.7-1.5-1.9 0-3.2.7-3 1.5.1.3.3.6.7.8.5.3.8.7.6 1.1-.1.3-.4.5-.7.6l-.6.2h-8.1l-.7-4.1.4-.3c.2-.2.6-.3 1.1-.4.7-.1 1.5 0 2.1.2.5.2 1 .2 1.6.2 1.7 0 2.8-.7 2.6-1.7-.2-.9-1.7-1.6-3.3-1.6-.6 0-1.1.1-1.5.2-.6.2-1.3.3-2 .2-.5-.1-.9-.2-1.2-.4l-.5-.3-.7-3.8h7.7l.6-.2c.3-.1.6-.3.7-.5.2-.3-.1-.7-.6-1-.3-.2-.6-.5-.6-.7-.2-.8 1.1-1.4 2.9-1.4 1.8 0 3.3.6 3.5 1.4.1.3 0 .5-.3.7-.3.3-.4.6-.1 1 .2.2.5.4.9.5l.7.2h7.7l1.1 3.8-.3.3c-.2.2-.6.3-1 .4-.7.1-1.4 0-2.1-.2-.5-.2-1-.2-1.6-.2-2-.1-3.2.6-2.9 1.6zM180.6 416.9c-.3.9.8 1.7 2.5 1.7.6 0 1.1-.1 1.6-.2.7-.2 1.5-.3 2.1-.2.5.1.8.2 1 .4l.3.3-1.2 4.1h-24.4l4.7-11.7h7.7l.7-.2c.4-.1.7-.3 1-.5.3-.3.3-.7 0-1-.2-.2-.3-.5-.2-.7.3-.8 1.9-1.4 3.7-1.4 1.8 0 3 .6 2.7 1.4-.1.3-.3.5-.7.7-.5.3-.8.6-.7 1 .1.2.3.4.6.5l.5.2h7.7l-1.1 3.8-.5.3c-.3.2-.8.3-1.3.4-.7.1-1.5 0-2-.2-.4-.2-.9-.2-1.5-.2-1.4-.2-2.9.5-3.2 1.5z"/><path class="st6" d="M176.5 429.3c-.3 1 .8 1.9 2.6 1.9.6 0 1.2-.1 1.7-.3.7-.2 1.6-.3 2.3-.2.5.1.9.3 1.1.5l.3.3-1.3 4.6h-25.9l5.3-13.2h8.1l.7-.2c.4-.1.8-.3 1.1-.6.4-.4.3-.8 0-1.1-.2-.2-.3-.5-.2-.8.3-.8 2.1-1.5 3.9-1.5s3.1.7 2.9 1.5c-.1.3-.4.6-.8.8-.5.3-.8.7-.7 1.1.1.3.3.5.7.6l.6.2h8.1l-1.2 4.2-.5.3c-.3.2-.8.4-1.3.5-.8.1-1.6 0-2.1-.2-.4-.2-1-.3-1.5-.3-1.9 0-3.5.9-3.9 1.9zM226.7 429.3c-.1 1 1.2 1.9 3 1.9.6 0 1.2-.1 1.7-.3.7-.2 1.5-.3 2.2-.2.5.1.9.3 1.2.5l.4.3-.3 4.6h-8.6l-.6-.2c-.4-.1-.7-.4-.8-.7-.2-.4 0-.8.5-1.2.4-.3.6-.6.6-.9.1-.9-1.4-1.7-3.4-1.7s-3.7.8-3.8 1.7c0 .3.1.6.4.9.4.4.5.8.2 1.2-.2.3-.6.5-1 .7l-.7.2h-8.6l.8-4.6.5-.3c.3-.2.8-.4 1.3-.5.8-.1 1.6 0 2.2.2.5.2 1 .3 1.6.3 1.8 0 3.3-.8 3.4-1.9.1-1-1.2-1.8-2.9-1.8-.6 0-1.2.1-1.7.3-.7.2-1.5.3-2.2.2-.5-.1-.9-.2-1.1-.5l-.4-.3.7-4.2h8.1l.7-.2c.4-.1.7-.3.9-.6.3-.4.2-.8-.2-1.1-.3-.2-.4-.5-.4-.8.1-.8 1.7-1.5 3.6-1.5 1.9 0 3.3.7 3.2 1.5 0 .3-.2.6-.6.8-.4.3-.7.7-.5 1.1.1.3.4.5.8.6l.6.2h8.1l-.2 4.2-.4.3c-.3.2-.7.4-1.2.5-.7.1-1.5 0-2.2-.2-.5-.2-1-.3-1.6-.3-1.7-.1-3.2.7-3.3 1.8zM294.2 429.3c.2 1-1 1.9-2.8 1.9-.6 0-1.2-.1-1.7-.3-.7-.2-1.5-.3-2.2-.2-.5.1-.9.3-1.1.5l-.4.3.8 4.6h-8.6l-.7-.2c-.4-.1-.8-.4-1-.7-.3-.4-.2-.8.2-1.2.3-.3.4-.6.4-.9-.1-.9-1.8-1.7-3.8-1.7-2 0-3.5.8-3.4 1.7 0 .3.2.6.6.9.5.4.7.8.5 1.2-.1.3-.4.5-.8.7l-.6.2H261l-.3-4.6.4-.3c.3-.2.7-.4 1.2-.5.7-.1 1.6 0 2.2.2.5.2 1.1.3 1.7.3 1.8 0 3.1-.8 3-1.9-.1-1-1.6-1.8-3.3-1.8-.6 0-1.1.1-1.6.3-.6.2-1.4.3-2.2.2-.5-.1-1-.2-1.2-.5l-.4-.3-.2-4.2h8.1l.6-.2c.4-.1.7-.3.8-.6.2-.4 0-.8-.5-1.1-.3-.2-.5-.5-.6-.8-.1-.8 1.3-1.5 3.2-1.5 1.9 0 3.5.7 3.6 1.5 0 .3-.1.6-.4.8-.4.3-.5.7-.2 1.1.2.3.5.5.9.6l.7.2h8.1l.7 4.2.5.3c.3.2.8.4 1.3.5.8.1 1.5 0 2.2-.2.4-.2 1-.3 1.6-.3 1.5-.1 3 .7 3.3 1.8z"/><path class="st6" d="M301.9 429.3c.3 1 1.9 1.9 3.7 1.9.6 0 1.1-.1 1.6-.3.6-.2 1.4-.3 2.2-.2.5.1 1 .3 1.4.5l.5.3 1.3 4.6H304l-.7-.2c-.4-.1-.8-.4-1.1-.7-.4-.4-.3-.9.1-1.2.3-.3.4-.6.3-.9-.2-.9-2-1.7-4-1.7s-3.4.8-3.2 1.7c.1.3.3.6.7.9.5.4.8.8.7 1.2-.1.3-.4.5-.8.7l-.6.2h-8.6l-.8-4.6.4-.3c.2-.2.6-.4 1.1-.5.7-.1 1.6 0 2.2.2.5.2 1.1.3 1.7.3 1.8 0 3-.8 2.8-1.9-.2-1-1.8-1.8-3.5-1.8-.6 0-1.1.1-1.6.3-.6.2-1.4.3-2.2.2-.5-.1-1-.2-1.3-.5l-.5-.3-.7-4.2h8.1l.6-.2c.4-.1.6-.3.7-.6.2-.4-.1-.8-.6-1.1-.4-.2-.6-.5-.7-.8-.2-.8 1.2-1.5 3-1.5 1.9 0 3.5.7 3.7 1.5.1.3 0 .6-.3.8-.4.3-.4.7-.1 1.1.2.2.6.5 1 .6l.7.2h8.1l1.2 4.2-.3.3c-.2.2-.6.4-1.1.5-.7.1-1.5 0-2.3-.2-.5-.2-1.1-.3-1.7-.3-1.5-.1-2.7.7-2.5 1.8zM375.5 411.5c.2.9-1 1.7-2.6 1.7-.6 0-1.1-.1-1.6-.2-.7-.2-1.4-.3-2.1-.2-.5.1-.9.2-1.1.4l-.4.3.7 4.1h-8.1l-.7-.2c-.4-.1-.7-.3-.9-.6-.3-.4-.2-.8.2-1.1.3-.2.4-.5.4-.8-.1-.8-1.7-1.5-3.6-1.5-1.9 0-3.3.7-3.2 1.5 0 .3.2.6.6.8.5.3.7.7.5 1.1-.1.2-.4.5-.8.6l-.6.2H344l-.2-4.1-.4-.3c-.3-.2-.7-.3-1.2-.4-.7-.1-1.5 0-2.1.2-.4.2-1 .2-1.5.2-1.7 0-3-.7-3-1.7 0-.9 1.3-1.6 2.9-1.6.6 0 1.1.1 1.5.2.6.2 1.4.3 2.1.2.5-.1.9-.2 1.1-.4l.4-.3-.2-3.8h7.7l.6-.2c.4-.1.6-.3.7-.5.2-.3 0-.7-.4-1-.3-.2-.5-.5-.5-.7-.1-.8 1.3-1.4 3-1.4 1.8 0 3.3.6 3.4 1.4 0 .3-.1.5-.4.7-.4.3-.5.6-.2 1 .2.2.5.4.9.5l.6.2h7.7l.7 3.8.5.3c.3.2.7.3 1.2.4.7.1 1.5 0 2-.2.4-.2.9-.2 1.5-.2 1.4-.1 2.9.6 3.1 1.6zM328.4 411.2l4.7 11.7H325l-.7-.2c-.4-.1-.8-.3-1.1-.6-.4-.4-.3-.8 0-1.1.2-.2.3-.5.2-.8-.3-.8-2.1-1.5-3.9-1.5-1.9 0-3.1.7-2.9 1.5.1.3.4.6.8.8.5.3.8.7.7 1.1-.1.2-.3.5-.7.6l-.6.2h-8.1l-1.2-4.1-.5-.3c-.3-.2-.8-.3-1.3-.4-.7-.1-1.5 0-2.1.2-.4.2-.9.2-1.5.2-1.7 0-3.2-.7-3.4-1.7-.2-.9.9-1.6 2.6-1.6.6 0 1.1.1 1.6.2.7.2 1.4.3 2.1.2.5-.1.8-.2 1-.4l.3-.3-1.1-3.8h7.7l.5-.2c.3-.1.5-.3.6-.5.1-.3-.2-.7-.7-1-.4-.2-.6-.5-.7-.7-.2-.8 1-1.4 2.7-1.4 1.8 0 3.4.6 3.7 1.4.1.3 0 .5-.2.7-.3.3-.3.6 0 1 .2.2.6.4 1 .5l.7.2h7.9zM380.2 435.2l5.3 13.2h-8.6l-.8-.2c-.5-.1-.9-.4-1.1-.7-.4-.4-.4-.8 0-1.2.2-.3.3-.6.2-.9-.3-.9-2.2-1.7-4.2-1.7s-3.3.8-3 1.7c.1.3.4.6.8.9.6.4.9.8.8 1.2-.1.3-.3.5-.7.7l-.6.2h-8.6l-1.3-4.6-.5-.3c-.3-.2-.8-.4-1.4-.5-.8-.1-1.6 0-2.2.2-.4.2-1 .3-1.6.3-1.8 0-3.4-.8-3.7-1.9-.3-1 1-1.8 2.7-1.8.6 0 1.2.1 1.7.3.7.2 1.5.3 2.3.2.5-.1.9-.2 1.1-.5l.3-.3-1.2-4.2h8.1l.6-.2c.3-.1.6-.3.7-.6.1-.4-.2-.8-.7-1.1-.4-.2-.7-.5-.8-.8-.3-.8 1-1.5 2.9-1.5s3.6.7 3.9 1.5c.1.3 0 .6-.2.8-.3.3-.4.7 0 1.1.3.3.6.5 1.1.6l.7.2h8zM183.2 436.1l-4.3 14.9h-27.6l6-14.9h8.6l.8-.2c.5-.1.9-.4 1.1-.7.4-.4.4-.9 0-1.2-.2-.3-.3-.6-.2-.9.3-.9 2.2-1.7 4.2-1.7s3.3.8 3 1.7c-.1.3-.4.6-.8.9-.6.4-.9.8-.8 1.2.1.3.3.5.7.7l.6.2h8.7z"/><path class="st6" d="M198.6 443.3c-.2 1.2 1.1 2.1 2.9 2.1.6 0 1.3-.1 1.8-.3.8-.3 1.6-.4 2.4-.2.5.1 1 .3 1.2.5l.4.4-.9 5.2h-27.6l4.3-14.9h8.6l.7-.2c.5-.1.8-.4 1.1-.7.3-.4.3-.8-.1-1.2-.3-.3-.4-.6-.3-.9.2-.9 2-1.7 4-1.7s3.4.8 3.2 1.7c-.1.3-.3.6-.7.9-.5.4-.8.8-.7 1.2.1.3.4.5.8.7l.6.2h8.6l-.8 4.8-.5.4c-.3.2-.8.4-1.4.5-.8.1-1.6 0-2.3-.2-.5-.2-1-.3-1.7-.3-1.7-.1-3.3.8-3.6 2z"/><path class="st6" d="M225.3 443.3c-.1 1.2 1.3 2.1 3.2 2.1.6 0 1.3-.1 1.8-.3.7-.3 1.6-.4 2.4-.2.5.1 1 .3 1.3.5l.4.4-.3 5.2h-27.6l.9-5.2-.4-.4c-.2-.2-.7-.4-1.2-.5-.8-.2-1.7 0-2.4.2-.5.2-1.2.3-1.8.3-1.9 0-3.2-1-2.9-2.1.2-1.2 1.9-2.1 3.8-2.1.6 0 1.2.1 1.7.3.6.3 1.5.4 2.3.2.6-.1 1-.3 1.4-.5l.5-.4.8-4.8h8.6l.7-.2c.4-.1.8-.4 1-.7.3-.4.2-.9-.2-1.2-.3-.3-.4-.6-.4-.9.1-.9 1.8-1.7 3.8-1.7 2 0 3.5.8 3.4 1.7 0 .3-.3.6-.6.9-.5.4-.7.8-.5 1.2.1.3.4.5.8.7l.6.2h8.6l-.3 4.8-.5.4c-.3.2-.8.4-1.3.5-.8.1-1.6 0-2.3-.2-.5-.2-1.1-.3-1.7-.3-1.9 0-3.5.9-3.6 2.1z"/><path class="st6" d="M218.9 429.3c-.1 1-1.7 1.9-3.4 1.9-.6 0-1.1-.1-1.6-.3-.6-.2-1.4-.3-2.2-.2-.5.1-1 .3-1.3.5l-.5.3-.8 4.6h-8.6l-.6-.2c-.4-.1-.6-.4-.8-.7-.2-.4.1-.9.7-1.2.4-.3.6-.6.7-.9.2-.9-1.2-1.7-3.2-1.7s-3.8.8-4 1.7c-.1.3 0 .6.3.9.4.4.4.8.1 1.2-.2.3-.6.5-1.1.7l-.7.2h-8.6l1.3-4.6-.3-.3c-.2-.2-.6-.4-1.1-.5-.7-.1-1.6 0-2.3.2-.5.2-1.1.3-1.7.3-1.8 0-2.9-.8-2.6-1.9.3-1 2-1.8 3.7-1.8.6 0 1.1.1 1.5.3.6.2 1.4.3 2.1.2.5-.1 1-.2 1.3-.5l.5-.3 1.2-4.2h8.1l.7-.2c.4-.1.8-.3 1-.6.3-.4.2-.8-.1-1.1-.3-.2-.4-.5-.3-.8.2-.8 1.9-1.5 3.7-1.5 1.9 0 3.2.7 3 1.5-.1.3-.3.6-.7.8-.5.3-.8.7-.6 1.1.1.2.4.5.7.6l.6.2h8.1l-.7 4.2.4.3c.2.2.6.4 1.1.5.7.1 1.5 0 2.2-.2.5-.2 1.1-.3 1.7-.3 1.9-.1 3.2.7 3.1 1.8zM269.1 429.3c.1 1-1.2 1.9-3 1.9-.6 0-1.2-.1-1.7-.3-.7-.2-1.5-.3-2.2-.2-.5.1-.9.3-1.2.5l-.4.3.3 4.6h-8.6l-.7-.2c-.4-.1-.7-.4-.9-.7-.3-.4-.1-.9.4-1.2.3-.3.5-.6.5-.9 0-.9-1.6-1.7-3.6-1.7s-3.6.8-3.6 1.7c0 .3.2.6.5.9.4.4.6.8.4 1.2-.2.3-.5.5-.9.7l-.7.2h-8.6l.3-4.6-.4-.3c-.3-.2-.7-.4-1.2-.5-.7-.1-1.6 0-2.2.2-.5.2-1.1.3-1.7.3-1.8 0-3.1-.8-3-1.9.1-1 1.6-1.8 3.3-1.8.6 0 1.1.1 1.6.3.6.2 1.4.3 2.2.2.5-.1 1-.2 1.2-.5l.4-.3.2-4.2h8.1l.6-.2c.4-.1.7-.3.9-.6.2-.4.1-.8-.3-1.1-.3-.2-.5-.5-.5-.8 0-.8 1.5-1.5 3.4-1.5s3.4.7 3.4 1.5c0 .3-.2.6-.5.8-.4.3-.6.7-.4 1.1.2.2.5.5.9.6l.6.2h8.1l.2 4.2.4.3c.3.2.7.4 1.2.5.7.1 1.5 0 2.2-.2.5-.2 1-.3 1.6-.3 1.8-.1 3.3.7 3.4 1.8z"/><path class="st6" d="M270.4 443.3c.1 1.2-1.3 2.1-3.2 2.1-.6 0-1.3-.1-1.8-.3-.7-.3-1.6-.4-2.4-.2-.5.1-1 .3-1.3.5l-.4.4.3 5.2H234l.3-5.2-.4-.4c-.3-.2-.7-.4-1.3-.5-.8-.2-1.7 0-2.4.2-.5.2-1.1.3-1.8.3-1.9 0-3.3-1-3.2-2.1.1-1.2 1.7-2.1 3.5-2.1.6 0 1.2.1 1.7.3.7.3 1.5.4 2.3.2.5-.1 1-.3 1.3-.5l.5-.4.3-4.8h8.6l.7-.2c.4-.1.7-.4.9-.7.3-.4.1-.8-.4-1.2-.3-.3-.5-.6-.5-.9 0-.9 1.6-1.7 3.6-1.7s3.6.8 3.6 1.7c0 .3-.2.6-.5.9-.4.4-.6.8-.4 1.2.2.3.5.5.9.7l.7.2h8.6l.3 4.8.5.4c.3.2.8.4 1.3.5.8.1 1.6 0 2.3-.2.5-.2 1.1-.3 1.7-.3 2 0 3.6.9 3.7 2.1zM270.9 466.9c.2 1.2 1.8 2.1 3.7 2.1.6 0 1.2-.1 1.7-.3.6-.3 1.5-.4 2.3-.2.6.1 1 .3 1.4.5l.5.4.9 5.2h-27.6l-.3-5.2.4-.4c.3-.2.7-.4 1.3-.5.8-.2 1.7 0 2.4.2.5.2 1.1.3 1.8.3 1.9 0 3.3-1 3.2-2.1-.1-1.2-1.7-2.1-3.5-2.1-.6 0-1.2.1-1.7.3-.7.3-1.5.4-2.3.2-.5-.1-1-.3-1.3-.5l-.5-.4-.3-4.8h8.6l.6-.2c.4-.1.7-.4.8-.7.2-.4 0-.9-.5-1.2-.4-.3-.6-.6-.6-.9-.1-.9 1.4-1.7 3.4-1.7s3.7.8 3.8 1.7c0 .3-.1.6-.4.9-.4.4-.5.8-.2 1.2.2.3.6.5 1 .7l.7.2h8.6l.8 4.8-.4.4c-.2.2-.7.4-1.2.5-.8.1-1.6 0-2.4-.2-.5-.2-1.1-.3-1.8-.3-1.7 0-3.1.9-2.9 2.1z"/><path class="st7" d="m181.3 441.2.6-.4-1.4 5-.3-.4c-.2-.2-.6-.4-1.1-.5-.7-.2-1.7 0-2.4.2-.6.2-1.2.3-1.9.3-1.9 0-3.1-1-2.7-2.1.4-1.2 2.2-2.1 4-2.1.6 0 1.2.1 1.6.3.6.3 1.4.4 2.3.2.4-.1.9-.2 1.3-.5z"/><path class="st6" d="M305.4 443.3c.3 1.2 2.1 2.1 3.9 2.1.6 0 1.2-.1 1.7-.3.6-.3 1.5-.4 2.3-.2.6.1 1.1.3 1.4.5l.6.4 1.5 5.2h-27.6l-.9-5.2-.5-.4c-.3-.2-.8-.4-1.4-.5-.8-.2-1.7 0-2.3.2-.5.2-1.1.3-1.7.3-1.9 0-3.5-1-3.7-2.1-.2-1.2 1.2-2.1 3.1-2.1.6 0 1.2.1 1.8.3.7.3 1.6.4 2.4.2.5-.1 1-.3 1.2-.5l.4-.4-.8-4.8h8.6l.6-.2c.4-.1.6-.4.8-.7.2-.4-.1-.8-.7-1.2-.4-.3-.6-.6-.7-.9-.2-.9 1.2-1.7 3.2-1.7s3.8.8 4 1.7c.1.3 0 .6-.3.9-.4.4-.5.8-.1 1.2.2.3.6.5 1.1.7l.7.2h8.6l1.4 4.8-.4.4c-.2.2-.6.4-1.1.5-.7.1-1.6 0-2.4-.2-.6-.2-1.2-.3-1.8-.3-1.9 0-3.2.9-2.9 2.1z"/><path class="st6" d="m338.4 436.1 6 14.9h-27.6l-1.5-5.2-.6-.4c-.4-.2-.9-.4-1.4-.5-.9-.2-1.7 0-2.3.2-.5.2-1 .3-1.7.3-1.9 0-3.6-1-3.9-2.1-.3-1.2 1-2.1 2.8-2.1.6 0 1.2.1 1.8.3.8.3 1.6.4 2.4.2.5-.1.9-.3 1.1-.5l.4-.4-1.4-4.8h8.6l.6-.2c.4-.1.6-.4.7-.7.1-.4-.2-.9-.8-1.2-.4-.3-.7-.6-.8-.9-.3-.9 1-1.7 3-1.7s3.8.8 4.2 1.7c.1.3 0 .6-.2.9-.3.4-.4.8 0 1.2.3.3.7.5 1.1.7l.8.2h8.7z"/><path class="st4" d="m458.9 408.2-69.9 1.4c-3.8.1-7.6-1.6-8.4-3.7l-5.4-13.3c-.8-2.1-.7-6.3 3.1-6.4l72.1 1.1c2.5 0 5.1 1 5.6 2.5l6.6 13.1c.6 1.4-1.2 5.3-3.7 5.3z"/><path class="st8" d="m459.1 405.5-69.9 1.4c-3.8.1-7.6-1.6-8.4-3.7l-5.4-13.3c-.8-2.1 1.5-3.8 5.3-3.9l69.9-1.4c2.5 0 5.1 1 5.6 2.5l6.4 15.8c.6 1.4-1 2.5-3.5 2.6z"/><path class="st9" d="m458.3 402.9-72.6 1.4-6.4-15.7 72.7-1.4z"/><path class="st4" d="M216.4 84.7c-3.2 1.4-6 3.6-8.3 6.2-5.4 6.2-15.5 18.8-16.2 29.2-1 14.2-2.7 43.5-3.1 58.9-.4 15.4-9 11.3-5.2 21.5s14.6 18.5 49.2 18.5 38.7 1.9 56.5-13.8c13.6-12 22.3-25.4 16.9-30.6-5.4-5.2-11.2-17.5-14.2-36.3-3.1-18.8-11.3-44.8-25.2-51.7-12.6-6.6-31.1-10.7-50.4-1.9z"/><path class="st10" d="M252 107s-9.8 21.9-44.6 30.3M241.4 91.5s-30.3 12.5-40.5 40.9M260.3 105.8s4.5 15.9 19.3 21.6"/><path class="st10" d="M248.6 84.6s7.9 25 7.6 29.9c-.4 4.9-8.7 24.2-49.6 29.1"/><path class="st8" d="M228.7 202.8s-45.5 24-50.4 27.2c-4.9 3.1-6.3 4.6-6.3 7.7 0 3.1-20.3 82.1-21.2 88.1-.9 6 .9 7.7.9 7.7s-3.7 4.9-2.9 9.4c.9 4.6 3.1 7.4 5.4 10 2.3 2.6 35.5 31.2 38.6 33.2 0 0 5.2-10.3 8.3-12.9 3.1-2.6 5.2-3.7 5.2-3.7s-9.2-9.2-11.2-15.2-2.3-6.6-3.7-11.7c-1.4-5.2-4-11.2-4-11.2s5.7-4 5.7-14.3-1.1-10.6 0-14c1.1-3.4 3.1-14.6 3.1-14.6s4.3 26 6.3 33.2c2 7.2 4 15.2 3.4 18.6-.6 3.4-4.9 13.2-3.7 17.2 1.1 4 6.3 16.9 6.3 16.9h121.9s-4.3-36.3-6.9-44.9c-2.6-8.6-4-19.7-4-24.9s4.9-28.9 4.9-28.9l24.4 27.6s24.2-1.6 27.1-9.6c2.9-8 12.8-6.4 11.1-11.2-1.7-4.9-14.3-16-22-26.4-15.5-21-30.9-26.1-36-37.8-5.2-11.7-17.7-10-17.7-10l-40.9-8.4-41.7 2.9z"/><path class="st9" d="M260.3 263.9c2.7-2.7 20.5-49.7 21-54.7.2-2.5-1.7-5.5-3.7-7.8l-7-1.4-41.8 2.9s-3.2 1.7-7.9 4.2c-1 3.7-2 8.8-.7 12.7 2.3 6.7 37.4 46.9 40.1 44.1z"/><path class="st3" d="M229.3 290.4s21.9 22.3 48.3 29.6M280.3 328.6c1.3.5 2.5 1 3.7 1.4M245.7 312.3s17.1 8.9 31.2 14.9M324.6 275.8s-11.4-3.2-16.9-12.8M296.3 264.4s10 9.1 22.8 10.9M196.4 288.7 186 273.5M175.4 326.7c-8-1.3-15.9 1.5-15.9 1.5M183.2 329.6c-.9-.6-1.8-1.1-2.8-1.5"/><path class="st9" d="M227.2 183.8s1.6 19-.2 29.5c-1.2 7.4 28.7 37.8 28.7 37.8l18-41.5h0c-3.6-6.2-6.1-13-7.3-20l-1.8-10.6s-10.9 13-19.3 11.7c-8.5-1.4-18.1-6.9-18.1-6.9z"/><path class="st4" d="m257.5 197.2.6-5.9-5.2-2.4c-2.5 1.4-5.2 2.2-7.6 1.8-8.5-1.3-18.1-6.8-18.1-6.8s1.2 14.9.3 25.6l30-12.3z"/><path class="st9" d="M258.1 119.7s-10.6 16.3-25.8 23.7-22.1 7.7-22.1 7.7 5.2 26.5 7.5 29.4c2.3 2.9 19.2 19.6 26.7 20.8 7.5 1.2 11.3-1.9 13.1-4 1.7-2.1 14.4-13.3 16.5-20.4 2.1-7.1 2.1-38.5 2.1-38.5s-16.1-8.3-18-18.7z"/><path class="st11" d="M234.7 148.1s-9.6-4.4-13.5 1.5"/><path class="st9" d="M276.4 139.7s2.9-8.8 5.8-3.7c2.9 5.2-.8 16-3.1 19.2-2.3 3.3-3.3 4.6-3.3 4.6l.6-20.1zM210.2 151s-7.1-9.2-8.5.2c-1.3 9.4 11.7 15.4 11.7 15.4l-3.2-15.6z"/><path class="st3" d="M238.5 173.6s3.1 2.3 5.6 1.7c2.5-.6 3.8-2.3 3.8-2.3M235.2 181.1s4 2.9 9.8 2.1c5.8-.8 9.8-5.6 9.8-5.6"/><ellipse class="st2" cx="255.4" cy="158.5" rx="3" ry="4.3"/><path class="st2" d="M233.2 160.1c0 2.4-1.3 4.3-3 4.3-1.6 0-3-1.9-3-4.3s1.3-4.3 3-4.3 3 1.9 3 4.3z"/><path class="st11" d="M250 145.1s9.6-4.4 13.5 1.5"/><path class="st8" d="M362 290.1c-3.9.6-8.3 1.9-9.7 4.2-2.9 4.6-33.8 35.2-36.9 38.1-3.1 2.9-4.6 4-4.6 4s13.2 6 16 10.3c2.9 4.3 4 5.4 4.3 6.6.3 1.1 1.7-2.3 5.4-6.3s6-6 6-6 25.2-13.7 29.5-15.7c4.3-2 12.9-8 14.9-13.4s4.3-13.7 2.9-23.2c-1.4-9.4-16.6-18-17.7-18.9"/><path class="st8" d="M369.5 289.4s-1.8 0-4.2.3"/><path class="st9" d="M310.8 336.3c-1.9-.3-15.2 12.3-18.6 14.6-3.4 2.3-8 5.7-8 8.3 0 2.6-5.4 19.7-5.2 24.6.3 4.9-1.1 8.8 2.3 10.3 1.5.7 3.4-2 3.4-2s3.1 2 5.2 1.4c2-.6 2.9-3.1 2.9-3.1s2-7.4 2.9-8.3c.9-.9 2.9-4.6 2.9-4.6s-5.2 15.2-2.9 16.6c2.3 1.4 3.7.6 5.2-1.4 1.4-2 3.1-4.9 3.1-4.9s-.3 5 3.1 3.6 7.2-13.3 7.2-13.3 2.3-4 3.7-5.2c1.4-1.1 3.1-2 6-6.3s7.2-13.4 7.2-13.4-4.9-14.6-20.4-16.9z"/><path class="st3" d="M284.8 392.1s2.9-12.8 3.6-16.3c.7-3.4 8.1-16.5 8.1-16.5M298.5 377.5l6-14.5M304 387.8l4.6-12s4.4-9.5 4.6-9.9"/><path class="st9" d="M206.4 369.6s17.8-5.4 21.6-6.4c3.8-1 6.3 1 7.9 3.6 1.6 2.6 10.7 16.5 10.9 17.5.2 1-.8 1.6-1.8 2.2-1 .6-5.2 2.2-5.2 2.2s-12.3 3.4-13.7 3.6c-1.4.2-6.9-2.2-6.9-2.2s-5.2 1.4-11.7.8c-6.5-.6-13.9-7.3-13.9-7.3s6.7-11.6 12.8-14z"/><path class="st3" d="m227.5 368.9 14.3 19.4M220.6 371.5l15.7 18.4M216 376.2s14.1 13.9 13.7 15.1M219.2 390.3l.8-2.6 2.6.8"/></svg>