<svg version="1.1" id="Layer_1" xmlns="http://www.w3.org/2000/svg" xmlns:xlink="http://www.w3.org/1999/xlink" x="0" y="0" viewBox="0 0 500 500" style="enable-background:new 0 0 500 500" xml:space="preserve"><style>.st2{fill:none;stroke:#1a2e35;stroke-linecap:round;stroke-linejoin:round;stroke-miterlimit:10}.st4{fill:#1a2e35}.st5{opacity:.2;clip-path:url(#XMLID_2_)}.st11,.st6{fill:#fff;stroke:#1a2e35;stroke-linecap:round;stroke-linejoin:round;stroke-miterlimit:10}.st11{fill:#8342ea}.st12{opacity:.3;fill:#fff;fill-opacity:.7}.st14,.st15,.st16{fill:#757575;stroke:#1a2e35;stroke-linecap:round;stroke-linejoin:round;stroke-miterlimit:10}.st15,.st16{fill:none;stroke:#fff}.st16{fill:#999;stroke:#1a2e35}</style><path d="M75.7 61.5c16.7-20 39.4-35.5 66.4-35.2 46.1.6 71 41.4 97.4 72.8 13.7 16.3 29.3 32.1 49.6 39.7 30.5 11.5 64.5 4.8 94.3-5.9 13.3-4.8 29.1-11.5 44.1-8.1 45.6 10.4 40.9 66.1 33.3 101.4-10.2 47.6-26.7 98.3-60.2 134.8-80.2 87.5-224.7 33.9-297-36-5.3-5.1-10.4-10.5-15.2-16.1-12.4-14.6-23-30.6-31.3-47.9-23.3-48.5-26.6-107.5-6.3-157.6 5.7-14.5 14.3-29.2 24.9-41.9z" style="fill:#8342ea"/><path d="M75.7 61.5c16.7-20 39.4-35.5 66.4-35.2 46.1.6 71 41.4 97.4 72.8 13.7 16.3 29.3 32.1 49.6 39.7 30.5 11.5 64.5 4.8 94.3-5.9 13.3-4.8 29.1-11.5 44.1-8.1 45.6 10.4 40.9 66.1 33.3 101.4-10.2 47.6-26.7 98.3-60.2 134.8-80.2 87.5-224.7 33.9-297-36-5.3-5.1-10.4-10.5-15.2-16.1-12.4-14.6-23-30.6-31.3-47.9-23.3-48.5-26.6-107.5-6.3-157.6 5.7-14.5 14.3-29.2 24.9-41.9z" style="opacity:.7;fill:#fff"/><path class="st2" d="M5.9 473.7h488.2M302.3 221.3V38.1h11.3M302.3 243.1v-4.8M342.8 38.1h117.1v222.1H302.3M328.4 38.1h10.3"/><path class="st2" d="M308.2 44H454v210.3H308.2z"/><path class="st2" d="M447.2 55.3v87.3H315v-5.7M315 123.5V50.2h132.2M315 132.5V127M424.9 149.1H454M414.5 149.1h4.1M308.2 149.1h101.4"/><path class="st2" d="M373.8 142.6v-3h12.1v1.7h-4.8v1.3M308.5 227.9s2 1.5 3.4 10.8c0 0 2.4-14.8 5.4-15 3-.2 2.4 9.6 2.4 9.6s.5-4.9 2.8-4.6c2.3.2 0 10 0 10s2.8-7.6 5.4-7.5c2.6.1-1.8 13.8-1.8 13.8s6.8-4.9 9.5-2.5c2.7 2.4-1.5 8.5-1.5 8.5s9.7-2.1 11.2 3.6M345.4 249s4.2-2.8 7.6-1.5c0 0-2.1-3.2 0-5.2s4.8 5.2 4.8 5.2.3-12 4.5-11.4c4.2.6 0 11.4 0 11.4s7.6-6.7 9.4-4.4c1.8 2.3-1.2 5.9-1.2 5.9s4.5-1.4 7.9 1.9c0 0 5.1-5.2 10.7-5.9 0 0-3.7-10.9-1.9-13.1 1.8-2.2 5.1 9.5 5.1 9.5s1.4-7.6 6.2-8.2c0 0-3.9-2.1-2.8-5.4 1.2-3.2 6.6.8 6.6.8s-2.2-5.7 1.3-7.3c3.5-1.6 5 4.8 5 4.8s1-6.7 5.1-6.3c4.1.4 2.8 8 2.8 8s3.9-6.1 6-5.5c4.2 1.2 2.9 10.9 2.9 10.9s5.9-4.1 7.4-2.2c1.6 2-6.1 7.2-6.1 7.2s5.8.6 9.4 4"/><path class="st2" d="M454 230s-.7-6.1-6.8-6.4c-6.1-.3 1.7 13.4 1.7 13.4s-5-4.2-6.8-2.9c-1.8 1.3 5.2 8.3 5.2 8.3s-3.3-3.1-6.9-2.1c-3.5 1 2 10.8 2 10.8s-7.4-1.9-15.5 1.8M245.9 419.2v54.2M245.9 401.4V413M17.7 473.7v-101h228.2v22.2"/><path class="st2" d="M50.9 383.7H31.2v80.7M232.4 473.4v-89.7h-170M222.9 362.2h-6.2M207.6 362.2H12v10.4h239.5v-10.4H227M25.5 295.7S44.2 297.2 45 311c.1 0-18.9 8.7-19.5-15.3zM62.6 299.1s10.5-14.2 27.4-6.9c0 0-10.3 17.1-27.4 6.9zM88.6 254.4s3 27.2-21.8 19.7c0 0 7.9-20 21.8-19.7zM58.1 239.2s19.6 10.6 5.2 26.6c0 .1-13.7-11.4-5.2-26.6zM34 263.6s21.3-2.2 21.3 17.6c0 0-21.3.8-21.3-17.6z"/><path class="st2" d="M50 322.1c-.3-6.6-.3-15.1 3.7-24.1 9.3-20.8 12.5-38.3 7.6-50.6"/><path class="st2" d="M41 268.9s12.8 5.1 17.1 18.2M81.8 265.3s-7.4 10.1-19.9 9M81.8 295.1s-20.5 5.9-28.6 4M31.6 301.9s9.1 10 18.3 9.9"/><path d="M74.3 322.1H29.8c-.6 0-1.1.5-1.1 1.1v3.4c0 .6.5 1.1 1.1 1.1h1.3l4 34.6H69l4-34.6h1.3c.6 0 1.1-.5 1.1-1.1v-3.4c0-.6-.5-1.1-1.1-1.1z" style="fill:none;stroke:#1a2e35;stroke-miterlimit:10"/><path class="st2" d="M34 327.7h25.9M64.7 327.7h3.9"/><path class="st4" d="M104.8 473.7s-2.1-8.1.4-11.1c4.5-5.4-.5-9.9 3.9-11.8l1.9 2.2c.4-2.2-.7-8.9 7.6-9.8 10.1-1.1 10.2 6.3 10.8 8.7l-.2-3.4c4.3 0 2.1 4.3 8.6 11.3 5 5.3 5 12.2 4.7 14h-37.7zM181.5 473.7c-4-1.8-.3-17.1-.3-17.1s-5.4-3.7 0-7.4c0 0 6.1 5.9 15.5 2.5 0 0 1.1-10.2 7.5-8.9 0 0 1.6 6.5 5.4 10.2 10.2 10 23.3 11.2 25.5 16 .7 1.4-.1 4.7-.1 4.7h-53.5z"/><defs><path id="XMLID_591_" d="m164.2 230.2 5 10.6s20.6 42.6 33.2 91.3c.3 1.2 6.8 24.2 1.6 81.7l3 10.1-3.3 16.7s4.9 7.1 4.7 9.4c0 0-12.1 2.3-16.1 4.4-3.1 1.7-12.6 11-12.6 11-2.7-.6-2.9-11.4-2.9-11.4s-5.6-96-7.2-100.1c-1.6-4.1-11.4-22-26.7-62.8 0 0-.3 57-4.4 71.4-3.6 12.8.7 48.7.7 48.7l-2.5 40s8.6 9 1.6 11.4c0 0-4.7-9-18-11-6.8-1-15.2 11-15.2 11-3-.9 1.3-16 1.3-16-9.4-71.1-2.5-58.3-4.4-93-1.2-22.3-7.5-117.8-.1-125.6l62.3 2.2z"/></defs><use xlink:href="#XMLID_591_" style="overflow:visible;fill:#bfbfbf"/><clipPath id="XMLID_2_"><use xlink:href="#XMLID_591_" style="overflow:visible"/></clipPath><path class="st5" d="M98.4 263.1c33.3 2.6 62.1-8.3 74.6-14-2.4-5.3-3.8-8.4-3.8-8.4l-5-10.5-62.3-2.3c-2.6 2.8-3.5 17.1-3.5 35.2zM143.2 291.9c15.2 40.3 24.9 57.9 26.5 62 .9 2.4 3.1 35 4.9 62.3 2-24.9 4-51.2 4.2-56.3.4-10.3-7-24.3-8.2-28-1.1-3.6 1.4-7.6 1.4-7.6l-13.3-16.8c.4-5.7-6.6-30.6-6.6-30.6-4.2 4.1-7.9 12.5-8.9 15z"/><use xlink:href="#XMLID_591_" style="overflow:visible;fill:none;stroke:#1a2e35;stroke-linecap:round;stroke-linejoin:round;stroke-miterlimit:10"/><path class="st2" d="M142.9 291.1s7.6-14.7 14.1-18.8M159.9 267.6s-23.1 7-31.1 8.4"/><path class="st2" d="M148 244c1 19.2 7.8 22.5 1.2 26.7 0 0 .2 9-3.1 14.7M107.5 236.6s2.7 29.6-6.4 35.1"/><path class="st2" d="M101.1 246.2s-.7 19.7 0 35.6c0 0 2.3 67.1 4.6 75.5 2.3 8.4-3.5 21.1-3 57.6M123 443.3c-2.2-.4-4.4-.2-6.4.9M136.7 451.3c-2.9-2.7-6.2-5.1-9.8-6.7M132.9 295.8c-5.1 5.7-13.2 16.5-21.5 17.4M140.7 286.5c-1.6 2-3.2 3.9-4.8 5.9M133.5 353.5s-11.6 15.8-18 16.7M147.1 288.3s20.7 57.6 27.9 63.3c0 0 .8 42.3 1 57.1.2 14.8 3.6 34.4 3.6 34.4M201.7 442.7s-8 2.8-11.8 4.5c-3.9 1.8-5.2 5.6-5.2 5.6"/><path class="st2" d="M181.6 330.8c-11.1-7-25.7-15.7-31.6-27.9M191.3 336.5c-2.1-1.2-4.2-2.4-6.2-3.6M156.3 251.8c-6-.1-12.5-.9-17.6-4.2M165.8 251.2c-1.7.2-3.4.4-5.2.5"/><path class="st4" d="M176.8 119c-4.6-6.9-27.8-8.7-42.7-8.7s-33-2.5-41.2 14.3c-6.2 12.8 8.1 80.7 8.1 80.7l-3.5 29.3c27 8.5 73.3 6.6 73.3 6.6l-6.2-26.5c0 .1 16.8-88.8 12.2-95.7z"/><path class="st6" d="M125.3 93.3s2 16-4.1 19.4c0 0 3 11.7 13.7 12.4 10.6.7 15.4-10.7 15.4-10.7l-25-21.1z"/><defs><path id="XMLID_590_" d="m213.4 71.3-31.9 2.9-1.8-19.9c-.1-1 .7-2 1.7-2l28.1-2.6c1-.1 2 .7 2 1.7l1.9 19.9z"/></defs><use xlink:href="#XMLID_590_" style="overflow:visible;fill:#8342ea"/><clipPath id="XMLID_3_"><use xlink:href="#XMLID_590_" style="overflow:visible"/></clipPath><path d="m213.4 71.3-31.9 2.9-1.8-19.9c-.1-1 .7-2 1.7-2l28.1-2.6c1-.1 2 .7 2 1.7l1.9 19.9z" style="opacity:.3;clip-path:url(#XMLID_3_);fill-opacity:.7"/><path transform="rotate(-5.272 206.688 59.924) scale(1.00003)" style="opacity:.3;clip-path:url(#XMLID_3_);fill:#fff;fill-opacity:.7" d="M202.7 52h7.9v15.8h-7.9z"/><use xlink:href="#XMLID_590_" style="overflow:visible;fill:none;stroke:#1a2e35;stroke-linecap:round;stroke-linejoin:round;stroke-miterlimit:10"/><defs><path id="XMLID_589_" d="m260.5 67-31.9 2.9-1.8-19.9c-.1-1 .7-2 1.7-2l28.1-2.6c1-.1 2 .7 2 1.7l1.9 19.9z"/></defs><use xlink:href="#XMLID_589_" style="overflow:visible;fill:#8342ea"/><clipPath id="XMLID_4_"><use xlink:href="#XMLID_589_" style="overflow:visible"/></clipPath><path d="m260.5 67-31.9 2.9-1.8-19.9c-.1-1 .7-2 1.7-2l28.1-2.6c1-.1 2 .7 2 1.7l1.9 19.9z" style="opacity:.3;clip-path:url(#XMLID_4_);fill-opacity:.7"/><path transform="rotate(-5.272 254.854 55.478) scale(1.00003)" style="opacity:.3;clip-path:url(#XMLID_4_);fill:#fff;fill-opacity:.7" d="M252.5 47.6h4.8v15.8h-4.8z"/><use xlink:href="#XMLID_589_" style="overflow:visible;fill:none;stroke:#1a2e35;stroke-linecap:round;stroke-linejoin:round;stroke-miterlimit:10"/><path class="st11" d="m250.6 67.9-31.9 2.9-1.8-19.9c-.1-1 .7-2 1.7-2l28.1-2.6c1-.1 2 .7 2 1.7l1.9 19.9zM297.8 63.5l-31.9 2.9-1.9-19.9c-.1-1 .7-2 1.7-2l28.1-2.6c1-.1 2 .7 2 1.7l2 19.9z"/><path transform="rotate(-5.272 243.896 56.487) scale(1.00003)" class="st12" d="M239.9 48.6h7.9v15.8h-7.9z"/><path transform="rotate(-5.272 290.506 52.19) scale(1.00003)" class="st12" d="M286.6 44.3h7.9v15.8h-7.9z"/><defs><path id="XMLID_588_" d="m311.3 57.7 8.3 89.5-144.2 13.3L167 71c-.3-3.1 2-5.9 5.1-6.2l133-12.3c3.1-.2 5.9 2.1 6.2 5.2z"/></defs><use xlink:href="#XMLID_588_" style="overflow:visible;fill:#8342ea"/><clipPath id="XMLID_5_"><use xlink:href="#XMLID_588_" style="overflow:visible"/></clipPath><path d="m311.3 57.7 8.3 89.5-144.2 13.3L167 71c-.3-3.1 2-5.9 5.1-6.2l133-12.3c3.1-.2 5.9 2.1 6.2 5.2z" style="opacity:.3;clip-path:url(#XMLID_5_);fill-opacity:.7"/><use xlink:href="#XMLID_588_" style="overflow:visible;fill:none;stroke:#1a2e35;stroke-linecap:round;stroke-linejoin:round;stroke-miterlimit:10"/><path class="st11" d="m311.3 57.7 8.3 89.5-107 9.9-8.3-89.5c-.3-3.1 2-5.9 5.1-6.2l95.8-8.8c3-.3 5.8 2 6.1 5.1z"/><path class="st12" d="M304.3 61.5 212.8 70c-1.3.1-2.4-.8-2.5-2.1-.1-1.3.8-2.4 2.1-2.5l91.5-8.4c1.3-.1 2.4.8 2.5 2.1.2 1.2-.8 2.3-2.1 2.4z"/><path class="st4" d="M143.6 61.6s-21.1-4.2-23.5 9.4c-2.4 13.6 5.4 19.4 5.4 19.4l18.1-28.8z"/><path class="st6" d="M125.5 97.8c-2.2-6.1-3-13.2-1.1-21 2.1-8.7 12.5-20.7 28.2-9.8 8.1 5.6 8.6 17.8 6.1 29-.6 2.7-.2 5.3-1 7.7-3.1 8.6-8.8 15.2-11.9 15.4-5.2.3-15.6-6-15.2-11.5"/><path class="st2" d="M146.5 93.8s-4.2-3-8.2-.6M154.4 93.3s3.2-2.9 5.2-2.5"/><path class="st4" d="M140.6 98.5c0 .8.4 1.4.9 1.4s.9-.6.9-1.4c0-.8-.4-1.4-.9-1.4s-.9.6-.9 1.4z"/><ellipse class="st4" cx="154.4" cy="97.7" rx=".9" ry="1.4"/><path class="st2" d="M152.6 96.2c-1.6 2 .6 9.7 0 10.3-.6.5-4.6-1-4.6-1s-.9-1.2 1-1.8M149.1 110.3s-5.3 0-6.7-1.9"/><path class="st14" d="M136.4 81.6 136 88s-4.6 2.3-5.7 4.7c-1.1 2.4-.7 5-.7 5s-2.8-4.8-4.3-4.4c-.5.1-.5 2.2-.5 2.2s-6.2-13.9-.6-21.2c5.6-7.4 12.2 7.3 12.2 7.3z"/><path class="st6" d="M127.6 96.3s-1.2-4.7-5.4-5.9c-4.2-1.2-1.3 9.9 2.3 11.4 3.6 1.5 4.5 2.5 4.7 1.2"/><path class="st4" d="M121.9 80.8c-.3-.5-1.9-12.4 6-17.8s21.3-4.8 29.8 2.6 6.1 20.4 0 24.8V85s-2.8 5.4-11.2 5.9l2.6-4s-4.1 2.4-11.4 2.3c0 0 3.4-2.7 2.9-5.2 0 0-11.6 6.5-18.7-3.2z"/><path class="st6" d="M123.4 123.9c-5.8.7-14.1 8.3-8.7 21.8 3.4 8.6 31.8 3.5 31.8 3.5 10.5-4.3 25.9-19.9 37.1-27.2 0 0-2.4-14.9-5.1-12.8-12.7 9.8-23.2 10.4-41 19 0 0-10.5-4.7-14.1-4.3z"/><path class="st6" d="M136.4 140.5c-.2 5.6 2.1 6.6 6 7.9M177.6 110.3c.3-.8 4.9-9.1 6.3-11.2s7.3-4 9.6-5.3c2.3-1.3 2.5-3.2 3.8-1.8 1.3 1.4 0 4.5-6.9 7.9 0 0 5.5.3 7.4 0 1.8-.3 3.5-1.9 4.3-.8.8 1.2 1 3.2-3.1 4.5-4.1 1.3-6.1 1.2-6.1 1.2s5.3 1.2 5.9 1.7c.7.5 1.6 1.6 2.6 1.8 1 .2 2.1 1.3.2 2.6-1.8 1.3-4.2.1-4.2.1s4.8 2.3 3.3 3.8-6.2 1.1-6.2 1.1-7.1 8.5-13 6.7"/><path class="st2" d="M186.1 99.1s1.3.2 1.7 1.7c.4 1.5 1.6 1.6 2.4 3.2.7 1.6.5 4.2 1.3 5.1.7.9 0 4.6 0 4.6"/><path class="st15" d="M124.6 122.9c-3.1-3.9-9.9-2.1-9.9-2.1"/><path class="st15" d="M111 113.6s7 1 9.1 6.9M123.4 150.7s-6.9 5.3-17.3-2.3"/><path class="st15" d="M114.7 152.3s-3.5 4.8-12 4.8M158.4 213s-18 14.3-36.3 12.5M109.8 181.5s27.9 20.5 48.6 21.8"/><path class="st4" d="m348 184.3-5 27.1-40.6 24.7 5.6 10.3s47-14.3 48.1-17.7c1.1-3.3 12-38.8 12-38.8l-20.1-5.6z"/><path class="st16" d="m365.8 138.5-2.7 32.8-1.4 17.2c-7.8 3.8-15.5-1.9-16-2.3 0 0 0 0 0 0 2.1-6.1 4.6-41.4 20.1-47.7z"/><path class="st4" d="m363.1 171.4-1.4 17.2c-7.8 3.8-15.5-1.9-16-2.3.3.1 4.5 1.9 7.1 0 0 0-2.3-2.6-2.5-3.3-.2-.6 2.5-.8 2.5-.8s-1.7-14 2.9-19.9c1.8-2.3 4.7 2.4 7.4 9.1z"/><path class="st11" d="m394 442.6 1.3 3.7s-3 5-6.3 8.9c0 0-1.3-.4-3.3 1.4-2 1.8-2.2 4.7-2.2 4.7s-9.5 11.4-21.6 11.6c-12.1.2-8.4-5.9-8.4-5.9l40.5-24.4z"/><defs><path id="XMLID_587_" d="M382.6 413.5s-16.2-6-19.4 6c0 0 2.9 13.1 1.2 20.3-1.7 7.2-10.4 20.9-11 23.5-1.1 5.1-.3 5.4-.3 5.4s6.3 3.7 14.9-.3c8.5-3.9 23.3-20.8 25.6-24.3 2.3-3.5-7.2-17.2-7.2-17.2l-3.8-13.4z"/></defs><use xlink:href="#XMLID_587_" style="overflow:visible;fill:#fff"/><clipPath id="XMLID_6_"><use xlink:href="#XMLID_587_" style="overflow:visible"/></clipPath><path d="M382.6 413.5s-16.2-6-19.4 6c0 0 2.9 13.1 1.2 20.3-1.7 7.2-10.4 20.9-11 23.5-1.1 5.1-.3 5.4-.3 5.4s6.3 3.7 14.9-.3c8.5-3.9 23.3-20.8 25.6-24.3 2.3-3.5-7.2-17.2-7.2-17.2l-3.8-13.4z" style="opacity:.4;clip-path:url(#XMLID_6_);fill:#8342ea"/><use xlink:href="#XMLID_587_" style="overflow:visible;fill:none;stroke:#1a2e35;stroke-linecap:round;stroke-linejoin:round;stroke-miterlimit:10"/><path class="st2" d="M374.3 430.4s2.7 11.9-4 23.4"/><path class="st11" d="M370.3 456.9s-1.7 4.9-6.9 6.4-9.9 0-9.9 0l3.9-7.9c-.1.1 5.6 2.7 12.9 1.5z"/><path class="st2" d="M372.6 452.2s-8.5.5-12.9-1.2M374.1 447.5s-7.9 1.2-12.3-1.3M375.5 442.3s-6.9 1-11.5-1.1M376.3 436.5s-7.7 2.4-11.4 0"/><path class="st11" d="m377.4 421.9 1.3 8.5s-10.2 6.7-17-1.7v-8.9c.1.1 2.6 6.1 15.7 2.1z"/><path class="st4" d="M368.6 231.5c-10.3 32.8-42.5 85.4-39.2 98.8 1.8 7.4 12.4 49 20.7 67.3 3.2 7 10 11.7 10 11.7l4.9 10.6c12 5.2 16.3-5.4 16.3-5.4l-2.4-12c6.4-11.7 3.7-11.7-4.6-72.2-1-7.1 15.6-29.2 15.6-29.2l8.5 55.5 1.4 45.5 4.4 14s1.1 13.2 1 14h19.7l2.2-14.5s9.2-8.6 9.2-18.6c0-10-2-60.7 0-75.5 2-14.8-4.6-83.7-4.6-83.7l-63.1-6.3z"/><defs><path id="XMLID_585_" d="m262.3 224.4-31.9-2.7 1.7-19.9c.1-1 1-1.8 2-1.7l28.2 2.4c1 .1 1.8 1 1.7 2l-1.7 19.9z"/></defs><use xlink:href="#XMLID_585_" style="overflow:visible;fill:#8342ea"/><clipPath id="XMLID_7_"><use xlink:href="#XMLID_585_" style="overflow:visible"/></clipPath><path d="m262.3 224.4-31.9-2.7 1.7-19.9c.1-1 1-1.8 2-1.7l28.2 2.4c1 .1 1.8 1 1.7 2l-1.7 19.9z" style="opacity:.3;clip-path:url(#XMLID_7_);fill-opacity:.7"/><path transform="matrix(.9963 .08568 -.08568 .9963 19.11 -21.301)" style="opacity:.3;clip-path:url(#XMLID_7_);fill:#fff;fill-opacity:.7" d="M253.8 204.1h7.9v15.8h-7.9z"/><use xlink:href="#XMLID_585_" style="overflow:visible;fill:none;stroke:#1a2e35;stroke-linecap:round;stroke-linejoin:round;stroke-miterlimit:10"/><defs><path id="XMLID_584_" d="m309.5 228.4-31.9-2.7 1.7-19.9c.1-1 1-1.8 2-1.7l28.2 2.4c1 .1 1.8 1 1.7 2l-1.7 19.9z"/></defs><use xlink:href="#XMLID_584_" style="overflow:visible;fill:#8342ea"/><clipPath id="XMLID_8_"><use xlink:href="#XMLID_584_" style="overflow:visible"/></clipPath><path d="m309.5 228.4-31.9-2.7 1.7-19.9c.1-1 1-1.8 2-1.7l28.2 2.4c1 .1 1.8 1 1.7 2l-1.7 19.9z" style="opacity:.3;clip-path:url(#XMLID_8_);fill-opacity:.7"/><path transform="matrix(.9963 .08567 -.08567 .9963 19.64 -25.412)" style="opacity:.3;clip-path:url(#XMLID_8_);fill:#fff;fill-opacity:.7" d="M303.5 208.2h4.8V224h-4.8z"/><use xlink:href="#XMLID_584_" style="overflow:visible;fill:none;stroke:#1a2e35;stroke-linecap:round;stroke-linejoin:round;stroke-miterlimit:10"/><path class="st11" d="m299.6 227.6-31.9-2.7 1.7-19.9c.1-1 1-1.8 2-1.7l28.2 2.4c1 .1 1.8 1 1.7 2l-1.7 19.9zM346.7 231.6l-31.9-2.7 1.7-19.9c.1-1 1-1.8 2-1.7l28.2 2.4c1 .1 1.8 1 1.7 2l-1.7 19.9z"/><path transform="scale(.99998) rotate(4.914 294.951 215.19)" class="st12" d="M291 207.3h7.9v15.8H291z"/><path transform="scale(.99998) rotate(4.915 341.586 219.2)" class="st12" d="M337.6 211.3h7.9v15.8h-7.9z"/><defs><path id="XMLID_583_" d="m361.1 228.3-7.7 89.6-144.3-12.4 7.7-89.6c.3-3.1 3-5.4 6.1-5.2l133 11.4c3.1.3 5.5 3.1 5.2 6.2z"/></defs><use xlink:href="#XMLID_583_" style="overflow:visible;fill:#8342ea"/><clipPath id="XMLID_9_"><use xlink:href="#XMLID_583_" style="overflow:visible"/></clipPath><path d="m361.1 228.3-7.7 89.6-144.3-12.4 7.7-89.6c.3-3.1 3-5.4 6.1-5.2l133 11.4c3.1.3 5.5 3.1 5.2 6.2z" style="opacity:.3;clip-path:url(#XMLID_9_);fill-opacity:.7"/><use xlink:href="#XMLID_583_" style="overflow:visible;fill:none;stroke:#1a2e35;stroke-linecap:round;stroke-linejoin:round;stroke-miterlimit:10"/><path class="st11" d="m361.1 228.3-7.7 89.6-107.1-9.2 7.7-89.6c.3-3.1 3-5.4 6.1-5.2l95.8 8.2c3.1.3 5.5 3.1 5.2 6.2z"/><path class="st12" d="M353.6 230.9 262 223c-1.3-.1-2.2-1.2-2.1-2.5.1-1.3 1.2-2.2 2.5-2.1l91.6 7.9c1.3.1 2.2 1.2 2.1 2.5-.1 1.2-1.2 2.2-2.5 2.1z"/><defs><path id="XMLID_586_" d="M425.4 430.6s-6.9-4.9-21.2-3.9c0 0-1 17.1-3 22.1-1.9 5-12.2 13.6-14.1 15.1-1.9 1.5-1.9 6.7-1.9 6.7h43.4s-.7-11.5-3.4-22l.2-18z"/></defs><use xlink:href="#XMLID_586_" style="overflow:visible;fill:#fff"/><clipPath id="XMLID_10_"><use xlink:href="#XMLID_586_" style="overflow:visible"/></clipPath><path d="M425.4 430.6s-6.9-4.9-21.2-3.9c0 0-1 17.1-3 22.1-1.9 5-12.2 13.6-14.1 15.1-1.9 1.5-1.9 6.7-1.9 6.7h43.4s-.7-11.5-3.4-22l.2-18z" style="opacity:.4;clip-path:url(#XMLID_10_);fill:#8342ea"/><use xlink:href="#XMLID_586_" style="overflow:visible;fill:none;stroke:#1a2e35;stroke-linecap:round;stroke-linejoin:round;stroke-miterlimit:10"/><path class="st2" d="M416.4 432.8s-1 15.8-3.5 19.9c-2.4 4.1-4.8 6.2-4.8 6.2"/><path class="st11" d="M406.9 461.1s-2.2 2.7-4.6 3.1c-2.4.4-15.2-.4-15.2-.4l5.2-4.5s10.6-1.7 14.6 1.8z"/><path class="st2" d="M411.4 457.4s-9.2-5.3-15.8-1.3M413.7 453.8s-6.5-5-14.1-2.3M416.4 448.3s-6.9-5.4-14.3-2M417.4 441.5s-8.4-4.5-14.6-1.1"/><path class="st11" d="M428.6 470.5v3.2h-5s-4.3-2.5-8.3 0h-23.4c-4.1 0-7.1-1.6-7.1-1.6l.5-1.6h43.3zM422.3 429.6l-1.1 7s-13-4.2-20.2-1.5v-8.6s13.4-4.7 21.3 3.1z"/><defs><path id="XMLID_592_" d="M436.4 255.5s-27.7 5.4-54.8-3.4c-6-1.9-12-4.6-17.6-8.1 0 0 .1-1.7.1-4.6.2-11.1.2-39.1-5.7-46.1-3.7-4.4-6.7-31.4.5-45.1l22.1-17.7c30.5 6 37 14 42 31.5.9 3.2 1.8 6.7 2.8 10.5 1.1 4.2 2.1 9.4 3 15 4.6 27.9 7.6 68 7.6 68z"/></defs><use xlink:href="#XMLID_592_" style="overflow:visible;fill:#999"/><clipPath id="XMLID_11_"><use xlink:href="#XMLID_592_" style="overflow:visible"/></clipPath><path d="m428.9 187.5-12.5 55.6s-18 5-34.8 9c-6-1.9-12-4.6-17.6-8.1 0 0 .1-1.7.1-4.6 15.1-7.7 37.1-19 36.9-19.6-.3-.8 0-29.9 0-29.9s19.9-4.6 22-28c.9 3.2 1.8 6.7 2.8 10.5 1.1 4.3 2.1 9.4 3.1 15.1z" style="opacity:.2;clip-path:url(#XMLID_11_)"/><use xlink:href="#XMLID_592_" style="overflow:visible;fill:none;stroke:#1a2e35;stroke-linecap:round;stroke-linejoin:round;stroke-miterlimit:10"/><path class="st6" d="M382 107.2s-9.7 14 3.2 24.8c0 0-15.7 17.6-20.9 15.2-2.2-1 0-7.4 0-7.4l-9.1-16.9 26.8-15.7z"/><path class="st6" d="M378.8 114.4c3-13.3 1.6-33.1-17-31.3-13 1.2-22.4 8.5-18.7 26 1.5 7.4 2.8 17.9 9.6 27.3 1.9 2.6 21.6-6.6 20.4-14.1"/><path class="st2" d="M352.2 106.2s3.9-1.8 8.1.8M342.8 107.8s.6-1.7 2.8-1.3"/><path class="st6" d="M347.5 110.6s-3.8 7-3.8 8 4.7 1.3 4.7 1.3"/><path class="st4" d="M355.7 112c0 .8-.3 1.4-.8 1.4s-.9-.6-.9-1.3c0-.8.3-1.4.8-1.4.5-.1.9.5.9 1.3z"/><path class="st2" d="M350.3 125s7.4-1.4 8.7-4"/><path class="st4" d="m342.8 97.1 5.7-1.7s8-3.7 9.7-3.2c1.7.5 5.2 5.9 5.1 8.9 0 0 5.4 4.8 6.1 11.7l1.7-.8s-.1-6.2 3.4-6.1c3.5.1 5.1 4.4 4.9 5.7-.2 1.3-4.1 6.9-4.1 6.9s8.9-1.3 9.1-18.6c.3-17.3-18.7-20.3-28-19.6-9.3.8-14.1.5-14.1.5l.5 4.9-3.8 1 2.8 3.4-3.1 1.4 4.1 5.6z"/><path class="st15" d="M374.9 286.4s22.6 6 28.7 22.8M385.2 295.4s-12.2 20.3-30.8 30.8M368.1 409.5s6.9-1.6 8.8-4.2M406.6 412.1s6.8-3.5 13.5 0M428.6 317.6s-11.4 29.5-17.1 32.2M378.8 271.5c.3 3.2 13.7 18 24.8 23.9M390.2 258.9s2.7 5.9 1 12.5c-1.7 6.6 0 11 0 11"/><path class="st2" d="M365.8 197.7s21 27.1 43.5 36M387.5 153.8s-.1 18.4 13.2 26.8"/><path class="st6" d="M395 180.7c-2.8 2.8.3 37.5.3 37.5s-16.4 6.4-21.5 10.5-29.4 13.6-29.4 13.6-3.7 12.7.9 13.2c4.7.4 52.9-16 63.9-21.8 0 0 7.2-42.4 7.1-53.1"/><path class="st6" d="M346.3 241.6c-2.2-.4-6.2-1.9-8.3-1.4-2.1.5-5.9 2.8-9.9 3.8-3.9 1-2.3 2.5 0 3s5.1 0 5.1 0l-3.2 3.1s-5.1 2.6-5.7 2.6c-1.1 0-5.3 1.1-4.9 2.9.3 1.7 2.6 1.5 5.3 1.6 0 0-4.2.8-3.8 3.2.3 1.6 4.9.2 7.4.2 0 0-2 2.1-.5 2.8s4.7-1 4.7-1-.1 1.8 1.4 2 5.2-1.3 7.7-2.8 4.7-3.4 7.1-5.3c2.4-1.9 3.2-2.1 3.2-2.1"/><path class="st2" d="M324.7 257.1s2.5-.1 3.4-.4c1-.2 2-.6 2-.6M328.3 260.5s2.8-.4 4.3-1.5M332.6 262.3s2-.2 3.1-1.1M330.5 250.9s-.9 2.1 0 3.2 2 1.2 2.1 2.5c.2 1.3 2.3 1.2 3.1 2.1.8.8 1.4 2.4 3.8 2.5"/><path class="st16" d="M394 144.8c-8.5 19.2 0 45.8 0 45.8s20.5 7 22.4 4c1.9-3 5.4-17.7 5.9-24.5"/><path class="st2" d="M416.4 172.2s-8.8 12-15.7 12.2"/><path class="st4" d="M110.5 333.1s6.6-4.3 15.7-2 32.8 36.1 36 39.4c3.3 3.3 9.4 5 15.1 11 9 9.4 22 17.6 23.3 17.6 1.3 0 2.4-.8 4-1.1 1.6-.3 14.4-1.5 14.4-1.5s4.3.9 0 2.8-3.9 3.5-3.9 3.5-.9 1.4.9 2.7c1.7 1.3 2.7.6 5.2 4.1 2.4 3.5-3.5 1.5-3.5 1.5s1.3 3.8-1.3 3.4c-2.6-.4-.3 3.7-4.6 3.1-4.3-.5-13.4-6.3-15.7-12.4 0 0-37.3-17.8-42.9-22.4-5.6-4.6-29-29.2-30.7-29.6"/><defs><path id="XMLID_581_" d="M237.8 388.3h-32v-20c0-1 .8-1.9 1.9-1.9H236c1 0 1.9.8 1.9 1.9v20z"/></defs><use xlink:href="#XMLID_581_" style="overflow:visible;fill:#8342ea"/><clipPath id="XMLID_12_"><use xlink:href="#XMLID_581_" style="overflow:visible"/></clipPath><path d="M237.8 388.3h-32v-20c0-1 .8-1.9 1.9-1.9H236c1 0 1.9.8 1.9 1.9v20z" style="opacity:.3;clip-path:url(#XMLID_12_);fill-opacity:.7"/><path style="opacity:.3;clip-path:url(#XMLID_12_);fill:#fff;fill-opacity:.7" d="M228.1 368.5h7.9v15.8h-7.9z"/><use xlink:href="#XMLID_581_" style="overflow:visible;fill:none;stroke:#1a2e35;stroke-linecap:round;stroke-linejoin:round;stroke-miterlimit:10"/><defs><path id="XMLID_582_" d="M285.1 388.3h-32v-20c0-1 .8-1.9 1.9-1.9h28.3c1 0 1.9.8 1.9 1.9v20z"/></defs><use xlink:href="#XMLID_582_" style="overflow:visible;fill:#8342ea"/><clipPath id="XMLID_13_"><use xlink:href="#XMLID_582_" style="overflow:visible"/></clipPath><path d="M285.1 388.3h-32v-20c0-1 .8-1.9 1.9-1.9h28.3c1 0 1.9.8 1.9 1.9v20z" style="opacity:.3;clip-path:url(#XMLID_13_);fill-opacity:.7"/><path style="opacity:.3;clip-path:url(#XMLID_13_);fill:#fff;fill-opacity:.7" d="M278.1 368.5h4.8v15.8h-4.8z"/><use xlink:href="#XMLID_582_" style="overflow:visible;fill:none;stroke:#1a2e35;stroke-linecap:round;stroke-linejoin:round;stroke-miterlimit:10"/><path class="st11" d="M275.1 388.3h-32v-20c0-1 .8-1.9 1.9-1.9h28.3c1 0 1.9.8 1.9 1.9v20zM322.4 388.3h-32v-20c0-1 .8-1.9 1.9-1.9h28.3c1 0 1.9.8 1.9 1.9v20z"/><path class="st12" d="M265.5 368.5h7.9v15.8h-7.9zM312.3 368.5h7.9v15.8h-7.9z"/><defs><path id="XMLID_580_" d="M336.5 383.8v89.9H191.6v-89.9c0-3.1 2.5-5.7 5.7-5.7h133.5c3.1 0 5.7 2.5 5.7 5.7z"/></defs><use xlink:href="#XMLID_580_" style="overflow:visible;fill:#8342ea"/><clipPath id="XMLID_14_"><use xlink:href="#XMLID_580_" style="overflow:visible"/></clipPath><path d="M336.5 383.8v89.9H191.6v-89.9c0-3.1 2.5-5.7 5.7-5.7h133.5c3.1 0 5.7 2.5 5.7 5.7z" style="opacity:.3;clip-path:url(#XMLID_14_);fill-opacity:.7"/><use xlink:href="#XMLID_580_" style="overflow:visible;fill:none;stroke:#1a2e35;stroke-linecap:round;stroke-linejoin:round;stroke-miterlimit:10"/><path class="st11" d="M336.5 383.8v89.9H229v-89.9c0-3.1 2.5-5.7 5.7-5.7h96.2c3 0 5.6 2.5 5.6 5.7z"/><path class="st12" d="M329.2 387h-91.9c-1.3 0-2.3-1-2.3-2.3 0-1.3 1-2.3 2.3-2.3h91.9c1.3 0 2.3 1 2.3 2.3 0 1.2-1 2.3-2.3 2.3z"/><path class="st14" d="M159.1 473.7c-7.5 0-18-4.8-30.1-9.9-12.5-5.3-26.8-10.9-41.3-11.7-5.4-.3-2.1 21.6-2.1 21.6H73.7s-11.7-15.6-13-29.6c0 0 9.5-5.9 11.8-6.2.5-.1 1.4-.1 2.4-.1 2.6 0 6 .1 6 .1s0 0 0 0c-.5-.3-9.3-5.6-14.1-10.9-4-4.4-5.8-11.4-5.9-15.5-.1-2.1.9-8.2.9-8.2l62.2 1s.7.5 1.9 1.4c7.2 5.3 33.6 24.8 46.7 39.6 4.3 4.8 7.1 9 7.6 12.1 1.9 14.3-9.8 16.3-21.1 16.3z"/><path class="st4" d="m172.6 445.2-30.2 6.9s-7.9 4.2-13.3 11.7c-12.5-5.3-26.8-10.9-41.3-11.7-5.4-.3-2.1 21.6-2.1 21.6h-12s-11.7-15.6-13-29.6c0 0 11 15.7 13.6 23.6 0 0 4.3-14.7 11.2-20.7 0 0-4.6-5.4-10.6-9.3 2.6 0 6 .1 6 .1-.5-.3-9.3-5.6-14.1-10.9-4-4.4-5.6-11.4-5.9-15.5-.2-2 .1-8.2.1-8.2s46.4 6.6 64.9 2.4c7.1 5.3 33.5 24.8 46.7 39.6z"/><path class="st2" d="M124 444.1s24.6 12.3 31.2 17.2c6.6 4.8 8.5 3.5 8.5 3.5M66.8 442.8s5.9 9 6.2 11.7"/><path class="st4" d="M165.9 269.5s13.1-5.7 11.9 18.6c-1.2 24.3 3.2 25.5 3.2 25.5s-33 13.5-41.4 2c-8.4-11.6-.4-43.3 26.3-46.1z"/><path class="st6" d="M164 313.6s-13.6 6.4-14.8 12.3c-1.2 5.9-18.2-3-18.2-3l12.3-17.7 20.7 8.4z"/><path class="st14" d="M75.1 378.5c-31.2 39.6-5.9 58.8 29.4 55.6l-7.1 11.2 17.8 3.1s13.6-8.9 32.2-18.4c31.6-16.2 44.3-15.2 41.1-31.4-3.3-16.2-42-26.7-80.8-9.6-.1 0-21.1-25.1-32.6-10.5z"/><path class="st6" d="M85.9 464.8s8.1-22.4 11.5-23.7c3.4-1.2 16.1 3.6 17.8 7.2 0 0 4.3-6.6 6.1-3.8 1.8 2.8-.8 7.4 0 11 .8 3.6 9.5 8.5 13 9.2 3.5.7 5.5 2.6 5.5 4.6v4.3H85.9c0 .1-2-3.6 0-8.8z"/><path class="st2" d="M121.3 452.1s-7.1 3.5-9.7 2.5c-2.6-1 1.3 5.9 2.3 6.6s7.4-2.3 7.4-2.3M92.7 448.4s9.7.2 12.6 3.7M85.9 464.8s15.4 3.6 16.8 3.6c1.3 0 6.2-1.8 6.2-1.8s4.2 2.1 7 3.4c2.8 1.3 21.2 0 21.2 0M104.5 434.2c14.8-1.6 43.4-19.8 53.3-26.1 9.9-6.3 12.5-4.7 12.5-4.7"/><path class="st11" d="m60.9 403.2 2.4-17.9L69 381c9.2-22.3 50.9-64 62.3-63.9 17.1.2 20.1 18.1 22.2 37.7 2.1 19.6-24.5 16.7-24.5 16.7v4.9l-15.1 7.8 9.2-.3c-.1.1-26.5 25.7-62.2 19.3z"/><path class="st6" d="M134.9 282.5c3.6-11.2 19.9-14.2 25.8-12.4 3.7 1.2 8.8 5.2 11.1 10.1 1.5 3.2-1.6 8.9.6 12.3 3.2 4.8 2.9 14.8 1.8 21.1-.6 3.4-14.6 5.4-26-2.5-12.4-8.3-16.8-17.7-13.3-28.6z"/><path class="st4" d="M151.4 266.9s14.4-2.4 14.5 1.4c.6 24.6-14.1 29.7-14.1 29.7s-6-4.8-7.4-1.5c-1.4 3.3 2.1 12.4 6.4 12.6 0 0-3.3 4.3-.2 10.3 0 0-24.4 4.1-26.4-7.2 0 0 1.4-5.4 2-11.9 1.6-16-2.1-26.6 25.2-33.4z"/><path class="st6" d="M170.6 291.9c3 2.7 5.2 2.7 5.1 3.7-.1 3-3.8 4.5-3.8 4.5"/><path class="st2" d="M171.9 305.2s-3 1.2-6.6.2"/><path class="st4" d="M163.9 276.9s9.6-2.8 7.8 12.8c0 0 4-5.4 4-11.5 0-10.5-14.1-8.4-14.1-8.4l1.8 7.5"/><path class="st2" d="M172.6 284.5s-.8-.7-2.5-.5M166.2 284.3s-5.1.3-7.4 3.8"/><path class="st4" d="M165 292.5c.1.8-.3 1.5-.8 1.6-.5 0-1-.6-1.1-1.4-.1-.8.3-1.5.8-1.6.5-.1 1 .5 1.1 1.4z"/><path class="st2" d="M105.3 437.9s11.5 1.2 13.9 6.2"/><path class="st6" d="M134.3 325.6s6.6-4.3 15.7-2 32.8 36.1 36 39.4c3.3 3.3 9.4 5 15.1 11 9 9.4 22 17.6 23.3 17.6 1.3 0 2.4-.8 4-1.1 1.6-.3 14.4-1.5 14.4-1.5s4.3.9 0 2.8c-4.3 1.8-3.9 3.5-3.9 3.5s-.9 1.4.9 2.7c1.7 1.3 2.7.6 5.2 4.1 2.4 3.5-3.5 1.5-3.5 1.5s1.3 3.8-1.3 3.4c-2.6-.4-.3 3.7-4.6 3.1-4.3-.5-13.4-6.3-15.7-12.4 0 0-37.3-17.8-42.9-22.4-5.6-4.6-29-29.2-30.7-29.6"/><path class="st11" d="M128.9 321.9s18.4-4.9 24.8-1.3 18.6 20.4 18.6 20.4-14.8 13.3-19.4 12.1c-4.6-1.2-18.6-3.2-18.6-3.2"/><path class="st2" d="M144.9 351.5s-6.7 3.7-9.1 3.7M134.3 333.1c.6 1 .4 11.8 12.1 15.1M71.8 381.4s25 4.3 33.5-3.3M113.8 384.3s-6.2-1.1-8.5 2.1-14.8 6.2-14.8 6.2M63.7 408.1s-3.6 15.5 11.8 22.5M71.8 409.2s.1 7.6 2.5 11.8l7.6 2.5 8.5-4.8s-1.8-9.8-2-11.8"/></svg>