<?xml version="1.0" encoding="utf-8"?>
<!-- Generator: Adobe Illustrator 25.2.0, SVG Export Plug-In . SVG Version: 6.00 Build 0)  -->
<svg version="1.1" id="Layer_1" xmlns="http://www.w3.org/2000/svg" xmlns:xlink="http://www.w3.org/1999/xlink" x="0px" y="0px"
	 viewBox="0 0 500 500" style="enable-background:new 0 0 500 500;" xml:space="preserve">
<style type="text/css">
	.st0{fill:#8342EA;}
	.st1{opacity:0.7;fill:#FFFFFF;}
	.st2{fill:none;stroke:#1A2E35;stroke-linecap:round;stroke-linejoin:round;stroke-miterlimit:10;}
	.st3{opacity:0.3;}
	.st4{fill:#FFFFFF;stroke:#000000;stroke-linecap:round;stroke-linejoin:round;stroke-miterlimit:10;}
	.st5{fill:none;stroke:#000000;stroke-linecap:round;stroke-linejoin:round;stroke-miterlimit:10;}
	.st6{stroke:#000000;stroke-miterlimit:10;}
	.st7{fill:none;stroke:#B2B2B2;stroke-linecap:round;stroke-linejoin:round;stroke-miterlimit:10;}
	.st8{fill:#8342EA;stroke:#000000;stroke-linecap:round;stroke-linejoin:round;stroke-miterlimit:10;}
	.st9{fill:#1A2E35;stroke:#000000;stroke-linecap:round;stroke-linejoin:round;stroke-miterlimit:10;}
	.st10{fill:#8342EA;stroke:#1A2E35;stroke-linecap:round;stroke-linejoin:round;stroke-miterlimit:10;}
	.st11{fill:#5AE4A7;stroke:#1A2E35;stroke-linecap:round;stroke-linejoin:round;stroke-miterlimit:10;}
	.st12{fill:none;stroke:#1A2E35;stroke-miterlimit:10;}
	.st13{fill:#FFFFFF;stroke:#1A2E35;stroke-linecap:round;stroke-linejoin:round;stroke-miterlimit:10;}
	.st14{fill:#1A2E35;stroke:#1A2E35;stroke-linecap:round;stroke-linejoin:round;stroke-miterlimit:10;}
	.st15{fill:#1A2E35;}
	.st16{fill:none;stroke:#1A2E35;stroke-width:3;stroke-linecap:round;stroke-linejoin:round;stroke-miterlimit:10;}
</style>
<g id="Background_Simple">
</g>
<g id="Graphics">
</g>
<g id="Shadow_4">
</g>
<g id="Shadow_3">
</g>
<g id="Shadow_2">
</g>
<g id="Shadow_1">
</g>
<g id="Character_4">
</g>
<g id="Character_2_1_">
</g>
<g id="Character_1">
</g>
<g id="Text">
</g>
<g>
	<path class="st0" d="M409.7,86.7c-43.2-34.1-98.2-51.8-152.6-55.8c-82-6-130,37-131,81s-23.9,91.8-78,146.4
		c-54,54.6-41,136.6,50,162.6s166-12,197-34c31-22,96,42,139,21c27.4-13.4,38.9-59,44.9-85.5c11.2-49.4,10.4-103-7-150.9
		C459.2,136.7,437.2,108.5,409.7,86.7z"/>
	<path class="st1" d="M409.7,86.7c-43.2-34.1-98.2-51.8-152.6-55.8c-82-6-130,37-131,81s-23.9,91.8-78,146.4
		c-54,54.6-41,136.6,50,162.6s166-12,197-34c31-22,96,42,139,21c27.4-13.4,38.9-59,44.9-85.5c11.2-49.4,10.4-103-7-150.9
		C459.2,136.7,437.2,108.5,409.7,86.7z"/>
</g>
<line class="st2" x1="263.7" y1="24" x2="263.7" y2="293.8"/>
<g class="st3">
	<g>
		<path class="st4" d="M325.3,444H81.2c-2.7,0-4.8-2.2-4.8-4.8V404c0-2.7,2.2-4.8,4.8-4.8h244.1c2.7,0,4.8,2.2,4.8,4.8v35.1
			C330.2,441.8,328,444,325.3,444z"/>
		<path class="st4" d="M316.8,444H89.7v-62.7c0-4.5,3.7-8.2,8.2-8.2h210.8c4.5,0,8.2,3.7,8.2,8.2V444z"/>
		<rect x="89.7" y="414.9" class="st4" width="227.1" height="29.1"/>
	</g>
	<line class="st5" x1="25.9" y1="444.1" x2="490.4" y2="444.1"/>
</g>
<g class="st3">
	<rect x="367.1" y="373.1" class="st4" width="110.1" height="70.9"/>
	<g>
		<rect x="371.6" y="379.3" class="st4" width="47.5" height="23.8"/>
		<rect x="424.2" y="379.3" class="st4" width="47.5" height="23.8"/>
	</g>
	<g>
		<rect x="371.6" y="408.7" class="st4" width="47.5" height="23.8"/>
		<rect x="424.2" y="408.7" class="st4" width="47.5" height="23.8"/>
	</g>
	<rect x="367.1" y="367.3" class="st4" width="110.1" height="5.8"/>
	<path class="st6" d="M421.1,329.2c-0.9-2.4-3.5-3.6-5.9-3l-3.6-4c0.2-0.7,0.2-1.5-0.8-2.6c-0.5-0.5-1.1-0.9-1.9-0.9
		c-1.5,0-2.7,1.2-2.7,2.7c0,0.3,0.1,0.7,0.2,1l-21.8,20.1c-0.6-0.3-1.4-0.4-2.2-0.1c-0.8,0.3-1.5,1-1.7,1.9
		c-0.4,1.7,0.7,3.2,2.3,3.4l3.2,12.6h-6.5c-2.3,0-4.1,1.9-4.1,4.1v3.2H401v-3.2c0-2.3-1.9-4.1-4.1-4.1h-8.4l-3.3-13.1
		c0.7-0.5,1.1-1.3,1.1-2.2c0-0.3-0.1-0.7-0.2-1l21.8-20.1c0.4,0.2,0.8,0.3,1.2,0.3c0.5,0,1-0.1,1.4-0.4l3,3.3
		c-1.6,1.3-2.3,3.5-1.5,5.6l2.1,5.6l9.2-3.5L421.1,329.2z"/>
</g>
<g class="st3">
	<g>
		<path d="M68.5,383.4c0,0,0.6-2.4,0.6-2.5c0.2-1.8-0.5-5.4-2.4-6.2c-1.3-0.6-2.8,0.2-3.2,1.6c-0.4,1.4,0.2,3,1,4.1
			C65.4,381.6,68.5,383.4,68.5,383.4z"/>
		<path d="M32.5,383.9c1.5,0.6,5,0.4,5,0.4c0,0-0.8-2.3-0.9-2.4c-0.8-1.6-3.4-4.2-5.4-3.9c-1.4,0.2-2.2,1.7-1.8,3.1
			C29.8,382.4,31.3,383.4,32.5,383.9z"/>
		<path d="M34.1,394.1c1.5,0.2,4.7-0.9,4.9-0.9c0.6,1.8,1.3,3.5,2.1,5.3c0.5,1,1,2,1.5,3c-0.3-0.4-0.6-0.8-0.6-0.8
			c-1.2-1.3-4.4-3.2-6.2-2.3c-1.3,0.6-1.7,2.2-0.9,3.4c0.7,1.2,2.4,1.8,3.7,1.9c1.4,0.1,4.1-0.7,4.8-0.9c0.2,0.4,0.4,0.8,0.6,1.1
			c1,1.8,2,3.6,2.9,5.4c0.3,0.6,0.6,1.3,0.9,1.9c-0.3-0.4-0.5-0.7-0.5-0.7c-1.2-1.3-4.4-3.2-6.2-2.3c-1.3,0.6-1.7,2.2-0.9,3.4
			c0.7,1.2,2.4,1.8,3.7,1.9c1.3,0.1,3.8-0.6,4.6-0.9c0.3,0.7,0.6,1.3,0.8,2c0.2,0.4,0.3,0.9,0.5,1.3c0.1,0.4,0.3,0.9,0.4,1.3
			c0.2,0.9,0.5,1.7,0.7,2.6c0.2,0.6,0.3,1.1,0.4,1.7c-0.3-0.6-1-1.8-1-1.9c-1-1.5-3.9-3.8-5.8-3.2c-1.4,0.4-2,2-1.5,3.3
			c0.5,1.3,2.1,2.1,3.4,2.5c1.4,0.4,4.6-0.1,5-0.2c0.2,0.9,0.4,1.8,0.6,2.7c0.6,3,1,5.5,1.3,7.2l1.4,0c0-0.1,0-0.1,0-0.2
			c-0.3-1.8-0.8-4.3-1.5-7.3c-0.2-0.9-0.5-2-0.7-3c0.2-0.1,1.6-0.7,2.7-1.4c1.1,1.1,3.8,2.3,4.1,2.5c-0.3,0.9-0.7,1.8-1,2.6
			c-1.1,2.8-2.2,5.2-2.9,6.8l1.5-0.1c0.7-1.6,1.6-3.7,2.5-6.3c0.3-0.9,0.7-1.9,1-2.9c0.4,0.1,3.5,0.6,5,0.2c1.3-0.3,2.9-1.1,3.4-2.5
			c0.5-1.3,0-2.8-1.4-3.3c-1.9-0.6-4.8,1.7-5.8,3.2c-0.1,0.1-0.6,1.1-0.9,1.8c0.1-0.4,0.3-0.8,0.4-1.2c0.3-0.8,0.5-1.7,0.8-2.6
			c0.1-0.4,0.2-0.9,0.4-1.4c0.1-0.4,0.2-0.9,0.3-1.4c0.2-1.1,0.4-2.2,0.5-3.4c0.7,0.2,3.4,1.1,4.7,0.9c1.3-0.1,3-0.7,3.8-1.9
			c0.7-1.2,0.4-2.8-0.9-3.4c-1.8-0.9-5,1-6.2,2.3c-0.1,0.1-0.9,1.1-1.3,1.7c0.1-0.7,0.2-1.4,0.2-2.1c0.2-2,0.3-4.1,0.4-6.1
			c0-0.6,0.1-1.2,0.1-1.9c0.3,0.1,3.4,1.1,4.9,1c1.3-0.1,3-0.7,3.8-1.9c0.7-1.2,0.4-2.8-0.9-3.4c-1.8-0.9-5,1-6.2,2.3
			c-0.1,0.1-1.2,1.6-1.5,2c0.1-1.4,0.2-2.7,0.4-4.1c0.2-1.9,0.5-3.7,1-5.4c0.1,0,3.4,1.1,4.9,1c1.3-0.1,3-0.7,3.8-1.9
			c0.7-1.2,0.4-2.8-0.9-3.4c-1.8-0.9-5,1-6.2,2.3c-0.1,0.1-0.9,1.2-1.3,1.8c-0.1,0,0,0-0.1,0c0.5-1.8,1.2-3.6,1.9-5.1
			c0.4-0.9,0.9-1.8,1.4-2.6c0.6,0.3,3.3,1.5,4.7,1.5c1.4,0,3.1-0.4,3.9-1.5c0.8-1.1,0.7-2.8-0.5-3.5c-1.7-1.1-5.1,0.4-6.4,1.6
			c-0.1,0.1-0.8,0.8-1.3,1.3c0.2-0.4,0.4-0.7,0.6-1.1c0.8-1.3,1.6-2.5,2.3-3.5c0.4-0.6,0.8-1.1,1.2-1.5c0.7,0,3.6-0.2,4.8-0.9
			c1.2-0.6,2.6-1.7,2.8-3.1c0.2-1.4-0.7-2.8-2.1-2.9c-2-0.1-4.3,2.7-5,4.4c-0.1,0.1-0.7,2.5-0.7,2.5c0,0,0,0,0,0
			c-0.4,0.4-0.8,0.9-1.2,1.5c-0.8,1-1.6,2.1-2.4,3.4c-0.8,1.3-1.7,2.7-2.5,4.3c-0.8,1.6-1.5,3.3-2.1,5.2c0,0,0,0,0,0.1
			c0-0.6-0.1-2.3-0.1-2.4c-0.3-1.8-1.9-5.1-3.9-5.4c-1.4-0.2-2.6,1-2.7,2.4c-0.1,1.4,1,2.8,2.1,3.7c1.2,1,4.4,1.8,4.6,1.9
			c-0.5,1.8-0.9,3.6-1.1,5.5c-0.2,1.1-0.3,2.2-0.4,3.3c0-0.5-0.1-1-0.1-1c-0.3-1.8-1.9-5.1-3.9-5.4c-1.4-0.2-2.6,1-2.7,2.3
			c-0.1,1.4,1,2.8,2.1,3.7c1.1,0.9,3.8,1.7,4.5,1.9c0,0.4-0.1,0.8-0.1,1.3c-0.2,2-0.3,4.1-0.6,6.1c-0.1,0.7-0.2,1.4-0.3,2.1
			c0-0.5,0-0.8-0.1-0.9c-0.3-1.8-1.9-5.1-3.9-5.4c-1.4-0.2-2.6,1-2.7,2.4c-0.1,1.4,1,2.8,2.1,3.7c1,0.8,3.5,1.6,4.3,1.8
			c-0.1,0.7-0.2,1.4-0.4,2.1c-0.1,0.5-0.2,0.9-0.3,1.4c-0.1,0.5-0.3,0.9-0.4,1.3c-0.3,0.8-0.6,1.7-0.8,2.5c-0.2,0.6-0.4,1.1-0.6,1.7
			c0.1-0.7,0.2-2.1,0.2-2.2c0-1.2-0.5-3.1-1.4-4.5c0-0.2,0-0.4-0.1-0.5c-0.3-1.4-1.6-2.4-3-1.9c-1.9,0.6-3.1,4.1-3.1,5.9
			c0,0.1,0.1,1.3,0.2,2c-0.1-0.4-0.2-0.8-0.3-1.3c-0.2-0.9-0.5-1.7-0.8-2.6c-0.1-0.4-0.3-0.9-0.5-1.3c-0.1-0.4-0.3-0.9-0.5-1.4
			c-0.4-1-0.9-2.1-1.4-3.1c0.8-0.2,3.4-1,4.5-1.8c1-0.9,2.1-2.2,2.1-3.7c-0.1-1.4-1.2-2.6-2.7-2.4c-2,0.3-3.6,3.6-3.9,5.3
			c0,0.1-0.1,1.4-0.1,2.1c-0.3-0.6-0.6-1.2-0.9-1.9c-1-1.8-2-3.6-3-5.3c-0.3-0.5-0.6-1.1-0.9-1.6c0.3-0.1,3.4-0.9,4.6-1.9
			c1-0.9,2.1-2.2,2.1-3.7c-0.1-1.4-1.2-2.6-2.7-2.4c-2,0.3-3.6,3.6-3.9,5.3c0,0.1-0.1,2-0.1,2.5c-0.7-1.2-1.3-2.4-1.9-3.6
			c-0.8-1.7-1.6-3.3-2.2-5c0.1,0,3.4-0.9,4.6-1.9c1-0.9,2.1-2.2,2.1-3.7c-0.1-1.4-1.2-2.6-2.7-2.4c-2,0.3-3.6,3.6-3.9,5.3
			c0,0.1-0.1,1.5-0.1,2.2c-0.1,0-0.1,0-0.1,0c-0.6-1.8-1-3.6-1.2-5.4c-0.1-1-0.2-2-0.3-2.9c0.6-0.1,3.5-0.6,4.7-1.4
			c1.1-0.7,2.4-2,2.5-3.4c0.1-1.4-0.9-2.7-2.4-2.6c-2,0.1-4,3.1-4.5,4.9c0,0.1-0.2,1.1-0.3,1.8c0-0.4-0.1-0.9-0.1-1.3
			c-0.1-1.5,0-2.9,0-4.2c0-0.7,0.1-1.3,0.1-1.9c0.6-0.4,2.9-2.2,3.5-3.4c0.7-1.2,1.2-2.9,0.6-4.2c-0.6-1.3-2.1-2-3.3-1.2
			c-1.8,1-2.1,4.6-1.7,6.4c0,0.2,0.8,2.5,0.8,2.5c0,0,0,0,0,0c-0.1,0.6-0.1,1.2-0.2,1.9c-0.1,1.2-0.2,2.7-0.1,4.2
			c0,1.5,0.1,3.2,0.3,5c0.2,1.8,0.5,3.6,1.1,5.4c0,0,0,0,0,0.1c-0.3-0.5-1.3-1.8-1.4-1.9c-1.2-1.3-4.4-3.2-6.2-2.3
			c-1.3,0.6-1.7,2.2-0.9,3.4C31.1,393.4,32.8,394,34.1,394.1z"/>
		<path class="st3" d="M32.5,383.9c1.5,0.6,5,0.4,5,0.4c0,0-0.8-2.3-0.9-2.4c-0.8-1.6-3.4-4.2-5.4-3.9c-1.4,0.2-2.2,1.7-1.8,3.1
			C29.8,382.4,31.3,383.4,32.5,383.9z"/>
		<path class="st3" d="M68.5,383.4c0,0,0.6-2.4,0.6-2.5c0.2-1.8-0.5-5.4-2.4-6.2c-1.3-0.6-2.8,0.2-3.2,1.6c-0.4,1.4,0.2,3,1,4.1
			C65.4,381.6,68.5,383.4,68.5,383.4z"/>
		<path class="st3" d="M34.1,394.1c1.5,0.2,4.7-0.9,4.9-0.9c0.6,1.8,1.3,3.5,2.1,5.3c0.5,1,1,2,1.5,3c-0.3-0.4-0.6-0.8-0.6-0.8
			c-1.2-1.3-4.4-3.2-6.2-2.3c-1.3,0.6-1.7,2.2-0.9,3.4c0.7,1.2,2.4,1.8,3.7,1.9c1.4,0.1,4.1-0.7,4.8-0.9c0.2,0.4,0.4,0.8,0.6,1.1
			c1,1.8,2,3.6,2.9,5.4c0.3,0.6,0.6,1.3,0.9,1.9c-0.3-0.4-0.5-0.7-0.5-0.7c-1.2-1.3-4.4-3.2-6.2-2.3c-1.3,0.6-1.7,2.2-0.9,3.4
			c0.7,1.2,2.4,1.8,3.7,1.9c1.3,0.1,3.8-0.6,4.6-0.9c0.3,0.7,0.6,1.3,0.8,2c0.2,0.4,0.3,0.9,0.5,1.3c0.1,0.4,0.3,0.9,0.4,1.3
			c0.2,0.9,0.5,1.7,0.7,2.6c0.2,0.6,0.3,1.1,0.4,1.7c-0.3-0.6-1-1.8-1-1.9c-1-1.5-3.9-3.8-5.8-3.2c-1.4,0.4-2,2-1.5,3.3
			c0.5,1.3,2.1,2.1,3.4,2.5c1.4,0.4,4.6-0.1,5-0.2c0.2,0.9,0.4,1.8,0.6,2.7c0.6,3,1,5.5,1.3,7.2l1.4,0c0-0.1,0-0.1,0-0.2
			c-0.3-1.8-0.8-4.3-1.5-7.3c-0.2-0.9-0.5-2-0.7-3c0.2-0.1,1.6-0.7,2.7-1.4c1.1,1.1,3.8,2.3,4.1,2.5c-0.3,0.9-0.7,1.8-1,2.6
			c-1.1,2.8-2.2,5.2-2.9,6.8l1.5-0.1c0.7-1.6,1.6-3.7,2.5-6.3c0.3-0.9,0.7-1.9,1-2.9c0.4,0.1,3.5,0.6,5,0.2c1.3-0.3,2.9-1.1,3.4-2.5
			c0.5-1.3,0-2.8-1.4-3.3c-1.9-0.6-4.8,1.7-5.8,3.2c-0.1,0.1-0.6,1.1-0.9,1.8c0.1-0.4,0.3-0.8,0.4-1.2c0.3-0.8,0.5-1.7,0.8-2.6
			c0.1-0.4,0.2-0.9,0.4-1.4c0.1-0.4,0.2-0.9,0.3-1.4c0.2-1.1,0.4-2.2,0.5-3.4c0.7,0.2,3.4,1.1,4.7,0.9c1.3-0.1,3-0.7,3.8-1.9
			c0.7-1.2,0.4-2.8-0.9-3.4c-1.8-0.9-5,1-6.2,2.3c-0.1,0.1-0.9,1.1-1.3,1.7c0.1-0.7,0.2-1.4,0.2-2.1c0.2-2,0.3-4.1,0.4-6.1
			c0-0.6,0.1-1.2,0.1-1.9c0.3,0.1,3.4,1.1,4.9,1c1.3-0.1,3-0.7,3.8-1.9c0.7-1.2,0.4-2.8-0.9-3.4c-1.8-0.9-5,1-6.2,2.3
			c-0.1,0.1-1.2,1.6-1.5,2c0.1-1.4,0.2-2.7,0.4-4.1c0.2-1.9,0.5-3.7,1-5.4c0.1,0,3.4,1.1,4.9,1c1.3-0.1,3-0.7,3.8-1.9
			c0.7-1.2,0.4-2.8-0.9-3.4c-1.8-0.9-5,1-6.2,2.3c-0.1,0.1-0.9,1.2-1.3,1.8c-0.1,0,0,0-0.1,0c0.5-1.8,1.2-3.6,1.9-5.1
			c0.4-0.9,0.9-1.8,1.4-2.6c0.6,0.3,3.3,1.5,4.7,1.5c1.4,0,3.1-0.4,3.9-1.5c0.8-1.1,0.7-2.8-0.5-3.5c-1.7-1.1-5.1,0.4-6.4,1.6
			c-0.1,0.1-0.8,0.8-1.3,1.3c0.2-0.4,0.4-0.7,0.6-1.1c0.8-1.3,1.6-2.5,2.3-3.5c0.4-0.6,0.8-1.1,1.2-1.5c0.7,0,3.6-0.2,4.8-0.9
			c1.2-0.6,2.6-1.7,2.8-3.1c0.2-1.4-0.7-2.8-2.1-2.9c-2-0.1-4.3,2.7-5,4.4c-0.1,0.1-0.7,2.5-0.7,2.5c0,0,0,0,0,0
			c-0.4,0.4-0.8,0.9-1.2,1.5c-0.8,1-1.6,2.1-2.4,3.4c-0.8,1.3-1.7,2.7-2.5,4.3c-0.8,1.6-1.5,3.3-2.1,5.2c0,0,0,0,0,0.1
			c0-0.6-0.1-2.3-0.1-2.4c-0.3-1.8-1.9-5.1-3.9-5.4c-1.4-0.2-2.6,1-2.7,2.4c-0.1,1.4,1,2.8,2.1,3.7c1.2,1,4.4,1.8,4.6,1.9
			c-0.5,1.8-0.9,3.6-1.1,5.5c-0.2,1.1-0.3,2.2-0.4,3.3c0-0.5-0.1-1-0.1-1c-0.3-1.8-1.9-5.1-3.9-5.4c-1.4-0.2-2.6,1-2.7,2.3
			c-0.1,1.4,1,2.8,2.1,3.7c1.1,0.9,3.8,1.7,4.5,1.9c0,0.4-0.1,0.8-0.1,1.3c-0.2,2-0.3,4.1-0.6,6.1c-0.1,0.7-0.2,1.4-0.3,2.1
			c0-0.5,0-0.8-0.1-0.9c-0.3-1.8-1.9-5.1-3.9-5.4c-1.4-0.2-2.6,1-2.7,2.4c-0.1,1.4,1,2.8,2.1,3.7c1,0.8,3.5,1.6,4.3,1.8
			c-0.1,0.7-0.2,1.4-0.4,2.1c-0.1,0.5-0.2,0.9-0.3,1.4c-0.1,0.5-0.3,0.9-0.4,1.3c-0.3,0.8-0.6,1.7-0.8,2.5c-0.2,0.6-0.4,1.1-0.6,1.7
			c0.1-0.7,0.2-2.1,0.2-2.2c0-1.2-0.5-3.1-1.4-4.5c0-0.2,0-0.4-0.1-0.5c-0.3-1.4-1.6-2.4-3-1.9c-1.9,0.6-3.1,4.1-3.1,5.9
			c0,0.1,0.1,1.3,0.2,2c-0.1-0.4-0.2-0.8-0.3-1.3c-0.2-0.9-0.5-1.7-0.8-2.6c-0.1-0.4-0.3-0.9-0.5-1.3c-0.1-0.4-0.3-0.9-0.5-1.4
			c-0.4-1-0.9-2.1-1.4-3.1c0.8-0.2,3.4-1,4.5-1.8c1-0.9,2.1-2.2,2.1-3.7c-0.1-1.4-1.2-2.6-2.7-2.4c-2,0.3-3.6,3.6-3.9,5.3
			c0,0.1-0.1,1.4-0.1,2.1c-0.3-0.6-0.6-1.2-0.9-1.9c-1-1.8-2-3.6-3-5.3c-0.3-0.5-0.6-1.1-0.9-1.6c0.3-0.1,3.4-0.9,4.6-1.9
			c1-0.9,2.1-2.2,2.1-3.7c-0.1-1.4-1.2-2.6-2.7-2.4c-2,0.3-3.6,3.6-3.9,5.3c0,0.1-0.1,2-0.1,2.5c-0.7-1.2-1.3-2.4-1.9-3.6
			c-0.8-1.7-1.6-3.3-2.2-5c0.1,0,3.4-0.9,4.6-1.9c1-0.9,2.1-2.2,2.1-3.7c-0.1-1.4-1.2-2.6-2.7-2.4c-2,0.3-3.6,3.6-3.9,5.3
			c0,0.1-0.1,1.5-0.1,2.2c-0.1,0-0.1,0-0.1,0c-0.6-1.8-1-3.6-1.2-5.4c-0.1-1-0.2-2-0.3-2.9c0.6-0.1,3.5-0.6,4.7-1.4
			c1.1-0.7,2.4-2,2.5-3.4c0.1-1.4-0.9-2.7-2.4-2.6c-2,0.1-4,3.1-4.5,4.9c0,0.1-0.2,1.1-0.3,1.8c0-0.4-0.1-0.9-0.1-1.3
			c-0.1-1.5,0-2.9,0-4.2c0-0.7,0.1-1.3,0.1-1.9c0.6-0.4,2.9-2.2,3.5-3.4c0.7-1.2,1.2-2.9,0.6-4.2c-0.6-1.3-2.1-2-3.3-1.2
			c-1.8,1-2.1,4.6-1.7,6.4c0,0.2,0.8,2.5,0.8,2.5c0,0,0,0,0,0c-0.1,0.6-0.1,1.2-0.2,1.9c-0.1,1.2-0.2,2.7-0.1,4.2
			c0,1.5,0.1,3.2,0.3,5c0.2,1.8,0.5,3.6,1.1,5.4c0,0,0,0,0,0.1c-0.3-0.5-1.3-1.8-1.4-1.9c-1.2-1.3-4.4-3.2-6.2-2.3
			c-1.3,0.6-1.7,2.2-0.9,3.4C31.1,393.4,32.8,394,34.1,394.1z"/>
	</g>
	<rect x="50.6" y="430" width="9.3" height="14"/>
</g>
<g>
	<g>
		<rect x="420" y="130.8" class="st7" width="22" height="11"/>
		<rect x="448.4" y="130.8" class="st7" width="22" height="11"/>
		<rect x="433.9" y="144.7" class="st7" width="22" height="11"/>
		<rect x="433.9" y="115.8" class="st7" width="22" height="11"/>
		<rect x="420" y="171.9" class="st7" width="22" height="11"/>
		<rect x="448.4" y="171.9" class="st7" width="22" height="11"/>
		<rect x="448.4" y="55" class="st7" width="22" height="11"/>
		<rect x="421.4" y="91" class="st7" width="22" height="11"/>
		<rect x="399" y="66" class="st7" width="22" height="11"/>
		<rect x="383.9" y="48.8" class="st7" width="22" height="11"/>
		<rect x="433.9" y="185.8" class="st7" width="22" height="11"/>
		<rect x="299.9" y="210.1" class="st7" width="22" height="11"/>
		<rect x="328.3" y="210.1" class="st7" width="22" height="11"/>
		<rect x="354.8" y="223.9" class="st7" width="22" height="11"/>
	</g>
	<g>
		<rect x="281.5" y="65" class="st7" width="103.3" height="135.8"/>
		<path class="st7" d="M348.4,65h-21.2l-45.7,45.7v35.1l45.4-45.4l-0.3-13.6L348.4,65z M384.8,65h-1.3l-82.1,82.1l16.6,16.6
			l-36.4,36.4v0.7H308l44-44h-18.9l-13.1-13.1l64.7-64.7V65z M384.8,93.2L333,145l14.7,0.2l37.1,37.1v-16.9l-32.6-32.6l32.6-32.6
			V93.2z M359,165.7l-35.1,35.1h25.2l22.5-22.5L359,165.7z M281.5,65v15.2L296.8,65H281.5z"/>
	</g>
</g>
<g class="st3">
	<g>
		<rect x="90" y="47.3" class="st5" width="153" height="195.3"/>
		<rect x="96" y="55" class="st5" width="141" height="180"/>
		<rect x="96" y="144" class="st5" width="141" height="10"/>
	</g>
	<g>
		<line class="st5" x1="231.2" y1="64.5" x2="202" y2="93.8"/>
		<line class="st5" x1="192.1" y1="113.2" x2="187.6" y2="117.7"/>
		<line class="st5" x1="210.9" y1="94.4" x2="196.9" y2="108.4"/>
		<line class="st5" x1="117.7" y1="65.7" x2="108.5" y2="74.9"/>
		<line class="st5" x1="204.7" y1="189.6" x2="199.6" y2="194.7"/>
		<line class="st5" x1="224.7" y1="169.6" x2="209.1" y2="185.2"/>
	</g>
	<g>
		<line class="st5" x1="231.2" y1="161.5" x2="202" y2="190.8"/>
		<line class="st5" x1="192.1" y1="210.2" x2="187.6" y2="214.7"/>
		<line class="st5" x1="210.9" y1="191.4" x2="196.9" y2="205.4"/>
		<line class="st5" x1="117.7" y1="162.7" x2="108.5" y2="171.9"/>
		<line class="st5" x1="204.7" y1="286.6" x2="199.6" y2="291.7"/>
		<line class="st5" x1="224.7" y1="266.6" x2="209.1" y2="282.2"/>
	</g>
</g>
<g>
	<g>
		<path class="st8" d="M407.3,437.2c0,0-1-12.3,0-19.8c1-7.5,5.8-10.3,6.2-13.7c0.3-3.4-1.7-6.8,0.3-10.3c2.1-3.4,6.2-7.2,6.2-7.2
			s-2.7,5.1-0.7,9.2c2.1,4.1,5.2,8.5,3.1,12c-2.2,3.4-4.4,6.8-3.8,9.6c0.7,2.7,4.4,2.1,3.8,8.2c-0.7,6.2-2.4,8.5-2.4,8.5l0.3,3.4
			l-11.6-0.3"/>
		<path class="st8" d="M406.4,437.1c0,0,2.4-2.5-1.5-6.4c-2.5-2.5-5-6.2-5.2-10c-0.1-1.9,0.8-3.4,0.2-5.2c-0.6-1.9-2.6-3.2-3.1-5.3
			c-1-4.2,1.7-8,2.1-9.4c0.3-1.3,0-1.4-1.9-5.1c-1.9-3.7-1.8-6.8-1.8-6.8s0.8,3.7,5.1,4.9c4.3,1.1,6.8,3.9,6.5,9.1
			c-0.3,5.2-0.6,6.5,3,7.5c5.7,1.5,5.2,5.4,4.5,10.2c-0.4,3-0.6,3.8,1.2,6c1.5,1.8,3.7,1.5,1.9,4.5c-1.9,3.4,0.8,6.2-2.6,7.1
			C411.6,439.1,406.4,437.1,406.4,437.1z"/>
		<path class="st8" d="M420.9,437.7c0,0-2.4-2.6,1.7-6.4c2.6-2.4,5.2-6,5.4-9.9c0.1-1.9-0.7-3.4-0.1-5.2c0.7-1.9,2.7-3.1,3.3-5.2
			c1.2-4.1-1.5-8.1-1.8-9.4c-0.3-1.3,0-1.4,2-5c2-3.6,1.9-6.8,1.9-6.8s-0.9,3.7-5.2,4.7c-4.3,1-6.9,3.7-6.7,8.9
			c0.2,5.2,0.5,6.6-3.2,7.4c-5.8,1.3-5.3,5.3-4.8,10.1c0.3,3,0.5,3.8-1.4,5.9c-1.5,1.7-3.7,1.4-2.1,4.5c1.8,3.4-1,6.2,2.4,7.2
			C415.7,439.6,420.9,437.7,420.9,437.7z"/>
		<path class="st4" d="M428.3,434.5V452c0,0.3,0,0.7,0,1c-0.1,0.9-0.3,1.8-0.6,2.7c-1.5,4.3-5.6,7.3-10.4,7.3h-6
			c-4.8,0-8.9-3.1-10.4-7.3c-0.3-0.8-0.5-1.7-0.6-2.7c0-0.3-0.1-0.7-0.1-1v-17.5H428.3z"/>
	</g>
	<rect x="400.3" y="447" class="st9" width="28" height="0.7"/>
	<path class="st9" d="M428.2,451.4c-0.1,0.9-0.3,1.8-0.6,2.7H401c-0.3-0.8-0.5-1.7-0.6-2.7H428.2z"/>
</g>
<g>
	<g>
		<line class="st2" x1="27.1" y1="170.4" x2="39.7" y2="291.6"/>
		<g>
			<g>
				<line class="st2" x1="37.9" y1="274.5" x2="32.3" y2="268.6"/>
				<path class="st10" d="M34.2,270.5c0,0,0.2-2.9-2.4-5.2c-1.6-1.4-9.8-4.9-10.6-2C20.2,266.5,28.7,272.7,34.2,270.5z"/>
				<line class="st2" x1="34.2" y1="270.5" x2="26.3" y2="265.6"/>
			</g>
			<g>
				<line class="st2" x1="39.3" y1="287.8" x2="33.8" y2="283.3"/>
				<path class="st10" d="M35.7,285.2c0,0,0.2-2.9-2.4-5.2c-1.6-1.4-9.8-4.9-10.6-2C21.8,281.2,30.2,287.4,35.7,285.2z"/>
				<line class="st2" x1="35.7" y1="285.2" x2="27.8" y2="280.3"/>
			</g>
			<g>
				<line class="st2" x1="34.1" y1="237.7" x2="28.6" y2="232.7"/>
				<path class="st10" d="M30.4,234.6c0,0,0.2-2.9-2.4-5.2c-1.6-1.4-9.8-4.9-10.6-2C16.5,230.6,25,236.8,30.4,234.6z"/>
				<line class="st2" x1="30.4" y1="234.6" x2="22.5" y2="229.7"/>
			</g>
			<g>
				<line class="st2" x1="35.7" y1="253.3" x2="30.1" y2="247.4"/>
				<path class="st10" d="M31.9,249.3c0,0,0.2-2.9-2.4-5.2c-1.6-1.4-9.8-4.9-10.6-2C18,245.3,26.5,251.5,31.9,249.3z"/>
				<line class="st2" x1="31.9" y1="249.3" x2="24.1" y2="244.4"/>
			</g>
			<g>
				<line class="st2" x1="31.6" y1="214.5" x2="26.1" y2="208.8"/>
				<path class="st10" d="M27.9,210.7c0,0,0.2-2.9-2.4-5.2c-1.6-1.4-9.8-4.9-10.6-2C14,206.7,22.5,212.9,27.9,210.7z"/>
				<line class="st2" x1="27.9" y1="210.7" x2="20" y2="205.8"/>
			</g>
			<g>
				<line class="st2" x1="28.9" y1="188.9" x2="23.6" y2="184.8"/>
				<path class="st10" d="M25.4,186.7c0,0,0.2-2.9-2.4-5.2c-1.6-1.4-9.8-4.9-10.6-2C11.5,182.7,20,188.9,25.4,186.7z"/>
				<line class="st2" x1="25.4" y1="186.7" x2="17.5" y2="181.8"/>
			</g>
			<g>
				<line class="st2" x1="37.4" y1="266.3" x2="42" y2="258.7"/>
				<path class="st11" d="M40.6,261c0,0-0.8-2.8,1.3-5.6c1.2-1.7,8.6-6.8,10-4.1C53.4,254.2,46.4,262.1,40.6,261z"/>
				<line class="st2" x1="40.6" y1="261" x2="46.2" y2="255.8"/>
			</g>
			<g>
				<line class="st2" x1="33.3" y1="227.6" x2="38" y2="220"/>
				<path class="st10" d="M36.6,222.3c0,0-0.8-2.8,1.3-5.6c1.2-1.7,7-5.9,8.4-3.3C47.8,216.4,42.4,223.4,36.6,222.3z"/>
				<line class="st2" x1="36.6" y1="222.3" x2="43.7" y2="215.5"/>
			</g>
			<g>
				<line class="st2" x1="31.6" y1="210.6" x2="36.2" y2="203"/>
				<path class="st10" d="M34.8,205.3c0,0-0.8-2.8,1.3-5.6c1.2-1.7,8.6-6.8,10-4.1C47.6,198.5,40.6,206.4,34.8,205.3z"/>
				<line class="st2" x1="34.8" y1="205.3" x2="41.9" y2="198.5"/>
			</g>
			<g>
				<line class="st2" x1="29" y1="185.7" x2="33.6" y2="178.1"/>
				<path class="st10" d="M32.2,180.4c0,0-0.8-2.8,1.3-5.6c1.2-1.7,8.6-6.8,10-4.1C45,173.6,38,181.4,32.2,180.4z"/>
				<line class="st2" x1="32.2" y1="180.4" x2="39.3" y2="173.6"/>
				<path class="st10" d="M27,169.7c0,0-0.8-2.8,1.3-5.6c1.2-1.7,8.6-6.8,10-4.1C39.8,163,32.8,170.8,27,169.7z"/>
				<line class="st2" x1="27" y1="169.7" x2="34.1" y2="163"/>
				<path class="st10" d="M27.4,170c0,0-2.8,0.5-5.4-1.9c-1.6-1.4-5.9-9.3-3-10.4C22,156.6,29,164.4,27.4,170z"/>
				<line class="st2" x1="27.4" y1="170" x2="21.4" y2="162.3"/>
			</g>
		</g>
	</g>
	<line class="st2" x1="47.3" y1="135.6" x2="47.3" y2="291.3"/>
	<g>
		<line class="st2" x1="62.7" y1="188.3" x2="51.9" y2="291.9"/>
		<g>
			<g>
				<line class="st2" x1="52.1" y1="291.2" x2="49" y2="287.6"/>
				<path class="st11" d="M49,287.6c0,0,0.8-2.8-1.3-5.6c-1.2-1.7-8.6-6.8-10-4.1C36.2,280.8,43.2,288.7,49,287.6z"/>
				<line class="st2" x1="49" y1="287.6" x2="42.3" y2="281.2"/>
			</g>
			<g>
				<line class="st2" x1="55.9" y1="254.2" x2="51.3" y2="250.4"/>
				<path class="st11" d="M52.7,251.7c0,0,0.8-2.8-1.3-5.6c-1.2-1.7-8.6-6.8-10-4.1C39.9,245,46.9,252.8,52.7,251.7z"/>
				<line class="st2" x1="52.7" y1="251.7" x2="46" y2="245.3"/>
			</g>
			<g>
				<line class="st2" x1="54.4" y1="271.7" x2="49.8" y2="264.2"/>
				<path class="st11" d="M51.2,266.4c0,0,0.8-2.8-1.3-5.6c-1.2-1.7-8.6-6.8-10-4.1C38.4,259.7,45.4,267.5,51.2,266.4z"/>
				<line class="st2" x1="51.2" y1="266.4" x2="44.5" y2="260"/>
			</g>
			<g>
				<line class="st2" x1="58.2" y1="230.7" x2="53.8" y2="225.6"/>
				<path class="st10" d="M55.2,227.8c0,0,0.8-2.8-1.3-5.6c-1.2-1.7-8.6-6.8-10-4.1C42.4,221.1,49.4,228.9,55.2,227.8z"/>
				<line class="st2" x1="55.2" y1="227.8" x2="48.5" y2="221.4"/>
			</g>
			<g>
				<line class="st2" x1="60.6" y1="208.2" x2="56.3" y2="201.6"/>
				<path class="st10" d="M57.7,203.8c0,0,0.8-2.8-1.3-5.6c-1.2-1.7-8.6-6.8-10-4.1C44.9,197.1,51.9,204.9,57.7,203.8z"/>
				<line class="st2" x1="57.7" y1="203.8" x2="51" y2="197.4"/>
			</g>
			<g>
				<line class="st2" x1="53" y1="284.2" x2="59.1" y2="277.7"/>
				<path class="st11" d="M57.3,279.7c0,0-0.2-2.9,2.4-5.2c1.6-1.4,9.8-4.9,10.6-2C71.2,275.7,62.7,281.9,57.3,279.7z"/>
				<line class="st2" x1="57.3" y1="279.7" x2="65.6" y2="274.5"/>
			</g>
			<g>
				<line class="st2" x1="57" y1="245.5" x2="63.2" y2="239"/>
				<path class="st11" d="M61.3,241c0,0-0.2-2.9,2.4-5.2c1.6-1.4,9.8-4.9,10.6-2C75.2,237,66.7,243.2,61.3,241z"/>
				<line class="st2" x1="61.3" y1="241" x2="69.6" y2="235.8"/>
			</g>
			<g>
				<line class="st2" x1="58.8" y1="228.5" x2="64.9" y2="222"/>
				<path class="st11" d="M63.1,224c0,0-0.2-2.9,2.4-5.2c1.6-1.4,9.8-4.9,10.6-2C77,220,68.5,226.2,63.1,224z"/>
				<line class="st2" x1="63.1" y1="224" x2="71.4" y2="218.8"/>
			</g>
			<g>
				<line class="st2" x1="61.3" y1="202.3" x2="67.5" y2="197.1"/>
				<path class="st11" d="M65.7,199c0,0-0.2-2.9,2.4-5.2c1.6-1.4,9.8-4.9,10.6-2C79.6,195,71.1,201.2,65.7,199z"/>
				<line class="st11" x1="65.7" y1="199" x2="74" y2="193.8"/>
				<path class="st10" d="M62.7,187.5c0,0-0.2-2.9,2.4-5.2c1.6-1.4,9.8-4.9,10.6-2C76.6,183.5,68.2,189.8,62.7,187.5z"/>
				<line class="st2" x1="62.7" y1="187.5" x2="71.1" y2="182.4"/>
				<path class="st10" d="M63.1,187.9c0,0-2.9-0.1-4.9-3c-1.2-1.7-3.8-10.3-0.9-10.8C60.6,173.7,65.9,182.7,63.1,187.9z"/>
				<line class="st2" x1="63.1" y1="187.9" x2="58.8" y2="179.1"/>
			</g>
		</g>
	</g>
	<g>
		<g>
			<line class="st2" x1="47.1" y1="274.3" x2="42" y2="267.5"/>
			<path class="st11" d="M43.7,269.6c0,0,0.5-2.8-1.9-5.4c-1.4-1.6-9.3-5.9-10.4-3.1C30.3,264.2,38,271.3,43.7,269.6z"/>
			<line class="st2" x1="43.7" y1="269.6" x2="36.4" y2="263.9"/>
		</g>
		<g>
			<line class="st2" x1="47.3" y1="241.6" x2="42" y2="236.8"/>
			<path class="st11" d="M43.7,238.9c0,0,0.5-2.8-1.9-5.4c-1.4-1.6-9.3-5.9-10.4-3.1C30.3,233.5,38,240.5,43.7,238.9z"/>
			<line class="st2" x1="43.7" y1="238.9" x2="36.4" y2="233.2"/>
		</g>
		<g>
			<line class="st2" x1="47.4" y1="207.7" x2="42" y2="200.7"/>
			<path class="st10" d="M43.7,202.8c0,0,0.5-2.8-1.9-5.4c-1.4-1.6-9.3-5.9-10.4-3.1C30.3,197.4,38,204.4,43.7,202.8z"/>
			<line class="st2" x1="43.7" y1="202.8" x2="36.4" y2="197.1"/>
		</g>
		<g>
			<line class="st2" x1="47.1" y1="181.2" x2="42" y2="176.6"/>
			<path class="st10" d="M43.7,178.8c0,0,0.5-2.8-1.9-5.4c-1.4-1.6-9.3-5.9-10.4-3.1C30.3,173.4,38,180.4,43.7,178.8z"/>
			<line class="st2" x1="43.7" y1="178.8" x2="36.4" y2="173.1"/>
		</g>
		<g>
			<line class="st2" x1="47.4" y1="157.2" x2="42.1" y2="153.3"/>
			<path class="st10" d="M43.7,154.6c0,0,0.5-2.8-1.9-5.4c-1.4-1.6-9.3-5.9-10.4-3.1C30.3,149.2,38,156.3,43.7,154.6z"/>
			<line class="st2" x1="43.7" y1="154.6" x2="36.4" y2="148.9"/>
		</g>
		<g>
			<line class="st2" x1="48.4" y1="282.4" x2="52.7" y2="276.9"/>
			<path class="st11" d="M51.1,279c0,0-0.5-2.8,1.9-5.4c1.4-1.6,9.3-5.9,10.4-3.1C64.5,273.6,56.7,280.6,51.1,279z"/>
			<line class="st2" x1="51.1" y1="279" x2="58.8" y2="273"/>
		</g>
		<g>
			<line class="st2" x1="47.3" y1="235.1" x2="52.7" y2="228"/>
			<path class="st11" d="M51.1,230.1c0,0-0.5-2.8,1.9-5.4c1.4-1.6,9.3-5.9,10.4-3.1C64.5,224.7,56.7,231.8,51.1,230.1z"/>
			<line class="st2" x1="51.1" y1="230.1" x2="58.8" y2="224.1"/>
		</g>
		<g>
			<line class="st2" x1="47.3" y1="210.9" x2="52.7" y2="203.9"/>
			<path class="st10" d="M51.1,206c0,0-0.5-2.8,1.9-5.4c1.4-1.6,9.3-5.9,10.4-3.1C64.5,200.6,56.7,207.6,51.1,206z"/>
			<line class="st2" x1="51.1" y1="206" x2="58.8" y2="200"/>
		</g>
		<g>
			<line class="st2" x1="47.3" y1="179" x2="52.7" y2="172"/>
			<path class="st10" d="M51.1,174.1c0,0-0.5-2.8,1.9-5.4c1.4-1.6,9.3-5.9,10.4-3.1C64.5,168.7,56.7,175.7,51.1,174.1z"/>
			<line class="st2" x1="51.1" y1="174.1" x2="58.8" y2="168.1"/>
		</g>
		<g>
			<line class="st2" x1="47.6" y1="151.5" x2="52.9" y2="147.4"/>
			<path class="st10" d="M51.1,149c0,0-0.5-2.8,1.9-5.4c1.4-1.6,9.3-5.9,10.4-3.1C64.5,143.6,56.7,150.7,51.1,149z"/>
			<line class="st2" x1="51.1" y1="149" x2="58.8" y2="143"/>
			<path class="st10" d="M47,137.9c0,0-0.5-2.8,1.9-5.4c1.4-1.6,9.3-5.9,10.4-3.1C60.4,132.5,52.7,139.6,47,137.9z"/>
			<line class="st2" x1="47" y1="137.9" x2="54.7" y2="131.9"/>
			<path class="st10" d="M47.4,138.2c0,0-2.9,0.2-5.2-2.4c-1.4-1.6-4.9-9.8-2-10.6C43.4,124.3,49.6,132.8,47.4,138.2z"/>
			<line class="st2" x1="47.4" y1="138.2" x2="42.2" y2="129.9"/>
		</g>
	</g>
</g>
<g>
	<g>
		<path class="st10" d="M411.8,187.9c0,0-23.4,11.2-28,18c-2,3-15.3,56.3-15.3,56.3l-8.8,7.4l13.6,24h80.5c0,0,5.9-83,4.7-87.1
			c-1.2-4.1-29.2-16.2-32.4-17.7C422.7,187.3,414.5,186.4,411.8,187.9z"/>
		<polyline class="st12" points="401.2,248.3 416.1,260.7 404.3,254 		"/>
		<line class="st12" x1="395.2" y1="243.4" x2="398.8" y2="246.4"/>
		<g>
			<path class="st13" d="M316,280c0,0-2.8,0.4-3.9,2.2c-1.1,1.8-3.2,6.9-2.2,7.4c1,0.4,1.7-1.1,2.4-2.2c0.7-1.1,1.7-2.8,1.7-2.8
				l2.2-0.4L316,280z"/>
			<path class="st13" d="M319.9,277.3c0,0-3.2-0.3-4,1.1c-0.8,1.4-2.5,10.6-2.4,11.7c0.1,1.1,1.5,1.7,2.6-0.3
				c1.1-1.9,3.5-10.6,3.5-10.6L319.9,277.3z"/>
			<path class="st13" d="M326.5,277.2c0,0-4.7-2.2-6.7-1.8c-1.9,0.4-4.7,14.6-4.3,15.3c0.4,0.7,2.4,0.8,3.1-0.3
				c0.7-1.1,4.7-7.9,5.8-9.6C325.5,279.1,326.5,277.2,326.5,277.2z"/>
			<path class="st13" d="M375,284.4c0,0-1.8-12.3-5.1-17.1c-3.3-4.8-5.7-0.7-10.7,1.9c-3,1.6-21.1,9.2-22,9.5
				c-0.9,0.3-8.7-4.2-10.2-3c-1.5,1.2-7.2,8.4-8.4,12.3c-1.2,3.9,1.8,4.2,3,3c1.2-1.2,4.8-6.9,6.3-8.1c1.5-1.2,5.1,2.7,5.1,2.7
				s-5.4,2.7-7.2,3.9c-1.8,1.2,0.9,1.8,3.9,1.8c3,0,6.9-1.2,8.7-2.1c1.8-0.9,3-1.5,3-1.5S365.1,287.8,375,284.4z"/>
		</g>
		<path class="st14" d="M413.6,110.1c0,0-23.3,10-25.3,16.8c-2.1,6.8,2.4,7.7,2.9,11.2c0.6,3.5-15.6,20-9.1,30.4
			c6.5,10.3,41.9,13,56.6,10.3c14.7-2.7,24.2-13,23.3-24.8c-0.9-11.8-8-17.4-16.8-30.7C436.3,110.1,419.8,108,413.6,110.1z"/>
		<g>
			<path class="st13" d="M396.8,152.6c0,0-3.8,0.3-3.8,3.2c0,2.9,3.8,9.1,5.6,8.8C400.3,164.3,396.8,152.6,396.8,152.6z"/>
			<g>
				<path class="st13" d="M409.2,126.9c0,0-13.6,9.4-13.3,14.7c0.3,5.3-0.6,18.6,3.8,27.4c4.4,8.8,10.6,17.4,10.6,17.4
					s-2.7,23-2.4,28.9c0.3,5.9,5,2.9,10.3-3.5c5.3-6.5,10.6-20.9,10.6-20.9l-3.2-3.8l0.6-4.7c0,0,7.1-6.2,9.1-11.5
					c1.1-2.9,0.9-9.1,0.9-9.1s3.8-1.5,5-5.3c1.2-3.8,1.2-3.8,1.2-3.8s-4.7-2.4-7.7-4.4c-2.9-2.1-8.8-8-8.8-8S413.9,134,409.2,126.9z
					"/>
				<path class="st12" d="M408.6,148.4c0,0-1.5,15,0.3,18.3c1.8,3.2,6.5,0,6.5,0"/>
				<path class="st12" d="M410,172.9c0,0,7.7,1.5,11.8-3.8"/>
				<ellipse class="st15" cx="419.2" cy="149.8" rx="1.8" ry="2.2"/>
				<ellipse class="st15" cx="402.7" cy="149.8" rx="1.8" ry="2.2"/>
				<path class="st12" d="M415.9,141.6c0,0,4.4-1.8,7.1,0.9"/>
				<path class="st12" d="M405.9,141.9c0,0-4.4-2.1-6.2,2.1"/>
			</g>
		</g>
		<polyline class="st2" points="383.9,238.3 387.6,257.7 380.1,286 		"/>
		<line class="st2" x1="382.5" y1="230.7" x2="383.1" y2="233.9"/>
		<g>
			<path class="st10" d="M451.3,200.9c0,0,9.2,4.3,8.7,7.3c-0.5,3,2.2,68.9-1,73.5c-3.2,4.5-12.2,3-12.2,3s-3.8-11.8-7.7-15.4
				c-3.9-3.6-5.3-2.4-5.3-2.4l2.7-40.1"/>
			<path class="st13" d="M365.3,280.8c0,0-1.9,2.5-4.7,4.1c-2.7,1.6-6.3,2.5-3.8,3.6c2.5,1.1,6.3-0.5,8.5-1.9
				C367.5,285.2,365.3,280.8,365.3,280.8z"/>
			<path class="st13" d="M420.3,275.3c6-3.7,11.4-9.8,18.9-10c7.4-0.3,14.3,5,17.6,11.3c1.1,2.1,1.8,4.5,1.2,6.7
				c-1.3,4.2-6.5,5.4-10.9,5.9c-8,0.9-16,1.9-24,2.8c-14.4,1.7-29.5,3.3-42.9-2.3c-0.3,1.2-0.7,2.6-1.6,3.4c-1,0.8-2.8,0.8-3.3-0.4
				c-0.8,0.7-2.1,1.4-3.9,0.3c-0.3-0.1-1.5,0.5-2.9,0.3c-0.5-0.1-2.1-0.8-2.6-0.9c-0.6-0.1-1.3-0.4-1.6-0.9
				c-0.2-0.4-0.2-0.8-0.2-1.3c0-2.8,0-5.7,0.8-8.4c3.4-10.8,15.5-4.9,21.9-0.6c2.2,1.4,4.5,2.9,7.1,3.2c1.9,0.2,3.9-0.3,5.8-0.9
				c6.9-1.9,14.2-4.4,20.5-8.2C420.3,275.4,420.3,275.4,420.3,275.3z"/>
			<line class="st2" x1="380.2" y1="289.8" x2="381.2" y2="285.7"/>
			<path class="st2" d="M375.4,292.3c0,0,0.5-11.2,2.5-13.7"/>
			<path class="st2" d="M371.6,292.6c0,0-0.8-9.9,1.1-14.5"/>
			<path class="st2" d="M367.4,292.6c0,0-0.8-7.6,0.6-12.9"/>
		</g>
	</g>
</g>
<g>
	<path class="st14" d="M35.2,293.7l-7.5-70.3c-0.2-2.2,1.5-4.1,3.7-4.1h48.5c1.7,0,3.3,1.2,3.6,2.9l15.8,71.5H35.2z"/>
	<g>
		<path class="st13" d="M94.5,174.5c0,0-30.6,16.3-31.4,22.7c-0.8,6.4-3.4,96.4-3.4,96.4h80.2c0,0-7.9-35.3-8.7-39.5s-2-11.5-2-11.5
			l26.4,12l3.9-26.4c0,0-13.8-19.9-22.5-30.8c-8.7-10.9-19.9-19.3-25-20.5C107.1,175.9,94.5,174.5,94.5,174.5z"/>
		<g>
			<polyline class="st12" points="129.2,242.6 130.7,229.8 135,214.8 			"/>
			<line class="st12" x1="130.7" y1="229.8" x2="131.6" y2="216.5"/>
			<path class="st12" d="M121.4,248.4c0.7,0.3,1.4,0.6,2,0.9"/>
			<path class="st12" d="M93.9,240.5c0,0,14.2,3.3,23.9,6.6"/>
			<path class="st12" d="M111.2,208.2c0,0,1.4,22.4,2,23.8c0.6,1.4,3.7,0.3,3.7,0.3l-2-13"/>
			<line class="st12" x1="86.1" y1="221.5" x2="88.3" y2="218.4"/>
			<line class="st12" x1="77.5" y1="233.7" x2="84" y2="224.5"/>
		</g>
		<path class="st13" d="M103.7,168c0,0-9,2-10.7,3.6c-1.7,1.7-4.5,12.1-4.5,12.1l5,26.4c0,0,14.3-12.6,16.3-13.2
			c2-0.6,18.8,9.3,18.8,9.3s-0.6-13.2-4.8-21.6c-4.2-8.4-7.9-11.8-11.8-14.3C108.2,167.7,103.7,168,103.7,168z"/>
		<g>
			<path class="st13" d="M103.7,149.8c0,0-2,14.6-2.5,19.3c-0.6,4.8-3.4,2.5-1.7,8.4c1.7,5.9,10.9,30,12.9,28c2-2,8.1-25.8,9.5-27.5
				s3.9-5,3.9-5L103.7,149.8z"/>
			<path class="st14" d="M103.5,151.1c-0.4,2.9-1.3,9.7-1.9,14.4l21.5,7.6l-1.7-4.8l-15.7-16.5L103.5,151.1z"/>
		</g>
		<g>
			<path class="st13" d="M70.9,189.3c0,0-10.7,5.9-10.9,9c-0.3,3.1-19.9,72.1-17.9,77.4c2,5.3,11.2,6.2,11.2,6.2s8.7-14.3,13.5-16.8
				c4.8-2.5,6.4-3.1,6.4-3.1L83.3,214"/>
			<path class="st13" d="M140.2,278.2c0,0,2,2.5,4.8,4.2c2.8,1.7,6.4,2.5,3.9,3.6c-2.5,1.1-6.4-0.6-8.7-2
				C137.9,282.7,140.2,278.2,140.2,278.2z"/>
			<path class="st13" d="M78.5,267c0,0-0.2-0.2-0.5-0.6c-1-1.1-3.4-3.8-6-5c-3.4-1.7-13.5-2-22.2,8.1c-8.7,10.1-4.2,15.1,2.8,16.8
				c7,1.7,33.4,3.1,39.8,4.2c6.4,1.1,18.5,2,23,0c4.5-2,9.3-3.4,9.3-3.4s1.4,4.5,3.4,4.5c2,0,1.7-1.7,1.7-1.7s1.1,1.1,2,1.1
				c0.8,0,2-0.8,2-0.8s1.4,1.1,3.1,0.6c1.7-0.6,1.7-1.4,1.7-1.4s2,1.7,2.8,0c0.8-1.7-0.6-7.3-1.1-11.2c-0.6-3.9-3.4-3.9-3.4-3.9
				l-0.9-0.6c-0.9-0.6-2-0.8-3-0.6l-1.4,0.4c0,0-2.8-0.6-4.2,0c-1.4,0.6-13.2,7.6-14.9,8.4c-1.7,0.8-6.2,0-11.2-2
				C96.2,277.9,81,271.2,78.5,267z"/>
			<line class="st2" x1="124.8" y1="287.2" x2="123.9" y2="283.2"/>
			<path class="st13" d="M57.7,277.4C63.9,269,78.5,267,78.5,267s-0.2-0.2-0.5-0.6c-1-1.1-3.4-3.8-6-5c-3.4-1.7-13.5-2-22.2,8.1
				c-8.7,10.1-4.2,15.1,2.8,16.8c0.8,0.2,1.9,0.4,3.1,0.6C55,284.4,55,281.1,57.7,277.4z"/>
			<path class="st2" d="M129.8,290c0,0-0.6-11.5-2.5-14"/>
			<path class="st2" d="M133.7,290.3c0,0,0.8-10.1-1.1-14.9"/>
			<path class="st2" d="M138.5,289.4c0,0,0.3-6.9-1.1-12.3"/>
		</g>
		<g>
			<path class="st13" d="M159.5,228.3c0,0-3-3.9-4.9-2c-2,2-4.5,18.7-4.5,23.8c0,5.1-0.8,4.9,5.3,6.1c6.1,1.2,8.3,1.6,10.6,0.4
				c2.4-1.2-1-8.7-2.8-14.8C161.5,235.7,159.5,228.3,159.5,228.3z"/>
			<g>
				<g>
					<path class="st13" d="M167.3,143.1c0.8-0.2,1.6-0.1,2.5,0.1"/>
					<path class="st13" d="M155.3,160.2c0.7-0.6,1.4-1.3,2-2.2c2.2-2.8,4.1-10.7,7.8-13.8"/>
					<path class="st13" d="M152.9,158.9c0,0,3-1.5,3.8-7"/>
				</g>
				<path class="st13" d="M164.5,186.3l-2.2,13.4c0,0,18.1,37.8,18.3,44.9c0.2,7.1-2,11.2-9.8,12c-7.9,0.8-9.8-1-11.8-8.9
					c-2-7.9-3.3-47.3-3.3-47.3s-3.7-5.1-4.7-6.9c-1-1.8-1.4-4.5-1.4-5.1c0-0.6-1.4-17.1-1.4-17.1l14.2-0.2L164.5,186.3z"/>
				<path class="st13" d="M163.4,184.6l-7.3,1.1c-0.9,0.2-1.8-0.4-2-1.3l-0.4-1.8c-0.2-0.9,0.4-1.8,1.3-2l7.3-1.1
					c0.9-0.2,1.8,0.4,2,1.3l0.4,1.8C164.9,183.6,164.3,184.5,163.4,184.6z"/>
				<path class="st13" d="M164.3,188.5l-5.3,0.8c-0.7,0.1-1.3-0.3-1.4-1l-0.3-1.3c-0.1-0.7,0.3-1.3,1-1.4l5.3-0.8
					c0.7-0.1,1.3,0.3,1.4,1l0.3,1.3C165.4,187.7,165,188.3,164.3,188.5z"/>
				<path class="st13" d="M163.5,173.7l-7.7,1.1c-1,0.2-1.9-0.4-2.1-1.4l-0.4-1.9c-0.2-1,0.4-1.9,1.4-2.1l7.7-1.1
					c1-0.2,1.9,0.4,2.1,1.4l0.4,1.9C165.1,172.6,164.4,173.5,163.5,173.7z"/>
				<path class="st13" d="M164.3,179.4l-7.7,1.1c-1,0.2-1.9-0.4-2.1-1.4l-0.4-1.9c-0.2-1,0.4-1.9,1.4-2.1l7.7-1.1
					c1-0.2,1.9,0.4,2.1,1.4l0.4,1.9C165.9,178.3,165.2,179.2,164.3,179.4z"/>
			</g>
		</g>
		<g>
			<path class="st14" d="M101.3,142.1c0,0-2.1-21.3-4.7-28.5c-2.6-7.2,6.8-15.3,28.9-14.9c22.1,0.4,30.2,10.2,30.6,14.9
				c0.4,4.7-5.1,8.1-5.1,8.1l-2.1,6l-19.6-4.7c0,0,0,5.1-1.7,7.2c-1.7,2.1-11.5,5.5-11.5,5.5s-2.1,7.7-5.5,11.5
				c-3.4,3.8-8.5,3.4-8.9,0.9C101.3,145.5,101.3,142.1,101.3,142.1z"/>
			<g>
				<path class="st13" d="M106.4,145.9c0,0,1.3-8.5-5.5-8.5c-6.8,0-5.1,8.5-3,12.8c2.1,4.3,4.7,5.1,4.7,5.1s13.2,17.4,17.9,20
					c4.7,2.6,7.2,4.3,10.6,2.6c3.4-1.7,13.6-14.5,15.3-21.3c1.7-6.8,1.7-11.5,1.7-11.5s3.8-8.1,3.8-11.9c0-3.8-0.9-11.5-0.9-11.5
					s-18.7-6.8-24.3-5.5c-5.5,1.3-8.1,0.9-5.5,3c2.6,2.1,3.8,8.5,2.1,9.4c-1.7,0.9-11.9,0.9-11.9,4.7c0,3.8,1.3,6-0.4,8.1
					C109.4,143.4,106.4,145.9,106.4,145.9z"/>
				<path class="st12" d="M134.2,159.6c0,0,5.9,0.8,7-0.6c1.1-1.4,0.8-12.1,0.8-12.1l4.2-5.9c0,0,2.5-1.7,3.6,0"/>
				<line class="st12" x1="132.2" y1="168.5" x2="136.2" y2="167.1"/>
				<path class="st15" d="M130.8,144.9c-0.4,1.5-1.4,2.5-2.3,2.3s-1.3-1.6-0.9-3.2c0.4-1.5,1.4-2.5,2.3-2.3
					C130.8,142,131.2,143.4,130.8,144.9z"/>
				<path class="st15" d="M146.7,147.4c-0.4,1.5-1.4,2.5-2.3,2.3c-0.9-0.2-1.3-1.6-0.9-3.2c0.4-1.5,1.4-2.5,2.3-2.3
					C146.7,144.4,147.1,145.9,146.7,147.4z"/>
				<path class="st12" d="M126.9,137.4c0,0,4.2-2.8,10.4,0.8"/>
			</g>
		</g>
		<path class="st13" d="M135.6,164l4.5,29.4l15.6-1.1l0.8-29.7C156.6,162.6,150.1,160.3,135.6,164z"/>
	</g>
</g>
<g>
	<path class="st13" d="M347.4,405.6l12,50.6c0.4,1.5-0.8,3-2.4,3h-15.1v3.8H361c2.9,0,5.1-2.8,4.3-5.6l-15-57.2L347.4,405.6z"/>
	
		<rect x="344.9" y="352.5" transform="matrix(0.9848 0.1738 -0.1738 0.9848 74.8426 -54.4369)" class="st14" width="6.7" height="95.3"/>
	<rect x="258.9" y="460.4" class="st13" width="61" height="2.6"/>
</g>
<g>
	<rect x="283.7" y="290.4" class="st14" width="119.5" height="3.4"/>
	<rect x="361.2" y="290.4" class="st13" width="41.9" height="3.4"/>
	<path class="st13" d="M362.6,290.4h-77.6l-7.5-51.6c-0.4-2.5,1.3-4.4,3.8-4.4H350c2.5,0,4.7,2,5.1,4.4L362.6,290.4z"/>
	<path class="st13" d="M361.1,290.4h-77.6l-7.5-51.6c-0.4-2.5,1.3-4.4,3.8-4.4h68.7c2.5,0,4.7,2,5.1,4.4L361.1,290.4z"/>
</g>
<g>
	
		<rect x="120" y="290.3" transform="matrix(-1 -1.224647e-16 1.224647e-16 -1 361.9942 584.0452)" class="st14" width="122.1" height="3.5"/>
	
		<rect x="120" y="290.3" transform="matrix(-1 -1.224647e-16 1.224647e-16 -1 282.7717 584.0452)" class="st10" width="42.9" height="3.5"/>
	<path class="st10" d="M161.4,290.3h79.3l7.7-52.7c0.4-2.5-1.4-4.5-3.9-4.5h-70.2c-2.5,0-4.8,2-5.2,4.5L161.4,290.3z"/>
	<path class="st10" d="M162.9,290.3h79.3l7.7-52.7c0.4-2.5-1.4-4.5-3.9-4.5h-70.2c-2.5,0-4.8,2-5.2,4.5L162.9,290.3z"/>
	<path class="st14" d="M204.8,260c0.4-2.7,3-5,5.7-5c2.7,0,4.6,2.2,4.2,5c-0.4,2.7-3,5-5.7,5C206.3,264.9,204.4,262.7,204.8,260z"/>
</g>
<line class="st2" x1="25" y1="463" x2="491.7" y2="463"/>
<line class="st13" x1="481.7" y1="293.8" x2="269.6" y2="293.8"/>
<line class="st2" x1="257" y1="293.8" x2="22.6" y2="293.8"/>
<g>
	<path class="st14" d="M189.9,306c0,0-1.8-17.2-10.8-22.6s-4.4,9.2-4.4,10c0,0.8-13.3-14.1-24.6-5.9c-11.3,8.2-0.8,25.4-0.8,25.4
		s-13.6-4.6-13.3,0.3c0.3,4.9,12.8,9,12.8,9s-22.8,2.3-14.6,12.6c8.2,10.3,30.5,2.8,30.5,2.8s-6.2,6.7-1.8,7.4
		c4.4,0.8,21.1-12.3,22.6-15.7C187.1,326,195.8,316,189.9,306z"/>
	<path class="st14" d="M240.8,337.5c0,0,8.4-0.4,12.7-7.5c4.4-7,2.6-11.9-4-14.5c-6.6-2.6-15.8-1.3-15.8-1.3s-14.1-17.6-33.8-13.2
		c-19.8,4.4-22.4,19.8-21.1,27.7c1.3,7.9,5.3,31.6,5.3,31.6s16.3,2.6,20.7-1.8c4.4-4.4,12.7-20.2,21.5-22.4
		C235,334,240.8,337.5,240.8,337.5z"/>
	<g>
		<path class="st2" d="M243.7,352.7c-0.5,3.9-3.4,9.5-6.1,9.1c-2.7-0.4-4.5-3.9-4-7.8c0.5-3.9,3.4-4.5,6.1-4.1
			C242.5,350.2,244.2,348.7,243.7,352.7z"/>
		<path class="st13" d="M196.8,348.1c0,0,3.5,1.3,8.8-2.6c5.3-4,5.3-13.6,16.7-15.8c11.4-2.2,18.9,3.1,19.3,6.2
			c0.4,3.1-1.3,9.2-1.3,15.4c0,6.2,1.3,9.2,2.6,10.5c1.3,1.3,3.1,0.4,0.4,3.1c-2.6,2.6-7.9,5.7-7.9,5.7s-7.5,14.1-10.5,16.7
			c-3.1,2.6-10.5,1.3-13.2,0c-2.6-1.3-8.4-4.4-8.4-4.4l-3.5,12.3L178.8,378l5.3-17.6C184.1,360.4,194.6,357.7,196.8,348.1z"/>
		<polygon class="st14" points="203.4,382.8 197.7,376.4 200.8,389.8 		"/>
		<path class="st15" d="M236.9,353.9c-0.2,1.7-1,3-1.9,2.9c-0.9-0.1-1.5-1.5-1.4-3.2c0.2-1.7,1-3,1.9-2.9
			C236.4,350.8,237,352.2,236.9,353.9z"/>
		<line class="st2" x1="228.5" y1="349.9" x2="198.4" y2="347.9"/>
		<line class="st2" x1="238.4" y1="354" x2="240.9" y2="354"/>
		<path class="st2" d="M231.8,343.2c0,0,3.6-2.1,6.7,0.8"/>
		<path class="st2" d="M231.8,375.6c0,0-3.3,0-5.6-3.9"/>
	</g>
	<g>
		<path class="st10" d="M203,406.5l4,56.8h-86.7c0,0,13.6-43.2,17.8-52.2c4.2-9,9.6-13,9.6-13s11-9.9,26-7.9
			C188.6,392.1,203,406.5,203,406.5z"/>
		<path class="st13" d="M199.4,351.6c0,0-1.8-8.8-7.9-7.5c-6.2,1.3-3.1,14.9,0.9,18.9c4,4,6.6-0.4,6.6-0.4"/>
		<g>
			<path class="st10" d="M204.7,410.2c0,0,3.4-5.9,0.6-10.7c-2.8-4.8-11.3-14.4-22.9-23.4c-11.6-9-26.8-20.6-29.1-14.4
				c-2.3,6.2-4,18.4-4,18.4s-9.9,1.7-11,4.8c-1.1,3.1-2.3,18.6-0.6,20.6c1.7,2,2.8-0.3,6.5-0.3c3.7,0,26-7.3,34.4-6.8
				c8.5,0.6,9.9,3.1,16.4,6.5C201.6,408.2,204.7,410.2,204.7,410.2z"/>
			<path class="st2" d="M198.9,399.9c2,1.5,3.5,2.9,4.4,4"/>
			<path class="st2" d="M156.1,385.7c6.5-1.3,14.3-2,19.8,0.5c6.8,3.1,14.4,7.6,20,11.5"/>
			<path class="st2" d="M144.6,389c0,0,4.2-1.6,9.9-2.9"/>
			<path class="st2" d="M153,380c0,0,7.1-2.8,16.7,0.3"/>
		</g>
		<path class="st10" d="M163.8,408.8c2.3-4.8,9.6-15.5,20.9-9.9c11.3,5.6,14.1,19.2,19.2,35.9c5.1,16.7,9.9,28.5,9.9,28.5h-42.1
			l-10.4-42.1"/>
	</g>
	<path class="st13" d="M254.3,463.2l4.7-4c0,0,5.5,1.3,14.6-1.5c9-2.8,12-5.5,12-5.5s4,1.8,8.1,4.6c4.1,2.7,7.1,3.8,11.1,2.7
		s-1.1-2.2-5.5-5.3c-4.4-3.1-9.8-7.4-9.8-7.4s8.4,4,11.3,5.1c2.9,1.1,5.8,2.9,8.4,1.8c2.5-1.1,1.5-2.2-5.1-5.5c-6-3-12.7-8.7-16-8.7
		c-3.3,0-18.2,6.2-18.2,6.2l-29.2,17.5H254.3z"/>
	<g>
		<g>
			<path class="st14" d="M264.6,456.1c0,0,3.6,1.2,6.8,0.5c3.3-0.7,7.6-1.5,7.6-1.5s8.7,0.4,11.6,0c2.9-0.4,2.2-2.2-2.5-4
				c-4.7-1.8-22.6-2.9-22.9-1.8C264.8,450.4,264.6,456.1,264.6,456.1z"/>
			<path class="st13" d="M291.1,446.4c0,0,6.9,2.6,8.2,3.5c1.3,0.9,3.9,1.5,2.8,3c-1.1,1.5-4.5,0.2-6.9-0.2
				c-2.4-0.4-5.4-1.9-5.4-1.9L291.1,446.4z"/>
			<path class="st13" d="M273.2,442.5c0,0,12.3,0.6,15.1,1.5c2.8,0.9,5,6.7,5.4,8.4c0.4,1.7,1.9,3.9,0.6,4.1c-1.3,0.2-6.1-5.2-8-6.3
				c-1.9-1.1-9.7-4.8-12.5-5.8C271,443.4,271.7,442.3,273.2,442.5z"/>
			<path class="st13" d="M237.1,461c0,0,28.2-20,31.2-20c3,0,16.6,6,19.6,7.5c3,1.5,6.8,9.8,6.8,9.8s-0.8,1.9-3.4,0.4
				c-2.6-1.5-5.6-6.4-5.6-6.4l-15-0.6c0,0-3.8,3.6-6.1,4.3c-2.3,0.8-7.6,1.3-7.6,1.3l-4.9,4.4L237.1,461z"/>
		</g>
		<polygon class="st10" points="250.5,451.4 257,463.3 228.9,463.3 		"/>
	</g>
	<path class="st2" d="M238.9,349.3c0,0-8.4-3.1-9.6-1.1c-1.1,2-2.3,9.3,2.3,12.4c4.5,3.1,6.9-6.5,6.9-6.5"/>
</g>
<g>
	<circle class="st14" cx="264" cy="118" r="37"/>
	<circle class="st13" cx="264" cy="118" r="33"/>
	<polyline class="st16" points="255.2,127.3 264,118 287,134.7 	"/>
</g>
</svg>
