<?xml version="1.0" encoding="utf-8"?>
<!-- Generator: Adobe Illustrator 25.2.0, SVG Export Plug-In . SVG Version: 6.00 Build 0)  -->
<svg version="1.1" xmlns="http://www.w3.org/2000/svg" xmlns:xlink="http://www.w3.org/1999/xlink" x="0px" y="0px"
	 viewBox="0 0 750 500" style="enable-background:new 0 0 750 500;" xml:space="preserve">
<style type="text/css">
	.st0{fill:#7444E4;}
	.st1{opacity:0.8;fill:#FFFFFF;}
	.st2{opacity:0.4;fill:#FFFFFF;}
	.st3{fill:#263238;}
	.st4{fill:none;stroke:#B2B2B2;stroke-linecap:round;stroke-linejoin:round;stroke-miterlimit:10;}
	.st5{fill:#FFFFFF;stroke:#263238;stroke-linecap:round;stroke-linejoin:round;stroke-miterlimit:10;}
	.st6{fill:#7444E4;stroke:#263238;stroke-linecap:round;stroke-linejoin:round;stroke-miterlimit:10;}
	.st7{fill:#263238;stroke:#263238;stroke-linecap:round;stroke-linejoin:round;stroke-miterlimit:10;}
	.st8{fill:none;stroke:#263238;stroke-linecap:round;stroke-linejoin:round;stroke-miterlimit:10;}
	.st9{fill:none;stroke:#263238;stroke-width:2;stroke-linecap:round;stroke-linejoin:round;stroke-miterlimit:10;}
	.st10{fill:#595959;stroke:#263238;stroke-linecap:round;stroke-linejoin:round;stroke-miterlimit:10;}
	.st11{fill:#C9C9C9;stroke:#263238;stroke-linecap:round;stroke-linejoin:round;stroke-miterlimit:10;}
	.st12{fill:#858585;stroke:#263238;stroke-linecap:round;stroke-linejoin:round;stroke-miterlimit:10;}
</style>
<g id="Background_Simple">
	<g>
		<path class="st0" d="M345.2,55.6c0,0-200.2,9.8-275.4,96.7S11.2,340.8,173.3,420.9s346.7,23.4,443.4-22.5
			c96.7-45.9,126.4-182.3,68.4-244.2C627.1,92.4,527.8,46.8,345.2,55.6z"/>
		<path class="st1" d="M345.2,55.6c0,0-200.2,9.8-275.4,96.7S11.2,340.8,173.3,420.9s346.7,23.4,443.4-22.5
			c96.7-45.9,126.4-182.3,68.4-244.2C627.1,92.4,527.8,46.8,345.2,55.6z"/>
	</g>
</g>
<g id="Trees">
	<g>
		<path class="st0" d="M211.4,286.4c0,0,50.1,5,75.5,36c0,0,26.8-36,75-35.2c14-16.9,22.4-38.5,22.4-62.1
			c0-53.8-43.6-97.4-97.4-97.4c-53.8,0-97.4,43.6-97.4,97.4C189.5,248.3,197.7,269.7,211.4,286.4L211.4,286.4z"/>
		<path class="st2" d="M211.4,286.4c0,0,50.1,5,75.5,36c0,0,26.8-36,75-35.2c14-16.9,22.4-38.5,22.4-62.1
			c0-53.8-43.6-97.4-97.4-97.4c-53.8,0-97.4,43.6-97.4,97.4C189.5,248.3,197.7,269.7,211.4,286.4L211.4,286.4z"/>
		<path class="st3" d="M239.6,251.2c25,7.9,40.6,31.2,44.6,37.9l-0.4,165.6h7.2L290,309.4c5.5-8.3,21.1-28.9,45.2-36.3
			c0,0-28.6,6.8-45.4,29.6l-0.9-34.8c4.1-6.6,20.3-30,46.3-38c0,0-30,7.1-46.5,31.2l-0.9-35l0.1,0.5c0,0,16.9-30.4,47.4-39.8
			c0,0-31.3,7.4-47.6,32.9l-2.3-47.2l-0.7,67.6c-15.9-24.2-45-31.3-45-31.3c25.6,8.1,41.3,32.3,44.9,38.4l-0.2,34.8
			C268.3,258.3,239.6,251.2,239.6,251.2z"/>
		<path class="st3" d="M239.6,251.2c25,7.9,40.6,31.2,44.6,37.9l-0.4,165.6h7.2L290,309.4c5.5-8.3,21.1-28.9,45.2-36.3
			c0,0-28.6,6.8-45.4,29.6l-0.9-34.8c4.1-6.6,20.3-30,46.3-38c0,0-30,7.1-46.5,31.2l-0.9-35l0.1,0.5c0,0,16.9-30.4,47.4-39.8
			c0,0-31.3,7.4-47.6,32.9l-2.3-47.2l-0.7,67.6c-15.9-24.2-45-31.3-45-31.3c25.6,8.1,41.3,32.3,44.9,38.4l-0.2,34.8
			C268.3,258.3,239.6,251.2,239.6,251.2z"/>
	</g>
	<g>
		<path class="st0" d="M411.8,314.2c0,0,41.8,4.1,63,30.1c0,0,22.4-30,62.6-29.4c11.7-14.1,18.7-32.1,18.7-51.9
			c0-44.9-36.4-81.3-81.3-81.3c-44.9,0-81.3,36.4-81.3,81.3C393.5,282.4,400.4,300.3,411.8,314.2L411.8,314.2z"/>
		<path class="st2" d="M411.8,314.2c0,0,41.8,4.1,63,30.1c0,0,22.4-30,62.6-29.4c11.7-14.1,18.7-32.1,18.7-51.9
			c0-44.9-36.4-81.3-81.3-81.3c-44.9,0-81.3,36.4-81.3,81.3C393.5,282.4,400.4,300.3,411.8,314.2L411.8,314.2z"/>
		<path class="st3" d="M435.3,284.8c20.9,6.6,33.9,26,37.3,31.6l-0.3,138.2h6l-0.9-121.2c4.6-6.9,17.6-24.1,37.7-30.3
			c0,0-23.9,5.7-37.9,24.7l-0.8-29c3.4-5.5,16.9-25.1,38.7-31.7c0,0-25,5.9-38.8,26l-0.8-29.2l0.1,0.4c0,0,14.1-25.4,39.5-33.2
			c0,0-26.2,6.2-39.7,27.5l-1.9-39.4l-0.6,56.4c-13.3-20.2-37.5-26.2-37.5-26.2c21.4,6.8,34.5,27,37.5,32l-0.2,29.1
			C459.3,290.7,435.3,284.8,435.3,284.8z"/>
		<path class="st3" d="M435.3,284.8c20.9,6.6,33.9,26,37.3,31.6l-0.3,138.2h6l-0.9-121.2c4.6-6.9,17.6-24.1,37.7-30.3
			c0,0-23.9,5.7-37.9,24.7l-0.8-29c3.4-5.5,16.9-25.1,38.7-31.7c0,0-25,5.9-38.8,26l-0.8-29.2l0.1,0.4c0,0,14.1-25.4,39.5-33.2
			c0,0-26.2,6.2-39.7,27.5l-1.9-39.4l-0.6,56.4c-13.3-20.2-37.5-26.2-37.5-26.2c21.4,6.8,34.5,27,37.5,32l-0.2,29.1
			C459.3,290.7,435.3,284.8,435.3,284.8z"/>
	</g>
	<g>
		<path class="st0" d="M43.3,314.2c0,0,41.8,4.1,63,30.1c0,0,22.4-30,62.6-29.4c11.7-14.1,18.7-32.1,18.7-51.9
			c0-44.9-36.4-81.3-81.3-81.3C61.4,181.7,25,218,25,262.9C25,282.4,31.8,300.3,43.3,314.2L43.3,314.2z"/>
		<path class="st2" d="M43.3,314.2c0,0,41.8,4.1,63,30.1c0,0,22.4-30,62.6-29.4c11.7-14.1,18.7-32.1,18.7-51.9
			c0-44.9-36.4-81.3-81.3-81.3C61.4,181.7,25,218,25,262.9C25,282.4,31.8,300.3,43.3,314.2L43.3,314.2z"/>
		<path class="st3" d="M66.8,284.8c20.9,6.6,33.9,26,37.3,31.6l-0.3,138.2h6l-0.9-121.2c4.6-6.9,17.6-24.1,37.7-30.3
			c0,0-23.9,5.7-37.9,24.7l-0.8-29c3.4-5.5,16.9-25.1,38.7-31.7c0,0-25,5.9-38.8,26L107,264l0.1,0.4c0,0,14.1-25.4,39.5-33.2
			c0,0-26.2,6.2-39.7,27.5l-1.9-39.4l-0.6,56.4c-13.3-20.2-37.5-26.2-37.5-26.2c21.4,6.8,34.5,27,37.5,32l-0.2,29.1
			C90.7,290.7,66.8,284.8,66.8,284.8z"/>
		<path class="st3" d="M66.8,284.8c20.9,6.6,33.9,26,37.3,31.6l-0.3,138.2h6l-0.9-121.2c4.6-6.9,17.6-24.1,37.7-30.3
			c0,0-23.9,5.7-37.9,24.7l-0.8-29c3.4-5.5,16.9-25.1,38.7-31.7c0,0-25,5.9-38.8,26L107,264l0.1,0.4c0,0,14.1-25.4,39.5-33.2
			c0,0-26.2,6.2-39.7,27.5l-1.9-39.4l-0.6,56.4c-13.3-20.2-37.5-26.2-37.5-26.2c21.4,6.8,34.5,27,37.5,32l-0.2,29.1
			C90.7,290.7,66.8,284.8,66.8,284.8z"/>
	</g>
	<g>
		<path class="st0" d="M556.4,286.6c0,0,50,5,75.4,36c0,0,26.8-35.9,74.9-35.2c14-16.8,22.4-38.4,22.4-62
			c0-53.7-43.5-97.3-97.2-97.3c-53.7,0-97.3,43.5-97.3,97.2C534.6,248.6,542.8,270,556.4,286.6L556.4,286.6z"/>
		<path class="st2" d="M556.4,286.6c0,0,50,5,75.4,36c0,0,26.8-35.9,74.9-35.2c14-16.8,22.4-38.4,22.4-62
			c0-53.7-43.5-97.3-97.2-97.3c-53.7,0-97.3,43.5-97.3,97.2C534.6,248.6,542.8,270,556.4,286.6L556.4,286.6z"/>
		<path class="st3" d="M584.6,251.5c25,7.9,40.5,31.1,44.6,37.9l-0.4,165.3h7.2l-1.1-145c5.4-8.3,21-28.8,45.1-36.2
			c0,0-28.6,6.8-45.3,29.6l-0.9-34.7c4.1-6.6,20.2-30,46.2-37.9c0,0-29.9,7.1-46.4,31.1l-0.9-35l0.1,0.5c0,0,16.9-30.4,47.3-39.7
			c0,0-31.3,7.4-47.5,32.8l-2.3-47.1l-0.7,67.5c-15.9-24.2-44.9-31.3-44.9-31.3c25.6,8.1,41.3,32.3,44.8,38.3l-0.2,34.8
			C613.2,258.5,584.6,251.5,584.6,251.5z"/>
		<path class="st3" d="M584.6,251.5c25,7.9,40.5,31.1,44.6,37.9l-0.4,165.3h7.2l-1.1-145c5.4-8.3,21-28.8,45.1-36.2
			c0,0-28.6,6.8-45.3,29.6l-0.9-34.7c4.1-6.6,20.2-30,46.2-37.9c0,0-29.9,7.1-46.4,31.1l-0.9-35l0.1,0.5c0,0,16.9-30.4,47.3-39.7
			c0,0-31.3,7.4-47.5,32.8l-2.3-47.1l-0.7,67.5c-15.9-24.2-44.9-31.3-44.9-31.3c25.6,8.1,41.3,32.3,44.8,38.3l-0.2,34.8
			C613.2,258.5,584.6,251.5,584.6,251.5z"/>
	</g>
</g>
<g id="Clouds">
	<g>
		<path class="st4" d="M404.2,56c-0.2-0.7-0.4-1.4-0.7-2c-9-25.1-50.9-26.8-50.9,4c0,5.9-14.2,0-19.6,7.7
			c-5.3,7.7,0.6,12.5-6.5,14.8c-7.1,2.4-7.7-3.6-16.6-3c-8.9,0.6-7.7,8.9-10.7,11.3s-3,1.2-9.5,1.8c-6.5,0.6-7.7,5.3-7.7,5.3h156
			c0,0,5.9-17.8-4.7-24.3c-10.7-6.5-10.7,2.4-19-1.2C407.4,67.5,406.1,61.9,404.2,56z"/>
		<path class="st4" d="M409.6,89.4c0,0,3.2-10-4.7-17.3c-7.9-7.3-16.2-3.2-18.5,0c-2.3,3.2-2.3,9.4-6.2,10
			c-3.8,0.6-2.9-6.5-11.2-4.7c-8.2,1.8-5,10-8.8,11.8c-3.8,1.8-3.8-4.7-9.1-2.6c-5.3,2.1-5,5.9-5,5.9"/>
		<path class="st4" d="M367.4,69.5c0,0-6.5-5.2-15-1.3c-8.5,3.9-4.6,12.1-8.5,14.1c-3.9,2-5.9-0.3-10.8,2c-4.9,2.3-4.6,5.6-4.6,5.6"
			/>
	</g>
	<g>
		<path class="st4" d="M226,100.2c-0.1-0.3-0.2-0.6-0.3-0.9c-3.9-10.9-22.2-11.7-22.2,1.7c0,2.6-6.2,0-8.5,3.4
			c-2.3,3.4,0.3,5.4-2.8,6.5c-3.1,1-3.4-1.5-7.2-1.3c-3.9,0.3-3.4,3.9-4.6,4.9c-1.3,1-1.3,0.5-4.1,0.8c-2.8,0.3-3.4,2.3-3.4,2.3
			h67.9c0,0,2.6-7.7-2.1-10.6s-4.6,1-8.3-0.5C227.4,105.2,226.8,102.8,226,100.2z"/>
		<path class="st4" d="M228.3,114.7c0,0,1.4-4.3-2-7.5c-3.5-3.2-7-1.4-8.1,0c-1,1.4-1,4.1-2.7,4.3c-1.7,0.3-1.3-2.8-4.9-2
			c-3.6,0.8-2.2,4.3-3.8,5.1c-1.7,0.8-1.7-2-4-1.2c-2.3,0.9-2.2,2.6-2.2,2.6"/>
		<path class="st4" d="M209.9,106.1c0,0-2.8-2.3-6.5-0.6c-3.7,1.7-2,5.3-3.7,6.1c-1.7,0.9-2.6-0.1-4.7,0.9c-2.1,1-2,2.4-2,2.4"/>
	</g>
	<g>
		<path class="st4" d="M574.5,98.9c-0.1-0.3-0.2-0.6-0.3-0.9c-3.9-10.9-22.2-11.7-22.2,1.7c0,2.6-6.2,0-8.5,3.4
			c-2.3,3.4,0.3,5.4-2.8,6.5c-3.1,1-3.4-1.5-7.2-1.3c-3.9,0.3-3.4,3.9-4.6,4.9c-1.3,1-1.3,0.5-4.1,0.8c-2.8,0.3-3.4,2.3-3.4,2.3
			h67.9c0,0,2.6-7.7-2.1-10.6c-4.6-2.8-4.6,1-8.3-0.5C575.9,103.9,575.3,101.4,574.5,98.9z"/>
		<path class="st4" d="M576.9,113.4c0,0,1.4-4.3-2-7.5c-3.5-3.2-7-1.4-8.1,0c-1,1.4-1,4.1-2.7,4.3c-1.7,0.3-1.3-2.8-4.9-2
			s-2.2,4.3-3.8,5.1c-1.7,0.8-1.7-2-4-1.2c-2.3,0.9-2.2,2.6-2.2,2.6"/>
		<path class="st4" d="M558.5,104.7c0,0-2.8-2.3-6.5-0.6c-3.7,1.7-2,5.3-3.7,6.1c-1.7,0.9-2.6-0.1-4.7,0.9c-2.1,1-2,2.4-2,2.4"/>
	</g>
</g>
<g id="Character_3">
	<g>
		<path class="st5" d="M495.3,422.5c0,0-3.8,19.9-4,21.1c-0.2,1.2-1.4,10.9-1.4,10.9l18.2-0.2l-1.9-15.2l4.7-13.7L495.3,422.5z"/>
		<path class="st6" d="M517.8,332.5c0,0-24.2,77.7-25.1,83.1c-0.9,5.4-0.7,7.6-0.7,7.6l21.1,5.2l7.8-19.7l0.2-82.2L517.8,332.5z"/>
		<polygon class="st7" points="512.1,454.7 516.8,417.9 614.5,419.2 617.1,454.5 		"/>
		<path class="st6" d="M516,415.9l-0.5,10.1c0,0,11.3,9.5,45.2,9.3c33.9-0.3,45.2-4.5,48.6-5.6c3.4-1.1,5.8-2.4,5.8-4.8
			s-1.3-8.7-1.3-8.7s-30.7,4-54.1,4.8C536.4,421.7,516,415.9,516,415.9z"/>
		<path class="st6" d="M550.9,256.8c0,0-19.4,13.2-20.6,17.4c-1.3,4.3-14.6,44.9-13.8,50.7c0.8,5.8,1.3,22.8,1.3,22.8s-6,66-4,69.8
			c2,3.8,23.6,9.8,55,8.8c31.4-1,44.7-5.8,45.9-7c1.3-1.3,2.8-3.5,2.3-7.5c-0.5-4-0.5-30.1-0.5-30.1l19.1-7
			c0,0-8.5-104.1-11.8-109.7c-3.3-5.5-30.9-13.8-35.1-13.5C584.2,251.6,550.9,256.8,550.9,256.8z"/>
		<g>
			<line class="st5" x1="538.1" y1="338.3" x2="561.6" y2="352.8"/>
			<line class="st5" x1="530.2" y1="333.4" x2="535.6" y2="336.8"/>
			<line class="st5" x1="568.2" y1="353.2" x2="571" y2="354.9"/>
			<line class="st5" x1="553.2" y1="344.4" x2="564.7" y2="351.2"/>
		</g>
		<g>
			<path class="st5" d="M536.5,175.2c0,0-3.8,15.9-3.8,17.7c0,1.7,1.3,5.6,1.2,6.5c-0.2,1-10.8,11.5-9.4,13.1
				c1.3,1.5,4.6,6.3,4.6,6.3s4.6,20.2,6.3,20.2s16.3-3.5,16.3-3.5l-0.8,21.3l-4,4c0,0-2.5,22.8,0.6,22.5
				c3.1-0.4,42.2-29.2,42.8-30.7c0.6-1.5-0.4-2.5-1.5-3.1c-1.2-0.6-4-5.4-4-5.4s-1.9-23.8-1.9-24.4c0-0.6,4.8-21.1,5.2-21.7
				c0.4-0.6,2.7-10.8-13.2-18c-15.9-7.3-34.6-9.2-36.1-8.6C537,171.9,536.5,175.2,536.5,175.2z"/>
			<polygon class="st7" points="551.6,235.5 561.8,233.9 552,244.7 			"/>
			<path class="st7" d="M534,219.3c0,0,6,0.6,10-3.6c0,0-0.2,7.3-2.9,8.3C538.4,224.9,534,219.3,534,219.3z"/>
			<path class="st8" d="M540.1,197.5"/>
			<path class="st3" d="M539.7,198.8c0,1.3-0.5,2.3-1.1,2.3c-0.6,0-1.1-1-1.1-2.3c0-1.3,0.5-2.3,1.1-2.3
				C539.2,196.5,539.7,197.5,539.7,198.8z"/>
			<path class="st8" d="M536.1,190.9c0,0,2.7-2,7.5,0"/>
			<path class="st7" d="M558.4,152.2c0,0-9.5-6.8-16.6-6.8s-12.6,5.2-12.6,9.2c0,4,1.5,7.1-0.3,8.6c-1.8,1.5-6.1-3.1-8.6,3.4
				c-2.5,6.4,8,12.9,10.1,13.5c2.1,0.6,5.5-4,7.4-2.5c1.8,1.5,2.8,4.9,7.4,4.9c4.6,0,8.9-3.7,10.1-1.8s-1.8,7.4,0.3,8.9
				c2.1,1.5,6.4,5.2,6.4,5.2s-2.1,5.8-0.6,6.4c1.5,0.6,1.5,0.6,1.5,0.6s2.8-6.4,6.8-5.8c4,0.6,5.2,2.1,5.2,8.9
				c0,6.8-7.4,9.2-7.4,9.2s7.1,8.3,9.2,8.9c2.1,0.6,5.5,2.8,6.8,0.6c1.2-2.1,8-15.3,9.2-16.9c1.2-1.5,10.1-1.8,12-8.9
				c1.8-7.1-3.4-10.4-1.2-12.6c2.1-2.1,11-3.1,8.3-12.6c-2.8-9.5-10.1-10.1-12.9-11c-2.8-0.9-6.1-8-10.4-9.8
				c-4.3-1.8-6.8-0.6-7.7-0.3c-0.9,0.3-1.5-4.3-10.4-3.4C561.5,149.1,558.4,152.2,558.4,152.2z"/>
			<g>
				<g>
					<path class="st3" d="M537.1,206.5c-2.4,0-5.4-0.9-6.4-2.1c-1.3-1.5-2.2-9.5-1.3-12c0.3-1,0.9-1.3,1.3-1.3
						c0.3-0.1,0.9-0.2,11.2,0.4c0.8,0,1.6,0.4,2.1,1.1c0.5,0.6,0.8,1.4,0.6,2.3v0c-0.2,1.8-0.6,4.2-0.7,5.1c-0.2,1.6-2.3,5-4.3,6.1
						C539,206.4,538.1,206.5,537.1,206.5z M531.3,193.1c-0.6,1.4-0.1,8.8,1,10.1c0.8,1,5.1,1.9,6.4,1.1c1.4-0.8,3.2-3.6,3.3-4.6
						c0.1-0.8,0.4-3.2,0.7-5l0,0c0-0.3,0-0.5-0.2-0.7c-0.2-0.2-0.4-0.3-0.7-0.3C535.3,193.1,532.2,193,531.3,193.1z"/>
				</g>
				<polygon class="st7" points="543.7,194.7 566,197.7 564.1,199.4 549.9,198.2 547.4,199.4 543,199.8 				"/>
			</g>
		</g>
		<g>
			<path class="st5" d="M515.5,358.5c0,0-7.5-7.6-6.2-8.6c1.3-1,3.5-1,4.9,0.6c1.4,1.6,9,10.8,9,10.8L515.5,358.5z"/>
			<path class="st5" d="M525.2,365.5c0,0-7.8-3.8-9.4-4.8s-9.7-6-8.7-7.1c1-1.1,3.6-1.6,5.5,0.3c1.9,1.9,9.5,5.4,10,5.5
				c0.5,0.2,4.3,5.4,4.3,5.4L525.2,365.5z"/>
			<path class="st5" d="M565.1,365.3c0,0-10.9-4.4-11.7-4.9c-0.8-0.5-2.5-4.1-5.1-6c-2.5-1.9-5.5-2.4-8.1-3.3c-2.5-1-7.5-3.5-8.2-4
				c-0.8-0.5-4,1.9,0.3,5.2c4.3,3.3,7.5,5.7,7.5,5.7s-6.3,0.3-8.4,0.6c-2.1,0.3-6.5-0.2-7.1-1c-0.6-0.8-5.2-7.1-6.7-8.4
				c-1.4-1.3-4.6-1.7-5.2,0.3s1.7,1.9,5.4,7c3.6,5.1,8.6,11.9,11.1,11.7c2.5-0.2,21.2,1.9,21.2,1.9l16.6,7.6L565.1,365.3z"/>
		</g>
		<path class="st6" d="M602.7,290.3c0,0-6.5,22.8-4.8,29.6c1.8,6.8,12.3,42.2,12.3,42.2s-35.6,0.8-39.9,0.8s-6.5,0.5-6.5,0.5
			l-0.3,22.1c0,0,30.9,8,51.2,6c20.3-2,32.9-5,33.6-8.5c0.8-3.5,0.5-7.5,0.5-7.5s-12.3-73.5-15.6-85.6c-3.3-12-6.8-25.8-9.5-27.9
			c-2.8-2-18.3-4.8-18.3-4.8"/>
	</g>
</g>
<g id="Speech_Bubble_3">
	<g>
		<path class="st5" d="M673.5,60.7h-83.6c-5.3,0-9.7,4.3-9.7,9.7v46.7c0,5.3,4.3,9.7,9.7,9.7h31.3l-7.6,20l18.6-20h41.2
			c5.3,0,9.7-4.3,9.7-9.7V70.4C683.2,65.1,678.8,60.7,673.5,60.7z"/>
		<g>
			<path class="st3" d="M613.9,92.4c0-2.6-2.1-4.6-4.6-4.6c-2.6,0-4.6,2.1-4.6,4.6c0,2.6,2.1,4.6,4.6,4.6
				C611.8,97,613.9,94.9,613.9,92.4z"/>
			<path class="st3" d="M636.3,92.4c0-2.6-2.1-4.6-4.6-4.6s-4.6,2.1-4.6,4.6c0,2.6,2.1,4.6,4.6,4.6S636.3,94.9,636.3,92.4z"/>
			<path class="st3" d="M658.8,92.4c0-2.6-2.1-4.6-4.6-4.6s-4.6,2.1-4.6,4.6c0,2.6,2.1,4.6,4.6,4.6S658.8,94.9,658.8,92.4z"/>
		</g>
	</g>
</g>
<g id="Character_2">
	<g>
		<path class="st7" d="M444.7,454.7c0.3-4.8,0.6-12.3,0.3-15.1c-0.5-4.2-10.8-34.6-10.8-34.6l-119.7-0.1l-3.2,49.8H444.7z"/>
		<path class="st5" d="M442.7,408.1l-3.7,3.5l-7.2,6l13.2,22c0,0,5.2-5.5,6-7.7c0.7-2.2,2.5-9,2.5-9l1.5-3.5L442.7,408.1z"/>
		<g>
			<path class="st6" d="M349.2,246.3c0,0-42.3,13-43.9,19.4c-1.6,6.4-25.7,71.8-25.7,71.8l38.5,4.1c0,0-8.6,64.5-7,66.4
				c1.6,1.9,53.4,3.8,62.9,4.1c9.5,0.3,58.8-5.1,60.1-7.3c1.3-2.2,1-7.3,1-7.3l-1.6-47l0.3-19.4l17.5,34.3c0,0,5.1,4.1,14.3,2.9
				c9.2-1.3,15.9-5.4,14-18.1c-1.9-12.7-27-70.9-29.9-79.5c-2.9-8.6-5.7-12.7-10.2-14.9c-4.4-2.2-47.7-13-47.7-13L349.2,246.3z"/>
			<line class="st5" x1="433.8" y1="331.2" x2="435.1" y2="288.9"/>
			<line class="st5" x1="435.1" y1="314.4" x2="439.2" y2="290.8"/>
			<line class="st8" x1="318.1" y1="341.7" x2="322.9" y2="284.5"/>
			<line class="st8" x1="320" y1="308" x2="316.5" y2="285.1"/>
		</g>
		<g>
			<path class="st6" d="M349.6,236.8c0,0-9.5,7.6-9.2,9.2c0.3,1.6,0.3,8.6,3.8,10.2c3.5,1.6,25.7,19.1,25.7,19.1L349.6,236.8z"/>
			<g>
				<path class="st5" d="M345.4,210.6l4.8,39.3l19.7,25.4l23.5-35l0.3-24.5c0,0-2.2,7.3-15.9,6.7
					C364.2,221.9,345.4,210.6,345.4,210.6z"/>
				<polygon class="st7" points="369.8,231.5 349.6,236.8 344.7,206.6 				"/>
			</g>
			<path class="st6" d="M369.9,275.3c0,0,7-22.6,7.6-25.7c0.6-3.2,16.8-15.9,16.8-15.9s3.2,0,3.2,3.2s0.3,7,0.3,7L369.9,275.3z"/>
		</g>
		<g>
			<path class="st5" d="M398.2,187.4c0,0,4.5-3.5,6.7,1.9c2.2,5.4-4.8,14-6.4,15.6c-1.6,1.6-1.6,1.6-1.6,1.6s-1-8.9-1-12.1
				C396,191.2,395.3,186.7,398.2,187.4z"/>
			<path class="st5" d="M338.1,192.1c0,0-4.8,0.6-4.8,4.8c0,4.1,2.5,9.9,5.7,11.8c3.2,1.9,6.4,1.9,6.4,1.9s0.9,7.6,5.4,12.7
				c4.4,5.1,10.2,8.9,13,10.8s9.2,4.8,13,3.2c3.8-1.6,9.5-7.3,9.5-7.3s5.4-2.2,7.6-9.2c2.2-7,4.8-19.1,4.8-25.1s-1.6-13.4-1.9-15.3
				c-0.3-1.9-5.4-9.2-20.3-9.2c-14.9,0-27,4.7-29.2,8.2C345.1,182.9,338.1,192.1,338.1,192.1z"/>
			<path class="st7" d="M342,190l1.8,7.8c0,0,1.8,0.2,1.8-1.2c0-1.4-1.9-9.3-1.9-9.3L342,190z"/>
			<path class="st8" d="M368.9,206.1c0,0-0.3,2.5,3.2,3.5c3.5,1,8.6,0,9.2-1.9s-0.3-4.1-0.3-4.1"/>
			<path class="st8" d="M364.8,214.4c0,0,9.2,4.8,19.4-1.6"/>
			<ellipse class="st3" cx="364.3" cy="194.5" rx="2.1" ry="3"/>
			<path class="st3" d="M387.9,194.5c0,1.7-0.9,3-2.1,3c-1.1,0-2.1-1.4-2.1-3c0-1.7,0.9-3,2.1-3
				C386.9,191.5,387.9,192.9,387.9,194.5z"/>
			<path class="st9" d="M357.2,189.9c0,0,4.5-4.4,11.8-2.9"/>
			<path class="st9" d="M381,186.4c0,0,5.7-1.9,11.1,2.2"/>
			<path class="st7" d="M343.8,187.4c0,0-3.2,4.8-5.7,4.8c-2.5,0-11.1-6.7-11.8-12.4c-0.6-5.7,12.4-10.2,17.2-17.2
				c4.8-7,17.5-18.8,27.7-16.8c10.2,1.9,16.8,13,23.2,14.9c6.4,1.9,16.5,8.3,15.6,14.6c-1,6.4-3.5,9.2-6,9.5
				c-2.5,0.3-5.7-1.6-5.7-1.6s-8.9-10.5-21.6-12.1c-12.7-1.6-17.2,1.6-21.6,6.4C350.5,182.3,343.8,187.4,343.8,187.4z"/>
			<path class="st10" d="M343.8,187.4c0,0,4.4,2.2,9.9-1c5.4-3.2,8.6-11.4,21.9-9.2c13.3,2.2,14.9,6.7,18.1,7.3s4.4,0.3,3.2-4.1
				c-1.3-4.4-12.4-12.4-23.5-13C362.3,166.7,344.5,177.8,343.8,187.4z"/>
		</g>
		<path class="st5" d="M340.8,314.4c0,0,3.9-11.5,5-12.8s8.6-4.2,8.6-4.2l4.9-2.2c0.7-0.3,1.5,0.1,1.6,0.8c0.5,2.2,0.4,2.6-0.9,3.8
			c-1.5,1.4-7.3,4.1-7.3,4.1l10.8-2.4l17.9-3.7c0.8-0.2,1.6,0.4,1.6,1.2l0,0c0.1,0.7-15.1,6.6-15.1,6.6l0.2,1.5l12.1-1.1l5.1-0.8
			c1-0.1,1.9,0.5,2.1,1.4l0,0c0.2,0.9-0.2,1.8-1.1,2.1c-1.8,0.8-4.8,2.2-5.1,2.3c-0.5,0.2-12,2.3-12,2.3l6.5,1.9l11.1-0.1
			c0.6,0,1.2,0.5,1.2,1.2l0,0c0,0.4-0.2,0.8-0.6,1c-1.1,0.6-3.4,1.8-4.6,2.2c-1.6,0.5-7,1.4-8.4,1.7c-1.4,0.2-6,0.5-6.3,0.5
			c-0.4,0,8,1.2,8.4,1.3s5,0.3,5,0.9c-0.1,0.5,0.1,1.2-0.8,1.6c-0.9,0.3-4.2,0.6-7.6,0.5c-3.4-0.1-7.9-0.1-7.9-0.1
			s-9.2,1.4-12.9,1.7c-3.7,0.3-8.8,1.3-8.8,1.3l-6.9,2.8l-3-15L340.8,314.4z"/>
		<path class="st6" d="M338.4,315l3.7,17c0,0-47.2,35.4-47.9,35.4c-0.7,0-5.7,0.7-12-4.7c-6.2-5.5-7.7-13.2-6.7-18.2
			c1-5,6-11.2,8.5-13.5C286.5,328.7,338.4,315,338.4,315z"/>
		<path class="st6" d="M464.2,352.2c0,0-9,7.5-11,11c-2,3.5-12.2,45.9-12.2,45.9l15.7,13.7l8.2-11.2c0,0,19.2-43.2,20-46.2
			c0.7-3-3-14.2-7-19.7"/>
	</g>
</g>
<g id="Speech_Bubble_2">
	<g>
		<path class="st5" d="M482.7,87.9h-83.6c-5.3,0-9.7,4.3-9.7,9.7v46.7c0,5.3,4.3,9.7,9.7,9.7h31.3l-7.6,20l18.6-20h41.2
			c5.3,0,9.7-4.3,9.7-9.7V97.6C492.4,92.2,488,87.9,482.7,87.9z"/>
		<g>
			<path class="st3" d="M423.8,120.9c0-2.6-2.1-4.6-4.6-4.6c-2.6,0-4.6,2.1-4.6,4.6c0,2.6,2.1,4.6,4.6,4.6
				C421.7,125.6,423.8,123.5,423.8,120.9z"/>
			<path class="st3" d="M446.2,120.9c0-2.6-2.1-4.6-4.6-4.6c-2.6,0-4.6,2.1-4.6,4.6c0,2.6,2.1,4.6,4.6,4.6
				C444.1,125.6,446.2,123.5,446.2,120.9z"/>
			<path class="st3" d="M468.6,120.9c0-2.6-2.1-4.6-4.6-4.6c-2.6,0-4.6,2.1-4.6,4.6c0,2.6,2.1,4.6,4.6,4.6
				C466.5,125.6,468.6,123.5,468.6,120.9z"/>
		</g>
	</g>
</g>
<g id="Character_1">
	<g>
		<path class="st7" d="M163.7,147.1c0,0-26.8,18.2-27.1,24.4c-0.3,6.2-1,23.4-4.5,26.5c-3.4,3.1-10,8.2-10,12s1.4,8.6,1.4,10.3
			c0,1.7-4.1,4.8-4.5,8.6c-0.3,3.8,2.1,11,2.1,13.1c0,2.1-5.5,5.5-6.2,8.2c-0.7,2.7,1,4.5-0.7,7.2c-1.7,2.7-5.2,7.2-5.2,7.2
			s6.2,7.6,27.8,11c21.6,3.4,52.9,4.5,66,1.7c13.1-2.7,38.1-19.6,38.1-19.6s-2.4-1.4-2.4-5.2s4.8-9.6,2.4-14.1
			c-2.4-4.5-7.9-4.8-7.9-11.3c0-6.5,2.4-5.5,0-10.3c-2.4-4.8-7.6-5.5-8.2-9.3c-0.7-3.8,3.8-8.6,1-14.4s-8.6-10-9.6-12.7
			c-1-2.7,2.1-10.3-1.4-14.8s-27.1-18.2-35-19.9C171.9,144,163.7,147.1,163.7,147.1z"/>
		<g>
			<path class="st5" d="M208.1,216.1c-2.6,16.4-15.9,27.6-15.9,27.6v8.7l-9.9-1.2l-24.9-2.9v-22c0,0-2.1,0-5.1-0.5
				c-3.1-0.5-6.7-6.1-3.6-16.9c3.1-10.8,8.7,2,8.7,2s2,0.5,9.2-13.3c7.2-13.8,10.7-32.7,10.7-32.7l27.1,14.8
				C204.5,179.8,210.6,199.8,208.1,216.1z"/>
			<path class="st8" d="M195.9,194.8c0,0-1.7,4.7-1.7,6.2s3.8,17.1,4.3,18c0.5,0.9-9.2,2.4-9.2,2.4"/>
			<path class="st8" d="M198.3,225.2c0,0-9.7,3.8-15.4-1.9"/>
			<path class="st8" d="M185.7,191c0,0-8.3-1.4-12.6,3.8"/>
			<path class="st8" d="M198,191.5c0,0,5.9-1.7,8.3,2.1"/>
			<path class="st3" d="M182.4,202.1c0,2-0.9,3.6-2.1,3.6s-2.1-1.6-2.1-3.6c0-2,0.9-3.6,2.1-3.6S182.4,200,182.4,202.1z"/>
			<path class="st3" d="M204.3,202.1c0,2-0.9,3.6-2.1,3.6s-2.1-1.6-2.1-3.6c0-2,0.9-3.6,2.1-3.6S204.3,200,204.3,202.1z"/>
			<path class="st7" d="M192.2,243.8v8.7l-9.9-1.2c-7.4-6.2-14.2-17.4-14.7-18.2C176,245.6,192.2,243.8,192.2,243.8z"/>
		</g>
		<g>
			<path class="st5" d="M220.9,271.4c0,0,28.5,102.8,30.5,113.2c2.1,10.3,7.2,56.2,7.2,56.2l1.5,13.4h-17l3.6-19.6l-20.1-67
				c0,0-7.2-49.5-7.7-63.4C218.5,290.3,220.9,271.4,220.9,271.4z"/>
			<path class="st6" d="M220.9,271.4c0,0-2.5,18.8-1.9,32.7c0.5,13.9,7.7,63.4,7.7,63.4l7.9,26.4l17.9-2.8c-0.4-2.8-0.8-5-1.1-6.6
				C249.4,374.3,220.9,271.4,220.9,271.4z"/>
		</g>
		<g>
			<polygon class="st5" points="156.6,269.6 181.4,296.4 200.4,269.1 190.1,261.9 162.3,260.4 			"/>
			<polygon class="st11" points="188.6,266.5 205.1,271.2 229.3,415.5 233.4,454.7 123.6,454.7 136,277.4 158.9,264 			"/>
			<g>
				<line class="st8" x1="165.9" y1="331.5" x2="204.6" y2="333"/>
				<line class="st8" x1="186" y1="332" x2="184.5" y2="353.1"/>
				<line class="st8" x1="190.1" y1="333.5" x2="189.6" y2="372.2"/>
				<line class="st8" x1="194.2" y1="344.4" x2="195.3" y2="364"/>
			</g>
		</g>
		<g>
			<path class="st6" d="M149.6,262.6c0,0-25.1,13.4-26.1,17.9c-1,4.5-13.2,60.8-13.2,61.8c0,1,12.2,33,12.2,33l-2.5,50.3
				c0,0,12.4,2.7,19.9,2.4c7.6-0.3,18.9-1,18.9-1l1.8-164.3H149.6z"/>
			<line class="st8" x1="133.9" y1="358.8" x2="138.6" y2="318.1"/>
		</g>
		<g>
			<path class="st5" d="M134.1,352.6L107.7,287c0,0-3.8-10.3-6.9-13.1c-3.1-2.7-6.5-4.8-8.6-6.9c-2.1-2.1-2.4-6.9-3.8-1.7
				c-1.4,5.2,4.1,8.9,4.1,8.9l3.4,5.8L74,276c0,0-11.3-5.5-12.4-3.1c-1,2.4,4.8,4.5,9.6,8.2c4.8,3.8,7.6,7.2,15.5,10
				c7.9,2.7,14.1,8.2,14.1,8.2s1.7,69.8,5.8,72.8c4.1,3.1,18.2,11.3,23.4,4.5C135.1,369.8,135.1,363.6,134.1,352.6z"/>
			<path class="st6" d="M134.1,352.6l-4.3-10.6l-26.6,9c0.9,11.2,2,20.1,3.4,21.2c4.1,3.1,18.2,11.3,23.4,4.5
				C135.1,369.8,135.1,363.6,134.1,352.6z"/>
			<path class="st5" d="M83,288c0,0-9.1-5.5-10.7-8.3c-1.7-2.8-7.4-13.5-5.5-13.8c1.9-0.3,7,7.6,7.2,8.8c0.1,1.2,5.8,6.6,5.8,6.6"/>
			<path class="st5" d="M83.8,290.2c0,0-3.6-2.2-5.8-7.2c-2.2-5-4.7-11.8-4.7-15.7s2.2-2.5,3,0.3c0.8,2.8,3.6,9.4,4.7,10.7
				c1.1,1.4,5,6.9,5,6.9"/>
			<path class="st5" d="M105,292.9c-0.3-0.8-3.9-6.6-5-6.9c-1.1-0.3-8.5,1.7-8.5,1.7l-5-3.9c0,0-0.3-8.3-0.3-11.3
				c0-3-4.1,4.4-4.4,9.4c-0.3,5,3.6,10.2,3.6,10.2s4.4,0.8,5.2,1.1c0.8,0.3,10.1,6.2,10.1,6.2"/>
		</g>
		<polygon class="st12" points="150.9,262.6 147.5,363.3 162.3,362.9 158.9,264 		"/>
		<polygon class="st12" points="150.9,262.6 157.8,371.2 179.1,370.8 165,263.6 		"/>
		<path class="st6" d="M195.8,267.6l0.1,1.9l10.7,154.7l28.4-1.9l-7.7-71.9c0,0-4.8-78.1-6.3-79.1c-1.5-1-25.1-6.4-25.1-6.4V267.6z"
			/>
		<path class="st12" d="M154.4,242.7c0,0,35,6.9,38.1,6.9s5.2,2.1,4.5,4.5c-0.7,2.4-1,4.5-1,5.8c0,1.4,3.8,6.9,0.7,9.6
			s-35.4-2.4-39.9-2.7s-8.6-0.7-8.6-3.1c0-2.4,5.2-6.5,5.2-8.2C153.4,253.7,149.2,248.5,154.4,242.7z"/>
	</g>
</g>
<g id="Speech_Bubble_1">
	<g>
		<path class="st5" d="M62.7,62.3h93.1c6,0,10.8,4.8,10.8,10.8v52c0,6-4.8,10.8-10.8,10.8h-34.9l8.4,22.3l-20.7-22.3H62.7
			c-6,0-10.8-4.8-10.8-10.8V73C51.9,67.1,56.7,62.3,62.7,62.3z"/>
		<g>
			<path class="st3" d="M91.6,99.3c0-2.6-2.1-4.6-4.6-4.6c-2.6,0-4.6,2.1-4.6,4.6c0,2.6,2.1,4.6,4.6,4.6
				C89.5,104,91.6,101.9,91.6,99.3z"/>
			<path class="st3" d="M114,99.3c0-2.6-2.1-4.6-4.6-4.6c-2.6,0-4.6,2.1-4.6,4.6c0,2.6,2.1,4.6,4.6,4.6
				C111.9,104,114,101.9,114,99.3z"/>
			<path class="st3" d="M136.4,99.3c0-2.6-2.1-4.6-4.6-4.6c-2.6,0-4.6,2.1-4.6,4.6c0,2.6,2.1,4.6,4.6,4.6
				C134.4,104,136.4,101.9,136.4,99.3z"/>
		</g>
	</g>
</g>
<g id="Line">
	<line class="st8" x1="35" y1="454.7" x2="712.4" y2="454.7"/>
</g>
</svg>
