<?xml version="1.0" encoding="utf-8"?>
<!-- Generator: Adobe Illustrator 25.2.0, SVG Export Plug-In . SVG Version: 6.00 Build 0)  -->
<svg version="1.1" id="Layer_1" xmlns="http://www.w3.org/2000/svg" xmlns:xlink="http://www.w3.org/1999/xlink" x="0px" y="0px"
	 viewBox="0 0 500 500" style="enable-background:new 0 0 500 500;" xml:space="preserve">
<style type="text/css">
	.st0{fill:#8342EA;}
	.st1{opacity:0.7;fill:#FFFFFF;}
	.st2{fill:#1A2E35;stroke:#1A2E35;stroke-linecap:round;stroke-linejoin:round;stroke-miterlimit:10;}
	.st3{fill:#FFFFFF;}
	.st4{fill:#1A2E35;}
	.st5{fill:#8342EA;stroke:#1A2E35;stroke-linecap:round;stroke-linejoin:round;stroke-miterlimit:10;}
	.st6{fill:#FFFFFF;stroke:#1A2E35;stroke-linecap:round;stroke-linejoin:round;stroke-miterlimit:10;}
	.st7{fill:none;stroke:#1A2E35;stroke-linecap:round;stroke-linejoin:round;stroke-miterlimit:10;}
	.st8{fill:#5AE4A7;stroke:#1A2E35;stroke-linecap:round;stroke-linejoin:round;stroke-miterlimit:10;}
	.st9{fill:#C2C2C2;stroke:#1A2E35;stroke-linecap:round;stroke-linejoin:round;stroke-miterlimit:10;}
</style>
<g id="Background_Simple">
</g>
<g id="Graphics">
</g>
<g id="Shadow_4">
</g>
<g id="Shadow_3">
</g>
<g id="Shadow_2">
</g>
<g id="Shadow_1">
</g>
<g id="Character_4">
</g>
<g id="Character_2_1_">
</g>
<g id="Character_1">
</g>
<g id="Text">
</g>
<g>
	<path class="st0" d="M340.7,47.1c0,0-277.2,41.7-310.8,114.6c-33.6,72.9,52.9,225.1,103.3,267.6c50.5,42.5,266.8,0.8,315.7-63.3
		S466.5,27.9,340.7,47.1z"/>
	<path class="st1" d="M340.7,47.1c0,0-277.2,41.7-310.8,114.6c-33.6,72.9,52.9,225.1,103.3,267.6c50.5,42.5,266.8,0.8,315.7-63.3
		S466.5,27.9,340.7,47.1z"/>
</g>
<g>
	<g>
		<path class="st2" d="M217.7,248.4c0,13.4-11.2,34.5-20.8,34.5c-8,0-20.8-21.1-20.8-34.5c0-13.4,9.3-24.2,20.8-24.2
			S217.7,235,217.7,248.4z"/>
		<polyline class="st2" points="196.4,283.6 196.6,288.4 200.6,287.4 197,282.9 		"/>
		<path class="st3" d="M211.8,233.9c2.4,3.7,2.4,8-0.1,9.7c-2.5,1.7-6.5,0-9-3.6c-2.4-3.7-2.4-8,0.1-9.7
			C205.3,228.6,209.4,230.2,211.8,233.9z"/>
		<path class="st3" d="M200.6,228.8c-0.2,0.8-1.3,1.3-2.6,1c-1.3-0.2-2.1-1.1-2-1.9c0.2-0.8,1.3-1.3,2.6-1
			C199.9,227.1,200.8,228,200.6,228.8z"/>
	</g>
	<g>
		<g>
			<path class="st4" d="M198.2,285.4c-0.8,3-1.2,6.1-1.5,9.1c-0.2,2.2-0.2,4.4-0.2,6.5c0,1.6-0.1,3.2,0.3,4.7c0.6,2.4,2,4.6,3.3,6.6
				c1.6,2.6,3.3,5.2,4.6,8c0.6,1.5,1.2,3,1.5,4.5c0.2,0.8,0.3,1.6,0.4,2.5c0,0.3,0,0.5,0.1,0.8c0.1,0.9,0-0.6,0-0.7
				c-0.1,0.6-0.1,1.3-0.2,1.9c-0.6,4.6-2.8,8.6-5.3,12.4c-2.3,3.5-4.8,6.9-7.2,10.3c-1.6,2.3-3.3,4.6-4.5,7.2
				c-1.3,2.8-1.9,5.9-2.1,9c-0.3,4.5-0.1,9,0.2,13.4c0-0.6,0.1-1.7,0-2.4c-0.5-6.5-0.6-13,2.6-18.8c1.3-2.5,3-4.7,4.6-7
				c2.4-3.3,4.8-6.6,7-10.1c2.3-3.6,4.2-7.4,4.8-11.7c0.4-2.9,0.3-6.2-0.3-9.1c-1.2-5.7-4.8-10.4-7.6-15.3c-0.6-1.1-1.2-2.2-1.6-3.5
				c-0.6-1.8-0.5-3.8-0.4-5.7c0.2-3.5,0.7-7,1.6-10.4C198.5,287.1,198,286.2,198.2,285.4L198.2,285.4z"/>
		</g>
	</g>
</g>
<g>
	<g>
		<path class="st2" d="M75.1,96.2c0,13.4-11.2,34.5-20.8,34.5c-8,0-20.8-21.1-20.8-34.5c0-13.4,9.3-24.2,20.8-24.2
			C65.8,72,75.1,82.8,75.1,96.2z"/>
		<polyline class="st2" points="53.8,131.4 54,136.2 58,135.2 54.4,130.7 		"/>
		<path class="st3" d="M69.2,81.7c2.4,3.7,2.4,8-0.1,9.7c-2.5,1.7-6.5,0-9-3.6c-2.4-3.7-2.4-8,0.1-9.7C62.7,76.4,66.7,78,69.2,81.7z
			"/>
		<path class="st3" d="M58,76.6c-0.2,0.8-1.3,1.3-2.6,1c-1.3-0.2-2.1-1.1-2-1.9c0.2-0.8,1.3-1.3,2.6-1C57.3,74.9,58.1,75.8,58,76.6z
			"/>
	</g>
	<g>
		<g>
			<path class="st4" d="M55.6,133.2c-0.8,3-1.2,6.1-1.5,9.1c-0.2,2.2-0.2,4.4-0.2,6.5c0,1.6-0.1,3.2,0.3,4.7c0.6,2.4,2,4.6,3.3,6.6
				c1.6,2.6,3.3,5.2,4.6,8c0.6,1.5,1.2,3,1.5,4.5c0.2,0.8,0.3,1.6,0.4,2.5c0,0.3,0,0.5,0.1,0.8c0.1,0.9,0-0.6,0-0.7
				c-0.1,0.6-0.1,1.3-0.2,1.9c-0.6,4.6-2.8,8.6-5.3,12.4c-2.3,3.5-4.8,6.9-7.2,10.3c-1.6,2.3-3.3,4.6-4.5,7.2
				c-1.3,2.8-1.9,5.9-2.1,9c-0.3,4.5-0.1,9,0.2,13.4c0-0.6,0.1-1.7,0-2.4c-0.5-6.5-0.6-13,2.6-18.8c1.3-2.5,3-4.7,4.6-7
				c2.4-3.3,4.8-6.6,7-10.1c2.3-3.6,4.2-7.4,4.8-11.7c0.4-2.9,0.3-6.2-0.3-9.1c-1.2-5.7-4.8-10.4-7.6-15.3c-0.6-1.1-1.2-2.2-1.6-3.5
				c-0.6-1.8-0.5-3.8-0.4-5.7c0.2-3.5,0.7-7,1.6-10.4C55.8,134.9,55.4,134,55.6,133.2L55.6,133.2z"/>
		</g>
	</g>
</g>
<g>
	<g>
		<path class="st2" d="M470.1,145.9c0,13.4-11.2,34.5-20.8,34.5c-8,0-20.8-21.1-20.8-34.5c0-13.4,9.3-24.2,20.8-24.2
			C460.8,121.6,470.1,132.5,470.1,145.9z"/>
		<polyline class="st2" points="448.8,181 449,185.9 453,184.9 449.4,180.4 		"/>
		<path class="st3" d="M464.2,131.3c2.4,3.7,2.4,8-0.1,9.7c-2.5,1.7-6.5,0-9-3.6c-2.4-3.7-2.4-8,0.1-9.7
			C457.7,126,461.7,127.7,464.2,131.3z"/>
		<path class="st3" d="M453,126.3c-0.2,0.8-1.3,1.3-2.6,1c-1.3-0.2-2.1-1.1-2-1.9c0.2-0.8,1.3-1.3,2.6-1
			C452.2,124.6,453.1,125.4,453,126.3z"/>
	</g>
	<g>
		<g>
			<path class="st4" d="M450.6,182.9c-0.8,3-1.2,6.1-1.5,9.1c-0.2,2.2-0.2,4.4-0.2,6.5c0,1.6-0.1,3.2,0.3,4.7c0.6,2.4,2,4.6,3.3,6.6
				c1.6,2.6,3.3,5.2,4.6,8c0.6,1.5,1.2,3,1.5,4.5c0.2,0.8,0.3,1.6,0.4,2.5c0,0.3,0,0.5,0.1,0.8c0.1,0.9,0-0.6,0-0.7
				c-0.1,0.6-0.1,1.3-0.2,1.9c-0.6,4.6-2.8,8.6-5.3,12.4c-2.3,3.5-4.8,6.9-7.2,10.3c-1.6,2.3-3.3,4.6-4.5,7.2
				c-1.3,2.8-1.9,5.9-2.1,9c-0.3,4.5-0.1,9,0.2,13.4c0-0.6,0.1-1.7,0-2.4c-0.5-6.5-0.6-13,2.6-18.8c1.3-2.5,3-4.7,4.6-7
				c2.4-3.3,4.8-6.6,7-10.1c2.3-3.6,4.2-7.4,4.8-11.7c0.4-2.9,0.3-6.2-0.3-9.1c-1.2-5.7-4.8-10.4-7.6-15.3c-0.6-1.1-1.2-2.2-1.6-3.5
				c-0.6-1.8-0.5-3.8-0.4-5.7c0.2-3.5,0.7-7,1.6-10.4C450.8,184.6,450.4,183.6,450.6,182.9L450.6,182.9z"/>
		</g>
	</g>
</g>
<g>
	<g>
		<path class="st2" d="M376.5,51.6c0,13.4-11.2,34.5-20.8,34.5c-8,0-20.8-21.1-20.8-34.5c0-13.4,9.3-24.2,20.8-24.2
			S376.5,38.2,376.5,51.6z"/>
		<polyline class="st2" points="355.2,86.7 355.4,91.6 359.4,90.6 355.8,86.1 		"/>
		<path class="st3" d="M370.6,37c2.4,3.7,2.4,8-0.1,9.7c-2.5,1.7-6.5,0-9-3.6c-2.4-3.7-2.4-8,0.1-9.7
			C364.1,31.7,368.1,33.4,370.6,37z"/>
		<path class="st3" d="M359.4,32c-0.2,0.8-1.3,1.3-2.6,1c-1.3-0.2-2.1-1.1-2-1.9c0.2-0.8,1.3-1.3,2.6-1
			C358.6,30.3,359.5,31.1,359.4,32z"/>
	</g>
	<g>
		<g>
			<path class="st4" d="M357,88.6c-0.8,3-1.2,6.1-1.5,9.1c-0.2,2.2-0.2,4.4-0.2,6.5c0,1.6-0.1,3.2,0.3,4.7c0.6,2.4,2,4.6,3.3,6.6
				c1.6,2.6,3.3,5.2,4.6,8c0.6,1.5,1.2,3,1.5,4.5c0.2,0.8,0.3,1.6,0.4,2.5c0,0.3,0,0.5,0.1,0.8c0.1,0.9,0-0.6,0-0.7
				c-0.1,0.6-0.1,1.3-0.2,1.9c-0.6,4.6-2.8,8.6-5.3,12.4c-2.3,3.5-4.8,6.9-7.2,10.3c-1.6,2.3-3.3,4.6-4.5,7.2
				c-1.3,2.8-1.9,5.9-2.1,9c-0.3,4.5-0.1,9,0.2,13.4c0-0.6,0.1-1.7,0-2.4c-0.5-6.5-0.6-13,2.6-18.8c1.3-2.5,3-4.7,4.6-7
				c2.4-3.3,4.8-6.6,7-10.1c2.3-3.6,4.2-7.4,4.8-11.7c0.4-2.9,0.3-6.2-0.3-9.1c-1.2-5.7-4.8-10.4-7.6-15.3c-0.6-1.1-1.2-2.2-1.6-3.5
				c-0.6-1.8-0.5-3.8-0.4-5.7c0.2-3.5,0.7-7,1.6-10.4C357.2,90.3,356.8,89.3,357,88.6L357,88.6z"/>
		</g>
	</g>
</g>
<g>
	<g>
		<path class="st2" d="M200.9,30.5c0,13.4-11.2,34.5-20.8,34.5c-8,0-20.8-21.1-20.8-34.5c0-13.4,9.3-24.2,20.8-24.2
			C191.6,6.3,200.9,17.1,200.9,30.5z"/>
		<polyline class="st2" points="179.6,65.7 179.8,70.5 183.8,69.5 180.2,65 		"/>
		<path class="st3" d="M195,16c2.4,3.7,2.4,8-0.1,9.7c-2.5,1.7-6.5,0-9-3.6c-2.4-3.7-2.4-8,0.1-9.7C188.5,10.7,192.5,12.3,195,16z"
			/>
		<path class="st3" d="M183.8,10.9c-0.2,0.8-1.3,1.3-2.6,1c-1.3-0.2-2.1-1.1-2-1.9c0.2-0.8,1.3-1.3,2.6-1
			C183.1,9.2,183.9,10.1,183.8,10.9z"/>
	</g>
	<g>
		<g>
			<path class="st4" d="M181.4,67.5c-0.8,3-1.2,6.1-1.5,9.1c-0.2,2.2-0.2,4.4-0.2,6.5c0,1.6-0.1,3.2,0.3,4.7c0.6,2.4,2,4.6,3.3,6.6
				c1.6,2.6,3.3,5.2,4.6,8c0.6,1.5,1.2,3,1.5,4.5c0.2,0.8,0.3,1.6,0.4,2.5c0,0.3,0,0.5,0.1,0.8c0.1,0.9,0-0.6,0-0.7
				c-0.1,0.6-0.1,1.3-0.2,1.9c-0.6,4.6-2.8,8.6-5.3,12.4c-2.3,3.5-4.8,6.9-7.2,10.3c-1.6,2.3-3.3,4.6-4.5,7.2
				c-1.3,2.8-1.9,5.9-2.1,9c-0.3,4.5-0.1,9,0.2,13.4c0-0.6,0.1-1.7,0-2.4c-0.5-6.5-0.6-13,2.6-18.8c1.3-2.5,3-4.7,4.6-7
				c2.4-3.3,4.8-6.6,7-10.1c2.3-3.6,4.2-7.4,4.8-11.7c0.4-2.9,0.3-6.2-0.3-9.1c-1.2-5.7-4.8-10.4-7.6-15.3c-0.6-1.1-1.2-2.2-1.6-3.5
				c-0.6-1.8-0.5-3.8-0.4-5.7c0.2-3.5,0.7-7,1.6-10.4C181.6,69.2,181.2,68.3,181.4,67.5L181.4,67.5z"/>
		</g>
	</g>
</g>
<g>
	<g>
		<path class="st5" d="M101.2,71.7c0,13.4-11.2,34.5-20.8,34.5c-8,0-20.8-21.1-20.8-34.5c0-13.4,9.3-24.2,20.8-24.2
			C92,47.5,101.2,58.3,101.2,71.7z"/>
		<polyline class="st2" points="79.9,106.9 80.1,111.7 84.2,110.7 80.5,106.2 		"/>
		<path class="st3" d="M95.3,57.2c2.4,3.7,2.4,8-0.1,9.7c-2.5,1.7-6.5,0-9-3.6c-2.4-3.7-2.4-8,0.1-9.7
			C88.8,51.9,92.9,53.5,95.3,57.2z"/>
		<path class="st3" d="M84.1,52.1c-0.2,0.8-1.3,1.3-2.6,1c-1.3-0.2-2.1-1.1-2-1.9c0.2-0.8,1.3-1.3,2.6-1
			C83.4,50.4,84.3,51.3,84.1,52.1z"/>
	</g>
	<g>
		<g>
			<path class="st4" d="M81.8,111.2c4.4,4.2,8.7,8.9,12,14c2,3.1,3.7,6.2,3.8,9.9c0,0.9,0.1-2.1,0-0.8c0,0.2,0,0.5-0.1,0.7
				c-0.1,0.4-0.1,0.9-0.3,1.3c-0.2,0.8-0.6,1.5-1.1,2.2c-1.5,2.2-3.4,4.2-5,6.3c-3.3,4.2-6.6,8.7-9.2,13.4c-1,1.8-1.8,3.7-2.3,5.8
				c-0.3,1.6-0.3,3.3-0.3,5c0.1,2.9,1.2,5.4,2.8,7.8c2.1,3.1,4.7,5.8,6.7,9c2.7,4.2,4.2,8.9,4.6,13.8c-0.1-0.8,0.1-1.7,0-2.5
				c-0.3-4.5-1.6-8.7-3.8-12.6c-1.7-3-4-5.7-6.1-8.4c-1.8-2.3-3.5-4.8-4-7.8c-0.1-0.4-0.1-2-0.1-0.5c0,1.6,0.1-0.2,0.1-0.6
				c0.1-0.9,0.4-1.8,0.7-2.6c0.8-2.3,2-4.4,3.3-6.4c2.8-4.3,5.7-8.5,8.9-12.4c1.5-1.8,3.2-3.5,4.3-5.6c1-1.8,1-3.7,1-5.7
				c0-1.4,0-2.8-0.2-4.2c-0.4-1.8-1.1-3.5-2-5c-3.4-6.2-8.5-11.8-13.6-16.7c0.1,0.1,0,1.1,0,1.2C81.7,110.2,81.6,111.1,81.8,111.2
				L81.8,111.2z"/>
		</g>
	</g>
</g>
<g>
	<g>
		<path class="st5" d="M316.6,35.3c0,13.4-11.2,34.5-20.8,34.5c-8,0-20.8-21.1-20.8-34.5s9.3-24.2,20.8-24.2
			C307.3,11.1,316.6,21.9,316.6,35.3z"/>
		<polyline class="st2" points="295.2,70.4 295.4,75.3 299.5,74.3 295.8,69.8 		"/>
		<path class="st3" d="M310.6,20.7c2.4,3.7,2.4,8-0.1,9.7c-2.5,1.7-6.5,0-9-3.6c-2.4-3.7-2.4-8,0.1-9.7S308.2,17.1,310.6,20.7z"/>
		<path class="st3" d="M299.4,15.7c-0.2,0.8-1.3,1.3-2.6,1c-1.3-0.2-2.1-1.1-2-1.9c0.2-0.8,1.3-1.3,2.6-1
			C298.7,14,299.6,14.8,299.4,15.7z"/>
	</g>
	<g>
		<g>
			<path class="st4" d="M297.1,74.8c4.4,4.2,8.7,8.9,12,14c2,3.1,3.7,6.2,3.8,9.9c0,0.9,0.1-2.1,0-0.8c0,0.2,0,0.5-0.1,0.7
				c-0.1,0.4-0.1,0.9-0.3,1.3c-0.2,0.8-0.6,1.5-1.1,2.2c-1.5,2.2-3.4,4.2-5,6.3c-3.3,4.2-6.6,8.7-9.2,13.4c-1,1.8-1.8,3.7-2.3,5.8
				c-0.3,1.6-0.3,3.3-0.3,5c0.1,2.9,1.2,5.4,2.8,7.8c2.1,3.1,4.7,5.8,6.7,9c2.7,4.2,4.2,8.9,4.6,13.8c-0.1-0.8,0.1-1.7,0-2.5
				c-0.3-4.5-1.6-8.7-3.8-12.6c-1.7-3-4-5.7-6.1-8.4c-1.8-2.3-3.5-4.8-4-7.8c-0.1-0.4-0.1-2-0.1-0.5c0,1.6,0.1-0.2,0.1-0.6
				c0.1-0.9,0.4-1.8,0.7-2.6c0.8-2.3,2-4.4,3.3-6.4c2.8-4.3,5.7-8.5,8.9-12.4c1.5-1.8,3.2-3.5,4.3-5.6c1-1.8,1-3.7,1-5.7
				c0-1.4,0-2.8-0.2-4.2c-0.4-1.8-1.1-3.5-2-5c-3.4-6.2-8.5-11.8-13.6-16.7c0.1,0.1,0,1.1,0,1.2C297.1,73.7,296.9,74.6,297.1,74.8
				L297.1,74.8z"/>
		</g>
	</g>
</g>
<g>
	<g>
		<path class="st5" d="M420,68.7c0,13.4-11.2,34.5-20.8,34.5c-8,0-20.8-21.1-20.8-34.5c0-13.4,9.3-24.2,20.8-24.2
			C410.7,44.5,420,55.3,420,68.7z"/>
		<polyline class="st2" points="398.7,103.8 398.9,108.7 402.9,107.7 399.3,103.2 		"/>
		<path class="st3" d="M414.1,54.2c2.4,3.7,2.4,8-0.1,9.7c-2.5,1.7-6.5,0-9-3.6c-2.4-3.7-2.4-8,0.1-9.7
			C407.6,48.9,411.6,50.5,414.1,54.2z"/>
		<path class="st3" d="M402.9,49.1c-0.2,0.8-1.3,1.3-2.6,1c-1.3-0.2-2.1-1.1-2-1.9c0.2-0.8,1.3-1.3,2.6-1
			C402.2,47.4,403.1,48.3,402.9,49.1z"/>
	</g>
	<g>
		<g>
			<path class="st4" d="M400.5,108.2c4.4,4.2,8.7,8.9,12,14c2,3.1,3.7,6.2,3.8,9.9c0,0.9,0.1-2.1,0-0.8c0,0.2,0,0.5-0.1,0.7
				c-0.1,0.4-0.1,0.9-0.3,1.3c-0.2,0.8-0.6,1.5-1.1,2.2c-1.5,2.2-3.4,4.2-5,6.3c-3.3,4.2-6.6,8.7-9.2,13.4c-1,1.8-1.8,3.7-2.3,5.8
				c-0.3,1.6-0.3,3.3-0.3,5c0.1,2.9,1.2,5.4,2.8,7.8c2.1,3.1,4.7,5.8,6.7,9c2.7,4.2,4.2,8.9,4.6,13.8c-0.1-0.8,0.1-1.7,0-2.5
				c-0.3-4.5-1.6-8.7-3.8-12.6c-1.7-3-4-5.7-6.1-8.4c-1.8-2.3-3.5-4.8-4-7.8c-0.1-0.4-0.1-2-0.1-0.5c0,1.6,0.1-0.2,0.1-0.6
				c0.1-0.9,0.4-1.8,0.7-2.6c0.8-2.3,2-4.4,3.3-6.4c2.8-4.3,5.7-8.5,8.9-12.4c1.5-1.8,3.2-3.5,4.3-5.6c1-1.8,1-3.7,1-5.7
				c0-1.4,0-2.8-0.2-4.2c-0.4-1.8-1.1-3.5-2-5c-3.4-6.2-8.5-11.8-13.6-16.7c0.1,0.1,0,1.1,0,1.2C400.5,107.2,400.4,108,400.5,108.2
				L400.5,108.2z"/>
		</g>
	</g>
</g>
<g>
	<path class="st2" d="M381.8,151.2c0,0,0.9-6.2,12.9-6.9c12-0.6,16.7,10.8,16.5,13.7s-0.8,4.5,0.6,5.9c1.4,1.4,9.7,4.8,7.8,10.1
		c-1.9,5.3-4.1,5.8-2.6,7.2c1.4,1.4,6.9,3.3,2.2,7.5c-4.7,4.2-6.5,4.1-6.1,5.3c0.5,1.2,4.1,3.9,1.7,5.8c-2.3,1.9-5.1,2.3-5.1,2.3
		s-1.9,5.8-3.6,6.5c-1.7,0.8-4.5-0.9-4.8,0.6c-0.3,1.6,0.9,3.3-3.7,3.1c-4.7-0.2-5.3-3.6-6.9-3.1c-1.6,0.5-3.7,1.4-4.8-0.8
		c-1.1-2.2-0.5-3.4-1.9-4.1c-1.4-0.6-6.5-2.5-7.3-5c-0.8-2.5,1.4-6.4,0.3-8.1c-1.1-1.7-4.7-4.1-3.9-6.9c0.8-2.8,6.9-5.8,4.4-7.8
		c-2.5-2-4.5-8.3-3.3-10c1.2-1.7,1.9-3.4,1.1-3.9c-0.8-0.5-4.5-2.3-3-6.7C373.9,151.8,377.4,150.1,381.8,151.2z"/>
	<g>
		<path class="st6" d="M357.9,329.9c0,0-3.7,17.2-3.7,21.3c0,4.1,4.8,38.2,5.2,48.5c0.4,10.2,5,40.6,5.6,43.2
			c0.7,2.6,2.4,21.3,0.4,26.5c-2,5.2-4.2,8.2-5.9,6.1c-3.7-4.8,0.7-25.9,0.7-25.9s-25.9-71.9-29.1-81.7c-3.3-9.8-5-23.7-5-34.3
			c0-10.6-1.1-19.3-1.1-19.3L357.9,329.9z"/>
		<polygon class="st2" points="352.1,331.4 326.9,325.6 353.3,326.5 		"/>
		<path class="st2" d="M359.7,475.5c-1.4-1.8-1.6-5.9-1.4-10.3c0.3,1.1,0.7,2,1,2.3c1.1,1.1,3.3,0.7,4.8,0.7s2-9.8,2-9.8l0.3-3.7
			c0.3,5.8,0.3,12.1-0.7,14.8C363.6,474.6,361.3,477.6,359.7,475.5z"/>
	</g>
	<g>
		<path class="st6" d="M388.1,330.7c0,0-22.5,45.7-21,47.6c1.5,1.9,13.6,18.5,14.3,26.4c0.6,8,9.4,33.6,11.8,42.2
			c2.3,8.6,3.1,10.7,2.5,16.4c-0.6,5.7-3.4,14.3-5.9,12.4c-2.5-1.9-3.6-8.4-4-14.5c-0.4-6.1-0.4-14.9-0.4-14.9s-8-19.5-15.5-30.2
			c-7.6-10.7-14.9-21.2-17.2-29.6c-2.3-8.4-5.2-8.2-4.2-20.4c0.3-2.9,4.8-39.7,4.8-39.7L388.1,330.7z"/>
		<polygon class="st2" points="384.8,336.9 355.6,329.1 385.5,333.5 		"/>
		<path class="st2" d="M393.8,465c0,0,1.8-4.9,1.3-10.8c0.8,3.3,1,5.5,0.6,9.1c-0.6,5.7-3.4,14.3-5.9,12.4
			c-2.1-1.6-3.2-6.4-3.7-11.5L393.8,465z"/>
	</g>
	<g>
		<path class="st5" d="M386.3,271.4c0,0,7.8,16,11.9,27c4,10.9,2.4,19.7,0.2,24.6c-2.2,4.9-10,10.2-10,10.2l-63.3-7.8
			c0,0-9.8-18.2-7.1-29.2c2.7-10.9,12.6-25.5,17.5-31.4c4.9-5.8,7.8-6.7,7.8-6.7L386.3,271.4z"/>
		<g>
			<line class="st7" x1="332.8" y1="315.8" x2="329.1" y2="315.9"/>
			<line class="st7" x1="372.8" y1="314.7" x2="336.6" y2="315.7"/>
			<line class="st7" x1="346.7" y1="309.8" x2="325.1" y2="314.2"/>
			<line class="st7" x1="350.3" y1="309.1" x2="348.9" y2="309.4"/>
		</g>
	</g>
	<g>
		<g>
			<path class="st6" d="M334.9,172.2c3.4-6.1,38.6-59.8,38.6-59.8s-4.1-7-5-9.4c-0.9-2.5-0.9-7.6-0.9-12.4c0-3.2,2.1-0.7,2.1-0.7
				s1.6-2.1,2.1-1.2c0.2,0.3,0.6,1,1,1.7c0.3-0.4,0.9-0.8,1.3,0.2c0.7,1.6,4.8,9.9,4.8,9.9s-0.7-4.1-0.7-5.5c0-1.4,1.1-1.8,2.1,0.4
				c1.1,2.1,1.2,4.4,1.4,7.2c0.2,2.8,0.9,3.9-0.2,6.5c-1.1,2.7-4.8,9.2-4.8,9.2l-27.5,57.2l11,25.7l-9.5,17
				C350.8,218.3,331.5,178.2,334.9,172.2z"/>
			<path class="st7" d="M376.1,112.5c0,0,1.6-3.9,0.4-5.5c-1.2-1.6-4.8-4.1-4.8-4.1l-1.9-5.3c0,0-0.7-4.8-1.8-4.4"/>
			<line class="st7" x1="372.8" y1="90.4" x2="376.5" y2="100.5"/>
			<path class="st7" d="M369.7,89.9c0,0,1.9,8.1,3.4,11"/>
		</g>
		<path class="st6" d="M388.5,197.5l-4,13.5c0,0,12.8,6.9,15.5,8.4c2.7,1.5,6.9,11.1,3.3,21c-3.6,9.8-15.9,22.4-16.1,23.5
			s-0.9,7.5-0.9,7.5l-43-13.3l2.7-7.7c0,0-1.1-23.3,1.5-27.9c2.6-4.6,12.8-21.2,12.8-21.2l9.4,4.3l4.3-9.2L388.5,197.5z"/>
		<path class="st5" d="M346,250.4c0,0-1.1-23.3,1.5-27.9c2.6-4.6,12.8-21.2,12.8-21.2l8.4,3.7l-8,18L379,230l8.7-17.2
			c2.4,1.3,5.6,3,8.3,4.5l-6.6,19.3l9.6,11.8c-5,7.6-11.7,14.7-11.8,15.5c-0.2,1.1-0.9,7.5-0.9,7.5l-43-13.3L346,250.4z"/>
		<path class="st2" d="M346,250.6l41.2,14.1c-0.3,2-0.8,6.7-0.8,6.7l-43-13.3L346,250.6z"/>
	</g>
	<g>
		<path class="st7" d="M399.1,185c0,0,3.6-2.3,3.7,1.6c0.2,3.9-8.4,7-8.4,7L399.1,185z"/>
		<path class="st7" d="M369.7,174.8c0,0-3.1-3.3-3.4,0c-0.3,3.3,1.7,8.7,1.7,8.7L369.7,174.8z"/>
		<path class="st6" d="M391.3,158.6c0,0,10.1,6.2,10.8,12.9c0.6,6.7-1.6,9.2-3,13.4c-1.4,4.2-6.5,13.4-15.4,17.5
			c-8.9,4.1-13.2-7.8-14.2-11.2c-0.9-3.4-2.2-7-1.2-11.8c0.9-4.8,2.5-14.5,9.8-19.8C385.4,154.3,391.3,158.6,391.3,158.6z"/>
		<path class="st2" d="M392.4,164.3c0,0-9.2,10-16.5,10.6c-7.3,0.6-9.8-0.3-7.3-7.2c2.5-6.9,13.4-13.2,19.3-13.4
			c5.9-0.2,6.9,5.1,6.9,5.1s6.4,3.7,8.1,9.5c1.7,5.8-2,15.3-3.7,16c-1.7,0.8-2-4.1-2-4.1s-1.4-0.9-1.6-6.9
			C395.4,168.1,395.1,164.7,392.4,164.3z"/>
		<path class="st7" d="M383.4,189.3c0,0-1.6,1.4-3.9,0.3c-2.3-1.1-1.6-2.2-1.6-2.2"/>
		<path class="st2" d="M376.7,191.5c3.3,2.2,6.5,1.2,6.5,1.2s-3,4.8-4.3,4C377.5,195.9,376.7,191.5,376.7,191.5z"/>
		<path class="st7" d="M392.4,184.2c0,0,0.3-3.7-5.8-1.9"/>
		<path class="st7" d="M377.6,180.9c0,0-1.1-4.1-3.9-3.7"/>
		<path class="st7" d="M394.4,181.4c0,0-1.7-4.8-6.1-4.2"/>
		<path class="st7" d="M380.3,175c0,0-1.6-3-6.5-1.6"/>
	</g>
	<g>
		<g>
			<path class="st6" d="M358,247.3L358,247.3c3.8,0,6.9-3.1,6.9-6.9l-2.1-17.4h-9.7l-2.1,17.4C351,244.2,354.1,247.3,358,247.3z"/>
			<path class="st5" d="M364.2,234.5l0.7,5.9c0,3.8-3.1,6.9-6.9,6.9s-6.9-3.1-6.9-6.9l0.7-5.9H364.2z"/>
			<line class="st7" x1="358" y1="247.3" x2="358" y2="263.9"/>
			<polygon class="st6" points="358,263.9 368.5,266.4 347,266.4 			"/>
		</g>
		<path class="st6" d="M396,217.2c0,0,9.5,1.8,12.8,10.6c3.3,8.8,7.3,58.7,5.5,59.1c-1.8,0.4-45.4-29.4-45.4-29.4s-5.3,1.8-7.5,1.8
			c-2.2,0-4.6,0.2-6.4-1.5c-1.8-1.6-0.7-3.1-0.9-3.6c-0.2-0.5-2.7-2-2-4c0.7-2-0.4-1.5,0.7-2c1.1-0.5,11.7-1.5,12.8-0.9
			c1.1,0.5,7.1,6.4,7.1,6.4l25.7,10.9l-1.6-29.5"/>
		<line class="st6" x1="398.4" y1="264.6" x2="407.7" y2="268.7"/>
	</g>
</g>
<g>
	<g>
		<path class="st6" d="M238.6,193.9c-0.8-1.8-7.9-29.2-11.5-41.4c-3.6-12.2-10.9-37.7-11.3-43.2c-0.4-5.6-7.1-7.1-7.7-5.1
			c-0.5,1.4-2,6-2.2,9.1l-2.4-0.9c0,0-2-0.3-2.8,0.4s-1.3,3.1-0.6,4.1c0.7,1,2.9-2.2,2.9-2.2l3.3,1.3c1.7,1.3,5.1,3.6,5.1,3.6
			s4.3,36.2,5.6,44.3c1.3,8.1,5.1,21.2,8.8,34c3.6,12.8,6.8,24,6.8,24l12.2-16.1C244.8,205.8,239.4,195.6,238.6,193.9z"/>
		<g>
			<path class="st6" d="M207.2,101.5L207.2,101.5c-4.1,0-7.5-3.3-7.5-7.5l2.2-18.7h10.4l2.2,18.7
				C214.7,98.2,211.4,101.5,207.2,101.5z"/>
			<path class="st5" d="M200.5,87.8l-0.8,6.3c0,4.1,3.3,7.5,7.5,7.5s7.5-3.3,7.5-7.5l-0.8-6.3H200.5z"/>
			<line class="st7" x1="207.2" y1="101.5" x2="207.2" y2="119.4"/>
			<polygon class="st6" points="207.2,119.4 195.9,122.1 219,122.1 			"/>
		</g>
		<path class="st6" d="M215.7,109.3c0,0-1.7-5-2.8-6.1c-1.2-1.2-5.7-2.3-8-3.9c-2.3-1.6-4.7-3.4-4.7-1.7s1,3.4,2.5,4.2
			c1.5,0.9,4.4,2.6,4.4,2.6s2,8.4,3.5,9.5c1.5,1,3.8,1.6,3.8,1.6"/>
		<path class="st6" d="M204.3,103c0,0-4.2,1.2-3.8,2.3c0.4,1.2,4.7,2.9,6,3.4c1.3,0.4,1.3-2,1.3-2l-0.7-2.3L204.3,103z"/>
		<path class="st6" d="M203,107.7c0,0-3.6,0.9-1.6,2.9c2,2,6.8,3.6,7.4,2.6c0.6-1-0.9-2.6-1.5-2.9c-0.6-0.3-0.9-1.6-0.9-1.6
			L203,107.7z"/>
	</g>
	<g>
		<path class="st6" d="M241.6,153.8c0,0-1.8-3.2,0-5.2c1.8-2,3,0,3,0s1.1-5.6,3.2-5.4c2.1,0.2,3.4,2,3.4,2s1.1-12,9-10.7
			c7.9,1.3,6.6,10.6,6.6,10.6s2.9-2,3.9-0.2c1.1,1.8,0.7,4.8,0.7,4.8s3.6-3,5-0.2c1.4,2.9-0.5,8.2-0.5,8.2s-11.8-5.9-18.1-5
			C251.6,153.6,244.8,155.4,241.6,153.8z"/>
		<path class="st5" d="M260.4,142.2c0,1.5-1,2.8-2.1,2.8c-1.2,0-2.1-1.2-2.1-2.8c0-1.5,1-2.8,2.1-2.8
			C259.4,139.4,260.4,140.7,260.4,142.2z"/>
		<path class="st5" d="M269.5,147.8c0,0.8-0.6,1.5-1.3,1.5c-0.7,0-1.3-0.7-1.3-1.5s0.6-1.5,1.3-1.5
			C268.9,146.3,269.5,146.9,269.5,147.8z"/>
		<path class="st5" d="M249.3,147.7c0,0.8-0.6,1.5-1.3,1.5c-0.7,0-1.3-0.7-1.3-1.5s0.6-1.5,1.3-1.5
			C248.7,146.2,249.3,146.8,249.3,147.7z"/>
	</g>
	<polygon class="st2" points="296.9,308.7 272.7,273.5 271.7,293.3 291,309.6 	"/>
	<path class="st2" d="M254.5,152c0,0-6.1-4.3-12.9,1.8c-6.8,6.1-5.9,16.3-3.8,25.1c2.1,8.8,17.2,20.2,15.6,27.9
		c-1.6,7.7-4.7,32.4-0.5,49.4s30.8,14.7,34.4,8.2c3.6-6.4-0.9-8.1,3.4-12.9c4.3-4.8,19.9-8.1,15.2-22c-4.7-14-14.3-16.1-20.4-21.5
		c-6.1-5.4-5-14.2-2.9-19s4.8-15-0.2-25.3C277.4,153.6,263.6,145.7,254.5,152z"/>
	<g>
		<path class="st6" d="M252.5,345.8c0,0,1.6,28.7,3.8,35.8c2.1,7.2,30.5,67.5,30.6,68.3c0.2,0.7-3.8,12.2-5.6,16.5s-1.3,9.7,0.2,9.9
			c1.4,0.2,8.4-5.6,10.6-9.7c2.1-4.1,1.4-13.1,1.4-15.6c0-2.5-6.1-24-7.2-30.6c-1.1-6.6-1.1-17.7-5.2-29.9
			c-4.1-12.2-5.9-14.3-5.9-14.3l4.8-36L252.5,345.8z"/>
		<path class="st8" d="M293,464c-2,2.7-3.9,4.9-5.2,4.9c-1.6,0-6.4-2.5-6.4-2.5c-1.8,4.3-1.3,9.7,0.2,9.9c1.4,0.2,8.4-5.6,10.6-9.7
			C292.5,465.8,292.8,465,293,464z"/>
	</g>
	<g>
		<path class="st6" d="M223.3,345.7c0,0,1.3,23.6,7,46.8c5.7,23.1,15,60,15.2,60.7c0.2,0.7-2.5,17-0.7,21.3c1.8,4.3,4.1,4.3,6.4-1.6
			c2.3-5.9-0.2-12.7-0.5-19.2c-0.4-6.4-2.7-39.8-2.5-58.4c0.2-18.6-1.8-47.8-1.8-48.4S223.3,345.7,223.3,345.7z"/>
		<path class="st8" d="M244.2,470c0,1.9,0.2,3.5,0.6,4.5c1.8,4.3,4.1,4.3,6.4-1.6c0.3-0.8,0.6-1.7,0.7-2.6L244.2,470z"/>
	</g>
	<path class="st2" d="M209.5,311.8c0,0,0,15.6,0.5,23.3c0.5,7.7,0.9,12.9,0.9,12.9s-1.1,0.4,22.4,3.4c23.5,3,58.4-7.5,58.4-7.5
		l-7.2-31.7c0,0-38-0.9-55-2.3c-17-1.4-20.6-1.1-20.6-1.1L209.5,311.8z"/>
	<g>
		<path class="st6" d="M245.4,203.8c0,0-21.8,19.8-23.7,28.3c-2,8.4,0,11.8,0,11.8l-15.9,70.9c0,0,7.2,3.8,12.7,2.9
			c5.6-0.9,8.6-4.8,13.8-1.4c5.2,3.4,12,7.5,15.9,6.1c3.9-1.4,7.2-4.8,11.5-2.9c4.3,2,8.6,4.8,14.3,2c5.7-2.9,8.2-4.7,10-4.1
			c1.8,0.5,2.9,0.5,2.9,0.5s-13.4-50.3-14-57.2c-0.5-6.8-0.7-14.2-0.7-14.2s8.6-7,10.4-23.5c1.8-16.5-15.6-18.8-17.9-19.3
			C262.3,203.2,250.9,200.6,245.4,203.8z"/>
		<g>
			<line class="st7" x1="225.4" y1="244.6" x2="266.8" y2="246.9"/>
			<path class="st7" d="M227.4,245.1c0,0-6.1,30.3-6.4,48.7"/>
			<path class="st7" d="M229.7,252.1c0,0-2.3,24.9,4.3,49.6"/>
			<path class="st7" d="M264.5,247.1c0,0,0.5,11.6,1.4,15.8"/>
		</g>
	</g>
	<g>
		<path class="st6" d="M252.8,159.2c0,0-9.4,4.7-12.6,12.2c-3.3,7.5-2.6,19.2-1.6,22.5c0.9,3.3,2.2,6,3.7,6c1.4,0,3.6,0.3,3.6,0.3
			s-2.1,15-0.5,17.3c1.6,2.3,5.4,3.3,11.7-0.9c6.3-4.2,8.7-9.4,8.9-10.3c0.2-0.9-3-13.1-3-13.1l4-3.5c0,0,4.7-1.2,7.3-4
			c2.6-2.8,3-5.4,1.4-6.3c-1.6-0.9-5.1,1.2-5.1,1.2s0.5-4-2.6-7.3c-3-3.3-5.4-4-9.1-8.2C254.9,160.9,252.8,159.2,252.8,159.2z"/>
		<path class="st6" d="M248.2,168.1c0,0-12.4-4.9-14.3-1.6c-1.9,3.3,4.2,8.4,6.3,8.9s7.5-4.4,8.2-5.1c0.7-0.7,3.3,0.2,3.3,1.4
			c0,1.2,0,5.1,3.7,6.1c3.7,0.9,12.2-1.6,13.3-7.3c1.2-5.6-15.7-3-17.3-2.8S248.2,168.1,248.2,168.1z"/>
		<path class="st5" d="M245.9,169c0,0-6.2-2.8-8.6-2c-2.3,0.7-0.7,3.6,0.4,5.2s3.6,1.9,5.4,0.7C244.8,171.7,246.9,169.9,245.9,169z"
			/>
		<path class="st5" d="M253,169.6c0,0,0.3,5.5,3.2,6.1c2.9,0.6,9.4-1.5,10-4.6C266.7,167.8,261.7,167.5,253,169.6z"/>
		<path class="st7" d="M248.4,170.2c0,0-3.6,4.4-5.4,5.3c-1.9,0.9-4.2,0.4-2.6,1.7c1.6,1.3,3.8,1.7,3.8,1.7"/>
		<path class="st2" d="M243.1,182c0,0,1.5,0.7,3.2,0.9c1.7,0.1,6.2-1.9,6.2-1.9s-1,4.9-5.4,6.4C242.8,188.9,243.1,182,243.1,182z"/>
		<path class="st2" d="M242.2,199.9c0,0,4.2-0.9,7.5-2s8.1-3.5,8.1-3.5s-8.6,7-10.2,8.1c-1.6,1.2-2.3,1.3-2.3,1.3l0.4-3.6
			C245.8,200.2,243.4,200.5,242.2,199.9z"/>
	</g>
	<path class="st5" d="M245.4,203.8c0,0-9.2,10-12.8,18c-3.6,8.1-0.5,27.1,2.3,34s14,31.2,29.4,45.3c15.4,14.2,22.6,21.9,22.6,21.9
		l10-14.3c0,0-13.8-12.5-26.3-29.2c-12.5-16.7-24.2-38-26.2-54.5C242.5,208.6,245.4,203.8,245.4,203.8z"/>
	<g>
		<path class="st6" d="M273.8,196.1c0,0-8.6,12.9-9.3,20.2c-0.7,7.3,4.7,14.5,9.5,15.2c4.8,0.7,6.1-2,8.6-8.4
			c2.5-6.4,6.3-25.8,8.4-41.6c2.1-15.8,8.2-47.3,8.2-57.5s2.9-21.3,2.9-21.3s5.6-3.8,9.1-5c3.6-1.3,11.3-5.9,9-5.6
			c-2.3,0.4-6.1,2-6.1,2s4.7-6.3,5.4-9c0.7-2.7-0.5-1.8-1.4-1.8c-0.9,0,0-2.9-1.6-2.1c-1.6,0.7-7.9,4.8-11.8,8.2
			c-3.9,3.4-7,10.7-7,10.7s-10.9,34.9-13.1,44.4c-2.1,9.5-4.1,27.8-4.1,27.8S276.5,188.9,273.8,196.1z"/>
		<path class="st6" d="M301.8,95.7c0,0,6.3-4.3,8.1-5.6s3.8-1.4,2.3,0.7c-1.4,2.1-4.3,4.3-4.3,4.3s-0.5,2-1.8,3.6
			c-1.3,1.6-4.8,2.1-4.8,2.1"/>
		<line class="st6" x1="318.1" y1="83.4" x2="311.1" y2="88.9"/>
		<line class="st6" x1="317.9" y1="87.8" x2="311.3" y2="93.8"/>
	</g>
</g>
<g>
	<path class="st2" d="M128.8,150c0,0-4.2-5-6.9-5c-2.6,0,0.6,3.6,0.6,3.6s-10.7,0.6-10.7,2.8c0,2.2,2,2.4,2,2.4s-12.3,8.7-15.5,15.7
		c-3.2,7.1,2.2,6.9,2.2,6.9s-5.4,9.3-4,12.1c1.4,2.8,4.8,3.2,4.8,3.2s0.2,6.9,3.6,8.5c3.4,1.6,5.4,0.8,5.4,0.8s5.4,3.2,7.9,4.4
		c2.4,1.2,3.8,1,3.8,1s13.3,3.2,17.6,2.4c4.2-0.8,7.7-5.4,7.7-5.4s4.6-0.8,6.1-2.4c1.4-1.6,3.4-5.7,3.4-5.7s2.8,0.4,4.4-2.8
		c1.6-3.2,0.2-11.3,0.2-11.3s3.6-1.4,3.6-4.4c0-3-3-6.7-3-6.7s4.8-4.2-1-9.5c-5.9-5.2-17.2-9.9-17.2-9.9s3.4-1.8,0.4-3.2
		c-3-1.4-6.3-1.2-7.3-0.8c-1,0.4,1-2.8-2.2-2.8C131.6,143.9,128.8,150,128.8,150z"/>
	<g>
		<path class="st9" d="M133.4,329.9c0,0,3.7,17.2,3.7,21.3c0,4.1-4.8,38.2-5.2,48.5c-0.4,10.2-5,40.6-5.6,43.2
			c-0.7,2.6-2.4,21.3-0.4,26.5c2,5.2,4.2,8.2,5.9,6.1c3.7-4.8-0.7-25.9-0.7-25.9s25.9-71.9,29.1-81.7c3.3-9.8,5-23.7,5-34.3
			c0-10.6,1.1-19.3,1.1-19.3L133.4,329.9z"/>
		<path class="st2" d="M131.7,475.5c1.4-1.8,1.6-5.9,1.4-10.3c-0.3,1.1-0.7,2-1,2.3c-1.1,1.1-3.3,0.7-4.8,0.7c-1.5,0-2-9.8-2-9.8
			l-0.3-3.7c-0.3,5.8-0.3,12.1,0.7,14.8C127.8,474.6,130.1,477.6,131.7,475.5z"/>
	</g>
	<g>
		<path class="st9" d="M162.8,321.8c0,0,22.6,23.7,22.4,26.7s-51.7,24.1-60,26.5c-8.3,2.4-30.6,14.1-31.3,15.4s-5.6,7.8-7,12
			c-1.3,4.1-0.2,8-2.4,7.4c-2.2-0.7-4.1-6.3-4.1-10.9c0-4.6,3.5-12.8,3.7-16.1c0.2-3.3,1.3-4.6,4.6-4.8c3.3-0.2,5.6,1.3,7.4,0.9
			c1.7-0.4,12-5,21.9-11.7c10-6.7,30-19.3,30-19.3s-15.6-2.6-25.9-14.6C111.9,321.4,153.4,314.5,162.8,321.8z"/>
		<path class="st7" d="M164.7,347.7c0.8-0.2,1.6-0.4,2.2-0.7"/>
		<path class="st7" d="M148,347.9c0,0,5.8,0.7,11.4,0.4"/>
		<path class="st2" d="M84.5,409.8c2.2,0.7,1.1-3.3,2.4-7.4c0.2-0.5,0.4-1.1,0.7-1.7c-3.2-0.5-4.6-1.8-4.6-1.8s1.7-11.5,3.3-15.6
			c0.8-2.1,2.2-3.9,3.5-5.2c-0.4,0-0.7,0-1.1,0c-3.3,0.2-4.3,1.5-4.6,4.8c-0.2,3.3-3.7,11.5-3.7,16.1
			C80.4,403.5,82.4,409.2,84.5,409.8z"/>
	</g>
	<g>
		<path class="st9" d="M124.4,203.6c0,0-1.3,8.1-1.7,9.2c-0.4,1.2-12.6,1.9-18.6,2.7c-6.1,0.9-10.5,7.2-12.1,11.3
			c-1.6,4-19.6,30.2-17.9,35.1s5.6,4.8,11-1.6c5.3-6.3,20.3-22.5,20.6-23.1c0.3-0.6,8.1,22.7,8.1,22.7s-8.5,12.8-11.5,29.1
			c-3,16.3,4,32.6,7.9,37.9c3.9,5.3,11,10.8,11,10.8s17.2-12,28.6-13.9c11.4-1.9,19.9,1,19.9,1s0.1-22.9-3.6-36.5
			c-3.8-13.6-13.4-31.2-13.4-31.2s4-13.7,4.5-17.9c0.4-4.2,0.1-13.9,0.1-13.9s8.2-6.6,16.4-18.5c8.2-11.8,14.7-25,15.2-26.7
			c0.4-1.7-25-50.8-25-50.8s1-6.9,0.3-8.7c-0.7-1.7-2-3.9-2-3.9s0.7-2.5,0.4-5.6c-0.3-3.2-0.3-4.2-0.9-3.5c-0.6,0.7-1.6,6.5-1.6,6.5
			s-1.6-3.9-2.5-5.9c-0.9-2-1.7-3.6-2.5-4.9c-0.7-1.3-2.9,1.3-3.2,3.6c-0.3,2.3-0.7,10.4,0,13.6c0.7,3.2,6.5,11.5,7.1,12.6
			c0.6,1,11.1,33.2,12.3,36.5c1.2,3.3,2.6,9.2,2.6,9.2s-10.7,16.4-12.3,18.3c-1.6,1.9-1,1.9-4.3,4c-3.3,2.2-10.1,6.1-11.4,7.1
			c-1.3,1-2.6,1.9-2.6,1.9l-3,0.6l-1.2-7.8L124.4,203.6z"/>
		<line class="st7" x1="157.1" y1="225.5" x2="159.4" y2="214.2"/>
		<path class="st9" d="M156.5,128.4c0,0-3.1-6.5-3.2-7.8c-0.2-1.3-0.6-5.3-1.5-8.6c-0.8-3.2,2.4-2.1,3.1-0.5
			c0.6,1.6,1.1,5.8,1.1,5.8s3.6,2.3,4.2,4.2c0.6,1.9,0.6,4.2,0.6,4.2"/>
		<path class="st7" d="M151.9,107.2c0,0,1-0.7,1.7,0.4c0.7,1.1,1.2,4,1.2,4"/>
		<path class="st7" d="M153,104.6c0,0,1.4-0.6,1.8,1.6c0.4,2.2,2.9,9,3.1,9.4"/>
	</g>
	<g>
		<path class="st7" d="M139.9,209l-0.2,0c0,0,0.1,0.1,0.3,0.4L139.9,209z"/>
		<path class="st5" d="M157.2,233.7l-0.2-0.3c0,0-8.4-17.6-9.7-19c-0.8-0.9-2.8-2.8-4.1-4l-2.4,0.4c0.7,1.3,1.4,3.4,1.5,6
			c0.3,5.1-2.6,13-4.8,16.3c-2.2,3.3-4.9,7.9-4.9,7.9s-6.3-10.7-10.4-17.5c-2.6-4.4-2.9-7.9-2.8-9.9c-0.6,0.1-1.2,0.2-1.9,0.3
			l-9.4,29.8c2.4,6.7,5.5,16,5.5,16s-8.5,12.8-11.5,29.1c-3,16.3,4,32.6,7.9,37.9c3.9,5.3,11,10.8,11,10.8s17.2-12,28.6-13.9
			c11.4-1.9,19.9,1,19.9,1s0.1-22.9-3.6-36.5c-3.8-13.6-13.4-31.2-13.4-31.2s4-13.7,4.5-17.9C157.1,237.9,157.2,235.9,157.2,233.7z"
			/>
	</g>
	<g>
		<path class="st9" d="M128.1,171.2c0,0-9.9,10.1-10.6,11.6c-0.7,1.6,0.7,5.9,0.7,5.9s-2.8-5.6-4.3-4.3c-1.6,1.2-1.4,4.9,0.5,7.6
			c1.9,2.8,5,2.8,5,2.8s2.1,6.4,3.5,8.7c1.4,2.3,6.3,6.7,7.7,7.2c1.4,0.5,4.6,0,5.3-0.9c0.7-0.9,6.5-6.2,7.5-9.2
			c1-3,1.9-6.3,1.9-6.3s3.3-2.8,4.3-6.4c1-3.6-0.5-5.6-0.5-5.6l-3.3,4.9l-1.2-6.8c0,0-2.8-0.9-5.4-3c-2.6-2.1-6.6-5.6-6.6-5.6
			s-2.8,3.6-3.8,3.3C127.7,175,128.1,171.2,128.1,171.2z"/>
		<g>
			<g>
				<g>
					<path class="st6" d="M119,185.2c-2.5-0.1-2.7,0.3-2.6,1.1c0.1,0.8,1.2,5.1,1.9,6.2c0.8,1.1,4.4,2.1,6.8,1.5
						c2.4-0.5,3.7-1.3,4.3-2.4c0.6-1.1,1.2-3.3,1.3-3.7c0.1-0.3,0.5-1.6,0.5-1.6S121.5,185.3,119,185.2z"/>
					<path class="st6" d="M144.7,185.2c-2.5,0.1-12.3,1.1-12.3,1.1s0.4,1.3,0.5,1.6c0.1,0.3,0.6,2.6,1.3,3.7
						c0.6,1.1,1.9,1.8,4.3,2.4c2.4,0.5,6-0.4,6.8-1.5c0.8-1.1,1.8-5.4,1.9-6.2C147.4,185.5,147.2,185.1,144.7,185.2z"/>
				</g>
				<polygon class="st7" points="130.7,187.9 132.9,187.9 132.4,186.3 131.3,186.3 				"/>
			</g>
			<path class="st2" d="M128.8,187.2c0,0-9.7-1-10.3-0.6c-0.6,0.4,0.3,4.2,1,4.8c0.7,0.6,3,1.4,5.6,1.1c2.7-0.3,3.7-2.5,3.9-3.5
				C129.2,188.1,129.9,187.6,128.8,187.2z"/>
			<path class="st2" d="M134.9,187.2c0,0,9.7-1,10.3-0.6c0.6,0.4-0.3,4.2-1,4.8c-0.7,0.6-3,1.4-5.6,1.1c-2.7-0.3-3.7-2.5-3.9-3.5
				C134.5,188.1,133.8,187.6,134.9,187.2z"/>
		</g>
		<path class="st7" d="M128.8,198c0,0,1.4,0.9,2.6,1c1.1,0.1,3.3-0.8,3.4-1.1"/>
		<path class="st7" d="M135.1,183.8c0,0,4.8-1.6,8.1,0.6"/>
		<path class="st7" d="M129.7,184.4c0,0-5-3-9.2-0.5"/>
		<path class="st2" d="M127.7,201.4c0,0,2.4,1.1,4.3,1.3c1.8,0.2,4.2-1.8,4.2-1.8s-1.2,3.5-3.8,4.4
			C129.9,206.2,127.7,201.4,127.7,201.4z"/>
	</g>
	<g>
		<path class="st6" d="M112.8,221.8L112.8,221.8c-3.8,0-6.9-3.1-6.9-6.9l2.1-17.4h9.7l2.1,17.4C119.7,218.7,116.6,221.8,112.8,221.8
			z"/>
		<path class="st5" d="M106.5,209l-0.7,5.9c0,3.8,3.1,6.9,6.9,6.9s6.9-3.1,6.9-6.9L119,209H106.5z"/>
		<line class="st7" x1="112.8" y1="221.8" x2="112.8" y2="238.4"/>
		<polygon class="st6" points="112.8,238.4 102.2,240.9 123.7,240.9 		"/>
	</g>
	<path class="st9" d="M102.4,233.9c0,0,3.1-5.9,3.6-7.6c0.5-1.7,6.4-4,8.3-5.5c1.9-1.5,4.1-2.3,4.9-1.9c0.8,0.4,0.5,1.6,0.3,2.1
		c-0.3,0.5-0.5,0.9-0.7,1.3c-0.1,0.4,1.2,4.5,0.4,6.3c-0.8,1.7-3.6,5.7-3.6,5.7s3.6-3.2,3.6-1.7c0,1.9-1.6,2.7-3.6,4.3
		s-3.2,1.7-4.8,2.1c-1.6,0.4-5.6,1.6-5.6,1.6s-5.2,2.9-7.6,7.5c-2.4,4.5-11.3,16-13.3,18.7c-2,2.7-8.3,5.1-10.8,5.5
		c-2.5,0.4-5.7-1.5-3.7-8.9c2-7.5,5.5-6.5,10.8-11.6c5.3-5.1,20.1-15.2,20.1-15.2L102.4,233.9z"/>
	<path class="st7" d="M138.6,305.4c6.7,4.2,16.3,10.5,21.4,15.6"/>
	<path class="st7" d="M131.3,301c0,0,1.3,0.7,3.4,2"/>
</g>
</svg>
