<?xml version="1.0" encoding="utf-8"?>
<!-- Generator: Adobe Illustrator 25.2.0, SVG Export Plug-In . SVG Version: 6.00 Build 0)  -->
<svg version="1.1" xmlns="http://www.w3.org/2000/svg" xmlns:xlink="http://www.w3.org/1999/xlink" x="0px" y="0px"
	 viewBox="0 0 500 500" style="enable-background:new 0 0 500 500;" xml:space="preserve">
<g id="Background_Simple">
	<g>
		<path style="fill:#D7C2FF;" d="M409.67,86.73c-43.15-34.09-98.16-51.81-152.58-55.79c-82-6-130,37-131,81
			s-23.93,91.81-77.96,146.4c-54.04,54.6-41.04,136.6,49.96,162.6s166-12,197-34c31-22,96,42,139,21
			c27.37-13.37,38.85-59.05,44.87-85.52c11.23-49.43,10.4-103.01-7.04-150.92C459.23,136.65,437.21,108.48,409.67,86.73z"/>
		<path style="opacity:0.7;fill:#FFFFFF;" d="M409.67,86.73c-43.15-34.09-98.16-51.81-152.58-55.79c-82-6-130,37-131,81
			s-23.93,91.81-77.96,146.4c-54.04,54.6-41.04,136.6,49.96,162.6s166-12,197-34c31-22,96,42,139,21
			c27.37-13.37,38.85-59.05,44.87-85.52c11.23-49.43,10.4-103.01-7.04-150.92C459.23,136.65,437.21,108.48,409.67,86.73z"/>
	</g>
</g>
<g id="Wall">
	
		<line style="fill:none;stroke:#263238;stroke-linecap:round;stroke-linejoin:round;stroke-miterlimit:10;" x1="263.74" y1="24" x2="263.74" y2="293.77"/>
</g>
<g id="Room_3">
	<g style="opacity:0.3;">
		<g>
			<path style="fill:#FFFFFF;stroke:#000000;stroke-linecap:round;stroke-linejoin:round;stroke-miterlimit:10;" d="M325.31,443.96
				H81.23c-2.68,0-4.85-2.17-4.85-4.85v-35.13c0-2.68,2.17-4.85,4.85-4.85h244.08c2.68,0,4.85,2.17,4.85,4.85v35.13
				C330.15,441.79,327.98,443.96,325.31,443.96z"/>
			<path style="fill:#FFFFFF;stroke:#000000;stroke-linecap:round;stroke-linejoin:round;stroke-miterlimit:10;" d="M316.83,443.96
				H89.7v-62.69c0-4.52,3.66-8.18,8.18-8.18h210.77c4.52,0,8.18,3.66,8.18,8.18V443.96z"/>
			
				<rect x="89.7" y="414.89" style="fill:#FFFFFF;stroke:#000000;stroke-linecap:round;stroke-linejoin:round;stroke-miterlimit:10;" width="227.12" height="29.07"/>
		</g>
		
			<line style="fill:none;stroke:#000000;stroke-linecap:round;stroke-linejoin:round;stroke-miterlimit:10;" x1="25.95" y1="444.14" x2="490.39" y2="444.14"/>
	</g>
	<g style="opacity:0.3;">
		
			<rect x="367.09" y="373.1" style="fill:#FFFFFF;stroke:#000000;stroke-linecap:round;stroke-linejoin:round;stroke-miterlimit:10;" width="110.14" height="70.86"/>
		<g>
			
				<rect x="371.55" y="379.26" style="fill:#FFFFFF;stroke:#000000;stroke-linecap:round;stroke-linejoin:round;stroke-miterlimit:10;" width="47.54" height="23.82"/>
			
				<rect x="424.18" y="379.26" style="fill:#FFFFFF;stroke:#000000;stroke-linecap:round;stroke-linejoin:round;stroke-miterlimit:10;" width="47.54" height="23.82"/>
		</g>
		<g>
			
				<rect x="371.55" y="408.68" style="fill:#FFFFFF;stroke:#000000;stroke-linecap:round;stroke-linejoin:round;stroke-miterlimit:10;" width="47.54" height="23.82"/>
			
				<rect x="424.18" y="408.68" style="fill:#FFFFFF;stroke:#000000;stroke-linecap:round;stroke-linejoin:round;stroke-miterlimit:10;" width="47.54" height="23.82"/>
		</g>
		
			<rect x="367.09" y="367.35" style="fill:#FFFFFF;stroke:#000000;stroke-linecap:round;stroke-linejoin:round;stroke-miterlimit:10;" width="110.14" height="5.75"/>
		<path style="stroke:#000000;stroke-miterlimit:10;" d="M421.15,329.22c-0.92-2.39-3.48-3.63-5.9-2.97l-3.56-3.96
			c0.19-0.73,0.2-1.52-0.8-2.56c-0.5-0.51-1.15-0.87-1.86-0.86c-1.49,0.02-2.68,1.23-2.68,2.72c0,0.34,0.07,0.66,0.18,0.95
			l-21.81,20.08c-0.62-0.3-1.36-0.4-2.15-0.09c-0.82,0.31-1.47,1.02-1.67,1.87c-0.4,1.67,0.75,3.15,2.3,3.35l3.2,12.57h-6.5
			c-2.29,0-4.15,1.86-4.15,4.15v3.18h25.22v-3.18c0-2.29-1.86-4.15-4.15-4.15h-8.36l-3.33-13.06c0.68-0.49,1.13-1.29,1.13-2.2
			c0-0.35-0.07-0.67-0.19-0.98l21.79-20.07c0.36,0.18,0.76,0.29,1.2,0.29c0.51,0,0.99-0.15,1.39-0.4l2.95,3.28
			c-1.59,1.31-2.26,3.53-1.48,5.56l2.14,5.56l9.21-3.54L421.15,329.22z"/>
	</g>
	<g style="opacity:0.3;">
		<g>
			<path d="M68.49,383.4c0.03,0.02,0.56-2.38,0.58-2.54c0.19-1.8-0.51-5.38-2.37-6.2c-1.33-0.59-2.78,0.23-3.21,1.56
				c-0.44,1.36,0.24,2.99,1.01,4.09C65.41,381.61,68.49,383.4,68.49,383.4z"/>
			<path d="M32.53,383.89c1.47,0.58,5.02,0.38,5.03,0.38c0.04,0-0.85-2.3-0.92-2.44c-0.84-1.6-3.4-4.21-5.39-3.87
				c-1.44,0.25-2.19,1.72-1.82,3.07C29.81,382.41,31.28,383.39,32.53,383.89z"/>
			<path d="M34.12,394.14c1.51,0.17,4.65-0.86,4.9-0.95c0.56,1.76,1.28,3.51,2.11,5.25c0.47,0.99,0.98,1.98,1.5,2.96
				c-0.3-0.41-0.58-0.78-0.62-0.83c-1.23-1.33-4.39-3.16-6.22-2.3c-1.32,0.62-1.66,2.24-0.94,3.44c0.73,1.23,2.4,1.79,3.74,1.94
				c1.36,0.15,4.06-0.68,4.76-0.9c0.2,0.38,0.4,0.75,0.61,1.13c0.98,1.8,1.97,3.58,2.89,5.37c0.32,0.63,0.62,1.26,0.92,1.89
				c-0.27-0.37-0.5-0.67-0.54-0.72c-1.23-1.32-4.39-3.16-6.22-2.31c-1.32,0.62-1.66,2.24-0.94,3.44c0.73,1.23,2.4,1.79,3.74,1.94
				c1.3,0.14,3.79-0.6,4.64-0.86c0.29,0.65,0.57,1.31,0.82,1.96c0.16,0.45,0.34,0.86,0.48,1.32c0.14,0.45,0.28,0.89,0.42,1.33
				c0.24,0.86,0.49,1.74,0.7,2.58c0.15,0.58,0.28,1.14,0.42,1.71c-0.31-0.63-0.95-1.85-1.02-1.94c-1.02-1.5-3.86-3.79-5.8-3.22
				c-1.4,0.41-1.98,1.96-1.45,3.26c0.54,1.32,2.1,2.13,3.41,2.48c1.44,0.38,4.57-0.12,4.96-0.19c0.22,0.93,0.43,1.84,0.61,2.71
				c0.63,2.98,1.05,5.48,1.32,7.24l1.37-0.05c-0.01-0.05-0.02-0.1-0.03-0.16c-0.31-1.77-0.78-4.3-1.49-7.3
				c-0.22-0.95-0.48-1.96-0.75-2.99c0.23-0.1,1.56-0.69,2.72-1.4c1.08,1.09,3.78,2.3,4.13,2.46c-0.33,0.9-0.66,1.77-0.98,2.59
				c-1.12,2.84-2.15,5.16-2.9,6.77l1.51-0.05c0.69-1.6,1.58-3.74,2.51-6.29c0.34-0.91,0.68-1.9,1.03-2.91
				c0.38,0.07,3.52,0.59,4.96,0.21c1.31-0.34,2.87-1.14,3.42-2.47c0.53-1.29-0.04-2.85-1.44-3.26c-1.94-0.58-4.79,1.71-5.81,3.2
				c-0.06,0.09-0.61,1.12-0.94,1.77c0.14-0.41,0.28-0.82,0.41-1.24c0.28-0.85,0.53-1.7,0.8-2.61c0.12-0.45,0.23-0.9,0.35-1.35
				c0.13-0.45,0.21-0.94,0.31-1.41c0.22-1.1,0.39-2.23,0.54-3.38c0.74,0.24,3.38,1.06,4.73,0.91c1.34-0.14,3.01-0.7,3.75-1.92
				c0.72-1.2,0.39-2.82-0.93-3.44c-1.83-0.86-5,0.96-6.23,2.28c-0.08,0.08-0.86,1.13-1.28,1.71c0.08-0.69,0.17-1.37,0.23-2.07
				c0.18-2.02,0.3-4.06,0.42-6.1c0.04-0.63,0.08-1.25,0.13-1.87c0.26,0.09,3.38,1.13,4.89,0.97c1.34-0.14,3.01-0.7,3.75-1.92
				c0.72-1.2,0.39-2.82-0.93-3.44c-1.83-0.86-5,0.96-6.23,2.28c-0.09,0.1-1.21,1.61-1.48,2c0.1-1.37,0.2-2.74,0.37-4.08
				c0.22-1.85,0.54-3.66,0.98-5.39c0.12,0.04,3.37,1.14,4.92,0.98c1.34-0.14,3.01-0.7,3.75-1.92c0.72-1.2,0.39-2.82-0.93-3.44
				c-1.83-0.86-5,0.96-6.23,2.28c-0.08,0.09-0.94,1.23-1.33,1.79c-0.06-0.03-0.05-0.02-0.1-0.05c0.49-1.84,1.2-3.57,1.94-5.15
				c0.43-0.92,0.89-1.77,1.36-2.59c0.58,0.27,3.27,1.46,4.68,1.46c1.35,0.01,3.07-0.36,3.94-1.5c0.85-1.11,0.7-2.76-0.54-3.52
				c-1.73-1.06-5.07,0.41-6.44,1.58c-0.07,0.06-0.76,0.8-1.26,1.34c0.22-0.37,0.43-0.75,0.65-1.1c0.8-1.3,1.62-2.45,2.35-3.46
				c0.42-0.57,0.81-1.08,1.18-1.55c0.71-0.04,3.57-0.23,4.8-0.86c1.2-0.62,2.56-1.74,2.81-3.14c0.24-1.38-0.65-2.77-2.11-2.88
				c-2.02-0.15-4.31,2.7-4.99,4.37c-0.06,0.15-0.71,2.52-0.68,2.51c0,0,0.03,0,0.04,0c-0.37,0.45-0.75,0.93-1.16,1.46
				c-0.75,0.99-1.59,2.13-2.43,3.42c-0.84,1.29-1.71,2.71-2.49,4.3c-0.79,1.59-1.53,3.29-2.08,5.15c-0.01,0.02-0.01,0.04-0.02,0.06
				c-0.01-0.59-0.1-2.25-0.12-2.38c-0.3-1.78-1.92-5.06-3.92-5.36c-1.44-0.21-2.62,0.95-2.68,2.35c-0.07,1.43,1.02,2.82,2.05,3.68
				c1.17,0.97,4.36,1.84,4.61,1.91c-0.5,1.78-0.87,3.64-1.14,5.55c-0.15,1.09-0.28,2.19-0.39,3.3c-0.03-0.51-0.05-0.97-0.06-1.03
				c-0.3-1.78-1.92-5.06-3.92-5.35c-1.44-0.21-2.62,0.95-2.68,2.35c-0.07,1.43,1.02,2.82,2.05,3.68c1.05,0.88,3.75,1.67,4.47,1.87
				c-0.04,0.42-0.08,0.85-0.11,1.27c-0.17,2.04-0.33,4.08-0.55,6.07c-0.08,0.7-0.18,1.39-0.28,2.08c-0.02-0.46-0.05-0.84-0.06-0.9
				c-0.3-1.78-1.92-5.06-3.92-5.35c-1.44-0.21-2.62,0.95-2.68,2.35c-0.07,1.43,1.02,2.82,2.06,3.68c1.01,0.84,3.49,1.59,4.34,1.84
				c-0.12,0.7-0.25,1.41-0.4,2.08c-0.11,0.46-0.19,0.91-0.33,1.36c-0.13,0.45-0.26,0.9-0.38,1.35c-0.27,0.85-0.55,1.72-0.84,2.54
				c-0.2,0.57-0.39,1.11-0.59,1.66c0.09-0.7,0.22-2.07,0.22-2.18c-0.01-1.2-0.51-3.14-1.41-4.48c0-0.18-0.02-0.35-0.05-0.53
				c-0.27-1.37-1.6-2.35-3-1.93c-1.94,0.59-3.06,4.07-3.09,5.87c0,0.11,0.11,1.27,0.19,2c-0.11-0.42-0.22-0.83-0.34-1.27
				c-0.24-0.86-0.5-1.71-0.77-2.62c-0.15-0.44-0.3-0.88-0.45-1.32c-0.14-0.45-0.35-0.9-0.52-1.35c-0.42-1.04-0.9-2.08-1.41-3.12
				c0.75-0.21,3.41-0.99,4.45-1.85c1.04-0.86,2.13-2.24,2.07-3.67c-0.06-1.4-1.23-2.57-2.67-2.36c-2,0.29-3.64,3.56-3.94,5.34
				c-0.02,0.11-0.09,1.41-0.12,2.13c-0.31-0.62-0.62-1.24-0.95-1.86c-0.96-1.78-1.99-3.55-3.01-5.32c-0.31-0.54-0.62-1.09-0.93-1.63
				c0.27-0.07,3.44-0.93,4.62-1.89c1.04-0.86,2.13-2.24,2.07-3.67c-0.06-1.4-1.23-2.57-2.67-2.36c-2,0.29-3.64,3.56-3.94,5.34
				c-0.02,0.13-0.13,2.01-0.13,2.49c-0.68-1.2-1.34-2.4-1.95-3.61c-0.84-1.67-1.57-3.35-2.16-5.03c0.12-0.03,3.44-0.91,4.64-1.9
				c1.04-0.86,2.13-2.24,2.07-3.67c-0.06-1.4-1.23-2.57-2.67-2.36c-2,0.29-3.64,3.56-3.94,5.34c-0.02,0.12-0.1,1.55-0.12,2.23
				c-0.06,0.01-0.05,0.01-0.11,0.02c-0.61-1.81-0.97-3.64-1.22-5.37c-0.15-1-0.23-1.97-0.3-2.91c0.63-0.1,3.53-0.59,4.71-1.36
				c1.13-0.74,2.36-2,2.46-3.42c0.09-1.4-0.94-2.69-2.4-2.64c-2.02,0.07-4.01,3.14-4.5,4.87c-0.03,0.09-0.2,1.09-0.31,1.81
				c-0.02-0.42-0.05-0.86-0.06-1.27c-0.05-1.53,0-2.93,0.05-4.18c0.04-0.71,0.08-1.35,0.13-1.94c0.57-0.42,2.85-2.16,3.53-3.36
				c0.66-1.18,1.18-2.86,0.61-4.17c-0.56-1.28-2.07-1.95-3.34-1.24c-1.76,0.99-2.11,4.63-1.75,6.4c0.03,0.15,0.79,2.49,0.82,2.47
				c0,0,0.03-0.02,0.03-0.03c-0.06,0.57-0.12,1.19-0.16,1.86c-0.08,1.24-0.16,2.65-0.14,4.19c0.01,1.54,0.07,3.21,0.29,4.96
				c0.22,1.76,0.54,3.59,1.11,5.44c0.01,0.02,0.02,0.04,0.02,0.06c-0.34-0.49-1.32-1.82-1.41-1.92c-1.23-1.32-4.39-3.16-6.22-2.3
				c-1.32,0.62-1.66,2.24-0.94,3.44C31.11,393.43,32.78,393.99,34.12,394.14z"/>
			<path style="opacity:0.3;" d="M32.53,383.89c1.47,0.58,5.02,0.38,5.03,0.38c0.04,0-0.85-2.3-0.92-2.44
				c-0.84-1.6-3.4-4.21-5.39-3.87c-1.44,0.25-2.19,1.72-1.82,3.07C29.81,382.41,31.28,383.39,32.53,383.89z"/>
			<path style="opacity:0.3;" d="M68.49,383.4c0.03,0.02,0.56-2.38,0.58-2.54c0.19-1.8-0.51-5.38-2.37-6.2
				c-1.33-0.59-2.78,0.23-3.21,1.56c-0.44,1.36,0.24,2.99,1.01,4.09C65.41,381.61,68.49,383.4,68.49,383.4z"/>
			<path style="opacity:0.3;" d="M34.12,394.14c1.51,0.17,4.65-0.86,4.9-0.95c0.56,1.76,1.28,3.51,2.11,5.25
				c0.47,0.99,0.98,1.98,1.5,2.96c-0.3-0.41-0.58-0.78-0.62-0.83c-1.23-1.33-4.39-3.16-6.22-2.3c-1.32,0.62-1.66,2.24-0.94,3.44
				c0.73,1.23,2.4,1.79,3.74,1.94c1.36,0.15,4.06-0.68,4.76-0.9c0.2,0.38,0.4,0.75,0.61,1.13c0.98,1.8,1.97,3.58,2.89,5.37
				c0.32,0.63,0.62,1.26,0.92,1.89c-0.27-0.37-0.5-0.67-0.54-0.72c-1.23-1.32-4.39-3.16-6.22-2.31c-1.32,0.62-1.66,2.24-0.94,3.44
				c0.73,1.23,2.4,1.79,3.74,1.94c1.3,0.14,3.79-0.6,4.64-0.86c0.29,0.65,0.57,1.31,0.82,1.96c0.16,0.45,0.34,0.86,0.48,1.32
				c0.14,0.45,0.28,0.89,0.42,1.33c0.24,0.86,0.49,1.74,0.7,2.58c0.15,0.58,0.28,1.14,0.42,1.71c-0.31-0.63-0.95-1.85-1.02-1.94
				c-1.02-1.5-3.86-3.79-5.8-3.22c-1.4,0.41-1.98,1.96-1.45,3.26c0.54,1.32,2.1,2.13,3.41,2.48c1.44,0.38,4.57-0.12,4.96-0.19
				c0.22,0.93,0.43,1.84,0.61,2.71c0.63,2.98,1.05,5.48,1.32,7.24l1.37-0.05c-0.01-0.05-0.02-0.1-0.03-0.16
				c-0.31-1.77-0.78-4.3-1.49-7.3c-0.22-0.95-0.48-1.96-0.75-2.99c0.23-0.1,1.56-0.69,2.72-1.4c1.08,1.09,3.78,2.3,4.13,2.46
				c-0.33,0.9-0.66,1.77-0.98,2.59c-1.12,2.84-2.15,5.16-2.9,6.77l1.51-0.05c0.69-1.6,1.58-3.74,2.51-6.29
				c0.34-0.91,0.68-1.9,1.03-2.91c0.38,0.07,3.52,0.59,4.96,0.21c1.31-0.34,2.87-1.14,3.42-2.47c0.53-1.29-0.04-2.85-1.44-3.26
				c-1.94-0.58-4.79,1.71-5.81,3.2c-0.06,0.09-0.61,1.12-0.94,1.77c0.14-0.41,0.28-0.82,0.41-1.24c0.28-0.85,0.53-1.7,0.8-2.61
				c0.12-0.45,0.23-0.9,0.35-1.35c0.13-0.45,0.21-0.94,0.31-1.41c0.22-1.1,0.39-2.23,0.54-3.38c0.74,0.24,3.38,1.06,4.73,0.91
				c1.34-0.14,3.01-0.7,3.75-1.92c0.72-1.2,0.39-2.82-0.93-3.44c-1.83-0.86-5,0.96-6.23,2.28c-0.08,0.08-0.86,1.13-1.28,1.71
				c0.08-0.69,0.17-1.37,0.23-2.07c0.18-2.02,0.3-4.06,0.42-6.1c0.04-0.63,0.08-1.25,0.13-1.87c0.26,0.09,3.38,1.13,4.89,0.97
				c1.34-0.14,3.01-0.7,3.75-1.92c0.72-1.2,0.39-2.82-0.93-3.44c-1.83-0.86-5,0.96-6.23,2.28c-0.09,0.1-1.21,1.61-1.48,2
				c0.1-1.37,0.2-2.74,0.37-4.08c0.22-1.85,0.54-3.66,0.98-5.39c0.12,0.04,3.37,1.14,4.92,0.98c1.34-0.14,3.01-0.7,3.75-1.92
				c0.72-1.2,0.39-2.82-0.93-3.44c-1.83-0.86-5,0.96-6.23,2.28c-0.08,0.09-0.94,1.23-1.33,1.79c-0.06-0.03-0.05-0.02-0.1-0.05
				c0.49-1.84,1.2-3.57,1.94-5.15c0.43-0.92,0.89-1.77,1.36-2.59c0.58,0.27,3.27,1.46,4.68,1.46c1.35,0.01,3.07-0.36,3.94-1.5
				c0.85-1.11,0.7-2.76-0.54-3.52c-1.73-1.06-5.07,0.41-6.44,1.58c-0.07,0.06-0.76,0.8-1.26,1.34c0.22-0.37,0.43-0.75,0.65-1.1
				c0.8-1.3,1.62-2.45,2.35-3.46c0.42-0.57,0.81-1.08,1.18-1.55c0.71-0.04,3.57-0.23,4.8-0.86c1.2-0.62,2.56-1.74,2.81-3.14
				c0.24-1.38-0.65-2.77-2.11-2.88c-2.02-0.15-4.31,2.7-4.99,4.37c-0.06,0.15-0.71,2.52-0.68,2.51c0,0,0.03,0,0.04,0
				c-0.37,0.45-0.75,0.93-1.16,1.46c-0.75,0.99-1.59,2.13-2.43,3.42c-0.84,1.29-1.71,2.71-2.49,4.3c-0.79,1.59-1.53,3.29-2.08,5.15
				c-0.01,0.02-0.01,0.04-0.02,0.06c-0.01-0.59-0.1-2.25-0.12-2.38c-0.3-1.78-1.92-5.06-3.92-5.36c-1.44-0.21-2.62,0.95-2.68,2.35
				c-0.07,1.43,1.02,2.82,2.05,3.68c1.17,0.97,4.36,1.84,4.61,1.91c-0.5,1.78-0.87,3.64-1.14,5.55c-0.15,1.09-0.28,2.19-0.39,3.3
				c-0.03-0.51-0.05-0.97-0.06-1.03c-0.3-1.78-1.92-5.06-3.92-5.35c-1.44-0.21-2.62,0.95-2.68,2.35c-0.07,1.43,1.02,2.82,2.05,3.68
				c1.05,0.88,3.75,1.67,4.47,1.87c-0.04,0.42-0.08,0.85-0.11,1.27c-0.17,2.04-0.33,4.08-0.55,6.07c-0.08,0.7-0.18,1.39-0.28,2.08
				c-0.02-0.46-0.05-0.84-0.06-0.9c-0.3-1.78-1.92-5.06-3.92-5.35c-1.44-0.21-2.62,0.95-2.68,2.35c-0.07,1.43,1.02,2.82,2.06,3.68
				c1.01,0.84,3.49,1.59,4.34,1.84c-0.12,0.7-0.25,1.41-0.4,2.08c-0.11,0.46-0.19,0.91-0.33,1.36c-0.13,0.45-0.26,0.9-0.38,1.35
				c-0.27,0.85-0.55,1.72-0.84,2.54c-0.2,0.57-0.39,1.11-0.59,1.66c0.09-0.7,0.22-2.07,0.22-2.18c-0.01-1.2-0.51-3.14-1.41-4.48
				c0-0.18-0.02-0.35-0.05-0.53c-0.27-1.37-1.6-2.35-3-1.93c-1.94,0.59-3.06,4.07-3.09,5.87c0,0.11,0.11,1.27,0.19,2
				c-0.11-0.42-0.22-0.83-0.34-1.27c-0.24-0.86-0.5-1.71-0.77-2.62c-0.15-0.44-0.3-0.88-0.45-1.32c-0.14-0.45-0.35-0.9-0.52-1.35
				c-0.42-1.04-0.9-2.08-1.41-3.12c0.75-0.21,3.41-0.99,4.45-1.85c1.04-0.86,2.13-2.24,2.07-3.67c-0.06-1.4-1.23-2.57-2.67-2.36
				c-2,0.29-3.64,3.56-3.94,5.34c-0.02,0.11-0.09,1.41-0.12,2.13c-0.31-0.62-0.62-1.24-0.95-1.86c-0.96-1.78-1.99-3.55-3.01-5.32
				c-0.31-0.54-0.62-1.09-0.93-1.63c0.27-0.07,3.44-0.93,4.62-1.89c1.04-0.86,2.13-2.24,2.07-3.67c-0.06-1.4-1.23-2.57-2.67-2.36
				c-2,0.29-3.64,3.56-3.94,5.34c-0.02,0.13-0.13,2.01-0.13,2.49c-0.68-1.2-1.34-2.4-1.95-3.61c-0.84-1.67-1.57-3.35-2.16-5.03
				c0.12-0.03,3.44-0.91,4.64-1.9c1.04-0.86,2.13-2.24,2.07-3.67c-0.06-1.4-1.23-2.57-2.67-2.36c-2,0.29-3.64,3.56-3.94,5.34
				c-0.02,0.12-0.1,1.55-0.12,2.23c-0.06,0.01-0.05,0.01-0.11,0.02c-0.61-1.81-0.97-3.64-1.22-5.37c-0.15-1-0.23-1.97-0.3-2.91
				c0.63-0.1,3.53-0.59,4.71-1.36c1.13-0.74,2.36-2,2.46-3.42c0.09-1.4-0.94-2.69-2.4-2.64c-2.02,0.07-4.01,3.14-4.5,4.87
				c-0.03,0.09-0.2,1.09-0.31,1.81c-0.02-0.42-0.05-0.86-0.06-1.27c-0.05-1.53,0-2.93,0.05-4.18c0.04-0.71,0.08-1.35,0.13-1.94
				c0.57-0.42,2.85-2.16,3.53-3.36c0.66-1.18,1.18-2.86,0.61-4.17c-0.56-1.28-2.07-1.95-3.34-1.24c-1.76,0.99-2.11,4.63-1.75,6.4
				c0.03,0.15,0.79,2.49,0.82,2.47c0,0,0.03-0.02,0.03-0.03c-0.06,0.57-0.12,1.19-0.16,1.86c-0.08,1.24-0.16,2.65-0.14,4.19
				c0.01,1.54,0.07,3.21,0.29,4.96c0.22,1.76,0.54,3.59,1.11,5.44c0.01,0.02,0.02,0.04,0.02,0.06c-0.34-0.49-1.32-1.82-1.41-1.92
				c-1.23-1.32-4.39-3.16-6.22-2.3c-1.32,0.62-1.66,2.24-0.94,3.44C31.11,393.43,32.78,393.99,34.12,394.14z"/>
		</g>
		<rect x="50.6" y="429.99" width="9.32" height="13.97"/>
	</g>
</g>
<g id="Room_2">
	<g>
		<g>
			
				<rect x="420" y="130.83" style="fill:none;stroke:#B2B2B2;stroke-linecap:round;stroke-linejoin:round;stroke-miterlimit:10;" width="22" height="11"/>
			
				<rect x="448.37" y="130.83" style="fill:none;stroke:#B2B2B2;stroke-linecap:round;stroke-linejoin:round;stroke-miterlimit:10;" width="22" height="11"/>
			
				<rect x="433.89" y="144.73" style="fill:none;stroke:#B2B2B2;stroke-linecap:round;stroke-linejoin:round;stroke-miterlimit:10;" width="22" height="11"/>
			
				<rect x="433.89" y="115.77" style="fill:none;stroke:#B2B2B2;stroke-linecap:round;stroke-linejoin:round;stroke-miterlimit:10;" width="22" height="11"/>
			
				<rect x="420" y="171.94" style="fill:none;stroke:#B2B2B2;stroke-linecap:round;stroke-linejoin:round;stroke-miterlimit:10;" width="22" height="11"/>
			
				<rect x="448.37" y="171.94" style="fill:none;stroke:#B2B2B2;stroke-linecap:round;stroke-linejoin:round;stroke-miterlimit:10;" width="22" height="11"/>
			
				<rect x="448.37" y="55" style="fill:none;stroke:#B2B2B2;stroke-linecap:round;stroke-linejoin:round;stroke-miterlimit:10;" width="22" height="11"/>
			
				<rect x="421.37" y="91" style="fill:none;stroke:#B2B2B2;stroke-linecap:round;stroke-linejoin:round;stroke-miterlimit:10;" width="22" height="11"/>
			
				<rect x="399" y="66" style="fill:none;stroke:#B2B2B2;stroke-linecap:round;stroke-linejoin:round;stroke-miterlimit:10;" width="22" height="11"/>
			
				<rect x="383.86" y="48.82" style="fill:none;stroke:#B2B2B2;stroke-linecap:round;stroke-linejoin:round;stroke-miterlimit:10;" width="22" height="11"/>
			
				<rect x="433.89" y="185.84" style="fill:none;stroke:#B2B2B2;stroke-linecap:round;stroke-linejoin:round;stroke-miterlimit:10;" width="22" height="11"/>
			
				<rect x="299.89" y="210.05" style="fill:none;stroke:#B2B2B2;stroke-linecap:round;stroke-linejoin:round;stroke-miterlimit:10;" width="22" height="11"/>
			
				<rect x="328.26" y="210.05" style="fill:none;stroke:#B2B2B2;stroke-linecap:round;stroke-linejoin:round;stroke-miterlimit:10;" width="22" height="11"/>
			
				<rect x="354.79" y="223.95" style="fill:none;stroke:#B2B2B2;stroke-linecap:round;stroke-linejoin:round;stroke-miterlimit:10;" width="22" height="11"/>
		</g>
		<g>
			
				<rect x="281.54" y="65.03" style="fill:none;stroke:#B2B2B2;stroke-linecap:round;stroke-linejoin:round;stroke-miterlimit:10;" width="103.31" height="135.75"/>
			<path style="fill:none;stroke:#B2B2B2;stroke-linecap:round;stroke-linejoin:round;stroke-miterlimit:10;" d="M348.42,65.03
				h-21.19l-45.69,45.69v35.1l45.37-45.37l-0.34-13.57L348.42,65.03z M384.85,65.03h-1.33l-82.11,82.11l16.56,16.55l-36.43,36.43
				v0.66h26.49l44.04-44.04H333.2l-13.08-13.08l64.73-64.73V65.03z M384.85,93.17l-51.82,51.82l14.73,0.16l37.09,37.09v-16.89
				l-32.62-32.61l32.62-32.62V93.17z M359.02,165.68l-35.1,35.1h25.17l22.51-22.52L359.02,165.68z M281.54,65.03v15.23l15.23-15.23
				H281.54z"/>
		</g>
	</g>
</g>
<g id="Room_1">
	<g style="opacity:0.3;">
		<g>
			
				<rect x="90" y="47.34" style="fill:none;stroke:#000000;stroke-linecap:round;stroke-linejoin:round;stroke-miterlimit:10;" width="153" height="195.32"/>
			
				<rect x="96" y="55" style="fill:none;stroke:#000000;stroke-linecap:round;stroke-linejoin:round;stroke-miterlimit:10;" width="141" height="180"/>
			
				<rect x="96" y="144" style="fill:none;stroke:#000000;stroke-linecap:round;stroke-linejoin:round;stroke-miterlimit:10;" width="141" height="10"/>
		</g>
		<g>
			
				<line style="fill:none;stroke:#000000;stroke-linecap:round;stroke-linejoin:round;stroke-miterlimit:10;" x1="231.23" y1="64.5" x2="201.96" y2="93.76"/>
			
				<line style="fill:none;stroke:#000000;stroke-linecap:round;stroke-linejoin:round;stroke-miterlimit:10;" x1="192.11" y1="113.18" x2="187.63" y2="117.66"/>
			
				<line style="fill:none;stroke:#000000;stroke-linecap:round;stroke-linejoin:round;stroke-miterlimit:10;" x1="210.92" y1="94.36" x2="196.89" y2="108.4"/>
			
				<line style="fill:none;stroke:#000000;stroke-linecap:round;stroke-linejoin:round;stroke-miterlimit:10;" x1="117.74" y1="65.69" x2="108.48" y2="74.95"/>
			
				<line style="fill:none;stroke:#000000;stroke-linecap:round;stroke-linejoin:round;stroke-miterlimit:10;" x1="204.65" y1="189.64" x2="199.57" y2="194.71"/>
			
				<line style="fill:none;stroke:#000000;stroke-linecap:round;stroke-linejoin:round;stroke-miterlimit:10;" x1="224.66" y1="169.63" x2="209.13" y2="185.16"/>
		</g>
		<g>
			
				<line style="fill:none;stroke:#000000;stroke-linecap:round;stroke-linejoin:round;stroke-miterlimit:10;" x1="231.23" y1="161.5" x2="201.96" y2="190.76"/>
			
				<line style="fill:none;stroke:#000000;stroke-linecap:round;stroke-linejoin:round;stroke-miterlimit:10;" x1="192.11" y1="210.18" x2="187.63" y2="214.66"/>
			
				<line style="fill:none;stroke:#000000;stroke-linecap:round;stroke-linejoin:round;stroke-miterlimit:10;" x1="210.92" y1="191.36" x2="196.89" y2="205.4"/>
			
				<line style="fill:none;stroke:#000000;stroke-linecap:round;stroke-linejoin:round;stroke-miterlimit:10;" x1="117.74" y1="162.69" x2="108.48" y2="171.95"/>
			
				<line style="fill:none;stroke:#000000;stroke-linecap:round;stroke-linejoin:round;stroke-miterlimit:10;" x1="204.65" y1="286.64" x2="199.57" y2="291.71"/>
			
				<line style="fill:none;stroke:#000000;stroke-linecap:round;stroke-linejoin:round;stroke-miterlimit:10;" x1="224.66" y1="266.63" x2="209.13" y2="282.16"/>
		</g>
	</g>
</g>
<g id="Plant_2">
	<g>
		<g>
			<path style="fill:#8342EA;stroke:#000000;stroke-linecap:round;stroke-linejoin:round;stroke-miterlimit:10;" d="M407.34,437.24
				c0,0-1.03-12.31,0-19.83c1.03-7.52,5.81-10.26,6.15-13.68c0.34-3.42-1.71-6.84,0.34-10.26c2.05-3.42,6.15-7.18,6.15-7.18
				s-2.74,5.13-0.68,9.23c2.05,4.1,5.23,8.55,3.08,11.97c-2.15,3.42-4.45,6.84-3.76,9.57c0.68,2.74,4.45,2.05,3.76,8.21
				c-0.68,6.15-2.39,8.55-2.39,8.55l0.34,3.42l-11.63-0.34"/>
			<path style="fill:#8342EA;stroke:#000000;stroke-linecap:round;stroke-linejoin:round;stroke-miterlimit:10;" d="M406.44,437.1
				c0,0,2.43-2.55-1.51-6.4c-2.55-2.49-5.05-6.19-5.16-10.03c-0.06-1.89,0.8-3.39,0.22-5.16c-0.63-1.93-2.6-3.15-3.13-5.3
				c-1.04-4.16,1.74-8.03,2.09-9.35c0.35-1.32,0.01-1.41-1.86-5.08c-1.87-3.67-1.75-6.82-1.75-6.82s0.79,3.74,5.09,4.86
				c4.3,1.12,6.76,3.88,6.46,9.11c-0.3,5.22-0.65,6.55,2.99,7.5c5.72,1.49,5.16,5.43,4.51,10.23c-0.41,3.01-0.57,3.79,1.22,5.97
				c1.45,1.77,3.69,1.47,1.94,4.53c-1.94,3.38,0.85,6.23-2.56,7.11C411.56,439.14,406.44,437.1,406.44,437.1z"/>
			<path style="fill:#8342EA;stroke:#000000;stroke-linecap:round;stroke-linejoin:round;stroke-miterlimit:10;" d="M420.86,437.67
				c0,0-2.36-2.61,1.69-6.36c2.61-2.42,5.22-6.04,5.44-9.88c0.11-1.89-0.7-3.41-0.07-5.16c0.69-1.91,2.69-3.08,3.28-5.21
				c1.15-4.13-1.51-8.07-1.82-9.41c-0.31-1.33,0.03-1.41,2-5.02c1.97-3.61,1.95-6.77,1.95-6.77s-0.9,3.72-5.23,4.72
				c-4.33,1-6.87,3.69-6.71,8.92c0.16,5.23,0.46,6.56-3.2,7.41c-5.76,1.33-5.31,5.28-4.8,10.1c0.32,3.02,0.46,3.81-1.38,5.93
				c-1.5,1.73-3.73,1.37-2.06,4.48c1.85,3.43-1.02,6.2,2.36,7.18C415.68,439.56,420.86,437.67,420.86,437.67z"/>
			<path style="fill:#FFFFFF;stroke:#000000;stroke-linecap:round;stroke-linejoin:round;stroke-miterlimit:10;" d="M428.3,434.5
				v17.51c0,0.33-0.01,0.66-0.05,0.99c-0.08,0.93-0.27,1.83-0.58,2.67c-1.51,4.28-5.58,7.34-10.37,7.34h-5.97
				c-4.79,0-8.86-3.06-10.37-7.34c-0.31-0.84-0.5-1.74-0.58-2.67c-0.04-0.33-0.05-0.66-0.05-0.99V434.5H428.3z"/>
		</g>
		
			<rect x="400.33" y="447" style="fill:#263238;stroke:#000000;stroke-linecap:round;stroke-linejoin:round;stroke-miterlimit:10;" width="27.97" height="0.66"/>
		<path style="fill:#263238;stroke:#000000;stroke-linecap:round;stroke-linejoin:round;stroke-miterlimit:10;" d="M428.25,451.39
			c-0.08,0.93-0.27,1.83-0.58,2.67h-26.71c-0.31-0.84-0.5-1.74-0.58-2.67H428.25z"/>
	</g>
</g>
<g id="Plant_1">
	<g>
		<g>
			
				<line style="fill:none;stroke:#263238;stroke-linecap:round;stroke-linejoin:round;stroke-miterlimit:10;" x1="27.1" y1="170.45" x2="39.74" y2="291.63"/>
			<g>
				<g>
					
						<line style="fill:none;stroke:#263238;stroke-linecap:round;stroke-linejoin:round;stroke-miterlimit:10;" x1="37.93" y1="274.48" x2="32.3" y2="268.56"/>
					<path style="fill:#8342EA;stroke:#263238;stroke-linecap:round;stroke-linejoin:round;stroke-miterlimit:10;" d="M34.16,270.5
						c0,0,0.18-2.86-2.44-5.19c-1.57-1.4-9.84-4.88-10.62-1.97C20.25,266.5,28.71,272.72,34.16,270.5z"/>
					
						<line style="fill:none;stroke:#263238;stroke-linecap:round;stroke-linejoin:round;stroke-miterlimit:10;" x1="34.16" y1="270.5" x2="26.29" y2="265.59"/>
				</g>
				<g>
					
						<line style="fill:none;stroke:#263238;stroke-linecap:round;stroke-linejoin:round;stroke-miterlimit:10;" x1="39.33" y1="287.84" x2="33.83" y2="283.27"/>
					<path style="fill:#8342EA;stroke:#263238;stroke-linecap:round;stroke-linejoin:round;stroke-miterlimit:10;" d="M35.69,285.21
						c0,0,0.18-2.86-2.44-5.19c-1.57-1.4-9.84-4.88-10.62-1.97C21.78,281.21,30.24,287.43,35.69,285.21z"/>
					
						<line style="fill:none;stroke:#263238;stroke-linecap:round;stroke-linejoin:round;stroke-miterlimit:10;" x1="35.69" y1="285.21" x2="27.82" y2="280.3"/>
				</g>
				<g>
					
						<line style="fill:none;stroke:#263238;stroke-linecap:round;stroke-linejoin:round;stroke-miterlimit:10;" x1="34.11" y1="237.67" x2="28.55" y2="232.67"/>
					<path style="fill:#8342EA;stroke:#263238;stroke-linecap:round;stroke-linejoin:round;stroke-miterlimit:10;" d="M30.41,234.61
						c0,0,0.18-2.86-2.44-5.19c-1.57-1.4-9.84-4.88-10.62-1.97C16.5,230.61,24.96,236.83,30.41,234.61z"/>
					
						<line style="fill:none;stroke:#263238;stroke-linecap:round;stroke-linejoin:round;stroke-miterlimit:10;" x1="30.41" y1="234.61" x2="22.54" y2="229.7"/>
				</g>
				<g>
					
						<line style="fill:none;stroke:#263238;stroke-linecap:round;stroke-linejoin:round;stroke-miterlimit:10;" x1="35.66" y1="253.31" x2="30.09" y2="247.38"/>
					<path style="fill:#8342EA;stroke:#263238;stroke-linecap:round;stroke-linejoin:round;stroke-miterlimit:10;" d="M31.95,249.32
						c0,0,0.17-2.86-2.44-5.19c-1.57-1.4-9.84-4.88-10.62-1.97C18.04,245.32,26.5,251.54,31.95,249.32z"/>
					
						<line style="fill:none;stroke:#263238;stroke-linecap:round;stroke-linejoin:round;stroke-miterlimit:10;" x1="31.95" y1="249.32" x2="24.08" y2="244.41"/>
				</g>
				<g>
					
						<line style="fill:none;stroke:#263238;stroke-linecap:round;stroke-linejoin:round;stroke-miterlimit:10;" x1="31.63" y1="214.46" x2="26.06" y2="208.78"/>
					<path style="fill:#8342EA;stroke:#263238;stroke-linecap:round;stroke-linejoin:round;stroke-miterlimit:10;" d="M27.92,210.72
						c0,0,0.18-2.86-2.44-5.19c-1.57-1.4-9.84-4.88-10.62-1.97C14.01,206.72,22.47,212.94,27.92,210.72z"/>
					
						<line style="fill:none;stroke:#263238;stroke-linecap:round;stroke-linejoin:round;stroke-miterlimit:10;" x1="27.92" y1="210.72" x2="20.05" y2="205.81"/>
				</g>
				<g>
					
						<line style="fill:none;stroke:#263238;stroke-linecap:round;stroke-linejoin:round;stroke-miterlimit:10;" x1="28.95" y1="188.91" x2="23.55" y2="184.78"/>
					<path style="fill:#8342EA;stroke:#263238;stroke-linecap:round;stroke-linejoin:round;stroke-miterlimit:10;" d="M25.41,186.72
						c0,0,0.17-2.86-2.44-5.19c-1.57-1.4-9.84-4.88-10.62-1.97C11.51,182.73,19.97,188.94,25.41,186.72z"/>
					
						<line style="fill:none;stroke:#263238;stroke-linecap:round;stroke-linejoin:round;stroke-miterlimit:10;" x1="25.41" y1="186.72" x2="17.55" y2="181.82"/>
				</g>
				<g>
					
						<line style="fill:none;stroke:#263238;stroke-linecap:round;stroke-linejoin:round;stroke-miterlimit:10;" x1="37.39" y1="266.32" x2="42.04" y2="258.73"/>
					<path style="fill:#92E3A9;stroke:#263238;stroke-linecap:round;stroke-linejoin:round;stroke-miterlimit:10;" d="M40.62,261.01
						c0,0-0.76-2.76,1.31-5.58c1.25-1.7,8.62-6.81,9.98-4.12C53.41,254.23,46.41,262.07,40.62,261.01z"/>
					
						<line style="fill:none;stroke:#263238;stroke-linecap:round;stroke-linejoin:round;stroke-miterlimit:10;" x1="40.62" y1="261.01" x2="46.16" y2="255.82"/>
				</g>
				<g>
					
						<line style="fill:none;stroke:#263238;stroke-linecap:round;stroke-linejoin:round;stroke-miterlimit:10;" x1="33.35" y1="227.62" x2="38" y2="220.03"/>
					<path style="fill:#8342EA;stroke:#263238;stroke-linecap:round;stroke-linejoin:round;stroke-miterlimit:10;" d="M36.58,222.31
						c0,0-0.76-2.76,1.31-5.58c1.25-1.7,7.01-5.95,8.38-3.26C47.76,216.39,42.37,223.36,36.58,222.31z"/>
					
						<line style="fill:none;stroke:#263238;stroke-linecap:round;stroke-linejoin:round;stroke-miterlimit:10;" x1="36.58" y1="222.31" x2="43.67" y2="215.54"/>
				</g>
				<g>
					
						<line style="fill:none;stroke:#263238;stroke-linecap:round;stroke-linejoin:round;stroke-miterlimit:10;" x1="31.57" y1="210.61" x2="36.23" y2="203.02"/>
					<path style="fill:#8342EA;stroke:#263238;stroke-linecap:round;stroke-linejoin:round;stroke-miterlimit:10;" d="M34.81,205.3
						c0,0-0.76-2.76,1.31-5.58c1.25-1.7,8.62-6.81,9.98-4.12C47.59,198.52,40.6,206.35,34.81,205.3z"/>
					
						<line style="fill:none;stroke:#263238;stroke-linecap:round;stroke-linejoin:round;stroke-miterlimit:10;" x1="34.81" y1="205.3" x2="41.89" y2="198.53"/>
				</g>
				<g>
					
						<line style="fill:none;stroke:#263238;stroke-linecap:round;stroke-linejoin:round;stroke-miterlimit:10;" x1="28.97" y1="185.67" x2="33.62" y2="178.09"/>
					<path style="fill:#8342EA;stroke:#263238;stroke-linecap:round;stroke-linejoin:round;stroke-miterlimit:10;" d="M32.2,180.36
						c0,0-0.76-2.76,1.31-5.58c1.25-1.7,8.62-6.81,9.98-4.12C44.99,173.59,38,181.42,32.2,180.36z"/>
					
						<line style="fill:none;stroke:#263238;stroke-linecap:round;stroke-linejoin:round;stroke-miterlimit:10;" x1="32.2" y1="180.36" x2="39.29" y2="173.59"/>
					<path style="fill:#8342EA;stroke:#263238;stroke-linecap:round;stroke-linejoin:round;stroke-miterlimit:10;" d="M26.98,169.73
						c0,0-0.76-2.76,1.31-5.58c1.25-1.7,8.62-6.81,9.98-4.12C39.77,162.95,32.77,170.78,26.98,169.73z"/>
					
						<line style="fill:none;stroke:#263238;stroke-linecap:round;stroke-linejoin:round;stroke-miterlimit:10;" x1="26.98" y1="169.73" x2="34.07" y2="162.96"/>
					<path style="fill:#8342EA;stroke:#263238;stroke-linecap:round;stroke-linejoin:round;stroke-miterlimit:10;" d="M27.39,170.02
						c0,0-2.83,0.47-5.41-1.89c-1.56-1.42-5.86-9.28-3.05-10.36C21.99,156.6,29.05,164.37,27.39,170.02z"/>
					
						<line style="fill:none;stroke:#263238;stroke-linecap:round;stroke-linejoin:round;stroke-miterlimit:10;" x1="27.39" y1="170.02" x2="21.4" y2="162.27"/>
				</g>
			</g>
		</g>
		
			<line style="fill:none;stroke:#263238;stroke-linecap:round;stroke-linejoin:round;stroke-miterlimit:10;" x1="47.31" y1="135.59" x2="47.31" y2="291.33"/>
		<g>
			
				<line style="fill:none;stroke:#263238;stroke-linecap:round;stroke-linejoin:round;stroke-miterlimit:10;" x1="62.69" y1="188.26" x2="51.94" y2="291.93"/>
			<g>
				<g>
					
						<line style="fill:none;stroke:#263238;stroke-linecap:round;stroke-linejoin:round;stroke-miterlimit:10;" x1="52.11" y1="291.17" x2="49" y2="287.62"/>
					<path style="fill:#92E3A9;stroke:#263238;stroke-linecap:round;stroke-linejoin:round;stroke-miterlimit:10;" d="M49,287.62
						c0,0,0.76-2.76-1.31-5.58c-1.25-1.7-8.62-6.8-9.99-4.11C36.21,280.85,43.21,288.67,49,287.62z"/>
					
						<line style="fill:none;stroke:#263238;stroke-linecap:round;stroke-linejoin:round;stroke-miterlimit:10;" x1="49" y1="287.62" x2="42.31" y2="281.2"/>
				</g>
				<g>
					
						<line style="fill:none;stroke:#263238;stroke-linecap:round;stroke-linejoin:round;stroke-miterlimit:10;" x1="55.9" y1="254.24" x2="51.29" y2="250.39"/>
					<path style="fill:#92E3A9;stroke:#263238;stroke-linecap:round;stroke-linejoin:round;stroke-miterlimit:10;" d="M52.73,251.73
						c0,0,0.76-2.76-1.31-5.58c-1.25-1.7-8.62-6.8-9.99-4.11C39.94,244.95,46.94,252.78,52.73,251.73z"/>
					
						<line style="fill:none;stroke:#263238;stroke-linecap:round;stroke-linejoin:round;stroke-miterlimit:10;" x1="52.73" y1="251.73" x2="46.04" y2="245.31"/>
				</g>
				<g>
					
						<line style="fill:none;stroke:#263238;stroke-linecap:round;stroke-linejoin:round;stroke-miterlimit:10;" x1="54.44" y1="271.74" x2="49.78" y2="264.16"/>
					<path style="fill:#92E3A9;stroke:#263238;stroke-linecap:round;stroke-linejoin:round;stroke-miterlimit:10;" d="M51.2,266.43
						c0,0,0.76-2.76-1.31-5.58c-1.25-1.7-8.62-6.8-9.99-4.11C38.41,259.66,45.41,267.49,51.2,266.43z"/>
					
						<line style="fill:none;stroke:#263238;stroke-linecap:round;stroke-linejoin:round;stroke-miterlimit:10;" x1="51.2" y1="266.43" x2="44.51" y2="260.02"/>
				</g>
				<g>
					
						<line style="fill:none;stroke:#263238;stroke-linecap:round;stroke-linejoin:round;stroke-miterlimit:10;" x1="58.23" y1="230.68" x2="53.79" y2="225.55"/>
					<path style="fill:#8342EA;stroke:#263238;stroke-linecap:round;stroke-linejoin:round;stroke-miterlimit:10;" d="M55.21,227.83
						c0,0,0.76-2.76-1.31-5.58c-1.25-1.7-8.62-6.8-9.99-4.11C42.42,221.06,49.42,228.89,55.21,227.83z"/>
					
						<line style="fill:none;stroke:#263238;stroke-linecap:round;stroke-linejoin:round;stroke-miterlimit:10;" x1="55.21" y1="227.83" x2="48.52" y2="221.41"/>
				</g>
				<g>
					
						<line style="fill:none;stroke:#263238;stroke-linecap:round;stroke-linejoin:round;stroke-miterlimit:10;" x1="60.57" y1="208.22" x2="56.28" y2="201.56"/>
					<path style="fill:#8342EA;stroke:#263238;stroke-linecap:round;stroke-linejoin:round;stroke-miterlimit:10;" d="M57.7,203.83
						c0,0,0.76-2.76-1.31-5.58c-1.25-1.7-8.62-6.8-9.99-4.11C44.91,197.06,51.91,204.89,57.7,203.83z"/>
					
						<line style="fill:none;stroke:#263238;stroke-linecap:round;stroke-linejoin:round;stroke-miterlimit:10;" x1="57.7" y1="203.83" x2="51.01" y2="197.42"/>
				</g>
				<g>
					
						<line style="fill:none;stroke:#263238;stroke-linecap:round;stroke-linejoin:round;stroke-miterlimit:10;" x1="53.02" y1="284.2" x2="59.14" y2="277.73"/>
					<path style="fill:#92E3A9;stroke:#263238;stroke-linecap:round;stroke-linejoin:round;stroke-miterlimit:10;" d="M57.28,279.67
						c0,0-0.18-2.86,2.43-5.19c1.57-1.4,9.83-4.89,10.62-1.97C71.19,275.67,62.73,281.89,57.28,279.67z"/>
					
						<line style="fill:none;stroke:#263238;stroke-linecap:round;stroke-linejoin:round;stroke-miterlimit:10;" x1="57.28" y1="279.67" x2="65.61" y2="274.5"/>
				</g>
				<g>
					
						<line style="fill:none;stroke:#263238;stroke-linecap:round;stroke-linejoin:round;stroke-miterlimit:10;" x1="57.04" y1="245.49" x2="63.16" y2="239.02"/>
					<path style="fill:#92E3A9;stroke:#263238;stroke-linecap:round;stroke-linejoin:round;stroke-miterlimit:10;" d="M61.3,240.96
						c0,0-0.18-2.86,2.43-5.19c1.57-1.4,9.83-4.89,10.62-1.97C75.2,236.96,66.75,243.18,61.3,240.96z"/>
					
						<line style="fill:none;stroke:#263238;stroke-linecap:round;stroke-linejoin:round;stroke-miterlimit:10;" x1="61.3" y1="240.96" x2="69.63" y2="235.79"/>
				</g>
				<g>
					
						<line style="fill:none;stroke:#263238;stroke-linecap:round;stroke-linejoin:round;stroke-miterlimit:10;" x1="58.81" y1="228.48" x2="64.92" y2="222.01"/>
					<path style="fill:#92E3A9;stroke:#263238;stroke-linecap:round;stroke-linejoin:round;stroke-miterlimit:10;" d="M63.06,223.95
						c0,0-0.18-2.86,2.43-5.19c1.57-1.4,9.83-4.89,10.62-1.98C76.97,219.95,68.51,226.17,63.06,223.95z"/>
					
						<line style="fill:none;stroke:#263238;stroke-linecap:round;stroke-linejoin:round;stroke-miterlimit:10;" x1="63.06" y1="223.95" x2="71.39" y2="218.78"/>
				</g>
				<g>
					
						<line style="fill:none;stroke:#263238;stroke-linecap:round;stroke-linejoin:round;stroke-miterlimit:10;" x1="61.32" y1="202.27" x2="67.51" y2="197.08"/>
					<path style="fill:#92E3A9;stroke:#263238;stroke-linecap:round;stroke-linejoin:round;stroke-miterlimit:10;" d="M65.65,199.01
						c0,0-0.18-2.86,2.43-5.19c1.57-1.4,9.83-4.89,10.62-1.98C79.56,195.01,71.1,201.24,65.65,199.01z"/>
					
						<line style="fill:#92E3A9;stroke:#263238;stroke-linecap:round;stroke-linejoin:round;stroke-miterlimit:10;" x1="65.65" y1="199.01" x2="73.98" y2="193.85"/>
					<path style="fill:#8342EA;stroke:#263238;stroke-linecap:round;stroke-linejoin:round;stroke-miterlimit:10;" d="M62.73,187.53
						c0,0-0.18-2.86,2.43-5.19c1.57-1.4,9.83-4.89,10.62-1.97C76.64,183.53,68.18,189.75,62.73,187.53z"/>
					
						<line style="fill:none;stroke:#263238;stroke-linecap:round;stroke-linejoin:round;stroke-miterlimit:10;" x1="62.73" y1="187.53" x2="71.06" y2="182.36"/>
					<path style="fill:#8342EA;stroke:#263238;stroke-linecap:round;stroke-linejoin:round;stroke-miterlimit:10;" d="M63.07,187.9
						c0,0-2.86-0.12-4.91-2.96c-1.23-1.71-3.83-10.29-0.85-10.77C60.55,173.65,65.85,182.72,63.07,187.9z"/>
					
						<line style="fill:none;stroke:#263238;stroke-linecap:round;stroke-linejoin:round;stroke-miterlimit:10;" x1="63.07" y1="187.9" x2="58.8" y2="179.08"/>
				</g>
			</g>
		</g>
		<g>
			<g>
				
					<line style="fill:none;stroke:#263238;stroke-linecap:round;stroke-linejoin:round;stroke-miterlimit:10;" x1="47.09" y1="274.25" x2="42.03" y2="267.49"/>
				<path style="fill:#92E3A9;stroke:#263238;stroke-linecap:round;stroke-linejoin:round;stroke-miterlimit:10;" d="M43.68,269.61
					c0,0,0.47-2.83-1.88-5.41c-1.42-1.56-9.28-5.87-10.36-3.06C30.26,264.19,38.03,271.26,43.68,269.61z"/>
				
					<line style="fill:none;stroke:#263238;stroke-linecap:round;stroke-linejoin:round;stroke-miterlimit:10;" x1="43.68" y1="269.61" x2="36.36" y2="263.91"/>
			</g>
			<g>
				
					<line style="fill:none;stroke:#263238;stroke-linecap:round;stroke-linejoin:round;stroke-miterlimit:10;" x1="47.27" y1="241.63" x2="42.03" y2="236.75"/>
				<path style="fill:#92E3A9;stroke:#263238;stroke-linecap:round;stroke-linejoin:round;stroke-miterlimit:10;" d="M43.68,238.87
					c0,0,0.47-2.83-1.88-5.41c-1.42-1.56-9.28-5.87-10.36-3.06C30.26,233.46,38.03,240.52,43.68,238.87z"/>
				
					<line style="fill:none;stroke:#263238;stroke-linecap:round;stroke-linejoin:round;stroke-miterlimit:10;" x1="43.68" y1="238.87" x2="36.36" y2="233.18"/>
			</g>
			<g>
				
					<line style="fill:none;stroke:#263238;stroke-linecap:round;stroke-linejoin:round;stroke-miterlimit:10;" x1="47.44" y1="207.73" x2="42.03" y2="200.67"/>
				<path style="fill:#8342EA;stroke:#263238;stroke-linecap:round;stroke-linejoin:round;stroke-miterlimit:10;" d="M43.68,202.79
					c0,0,0.47-2.83-1.88-5.41c-1.42-1.56-9.28-5.87-10.36-3.06C30.26,197.37,38.03,204.44,43.68,202.79z"/>
				
					<line style="fill:none;stroke:#263238;stroke-linecap:round;stroke-linejoin:round;stroke-miterlimit:10;" x1="43.68" y1="202.79" x2="36.36" y2="197.09"/>
			</g>
			<g>
				
					<line style="fill:none;stroke:#263238;stroke-linecap:round;stroke-linejoin:round;stroke-miterlimit:10;" x1="47.09" y1="181.21" x2="42.03" y2="176.65"/>
				<path style="fill:#8342EA;stroke:#263238;stroke-linecap:round;stroke-linejoin:round;stroke-miterlimit:10;" d="M43.68,178.77
					c0,0,0.47-2.83-1.88-5.41c-1.42-1.56-9.28-5.87-10.36-3.06C30.26,173.35,38.03,180.41,43.68,178.77z"/>
				
					<line style="fill:none;stroke:#263238;stroke-linecap:round;stroke-linejoin:round;stroke-miterlimit:10;" x1="43.68" y1="178.77" x2="36.36" y2="173.07"/>
			</g>
			<g>
				
					<line style="fill:none;stroke:#263238;stroke-linecap:round;stroke-linejoin:round;stroke-miterlimit:10;" x1="47.38" y1="157.18" x2="42.13" y2="153.33"/>
				<path style="fill:#8342EA;stroke:#263238;stroke-linecap:round;stroke-linejoin:round;stroke-miterlimit:10;" d="M43.68,154.64
					c0,0,0.47-2.83-1.88-5.41c-1.42-1.56-9.28-5.87-10.36-3.06C30.26,149.23,38.03,156.29,43.68,154.64z"/>
				
					<line style="fill:none;stroke:#263238;stroke-linecap:round;stroke-linejoin:round;stroke-miterlimit:10;" x1="43.68" y1="154.64" x2="36.36" y2="148.95"/>
			</g>
			<g>
				
					<line style="fill:none;stroke:#263238;stroke-linecap:round;stroke-linejoin:round;stroke-miterlimit:10;" x1="48.37" y1="282.42" x2="52.74" y2="276.88"/>
				<path style="fill:#92E3A9;stroke:#263238;stroke-linecap:round;stroke-linejoin:round;stroke-miterlimit:10;" d="M51.09,278.99
					c0,0-0.47-2.83,1.88-5.41c1.42-1.56,9.28-5.87,10.36-3.06C64.51,273.58,56.74,280.64,51.09,278.99z"/>
				
					<line style="fill:none;stroke:#263238;stroke-linecap:round;stroke-linejoin:round;stroke-miterlimit:10;" x1="51.09" y1="278.99" x2="58.84" y2="272.99"/>
			</g>
			<g>
				
					<line style="fill:none;stroke:#263238;stroke-linecap:round;stroke-linejoin:round;stroke-miterlimit:10;" x1="47.32" y1="235.05" x2="52.74" y2="227.99"/>
				<path style="fill:#92E3A9;stroke:#263238;stroke-linecap:round;stroke-linejoin:round;stroke-miterlimit:10;" d="M51.09,230.11
					c0,0-0.47-2.83,1.88-5.41c1.42-1.56,9.28-5.87,10.36-3.06C64.51,224.7,56.74,231.76,51.09,230.11z"/>
				
					<line style="fill:none;stroke:#263238;stroke-linecap:round;stroke-linejoin:round;stroke-miterlimit:10;" x1="51.09" y1="230.11" x2="58.84" y2="224.11"/>
			</g>
			<g>
				
					<line style="fill:none;stroke:#263238;stroke-linecap:round;stroke-linejoin:round;stroke-miterlimit:10;" x1="47.32" y1="210.93" x2="52.74" y2="203.87"/>
				<path style="fill:#8342EA;stroke:#263238;stroke-linecap:round;stroke-linejoin:round;stroke-miterlimit:10;" d="M51.09,205.98
					c0,0-0.47-2.83,1.88-5.41c1.42-1.56,9.28-5.87,10.36-3.06C64.51,200.57,56.74,207.63,51.09,205.98z"/>
				
					<line style="fill:none;stroke:#263238;stroke-linecap:round;stroke-linejoin:round;stroke-miterlimit:10;" x1="51.09" y1="205.98" x2="58.84" y2="199.98"/>
			</g>
			<g>
				
					<line style="fill:none;stroke:#263238;stroke-linecap:round;stroke-linejoin:round;stroke-miterlimit:10;" x1="47.32" y1="179.04" x2="52.74" y2="171.98"/>
				<path style="fill:#8342EA;stroke:#263238;stroke-linecap:round;stroke-linejoin:round;stroke-miterlimit:10;" d="M51.09,174.1
					c0,0-0.47-2.82,1.88-5.41c1.42-1.56,9.28-5.87,10.36-3.06C64.51,168.68,56.74,175.74,51.09,174.1z"/>
				
					<line style="fill:none;stroke:#263238;stroke-linecap:round;stroke-linejoin:round;stroke-miterlimit:10;" x1="51.09" y1="174.1" x2="58.84" y2="168.1"/>
			</g>
			<g>
				
					<line style="fill:none;stroke:#263238;stroke-linecap:round;stroke-linejoin:round;stroke-miterlimit:10;" x1="47.56" y1="151.52" x2="52.87" y2="147.38"/>
				<path style="fill:#8342EA;stroke:#263238;stroke-linecap:round;stroke-linejoin:round;stroke-miterlimit:10;" d="M51.09,149.02
					c0,0-0.47-2.82,1.88-5.41c1.42-1.56,9.28-5.87,10.36-3.06C64.51,143.61,56.74,150.67,51.09,149.02z"/>
				
					<line style="fill:none;stroke:#263238;stroke-linecap:round;stroke-linejoin:round;stroke-miterlimit:10;" x1="51.09" y1="149.02" x2="58.84" y2="143.02"/>
				<path style="fill:#8342EA;stroke:#263238;stroke-linecap:round;stroke-linejoin:round;stroke-miterlimit:10;" d="M47,137.91
					c0,0-0.47-2.82,1.88-5.41c1.42-1.56,9.28-5.87,10.36-3.06C60.42,132.49,52.65,139.55,47,137.91z"/>
				
					<line style="fill:none;stroke:#263238;stroke-linecap:round;stroke-linejoin:round;stroke-miterlimit:10;" x1="47" y1="137.91" x2="54.75" y2="131.91"/>
				<path style="fill:#8342EA;stroke:#263238;stroke-linecap:round;stroke-linejoin:round;stroke-miterlimit:10;" d="M47.38,138.24
					c0,0-2.86,0.17-5.19-2.44c-1.4-1.57-4.87-9.84-1.96-10.62C43.4,124.33,49.61,132.79,47.38,138.24z"/>
				
					<line style="fill:none;stroke:#263238;stroke-linecap:round;stroke-linejoin:round;stroke-miterlimit:10;" x1="47.38" y1="138.24" x2="42.22" y2="129.9"/>
			</g>
		</g>
	</g>
</g>
<g id="Bricks">
</g>
<g id="Character_2_1_">
	<g>
		<g>
			<path style="fill:#8342EA;stroke:#263238;stroke-linecap:round;stroke-linejoin:round;stroke-miterlimit:10;" d="M411.81,187.92
				c0,0-23.45,11.21-27.98,18.01c-1.97,2.95-15.34,56.26-15.34,56.26l-8.84,7.37l13.56,24.03h80.46c0,0,5.89-82.98,4.72-87.1
				c-1.18-4.13-29.18-16.21-32.42-17.68C422.72,187.33,414.47,186.44,411.81,187.92z"/>
			<polyline style="fill:none;stroke:#263238;stroke-miterlimit:10;" points="401.16,248.31 416.12,260.66 404.28,253.98 			"/>
			<line style="fill:none;stroke:#263238;stroke-miterlimit:10;" x1="395.17" y1="243.36" x2="398.79" y2="246.35"/>
			<g>
				<path style="fill:#FFFFFF;stroke:#263238;stroke-linecap:round;stroke-linejoin:round;stroke-miterlimit:10;" d="M316.05,279.96
					c0,0-2.78,0.42-3.89,2.22c-1.11,1.81-3.2,6.95-2.22,7.36c0.97,0.42,1.67-1.11,2.36-2.22c0.69-1.11,1.67-2.78,1.67-2.78
					l2.22-0.42L316.05,279.96z"/>
				<path style="fill:#FFFFFF;stroke:#263238;stroke-linecap:round;stroke-linejoin:round;stroke-miterlimit:10;" d="M319.94,277.32
					c0,0-3.2-0.28-4.03,1.11c-0.83,1.39-2.5,10.56-2.36,11.67c0.14,1.11,1.53,1.67,2.64-0.28c1.11-1.95,3.47-10.56,3.47-10.56
					L319.94,277.32z"/>
				<path style="fill:#FFFFFF;stroke:#263238;stroke-linecap:round;stroke-linejoin:round;stroke-miterlimit:10;" d="M326.47,277.18
					c0,0-4.72-2.22-6.67-1.81c-1.95,0.42-4.72,14.59-4.31,15.29c0.42,0.69,2.36,0.83,3.06-0.28c0.69-1.11,4.72-7.92,5.84-9.59
					C325.5,279.13,326.47,277.18,326.47,277.18z"/>
				<path style="fill:#FFFFFF;stroke:#263238;stroke-linecap:round;stroke-linejoin:round;stroke-miterlimit:10;" d="M374.96,284.45
					c0,0-1.8-12.32-5.11-17.12c-3.3-4.81-5.74-0.66-10.73,1.94c-3.04,1.58-21.11,9.18-22.01,9.48c-0.9,0.3-8.71-4.21-10.21-3
					c-1.5,1.2-7.21,8.41-8.41,12.32c-1.2,3.91,1.8,4.21,3,3c1.2-1.2,4.81-6.91,6.31-8.11c1.5-1.2,5.11,2.7,5.11,2.7
					s-5.41,2.7-7.21,3.91c-1.8,1.2,0.9,1.8,3.91,1.8c3,0,6.91-1.2,8.71-2.1c1.8-0.9,3-1.5,3-1.5S365.05,287.75,374.96,284.45z"/>
			</g>
			<path style="fill:#263238;stroke:#263238;stroke-linecap:round;stroke-linejoin:round;stroke-miterlimit:10;" d="M413.58,110.11
				c0,0-23.28,10.02-25.35,16.8c-2.06,6.78,2.36,7.66,2.95,11.2c0.59,3.54-15.62,20.04-9.14,30.36
				c6.48,10.32,41.85,12.97,56.59,10.32c14.74-2.65,24.17-12.97,23.28-24.76c-0.88-11.79-7.96-17.39-16.8-30.65
				C436.28,110.11,419.77,108.05,413.58,110.11z"/>
			<g>
				<path style="fill:#FFFFFF;stroke:#263238;stroke-linecap:round;stroke-linejoin:round;stroke-miterlimit:10;" d="M396.78,152.55
					c0,0-3.83,0.29-3.83,3.24c0,2.95,3.83,9.14,5.6,8.84C400.32,164.34,396.78,152.55,396.78,152.55z"/>
				<g>
					<path style="fill:#FFFFFF;stroke:#263238;stroke-linecap:round;stroke-linejoin:round;stroke-miterlimit:10;" d="
						M409.16,126.91c0,0-13.56,9.43-13.26,14.74c0.29,5.31-0.59,18.57,3.83,27.41c4.42,8.84,10.61,17.39,10.61,17.39
						s-2.65,22.99-2.36,28.88c0.29,5.89,5.01,2.95,10.32-3.54c5.31-6.48,10.61-20.93,10.61-20.93l-3.24-3.83l0.59-4.72
						c0,0,7.07-6.19,9.14-11.49c1.12-2.87,0.88-9.14,0.88-9.14s3.83-1.47,5.01-5.31c1.18-3.83,1.18-3.83,1.18-3.83
						s-4.72-2.36-7.66-4.42c-2.95-2.06-8.84-7.96-8.84-7.96S413.88,133.98,409.16,126.91z"/>
					<path style="fill:none;stroke:#263238;stroke-miterlimit:10;" d="M408.57,148.42c0,0-1.47,15.03,0.29,18.27
						c1.77,3.24,6.48,0,6.48,0"/>
					<path style="fill:none;stroke:#263238;stroke-miterlimit:10;" d="M410.04,172.89c0,0,7.66,1.47,11.79-3.83"/>
					<ellipse style="fill:#263238;" cx="419.18" cy="149.75" rx="1.77" ry="2.21"/>
					<ellipse style="fill:#263238;" cx="402.68" cy="149.75" rx="1.77" ry="2.21"/>
					<path style="fill:none;stroke:#263238;stroke-miterlimit:10;" d="M415.94,141.65c0,0,4.42-1.77,7.07,0.88"/>
					<path style="fill:none;stroke:#263238;stroke-miterlimit:10;" d="M405.92,141.94c0,0-4.42-2.06-6.19,2.06"/>
				</g>
			</g>
			<polyline style="fill:none;stroke:#263238;stroke-linecap:round;stroke-linejoin:round;stroke-miterlimit:10;" points="
				383.91,238.26 387.58,257.71 380.07,285.95 			"/>
			
				<line style="fill:none;stroke:#263238;stroke-linecap:round;stroke-linejoin:round;stroke-miterlimit:10;" x1="382.48" y1="230.67" x2="383.09" y2="233.93"/>
			<g>
				<path style="fill:#8342EA;stroke:#263238;stroke-linecap:round;stroke-linejoin:round;stroke-miterlimit:10;" d="M451.31,200.89
					c0,0,9.24,4.32,8.73,7.31c-0.51,2.99,2.21,68.92-0.99,73.47c-3.19,4.55-12.16,3.02-12.16,3.02s-3.8-11.83-7.67-15.42
					c-3.87-3.58-5.31-2.36-5.31-2.36l2.65-40.08"/>
				<path style="fill:#FFFFFF;stroke:#263238;stroke-linecap:round;stroke-linejoin:round;stroke-miterlimit:10;" d="M365.29,280.82
					c0,0-1.92,2.47-4.66,4.12c-2.74,1.65-6.31,2.47-3.84,3.57c2.47,1.1,6.31-0.55,8.51-1.92
					C367.48,285.21,365.29,280.82,365.29,280.82z"/>
				<path style="fill:#FFFFFF;stroke:#263238;stroke-linecap:round;stroke-linejoin:round;stroke-miterlimit:10;" d="M420.33,275.34
					c6-3.66,11.39-9.76,18.85-10.04c7.36-0.28,14.35,5.01,17.65,11.33c1.08,2.07,1.84,4.5,1.16,6.73
					c-1.28,4.19-6.52,5.41-10.87,5.93c-8.01,0.95-16.03,1.9-24.04,2.84c-14.38,1.7-29.52,3.3-42.86-2.34
					c-0.3,1.24-0.65,2.57-1.62,3.4c-0.97,0.83-2.77,0.79-3.27-0.38c-0.83,0.66-2.11,1.38-3.92,0.33c-0.25-0.15-1.53,0.51-2.86,0.27
					c-0.47-0.08-2.11-0.8-2.58-0.91c-0.61-0.15-1.28-0.36-1.6-0.9c-0.22-0.38-0.23-0.84-0.24-1.28c-0.02-2.83-0.04-5.71,0.8-8.42
					c3.38-10.85,15.48-4.9,21.91-0.65c2.19,1.45,4.5,2.95,7.11,3.19c1.94,0.18,3.87-0.35,5.75-0.87c6.92-1.93,14.21-4.35,20.52-8.17
					C420.25,275.39,420.29,275.37,420.33,275.34z"/>
				
					<line style="fill:none;stroke:#263238;stroke-linecap:round;stroke-linejoin:round;stroke-miterlimit:10;" x1="380.21" y1="289.8" x2="381.25" y2="285.72"/>
				<path style="fill:none;stroke:#263238;stroke-linecap:round;stroke-linejoin:round;stroke-miterlimit:10;" d="M375.44,292.34
					c0,0,0.55-11.25,2.47-13.72"/>
				<path style="fill:none;stroke:#263238;stroke-linecap:round;stroke-linejoin:round;stroke-miterlimit:10;" d="M371.6,292.61
					c0,0-0.82-9.88,1.1-14.54"/>
				<path style="fill:none;stroke:#263238;stroke-linecap:round;stroke-linejoin:round;stroke-miterlimit:10;" d="M367.44,292.57
					c0,0-0.79-7.56,0.59-12.85"/>
			</g>
		</g>
	</g>
</g>
<g id="Character_1">
	<g>
		<path style="fill:#263238;stroke:#263238;stroke-linecap:round;stroke-linejoin:round;stroke-miterlimit:10;" d="M35.2,293.72
			l-7.5-70.31c-0.23-2.2,1.49-4.12,3.71-4.12h48.47c1.75,0,3.26,1.22,3.64,2.92l15.84,71.51H35.2z"/>
		<g>
			<path style="fill:#FFFFFF;stroke:#263238;stroke-linecap:round;stroke-linejoin:round;stroke-miterlimit:10;" d="M94.47,174.48
				c0,0-30.56,16.26-31.41,22.71c-0.84,6.45-3.36,96.42-3.36,96.42h80.2c0,0-7.85-35.29-8.69-39.5s-1.96-11.5-1.96-11.5l26.42,12.02
				l3.93-26.36c0,0-13.8-19.87-22.5-30.81c-8.69-10.94-19.91-19.35-24.96-20.47C107.09,175.88,94.47,174.48,94.47,174.48z"/>
			<g>
				<polyline style="fill:none;stroke:#263238;stroke-miterlimit:10;" points="129.24,242.62 130.75,229.76 134.99,214.76 				"/>
				<line style="fill:none;stroke:#263238;stroke-miterlimit:10;" x1="130.75" y1="229.76" x2="131.6" y2="216.46"/>
				<path style="fill:none;stroke:#263238;stroke-miterlimit:10;" d="M121.38,248.43c0.72,0.29,1.4,0.58,2.01,0.86"/>
				<path style="fill:none;stroke:#263238;stroke-miterlimit:10;" d="M93.94,240.52c0,0,14.19,3.26,23.94,6.62"/>
				<path style="fill:none;stroke:#263238;stroke-miterlimit:10;" d="M111.21,208.25c0,0,1.42,22.37,1.98,23.78
					c0.57,1.42,3.68,0.28,3.68,0.28l-1.98-13.02"/>
				<line style="fill:none;stroke:#263238;stroke-miterlimit:10;" x1="86.15" y1="221.47" x2="88.28" y2="218.44"/>
				<line style="fill:none;stroke:#263238;stroke-miterlimit:10;" x1="77.52" y1="233.73" x2="84.01" y2="224.51"/>
			</g>
			<path style="fill:#FFFFFF;stroke:#263238;stroke-linecap:round;stroke-linejoin:round;stroke-miterlimit:10;" d="M103.66,168.03
				c0,0-8.97,1.96-10.66,3.65c-1.68,1.68-4.49,12.06-4.49,12.06l5.05,26.36c0,0,14.3-12.62,16.26-13.18
				c1.96-0.56,18.79,9.25,18.79,9.25s-0.56-13.18-4.77-21.59c-4.21-8.41-7.85-11.78-11.78-14.3
				C108.15,167.75,103.66,168.03,103.66,168.03z"/>
			<g>
				<path style="fill:#FFFFFF;stroke:#263238;stroke-linecap:round;stroke-linejoin:round;stroke-miterlimit:10;" d="M103.66,149.8
					c0,0-1.96,14.58-2.52,19.35c-0.56,4.77-3.36,2.52-1.68,8.41c1.68,5.89,10.94,30,12.9,28.04c1.96-1.96,8.13-25.8,9.53-27.48
					s3.93-5.05,3.93-5.05L103.66,149.8z"/>
				<path style="fill:#263238;stroke:#263238;stroke-linecap:round;stroke-linejoin:round;stroke-miterlimit:10;" d="M103.48,151.14
					c-0.38,2.86-1.29,9.68-1.9,14.45l21.45,7.57l-1.72-4.82l-15.74-16.53L103.48,151.14z"/>
			</g>
			<g>
				<path style="fill:#FFFFFF;stroke:#263238;stroke-linecap:round;stroke-linejoin:round;stroke-miterlimit:10;" d="M70.91,189.34
					c0,0-10.66,5.89-10.94,8.97c-0.28,3.08-19.91,72.06-17.95,77.39c1.96,5.33,11.22,6.17,11.22,6.17s8.69-14.3,13.46-16.82
					c4.77-2.52,6.45-3.08,6.45-3.08l10.09-47.95"/>
				<path style="fill:#FFFFFF;stroke:#263238;stroke-linecap:round;stroke-linejoin:round;stroke-miterlimit:10;" d="M140.17,278.23
					c0,0,1.96,2.52,4.77,4.21c2.8,1.68,6.45,2.52,3.93,3.65c-2.52,1.12-6.45-0.56-8.69-1.96
					C137.93,282.71,140.17,278.23,140.17,278.23z"/>
				<path style="fill:#FFFFFF;stroke:#263238;stroke-linecap:round;stroke-linejoin:round;stroke-miterlimit:10;" d="M78.48,267.01
					c0,0-0.17-0.21-0.47-0.56c-0.99-1.15-3.4-3.76-5.98-5.05c-3.36-1.68-13.46-1.96-22.15,8.13c-8.69,10.09-4.21,15.14,2.8,16.82
					c7.01,1.68,33.37,3.08,39.82,4.21c6.45,1.12,18.51,1.96,22.99,0c4.49-1.96,9.25-3.36,9.25-3.36s1.4,4.49,3.36,4.49
					c1.96,0,1.68-1.68,1.68-1.68s1.12,1.12,1.96,1.12c0.84,0,1.96-0.84,1.96-0.84s1.4,1.12,3.08,0.56c1.68-0.56,1.68-1.4,1.68-1.4
					s1.96,1.68,2.8,0c0.84-1.68-0.56-7.29-1.12-11.22c-0.56-3.93-3.36-3.93-3.36-3.93l-0.86-0.61c-0.88-0.62-1.98-0.83-3.02-0.58
					l-1.44,0.35c0,0-2.8-0.56-4.21,0c-1.4,0.56-13.18,7.57-14.86,8.41c-1.68,0.84-6.17,0-11.22-1.96
					C96.15,277.95,81.01,271.22,78.48,267.01z"/>
				
					<line style="fill:none;stroke:#263238;stroke-linecap:round;stroke-linejoin:round;stroke-miterlimit:10;" x1="124.75" y1="287.2" x2="123.86" y2="283.24"/>
				<path style="fill:#FFFFFF;stroke:#263238;stroke-linecap:round;stroke-linejoin:round;stroke-miterlimit:10;" d="M57.73,277.39
					c6.17-8.41,20.75-10.38,20.75-10.38s-0.17-0.21-0.47-0.56c-0.99-1.15-3.4-3.76-5.98-5.05c-3.36-1.68-13.46-1.96-22.15,8.13
					c-8.69,10.09-4.21,15.14,2.8,16.82c0.8,0.19,1.85,0.38,3.09,0.56C54.97,284.42,54.99,281.12,57.73,277.39z"/>
				<path style="fill:none;stroke:#263238;stroke-linecap:round;stroke-linejoin:round;stroke-miterlimit:10;" d="M129.8,290
					c0,0-0.56-11.5-2.52-14.02"/>
				<path style="fill:none;stroke:#263238;stroke-linecap:round;stroke-linejoin:round;stroke-miterlimit:10;" d="M133.72,290.29
					c0,0,0.84-10.09-1.12-14.86"/>
				<path style="fill:none;stroke:#263238;stroke-linecap:round;stroke-linejoin:round;stroke-miterlimit:10;" d="M138.49,289.44
					c0,0,0.28-6.92-1.12-12.34"/>
			</g>
			<g>
				<path style="fill:#FFFFFF;stroke:#263238;stroke-linecap:round;stroke-linejoin:round;stroke-miterlimit:10;" d="M159.55,228.26
					c0,0-2.95-3.94-4.92-1.97c-1.97,1.97-4.53,18.71-4.53,23.82c0,5.12-0.79,4.92,5.32,6.1c6.1,1.18,8.27,1.58,10.63,0.39
					c2.36-1.18-0.98-8.66-2.76-14.77C161.52,235.74,159.55,228.26,159.55,228.26z"/>
				<g>
					<g>
						<path style="fill:#FFFFFF;stroke:#263238;stroke-linecap:round;stroke-linejoin:round;stroke-miterlimit:10;" d="
							M167.35,143.15c0.76-0.17,1.58-0.15,2.48,0.11"/>
						<path style="fill:#FFFFFF;stroke:#263238;stroke-linecap:round;stroke-linejoin:round;stroke-miterlimit:10;" d="
							M155.29,160.21c0.67-0.59,1.35-1.3,2.03-2.15c2.23-2.8,4.07-10.74,7.82-13.8"/>
						<path style="fill:#FFFFFF;stroke:#263238;stroke-linecap:round;stroke-linejoin:round;stroke-miterlimit:10;" d="
							M152.87,158.87c0,0,2.99-1.55,3.84-7.04"/>
					</g>
					<path style="fill:#FFFFFF;stroke:#263238;stroke-linecap:round;stroke-linejoin:round;stroke-miterlimit:10;" d="
						M164.47,186.32l-2.17,13.39c0,0,18.11,37.8,18.31,44.89c0.2,7.09-1.97,11.22-9.84,12.01c-7.88,0.79-9.85-0.98-11.81-8.86
						c-1.97-7.88-3.35-47.26-3.35-47.26s-3.74-5.12-4.73-6.89c-0.98-1.77-1.38-4.53-1.38-5.12c0-0.59-1.38-17.13-1.38-17.13
						l14.18-0.2L164.47,186.32z"/>
					<path style="fill:#FFFFFF;stroke:#263238;stroke-linecap:round;stroke-linejoin:round;stroke-miterlimit:10;" d="
						M163.37,184.64l-7.26,1.06c-0.91,0.18-1.79-0.41-1.97-1.32l-0.36-1.82c-0.18-0.91,0.41-1.79,1.32-1.97l7.26-1.06
						c0.91-0.18,1.79,0.41,1.97,1.32l0.36,1.82C164.87,183.58,164.28,184.46,163.37,184.64z"/>
					<path style="fill:#FFFFFF;stroke:#263238;stroke-linecap:round;stroke-linejoin:round;stroke-miterlimit:10;" d="M164.3,188.46
						l-5.28,0.77c-0.66,0.13-1.3-0.3-1.43-0.96l-0.26-1.32c-0.13-0.66,0.3-1.3,0.96-1.43l5.28-0.77c0.66-0.13,1.3,0.3,1.43,0.96
						l0.26,1.32C165.4,187.69,164.96,188.33,164.3,188.46z"/>
					<path style="fill:#FFFFFF;stroke:#263238;stroke-linecap:round;stroke-linejoin:round;stroke-miterlimit:10;" d="
						M163.49,173.71l-7.68,1.13c-0.96,0.19-1.9-0.44-2.08-1.4l-0.38-1.93c-0.19-0.96,0.44-1.9,1.4-2.08l7.68-1.13
						c0.96-0.19,1.9,0.44,2.08,1.4l0.38,1.93C165.08,172.59,164.45,173.53,163.49,173.71z"/>
					<path style="fill:#FFFFFF;stroke:#263238;stroke-linecap:round;stroke-linejoin:round;stroke-miterlimit:10;" d="
						M164.27,179.42l-7.68,1.13c-0.96,0.19-1.9-0.44-2.08-1.4l-0.38-1.93c-0.19-0.96,0.44-1.9,1.4-2.08l7.68-1.13
						c0.96-0.19,1.9,0.44,2.08,1.4l0.38,1.93C165.86,178.3,165.24,179.24,164.27,179.42z"/>
				</g>
			</g>
			<g>
				<path style="fill:#263238;stroke:#263238;stroke-linecap:round;stroke-linejoin:round;stroke-miterlimit:10;" d="M101.27,142.08
					c0,0-2.13-21.28-4.68-28.51c-2.55-7.23,6.81-15.32,28.94-14.89c22.13,0.43,30.21,10.21,30.64,14.89
					c0.43,4.68-5.11,8.09-5.11,8.09l-2.13,5.96l-19.58-4.68c0,0,0,5.11-1.7,7.23c-1.7,2.13-11.49,5.53-11.49,5.53
					s-2.13,7.66-5.53,11.49c-3.4,3.83-8.51,3.4-8.94,0.85C101.27,145.48,101.27,142.08,101.27,142.08z"/>
				<g>
					<path style="fill:#FFFFFF;stroke:#263238;stroke-linecap:round;stroke-linejoin:round;stroke-miterlimit:10;" d="
						M106.38,145.91c0,0,1.28-8.51-5.53-8.51c-6.81,0-5.11,8.51-2.98,12.77c2.13,4.26,4.68,5.11,4.68,5.11s13.19,17.45,17.87,20
						c4.68,2.55,7.23,4.26,10.64,2.55c3.4-1.7,13.62-14.47,15.32-21.28c1.7-6.81,1.7-11.49,1.7-11.49s3.83-8.09,3.83-11.92
						c0-3.83-0.85-11.49-0.85-11.49s-18.72-6.81-24.26-5.53c-5.53,1.28-8.09,0.85-5.53,2.98c2.55,2.13,3.83,8.51,2.13,9.36
						c-1.7,0.85-11.92,0.85-11.92,4.68c0,3.83,1.28,5.96-0.43,8.09C109.36,143.35,106.38,145.91,106.38,145.91z"/>
					<path style="fill:none;stroke:#263238;stroke-miterlimit:10;" d="M134.2,159.56c0,0,5.89,0.84,7.01-0.56
						c1.12-1.4,0.84-12.06,0.84-12.06l4.21-5.89c0,0,2.52-1.68,3.65,0"/>
					<line style="fill:none;stroke:#263238;stroke-miterlimit:10;" x1="132.24" y1="168.53" x2="136.17" y2="167.13"/>
					<path style="fill:#263238;" d="M130.8,144.92c-0.4,1.51-1.44,2.54-2.32,2.31s-1.28-1.65-0.88-3.16
						c0.4-1.51,1.44-2.54,2.32-2.31C130.81,141.99,131.2,143.41,130.8,144.92z"/>
					<path style="fill:#263238;" d="M146.74,147.37c-0.4,1.51-1.44,2.54-2.32,2.31c-0.88-0.23-1.28-1.65-0.88-3.16
						c0.4-1.51,1.44-2.54,2.32-2.31C146.75,144.44,147.14,145.86,146.74,147.37z"/>
					<path style="fill:none;stroke:#263238;stroke-miterlimit:10;" d="M126.91,137.41c0,0,4.21-2.8,10.38,0.84"/>
				</g>
			</g>
			<path style="fill:#FFFFFF;stroke:#263238;stroke-linecap:round;stroke-linejoin:round;stroke-miterlimit:10;" d="M135.62,164.02
				l4.53,29.44l15.57-1.13l0.85-29.73C156.57,162.6,150.06,160.34,135.62,164.02z"/>
		</g>
	</g>
</g>
<g id="Device_3">
	<g>
		<path style="fill:#FFFFFF;stroke:#263238;stroke-linecap:round;stroke-linejoin:round;stroke-miterlimit:10;" d="M347.42,405.63
			l11.95,50.6c0.36,1.52-0.79,2.98-2.35,2.98h-15.08v3.8h19.09c2.93,0,5.08-2.77,4.33-5.61l-14.98-57.25L347.42,405.63z"/>
		
			<rect x="344.89" y="352.47" transform="matrix(0.9848 0.1738 -0.1738 0.9848 74.8426 -54.4369)" style="fill:#263238;stroke:#263238;stroke-linecap:round;stroke-linejoin:round;stroke-miterlimit:10;" width="6.75" height="95.34"/>
		
			<rect x="258.9" y="460.37" style="fill:#FFFFFF;stroke:#263238;stroke-linecap:round;stroke-linejoin:round;stroke-miterlimit:10;" width="60.99" height="2.64"/>
	</g>
</g>
<g id="Device_2">
	<g>
		
			<rect x="283.71" y="290.35" style="fill:#263238;stroke:#263238;stroke-linecap:round;stroke-linejoin:round;stroke-miterlimit:10;" width="119.45" height="3.42"/>
		
			<rect x="361.22" y="290.35" style="fill:#FFFFFF;stroke:#263238;stroke-linecap:round;stroke-linejoin:round;stroke-miterlimit:10;" width="41.93" height="3.42"/>
		<path style="fill:#FFFFFF;stroke:#263238;stroke-linecap:round;stroke-linejoin:round;stroke-miterlimit:10;" d="M362.64,290.35
			h-77.56l-7.54-51.59c-0.36-2.46,1.34-4.45,3.8-4.45H350c2.46,0,4.74,1.99,5.1,4.45L362.64,290.35z"/>
		<path style="fill:#FFFFFF;stroke:#263238;stroke-linecap:round;stroke-linejoin:round;stroke-miterlimit:10;" d="M361.15,290.35
			h-77.56l-7.54-51.59c-0.36-2.46,1.34-4.45,3.8-4.45h68.66c2.46,0,4.74,1.99,5.1,4.45L361.15,290.35z"/>
	</g>
</g>
<g id="Device_1">
	<g>
		
			<rect x="119.96" y="290.28" transform="matrix(-1 -1.224647e-16 1.224647e-16 -1 361.9942 584.0452)" style="fill:#263238;stroke:#263238;stroke-linecap:round;stroke-linejoin:round;stroke-miterlimit:10;" width="122.08" height="3.49"/>
		
			<rect x="119.96" y="290.28" transform="matrix(-1 -1.224647e-16 1.224647e-16 -1 282.7717 584.0452)" style="fill:#8342EA;stroke:#263238;stroke-linecap:round;stroke-linejoin:round;stroke-miterlimit:10;" width="42.85" height="3.49"/>
		<path style="fill:#92E3A9;stroke:#263238;stroke-linecap:round;stroke-linejoin:round;stroke-miterlimit:10;" d="M161.37,290.28
			h79.26l7.71-52.72c0.37-2.51-1.37-4.55-3.88-4.55h-70.17c-2.51,0-4.84,2.04-5.21,4.55L161.37,290.28z"/>
		<path style="fill:#8342EA;stroke:#263238;stroke-linecap:round;stroke-linejoin:round;stroke-miterlimit:10;" d="M162.89,290.28
			h79.26l7.71-52.72c0.37-2.51-1.37-4.55-3.88-4.55h-70.17c-2.51,0-4.84,2.04-5.21,4.55L162.89,290.28z"/>
		<path style="fill:#263238;stroke:#263238;stroke-linecap:round;stroke-linejoin:round;stroke-miterlimit:10;" d="M204.85,259.98
			c0.4-2.74,2.95-4.97,5.7-4.97c2.74,0,4.64,2.22,4.24,4.97c-0.4,2.74-2.95,4.97-5.7,4.97
			C206.35,264.95,204.45,262.72,204.85,259.98z"/>
	</g>
</g>
<g id="Table_3">
	
		<line style="fill:none;stroke:#263238;stroke-linecap:round;stroke-linejoin:round;stroke-miterlimit:10;" x1="25" y1="463.01" x2="491.72" y2="463.01"/>
</g>
<g id="Table_2">
	
		<line style="fill:#FFFFFF;stroke:#263238;stroke-linecap:round;stroke-linejoin:round;stroke-miterlimit:10;" x1="481.73" y1="293.77" x2="269.61" y2="293.77"/>
</g>
<g id="Table_1">
	
		<line style="fill:none;stroke:#263238;stroke-linecap:round;stroke-linejoin:round;stroke-miterlimit:10;" x1="256.98" y1="293.77" x2="22.64" y2="293.77"/>
</g>
<g id="Character_3">
	<g>
		<path style="fill:#263238;stroke:#263238;stroke-linecap:round;stroke-linejoin:round;stroke-miterlimit:10;" d="M189.91,306.01
			c0,0-1.8-17.2-10.78-22.59s-4.36,9.24-4.36,10.01c0,0.77-13.35-14.12-24.64-5.9c-11.3,8.21-0.77,25.41-0.77,25.41
			s-13.61-4.62-13.35,0.26c0.26,4.88,12.84,8.98,12.84,8.98s-22.85,2.31-14.63,12.58c8.21,10.27,30.55,2.82,30.55,2.82
			s-6.16,6.67-1.8,7.44c4.36,0.77,21.05-12.32,22.59-15.66C187.09,326.03,195.82,316.02,189.91,306.01z"/>
		<path style="fill:#263238;stroke:#263238;stroke-linecap:round;stroke-linejoin:round;stroke-miterlimit:10;" d="M240.76,337.51
			c0,0,8.35-0.44,12.75-7.47c4.4-7.03,2.64-11.87-3.96-14.51c-6.59-2.64-15.82-1.32-15.82-1.32s-14.07-17.58-33.85-13.19
			c-19.78,4.4-22.42,19.78-21.1,27.69c1.32,7.91,5.27,31.65,5.27,31.65s16.26,2.64,20.66-1.76c4.4-4.4,12.75-20.22,21.54-22.42
			C235.05,334,240.76,337.51,240.76,337.51z"/>
		<g>
			<path style="fill:none;stroke:#263238;stroke-linecap:round;stroke-linejoin:round;stroke-miterlimit:10;" d="M243.69,352.67
				c-0.53,3.95-3.37,9.49-6.09,9.13c-2.72-0.37-4.5-3.86-3.97-7.81c0.53-3.95,3.39-4.5,6.11-4.13
				C242.47,350.22,244.22,348.73,243.69,352.67z"/>
			<path style="fill:#FFFFFF;stroke:#263238;stroke-linecap:round;stroke-linejoin:round;stroke-miterlimit:10;" d="M196.8,348.06
				c0,0,3.52,1.32,8.79-2.64c5.27-3.96,5.27-13.63,16.7-15.82c11.43-2.2,18.9,3.08,19.34,6.15c0.44,3.08-1.32,9.23-1.32,15.38
				c0,6.15,1.32,9.23,2.64,10.55c1.32,1.32,3.08,0.44,0.44,3.08c-2.64,2.64-7.91,5.71-7.91,5.71s-7.47,14.07-10.55,16.7
				c-3.08,2.64-10.55,1.32-13.19,0c-2.64-1.32-8.35-4.4-8.35-4.4l-3.52,12.31l-21.1-17.14l5.27-17.58
				C184.06,360.37,194.61,357.73,196.8,348.06z"/>
			<polygon style="fill:#263238;stroke:#263238;stroke-linecap:round;stroke-linejoin:round;stroke-miterlimit:10;" points="
				203.4,382.79 197.74,376.35 200.79,389.79 			"/>
			<path style="fill:#263238;" d="M236.88,353.91c-0.15,1.69-1.02,3-1.94,2.92c-0.92-0.08-1.54-1.52-1.38-3.22
				c0.15-1.69,1.02-3,1.94-2.92C236.42,350.77,237.04,352.21,236.88,353.91z"/>
			
				<line style="fill:none;stroke:#263238;stroke-linecap:round;stroke-linejoin:round;stroke-miterlimit:10;" x1="228.48" y1="349.86" x2="198.38" y2="347.85"/>
			
				<line style="fill:none;stroke:#263238;stroke-linecap:round;stroke-linejoin:round;stroke-miterlimit:10;" x1="238.43" y1="354.01" x2="240.87" y2="354.01"/>
			<path style="fill:none;stroke:#263238;stroke-linecap:round;stroke-linejoin:round;stroke-miterlimit:10;" d="M231.76,343.23
				c0,0,3.59-2.05,6.67,0.77"/>
			<path style="fill:none;stroke:#263238;stroke-linecap:round;stroke-linejoin:round;stroke-miterlimit:10;" d="M231.76,375.58
				c0,0-3.34,0-5.65-3.85"/>
		</g>
		<g>
			<path style="fill:#8342EA;stroke:#263238;stroke-linecap:round;stroke-linejoin:round;stroke-miterlimit:10;" d="M203,406.51
				l3.95,56.75h-86.68c0,0,13.55-43.2,17.79-52.23c4.24-9.04,9.6-12.99,9.6-12.99s11.01-9.88,25.98-7.91
				C188.6,392.11,203,406.51,203,406.51z"/>
			<path style="fill:#FFFFFF;stroke:#263238;stroke-linecap:round;stroke-linejoin:round;stroke-miterlimit:10;" d="M199.44,351.58
				c0,0-1.76-8.79-7.91-7.47c-6.15,1.32-3.08,14.94,0.88,18.9c3.96,3.96,6.59-0.44,6.59-0.44"/>
			<g>
				<path style="fill:#8342EA;stroke:#263238;stroke-linecap:round;stroke-linejoin:round;stroke-miterlimit:10;" d="M204.69,410.18
					c0,0,3.39-5.93,0.56-10.73c-2.82-4.8-11.29-14.4-22.87-23.43c-11.58-9.04-26.82-20.61-29.08-14.4
					c-2.26,6.21-3.95,18.35-3.95,18.35s-9.88,1.69-11.01,4.8c-1.13,3.11-2.26,18.63-0.56,20.61c1.69,1.98,2.82-0.28,6.49-0.28
					c3.67,0,25.98-7.34,34.45-6.78c8.47,0.56,9.88,3.11,16.38,6.49C201.59,408.21,204.69,410.18,204.69,410.18z"/>
				<path style="fill:none;stroke:#263238;stroke-linecap:round;stroke-linejoin:round;stroke-miterlimit:10;" d="M198.89,399.94
					c1.98,1.54,3.51,2.93,4.39,4.03"/>
				<path style="fill:none;stroke:#263238;stroke-linecap:round;stroke-linejoin:round;stroke-miterlimit:10;" d="M156.09,385.69
					c6.46-1.34,14.29-2.05,19.8,0.49c6.82,3.15,14.4,7.6,19.99,11.54"/>
				<path style="fill:none;stroke:#263238;stroke-linecap:round;stroke-linejoin:round;stroke-miterlimit:10;" d="M144.55,389.01
					c0,0,4.22-1.64,9.85-2.95"/>
				<path style="fill:none;stroke:#263238;stroke-linecap:round;stroke-linejoin:round;stroke-miterlimit:10;" d="M153.02,379.97
					c0,0,7.06-2.82,16.66,0.28"/>
			</g>
			<path style="fill:#8342EA;stroke:#263238;stroke-linecap:round;stroke-linejoin:round;stroke-miterlimit:10;" d="M163.75,408.77
				c2.26-4.8,9.6-15.53,20.89-9.88c11.29,5.65,14.12,19.2,19.2,35.86c5.08,16.66,9.88,28.52,9.88,28.52h-42.07l-10.45-42.07"/>
		</g>
		<path style="fill:#FFFFFF;stroke:#263238;stroke-linecap:round;stroke-linejoin:round;stroke-miterlimit:10;" d="M254.34,463.18
			l4.67-4c0,0,5.54,1.32,14.56-1.46c9.02-2.78,12.01-5.46,12.01-5.46s4,1.82,8.15,4.56c4.14,2.75,7.14,3.81,11.14,2.71
			s-1.09-2.18-5.52-5.31c-4.43-3.12-9.76-7.43-9.76-7.43s8.37,4,11.28,5.1c2.91,1.09,5.82,2.91,8.37,1.82
			c2.55-1.09,1.46-2.18-5.1-5.46c-6-3-12.74-8.73-16.01-8.73c-3.28,0-18.2,6.19-18.2,6.19l-29.21,17.47H254.34z"/>
		<g>
			<g>
				<path style="fill:#263238;stroke:#263238;stroke-linecap:round;stroke-linejoin:round;stroke-miterlimit:10;" d="M264.55,456.13
					c0,0,3.56,1.22,6.84,0.5c3.28-0.73,7.64-1.46,7.64-1.46s8.73,0.36,11.65,0c2.91-0.36,2.18-2.18-2.55-4
					c-4.73-1.82-22.56-2.91-22.93-1.82C264.84,450.44,264.55,456.13,264.55,456.13z"/>
				<path style="fill:#FFFFFF;stroke:#263238;stroke-linecap:round;stroke-linejoin:round;stroke-miterlimit:10;" d="M291.13,446.41
					c0,0,6.92,2.59,8.21,3.46c1.3,0.86,3.89,1.51,2.81,3.03c-1.08,1.51-4.54,0.22-6.92-0.22c-2.38-0.43-5.4-1.95-5.4-1.95
					L291.13,446.41z"/>
				<path style="fill:#FFFFFF;stroke:#263238;stroke-linecap:round;stroke-linejoin:round;stroke-miterlimit:10;" d="M273.2,442.52
					c0,0,12.32,0.65,15.13,1.51c2.81,0.86,4.97,6.7,5.4,8.43c0.43,1.73,1.94,3.89,0.65,4.11c-1.3,0.22-6.05-5.19-8-6.27
					c-1.94-1.08-9.72-4.75-12.53-5.83C271.04,443.38,271.68,442.3,273.2,442.52z"/>
				<path style="fill:#FFFFFF;stroke:#263238;stroke-linecap:round;stroke-linejoin:round;stroke-miterlimit:10;" d="M237.07,461.05
					c0,0,28.23-19.95,31.25-19.95c3.01,0,16.56,6.02,19.58,7.53c3.01,1.51,6.78,9.79,6.78,9.79s-0.75,1.88-3.39,0.38
					c-2.64-1.51-5.65-6.4-5.65-6.4l-15.03-0.58c0,0-3.79,3.57-6.05,4.32c-2.26,0.75-7.56,1.3-7.56,1.3l-4.86,4.37L237.07,461.05z"/>
			</g>
			<polygon style="fill:#8342EA;stroke:#263238;stroke-linecap:round;stroke-linejoin:round;stroke-miterlimit:10;" points="
				250.51,451.38 256.99,463.26 228.89,463.26 			"/>
		</g>
		<path style="fill:none;stroke:#263238;stroke-linecap:round;stroke-linejoin:round;stroke-miterlimit:10;" d="M238.9,349.29
			c0,0-8.45-3.1-9.58-1.13c-1.13,1.97-2.25,9.29,2.25,12.39c4.51,3.1,6.86-6.55,6.86-6.55"/>
	</g>
</g>
<g id="Clock">
</g>
</svg>
