<?xml version="1.0" encoding="utf-8"?>
<!-- Generator: Adobe Illustrator 25.2.0, SVG Export Plug-In . SVG Version: 6.00 Build 0)  -->
<svg version="1.1" xmlns="http://www.w3.org/2000/svg" xmlns:xlink="http://www.w3.org/1999/xlink" x="0px" y="0px"
	 viewBox="0 0 750 500" style="enable-background:new 0 0 750 500;" xml:space="preserve">
<g id="Background_Simple">
	<g>
		<path style="fill:#D2BBFF;" d="M93.49,445.31h595.53c2.21-8.78,15.01-61.97,15.6-117.82c0.64-61.14-49.68-142.66-103.81-170.68
			c-54.13-28.02-138.84-99.35-217.17-98.08c-78.33,1.27-126.74,38.21-140.75,63.05c-14.01,24.84-33.75,46.49-99.99,80.88
			c-66.23,34.39-94.89,72.6-103.81,115.27C30.56,358.77,71.01,428.76,93.49,445.31z"/>
		<path style="opacity:0.7;fill:#FFFFFF;" d="M93.49,445.31h595.53c2.21-8.78,15.01-61.97,15.6-117.82
			c0.64-61.14-49.68-142.66-103.81-170.68c-54.13-28.02-138.84-99.35-217.17-98.08c-78.33,1.27-126.74,38.21-140.75,63.05
			c-14.01,24.84-33.75,46.49-99.99,80.88c-66.23,34.39-94.89,72.6-103.81,115.27C30.56,358.77,71.01,428.76,93.49,445.31z"/>
	</g>
</g>
<g id="Sofa">
	<g>
		<path style="fill:#8342EA;stroke:#263238;stroke-linecap:round;stroke-linejoin:round;stroke-miterlimit:10;" d="M675.22,294.66
			c-0.04-0.6-0.09-1.2-0.15-1.79c-2.53-25.75-24.66-45.13-50.53-45.13H411.95h-64.44H134.91c-25.87,0-48,19.38-50.53,45.13
			c-0.06,0.59-0.11,1.19-0.15,1.79c-2.31,33.85,0,150.66,0,150.66h261.58h67.84h261.58C675.22,445.31,677.53,328.51,675.22,294.66z"
			/>
		<path style="fill:#92E3A9;stroke:#263238;stroke-linecap:round;stroke-linejoin:round;stroke-miterlimit:10;" d="M154.42,306.2
			c0-2.97-2.41-5.38-5.38-5.38c-2.97,0-5.39,2.41-5.39,5.38c0,2.97,2.41,5.39,5.39,5.39C152.01,311.58,154.42,309.17,154.42,306.2z"
			/>
		
			<circle style="fill:#92E3A9;stroke:#263238;stroke-linecap:round;stroke-linejoin:round;stroke-miterlimit:10;" cx="225.96" cy="306.2" r="5.38"/>
		
			<circle style="fill:#8342EA;stroke:#263238;stroke-linecap:round;stroke-linejoin:round;stroke-miterlimit:10;" cx="302.89" cy="306.2" r="5.38"/>
		
			<circle style="fill:#92E3A9;stroke:#263238;stroke-linecap:round;stroke-linejoin:round;stroke-miterlimit:10;" cx="379.82" cy="306.2" r="5.38"/>
		
			<circle style="fill:#92E3A9;stroke:#263238;stroke-linecap:round;stroke-linejoin:round;stroke-miterlimit:10;" cx="456.74" cy="306.2" r="5.38"/>
		<path style="fill:#92E3A9;stroke:#263238;stroke-linecap:round;stroke-linejoin:round;stroke-miterlimit:10;" d="M539.06,306.2
			c0-2.97-2.41-5.38-5.39-5.38c-2.97,0-5.38,2.41-5.38,5.38c0,2.97,2.41,5.39,5.38,5.39C536.65,311.58,539.06,309.17,539.06,306.2z"
			/>
		<path style="fill:#92E3A9;stroke:#263238;stroke-linecap:round;stroke-linejoin:round;stroke-miterlimit:10;" d="M615.99,306.2
			c0-2.97-2.41-5.38-5.38-5.38c-2.97,0-5.39,2.41-5.39,5.38c0,2.97,2.41,5.39,5.39,5.39C613.57,311.58,615.99,309.17,615.99,306.2z"
			/>
		<path style="fill:#92E3A9;stroke:#263238;stroke-linecap:round;stroke-linejoin:round;stroke-miterlimit:10;" d="M154.42,420.82
			c0-2.97-2.41-5.38-5.38-5.38c-2.97,0-5.39,2.41-5.39,5.38c0,2.97,2.41,5.39,5.39,5.39C152.01,426.2,154.42,423.79,154.42,420.82z"
			/>
		
			<circle style="fill:#92E3A9;stroke:#263238;stroke-linecap:round;stroke-linejoin:round;stroke-miterlimit:10;" cx="225.96" cy="420.82" r="5.38"/>
		
			<circle style="fill:#92E3A9;stroke:#263238;stroke-linecap:round;stroke-linejoin:round;stroke-miterlimit:10;" cx="302.89" cy="420.82" r="5.38"/>
		
			<circle style="fill:#92E3A9;stroke:#263238;stroke-linecap:round;stroke-linejoin:round;stroke-miterlimit:10;" cx="379.82" cy="420.82" r="5.38"/>
		
			<circle style="fill:#92E3A9;stroke:#263238;stroke-linecap:round;stroke-linejoin:round;stroke-miterlimit:10;" cx="456.74" cy="420.82" r="5.38"/>
		<path style="fill:#92E3A9;stroke:#263238;stroke-linecap:round;stroke-linejoin:round;stroke-miterlimit:10;" d="M539.06,420.82
			c0-2.97-2.41-5.38-5.39-5.38c-2.97,0-5.38,2.41-5.38,5.38c0,2.97,2.41,5.39,5.38,5.39C536.65,426.2,539.06,423.79,539.06,420.82z"
			/>
		<path style="fill:#92E3A9;stroke:#263238;stroke-linecap:round;stroke-linejoin:round;stroke-miterlimit:10;" d="M615.99,420.82
			c0-2.97-2.41-5.38-5.38-5.38c-2.97,0-5.39,2.41-5.39,5.38c0,2.97,2.41,5.39,5.39,5.39C613.57,426.2,615.99,423.79,615.99,420.82z"
			/>
		
			<circle style="fill:#92E3A9;stroke:#263238;stroke-linecap:round;stroke-linejoin:round;stroke-miterlimit:10;" cx="183.65" cy="365.43" r="5.39"/>
		
			<circle style="fill:#92E3A9;stroke:#263238;stroke-linecap:round;stroke-linejoin:round;stroke-miterlimit:10;" cx="260.58" cy="365.43" r="5.39"/>
		
			<circle style="fill:#92E3A9;stroke:#263238;stroke-linecap:round;stroke-linejoin:round;stroke-miterlimit:10;" cx="337.51" cy="365.43" r="5.38"/>
		<path style="fill:#92E3A9;stroke:#263238;stroke-linecap:round;stroke-linejoin:round;stroke-miterlimit:10;" d="M419.82,365.43
			c0-2.97-2.41-5.38-5.39-5.38c-2.97,0-5.38,2.41-5.38,5.38c0,2.97,2.41,5.39,5.38,5.39C417.41,370.82,419.82,368.41,419.82,365.43z
			"/>
		<path style="fill:#8342EA;stroke:#263238;stroke-linecap:round;stroke-linejoin:round;stroke-miterlimit:10;" d="M496.75,365.43
			c0-2.97-2.41-5.38-5.38-5.38c-2.97,0-5.39,2.41-5.39,5.38c0,2.97,2.41,5.39,5.39,5.39C494.34,370.82,496.75,368.41,496.75,365.43z
			"/>
		
			<circle style="fill:#92E3A9;stroke:#263238;stroke-linecap:round;stroke-linejoin:round;stroke-miterlimit:10;" cx="568.29" cy="365.43" r="5.38"/>
	</g>
</g>
<g id="Balloons">
	<g>
		<g>
			<path style="fill:#263238;stroke:#263238;stroke-linecap:round;stroke-linejoin:round;stroke-miterlimit:10;" d="M686.67,168.97
				c0,18.99-15.84,49.03-29.47,49.03c-11.34,0-29.47-30.04-29.47-49.03c0-18.99,13.19-34.38,29.47-34.38
				C673.48,134.59,686.67,149.98,686.67,168.97z"/>
			<polyline style="fill:#263238;stroke:#263238;stroke-linecap:round;stroke-linejoin:round;stroke-miterlimit:10;" points="
				656.37,218.91 656.66,225.79 662.39,224.36 657.2,218 			"/>
			<path style="fill:#FFFFFF;" d="M678.24,148.34c3.47,5.22,3.37,11.39-0.21,13.76c-3.58,2.38-9.3,0.07-12.76-5.16
				c-3.47-5.22-3.37-11.39,0.21-13.76C669.06,140.81,674.77,143.12,678.24,148.34z"/>
			<path style="fill:#FFFFFF;" d="M662.33,141.14c-0.23,1.16-1.87,1.82-3.65,1.47c-1.79-0.35-3.05-1.59-2.82-2.75
				c0.23-1.17,1.87-1.82,3.65-1.47C661.3,138.74,662.56,139.97,662.33,141.14z"/>
		</g>
		<g>
			<g>
				<path style="fill:#263238;" d="M658.99,222.06c-1.07,4.03-1.67,8.22-2.05,12.37c-0.3,3.26-0.37,6.52-0.34,9.79
					c0.02,2.12,0,4.26,0.62,6.3c1.02,3.38,3.07,6.41,4.93,9.37c2.31,3.66,4.62,7.33,6.31,11.32c0.89,2.1,1.61,4.27,2.08,6.51
					c0.25,1.22,0.43,2.46,0.52,3.71c0.02,0.32,0.02,0.65,0.06,0.98c0.05,0.49,0-0.5,0.01-0.51c-0.05,0.07-0.01,0.35-0.02,0.44
					c-0.05,0.74-0.1,1.48-0.19,2.22c-0.83,6.5-3.92,12.16-7.46,17.56c-3.21,4.9-6.64,9.63-10.07,14.38
					c-2.36,3.26-4.74,6.54-6.51,10.17c-3.91,8.01-3.69,17.29-3.29,25.98c0.08,1.77,0.19,3.54,0.32,5.3
					c-0.04-0.59,0.06-1.66,0.01-2.41c-0.67-9.29-1.01-18.85,3.44-27.32c1.82-3.46,4.15-6.63,6.44-9.79
					c3.34-4.61,6.66-9.23,9.78-13.99c3.38-5.16,6.32-10.58,7.25-16.76c0.63-4.18,0.54-8.72-0.37-12.85
					c-1.81-8.14-6.91-14.64-10.94-21.75c-0.87-1.53-1.68-3.11-2.22-4.79c-0.95-2.95-0.73-6.18-0.53-9.23
					c0.32-4.84,0.97-9.77,2.22-14.47C659.2,223.78,658.78,222.84,658.99,222.06L658.99,222.06z"/>
			</g>
		</g>
	</g>
	<g>
		<g>
			<path style="fill:#263238;stroke:#263238;stroke-linecap:round;stroke-linejoin:round;stroke-miterlimit:10;" d="M97.77,204.55
				c0,18.99-15.84,49.03-29.47,49.03c-11.34,0-29.47-30.04-29.47-49.03c0-18.99,13.19-34.38,29.47-34.38S97.77,185.57,97.77,204.55z
				"/>
			<polyline style="fill:#263238;stroke:#263238;stroke-linecap:round;stroke-linejoin:round;stroke-miterlimit:10;" points="
				67.47,254.49 67.75,261.37 73.49,259.94 68.3,253.58 			"/>
			<path style="fill:#FFFFFF;" d="M89.34,183.92c3.47,5.22,3.37,11.39-0.21,13.76c-3.58,2.38-9.3,0.07-12.76-5.16
				c-3.47-5.22-3.37-11.39,0.21-13.76C80.15,176.39,85.87,178.7,89.34,183.92z"/>
			<path style="fill:#FFFFFF;" d="M73.43,176.72c-0.23,1.16-1.87,1.82-3.65,1.47c-1.79-0.35-3.05-1.59-2.82-2.75
				c0.23-1.16,1.87-1.82,3.65-1.47C72.4,174.32,73.66,175.55,73.43,176.72z"/>
		</g>
		<g>
			<g>
				<path style="fill:#263238;" d="M70.08,257.64c-1.07,4.03-1.67,8.22-2.05,12.37c-0.3,3.26-0.37,6.52-0.34,9.79
					c0.02,2.12,0,4.26,0.62,6.3c1.02,3.38,3.07,6.41,4.93,9.37c2.31,3.66,4.62,7.33,6.31,11.32c0.89,2.1,1.61,4.27,2.08,6.51
					c0.25,1.22,0.43,2.46,0.52,3.71c0.02,0.32,0.02,0.65,0.06,0.98c0.05,0.49,0-0.5,0.01-0.51c-0.05,0.07-0.01,0.35-0.02,0.45
					c-0.05,0.74-0.1,1.48-0.19,2.22c-0.83,6.5-3.92,12.16-7.46,17.56c-3.21,4.9-6.64,9.63-10.07,14.38
					c-2.36,3.26-4.74,6.54-6.51,10.17c-3.91,8.01-3.69,17.29-3.29,25.98c0.08,1.77,0.19,3.54,0.32,5.3
					c-0.04-0.59,0.06-1.66,0.01-2.41c-0.67-9.29-1.01-18.85,3.44-27.32c1.82-3.46,4.15-6.63,6.44-9.79
					c3.34-4.61,6.66-9.23,9.78-13.99c3.38-5.16,6.32-10.58,7.25-16.76c0.63-4.18,0.54-8.72-0.37-12.85
					c-1.81-8.14-6.91-14.64-10.94-21.75c-0.87-1.53-1.68-3.11-2.22-4.79c-0.95-2.95-0.73-6.18-0.53-9.23
					c0.32-4.84,0.97-9.77,2.22-14.47C70.29,259.36,69.88,258.42,70.08,257.64L70.08,257.64z"/>
			</g>
		</g>
	</g>
	<g>
		<g>
			<path style="fill:#8342EA;stroke:#263238;stroke-linecap:round;stroke-linejoin:round;stroke-miterlimit:10;" d="M618.13,93.86
				c0,18.99-15.84,49.03-29.47,49.03c-11.34,0-29.47-30.04-29.47-49.03c0-18.99,13.19-34.38,29.47-34.38
				C604.94,59.48,618.13,74.87,618.13,93.86z"/>
			<polyline style="fill:#263238;stroke:#263238;stroke-linecap:round;stroke-linejoin:round;stroke-miterlimit:10;" points="
				587.83,143.8 588.11,150.68 593.85,149.25 588.66,142.89 			"/>
			<path style="fill:#FFFFFF;" d="M609.7,73.23c3.47,5.22,3.37,11.39-0.21,13.76c-3.58,2.38-9.3,0.07-12.76-5.16
				c-3.47-5.22-3.37-11.39,0.21-13.76C600.52,65.7,606.23,68.01,609.7,73.23z"/>
			<path style="fill:#FFFFFF;" d="M593.79,66.02c-0.23,1.16-1.87,1.82-3.65,1.47c-1.79-0.35-3.05-1.59-2.82-2.75
				c0.23-1.16,1.87-1.82,3.65-1.47C592.76,63.63,594.02,64.86,593.79,66.02z"/>
		</g>
		<g>
			<g>
				<path style="fill:#263238;" d="M590.44,149.45c6.27,5.94,12.19,12.58,16.97,19.77c2.8,4.21,5.36,8.81,5.56,13.96
					c0.01,0.23,0,0.47,0.02,0.7c0.03,0.29,0.06-1.86-0.01-0.86c-0.03,0.38-0.04,0.77-0.08,1.15c-0.07,0.61-0.17,1.21-0.33,1.81
					c-0.3,1.13-0.81,2.18-1.44,3.17c-1.97,3.08-4.56,5.78-6.83,8.65c-4.65,5.88-9.11,12.08-12.9,18.55
					c-1.54,2.62-2.88,5.4-3.65,8.36c-0.6,2.33-0.67,4.65-0.63,7.04c0.06,4.15,1.71,7.78,4.05,11.14c2.69,3.86,5.88,7.34,8.52,11.24
					c3.25,4.79,5.61,10.08,6.71,15.78c0.34,1.74,0.56,3.5,0.69,5.27c-0.06-0.83,0.06-1.67,0-2.5c-0.48-6.28-2.23-12.33-5.37-17.81
					c-2.48-4.32-5.7-8.09-8.73-12.02c-2.52-3.26-4.94-6.79-5.65-10.93c-0.09-0.55-0.14-1.1-0.19-1.65
					c-0.11-1.31-0.09,1.51-0.01,0.74c0.04-0.35,0.05-0.7,0.08-1.04c0.14-1.23,0.4-2.43,0.76-3.61c0.93-3.1,2.45-6,4.15-8.73
					c3.92-6.3,8.22-12.41,12.86-18.2c2.15-2.68,4.65-5.25,6.41-8.22c1.38-2.34,1.59-4.84,1.6-7.51c0-1.98,0.05-4.03-0.37-5.98
					c-0.53-2.51-1.64-4.88-2.88-7.11c-4.8-8.67-11.8-16.33-18.88-23.21c-0.15-0.15-0.3-0.29-0.46-0.44
					c0.11,0.11-0.01,1.07-0.01,1.25C590.43,148.41,590.29,149.3,590.44,149.45L590.44,149.45z"/>
			</g>
		</g>
	</g>
	<g>
		<g>
			<path style="fill:#8342EA;stroke:#263238;stroke-linecap:round;stroke-linejoin:round;stroke-miterlimit:10;" d="M155.77,91.95
				c0,18.99-15.84,49.03-29.47,49.03c-11.34,0-29.47-30.04-29.47-49.03c0-18.99,13.19-34.38,29.47-34.38
				C142.57,57.57,155.77,72.96,155.77,91.95z"/>
			<polyline style="fill:#263238;stroke:#263238;stroke-linecap:round;stroke-linejoin:round;stroke-miterlimit:10;" points="
				125.46,141.89 125.75,148.77 131.49,147.34 126.3,140.98 			"/>
			<path style="fill:#FFFFFF;" d="M147.33,71.32c3.47,5.22,3.37,11.39-0.21,13.76c-3.58,2.38-9.3,0.07-12.76-5.16
				c-3.47-5.22-3.37-11.39,0.21-13.76C138.15,63.79,143.87,66.1,147.33,71.32z"/>
			<path style="fill:#FFFFFF;" d="M131.42,64.11c-0.23,1.16-1.87,1.82-3.65,1.47c-1.79-0.35-3.05-1.59-2.82-2.75
				c0.23-1.16,1.87-1.82,3.65-1.47C130.39,61.72,131.65,62.95,131.42,64.11z"/>
		</g>
		<g>
			<g>
				<path style="fill:#263238;" d="M128.08,147.54c6.27,5.94,12.19,12.58,16.97,19.77c2.8,4.21,5.36,8.81,5.56,13.96
					c0.01,0.23,0,0.47,0.02,0.7c0.03,0.29,0.06-1.86-0.01-0.86c-0.03,0.38-0.04,0.77-0.08,1.15c-0.07,0.61-0.17,1.21-0.33,1.81
					c-0.3,1.13-0.81,2.18-1.44,3.17c-1.97,3.08-4.56,5.78-6.83,8.65c-4.65,5.88-9.11,12.08-12.9,18.55
					c-1.54,2.62-2.88,5.4-3.65,8.36c-0.6,2.33-0.67,4.65-0.63,7.04c0.06,4.15,1.71,7.78,4.05,11.14c2.69,3.86,5.88,7.34,8.52,11.24
					c3.25,4.79,5.61,10.08,6.71,15.78c0.34,1.74,0.56,3.5,0.69,5.27c-0.06-0.83,0.06-1.67,0-2.5c-0.48-6.28-2.23-12.33-5.37-17.81
					c-2.48-4.32-5.7-8.09-8.73-12.02c-2.52-3.26-4.94-6.79-5.65-10.93c-0.09-0.55-0.14-1.1-0.19-1.65
					c-0.11-1.31-0.09,1.51-0.01,0.74c0.04-0.35,0.05-0.7,0.08-1.04c0.14-1.23,0.4-2.43,0.76-3.61c0.93-3.1,2.45-6,4.15-8.73
					c3.92-6.3,8.22-12.41,12.86-18.2c2.15-2.68,4.65-5.25,6.41-8.22c1.38-2.34,1.59-4.84,1.6-7.51c0-1.98,0.05-4.03-0.37-5.98
					c-0.53-2.51-1.64-4.88-2.88-7.11c-4.8-8.67-11.8-16.33-18.88-23.21c-0.15-0.15-0.3-0.29-0.46-0.44
					c0.11,0.11-0.01,1.07-0.01,1.25C128.07,146.5,127.93,147.39,128.08,147.54L128.08,147.54z"/>
			</g>
		</g>
	</g>
	<g>
		<g>
			<path style="fill:#8342EA;stroke:#263238;stroke-linecap:round;stroke-linejoin:round;stroke-miterlimit:10;" d="M348.23,65.37
				c0,18.99-15.84,49.03-29.47,49.03c-11.34,0-29.47-30.04-29.47-49.03c0-18.99,13.19-34.38,29.47-34.38
				C335.03,30.99,348.23,46.38,348.23,65.37z"/>
			<polyline style="fill:#263238;stroke:#263238;stroke-linecap:round;stroke-linejoin:round;stroke-miterlimit:10;" points="
				317.92,115.31 318.21,122.19 323.94,120.76 318.76,114.4 			"/>
			<path style="fill:#FFFFFF;" d="M339.79,44.74c3.47,5.22,3.37,11.39-0.21,13.76c-3.58,2.38-9.3,0.07-12.76-5.16
				c-3.47-5.22-3.37-11.39,0.21-13.76C330.61,37.21,336.33,39.52,339.79,44.74z"/>
			<path style="fill:#FFFFFF;" d="M323.88,37.54c-0.23,1.16-1.87,1.82-3.65,1.47c-1.79-0.35-3.05-1.59-2.82-2.75
				c0.23-1.17,1.87-1.82,3.65-1.47C322.85,35.14,324.11,36.37,323.88,37.54z"/>
		</g>
		<g>
			<g>
				<path style="fill:#263238;" d="M320.54,120.96c6.27,5.94,12.19,12.58,16.97,19.78c2.8,4.21,5.36,8.81,5.56,13.96
					c0.01,0.23,0,0.47,0.02,0.7c0.03,0.29,0.06-1.86-0.01-0.86c-0.03,0.38-0.04,0.77-0.08,1.15c-0.07,0.61-0.17,1.21-0.33,1.81
					c-0.3,1.13-0.81,2.18-1.44,3.17c-1.97,3.08-4.56,5.78-6.83,8.65c-4.65,5.88-9.11,12.08-12.9,18.55
					c-1.54,2.62-2.88,5.4-3.65,8.36c-0.6,2.33-0.67,4.65-0.63,7.04c0.06,4.15,1.71,7.78,4.05,11.14c2.69,3.86,5.88,7.34,8.52,11.24
					c3.25,4.79,5.61,10.08,6.71,15.78c0.34,1.74,0.56,3.5,0.69,5.27c-0.06-0.83,0.06-1.67,0-2.5c-0.48-6.28-2.23-12.33-5.37-17.81
					c-2.48-4.32-5.7-8.09-8.73-12.02c-2.52-3.26-4.94-6.79-5.65-10.93c-0.09-0.55-0.14-1.1-0.19-1.65
					c-0.11-1.31-0.09,1.51-0.01,0.74c0.04-0.35,0.05-0.7,0.08-1.04c0.14-1.23,0.4-2.43,0.76-3.61c0.93-3.1,2.45-6,4.15-8.73
					c3.92-6.3,8.22-12.41,12.86-18.2c2.15-2.68,4.65-5.25,6.41-8.22c1.38-2.34,1.59-4.84,1.6-7.51c0.01-1.98,0.05-4.03-0.37-5.98
					c-0.53-2.51-1.64-4.88-2.88-7.11c-4.8-8.67-11.8-16.33-18.88-23.2c-0.15-0.15-0.3-0.29-0.46-0.44c0.11,0.11-0.01,1.07-0.01,1.25
					C320.53,119.92,320.39,120.82,320.54,120.96L320.54,120.96z"/>
			</g>
		</g>
	</g>
</g>
<g id="Character_2">
	<g>
		<path style="fill:#FFFFFF;stroke:#263238;stroke-miterlimit:10;" d="M362.62,275.64c0,0-50.65,22.26-50.88,23.85
			c-0.23,1.59-24.76,86.09-24.76,86.09l42.48,7.5L329,445.31h118.57l0.45-113.35c0,0,52.7-13.86,56.1-16.81
			c3.41-2.95,9.77-12.27,6.59-22.03c-3.18-9.77-14.31-14.54-16.35-14.54c-2.04,0-44.75-1.36-44.75-1.36s-43.38-7.27-44.75-7.27
			C403.5,269.96,362.62,275.64,362.62,275.64z"/>
		<path style="fill:none;stroke:#263238;stroke-miterlimit:10;" d="M469.92,309.5c0,0,3.6,10.64,7.7,13.75"/>
		<path style="fill:none;stroke:#263238;stroke-miterlimit:10;" d="M464.36,301.81c0,0-3.93,17.68-2.95,23.58"/>
		<line style="fill:none;stroke:#263238;stroke-miterlimit:10;" x1="331.74" y1="374.17" x2="332.89" y2="316.05"/>
		<line style="fill:none;stroke:#263238;stroke-miterlimit:10;" x1="332.39" y1="347.81" x2="321.59" y2="310.48"/>
		<g>
			<polygon style="fill:#263238;stroke:#263238;stroke-miterlimit:10;" points="368.98,301.76 389.88,342.19 394.42,342.87 
				416.45,291.31 410.32,289.04 394.42,331.06 388.97,331.06 375.34,301.53 			"/>
			<polygon style="fill:#263238;stroke:#263238;stroke-miterlimit:10;" points="389.88,342.19 392.37,393.52 400.1,404.2 
				405.78,389.21 394.42,342.87 			"/>
			<polygon style="fill:#263238;stroke:#263238;stroke-miterlimit:10;" points="389.88,342.19 380.34,424.64 388.06,439.18 
				395.55,424.87 394.42,342.87 			"/>
		</g>
		<g>
			<path style="fill:#FFFFFF;stroke:#263238;stroke-miterlimit:10;" d="M364.89,269.5c0,0-3.41,0-3.86,2.27
				c-0.45,2.27-6.13,22.71-9.77,26.12c-3.63,3.41-2.5,5.68-0.68,4.54c1.82-1.14,7.72-6.81,9.31-7.95s3.63,3.63,3.86,6.13
				c0.23,2.5,1.59,3.18,6.81,3.18c5.22,0,19.08,5.68,19.08,5.68s14.31-7.04,17.26-9.54c2.95-2.5,0.68-6.81,2.73-7.95
				c2.04-1.14,7.04,4.09,11.13,3.41c4.09-0.68,1.14-2.5-0.45-4.77c-1.59-2.27-7.27-14.76-9.54-19.53c-2.27-4.77-4.54-7.04-7.72-7.27
				C399.87,263.6,364.89,269.5,364.89,269.5z"/>
			<path style="fill:#FFFFFF;stroke:#263238;stroke-miterlimit:10;" d="M363.07,260.19c0,0,1.36,25.67,2.95,30.21
				s21.58,20.67,23.62,19.08c2.04-1.59,16.35-20.67,16.81-23.85c0.45-3.18-0.91-29.07-0.91-29.07s-13.4,6.81-18.4,7.72
				C382.15,265.19,363.07,260.19,363.07,260.19z"/>
			<polygon style="fill:#263238;stroke:#263238;stroke-miterlimit:10;" points="390.6,272.97 364.77,278.69 363.5,262.81 			"/>
		</g>
		<path style="fill:#FFFFFF;stroke:#263238;stroke-miterlimit:10;" d="M467.14,288.54c0,0-4.91,10.64-2.78,13.26
			c2.13,2.62,5.4,12.12,17.03,12.44c11.62,0.33,27.51-5.89,29.96-16.37c2.46-10.48,2.46-14.41-0.33-17.85
			c-2.78-3.44-9.5-9.82-14.08-9.17C492.35,271.52,467.14,288.54,467.14,288.54z"/>
		<path style="fill:#FFFFFF;stroke:#263238;stroke-miterlimit:10;" d="M426.54,204.39c0,0-6.06-8.19-10.31-10.48
			c-4.26-2.29-10.81-6.39-11.95-6.06c-1.15,0.33,4.42,40.11,4.42,40.11s5.08,6.39,8.68,8.35c3.6,1.96,10.48,5.08,10.48,5.08
			s42.9,57.3,45.19,58.94c2.29,1.64,17.68,2.29,22.76-1.15c5.08-3.44,9.82-13.43,7.86-18.99c-1.96-5.57-20.47-16.21-28.82-21.28
			c-8.35-5.08-42.41-34.38-42.41-34.38s-2.62-12.93-2.95-14.24C429.16,208.97,426.54,204.39,426.54,204.39z"/>
		<g>
			<g>
				<path style="fill:#FFFFFF;stroke:#263238;stroke-miterlimit:10;" d="M354.67,228.84c0,0-3.86-2.27-6.13-0.23
					c-2.27,2.04-0.45,10.9,1.14,15.22c1.59,4.32,7.04,2.95,7.04,2.95s4.09,15.22,5.22,15.9c1.14,0.68,15.67,10.22,18.4,11.36
					c2.73,1.14,11.36-0.68,13.17-2.27c1.82-1.59,14.76-12.72,15.45-16.81c0.68-4.09,0.68-12.95,0.68-12.95s6.81-3.18,7.5-7.04
					c0.68-3.86,1.36-12.49-1.14-14.99c-2.5-2.5-5.22-0.45-5.22-0.45l-2.95-12.04l-53.83,15.67L354.67,228.84z"/>
				<path style="fill:#263238;stroke:#263238;stroke-miterlimit:10;" d="M353.99,223.17c0,0,0,15.22,0.91,15.67
					c0.91,0.45,3.63,0,3.86-1.59c0.23-1.59-0.68-15.22-0.68-15.22L353.99,223.17z"/>
				<path style="fill:#263238;stroke:#263238;stroke-miterlimit:10;" d="M403.96,207.95c0,0-2.5,8.4-1.36,9.54
					c1.14,1.14,5.91,4.32,5.91,4.32s-0.68,10.45,1.14,11.13c1.82,0.68,2.95-0.23,2.95-2.73c0-2.5-1.82-10.68-1.82-10.68l-2.95-12.04
					L403.96,207.95z"/>
				<ellipse style="fill:#263238;" cx="393.28" cy="231.23" rx="1.36" ry="2.61"/>
				<ellipse style="fill:#263238;" cx="372.16" cy="233.16" rx="1.36" ry="2.61"/>
				<path style="fill:none;stroke:#263238;stroke-miterlimit:10;" d="M376.93,243.84c0,0,4.77,3.18,6.13,3.18
					c1.36,0,5-2.27,6.13-3.63"/>
				<path style="fill:none;stroke:#263238;stroke-miterlimit:10;" d="M402.37,246.11c0,0-7.95,7.04-17.04,8.63
					c-9.09,1.59-19.76-5.91-19.76-5.91"/>
				<path style="fill:#263238;" d="M364.52,230.89c0,0,6.85-5.51,11.5-3.86l-0.24-3.3c0,0-7.58-2.2-12.48,4.68L364.52,230.89z"/>
				<path style="fill:#263238;" d="M398.19,225.21c0,0-6.85-5.51-11.5-3.86l0.24-3.3c0,0,7.58-2.2,12.48,4.68L398.19,225.21z"/>
			</g>
			<path style="fill:#263238;stroke:#263238;stroke-miterlimit:10;" d="M352.56,202.2c0,0,6.97-10.9,18.81-14.81
				c11.84-3.91,21.95-0.84,23.59,1.04c1.64,1.87,1.64,1.87,1.64,1.87L352.56,202.2z"/>
			<path style="fill:#8342EA;stroke:#263238;stroke-linecap:round;stroke-linejoin:round;stroke-miterlimit:10;" d="M396.42,178.2
				c-0.34,3.4,1.42,5.05,2.52,5.99c1.1,0.95,1.07,1.85,1.28,2.54l-12.61,4.23l-2.01-2.3c0,0,2.35-5.55,1.38-6.59
				c-0.97-1.04-7.34-3.84-7.34-3.84s-4.23,7.06-3.07,8.51c1.16,1.45,5.13,3.02,5.13,3.02l-0.09,3.21l-7.14,2.4l-7.38,1.97
				l-2.15-2.46c0,0,2.35-5.55,1.38-6.59c-0.97-1.04-7.34-3.84-7.34-3.84s-4.23,7.06-3.07,8.51c1.16,1.45,5.13,3.02,5.13,3.02
				l-0.09,2.99l-12.74,3.39c-0.21-0.69-0.74-1.43-0.34-2.83c0.4-1.4,0.96-3.75-1.2-6.39c-2.16-2.65-6.41-1.57-6.41-1.57l10.56,34.38
				l60.21-18.09l-10.14-34.51C400.9,173.35,396.76,174.81,396.42,178.2z"/>
		</g>
		<path style="fill:#FFFFFF;stroke:#263238;stroke-miterlimit:10;" d="M325.19,377.28c0,0-22.76-7.86-26.2-8.02
			c-3.44-0.16-18.66,11.3-21.94,16.37s-3.11,21.45-0.98,24.4c2.13,2.95,19.65,8.51,22.76,7.7c3.11-0.82,27.83-33.4,27.83-33.4
			S327.32,379.9,325.19,377.28z"/>
		<path style="fill:#FFFFFF;stroke:#263238;stroke-miterlimit:10;" d="M338.29,373.03c0,0-29.47,5.57-37.49,7.86
			c-8.02,2.29-15.06,8.35-16.54,13.59c-1.47,5.24-0.82,20.96,9.17,25.21c9.99,4.26,20.47-1.96,24.07-5.24
			c3.6-3.27,26.36-22.27,26.36-22.27s2.13-15.23,0.16-17.36C342.05,372.7,338.29,373.03,338.29,373.03z"/>
		<path style="fill:#FFFFFF;stroke:#263238;stroke-miterlimit:10;" d="M364.98,355.83c0,0,2.46-0.98,4.09-2.78
			c1.64-1.8,4.09-1.15,3.6,2.95c-0.49,4.09-6.22,8.19-6.22,8.19L364.98,355.83z"/>
		<g>
			<path style="fill:#FFFFFF;stroke:#263238;stroke-miterlimit:10;" d="M355.58,384.89L355.58,384.89
				c-6.59,0-11.93-5.34-11.93-11.93l1.79-36.46h20.27l1.79,36.46C367.5,379.55,362.16,384.89,355.58,384.89z"/>
			<path style="fill:#8342EA;stroke:#263238;stroke-linecap:round;stroke-linejoin:round;stroke-miterlimit:10;" d="M345.15,342.42
				l-1.5,30.55c0,6.59,5.34,11.93,11.93,11.93c6.59,0,11.93-5.34,11.93-11.93l-1.5-30.55H345.15z"/>
			<polygon style="fill:#FFFFFF;stroke:#263238;stroke-miterlimit:10;" points="356.94,405.59 356.94,382.85 354.21,382.85 
				354.21,405.59 340.38,410.56 340.38,411.62 355.55,411.62 355.6,411.62 370.77,411.62 370.77,410.56 			"/>
		</g>
		<g>
			<path style="fill:#FFFFFF;stroke:#263238;stroke-miterlimit:10;" d="M336.32,376.63c0,0,0.98-9.01,2.13-12.77
				c1.15-3.77,13.1-4.58,15.39-4.58c2.29,0,3.44,1.8,3.27,3.11c-0.16,1.31-1.31,1.15-3.93,2.29c-2.62,1.15-8.19,3.6-8.19,3.6
				l-0.49,1.47l3.05-1.24c6.4-1.58,17.73-4.32,18.89-4.32c1.64,0,2.46,2.29,2.62,3.11c0.16,0.82-0.98,2.13-0.98,2.13
				s3.11,0.16,3.27,2.46c0.16,2.29-1.31,3.93-1.31,3.93s1.8,2.29,0.82,4.09c-0.98,1.8-13.92,9.99-16.54,11.13
				c-2.62,1.15-8.35,3.6-11.3,3.77c-2.95,0.16-4.91-3.27-5.73-4.58"/>
			<line style="fill:none;stroke:#263238;stroke-miterlimit:10;" x1="368.09" y1="369.42" x2="344.18" y2="377.28"/>
			<line style="fill:none;stroke:#263238;stroke-miterlimit:10;" x1="370.05" y1="375.81" x2="346.31" y2="386.45"/>
			<path style="fill:none;stroke:#263238;stroke-miterlimit:10;" d="M342.71,370.9c0,0-1.31,2.29-0.98,4.09
				c0.33,1.8,0.98,3.77,0.98,3.77s-0.98,3.93-0.33,5.24c0.65,1.31,2.13,2.46,2.13,2.46s0.65,2.46,3.44,3.27"/>
			<path style="fill:none;stroke:#263238;stroke-miterlimit:10;" d="M338.45,363.86c0,0-0.49,3.6,1.47,6.55"/>
		</g>
		<path style="fill:#FFFFFF;stroke:#263238;stroke-miterlimit:10;" d="M438.49,233.86c0,0-3.27-21.61-4.58-24.23
			c-1.31-2.62-13.26-9.5-17.85-12.12c-4.58-2.62-4.42,2.46-2.78,5.4c1.64,2.95,12.12,8.02,12.12,8.02s-3.27,14.9-1.47,19.32
			c1.8,4.42,7.2,6.71,7.86,6.71"/>
	</g>
</g>
<g id="Character_3">
	<g>
		<polygon style="fill:#FFFFFF;stroke:#263238;stroke-miterlimit:10;" points="529.04,445.31 532.62,415.43 503.56,411.54 
			501.64,445.31 		"/>
		<path style="fill:#FFFFFF;stroke:#263238;stroke-miterlimit:10;" d="M500.79,302.2l2.27,71.82l-1.36,32.27l27.73,3.41l3.18-30
			c0,0-22.27-74.1-23.18-75.46C508.52,302.88,500.79,302.2,500.79,302.2z"/>
		<path style="fill:#FFFFFF;stroke:#263238;stroke-miterlimit:10;" d="M499.33,395.12c0,0,0,19.9,0.75,19.9
			c0.75,0,29.85,3.48,29.85,3.48v-19.4L499.33,395.12z"/>
		<path style="fill:#FFFFFF;stroke:#263238;stroke-miterlimit:10;" d="M524.43,386.75c0.43,1.07,4.1,52.77,4.51,58.56h106.57
			l-7.88-59.92c0,0-3.18-67.96-6.36-79.1c-3.18-11.14-14.55-24.55-22.96-26.82c-8.41-2.27-37.28-7.96-37.28-7.96l-35.68,8.41
			c0,0-23.18,19.32-24.55,22.27c-1.36,2.95,2.05,24.09,6.59,37.73C511.93,353.57,523.98,385.62,524.43,386.75z"/>
		<polygon style="fill:#263238;stroke:#263238;stroke-miterlimit:10;" points="525.87,297.03 535.54,315.16 533.12,424.39 
			541.18,438.09 552.47,421.57 541.18,313.96 548.44,298.24 530.71,282.92 		"/>
		<polygon style="fill:#FFFFFF;stroke:#263238;stroke-miterlimit:10;" points="518.75,293.57 519.43,309.02 528.52,299.48 		"/>
		<polygon style="fill:#FFFFFF;stroke:#263238;stroke-miterlimit:10;" points="536.71,305.84 518.75,293.57 525.34,279.93 		"/>
		<g>
			<path style="fill:#FFFFFF;stroke:#263238;stroke-miterlimit:10;" d="M499.43,212.42c0,0-7.73,18.86-6.36,20.91
				c1.36,2.05,2.95,6.59,2.95,6.59s-7.73,10.46-6.59,12.27c1.14,1.82,7.96,4.32,7.96,4.32s6.59,25.68,10,26.59
				c3.41,0.91,9.32-2.73,9.32-2.73l20,25.46l6.36-18.18l11.36-23.64l-3.18-6.59l-0.68-7.5c0,0,7.27-7.5,7.73-18.41
				c0.45-10.91-7.46-29.3-8.6-30.89c-1.14-1.59-23-4.8-31.63-6.84c-8.64-2.05-11.36-1.14-11.82,1.14c-0.45,2.27-2.05-6.59-5.45-4.09
				c-3.41,2.5-4.32,7.5-3.41,8.86c0.91,1.36-8.41-2.95-8.41,0.91C488.98,204.47,493.52,211.74,499.43,212.42z"/>
			<path style="fill:#263238;stroke:#263238;stroke-miterlimit:10;" d="M537.84,266.52c2.5-4.77-0.91-31.37,0.23-33.41
				c1.14-2.05,6.59-5,10.46-1.36c3.86,3.64,2.95,10.68,0.45,14.09c-2.5,3.41-4.55,5.23-4.55,5.23l6.4-1.42
				c1.28-1.43,7.06-8.42,7.47-18.13c0.45-10.91-7.46-29.3-8.6-30.89c-1.14-1.59-23-4.8-31.63-6.84c-8.64-2.05-11.36-1.14-11.82,1.14
				c-0.45,2.27-2.05-6.59-5.45-4.09c-3.41,2.5-4.32,7.5-3.41,8.86c0.91,1.36-8.41-2.95-8.41,0.91c0,3.86,4.55,11.14,10.46,11.82
				c0,0,20-1.36,20.68,1.36c0.68,2.73-5.23,8.64-3.64,10.91c1.59,2.27,13.64,8.64,13.64,8.64l0.68,18.64c0,0-0.23,1.59-3.41,0.45
				c-3.18-1.14-11.82-7.73-16.59-5.45c-4.77,2.27-13.41,9.55-13.41,9.55s6.59,25.68,10,26.59c3.41,0.91,9.32-2.73,9.32-2.73
				S535.34,271.29,537.84,266.52z"/>
			<ellipse style="fill:#263238;" cx="503.41" cy="239.36" rx="1.02" ry="2.61"/>
			<path style="fill:none;stroke:#263238;stroke-miterlimit:10;" d="M498.29,234.47c0,0,2.5-5.68,8.18-2.73"/>
			<path style="fill:#FFFFFF;stroke:#263238;stroke-miterlimit:10;" d="M503.98,259.25l6.82-7.05c0,0,2.95,9.32,0.23,11.82
				C508.3,266.52,503.98,259.25,503.98,259.25z"/>
		</g>
		<polygon style="fill:#FFFFFF;stroke:#263238;stroke-miterlimit:10;" points="536.93,295.16 536.71,305.84 544.43,296.29 		"/>
		<polygon style="fill:#FFFFFF;stroke:#263238;stroke-miterlimit:10;" points="553.53,261.29 536.93,295.16 552.62,308.34 
			564.66,270.16 		"/>
		<g>
			<path style="fill:#FFFFFF;stroke:#263238;stroke-miterlimit:10;" d="M545.82,388.69L545.82,388.69
				c-6.57,0.5-12.3-4.42-12.79-10.99l-0.98-36.49l20.21-1.54l4.55,36.22C557.31,382.46,552.39,388.19,545.82,388.69z"/>
			<path style="fill:#8342EA;stroke:#263238;stroke-linecap:round;stroke-linejoin:round;stroke-miterlimit:10;" d="M532.21,347.12
				l0.82,30.58c0.5,6.57,6.23,11.49,12.79,10.99c6.57-0.5,11.49-6.23,10.99-12.79L553,345.54L532.21,347.12z"/>
			<polygon style="fill:#FFFFFF;stroke:#263238;stroke-miterlimit:10;" points="548.75,409.22 547.03,386.54 544.31,386.75 
				546.03,409.43 532.62,415.43 532.7,416.49 547.82,415.34 547.88,415.33 563,414.18 562.92,413.13 			"/>
		</g>
		<g>
			<path style="fill:#FFFFFF;stroke:#263238;stroke-miterlimit:10;" d="M612.85,367.43l-30.46,18.41c0,0-10.23-7.05-15.46-14.09
				c-5.23-7.05-13.18-11.36-14.77-10.91s-19.32,5-20.23,7.27c-0.91,2.27-2.73,6.14-0.23,7.5c2.5,1.36,6.36-4.55,6.36-4.55
				s9.55-1.36,10.46-1.59c0.91-0.23-8.64,4.09-9.55,5.91c-0.91,1.82-9.55,9.77-8.86,12.73c0.68,2.95,2.73,2.27,2.73,2.27
				s0.91,4.55,4.09,3.64c3.18-0.91,8.18-5.91,9.09-6.59c0.91-0.68,10.46-0.68,11.59-0.91c1.14-0.23-9.09,3.18-10.23,4.55
				c-1.14,1.36-5.23,6.82-4.55,7.95c0.68,1.14,5.23-0.68,6.59-1.59c1.36-0.91,6.36-3.18,6.36-3.18l9.32,1.36
				c0,0,7.73,5.68,11.59,5.91c3.86,0.23,7.05-0.23,7.96-0.23c0.91,0,24.55-7.05,26.82-7.96c2.27-0.91,22.05-7.5,22.05-7.5
				L612.85,367.43z"/>
			<path style="fill:none;stroke:#263238;stroke-miterlimit:10;" d="M556.03,376.07c0,0-10.68,1.36-12.5,3.18
				s-10.68,11.14-10.68,11.14"/>
			<line style="fill:none;stroke:#263238;stroke-miterlimit:10;" x1="548.52" y1="369.48" x2="552.62" y2="367.66"/>
		</g>
		<path style="fill:#FFFFFF;stroke:#263238;stroke-miterlimit:10;" d="M579.44,326.3c0,0,5.91,12.5,12.27,17.5
			c6.36,5,26.59,17.05,26.59,17.05l29.55,15.46c0,0,18.86-18.64,20-21.59c1.14-2.95-4.55-8.18-7.73-10.91
			c-3.18-2.73-34.09-42.05-44.09-49.32c-10-7.27-14.55-12.05-22.5-11.82"/>
		<g>
			<path style="fill:none;stroke:#263238;stroke-miterlimit:10;" d="M626.03,351.3c0,0,15.91-6.36,16.59-6.59"/>
			<path style="fill:none;stroke:#263238;stroke-miterlimit:10;" d="M640.12,332.89c0,0-15.91,16.36-16.59,17.96"/>
			<line style="fill:none;stroke:#263238;stroke-miterlimit:10;" x1="631.26" y1="318.79" x2="621.26" y2="353.8"/>
		</g>
		<path style="fill:#FFFFFF;stroke:#263238;stroke-miterlimit:10;" d="M621.26,353.8c0,0-13.64,11.59-11.36,14.77
			c2.27,3.18,22.96,22.27,24.09,22.05c1.14-0.23,16.59-12.05,16.82-14.32c0.23-2.27-23.41-24.09-24.77-25
			C624.67,350.39,621.26,353.8,621.26,353.8z"/>
	</g>
</g>
<g id="Character_1">
	<g>
		<g>
			<path style="fill:#FFFFFF;stroke:#263238;stroke-miterlimit:10;" d="M185.87,262.96c0,0-61.99,21.68-62.64,25.25
				c-0.65,3.57,0.34,68.2,0.01,88.96s-1.3,68.13-1.3,68.13h112.59l4.54-70.73c0,0,9.41,21.42,12.01,24.01s27.26-22.06,27.26-22.06
				l-9.09-45.1c0,0-3.89-38.94-4.54-41.21c-0.65-2.27-26.28-15.57-42.18-22.39C206.64,261.02,188.14,262.64,185.87,262.96z"/>
			<path style="fill:#263238;stroke:#263238;stroke-miterlimit:10;" d="M188.12,302.18l8.46,17.33L185.7,419.87l14.51,16.93
				l9.27-19.75l-4.84-97.94c0,0,11.69-13.3,12.09-14.51c0.4-1.21,0-14.91,0-14.91l-21.76-1.61L188.12,302.18z"/>
			<g>
				<polyline style="fill:none;stroke:#263238;stroke-miterlimit:10;" points="252.13,312.58 239.08,374.59 253.23,347.27 				"/>
				<path style="fill:none;stroke:#263238;stroke-miterlimit:10;" d="M249.04,364.73c0,0,8.84-9.94,21.66-5.75"/>
			</g>
		</g>
		<g>
			<path style="fill:#FFFFFF;stroke:#263238;stroke-miterlimit:10;" d="M278.87,362.08c0,0-6.85-3.98-9.72-3.09
				s-18.78,10.83-21.22,17.46c-2.43,6.63-0.66,18.34,0.66,23.65c1.33,5.3,13.04,9.5,18.34,8.18c5.3-1.33,13.04-5.97,14.14-9.28
				C282.18,395.67,285.94,370.92,278.87,362.08z"/>
			<g>
				<path style="fill:#FFFFFF;stroke:#263238;stroke-miterlimit:10;" d="M314.19,337.95c0,0,3.54-13.45,4.48-15.34
					c0.94-1.89,9.44-6.37,10.85-7.79c1.42-1.42,5.9-5.9,7.55-8.49c1.65-2.6,3.77-4.48,4.48-2.12c0.71,2.36-2.77,11.46-2.77,11.46
					l11.8-3.77c0,0,8.43-12.16,10.56-9.8c2.12,2.36-4.25,26.42-5.9,31.14c-1.65,4.72-12.74,7.55-18.17,9.2
					c-5.43,1.65-13.92,5.9-13.92,5.9s-25.72,30.67-28.78,36.8c-3.07,6.13-21.23,16.51-25.95,17.69c-4.72,1.18-10.85,0.94-13.45-7.79
					s0.94-18.87,10.38-25.72C274.79,362.49,314.19,337.95,314.19,337.95z"/>
				<path style="fill:none;stroke:#263238;stroke-miterlimit:10;" d="M357.32,325.39c0,0,2.87-13.26-0.88-11.49
					c-3.76,1.77-5.08,16.35-5.08,16.35s-12.38-0.44-15.03-0.44c-2.65,0-11.27,1.1-13.7,4.42c-2.43,3.31-2.65,5.52-2.65,5.52"/>
				<line style="fill:none;stroke:#263238;stroke-miterlimit:10;" x1="338.78" y1="315.67" x2="332.57" y2="319.65"/>
			</g>
		</g>
		<g>
			<path style="fill:#FFFFFF;stroke:#263238;stroke-miterlimit:10;" d="M280.25,332.65L280.25,332.65
				c-6.4,0.49-11.98-4.3-12.46-10.7l-0.96-35.54l19.69-1.5l4.43,35.27C291.44,326.58,286.65,332.16,280.25,332.65z"/>
			<path style="fill:#8342EA;stroke:#263238;stroke-linecap:round;stroke-linejoin:round;stroke-miterlimit:10;" d="M266.99,292.17
				l0.8,29.78c0.49,6.4,6.07,11.19,12.46,10.7c6.4-0.49,11.19-6.07,10.7-12.46l-3.71-29.56L266.99,292.17z"/>
			<polygon style="fill:#FFFFFF;stroke:#263238;stroke-miterlimit:10;" points="283.1,352.65 281.42,330.56 278.78,330.77 
				280.46,352.85 267.39,358.7 267.47,359.73 282.2,358.61 282.25,358.6 296.98,357.48 296.9,356.46 			"/>
		</g>
		<g>
			<g>
				<path style="fill:#FFFFFF;stroke:#263238;stroke-miterlimit:10;" d="M155.56,275.67c0,0-32.37,6.31-34.58,11.83
					c-2.21,5.52,6.29,75.24,8.5,88.72c2.21,13.48,3.98,29.83,12.82,31.16c8.84,1.33,28.51-12.6,28.51-12.6l-2.65-41.77
					c0,0,1.1-26.74-0.44-35.14c-1.55-8.4-11.93-17.46-11.93-17.46"/>
				<path style="fill:none;stroke:#263238;stroke-miterlimit:10;" d="M151.36,358.76c0,0-9.72,7.29-13.26,20.55"/>
				<path style="fill:none;stroke:#263238;stroke-miterlimit:10;" d="M153.57,358.54c0,0-9.5,1.77-14.59,7.51"/>
				<path style="fill:none;stroke:#263238;stroke-miterlimit:10;" d="M139.2,300.86c0,0,11.49,1.55,18.12,7.29"/>
			</g>
			<path style="fill:#FFFFFF;stroke:#263238;stroke-miterlimit:10;" d="M176.55,353.46c0,0,0.66-2.87-2.43-3.31
				c-3.09-0.44-17.02,2.21-18.78,3.09c-1.77,0.88-7.07,10.39-8.18,22.76c-1.1,12.38,11.49,28.51,12.82,28.51
				c1.33,0,17.68-5.3,19.01-7.29c1.33-1.99,1.99-16.57,2.43-17.46C181.85,378.87,176.55,353.46,176.55,353.46z"/>
			<g>
				<path style="fill:#FFFFFF;stroke:#263238;stroke-miterlimit:10;" d="M251.69,329.37c0,0,10.17-22.76,10.83-24.31
					c0.66-1.55,11.05-7.51,11.71-7.51s15.47,3.09,16.8,3.54c1.33,0.44,2.87,1.99,2.87,3.98c0,1.99-1.1,2.65-2.43,2.21
					c-1.33-0.44-4.64-2.43-5.3-2.43c-0.66,0-9.72,0-9.72,0l-1.99,2.65c0,0,5.97,0,7.51,0.44c1.55,0.44,10.39,3.54,12.38,4.2
					c1.99,0.66,2.87,2.65,2.87,3.98c0,1.33,0,1.33,0,1.33s0.22,2.43-0.66,4.2c-0.88,1.77-5.3,3.31-5.3,3.31s-4.2,2.87-7.07,5.3
					s-13.7,7.29-13.7,7.29s0,4.42-5.97,6.41c-5.97,1.99-14.36,2.65-14.36,2.65s-72.71,40.44-75.14,41.77
					c-2.43,1.33-7.07-5.75-7.73-17.02c-0.66-11.27,2.21-16.57,2.21-16.57L251.69,329.37z"/>
				<path style="fill:none;stroke:#263238;stroke-miterlimit:10;" d="M297.21,317.44c0,0-16.8-1.77-17.68-1.77
					c-0.88,0-10.83,2.87-10.83,2.87"/>
				<line style="fill:none;stroke:#263238;stroke-miterlimit:10;" x1="274.45" y1="307.49" x2="268.48" y2="309.26"/>
				<polyline style="fill:none;stroke:#263238;stroke-miterlimit:10;" points="291.24,324.95 279.75,325.83 268.92,328.93 				"/>
			</g>
		</g>
		<g>
			<path style="fill:#FFFFFF;stroke:#263238;stroke-miterlimit:10;" d="M194.3,254.2c0,0-6.49-0.65-9.09,2.6
				c-2.6,3.24-5.19,8.44-5.19,8.44s-4.87,52.24-1.62,48.35c3.24-3.89,12.65-13.63,12.65-13.63s-0.32,4.87,1.3,5.84
				c1.62,0.97,8.11,0.97,8.11,0.97s9.09,0.65,11.03-1.95c1.95-2.6,2.92-5.19,2.92-5.19s7.14,19.79,8.11,15.25
				c0.97-4.54,4.54-31.47,5.52-41.86C229.02,262.64,203.39,251.61,194.3,254.2z"/>
			<path style="fill:#FFFFFF;stroke:#263238;stroke-miterlimit:10;" d="M262.45,206.83c0,0,1.62,13.95,1.3,17.2
				c-0.32,3.24-2.92,9.73-2.27,11.36c0.65,1.62,6.49,8.11,4.54,10.38c-1.95,2.27-5.52,4.54-5.52,4.54s-6.17,15.25-7.79,18.17
				c-1.62,2.92-6.81,3.57-11.03,2.92c-4.22-0.65-11.03-1.95-11.03-1.95s-3.89,5.19-9.09,12.65c-5.19,7.46-20.44,23.69-21.09,24.66
				c-0.65,0.97-8.44-19.14-7.79-28.55c0.65-9.41,0.65-32.77,0.65-32.77s0.65-18.17,11.68-32.12c11.03-13.95,44.45-19.47,48.35-17.52
				C257.25,197.74,262.45,206.83,262.45,206.83z"/>
			<path style="fill:none;stroke:#263238;stroke-miterlimit:10;" d="M255.25,252.35l-10.49-5.79c0,0-1.81,11.93,1.08,11.93
				C248.74,258.5,255.25,252.35,255.25,252.35z"/>
			<polygon style="fill:#263238;stroke:#263238;stroke-miterlimit:10;" points="230.65,269.45 221.33,264.46 222.82,279.26 			"/>
			<path style="fill:none;stroke:#263238;stroke-miterlimit:10;" d="M213.34,240.17c0,0,1.18,11.25,2.67,13.33"/>
			<path style="fill:none;stroke:#263238;stroke-miterlimit:10;" d="M259.85,223.38c0,0-6.81-4.54-12.65,2.27"/>
			<path style="fill:#263238;" d="M257.25,231.17c0,1.61-0.81,2.92-1.81,2.92c-1,0-1.81-1.31-1.81-2.92c0-1.61,0.81-2.92,1.81-2.92
				C256.44,228.25,257.25,229.55,257.25,231.17z"/>
			<path style="fill:#263238;stroke:#263238;stroke-miterlimit:10;" d="M217.99,225l4.54,1.62l0.32-4.87c0,0,1.3,1.95,2.6,2.6
				c1.3,0.65,8.76,3.24,8.76,3.24s-3.57-6.81-3.57-8.11c0-1.3,4.54-5.84,6.49-8.76s7.79-4.87,7.79-4.87l-1.95,10.06l6.49-5.84
				l0.32,4.87c0,0,1.62-0.32,8.11-2.6c6.49-2.27,10.06-8.11,10.38-14.6c0.32-6.49-3.24-10.71-3.57-12.01
				c-0.32-1.3-17.2-9.09-27.91-9.09s-24.99,3.57-32.12,7.14c-7.14,3.57-14.28,10.71-15.25,15.9c-0.97,5.19,0.65,13.95-0.97,19.14
				c-1.62,5.19-8.44,8.11-6.17,17.85c2.27,9.73,19.14,17.52,20.44,17.52c1.3,0,0.32-7.14,0.32-7.14s2.27,1.62,3.89,1.62
				s4.22,0,4.22,0l-2.78-4.86l-1.12-1.96c0,0,1.3-3.24,3.24-8.44C212.48,228.25,217.99,225,217.99,225z"/>
			<path style="fill:#FFFFFF;stroke:#263238;stroke-miterlimit:10;" d="M221.24,229.54c0,0-5.52-13.63-11.68-8.44
				c-6.17,5.19-3.24,12.98-0.97,16.55c2.27,3.57,6.81,4.22,6.81,4.22"/>
		</g>
	</g>
</g>
<g id="Bottle">
	<g>
		<g>
			<path style="fill:#263238;stroke:#263238;stroke-miterlimit:10;" d="M474.8,377.29c-3-8.33-16.4-28.31-19.56-34.3
				c-3.16-5.99-11.46-30.55-11.46-30.55l-2.61,0.66l-0.03-0.12l-1.95,0.62l-1.98,0.5l0.03,0.12l-2.57,0.81
				c0,0,5.88,25.25,6.34,32.01c0.46,6.76-0.42,30.8,1.42,39.46c1.47,6.95,9.92,35.56,13.2,46.6c0.81,2.71,2.97,4.8,5.71,5.51
				c1.39,0.36,2.85,0.34,4.23-0.05l6.52-1.85l3.93-1.12l6.52-1.85c1.38-0.39,2.63-1.15,3.62-2.18c1.96-2.04,2.7-4.96,1.96-7.7
				C485.09,412.74,477.2,383.97,474.8,377.29z"/>
			<path style="fill:#263238;stroke:#263238;stroke-miterlimit:10;" d="M443.48,312.53l-8.5,2.42c-1.12,0.32-2.29-0.33-2.6-1.45l0,0
				c-0.32-1.12,0.33-2.29,1.45-2.6l8.5-2.42c1.12-0.32,2.29,0.33,2.6,1.45l0,0C445.24,311.04,444.6,312.21,443.48,312.53z"/>
			
				<rect x="432.36" y="306.54" transform="matrix(0.9618 -0.2736 0.2736 0.9618 -67.5578 131.4739)" style="fill:#8342EA;stroke:#263238;stroke-linecap:round;stroke-linejoin:round;stroke-miterlimit:10;" width="10.44" height="2.81"/>
			
				<rect x="451.14" y="400.45" transform="matrix(0.9618 -0.2736 0.2736 0.9618 -95.6162 143.8732)" style="fill:#FFFFFF;stroke:#263238;stroke-miterlimit:10;" width="33.7" height="28.56"/>
			<path style="fill:#8342EA;stroke:#263238;stroke-linecap:round;stroke-linejoin:round;stroke-miterlimit:10;" d="M460.24,351.38
				c-2.21-3.58-4.06-6.61-5-8.39c-3.16-5.99-11.46-30.55-11.46-30.55l-2.61,0.66l-0.03-0.12l-1.95,0.62l-1.98,0.5l0.03,0.12
				l-2.57,0.81c0,0,5.88,25.25,6.34,32.01c0.14,2.01,0.16,5.55,0.16,9.76L460.24,351.38z"/>
		</g>
		<g>
			<polygon style="fill:#A6A6A6;stroke:#263238;stroke-miterlimit:10;" points="488.68,445.31 444.03,445.31 434.46,374.1 
				498.25,374.1 			"/>
			<polygon style="fill:#263238;" points="438.58,377.72 447.49,444.61 450.85,444.61 441.94,379.61 			"/>
			<polygon style="fill:#FFFFFF;" points="441.52,377.72 450.43,444.61 453.78,444.61 444.87,379.61 			"/>
			<polygon style="fill:#FFFFFF;stroke:#263238;stroke-miterlimit:10;" points="434.46,374.1 466.36,409.71 498.25,374.1 			"/>
			<path style="fill:#A6A6A6;stroke:#263238;stroke-miterlimit:10;" d="M505.03,388.58c0,2.35-1.9,4.25-4.25,4.25
				c-2.35,0-4.25-1.9-4.25-4.25c0-2.35,1.9-4.25,4.25-4.25C503.12,384.33,505.03,386.23,505.03,388.58z"/>
			<path style="fill:#A6A6A6;stroke:#263238;stroke-miterlimit:10;" d="M436.01,388.58c0,2.35-1.9,4.25-4.25,4.25
				c-2.35,0-4.25-1.9-4.25-4.25c0-2.35,1.9-4.25,4.25-4.25C434.1,384.33,436.01,386.23,436.01,388.58z"/>
		</g>
	</g>
</g>
<g id="Table">
	<line style="fill:none;stroke:#263238;stroke-miterlimit:10;" x1="49.95" y1="445.31" x2="703.86" y2="445.31"/>
</g>
</svg>
