<?xml version="1.0" encoding="utf-8"?>
<!-- Generator: Adobe Illustrator 25.2.0, SVG Export Plug-In . SVG Version: 6.00 Build 0)  -->
<svg version="1.1" xmlns="http://www.w3.org/2000/svg" xmlns:xlink="http://www.w3.org/1999/xlink" x="0px" y="0px"
	 viewBox="0 0 500 500" style="enable-background:new 0 0 500 500;" xml:space="preserve">
<g id="Background_Simple">
	<g>
		<path style="fill:#D0BBF9;" d="M265.69,15.36c-22.48-2.18-45.25-2.18-66.98,4.69c-40.06,12.66-60.42,46.59-72.75,84.45
			c-0.31,0.95-0.62,1.91-0.92,2.86c-14.65,45.9-100.6,72.27-89.85,143.57c10.74,71.3,63.2,59.78,69.34,110.36
			c6.14,50.58,80.28,77.14,152.36,72.27c72.08-4.87,69.34-63.48,110.36-89.85c41.02-26.37,117.2-38.09,99.62-130.87
			c-11.51-60.75-41.4-120.77-89.86-161.15c-25.72-21.43-58.93-29.48-91.38-33.94C279.03,16.84,272.38,16,265.69,15.36z"/>
		<path style="opacity:0.7;fill:#FFFFFF;" d="M265.69,15.36c-22.48-2.18-45.25-2.18-66.98,4.69
			c-40.06,12.66-60.42,46.59-72.75,84.45c-0.31,0.95-0.62,1.91-0.92,2.86c-14.65,45.9-100.6,72.27-89.85,143.57
			c10.74,71.3,63.2,59.78,69.34,110.36c6.14,50.58,80.28,77.14,152.36,72.27c72.08-4.87,69.34-63.48,110.36-89.85
			c41.02-26.37,117.2-38.09,99.62-130.87c-11.51-60.75-41.4-120.77-89.86-161.15c-25.72-21.43-58.93-29.48-91.38-33.94
			C279.03,16.84,272.38,16,265.69,15.36z"/>
	</g>
</g>
<g id="Clouds">
	<g>
		<path style="fill:none;stroke:#B2B2B2;stroke-linecap:round;stroke-linejoin:round;stroke-miterlimit:10;" d="M154.77,70.21
			c-0.23-0.7-0.46-1.41-0.72-2.12c-9.4-26.14-53.12-27.94-53.13,4.18c0,6.19-14.85,0-20.42,8.04c-5.57,8.04,0.62,12.99-6.81,15.47
			c-7.42,2.47-8.04-3.71-17.32-3.09c-9.28,0.62-8.04,9.28-11.14,11.75c-3.09,2.47-3.09,1.24-9.9,1.86
			c-6.81,0.62-8.04,5.57-8.04,5.57h162.71c0,0,6.19-18.56-4.95-25.36c-11.14-6.81-11.14,2.47-19.8-1.24
			C158.11,82.2,156.77,76.38,154.77,70.21z"/>
		<path style="fill:none;stroke:#B2B2B2;stroke-linecap:round;stroke-linejoin:round;stroke-miterlimit:10;" d="M160.4,105.1
			c0,0,3.37-10.42-4.9-18.08c-8.27-7.66-16.85-3.37-19.3,0c-2.45,3.37-2.45,9.81-6.43,10.42c-3.98,0.61-3.06-6.74-11.64-4.9
			c-8.58,1.84-5.21,10.42-9.19,12.26c-3.98,1.84-3.98-4.9-9.5-2.76c-5.52,2.14-5.21,6.13-5.21,6.13"/>
		<path style="fill:none;stroke:#B2B2B2;stroke-linecap:round;stroke-linejoin:round;stroke-miterlimit:10;" d="M116.39,84.29
			c0,0-6.82-5.46-15.69-1.36c-8.87,4.09-4.78,12.62-8.87,14.67c-4.09,2.05-6.14-0.34-11.26,2.05c-5.12,2.39-4.78,5.8-4.78,5.8"/>
	</g>
	<g>
		<path style="fill:none;stroke:#B2B2B2;stroke-linecap:round;stroke-linejoin:round;stroke-miterlimit:10;" d="M436.75,156.05
			c-0.14-0.43-0.29-0.87-0.44-1.31c-5.81-16.17-32.86-17.28-32.86,2.59c0,3.83-9.18,0-12.63,4.97c-3.44,4.97,0.38,8.04-4.21,9.57
			c-4.59,1.53-4.97-2.3-10.72-1.91c-5.74,0.38-4.97,5.74-6.89,7.27c-1.91,1.53-1.91,0.77-6.12,1.15c-4.21,0.38-4.97,3.44-4.97,3.44
			h100.65c0,0,3.83-11.48-3.06-15.69c-6.89-4.21-6.89,1.53-12.25-0.77C438.81,163.47,437.99,159.87,436.75,156.05z"/>
		<path style="fill:none;stroke:#B2B2B2;stroke-linecap:round;stroke-linejoin:round;stroke-miterlimit:10;" d="M440.23,177.64
			c0,0,2.08-6.44-3.03-11.18c-5.12-4.74-10.42-2.09-11.94,0c-1.52,2.08-1.52,6.06-3.98,6.44c-2.46,0.38-1.9-4.17-7.2-3.03
			c-5.31,1.14-3.22,6.44-5.69,7.58c-2.46,1.14-2.46-3.03-5.88-1.71s-3.22,3.79-3.22,3.79"/>
		<path style="fill:none;stroke:#B2B2B2;stroke-linecap:round;stroke-linejoin:round;stroke-miterlimit:10;" d="M413.01,164.76
			c0,0-4.22-3.38-9.71-0.84c-5.49,2.53-2.95,7.81-5.49,9.07c-2.53,1.27-3.8-0.21-6.96,1.27c-3.17,1.48-2.95,3.59-2.95,3.59"/>
	</g>
</g>
<g id="Sun">
	<g>
		<path style="fill:none;stroke:#B2B2B2;stroke-linecap:round;stroke-linejoin:round;stroke-miterlimit:10;" d="M433.32,61.52
			c0.65-0.05,1.3-0.08,1.96-0.08c13.27,0,24.02,10.76,24.02,24.02c0,6.87-2.88,13.07-7.51,17.44"/>
		<path style="fill:none;stroke:#B2B2B2;stroke-linecap:round;stroke-linejoin:round;stroke-miterlimit:10;" d="M425.91,63.33
			c1.27-0.54,2.6-0.97,3.98-1.29"/>
		<path style="fill:none;stroke:#B2B2B2;stroke-linecap:round;stroke-linejoin:round;stroke-miterlimit:10;" d="M449.57,104.78
			c-3.99,2.96-8.94,4.71-14.29,4.71c-13.27,0-24.02-10.76-24.02-24.02c0-8.17,4.08-15.39,10.31-19.73"/>
		
			<line style="fill:none;stroke:#B2B2B2;stroke-linecap:round;stroke-linejoin:round;stroke-miterlimit:10;" x1="435.27" y1="41.71" x2="435.27" y2="56.29"/>
		
			<line style="fill:none;stroke:#B2B2B2;stroke-linecap:round;stroke-linejoin:round;stroke-miterlimit:10;" x1="435.27" y1="128.16" x2="435.27" y2="130.94"/>
		
			<line style="fill:none;stroke:#B2B2B2;stroke-linecap:round;stroke-linejoin:round;stroke-miterlimit:10;" x1="435.27" y1="116.35" x2="435.27" y2="126.09"/>
		
			<line style="fill:none;stroke:#B2B2B2;stroke-linecap:round;stroke-linejoin:round;stroke-miterlimit:10;" x1="466.82" y1="117.87" x2="456.51" y2="107.56"/>
		
			<line style="fill:none;stroke:#B2B2B2;stroke-linecap:round;stroke-linejoin:round;stroke-miterlimit:10;" x1="408.58" y1="59.63" x2="403.73" y2="54.78"/>
		
			<line style="fill:none;stroke:#B2B2B2;stroke-linecap:round;stroke-linejoin:round;stroke-miterlimit:10;" x1="414.04" y1="65.09" x2="409.96" y2="61.01"/>
		
			<line style="fill:none;stroke:#B2B2B2;stroke-linecap:round;stroke-linejoin:round;stroke-miterlimit:10;" x1="476.58" y1="86.32" x2="465.3" y2="86.32"/>
		
			<line style="fill:none;stroke:#B2B2B2;stroke-linecap:round;stroke-linejoin:round;stroke-miterlimit:10;" x1="479.89" y1="86.32" x2="477.96" y2="86.32"/>
		
			<line style="fill:none;stroke:#B2B2B2;stroke-linecap:round;stroke-linejoin:round;stroke-miterlimit:10;" x1="401.42" y1="86.32" x2="390.66" y2="86.32"/>
		
			<line style="fill:none;stroke:#B2B2B2;stroke-linecap:round;stroke-linejoin:round;stroke-miterlimit:10;" x1="405.24" y1="86.32" x2="403.72" y2="86.32"/>
		
			<line style="fill:none;stroke:#B2B2B2;stroke-linecap:round;stroke-linejoin:round;stroke-miterlimit:10;" x1="466.82" y1="54.78" x2="456.51" y2="65.09"/>
		
			<line style="fill:none;stroke:#B2B2B2;stroke-linecap:round;stroke-linejoin:round;stroke-miterlimit:10;" x1="414.04" y1="107.56" x2="403.73" y2="117.87"/>
	</g>
</g>
<g id="Mountain">
	<g>
		<path style="fill:none;stroke:#263238;stroke-miterlimit:10;" d="M75.58,407.2c-17.61,23.77-33.94,47.13-33.94,47.13"/>
		<path style="fill:none;stroke:#263238;stroke-miterlimit:10;" d="M408.25,372.45c-16.2-22.81-31.31-41.54-37.42-41.84
			c-15.75-0.77-49.88,29.32-49.88,29.32s-43.75-64.04-57.75-68.67c-14-4.63-101.51,91.05-101.51,91.05s-34.13-28.55-44.63-24.69
			c-4.59,1.68-19.55,20.34-34.95,40.82"/>
		<path style="fill:none;stroke:#263238;stroke-miterlimit:10;" d="M415.98,383.51c-1.6-2.32-3.19-4.62-4.79-6.89"/>
		<path style="fill:none;stroke:#263238;stroke-miterlimit:10;" d="M462.03,454.5c0,0-20.33-33.17-42.08-65.18"/>
	</g>
</g>
<g id="Plants">
	<g>
		<path style="fill:#263238;" d="M320.69,414.4c1.27,0.56,4.38,0.49,4.38,0.49c0.03,0-0.67-2.04-0.73-2.16
			c-0.68-1.43-2.84-3.78-4.59-3.55c-1.26,0.17-1.97,1.44-1.68,2.63C318.36,413.03,319.6,413.93,320.69,414.4z"/>
		<path style="fill:#263238;" d="M321.76,423.41c1.32,0.19,4.09-0.61,4.31-0.68c0.44,1.55,1.01,3.11,1.68,4.66
			c0.38,0.88,0.79,1.76,1.22,2.64c-0.25-0.37-0.48-0.7-0.52-0.74c-1.04-1.2-3.74-2.9-5.37-2.21c-1.17,0.5-1.52,1.9-0.93,2.98
			c0.6,1.1,2.04,1.64,3.21,1.81c1.19,0.17,3.57-0.47,4.19-0.64c0.17,0.33,0.33,0.67,0.5,1c0.8,1.6,1.61,3.19,2.36,4.78
			c0.26,0.56,0.5,1.12,0.74,1.68c-0.23-0.33-0.42-0.6-0.45-0.64c-1.03-1.2-3.74-2.9-5.37-2.21c-1.17,0.5-1.52,1.9-0.93,2.98
			c0.6,1.1,2.04,1.64,3.21,1.81c1.13,0.16,3.33-0.4,4.08-0.61c0.23,0.58,0.46,1.16,0.66,1.73c0.12,0.39,0.27,0.77,0.38,1.17
			c0.11,0.4,0.22,0.79,0.33,1.18c0.18,0.76,0.37,1.54,0.53,2.28c0.11,0.52,0.21,1.01,0.32,1.51c-0.26-0.56-0.78-1.64-0.83-1.73
			c-0.84-1.34-3.25-3.43-4.97-2.99c-1.24,0.32-1.79,1.65-1.37,2.8c0.43,1.17,1.77,1.93,2.9,2.27c1.24,0.38,4,0.03,4.34-0.01
			c0.17,0.82,0.32,1.62,0.45,2.38c0.27,1.54,0.48,2.93,0.65,4.14h1.16c-0.2-1.25-0.45-2.71-0.77-4.33
			c-0.16-0.84-0.36-1.73-0.56-2.64c0.21-0.08,1.38-0.56,2.42-1.14c0.91,0.98,3.23,2.13,3.53,2.28c-0.32,0.78-0.63,1.53-0.94,2.24
			c-0.58,1.34-1.14,2.55-1.64,3.59h1.25c0.43-0.95,0.89-2.02,1.36-3.18c0.32-0.79,0.66-1.64,0.99-2.51
			c0.33,0.07,3.06,0.62,4.33,0.34c1.15-0.26,2.55-0.91,3.06-2.05c0.5-1.12,0.05-2.49-1.16-2.9c-1.68-0.56-4.24,1.34-5.18,2.62
			c-0.06,0.08-0.57,0.96-0.88,1.52c0.13-0.36,0.27-0.7,0.4-1.07c0.27-0.73,0.51-1.47,0.78-2.26c0.12-0.39,0.23-0.78,0.35-1.17
			c0.13-0.39,0.21-0.82,0.32-1.23c0.23-0.96,0.41-1.94,0.58-2.94c0.64,0.23,2.93,1.03,4.11,0.94c1.18-0.08,2.66-0.52,3.34-1.56
			c0.67-1.03,0.43-2.45-0.7-3.04c-1.57-0.81-4.4,0.68-5.52,1.8c-0.07,0.07-0.78,0.96-1.17,1.46c0.09-0.6,0.19-1.2,0.27-1.8
			c0.22-1.76,0.38-3.54,0.56-5.32c0.05-0.55,0.11-1.09,0.17-1.63c0.23,0.09,2.92,1.09,4.25,1c1.18-0.08,2.66-0.52,3.34-1.56
			c0.67-1.03,0.43-2.45-0.7-3.04c-1.57-0.81-4.4,0.68-5.52,1.8c-0.08,0.08-1.11,1.37-1.36,1.71c0.13-1.2,0.26-2.39,0.45-3.56
			c0.25-1.61,0.58-3.18,1.02-4.68c0.11,0.04,2.91,1.1,4.27,1c1.18-0.08,2.66-0.52,3.34-1.56c0.67-1.03,0.43-2.45-0.7-3.04
			c-1.57-0.81-4.4,0.68-5.52,1.8c-0.09,0.09-1.19,1.47-1.37,1.73c0.03-0.09,0.04-0.18,0.07-0.27c0.49-1.59,1.16-3.07,1.85-4.43
			c0.4-0.79,0.83-1.52,1.27-2.22c0.5,0.25,2.81,1.37,4.05,1.42c1.18,0.05,2.7-0.22,3.49-1.19c0.78-0.95,0.7-2.39-0.37-3.1
			c-1.48-0.98-4.44,0.2-5.68,1.18c-0.07,0.05-0.69,0.67-1.14,1.13c0.2-0.31,0.4-0.64,0.6-0.94c0.74-1.12,1.49-2.09,2.16-2.95
			c0.38-0.49,0.74-0.92,1.08-1.32c0.62-0.01,3.13-0.09,4.22-0.6c1.07-0.5,2.29-1.44,2.55-2.66c0.25-1.2-0.48-2.44-1.75-2.58
			c-1.76-0.19-3.85,2.22-4.5,3.67c-0.06,0.12-0.7,2.18-0.67,2.18c0,0,0.03,0,0.04,0c-0.33,0.38-0.69,0.79-1.06,1.24
			c-0.69,0.85-1.46,1.81-2.23,2.91c-0.77,1.1-1.58,2.32-2.31,3.68c-0.74,1.36-1.44,2.83-1.97,4.44c-0.01,0.02-0.01,0.04-0.02,0.06
			c0.01-0.52-0.01-1.97-0.03-2.08c-0.2-1.57-1.52-4.48-3.26-4.8c-1.25-0.23-2.32,0.75-2.42,1.97c-0.1,1.25,0.8,2.49,1.68,3.28
			c0.99,0.89,3.75,1.75,3.97,1.81c-0.49,1.54-0.87,3.15-1.16,4.81c-0.17,0.95-0.31,1.91-0.44,2.87c-0.01-0.45-0.02-0.85-0.02-0.91
			c-0.2-1.57-1.52-4.48-3.26-4.8c-1.26-0.23-2.32,0.75-2.42,1.97c-0.1,1.25,0.8,2.49,1.68,3.28c0.89,0.8,3.23,1.58,3.85,1.78
			c-0.05,0.37-0.1,0.74-0.14,1.11c-0.21,1.78-0.42,3.55-0.67,5.29c-0.09,0.61-0.2,1.21-0.31,1.81c-0.01-0.4-0.01-0.73-0.02-0.79
			c-0.2-1.57-1.52-4.48-3.26-4.8c-1.25-0.23-2.32,0.75-2.42,1.97c-0.1,1.25,0.8,2.49,1.68,3.28c0.85,0.76,3,1.5,3.74,1.74
			c-0.13,0.61-0.26,1.22-0.41,1.81c-0.11,0.4-0.2,0.79-0.33,1.18c-0.13,0.39-0.25,0.78-0.38,1.16c-0.27,0.73-0.54,1.49-0.81,2.19
			c-0.19,0.49-0.38,0.96-0.57,1.43c0.1-0.61,0.26-1.8,0.26-1.9c0.02-1.05-0.35-2.76-1.09-3.96c0-0.16,0-0.31-0.03-0.46
			c-0.19-1.21-1.33-2.11-2.56-1.78c-1.71,0.46-2.8,3.46-2.88,5.04c0,0.09,0.06,1.11,0.11,1.75c-0.09-0.37-0.17-0.73-0.26-1.12
			c-0.18-0.76-0.38-1.51-0.59-2.32c-0.12-0.39-0.24-0.78-0.35-1.17c-0.11-0.39-0.28-0.8-0.41-1.2c-0.34-0.93-0.73-1.85-1.14-2.77
			c0.66-0.16,3.01-0.76,3.95-1.48c0.94-0.72,1.93-1.9,1.92-3.15c-0.01-1.22-0.99-2.28-2.26-2.15c-1.76,0.19-3.29,3-3.61,4.55
			c-0.02,0.1-0.12,1.23-0.17,1.86c-0.25-0.55-0.5-1.1-0.77-1.65c-0.79-1.58-1.63-3.16-2.47-4.74c-0.26-0.48-0.51-0.97-0.76-1.45
			c0.24-0.05,3.04-0.7,4.09-1.51c0.94-0.72,1.93-1.9,1.92-3.15c-0.01-1.22-1-2.28-2.26-2.15c-1.76,0.19-3.29,3-3.61,4.55
			c-0.02,0.12-0.17,1.75-0.19,2.17c-0.55-1.07-1.1-2.14-1.59-3.21c-0.68-1.48-1.27-2.98-1.73-4.46c0.11-0.03,3.04-0.69,4.12-1.52
			c0.94-0.72,1.93-1.9,1.92-3.15c-0.01-1.22-1-2.28-2.26-2.15c-1.76,0.19-3.29,3-3.61,4.55c-0.03,0.12-0.18,1.88-0.19,2.2
			c-0.03-0.09-0.07-0.18-0.09-0.27c-0.47-1.6-0.73-3.2-0.9-4.71c-0.1-0.88-0.14-1.73-0.17-2.55c0.56-0.07,3.1-0.41,4.16-1.05
			c1.01-0.61,2.13-1.67,2.26-2.92c0.13-1.22-0.74-2.38-2.01-2.38c-1.77,0-3.6,2.62-4.09,4.12c-0.03,0.08-0.2,0.94-0.32,1.57
			c-0.01-0.37-0.02-0.76-0.02-1.11c0-1.34,0.09-2.57,0.17-3.65c0.05-0.62,0.11-1.17,0.17-1.69c0.51-0.35,2.56-1.8,3.19-2.83
			c0.61-1.01,1.12-2.46,0.66-3.63c-0.45-1.14-1.75-1.77-2.89-1.19c-1.57,0.81-1.99,3.98-1.73,5.54c0.02,0.13,0.62,2.2,0.64,2.18
			c0,0,0.03-0.02,0.03-0.02c-0.07,0.5-0.14,1.04-0.2,1.62c-0.11,1.09-0.22,2.31-0.25,3.66c-0.04,1.34-0.04,2.8,0.1,4.34
			c0.14,1.54,0.36,3.16,0.8,4.79c0.01,0.02,0.01,0.04,0.02,0.06c-0.28-0.44-1.1-1.64-1.17-1.72c-1.03-1.2-3.74-2.9-5.37-2.21
			c-1.17,0.5-1.52,1.9-0.93,2.98C319.15,422.7,320.59,423.24,321.76,423.41z"/>
		<path style="fill:#263238;" d="M352.13,415.09c0.03,0.02,0.57-2.07,0.58-2.2c0.22-1.57-0.28-4.72-1.88-5.49
			c-1.15-0.56-2.43,0.11-2.85,1.26c-0.43,1.17,0.11,2.62,0.76,3.61C349.5,413.43,352.13,415.09,352.13,415.09z"/>
	</g>
	<g>
		<path style="fill:#263238;" d="M154.88,412.46c1.33,0.58,4.59,0.51,4.59,0.51c0.03,0-0.7-2.13-0.76-2.26
			c-0.72-1.5-2.98-3.97-4.82-3.72c-1.33,0.18-2.06,1.51-1.76,2.75C152.43,411.01,153.74,411.96,154.88,412.46z"/>
		<path style="fill:#263238;" d="M156,421.9c1.38,0.2,4.29-0.64,4.52-0.71c0.46,1.63,1.06,3.26,1.76,4.88
			c0.4,0.93,0.83,1.85,1.28,2.76c-0.27-0.39-0.51-0.73-0.54-0.78c-1.08-1.25-3.92-3.04-5.63-2.31c-1.23,0.52-1.59,2-0.97,3.12
			c0.63,1.15,2.14,1.72,3.37,1.9c1.24,0.18,3.74-0.49,4.4-0.67c0.17,0.35,0.34,0.7,0.52,1.05c0.84,1.68,1.69,3.35,2.47,5.01
			c0.28,0.59,0.53,1.17,0.78,1.76c-0.24-0.35-0.44-0.63-0.47-0.67c-1.08-1.25-3.92-3.04-5.63-2.31c-1.23,0.52-1.59,2-0.97,3.12
			c0.63,1.15,2.14,1.72,3.37,1.9c1.19,0.17,3.49-0.42,4.28-0.64c0.24,0.61,0.48,1.22,0.69,1.82c0.13,0.41,0.29,0.8,0.39,1.22
			c0.12,0.42,0.23,0.83,0.34,1.24c0.19,0.79,0.39,1.61,0.56,2.39c0.12,0.54,0.22,1.06,0.33,1.58c-0.27-0.59-0.82-1.72-0.87-1.81
			c-0.88-1.4-3.41-3.6-5.21-3.14c-1.3,0.33-1.88,1.73-1.44,2.94c0.45,1.23,1.86,2.02,3.04,2.38c1.3,0.4,4.19,0.03,4.55-0.01
			c0.17,0.86,0.33,1.7,0.47,2.5c0.29,1.62,0.5,3.07,0.68,4.34h1.21c-0.21-1.31-0.47-2.84-0.81-4.54c-0.17-0.88-0.37-1.81-0.59-2.77
			c0.22-0.09,1.45-0.58,2.54-1.19c0.95,1.03,3.39,2.23,3.7,2.39c-0.33,0.81-0.66,1.6-0.99,2.34c-0.61,1.41-1.2,2.67-1.72,3.77h1.31
			c0.45-1,0.93-2.11,1.43-3.34c0.34-0.83,0.69-1.72,1.03-2.63c0.35,0.07,3.21,0.65,4.54,0.35c1.21-0.27,2.67-0.96,3.21-2.15
			c0.53-1.17,0.06-2.61-1.21-3.04c-1.76-0.59-4.45,1.41-5.43,2.74c-0.06,0.08-0.59,1-0.92,1.59c0.14-0.38,0.28-0.74,0.42-1.13
			c0.28-0.77,0.54-1.54,0.82-2.37c0.12-0.41,0.24-0.81,0.37-1.23c0.13-0.41,0.22-0.85,0.33-1.29c0.24-1,0.43-2.04,0.6-3.08
			c0.67,0.24,3.07,1.08,4.31,0.99c1.24-0.09,2.78-0.54,3.5-1.64c0.7-1.08,0.45-2.57-0.74-3.19c-1.65-0.85-4.61,0.72-5.78,1.89
			c-0.07,0.07-0.82,1.01-1.22,1.53c0.1-0.63,0.2-1.25,0.28-1.89c0.23-1.84,0.4-3.71,0.58-5.58c0.06-0.57,0.12-1.14,0.18-1.71
			c0.24,0.09,3.06,1.14,4.45,1.04c1.24-0.09,2.78-0.54,3.5-1.64c0.7-1.08,0.45-2.57-0.74-3.19c-1.65-0.85-4.61,0.72-5.78,1.89
			c-0.09,0.09-1.16,1.43-1.42,1.79c0.13-1.25,0.28-2.5,0.47-3.73c0.26-1.69,0.61-3.34,1.07-4.9c0.11,0.04,3.06,1.15,4.48,1.05
			c1.24-0.09,2.78-0.54,3.5-1.64c0.7-1.08,0.45-2.57-0.74-3.19c-1.65-0.85-4.61,0.72-5.78,1.89c-0.09,0.09-1.25,1.54-1.44,1.82
			c0.03-0.09,0.05-0.19,0.07-0.29c0.51-1.67,1.21-3.22,1.94-4.64c0.42-0.83,0.87-1.59,1.33-2.33c0.53,0.26,2.95,1.44,4.24,1.49
			c1.24,0.05,2.83-0.23,3.66-1.24c0.81-0.99,0.73-2.51-0.38-3.25c-1.55-1.03-4.66,0.21-5.96,1.24c-0.07,0.06-0.72,0.71-1.19,1.19
			c0.21-0.33,0.42-0.67,0.63-0.98c0.78-1.17,1.56-2.19,2.26-3.09c0.4-0.51,0.78-0.96,1.13-1.38c0.65-0.01,3.28-0.09,4.43-0.63
			c1.12-0.53,2.4-1.51,2.67-2.79c0.27-1.26-0.51-2.56-1.84-2.7c-1.85-0.2-4.04,2.33-4.71,3.85c-0.06,0.13-0.73,2.28-0.7,2.28
			c0,0,0.03,0,0.04,0c-0.35,0.4-0.72,0.83-1.11,1.3c-0.72,0.89-1.53,1.9-2.34,3.05c-0.81,1.15-1.65,2.43-2.42,3.86
			c-0.77,1.43-1.51,2.97-2.07,4.66c-0.01,0.02-0.01,0.04-0.02,0.06c0.01-0.54-0.01-2.07-0.03-2.18c-0.21-1.64-1.59-4.7-3.42-5.03
			c-1.32-0.24-2.43,0.79-2.53,2.07c-0.11,1.31,0.84,2.61,1.76,3.44c1.04,0.93,3.93,1.83,4.16,1.9c-0.52,1.61-0.91,3.31-1.22,5.04
			c-0.18,0.99-0.33,2-0.46,3.01c-0.01-0.47-0.02-0.89-0.02-0.95c-0.21-1.64-1.59-4.7-3.42-5.03c-1.32-0.24-2.43,0.79-2.53,2.07
			c-0.11,1.31,0.84,2.61,1.76,3.44c0.94,0.84,3.39,1.65,4.04,1.86c-0.05,0.39-0.1,0.78-0.15,1.16c-0.22,1.86-0.44,3.72-0.7,5.54
			c-0.09,0.64-0.21,1.27-0.32,1.9c-0.01-0.42-0.02-0.77-0.02-0.82c-0.21-1.64-1.59-4.7-3.42-5.03c-1.32-0.24-2.43,0.79-2.53,2.07
			c-0.11,1.31,0.84,2.61,1.76,3.44c0.89,0.8,3.15,1.57,3.92,1.82c-0.14,0.64-0.27,1.28-0.43,1.9c-0.12,0.42-0.2,0.83-0.35,1.24
			c-0.13,0.41-0.26,0.82-0.39,1.22c-0.28,0.77-0.56,1.56-0.85,2.3c-0.2,0.52-0.4,1.01-0.6,1.5c0.1-0.64,0.27-1.89,0.27-1.99
			c0.03-1.1-0.37-2.89-1.14-4.15c0-0.16,0-0.32-0.03-0.49c-0.2-1.27-1.39-2.21-2.69-1.86c-1.79,0.48-2.93,3.63-3.02,5.28
			c-0.01,0.1,0.06,1.16,0.11,1.84c-0.09-0.39-0.17-0.77-0.27-1.17c-0.19-0.79-0.4-1.58-0.62-2.43c-0.12-0.41-0.25-0.81-0.37-1.23
			c-0.12-0.41-0.29-0.83-0.43-1.26c-0.35-0.97-0.76-1.94-1.19-2.9c0.69-0.17,3.15-0.79,4.14-1.55c0.98-0.75,2.02-1.99,2.01-3.3
			c-0.01-1.28-1.04-2.39-2.37-2.25c-1.85,0.2-3.45,3.14-3.78,4.76c-0.02,0.1-0.13,1.29-0.18,1.95c-0.26-0.58-0.52-1.16-0.81-1.73
			c-0.82-1.66-1.71-3.32-2.59-4.97c-0.27-0.51-0.53-1.02-0.8-1.52c0.25-0.06,3.19-0.74,4.29-1.59c0.98-0.75,2.02-1.99,2.02-3.3
			c-0.01-1.28-1.04-2.39-2.37-2.25c-1.85,0.2-3.45,3.14-3.78,4.76c-0.03,0.12-0.18,1.84-0.2,2.28c-0.58-1.12-1.15-2.24-1.67-3.37
			c-0.71-1.55-1.33-3.12-1.81-4.68c0.12-0.03,3.18-0.72,4.32-1.59c0.98-0.75,2.02-1.99,2.01-3.3c-0.01-1.28-1.04-2.39-2.37-2.25
			c-1.85,0.2-3.45,3.14-3.78,4.76c-0.03,0.13-0.19,1.97-0.2,2.31c-0.03-0.09-0.07-0.19-0.1-0.28c-0.49-1.67-0.76-3.35-0.94-4.94
			c-0.1-0.92-0.15-1.81-0.18-2.67c0.58-0.07,3.25-0.43,4.36-1.1c1.06-0.64,2.23-1.75,2.37-3.06c0.13-1.28-0.77-2.49-2.11-2.5
			c-1.86,0-3.77,2.74-4.28,4.32c-0.03,0.09-0.21,0.99-0.34,1.65c-0.01-0.39-0.02-0.79-0.02-1.17c0-1.4,0.09-2.69,0.18-3.83
			c0.06-0.65,0.12-1.23,0.18-1.78c0.54-0.37,2.68-1.89,3.35-2.97c0.64-1.06,1.17-2.58,0.69-3.8c-0.47-1.19-1.84-1.86-3.02-1.24
			c-1.65,0.85-2.08,4.17-1.81,5.81c0.02,0.14,0.65,2.31,0.67,2.29c0,0,0.03-0.02,0.03-0.02c-0.07,0.52-0.14,1.09-0.21,1.7
			c-0.11,1.14-0.23,2.43-0.26,3.83c-0.04,1.41-0.04,2.94,0.11,4.55c0.14,1.62,0.38,3.31,0.84,5.02c0.01,0.02,0.01,0.04,0.02,0.06
			c-0.29-0.46-1.15-1.71-1.23-1.8c-1.08-1.25-3.92-3.04-5.63-2.31c-1.23,0.52-1.59,2-0.97,3.12
			C153.26,421.15,154.78,421.72,156,421.9z"/>
		<path style="fill:#263238;" d="M187.84,413.17c0.03,0.02,0.59-2.17,0.61-2.31c0.23-1.64-0.29-4.95-1.97-5.76
			c-1.2-0.58-2.55,0.12-2.99,1.32c-0.45,1.23,0.12,2.74,0.79,3.78C185.08,411.44,187.84,413.17,187.84,413.17z"/>
	</g>
	<g>
		<path style="fill:#263238;" d="M124.95,428.89c0.81,0.36,2.81,0.31,2.81,0.31c0.02,0-0.43-1.3-0.47-1.38
			c-0.44-0.91-1.82-2.42-2.94-2.27c-0.81,0.11-1.26,0.92-1.08,1.68C123.45,428.01,124.25,428.58,124.95,428.89z"/>
		<path style="fill:#263238;" d="M125.63,434.66c0.84,0.12,2.62-0.39,2.76-0.43c0.28,1,0.65,1.99,1.08,2.98
			c0.24,0.57,0.51,1.13,0.78,1.69c-0.16-0.24-0.31-0.45-0.33-0.48c-0.66-0.77-2.4-1.86-3.44-1.41c-0.75,0.32-0.97,1.22-0.6,1.91
			c0.39,0.7,1.31,1.05,2.06,1.16c0.76,0.11,2.28-0.3,2.69-0.41c0.11,0.21,0.21,0.43,0.32,0.64c0.51,1.03,1.03,2.05,1.51,3.06
			c0.17,0.36,0.32,0.72,0.48,1.08c-0.14-0.21-0.27-0.39-0.29-0.41c-0.66-0.77-2.39-1.86-3.44-1.41c-0.75,0.32-0.97,1.22-0.6,1.91
			c0.39,0.7,1.31,1.05,2.06,1.16c0.73,0.11,2.14-0.26,2.61-0.39c0.15,0.37,0.29,0.74,0.42,1.11c0.08,0.25,0.17,0.49,0.24,0.75
			c0.07,0.25,0.14,0.51,0.21,0.76c0.12,0.48,0.24,0.98,0.34,1.46c0.07,0.33,0.14,0.65,0.2,0.97c-0.16-0.36-0.5-1.05-0.53-1.11
			c-0.54-0.86-2.09-2.2-3.19-1.92c-0.79,0.2-1.15,1.06-0.88,1.8c0.28,0.75,1.14,1.24,1.86,1.46c0.8,0.24,2.56,0.02,2.78-0.01
			c0.11,0.53,0.2,1.04,0.29,1.53c0.17,0.99,0.31,1.88,0.41,2.65h0.74c-0.13-0.8-0.29-1.74-0.49-2.77c-0.11-0.54-0.23-1.11-0.36-1.69
			c0.13-0.05,0.89-0.36,1.55-0.73c0.58,0.63,2.07,1.37,2.26,1.46c-0.2,0.5-0.4,0.98-0.6,1.43c-0.37,0.86-0.73,1.63-1.05,2.3h0.8
			c0.27-0.61,0.57-1.29,0.87-2.04c0.21-0.5,0.42-1.05,0.63-1.61c0.21,0.04,1.96,0.4,2.77,0.22c0.74-0.17,1.63-0.58,1.96-1.31
			c0.32-0.71,0.03-1.6-0.74-1.86c-1.08-0.36-2.72,0.86-3.32,1.68c-0.04,0.05-0.36,0.61-0.56,0.97c0.09-0.23,0.17-0.45,0.26-0.69
			c0.17-0.47,0.33-0.94,0.5-1.45c0.07-0.25,0.15-0.5,0.22-0.75c0.08-0.25,0.13-0.52,0.2-0.79c0.15-0.61,0.26-1.24,0.37-1.88
			c0.41,0.15,1.87,0.66,2.63,0.61c0.75-0.05,1.7-0.33,2.14-1c0.43-0.66,0.28-1.57-0.45-1.95c-1.01-0.52-2.82,0.44-3.54,1.15
			c-0.04,0.04-0.5,0.62-0.75,0.93c0.06-0.38,0.12-0.77,0.17-1.16c0.14-1.13,0.25-2.27,0.36-3.41c0.03-0.35,0.07-0.7,0.11-1.05
			c0.15,0.05,1.87,0.7,2.72,0.64c0.76-0.05,1.7-0.33,2.14-1c0.43-0.66,0.28-1.57-0.45-1.95c-1.01-0.52-2.82,0.44-3.54,1.15
			c-0.05,0.05-0.71,0.88-0.87,1.09c0.08-0.77,0.17-1.53,0.29-2.28c0.16-1.03,0.37-2.04,0.65-3c0.07,0.03,1.87,0.7,2.74,0.64
			c0.76-0.05,1.7-0.33,2.14-1c0.43-0.66,0.28-1.57-0.45-1.95c-1.01-0.52-2.82,0.44-3.54,1.15c-0.06,0.06-0.76,0.94-0.88,1.11
			c0.02-0.06,0.03-0.12,0.05-0.17c0.31-1.02,0.74-1.97,1.19-2.84c0.26-0.51,0.53-0.97,0.81-1.42c0.32,0.16,1.8,0.88,2.59,0.91
			c0.76,0.03,1.73-0.14,2.24-0.76c0.5-0.61,0.45-1.53-0.23-1.98c-0.95-0.63-2.85,0.13-3.64,0.76c-0.04,0.03-0.44,0.43-0.73,0.73
			c0.13-0.2,0.26-0.41,0.38-0.6c0.47-0.71,0.95-1.34,1.38-1.89c0.25-0.31,0.48-0.59,0.69-0.84c0.4-0.01,2-0.06,2.71-0.39
			c0.69-0.32,1.47-0.92,1.63-1.71c0.16-0.77-0.31-1.57-1.12-1.65c-1.13-0.12-2.47,1.42-2.88,2.35c-0.04,0.08-0.45,1.4-0.43,1.4
			c0,0,0.02,0,0.02,0c-0.21,0.24-0.44,0.51-0.68,0.8c-0.44,0.54-0.94,1.16-1.43,1.87c-0.49,0.71-1.01,1.49-1.48,2.36
			c-0.47,0.87-0.92,1.81-1.26,2.85c0,0.01-0.01,0.02-0.01,0.04c0.01-0.33-0.01-1.26-0.02-1.33c-0.13-1.01-0.97-2.87-2.09-3.08
			c-0.8-0.15-1.49,0.48-1.55,1.26c-0.07,0.8,0.51,1.6,1.08,2.1c0.64,0.57,2.4,1.12,2.54,1.16c-0.32,0.98-0.56,2.02-0.75,3.08
			c-0.11,0.61-0.2,1.22-0.28,1.84c0-0.29-0.01-0.54-0.01-0.58c-0.13-1.01-0.97-2.87-2.09-3.08c-0.8-0.15-1.49,0.48-1.55,1.26
			c-0.07,0.8,0.51,1.6,1.08,2.1c0.57,0.51,2.07,1.01,2.47,1.14c-0.03,0.24-0.06,0.47-0.09,0.71c-0.14,1.14-0.27,2.28-0.43,3.39
			c-0.06,0.39-0.13,0.78-0.2,1.16c0-0.26-0.01-0.47-0.01-0.5c-0.13-1.01-0.97-2.87-2.09-3.08c-0.8-0.15-1.49,0.48-1.55,1.26
			c-0.07,0.8,0.51,1.6,1.08,2.1c0.55,0.49,1.92,0.96,2.4,1.12c-0.08,0.39-0.17,0.78-0.26,1.16c-0.07,0.25-0.12,0.51-0.21,0.76
			c-0.08,0.25-0.16,0.5-0.24,0.75c-0.17,0.47-0.34,0.95-0.52,1.41c-0.12,0.32-0.24,0.61-0.36,0.92c0.06-0.39,0.17-1.15,0.17-1.22
			c0.02-0.67-0.22-1.77-0.7-2.54c0-0.1,0-0.2-0.02-0.3c-0.12-0.77-0.85-1.35-1.64-1.14c-1.1,0.29-1.79,2.22-1.84,3.23
			c0,0.06,0.04,0.71,0.07,1.12c-0.06-0.24-0.11-0.47-0.17-0.72c-0.11-0.48-0.24-0.97-0.38-1.48c-0.07-0.25-0.15-0.5-0.23-0.75
			c-0.07-0.25-0.18-0.51-0.26-0.77c-0.22-0.59-0.47-1.18-0.73-1.77c0.42-0.1,1.93-0.48,2.53-0.95c0.6-0.46,1.24-1.21,1.23-2.02
			c-0.01-0.78-0.64-1.46-1.45-1.38c-1.13,0.12-2.11,1.92-2.31,2.91c-0.01,0.06-0.08,0.79-0.11,1.19c-0.16-0.35-0.32-0.71-0.5-1.06
			c-0.5-1.02-1.05-2.03-1.58-3.04c-0.16-0.31-0.32-0.62-0.49-0.93c0.15-0.03,1.95-0.45,2.62-0.97c0.6-0.46,1.24-1.21,1.23-2.02
			c-0.01-0.78-0.64-1.46-1.45-1.38c-1.13,0.12-2.11,1.92-2.31,2.91c-0.02,0.07-0.11,1.12-0.12,1.39c-0.36-0.68-0.7-1.37-1.02-2.06
			c-0.44-0.95-0.81-1.91-1.11-2.86c0.07-0.02,1.95-0.44,2.64-0.97c0.6-0.46,1.24-1.21,1.23-2.02c-0.01-0.78-0.64-1.46-1.45-1.38
			c-1.13,0.12-2.11,1.92-2.31,2.91c-0.02,0.08-0.12,1.21-0.12,1.41c-0.02-0.06-0.04-0.11-0.06-0.17c-0.3-1.02-0.47-2.05-0.57-3.02
			c-0.06-0.56-0.09-1.11-0.11-1.63c0.36-0.04,1.99-0.26,2.66-0.67c0.65-0.39,1.36-1.07,1.45-1.87c0.08-0.78-0.47-1.52-1.29-1.53
			c-1.13,0-2.31,1.68-2.62,2.64c-0.02,0.05-0.13,0.6-0.21,1.01c0-0.24-0.01-0.48-0.01-0.71c0-0.86,0.06-1.64,0.11-2.34
			c0.03-0.4,0.07-0.75,0.11-1.09c0.33-0.23,1.64-1.15,2.04-1.81c0.39-0.65,0.72-1.58,0.42-2.32c-0.29-0.73-1.12-1.14-1.85-0.76
			c-1.01,0.52-1.27,2.55-1.11,3.55c0.01,0.09,0.4,1.41,0.41,1.4c0,0,0.02-0.01,0.02-0.01c-0.04,0.32-0.09,0.66-0.13,1.04
			c-0.07,0.7-0.14,1.48-0.16,2.34c-0.02,0.86-0.02,1.8,0.07,2.78c0.09,0.99,0.23,2.02,0.52,3.07c0,0.01,0.01,0.02,0.01,0.04
			c-0.18-0.28-0.7-1.05-0.75-1.1c-0.66-0.77-2.39-1.86-3.44-1.41c-0.75,0.32-0.97,1.22-0.6,1.91
			C123.96,434.2,124.88,434.55,125.63,434.66z"/>
		<path style="fill:#263238;" d="M145.1,429.33c0.02,0.01,0.36-1.32,0.37-1.41c0.14-1-0.18-3.03-1.2-3.52
			c-0.74-0.36-1.56,0.07-1.83,0.81c-0.27,0.75,0.07,1.68,0.48,2.31C143.41,428.26,145.09,429.33,145.1,429.33z"/>
	</g>
	<g>
		<path style="fill:#263238;" d="M425.27,428.89c0.81,0.36,2.81,0.31,2.81,0.31c0.02,0-0.43-1.3-0.47-1.38
			c-0.44-0.91-1.82-2.42-2.94-2.27c-0.81,0.11-1.26,0.92-1.08,1.68C423.78,428.01,424.58,428.58,425.27,428.89z"/>
		<path style="fill:#263238;" d="M425.96,434.66c0.84,0.12,2.62-0.39,2.76-0.43c0.28,1,0.65,1.99,1.08,2.98
			c0.24,0.57,0.51,1.13,0.78,1.69c-0.16-0.24-0.31-0.45-0.33-0.48c-0.66-0.77-2.39-1.86-3.44-1.41c-0.75,0.32-0.97,1.22-0.6,1.91
			c0.39,0.7,1.31,1.05,2.06,1.16c0.76,0.11,2.28-0.3,2.69-0.41c0.11,0.21,0.21,0.43,0.32,0.64c0.51,1.03,1.03,2.05,1.51,3.06
			c0.17,0.36,0.32,0.72,0.48,1.08c-0.14-0.21-0.27-0.39-0.29-0.41c-0.66-0.77-2.39-1.86-3.44-1.41c-0.75,0.32-0.97,1.22-0.6,1.91
			c0.39,0.7,1.31,1.05,2.06,1.16c0.73,0.11,2.14-0.26,2.61-0.39c0.15,0.37,0.29,0.74,0.42,1.11c0.08,0.25,0.17,0.49,0.24,0.75
			c0.07,0.25,0.14,0.51,0.21,0.76c0.12,0.48,0.24,0.98,0.34,1.46c0.07,0.33,0.14,0.65,0.2,0.97c-0.16-0.36-0.5-1.05-0.53-1.11
			c-0.54-0.86-2.09-2.2-3.19-1.92c-0.79,0.2-1.15,1.06-0.88,1.8c0.28,0.75,1.14,1.24,1.86,1.46c0.8,0.24,2.56,0.02,2.78-0.01
			c0.11,0.53,0.2,1.04,0.29,1.53c0.17,0.99,0.31,1.88,0.41,2.65h0.74c-0.13-0.8-0.29-1.74-0.49-2.77c-0.11-0.54-0.23-1.11-0.36-1.69
			c0.13-0.05,0.89-0.36,1.55-0.73c0.58,0.63,2.07,1.37,2.26,1.46c-0.2,0.5-0.4,0.98-0.6,1.43c-0.37,0.86-0.73,1.63-1.05,2.3h0.8
			c0.27-0.61,0.57-1.29,0.87-2.04c0.21-0.5,0.42-1.05,0.63-1.61c0.21,0.04,1.96,0.4,2.77,0.22c0.74-0.17,1.63-0.58,1.96-1.31
			c0.32-0.71,0.03-1.6-0.74-1.86c-1.08-0.36-2.72,0.86-3.32,1.68c-0.04,0.05-0.36,0.61-0.56,0.97c0.09-0.23,0.17-0.45,0.26-0.69
			c0.17-0.47,0.33-0.94,0.5-1.45c0.07-0.25,0.15-0.5,0.22-0.75c0.08-0.25,0.13-0.52,0.2-0.79c0.15-0.61,0.26-1.24,0.37-1.88
			c0.41,0.15,1.87,0.66,2.63,0.61c0.76-0.05,1.7-0.33,2.14-1c0.43-0.66,0.28-1.57-0.45-1.95c-1.01-0.52-2.82,0.44-3.54,1.15
			c-0.04,0.04-0.5,0.62-0.75,0.93c0.06-0.38,0.12-0.77,0.17-1.16c0.14-1.13,0.25-2.27,0.36-3.41c0.03-0.35,0.07-0.7,0.11-1.05
			c0.15,0.05,1.87,0.7,2.72,0.64c0.75-0.05,1.7-0.33,2.14-1c0.43-0.66,0.28-1.57-0.45-1.95c-1.01-0.52-2.82,0.44-3.54,1.15
			c-0.05,0.05-0.71,0.88-0.87,1.09c0.08-0.77,0.17-1.53,0.29-2.28c0.16-1.03,0.37-2.04,0.65-3c0.07,0.03,1.87,0.7,2.74,0.64
			c0.76-0.05,1.7-0.33,2.14-1c0.43-0.66,0.28-1.57-0.45-1.95c-1.01-0.52-2.82,0.44-3.54,1.15c-0.06,0.06-0.76,0.94-0.88,1.11
			c0.02-0.06,0.03-0.12,0.05-0.17c0.31-1.02,0.74-1.97,1.19-2.84c0.26-0.51,0.53-0.97,0.81-1.42c0.32,0.16,1.8,0.88,2.59,0.91
			c0.76,0.03,1.73-0.14,2.24-0.76c0.5-0.61,0.45-1.53-0.23-1.98c-0.95-0.63-2.85,0.13-3.64,0.76c-0.04,0.03-0.44,0.43-0.73,0.73
			c0.13-0.2,0.26-0.41,0.38-0.6c0.47-0.71,0.95-1.34,1.38-1.89c0.25-0.31,0.48-0.59,0.69-0.84c0.4-0.01,2-0.06,2.71-0.39
			c0.69-0.32,1.47-0.92,1.63-1.71c0.16-0.77-0.31-1.57-1.12-1.65c-1.13-0.12-2.47,1.42-2.88,2.35c-0.04,0.08-0.45,1.4-0.43,1.4
			c0,0,0.02,0,0.02,0c-0.21,0.24-0.44,0.51-0.68,0.8c-0.44,0.54-0.94,1.16-1.43,1.87c-0.49,0.71-1.01,1.49-1.48,2.36
			c-0.47,0.87-0.92,1.81-1.26,2.85c0,0.01-0.01,0.02-0.01,0.04c0.01-0.33-0.01-1.26-0.02-1.33c-0.13-1.01-0.97-2.87-2.09-3.08
			c-0.8-0.15-1.48,0.48-1.55,1.26c-0.07,0.8,0.51,1.6,1.08,2.1c0.64,0.57,2.4,1.12,2.54,1.16c-0.31,0.98-0.56,2.02-0.75,3.08
			c-0.11,0.61-0.2,1.22-0.28,1.84c0-0.29-0.01-0.54-0.01-0.58c-0.13-1.01-0.97-2.87-2.09-3.08c-0.8-0.15-1.49,0.48-1.55,1.26
			c-0.07,0.8,0.51,1.6,1.08,2.1c0.57,0.51,2.07,1.01,2.47,1.14c-0.03,0.24-0.06,0.47-0.09,0.71c-0.14,1.14-0.27,2.28-0.43,3.39
			c-0.06,0.39-0.13,0.78-0.2,1.16c0-0.26-0.01-0.47-0.01-0.5c-0.13-1.01-0.97-2.87-2.09-3.08c-0.8-0.15-1.48,0.48-1.55,1.26
			c-0.07,0.8,0.51,1.6,1.08,2.1c0.55,0.49,1.92,0.96,2.4,1.12c-0.08,0.39-0.16,0.78-0.26,1.16c-0.07,0.25-0.12,0.51-0.21,0.76
			c-0.08,0.25-0.16,0.5-0.24,0.75c-0.17,0.47-0.34,0.95-0.52,1.41c-0.12,0.32-0.24,0.61-0.36,0.92c0.06-0.39,0.17-1.15,0.17-1.22
			c0.02-0.67-0.22-1.77-0.7-2.54c0-0.1,0-0.2-0.02-0.3c-0.12-0.77-0.85-1.35-1.64-1.14c-1.1,0.29-1.79,2.22-1.84,3.23
			c0,0.06,0.04,0.71,0.07,1.12c-0.06-0.24-0.11-0.47-0.17-0.72c-0.12-0.48-0.24-0.97-0.38-1.48c-0.07-0.25-0.15-0.5-0.23-0.75
			c-0.07-0.25-0.18-0.51-0.26-0.77c-0.22-0.59-0.47-1.18-0.73-1.77c0.42-0.1,1.93-0.48,2.53-0.95c0.6-0.46,1.24-1.21,1.23-2.02
			c-0.01-0.78-0.64-1.46-1.45-1.38c-1.13,0.12-2.11,1.92-2.31,2.91c-0.01,0.06-0.08,0.79-0.11,1.19c-0.16-0.35-0.32-0.71-0.5-1.06
			c-0.5-1.02-1.05-2.03-1.58-3.04c-0.16-0.31-0.32-0.62-0.49-0.93c0.15-0.03,1.95-0.45,2.62-0.97c0.6-0.46,1.24-1.21,1.23-2.02
			c-0.01-0.78-0.64-1.46-1.45-1.38c-1.13,0.12-2.11,1.92-2.31,2.91c-0.02,0.07-0.11,1.12-0.12,1.39c-0.36-0.68-0.7-1.37-1.02-2.06
			c-0.44-0.95-0.81-1.91-1.11-2.86c0.07-0.02,1.95-0.44,2.64-0.97c0.6-0.46,1.24-1.21,1.23-2.02c-0.01-0.78-0.64-1.46-1.45-1.38
			c-1.13,0.12-2.11,1.92-2.31,2.91c-0.02,0.08-0.12,1.21-0.12,1.41c-0.02-0.06-0.04-0.11-0.06-0.17c-0.3-1.02-0.47-2.05-0.57-3.02
			c-0.06-0.56-0.09-1.11-0.11-1.63c0.36-0.04,1.99-0.26,2.67-0.67c0.65-0.39,1.36-1.07,1.45-1.87c0.08-0.78-0.47-1.52-1.29-1.53
			c-1.14,0-2.31,1.68-2.62,2.64c-0.02,0.05-0.13,0.6-0.21,1.01c0-0.24-0.01-0.48-0.01-0.71c0-0.86,0.06-1.64,0.11-2.34
			c0.03-0.4,0.07-0.75,0.11-1.09c0.33-0.23,1.64-1.15,2.04-1.81c0.39-0.65,0.72-1.58,0.42-2.32c-0.29-0.73-1.12-1.14-1.85-0.76
			c-1.01,0.52-1.27,2.55-1.11,3.55c0.01,0.09,0.4,1.41,0.41,1.4c0,0,0.02-0.01,0.02-0.01c-0.04,0.32-0.09,0.66-0.13,1.04
			c-0.07,0.7-0.14,1.48-0.16,2.34c-0.02,0.86-0.02,1.8,0.07,2.78c0.09,0.99,0.23,2.02,0.52,3.07c0,0.01,0.01,0.02,0.01,0.04
			c-0.18-0.28-0.7-1.05-0.75-1.1c-0.66-0.77-2.39-1.86-3.44-1.41c-0.75,0.32-0.97,1.22-0.6,1.91
			C424.29,434.2,425.21,434.55,425.96,434.66z"/>
		<path style="fill:#263238;" d="M445.42,429.33c0.02,0.01,0.36-1.32,0.37-1.41c0.14-1-0.18-3.03-1.2-3.52
			c-0.74-0.36-1.56,0.07-1.83,0.81c-0.27,0.75,0.07,1.68,0.48,2.31C443.74,428.26,445.42,429.33,445.42,429.33z"/>
	</g>
	<g>
		<path style="fill:#263238;" d="M380.65,428.89c0.81,0.36,2.81,0.31,2.81,0.31c0.02,0-0.43-1.3-0.47-1.38
			c-0.44-0.91-1.82-2.42-2.94-2.27c-0.81,0.11-1.26,0.92-1.08,1.68C379.15,428.01,379.95,428.58,380.65,428.89z"/>
		<path style="fill:#263238;" d="M381.33,434.66c0.84,0.12,2.62-0.39,2.76-0.43c0.28,1,0.65,1.99,1.08,2.98
			c0.24,0.57,0.51,1.13,0.78,1.69c-0.16-0.24-0.31-0.45-0.33-0.48c-0.66-0.77-2.39-1.86-3.44-1.41c-0.75,0.32-0.97,1.22-0.6,1.91
			c0.39,0.7,1.31,1.05,2.06,1.16c0.76,0.11,2.28-0.3,2.69-0.41c0.11,0.21,0.21,0.43,0.32,0.64c0.51,1.03,1.03,2.05,1.51,3.06
			c0.17,0.36,0.32,0.72,0.48,1.08c-0.14-0.21-0.27-0.39-0.29-0.41c-0.66-0.77-2.39-1.86-3.44-1.41c-0.75,0.32-0.97,1.22-0.6,1.91
			c0.39,0.7,1.31,1.05,2.06,1.16c0.73,0.11,2.14-0.26,2.61-0.39c0.15,0.37,0.29,0.74,0.42,1.11c0.08,0.25,0.17,0.49,0.24,0.75
			c0.07,0.25,0.14,0.51,0.21,0.76c0.12,0.48,0.24,0.98,0.34,1.46c0.07,0.33,0.14,0.65,0.2,0.97c-0.16-0.36-0.5-1.05-0.53-1.11
			c-0.54-0.86-2.09-2.2-3.19-1.92c-0.79,0.2-1.15,1.06-0.88,1.8c0.28,0.75,1.14,1.24,1.86,1.46c0.8,0.24,2.56,0.02,2.78-0.01
			c0.11,0.53,0.2,1.04,0.29,1.53c0.17,0.99,0.31,1.88,0.41,2.65h0.74c-0.13-0.8-0.29-1.74-0.49-2.77c-0.11-0.54-0.23-1.11-0.36-1.69
			c0.13-0.05,0.89-0.36,1.55-0.73c0.58,0.63,2.07,1.37,2.26,1.46c-0.2,0.5-0.4,0.98-0.6,1.43c-0.37,0.86-0.73,1.63-1.05,2.3h0.8
			c0.27-0.61,0.57-1.29,0.87-2.04c0.21-0.5,0.42-1.05,0.63-1.61c0.21,0.04,1.96,0.4,2.77,0.22c0.74-0.17,1.63-0.58,1.96-1.31
			c0.32-0.71,0.03-1.6-0.74-1.86c-1.08-0.36-2.72,0.86-3.32,1.68c-0.04,0.05-0.36,0.61-0.56,0.97c0.09-0.23,0.17-0.45,0.26-0.69
			c0.17-0.47,0.33-0.94,0.5-1.45c0.07-0.25,0.15-0.5,0.22-0.75c0.08-0.25,0.13-0.52,0.2-0.79c0.15-0.61,0.26-1.24,0.37-1.88
			c0.41,0.15,1.87,0.66,2.63,0.61c0.76-0.05,1.7-0.33,2.14-1c0.43-0.66,0.28-1.57-0.45-1.95c-1.01-0.52-2.82,0.44-3.54,1.15
			c-0.04,0.04-0.5,0.62-0.75,0.93c0.06-0.38,0.12-0.77,0.17-1.16c0.14-1.13,0.25-2.27,0.36-3.41c0.03-0.35,0.07-0.7,0.11-1.05
			c0.15,0.05,1.87,0.7,2.72,0.64c0.76-0.05,1.7-0.33,2.14-1c0.43-0.66,0.28-1.57-0.45-1.95c-1.01-0.52-2.82,0.44-3.54,1.15
			c-0.05,0.05-0.71,0.88-0.87,1.09c0.08-0.77,0.17-1.53,0.29-2.28c0.16-1.03,0.37-2.04,0.65-3c0.07,0.03,1.87,0.7,2.74,0.64
			c0.76-0.05,1.7-0.33,2.14-1c0.43-0.66,0.28-1.57-0.45-1.95c-1.01-0.52-2.82,0.44-3.54,1.15c-0.06,0.06-0.76,0.94-0.88,1.11
			c0.02-0.06,0.03-0.12,0.05-0.17c0.31-1.02,0.74-1.97,1.19-2.84c0.26-0.51,0.53-0.97,0.81-1.42c0.32,0.16,1.8,0.88,2.59,0.91
			c0.76,0.03,1.73-0.14,2.24-0.76c0.5-0.61,0.45-1.53-0.23-1.98c-0.95-0.63-2.85,0.13-3.64,0.76c-0.04,0.03-0.44,0.43-0.73,0.73
			c0.13-0.2,0.26-0.41,0.38-0.6c0.47-0.71,0.95-1.34,1.38-1.89c0.25-0.31,0.48-0.59,0.69-0.84c0.4-0.01,2-0.06,2.71-0.39
			c0.69-0.32,1.47-0.92,1.63-1.71c0.16-0.77-0.31-1.57-1.12-1.65c-1.13-0.12-2.47,1.42-2.88,2.35c-0.04,0.08-0.45,1.4-0.43,1.4
			c0,0,0.02,0,0.02,0c-0.21,0.24-0.44,0.51-0.68,0.8c-0.44,0.54-0.94,1.16-1.43,1.87c-0.49,0.71-1.01,1.49-1.48,2.36
			c-0.47,0.87-0.92,1.81-1.26,2.85c0,0.01-0.01,0.02-0.01,0.04c0.01-0.33-0.01-1.26-0.02-1.33c-0.13-1.01-0.97-2.87-2.09-3.08
			c-0.8-0.15-1.49,0.48-1.55,1.26c-0.07,0.8,0.51,1.6,1.08,2.1c0.64,0.57,2.4,1.12,2.54,1.16c-0.32,0.98-0.56,2.02-0.75,3.08
			c-0.11,0.61-0.2,1.22-0.28,1.84c0-0.29-0.01-0.54-0.01-0.58c-0.13-1.01-0.97-2.87-2.09-3.08c-0.8-0.15-1.49,0.48-1.55,1.26
			c-0.07,0.8,0.51,1.6,1.08,2.1c0.57,0.51,2.07,1.01,2.47,1.14c-0.03,0.24-0.06,0.47-0.09,0.71c-0.14,1.14-0.27,2.28-0.43,3.39
			c-0.06,0.39-0.13,0.78-0.2,1.16c0-0.26-0.01-0.47-0.01-0.5c-0.13-1.01-0.97-2.87-2.09-3.08c-0.8-0.15-1.49,0.48-1.55,1.26
			c-0.07,0.8,0.51,1.6,1.08,2.1c0.55,0.49,1.92,0.96,2.4,1.12c-0.08,0.39-0.17,0.78-0.26,1.16c-0.07,0.25-0.12,0.51-0.21,0.76
			c-0.08,0.25-0.16,0.5-0.24,0.75c-0.17,0.47-0.34,0.95-0.52,1.41c-0.12,0.32-0.24,0.61-0.36,0.92c0.06-0.39,0.17-1.15,0.17-1.22
			c0.02-0.67-0.22-1.77-0.7-2.54c0-0.1,0-0.2-0.02-0.3c-0.12-0.77-0.85-1.35-1.64-1.14c-1.1,0.29-1.79,2.22-1.84,3.23
			c0,0.06,0.04,0.71,0.07,1.12c-0.06-0.24-0.11-0.47-0.17-0.72c-0.12-0.48-0.24-0.97-0.38-1.48c-0.07-0.25-0.15-0.5-0.23-0.75
			c-0.07-0.25-0.18-0.51-0.26-0.77c-0.22-0.59-0.47-1.18-0.73-1.77c0.42-0.1,1.93-0.48,2.53-0.95c0.6-0.46,1.24-1.21,1.23-2.02
			c-0.01-0.78-0.64-1.46-1.45-1.38c-1.13,0.12-2.11,1.92-2.31,2.91c-0.01,0.06-0.08,0.79-0.11,1.19c-0.16-0.35-0.32-0.71-0.5-1.06
			c-0.5-1.02-1.05-2.03-1.58-3.04c-0.16-0.31-0.32-0.62-0.49-0.93c0.15-0.03,1.95-0.45,2.62-0.97c0.6-0.46,1.24-1.21,1.23-2.02
			c-0.01-0.78-0.64-1.46-1.45-1.38c-1.13,0.12-2.11,1.92-2.31,2.91c-0.02,0.07-0.11,1.12-0.12,1.39c-0.36-0.68-0.7-1.37-1.02-2.06
			c-0.44-0.95-0.81-1.91-1.11-2.86c0.07-0.02,1.95-0.44,2.64-0.97c0.6-0.46,1.24-1.21,1.23-2.02c-0.01-0.78-0.64-1.46-1.45-1.38
			c-1.13,0.12-2.11,1.92-2.31,2.91c-0.02,0.08-0.12,1.21-0.12,1.41c-0.02-0.06-0.04-0.11-0.06-0.17c-0.3-1.02-0.47-2.05-0.57-3.02
			c-0.06-0.56-0.09-1.11-0.11-1.63c0.36-0.04,1.99-0.26,2.66-0.67c0.65-0.39,1.36-1.07,1.45-1.87c0.08-0.78-0.47-1.52-1.29-1.53
			c-1.13,0-2.31,1.68-2.62,2.64c-0.02,0.05-0.13,0.6-0.21,1.01c0-0.24-0.01-0.48-0.01-0.71c0-0.86,0.06-1.64,0.11-2.34
			c0.03-0.4,0.07-0.75,0.11-1.09c0.33-0.23,1.64-1.15,2.05-1.81c0.39-0.65,0.72-1.58,0.42-2.32c-0.29-0.73-1.12-1.14-1.85-0.76
			c-1.01,0.52-1.27,2.55-1.11,3.55c0.01,0.09,0.4,1.41,0.41,1.4c0,0,0.02-0.01,0.02-0.01c-0.04,0.32-0.09,0.66-0.13,1.04
			c-0.07,0.7-0.14,1.48-0.16,2.34c-0.02,0.86-0.02,1.8,0.07,2.78c0.09,0.99,0.23,2.02,0.52,3.07c0,0.01,0.01,0.02,0.01,0.04
			c-0.18-0.28-0.7-1.05-0.75-1.1c-0.66-0.77-2.39-1.86-3.44-1.41c-0.75,0.32-0.97,1.22-0.6,1.91
			C379.66,434.2,380.58,434.55,381.33,434.66z"/>
		<path style="fill:#263238;" d="M400.8,429.33c0.02,0.01,0.36-1.32,0.37-1.41c0.14-1-0.18-3.03-1.2-3.52
			c-0.74-0.36-1.56,0.07-1.83,0.81c-0.27,0.75,0.07,1.68,0.48,2.31C399.11,428.26,400.79,429.33,400.8,429.33z"/>
	</g>
	<g>
		<path style="fill:#263238;" d="M95.69,428.89c0.81,0.36,2.81,0.31,2.81,0.31c0.02,0-0.43-1.3-0.47-1.38
			c-0.44-0.91-1.82-2.42-2.94-2.27c-0.81,0.11-1.26,0.92-1.08,1.68C94.2,428.01,95,428.58,95.69,428.89z"/>
		<path style="fill:#263238;" d="M96.38,434.66c0.84,0.12,2.62-0.39,2.76-0.43c0.28,1,0.65,1.99,1.08,2.98
			c0.24,0.57,0.51,1.13,0.78,1.69c-0.16-0.24-0.31-0.45-0.33-0.48c-0.66-0.77-2.39-1.86-3.44-1.41c-0.75,0.32-0.97,1.22-0.6,1.91
			c0.39,0.7,1.31,1.05,2.06,1.16c0.76,0.11,2.28-0.3,2.69-0.41c0.11,0.21,0.21,0.43,0.32,0.64c0.51,1.03,1.03,2.05,1.51,3.06
			c0.17,0.36,0.32,0.72,0.48,1.08c-0.14-0.21-0.27-0.39-0.29-0.41c-0.66-0.77-2.39-1.86-3.44-1.41c-0.75,0.32-0.97,1.22-0.6,1.91
			c0.39,0.7,1.31,1.05,2.06,1.16c0.73,0.11,2.14-0.26,2.61-0.39c0.15,0.37,0.29,0.74,0.42,1.11c0.08,0.25,0.17,0.49,0.24,0.75
			c0.07,0.25,0.14,0.51,0.21,0.76c0.12,0.48,0.24,0.98,0.34,1.46c0.07,0.33,0.14,0.65,0.2,0.97c-0.16-0.36-0.5-1.05-0.53-1.11
			c-0.54-0.86-2.09-2.2-3.19-1.92c-0.79,0.2-1.15,1.06-0.88,1.8c0.28,0.75,1.14,1.24,1.86,1.46c0.8,0.24,2.56,0.02,2.78-0.01
			c0.11,0.53,0.2,1.04,0.29,1.53c0.17,0.99,0.31,1.88,0.41,2.65h0.74c-0.13-0.8-0.29-1.74-0.49-2.77c-0.11-0.54-0.23-1.11-0.36-1.69
			c0.13-0.05,0.89-0.36,1.55-0.73c0.58,0.63,2.07,1.37,2.26,1.46c-0.2,0.5-0.4,0.98-0.6,1.43c-0.37,0.86-0.73,1.63-1.05,2.3h0.8
			c0.27-0.61,0.57-1.29,0.87-2.04c0.21-0.5,0.42-1.05,0.63-1.61c0.21,0.04,1.96,0.4,2.77,0.22c0.74-0.17,1.63-0.58,1.96-1.31
			c0.32-0.71,0.03-1.6-0.74-1.86c-1.08-0.36-2.72,0.86-3.32,1.68c-0.04,0.05-0.36,0.61-0.56,0.97c0.09-0.23,0.17-0.45,0.26-0.69
			c0.17-0.47,0.33-0.94,0.5-1.45c0.07-0.25,0.15-0.5,0.22-0.75c0.08-0.25,0.13-0.52,0.2-0.79c0.15-0.61,0.26-1.24,0.37-1.88
			c0.41,0.15,1.87,0.66,2.63,0.61c0.76-0.05,1.7-0.33,2.14-1c0.43-0.66,0.28-1.57-0.45-1.95c-1.01-0.52-2.82,0.44-3.54,1.15
			c-0.04,0.04-0.5,0.62-0.75,0.93c0.06-0.38,0.12-0.77,0.17-1.16c0.14-1.13,0.25-2.27,0.36-3.41c0.03-0.35,0.07-0.7,0.11-1.05
			c0.15,0.05,1.87,0.7,2.72,0.64c0.76-0.05,1.7-0.33,2.14-1c0.43-0.66,0.28-1.57-0.45-1.95c-1.01-0.52-2.82,0.44-3.54,1.15
			c-0.05,0.05-0.71,0.88-0.87,1.09c0.08-0.77,0.17-1.53,0.29-2.28c0.16-1.03,0.37-2.04,0.65-3c0.07,0.03,1.87,0.7,2.74,0.64
			c0.76-0.05,1.7-0.33,2.14-1c0.43-0.66,0.28-1.57-0.45-1.95c-1.01-0.52-2.82,0.44-3.54,1.15c-0.06,0.06-0.76,0.94-0.88,1.11
			c0.02-0.06,0.03-0.12,0.05-0.17c0.31-1.02,0.74-1.97,1.19-2.84c0.26-0.51,0.53-0.97,0.81-1.42c0.32,0.16,1.8,0.88,2.59,0.91
			c0.76,0.03,1.73-0.14,2.24-0.76c0.5-0.61,0.45-1.53-0.23-1.98c-0.95-0.63-2.85,0.13-3.64,0.76c-0.04,0.03-0.44,0.43-0.73,0.73
			c0.13-0.2,0.26-0.41,0.38-0.6c0.47-0.71,0.95-1.34,1.38-1.89c0.25-0.31,0.48-0.59,0.69-0.84c0.4-0.01,2-0.06,2.71-0.39
			c0.69-0.32,1.47-0.92,1.63-1.71c0.16-0.77-0.31-1.57-1.12-1.65c-1.13-0.12-2.47,1.42-2.88,2.35c-0.04,0.08-0.45,1.4-0.43,1.4
			c0,0,0.02,0,0.02,0c-0.21,0.24-0.44,0.51-0.68,0.8c-0.44,0.54-0.94,1.16-1.43,1.87c-0.49,0.71-1.01,1.49-1.48,2.36
			c-0.47,0.87-0.92,1.81-1.26,2.85c0,0.01-0.01,0.02-0.01,0.04c0.01-0.33-0.01-1.26-0.02-1.33c-0.13-1.01-0.97-2.87-2.09-3.08
			c-0.8-0.15-1.48,0.48-1.55,1.26c-0.07,0.8,0.51,1.6,1.08,2.1c0.64,0.57,2.4,1.12,2.54,1.16c-0.31,0.98-0.56,2.02-0.75,3.08
			c-0.11,0.61-0.2,1.22-0.28,1.84c0-0.29-0.01-0.54-0.01-0.58c-0.13-1.01-0.97-2.87-2.09-3.08c-0.8-0.15-1.49,0.48-1.55,1.26
			c-0.07,0.8,0.51,1.6,1.08,2.1c0.57,0.51,2.07,1.01,2.47,1.14c-0.03,0.24-0.06,0.47-0.09,0.71c-0.14,1.14-0.27,2.28-0.43,3.39
			c-0.06,0.39-0.13,0.78-0.2,1.16c0-0.26-0.01-0.47-0.01-0.5c-0.13-1.01-0.97-2.87-2.09-3.08c-0.8-0.15-1.49,0.48-1.55,1.26
			c-0.07,0.8,0.51,1.6,1.08,2.1c0.55,0.49,1.92,0.96,2.4,1.12c-0.08,0.39-0.17,0.78-0.26,1.16c-0.07,0.25-0.12,0.51-0.21,0.76
			c-0.08,0.25-0.16,0.5-0.24,0.75c-0.17,0.47-0.34,0.95-0.52,1.41c-0.12,0.32-0.24,0.61-0.36,0.92c0.06-0.39,0.17-1.15,0.17-1.22
			c0.02-0.67-0.22-1.77-0.7-2.54c0-0.1,0-0.2-0.02-0.3c-0.12-0.77-0.85-1.35-1.64-1.14c-1.1,0.29-1.79,2.22-1.84,3.23
			c0,0.06,0.04,0.71,0.07,1.12c-0.06-0.24-0.11-0.47-0.17-0.72c-0.11-0.48-0.24-0.97-0.38-1.48c-0.07-0.25-0.15-0.5-0.23-0.75
			c-0.07-0.25-0.18-0.51-0.26-0.77c-0.22-0.59-0.47-1.18-0.73-1.77c0.42-0.1,1.93-0.48,2.53-0.95c0.6-0.46,1.24-1.21,1.23-2.02
			c-0.01-0.78-0.64-1.46-1.45-1.38c-1.13,0.12-2.11,1.92-2.31,2.91c-0.01,0.06-0.08,0.79-0.11,1.19c-0.16-0.35-0.32-0.71-0.5-1.06
			c-0.5-1.02-1.05-2.03-1.58-3.04c-0.16-0.31-0.32-0.62-0.49-0.93c0.15-0.03,1.95-0.45,2.62-0.97c0.6-0.46,1.24-1.21,1.23-2.02
			c-0.01-0.78-0.64-1.46-1.45-1.38c-1.13,0.12-2.11,1.92-2.31,2.91c-0.02,0.07-0.11,1.12-0.12,1.39c-0.36-0.68-0.7-1.37-1.02-2.06
			c-0.44-0.95-0.81-1.91-1.11-2.86c0.07-0.02,1.95-0.44,2.64-0.97c0.6-0.46,1.24-1.21,1.23-2.02c-0.01-0.78-0.64-1.46-1.45-1.38
			c-1.13,0.12-2.11,1.92-2.31,2.91c-0.02,0.08-0.12,1.21-0.12,1.41c-0.02-0.06-0.04-0.11-0.06-0.17c-0.3-1.02-0.47-2.05-0.57-3.02
			c-0.06-0.56-0.09-1.11-0.11-1.63c0.36-0.04,1.99-0.26,2.66-0.67c0.65-0.39,1.36-1.07,1.45-1.87c0.08-0.78-0.47-1.52-1.29-1.53
			c-1.13,0-2.31,1.68-2.62,2.64c-0.02,0.05-0.13,0.6-0.21,1.01c0-0.24-0.01-0.48-0.01-0.71c0-0.86,0.06-1.64,0.11-2.34
			c0.03-0.4,0.07-0.75,0.11-1.09c0.33-0.23,1.64-1.15,2.04-1.81c0.39-0.65,0.72-1.58,0.42-2.32c-0.29-0.73-1.12-1.14-1.85-0.76
			c-1.01,0.52-1.27,2.55-1.11,3.55c0.01,0.09,0.4,1.41,0.41,1.4c0,0,0.02-0.01,0.02-0.01c-0.04,0.32-0.09,0.66-0.13,1.04
			c-0.07,0.7-0.14,1.48-0.16,2.34c-0.02,0.86-0.02,1.8,0.07,2.78c0.09,0.99,0.23,2.02,0.52,3.07c0,0.01,0.01,0.02,0.01,0.04
			c-0.18-0.28-0.7-1.05-0.75-1.1c-0.66-0.77-2.39-1.86-3.44-1.41c-0.75,0.32-0.97,1.22-0.6,1.91
			C94.71,434.2,95.63,434.55,96.38,434.66z"/>
		<path style="fill:#263238;" d="M115.84,429.33c0.02,0.01,0.36-1.32,0.37-1.41c0.14-1-0.18-3.03-1.2-3.52
			c-0.74-0.36-1.56,0.07-1.83,0.81c-0.27,0.75,0.07,1.68,0.48,2.31C114.16,428.26,115.84,429.33,115.84,429.33z"/>
	</g>
</g>
<g id="Trees">
	<g>
		<g>
			<path style="fill:#A982F4;" d="M124.65,318.03c0,0,39.02-22.39,82.95-22.73c10.06-14.61,15.91-32.07,15.91-50.81
				c0-51.46-44.05-93.18-98.39-93.18s-98.39,41.72-98.39,93.18c0,18.89,5.94,36.46,16.14,51.15
				C60.6,297.32,106.85,303.04,124.65,318.03z"/>
			<path style="opacity:0.3;fill:#FFFFFF;" d="M124.65,318.03c0,0,39.02-22.39,82.95-22.73c10.06-14.61,15.91-32.07,15.91-50.81
				c0-51.46-44.05-93.18-98.39-93.18s-98.39,41.72-98.39,93.18c0,18.89,5.94,36.46,16.14,51.15
				C60.6,297.32,106.85,303.04,124.65,318.03z"/>
		</g>
		<path style="fill:#263238;" d="M176.13,271.1c-2.67,2.67-7.73,4.26-15.33,7.46c0.53-0.64,1.07-1.36,1.58-2.2
			c3.24-5.26,7.69-14.97,7.69-14.97s-9.71,10.92-12.14,14.97c-0.94,1.57-2.61,3.56-4.3,5.41c-0.71,0.34-1.43,0.69-2.17,1.06
			c-12.95,6.47-19.01,8.09-19.01,8.09s0.4-7.28,0.4-9.3c0-2.02,0.81-8.9,4.45-16.18s10.52-13.75,14.56-23.87
			c4.05-10.11,3.64-20.23,3.64-20.23l-2.02,6.88c0,0-3.24,9.71-6.88,14.97c-3.64,5.26-9.71,13.35-14.16,20.23
			c-4.01,6.21-6.05,17.02-6.41,19.07c0.07-0.54,0.12-1.61-0.46-2.49c-0.81-1.21-2.83-8.5-4.05-11.33c-0.43-1-1.12-2.11-2.01-3.35
			c-0.86-6.37-2.85-11.61-2.85-11.61l0.33,8.29c-1.19-1.51-2.52-3.17-3.97-5.06c-4.05-5.26-8.09-14.56-8.09-11.73
			s4.05,8.5,10.11,18.61c6.07,10.11,5.66,17.8,5.66,17.8s-3.24-5.26-11.33-10.92c-8.09-5.66-14.97-7.69-25.89-15.78
			c-10.92-8.09-15.78-22.25-15.78-22.25s0.77,6.94,4.85,13.75c2.43,4.05,12.14,16.99,26.3,23.46c14.16,6.47,17.4,17.4,17.4,27.1
			c0,9.71,1.37,18.66,1.37,18.66l-5.55,138.82h11.22h2.78h11.22l-5.33-133.23c0.01-7.02,0.44-19.48,3.3-22.63
			c4.05-4.45,14.16-10.52,20.63-14.16c6.47-3.64,16.18-6.07,20.23-10.52c4.05-4.45,8.09-11.73,8.09-11.73
			S179.77,267.46,176.13,271.1z"/>
	</g>
	<g>
		<g>
			<path style="fill:#A982F4;" d="M379.55,339.57c0,0,32.86-18.86,69.85-19.14c8.47-12.31,13.4-27,13.4-42.79
				c0-43.34-37.1-78.47-82.86-78.47c-45.76,0-82.86,35.13-82.86,78.47c0,15.91,5,30.71,13.6,43.07
				C325.62,322.13,364.57,326.94,379.55,339.57z"/>
			<path style="opacity:0.3;fill:#FFFFFF;" d="M379.55,339.57c0,0,32.86-18.86,69.85-19.14c8.47-12.31,13.4-27,13.4-42.79
				c0-43.34-37.1-78.47-82.86-78.47c-45.76,0-82.86,35.13-82.86,78.47c0,15.91,5,30.71,13.6,43.07
				C325.62,322.13,364.57,326.94,379.55,339.57z"/>
		</g>
		<path style="fill:#263238;" d="M352.87,309.11c-4.82-1.89-8.26-2.58-14.62-4.82c-6.36-2.24-11.35-5.33-11.35-5.33
			s7.23,2.75,11.87,3.96c4.64,1.2,10.15,3.1,10.15,3.1s-3.44-2.58-6.02-5.16c-2.58-2.58-6.36-9.12-6.36-9.12s4.47,6.02,8.26,8.6
			c3.78,2.58,14.28,7.22,22.54,12.56c8.26,5.33,11.18,12.21,11.18,12.21s0.34-7.23-0.34-13.25c-0.69-6.02-1.2-19.27-1.2-19.27
			s-2.92-6.71-5.33-9.81c-2.41-3.1-9.63-3.27-14.11-6.36c-4.47-3.1-11.87-8.09-11.87-8.09s9.46,5.16,15.65,7.05
			c6.19,1.89,9.12,4.13,9.12,4.13s-3.96-7.22-6.36-10.15s-8.77-11.01-8.77-11.01s6.88,6.88,9.63,10.49
			c2.75,3.61,7.74,9.98,7.74,9.98s0.69-3.44,3.1-7.4c2.41-3.96,6.71-22.19,6.71-22.19s-1.55,13.25-3.96,19.44
			c-2.41,6.19-4.13,11.7-4.13,11.7l3.78,7.91c0,0,0.17-2.06,3.44-5.68c3.27-3.61,6.54-5.68,11.53-9.63
			c4.99-3.96,13.93-15.48,13.93-15.48s-2.92,4.82-6.88,9.98c-3.96,5.16-12.04,11.18-12.04,11.18s7.22-1.38,9.29-2.06
			c2.06-0.69,4.82-2.24,8.77-5.16c3.96-2.92,11.18-11.18,11.18-11.18s-2.06,3.44-3.61,5.68c-1.55,2.24-7.22,7.74-13.93,11.7
			c-6.71,3.96-11.53,0.52-15.65,6.88c-4.13,6.36-2.92,20.64,0,31.31c1.7,6.2,2.88,9.9,3.56,11.91c1.24-1.6,2.81-3.37,4.35-4.34
			c1.67-1.05,3.65-2.24,5.76-3.4c0.33-3.2,1.7-10.96,4.22-14.66c2.92-4.3,6.71-8.6,8.6-11.87c1.89-3.27,2.75-12.04,2.75-12.04
			s-0.17,3.1-0.34,8.43c-0.17,5.33-3.27,7.74-8.09,15.31c-3.66,5.75-4.44,11.2-4.6,13.49c1.24-0.63,2.5-1.24,3.74-1.79
			c4.3-1.89,9.12-3.44,15.48-6.02c6.36-2.58,15.14-12.73,15.14-12.73s-1.2,3.96-8.95,10.32c-7.74,6.36-11.35,6.71-19.78,10.32
			c-8.43,3.61-11.7,6.54-14.79,11.18c-2.06,3.09-2.9,6.02-3.23,7.64l4.67,116.9h-9.45h-2.34h-9.45l4.86-121.6
			c-0.63-4.51-3.37-7.81-7.09-12.93c-4.13-5.68-6.71-5.16-11.87-4.64c-5.16,0.52-14.11,1.03-14.11,1.03s9.81-1.2,12.9-2.75
			c3.1-1.55,4.82-0.17,4.13-0.69C359.58,312.38,357.69,311,352.87,309.11z"/>
	</g>
	<g>
		<g>
			<path style="fill:#8342EA;" d="M254.26,258.54c0,0,56.03-32.16,119.11-32.64c14.45-20.99,22.85-46.05,22.85-72.97
				c0-73.9-63.26-133.8-141.29-133.8s-141.29,59.9-141.29,133.8c0,27.13,8.53,52.36,23.18,73.45
				C162.3,228.8,228.71,237.02,254.26,258.54z"/>
		</g>
		<path style="fill:#263238;" d="M304.09,206.61c8.21-3.23,14.08-4.4,24.93-8.21c10.85-3.81,19.36-9.09,19.36-9.09
			s-12.32,4.69-20.24,6.75c-7.92,2.05-17.31,5.28-17.31,5.28s5.87-4.4,10.27-8.8c4.4-4.4,10.85-15.55,10.85-15.55
			s-7.63,10.27-14.08,14.67c-6.45,4.4-24.35,12.32-38.43,21.41c-14.08,9.09-19.07,20.83-19.07,20.83s-0.59-12.32,0.59-22.59
			c1.17-10.27,2.05-32.85,2.05-32.85s4.99-11.44,9.09-16.72c4.11-5.28,16.43-5.57,24.05-10.85c7.63-5.28,20.24-13.79,20.24-13.79
			s-16.13,8.8-26.69,12.03c-10.56,3.23-15.55,7.04-15.55,7.04s6.75-12.32,10.85-17.31c4.11-4.99,14.96-18.77,14.96-18.77
			s-11.73,11.73-16.43,17.89c-4.69,6.16-13.2,17.01-13.2,17.01s-1.17-5.87-5.28-12.61c-4.11-6.75-11.44-37.84-11.44-37.84
			s2.64,22.59,6.75,33.15c4.11,10.56,7.04,19.95,7.04,19.95l-6.45,13.49c0,0-0.29-3.52-5.87-9.68c-5.57-6.16-11.15-9.68-19.65-16.43
			c-8.51-6.75-23.76-26.4-23.76-26.4s4.99,8.21,11.73,17.01c6.75,8.8,20.53,19.07,20.53,19.07s-12.32-2.35-15.84-3.52
			c-3.52-1.17-8.21-3.81-14.96-8.8c-6.75-4.99-19.07-19.07-19.07-19.07s3.52,5.87,6.16,9.68c2.64,3.81,12.32,13.2,23.76,19.95
			c11.44,6.75,19.65,0.88,26.69,11.73c7.04,10.85,4.99,35.2,0,53.39c-2.9,10.58-4.91,16.88-6.08,20.31
			c-2.11-2.73-4.79-5.75-7.42-7.4c-2.84-1.79-6.22-3.82-9.82-5.8c-0.57-5.45-2.9-18.69-7.19-25c-4.99-7.33-11.44-14.67-14.67-20.24
			c-3.23-5.57-4.69-20.53-4.69-20.53s0.29,5.28,0.59,14.37c0.29,9.09,5.57,13.2,13.79,26.11c6.24,9.81,7.57,19.1,7.85,23
			c-2.12-1.08-4.26-2.12-6.38-3.05c-7.33-3.23-15.55-5.87-26.4-10.27c-10.85-4.4-25.81-21.71-25.81-21.71s2.05,6.75,15.25,17.6
			c13.2,10.85,19.36,11.44,33.73,17.6c14.37,6.16,19.95,11.15,25.23,19.07c3.51,5.27,4.94,10.27,5.51,13.03l-7.97,199.34h16.11h3.99
			h16.11l-8.29-207.34c1.08-7.68,5.74-13.32,12.09-22.04c7.04-9.68,11.44-8.8,20.24-7.92c8.8,0.88,24.05,1.76,24.05,1.76
			s-16.72-2.05-22-4.69c-5.28-2.64-8.21-0.29-7.04-1.17C292.65,212.18,295.88,209.84,304.09,206.61z"/>
	</g>
</g>
<g id="Floor">
	<line style="fill:none;stroke:#263238;stroke-miterlimit:10;" x1="473.66" y1="453.69" x2="24.1" y2="453.69"/>
</g>
<g id="Character">
	<g>
		<g>
			<path style="fill:none;stroke:#263238;stroke-miterlimit:10;" d="M241.83,335.61c0,0-1.85-4.73-3.7-1.85
				c-1.85,2.88,0.62,6.37,1.85,7.61c1.23,1.23,3.49,2.26,3.49,2.26L241.83,335.61z"/>
			<path style="fill:none;stroke:#263238;stroke-miterlimit:10;" d="M271.99,335.61c0,0,1.85-4.73,3.7-1.85
				c1.85,2.88-0.62,6.37-1.85,7.61c-1.23,1.23-3.49,2.26-3.49,2.26L271.99,335.61z"/>
			<path style="fill:#FFFFFF;stroke:#263238;stroke-miterlimit:10;" d="M288.39,366.56c0,0,0.59-3.24,2.65-6.77
				c2.06-3.53,9.13-20.31,9.13-20.31s6.77-17.96,7.07-21.79c0.29-3.83-8.54-9.72-14.43-15.6c-5.89-5.89-30.03-23.55-30.03-23.55
				s-1.91-13.84-1.91-15.9c0-2.06-2.06-4.42-2.36-5.89c-0.29-1.47-2.36-2.06-2.36,0.29s1.18,4.12,1.18,4.12s0.81,3.24,0.51,6.18
				c-0.29,2.94-0.96,10.3-0.96,12.07c0,1.77,3.53,4.71,3.53,4.71s13.25,13.54,17.08,19.43c3.83,5.89,13.84,16.19,13.84,16.19
				l-7.36,19.14c0,0-1.77,1.47-5,5.3c-3.24,3.83-6.18,10.6-6.18,10.6l-7.07,2.36l1.18-7.95c0,0,1.18-0.88,2.94-4.42
				c1.77-3.53,2.06-10.3,2.06-10.3s0.88-5.3,0.88-8.24c0-2.94,0.88-5.3-3.83-11.19c-3.95-4.94-10.39-5.11-12.36-5.04
				c-1.97-0.07-8.41,0.1-12.36,5.04c-4.71,5.89-3.83,8.24-3.83,11.19c0,2.94,0.88,8.24,0.88,8.24s0.29,6.77,2.06,10.3
				c1.77,3.53,2.94,4.42,2.94,4.42l1.18,7.95l-7.07-2.36c0,0-2.94-6.77-6.18-10.6c-3.24-3.83-5-5.3-5-5.3l-7.36-19.14
				c0,0,10.01-10.3,13.84-16.19c3.83-5.89,17.08-19.43,17.08-19.43s3.53-2.94,3.53-4.71c0-1.77-1.47-9.13-1.77-12.07
				c-0.29-2.94,0.51-6.18,0.51-6.18s0.37-1.77,0.37-4.12s-1.25-1.77-1.55-0.29c-0.29,1.47-2.36,3.83-2.36,5.89
				c0,2.06-1.1,15.9-1.1,15.9s-24.14,17.66-30.03,23.55c-5.89,5.89-14.72,11.78-14.43,15.6c0.29,3.83,7.07,21.79,7.07,21.79
				s7.07,16.78,9.13,20.31c2.06,3.53,2.65,6.77,2.65,6.77s1.47,15.31,4.12,26.5c2.65,11.19,4.12,19.14,4.12,22.67
				s-1.47,8.83-1.47,8.83s-7.65,7.65-11.78,15.31c-4.12,7.65-7.65,13.54-7.65,13.54s26.38,14.29,43.56,16.85l0,0.23
				c0.29-0.03,0.59-0.07,0.89-0.11c0.3,0.04,0.6,0.08,0.89,0.11l0-0.23c17.19-2.56,43.56-16.85,43.56-16.85s-3.53-5.89-7.65-13.54
				c-4.12-7.65-11.78-15.31-11.78-15.31s-1.47-5.3-1.47-8.83s1.47-11.48,4.12-22.67C286.91,381.87,288.39,366.56,288.39,366.56z"/>
			<line style="fill:none;stroke:#263238;stroke-miterlimit:10;" x1="228.9" y1="340.5" x2="230.93" y2="356.4"/>
			<path style="fill:none;stroke:#263238;stroke-miterlimit:10;" d="M284.4,341.08c0,0-1.73,11.27-0.29,14.16"/>
			<line style="fill:none;stroke:#263238;stroke-miterlimit:10;" x1="246.29" y1="349.19" x2="252.31" y2="352.05"/>
			<line style="fill:none;stroke:#263238;stroke-miterlimit:10;" x1="266.9" y1="349.19" x2="260.74" y2="352.67"/>
			<path style="fill:#7A7A7A;stroke:#263238;stroke-miterlimit:10;" d="M258.27,313.41c2.67-0.21,3.7-2.06,6.37-1.03
				c2.67,1.03,4.93,2.47,5.14,5.14c0.21,2.67-0.82,3.29,0,4.93c0.82,1.64,1.64,2.67,1.64,6.17c0,3.49,0.48,5.85,0.48,5.85
				s0.88-5.3,0.88-8.24c0-2.94,0.88-5.3-3.83-11.19c-3.95-4.94-10.39-5.11-12.36-5.04c-1.97-0.07-8.41,0.1-12.36,5.04
				c-4.71,5.89-3.83,8.24-3.83,11.19c0,1.22,0.15,2.85,0.33,4.33c0.18-1.54,0.37-3.31,0.47-4.4c0.21-2.26,3.29-5.34,3.29-7.4
				c0-2.06,0.62-7.19,6.37-7.4C250.87,311.35,255.6,313.61,258.27,313.41z"/>
			<g>
				<path style="fill:none;stroke:#263238;stroke-miterlimit:10;" d="M259.91,324.71c0,0-1.85,2.67-1.44,4.93"/>
				<path style="fill:none;stroke:#263238;stroke-miterlimit:10;" d="M260.53,326.98c0,0,3.49-1.44,6.17,0.41"/>
				<path style="fill:none;stroke:#263238;stroke-miterlimit:10;" d="M253.34,326.98c0,0-3.7-1.44-6.17,0.62"/>
				<path style="fill:none;stroke:#263238;stroke-miterlimit:10;" d="M246.55,323.89c0,0,3.49-4.11,7.61-2.06"/>
				<path style="fill:none;stroke:#263238;stroke-miterlimit:10;" d="M260.94,322.04c0,0,3.49-2.47,7.19,2.06"/>
				<path style="fill:none;stroke:#263238;stroke-miterlimit:10;" d="M250.66,336.22c0,0,0.62,0.62,2.06,0.21
					c1.44-0.41,2.67-1.85,4.52-1.44c1.85,0.41,3.29,2.26,4.73,1.44"/>
				<line style="fill:none;stroke:#263238;stroke-miterlimit:10;" x1="259.5" y1="330.26" x2="257.45" y2="332.11"/>
			</g>
			<path style="fill:#8342EA;stroke:#263238;stroke-miterlimit:10;" d="M284.27,393.05c0.23-0.98,0.46-2,0.67-3.03
				c-1-2.51-2.3-5.72-3.64-8.98c-2.88-6.99-11.72-24.87-11.72-24.87l-3.86,0.97c0,0,6.32,10.74,5.09,13.42
				c-1.23,2.67-9.46,10.28-15.42,9.66c-5.96-0.62-14.39-5.76-13.77-9.04c0.62-3.29,5.85-14.03,5.85-14.03l-3.87-1.29
				c-5.68,7.4-12.36,27.96-14.9,36.25c0.07,0.32,0.15,0.64,0.22,0.96c0.99,4.18,1.81,7.9,2.46,11.12
				c4.52-2.19,11.67-3.86,20.51-4.43c12.74-0.82,23.09,2.96,29.87,4.63C282.42,401.11,283.25,397.32,284.27,393.05z"/>
			<path style="fill:#8342EA;stroke:#263238;stroke-miterlimit:10;" d="M293.39,439.86c-4.12-7.65-11.78-15.31-11.78-15.31
				c-30.71,5.9-50.04,0-50.04,0s-7.65,7.65-11.78,15.31c-4.12,7.65-7.65,13.54-7.65,13.54s26.38,14.29,43.56,16.85l0,0.23
				c0.29-0.03,0.59-0.07,0.89-0.11c0.3,0.04,0.6,0.08,0.89,0.11l0-0.23c17.19-2.56,43.56-16.85,43.56-16.85
				S297.51,447.52,293.39,439.86z"/>
		</g>
		<g>
			<path style="fill:#FFFFFF;stroke:#263238;stroke-miterlimit:10;" d="M214.49,452.98c0,0-8.43,0.62-16.24-0.21
				c-7.81-0.82-16.86-0.41-24.26,4.52c-7.4,4.93-7.61,10.69-4.73,15.21c2.88,4.52,19.32,9.87,47.48,9.04
				c28.16-0.82,48.3-3.08,56.94-3.08c8.63,0,16.24,0,16.86,0c0.62,0-23.43-5.34-36.18-10.48c-12.74-5.14-27.95-10.89-30.83-12.13
				C220.65,454.62,214.49,452.98,214.49,452.98z"/>
			<path style="fill:#8342EA;stroke:#263238;stroke-miterlimit:10;" d="M253.75,467.74c-12.61-5.07-27.38-10.67-30.22-11.88
				c-2.88-1.23-9.04-2.88-9.04-2.88s-8.43,0.62-16.24-0.21c-7.81-0.82-16.86-0.41-24.26,4.52c-7.4,4.93-7.61,10.69-4.73,15.21
				c2.88,4.52,19.32,9.87,47.48,9.04c14.68-0.43,27.17-1.25,37-1.93V467.74z"/>
			<path style="fill:none;stroke:#263238;stroke-miterlimit:10;" d="M198.86,459.97c0,0,19.73-0.62,29.19,2.47"/>
		</g>
		<g>
			<path style="fill:#FFFFFF;stroke:#263238;stroke-miterlimit:10;" d="M243.68,471.48c0,0-9.04-3.91-14.18-6.99
				c-5.14-3.08-13.57-8.02-17.27-8.84s-7.61-0.21-6.78-1.44c0.82-1.23,5.14-5.14,11.51-4.93c6.37,0.21,11.51,3.08,12.13,3.08
				c0.62,0,9.46-3.7,13.16-2.67c3.7,1.03,6.78,10.69,7.81,11.72c1.03,1.03,1.85,1.85,4.52,1.85s19.53-1.23,31.04-4.11
				c11.51-2.88,22.2-9.25,34.33-9.66s20.14,2.47,21.79,7.19c1.64,4.73-0.41,10.28-2.88,13.36c-2.47,3.08-15.62,10.07-23.23,10.07
				c-7.61,0-26.72-0.21-35.97-2.06c-9.25-1.85-26.93-4.73-28.16-4.73C250.25,473.33,243.68,471.48,243.68,471.48z"/>
			<path style="fill:#8342EA;stroke:#263238;stroke-miterlimit:10;" d="M319.93,449.48c-12.13,0.41-22.82,6.78-34.33,9.66
				c-10.04,2.51-24.13,3.77-29.35,4.05c-2.13,2.32-3.81,5.86-1.6,10.54c5.76,0.86,17.87,2.89,24.99,4.32
				c9.25,1.85,28.37,2.06,35.97,2.06c7.61,0,20.76-6.99,23.23-10.07c2.47-3.08,4.52-8.63,2.88-13.36
				C340.08,451.95,332.06,449.07,319.93,449.48z"/>
		</g>
	</g>
</g>
<g id="Leaves">
	<g>
		<path style="fill:#8342EA;" d="M152.14,296.36c0,0,2.28,1.16,5.8,1.35c3.53,0.19,4.94-4.74,4.94-4.74S157.08,291.63,152.14,296.36
			z"/>
		<path style="fill:#8342EA;" d="M220.48,248.27c0,0,2.28,1.16,5.8,1.35c3.53,0.19,4.94-4.74,4.94-4.74S225.42,243.54,220.48,248.27
			z"/>
		<path style="fill:#8342EA;" d="M133.88,228.74c0,0,2.28,1.16,5.8,1.35c3.53,0.19,4.94-4.74,4.94-4.74S138.82,224.01,133.88,228.74
			z"/>
		<path style="fill:#8342EA;" d="M151.23,236.22c0,0,0.32-2.53-0.7-5.92c-1.01-3.38-6.13-3.04-6.13-3.04S145.1,233.18,151.23,236.22
			z"/>
		<path style="fill:#8342EA;" d="M395.72,191.77c0,0,2.28,1.16,5.8,1.35c3.53,0.19,4.94-4.74,4.94-4.74S400.66,187.03,395.72,191.77
			z"/>
		<path style="fill:#8342EA;" d="M327.85,243.11c0,0,2.28,1.16,5.8,1.35c3.53,0.19,4.94-4.74,4.94-4.74S332.79,238.38,327.85,243.11
			z"/>
		<path style="fill:#8342EA;" d="M310.92,349.89c0,0-0.69-2.46-2.93-5.19c-2.24-2.73-6.83-0.44-6.83-0.44
			S304.1,349.46,310.92,349.89z"/>
		<path style="fill:#8342EA;" d="M216.56,375.44c0,0-0.69-2.46-2.93-5.19s-6.83-0.44-6.83-0.44S209.73,375,216.56,375.44z"/>
		<path style="fill:#8342EA;" d="M118.52,211.84c0,0-0.69-2.46-2.93-5.19c-2.24-2.73-6.83-0.44-6.83-0.44
			S111.69,211.4,118.52,211.84z"/>
	</g>
</g>
</svg>
