<?xml version="1.0" encoding="utf-8"?>
<!-- Generator: Adobe Illustrator 25.2.0, SVG Export Plug-In . SVG Version: 6.00 Build 0)  -->
<svg version="1.1" xmlns="http://www.w3.org/2000/svg" xmlns:xlink="http://www.w3.org/1999/xlink" x="0px" y="0px"
	 viewBox="0 0 750 500" style="enable-background:new 0 0 750 500;" xml:space="preserve">
<g id="Background_Simple">
	<g>
		<path style="fill:#D4C0FC;" d="M656,147c0,0-58-95-201-114s-169,59-198,86s-79,22-156,74S25,303,47,359s98,105,188,112
			s136-35,209-34s135,31,193,8S737,237,656,147z"/>
		<path style="opacity:0.7;fill:#FFFFFF;" d="M656,147c0,0-58-95-201-114s-169,59-198,86s-79,22-156,74S25,303,47,359
			s98,105,188,112s136-35,209-34s135,31,193,8S737,237,656,147z"/>
	</g>
</g>
<g id="Pictures">
	<g style="opacity:0.3;">
		
			<rect x="148.89" y="44.64" style="fill:none;stroke:#000000;stroke-linejoin:round;stroke-miterlimit:10;" width="99" height="132.73"/>
		<rect x="152.89" y="50" style="fill:none;stroke:#000000;stroke-linejoin:round;stroke-miterlimit:10;" width="91" height="122"/>
		
			<rect x="173.77" y="78" style="fill:none;stroke:#000000;stroke-linejoin:round;stroke-miterlimit:10;" width="49.23" height="66"/>
	</g>
	<g style="opacity:0.3;">
		
			<rect x="262.89" y="114.79" style="fill:none;stroke:#000000;stroke-linejoin:round;stroke-miterlimit:10;" width="65.91" height="88.36"/>
		
			<rect x="265.55" y="118.36" style="fill:none;stroke:#000000;stroke-linejoin:round;stroke-miterlimit:10;" width="60.58" height="81.22"/>
		
			<rect x="279.45" y="137" style="fill:none;stroke:#000000;stroke-linejoin:round;stroke-miterlimit:10;" width="32.77" height="43.94"/>
	</g>
</g>
<g id="Window">
	<g>
		<path style="opacity:0.3;" d="M616.66,37.1c-2.37,0-4.36,1.54-5.08,3.66h-263.2c-0.72-2.13-2.71-3.66-5.08-3.66
			c-2.97,0-5.39,2.41-5.39,5.39c0,2.97,2.41,5.39,5.39,5.39c2.37,0,4.36-1.54,5.08-3.66h263.2c0.72,2.12,2.71,3.66,5.08,3.66
			c2.97,0,5.39-2.41,5.39-5.39C622.05,39.51,619.64,37.1,616.66,37.1z"/>
		<g style="opacity:0.3;">
			<path style="fill:none;stroke:#000000;stroke-linejoin:round;stroke-miterlimit:10;" d="M410.64,45.18
				c3.75,91.25,7.03,183.37,10.96,274.28l-0.39,17.82c0,0-16.87,0-25.75,0.89c-8.88,0.89-22.64,0.89-32.41,0.89
				c-9.77,0-15.09-3.55-15.09-3.55l0.64-16.07c1.97-90.87,4.1-183,5.48-274.25"/>
			
				<line style="fill:none;stroke:#000000;stroke-linejoin:round;stroke-miterlimit:10;" x1="368.58" y1="304.37" x2="368.54" y2="315.12"/>
			
				<line style="fill:none;stroke:#000000;stroke-linejoin:round;stroke-miterlimit:10;" x1="369.5" y1="95.04" x2="368.63" y2="294.83"/>
			
				<line style="fill:none;stroke:#000000;stroke-linejoin:round;stroke-miterlimit:10;" x1="369.73" y1="43.16" x2="369.53" y2="89.08"/>
			
				<line style="fill:none;stroke:#000000;stroke-linejoin:round;stroke-miterlimit:10;" x1="384.86" y1="148.11" x2="382.85" y2="281.12"/>
			
				<line style="fill:none;stroke:#000000;stroke-linejoin:round;stroke-miterlimit:10;" x1="386.43" y1="44.35" x2="384.99" y2="139.79"/>
			
				<line style="fill:none;stroke:#000000;stroke-linejoin:round;stroke-miterlimit:10;" x1="398.99" y1="185.1" x2="399.55" y2="308.56"/>
			
				<line style="fill:none;stroke:#000000;stroke-linejoin:round;stroke-miterlimit:10;" x1="398.59" y1="97.43" x2="398.94" y2="174.96"/>
			
				<line style="fill:none;stroke:#000000;stroke-linejoin:round;stroke-miterlimit:10;" x1="398.36" y1="45.54" x2="398.55" y2="87.89"/>
		</g>
		<g style="opacity:0.3;">
			<path style="fill:none;stroke:#000000;stroke-linejoin:round;stroke-miterlimit:10;" d="M546.8,45.18
				c-3.61,96.61-8.2,194.2-11.66,290.3c0,0,11.49,1.74,18.88,1.74c7.39,0,8.87,0,17,0s12.57,0,20.7,0s17.46-1.8,17.46-1.8
				c-1.7-96.04-2.85-193.62-5.83-290.23"/>
			
				<line style="fill:none;stroke:#000000;stroke-linejoin:round;stroke-miterlimit:10;" x1="588.86" y1="304.37" x2="588.9" y2="315.12"/>
			
				<line style="fill:none;stroke:#000000;stroke-linejoin:round;stroke-miterlimit:10;" x1="587.94" y1="95.04" x2="588.82" y2="294.83"/>
			
				<line style="fill:none;stroke:#000000;stroke-linejoin:round;stroke-miterlimit:10;" x1="587.71" y1="43.16" x2="587.91" y2="89.08"/>
			
				<line style="fill:none;stroke:#000000;stroke-linejoin:round;stroke-miterlimit:10;" x1="572.58" y1="148.11" x2="574.59" y2="281.12"/>
			
				<line style="fill:none;stroke:#000000;stroke-linejoin:round;stroke-miterlimit:10;" x1="571.01" y1="44.35" x2="572.45" y2="139.79"/>
			
				<line style="fill:none;stroke:#000000;stroke-linejoin:round;stroke-miterlimit:10;" x1="558.45" y1="185.1" x2="557.89" y2="308.56"/>
			
				<line style="fill:none;stroke:#000000;stroke-linejoin:round;stroke-miterlimit:10;" x1="558.85" y1="97.43" x2="558.5" y2="174.96"/>
			
				<line style="fill:none;stroke:#000000;stroke-linejoin:round;stroke-miterlimit:10;" x1="559.08" y1="45.54" x2="558.89" y2="87.89"/>
		</g>
		<g style="opacity:0.3;">
			<polyline style="fill:none;stroke:#000000;stroke-linejoin:round;stroke-miterlimit:10;" points="412.31,71.11 438.8,71.11 
				438.8,102.01 414.08,102.01 			"/>
			
				<rect x="443.42" y="71.18" style="fill:none;stroke:#000000;stroke-linejoin:round;stroke-miterlimit:10;" width="27.69" height="31"/>
		</g>
		<g style="opacity:0.3;">
			<polyline style="fill:none;stroke:#000000;stroke-linejoin:round;stroke-miterlimit:10;" points="545.49,71.11 519,71.11 
				519,102.01 543.72,102.01 			"/>
			
				<rect x="486.69" y="71.18" transform="matrix(-1 -1.224647e-16 1.224647e-16 -1 1001.0703 173.3629)" style="fill:none;stroke:#000000;stroke-linejoin:round;stroke-miterlimit:10;" width="27.69" height="31"/>
		</g>
		<polyline style="opacity:0.3;fill:none;stroke:#000000;stroke-linejoin:round;stroke-miterlimit:10;" points="416.68,211.53 
			471.81,211.53 471.81,118.88 414.26,118.88 		"/>
		<polyline style="opacity:0.3;fill:none;stroke:#000000;stroke-linejoin:round;stroke-miterlimit:10;" points="542.7,118.1 
			486.35,118.1 486.35,211.53 538.45,211.53 		"/>
		<polyline style="opacity:0.3;fill:none;stroke:#000000;stroke-linejoin:round;stroke-miterlimit:10;" points="418.5,233.51 
			471.81,233.51 471.81,326.65 422.54,326.65 		"/>
		<polyline style="opacity:0.3;fill:none;stroke:#000000;stroke-linejoin:round;stroke-miterlimit:10;" points="539.06,232.73 
			486.35,232.73 486.35,327.51 534.41,327.51 		"/>
		
			<line style="opacity:0.3;fill:none;stroke:#000000;stroke-linejoin:round;stroke-miterlimit:10;" x1="422.3" y1="333.43" x2="535.15" y2="333.43"/>
		
			<line style="opacity:0.3;fill:none;stroke:#000000;stroke-linejoin:round;stroke-miterlimit:10;" x1="412.09" y1="60.38" x2="545.42" y2="60.38"/>
		
			<line style="opacity:0.3;fill:none;stroke:#000000;stroke-linejoin:round;stroke-miterlimit:10;" x1="479.08" y1="61.02" x2="479.08" y2="332.15"/>
		
			<line style="opacity:0.3;fill:none;stroke:#000000;stroke-linejoin:round;stroke-miterlimit:10;" x1="413.78" y1="111.72" x2="543.47" y2="111.72"/>
	</g>
</g>
<g id="Plant">
	<g>
		<path style="fill:none;stroke:#263238;stroke-width:2;stroke-linecap:round;stroke-miterlimit:10;" d="M664.23,197.07
			c0,0-18.91-10.51-20.31,13.31c-1.4,23.81-4.9,178.59-4.9,178.59"/>
		<path style="fill:none;stroke:#263238;stroke-width:2;stroke-linecap:round;stroke-miterlimit:10;" d="M634.1,212.48
			c0,0,15.42,34.32,8.42,174.39"/>
		<g>
			<path style="fill:#8342EA;" d="M649.25,201.86c0,0-7.23,4.63-11.35-0.67c-4.12-5.3,2.78-15.02-3.3-19.18
				c-6.08-4.16-16.58,2.19-16.58,2.19s8.08,2.37,7.82,6.79s-4.15,6.08-4.67,4.15c-0.52-1.93-4.37-11.65-10.94-7.6
				c-6.57,4.04-7.57,10.31-7.57,10.31s15.28-1.63,16.21,4.12c0.93,5.75-6.27-1-12.57-1.37c-6.3-0.37-12.05,0.55-11.65,4.37
				c0.41,3.82-0.6,10.09-0.6,10.09s5.34-4.75,12.28-4.34c6.94,0.41,6.67,4.82,0.37,4.45c-6.3-0.37-11.72,5.64-11.72,5.64
				s5.75,9.83,13.05,14.69c7.31,4.86,9.94,3.12,10.79-0.63c0.85-3.75-1.11-13.35,3.3-13.09c4.41,0.26-7.31,16.65-1.67,17.62
				c5.64,0.97,10.16-0.67,11.65-4.37c1.48-3.71,1.48-3.71,1.48-3.71s-1.96-9.61-1.11-13.35c0.85-3.75,1.89,0.11,2.89,4.6
				c1,4.49,1.63,15.28,3.56,14.76c1.93-0.52,8.09-8.38,9.53-11.46c1.45-3.08-8.12-12.5-8.01-14.39c0.11-1.89,7.49,1.71,8.64,3.67
				c1.15,1.97,2.26,4.56,2.26,4.56s4.6-2.89,4.49-11.76C655.75,199.08,649.25,201.86,649.25,201.86z"/>
			<path style="opacity:0.3;fill:#263238;" d="M649.25,201.86c0,0-7.23,4.63-11.35-0.67c-4.12-5.3,2.78-15.02-3.3-19.18
				c-6.08-4.16-16.58,2.19-16.58,2.19s8.08,2.37,7.82,6.79s-4.15,6.08-4.67,4.15c-0.52-1.93-4.37-11.65-10.94-7.6
				c-6.57,4.04-7.57,10.31-7.57,10.31s15.28-1.63,16.21,4.12c0.93,5.75-6.27-1-12.57-1.37c-6.3-0.37-12.05,0.55-11.65,4.37
				c0.41,3.82-0.6,10.09-0.6,10.09s5.34-4.75,12.28-4.34c6.94,0.41,6.67,4.82,0.37,4.45c-6.3-0.37-11.72,5.64-11.72,5.64
				s5.75,9.83,13.05,14.69c7.31,4.86,9.94,3.12,10.79-0.63c0.85-3.75-1.11-13.35,3.3-13.09c4.41,0.26-7.31,16.65-1.67,17.62
				c5.64,0.97,10.16-0.67,11.65-4.37c1.48-3.71,1.48-3.71,1.48-3.71s-1.96-9.61-1.11-13.35c0.85-3.75,1.89,0.11,2.89,4.6
				c1,4.49,1.63,15.28,3.56,14.76c1.93-0.52,8.09-8.38,9.53-11.46c1.45-3.08-8.12-12.5-8.01-14.39c0.11-1.89,7.49,1.71,8.64,3.67
				c1.15,1.97,2.26,4.56,2.26,4.56s4.6-2.89,4.49-11.76C655.75,199.08,649.25,201.86,649.25,201.86z"/>
			<path style="fill:none;stroke:#263238;stroke-linecap:round;stroke-miterlimit:10;" d="M612.59,222.65
				c4.72-5.83,11.67-13.72,17.49-17.49"/>
			<path style="fill:none;stroke:#263238;stroke-linecap:round;stroke-miterlimit:10;" d="M607.12,229.75c0,0,1.21-1.68,3.17-4.21"
				/>
			<path style="fill:none;stroke:#263238;stroke-linecap:round;stroke-miterlimit:10;" d="M633.16,206.61c0,0,7.01,9.9,8.3,20.1"/>
			<path style="fill:none;stroke:#263238;stroke-linecap:round;stroke-miterlimit:10;" d="M625.22,212.47c0,0,1.97-1.15,1.22,11.46"
				/>
			<path style="fill:none;stroke:#263238;stroke-linecap:round;stroke-miterlimit:10;" d="M630.34,200.75c0,0,4.01-3.56,1.89-10.64"
				/>
			
				<line style="fill:none;stroke:#263238;stroke-linecap:round;stroke-miterlimit:10;" x1="624.92" y1="206.76" x2="622.07" y2="201.53"/>
			<path style="fill:none;stroke:#263238;stroke-linecap:round;stroke-miterlimit:10;" d="M618.91,212.1c0,0-9.09-6.86-14.76-7.2"/>
		</g>
		<g>
			<path style="fill:#8342EA;" d="M675.03,183.18c0,0-0.29,10.4-8.41,10.91c-8.12,0.51-13.14-13.03-21.45-9.77
				c-8.31,3.26-9.11,18.09-9.11,18.09s7.89-6.48,12.13-3.21c4.24,3.27,3.26,8.31,0.97,7.51c-2.28-0.8-14.64-3.56-15.07,5.77
				c-0.43,9.33,5.16,14.6,5.16,14.6s8.78-16.41,15.17-13.42c6.39,2.99-5.28,5.59-9.95,11.65c-4.67,6.06-7.66,12.45-3.56,14.64
				c4.1,2.2,9.69,7.47,9.69,7.47s-1.11-8.58,4.03-15.25c5.14-6.67,9.38-3.4,4.71,2.66c-4.67,6.06-2.35,15.58-2.35,15.58
				s13.76,0.95,23.6-3.06c9.85-4,9.9-7.83,6.73-11.23c-3.17-3.41-14.12-7.99-10.86-12.23c3.27-4.24,11.69,18.67,16.5,13.68
				c4.81-4.99,6.26-10.63,3.56-14.64c-2.7-4.01-2.7-4.01-2.7-4.01s-10.96-4.58-14.12-7.99s1.4-1.82,6.58,0.24
				c5.18,2.06,16.41,8.78,17.21,6.5c0.79-2.28-2.88-13.81-4.97-17.36c-2.1-3.55-18.05-0.39-19.87-1.79
				c-1.82-1.4,6.82-6.34,9.57-6.15c2.75,0.19,6.11,0.85,6.11,0.85s0.24-6.58-8.71-12.51C676.68,174.78,675.03,183.18,675.03,183.18z
				"/>
			<path style="opacity:0.2;fill:#263238;" d="M675.03,183.18c0,0-0.29,10.4-8.41,10.91c-8.12,0.51-13.14-13.03-21.45-9.77
				c-8.31,3.26-9.11,18.09-9.11,18.09s7.89-6.48,12.13-3.21c4.24,3.27,3.26,8.31,0.97,7.51c-2.28-0.8-14.64-3.56-15.07,5.77
				c-0.43,9.33,5.16,14.6,5.16,14.6s8.78-16.41,15.17-13.42c6.39,2.99-5.28,5.59-9.95,11.65c-4.67,6.06-7.66,12.45-3.56,14.64
				c4.1,2.2,9.69,7.47,9.69,7.47s-1.11-8.58,4.03-15.25c5.14-6.67,9.38-3.4,4.71,2.66c-4.67,6.06-2.35,15.58-2.35,15.58
				s13.76,0.95,23.6-3.06c9.85-4,9.9-7.83,6.73-11.23c-3.17-3.41-14.12-7.99-10.86-12.23c3.27-4.24,11.69,18.67,16.5,13.68
				c4.81-4.99,6.26-10.63,3.56-14.64c-2.7-4.01-2.7-4.01-2.7-4.01s-10.96-4.58-14.12-7.99s1.4-1.82,6.58,0.24
				c5.18,2.06,16.41,8.78,17.21,6.5c0.79-2.28-2.88-13.81-4.97-17.36c-2.1-3.55-18.05-0.39-19.87-1.79
				c-1.82-1.4,6.82-6.34,9.57-6.15c2.75,0.19,6.11,0.85,6.11,0.85s0.24-6.58-8.71-12.51C676.68,174.78,675.03,183.18,675.03,183.18z
				"/>
			<path style="fill:none;stroke:#263238;stroke-linecap:round;stroke-miterlimit:10;" d="M670.85,234.06
				c-2.62-8.7-5.78-21.04-5.58-29.43"/>
			<path style="fill:none;stroke:#263238;stroke-linecap:round;stroke-miterlimit:10;" d="M674.23,244.37c0,0-0.86-2.36-2.05-6.05"
				/>
			<path style="fill:none;stroke:#263238;stroke-linecap:round;stroke-miterlimit:10;" d="M668.81,202.53c0,0,14.69-0.27,25.79,5.39
				"/>
			<path style="fill:none;stroke:#263238;stroke-linecap:round;stroke-miterlimit:10;" d="M669.27,214.47c0,0,0.19-2.75,12.31,6.59"
				/>
			<path style="fill:none;stroke:#263238;stroke-linecap:round;stroke-miterlimit:10;" d="M661.03,201.36c0,0-0.83-6.44-9.37-9.15"
				/>
			
				<line style="fill:none;stroke:#263238;stroke-linecap:round;stroke-miterlimit:10;" x1="663.35" y1="210.87" x2="656.17" y2="210.17"/>
			<path style="fill:none;stroke:#263238;stroke-linecap:round;stroke-miterlimit:10;" d="M664.6,220.53c0,0-13.06,4.42-17.27,9.87"
				/>
		</g>
		<path style="fill:none;stroke:#263238;stroke-width:2;stroke-linecap:round;stroke-miterlimit:10;" d="M587.9,252.4
			c0,0,41.32,27.31,40.62,133.07"/>
		<g>
			<path style="fill:#8342EA;" d="M638.84,245.18c0,0-1.32,11.97-10.73,11.79c-9.41-0.18-13.93-16.27-23.83-13.3
				c-9.89,2.97-12.22,20.01-12.22,20.01s9.71-6.73,14.3-2.56c4.59,4.17,2.97,9.89,0.41,8.76c-2.56-1.13-16.56-5.49-17.94,5.23
				c-1.38,10.72,4.58,17.34,4.58,17.34s11.69-18.11,18.77-14.05c7.09,4.05-6.62,5.95-12.58,12.51c-5.96,6.55-10.02,13.64-5.49,16.56
				c4.53,2.92,10.48,9.54,10.48,9.54s-0.47-10.01,6.08-17.21c6.56-7.21,11.14-3.03,5.18,3.52c-5.96,6.55-4.18,17.75-4.18,17.75
				s15.79,2.39,27.53-1.3c11.74-3.69,12.16-8.1,8.82-12.33c-3.33-4.23-15.54-10.55-11.37-15.14c4.17-4.59,11.73,22.64,17.75,17.35
				c6.02-5.3,8.23-11.67,5.49-16.56c-2.74-4.89-2.74-4.89-2.74-4.89s-12.21-6.32-15.55-10.55c-3.33-4.23,1.79-1.97,7.57,0.9
				c5.78,2.86,18.11,11.69,19.24,9.12c1.13-2.56-2.02-16.21-4.1-20.5c-2.08-4.29-20.79-2.15-22.76-3.94
				c-1.97-1.79,8.46-6.67,11.62-6.19c3.16,0.48,6.97,1.55,6.97,1.55s0.9-7.57-8.87-15.26C641.53,235.65,638.84,245.18,638.84,245.18
				z"/>
			<path style="opacity:0.3;fill:#263238;" d="M638.84,245.18c0,0-1.32,11.97-10.73,11.79c-9.41-0.18-13.93-16.27-23.83-13.3
				c-9.89,2.97-12.22,20.01-12.22,20.01s9.71-6.73,14.3-2.56c4.59,4.17,2.97,9.89,0.41,8.76c-2.56-1.13-16.56-5.49-17.94,5.23
				c-1.38,10.72,4.58,17.34,4.58,17.34s11.69-18.11,18.77-14.05c7.09,4.05-6.62,5.95-12.58,12.51c-5.96,6.55-10.02,13.64-5.49,16.56
				c4.53,2.92,10.48,9.54,10.48,9.54s-0.47-10.01,6.08-17.21c6.56-7.21,11.14-3.03,5.18,3.52c-5.96,6.55-4.18,17.75-4.18,17.75
				s15.79,2.39,27.53-1.3c11.74-3.69,12.16-8.1,8.82-12.33c-3.33-4.23-15.54-10.55-11.37-15.14c4.17-4.59,11.73,22.64,17.75,17.35
				c6.02-5.3,8.23-11.67,5.49-16.56c-2.74-4.89-2.74-4.89-2.74-4.89s-12.21-6.32-15.55-10.55c-3.33-4.23,1.79-1.97,7.57,0.9
				c5.78,2.86,18.11,11.69,19.24,9.12c1.13-2.56-2.02-16.21-4.1-20.5c-2.08-4.29-20.79-2.15-22.76-3.94
				c-1.97-1.79,8.46-6.67,11.62-6.19c3.16,0.48,6.97,1.55,6.97,1.55s0.9-7.57-8.87-15.26C641.53,235.65,638.84,245.18,638.84,245.18
				z"/>
			<path style="fill:none;stroke:#263238;stroke-linecap:round;stroke-miterlimit:10;" d="M629.21,303.5
				c-2.21-10.28-4.69-24.82-3.67-34.49"/>
			<path style="fill:none;stroke:#263238;stroke-linecap:round;stroke-miterlimit:10;" d="M632.14,315.72c0,0-0.77-2.8-1.79-7.17"/>
			<path style="fill:none;stroke:#263238;stroke-linecap:round;stroke-miterlimit:10;" d="M629.84,266.93c0,0,16.98,1.08,29.25,8.65
				"/>
			<path style="fill:none;stroke:#263238;stroke-linecap:round;stroke-miterlimit:10;" d="M629.23,280.75c0,0,0.48-3.16,13.58,8.76"
				/>
			<path style="fill:none;stroke:#263238;stroke-linecap:round;stroke-miterlimit:10;" d="M620.96,264.84c0,0-0.35-7.51-9.94-11.44"
				/>
			
				<line style="fill:none;stroke:#263238;stroke-linecap:round;stroke-miterlimit:10;" x1="622.74" y1="276.04" x2="614.52" y2="274.54"/>
			<path style="fill:none;stroke:#263238;stroke-linecap:round;stroke-miterlimit:10;" d="M623.27,287.3c0,0-15.49,3.87-20.86,9.76"
				/>
		</g>
		<path style="fill:none;stroke:#263238;stroke-width:2;stroke-linecap:round;stroke-miterlimit:10;" d="M604,335.74
			c0,0,26.61,20.31,29.41,50.42l-5.6-100.85"/>
		<path style="fill:none;stroke:#263238;stroke-width:2;stroke-linecap:round;stroke-miterlimit:10;" d="M668.43,321.03
			c-35.02-6.3-35.02,65.13-35.02,65.13"/>
		<path style="fill:none;stroke:#263238;stroke-width:2;stroke-linecap:round;stroke-miterlimit:10;" d="M637.62,385.46
			c0,0-20.31-147.77,38.52-147.77"/>
		<g>
			<path style="fill:#8342EA;" d="M655.09,316.78c-4.78-5.38-14.95-5.38-20.93,8.37c-5.98,13.75-0.6,11.36-0.6,11.36
				s11.36-3.59,18.54-5.98c7.17-2.39,16.74-8.37,17.34-4.78c0.6,3.59-4.78,7.17-11.36,8.37c-6.58,1.2-23.92,5.98-22.12,9.57
				c1.79,3.59,5.98,14.35,5.98,14.35s8.37-7.17,16.14-11.96c7.77-4.78,12.56-2.99,8.37,2.39c-4.19,5.38-16.14,11.36-13.75,18.54
				c2.39,7.17,16.74,16.14,16.74,16.14s1.79-14.95,5.98-19.73c4.19-4.78,4.19,0.6,2.99,8.97c-1.2,8.37-1.2,10.76-1.2,10.76
				l16.74,5.98c0,0,5.98-8.97,8.97-11.96c2.99-2.99,2.99-2.99,2.99-2.99s-13.15-11.36-13.75-18.53c-0.6-7.17,8.97,0,11.96,1.2
				c2.99,1.2,7.77,9.57,7.77,9.57s2.99-13.75,3.59-18.53c0.6-4.78,0.6-4.78,0.6-4.78s-12.56-4.78-17.34-4.78
				c-4.78,0-7.17,3.59-7.17-1.2s4.78-7.77,10.16-7.17s14.35,3.59,14.35,3.59s3.59-2.99,2.39-11.96c-1.2-8.97-4.19-8.97-11.36-6.58
				c-7.17,2.39-11.96,7.77-17.34,7.77c-5.38,0-2.39-6.58,1.2-8.37c3.59-1.79,12.56-5.38,14.35-5.98c1.79-0.6-9.57-8.97-15.55-10.16
				c-5.98-1.2-13.72,3.02-13.15,8.97C677.81,319.77,659.87,322.17,655.09,316.78z"/>
			<path style="fill:none;stroke:#263238;stroke-linecap:round;stroke-miterlimit:10;" d="M693.58,378.35
				c0.18,1.8,0.31,3.6,0.37,5.4"/>
			<path style="fill:none;stroke:#263238;stroke-linecap:round;stroke-miterlimit:10;" d="M681.57,335.42
				c4.2,9.7,9.05,23.09,11.25,37.05"/>
			<path style="fill:none;stroke:#263238;stroke-linecap:round;stroke-miterlimit:10;" d="M679.42,330.62
				c-2.96-6.37-5.19-10.25-5.19-10.25s5.38-2.39,7.77-7.17c2.39-4.78,5.98-7.17,5.98-7.17"/>
			<path style="fill:none;stroke:#263238;stroke-linecap:round;stroke-miterlimit:10;" d="M653.3,340.7c0,0,21.52-8.97,21.52-7.17"
				/>
			<path style="fill:none;stroke:#263238;stroke-linecap:round;stroke-miterlimit:10;" d="M686.78,329.34c0,0,9.57-4.78,17.94-4.78"
				/>
			<path style="fill:none;stroke:#263238;stroke-linecap:round;stroke-miterlimit:10;" d="M683.19,343.69c0,0-5.38,4.19-11.36,11.36
				c-5.98,7.17-8.37,13.75-8.37,13.75"/>
			<path style="fill:none;stroke:#263238;stroke-linecap:round;stroke-miterlimit:10;" d="M689.77,346.08c0,0,12.56-3.59,19.13,2.39
				"/>
		</g>
		<g>
			<path style="fill:#8342EA;" d="M712.51,265.29c-6.51-3.85-13.71-3.93-17.24-8c-3.53-4.06,3.4-6.12,7.11-4.58
				c3.71,1.53,12.29,5.95,13.92,6.92c1.63,0.96,0.5-13.1-2.52-18.4c-3.02-5.3-11.27-8.38-15.4-4.05c-8.7,9.13-22.26-2.84-21.33-9.98
				c0.93-7.14-5.74-14.82-20.04-10.31c-14.3,4.5-8.97,7-8.97,7s10.16,6.23,16.67,10.08c6.51,3.85,17.3,7.15,14.98,9.96
				c-2.32,2.8-8.55,1.09-13.77-3.09c-5.21-4.18-20.19-14.14-21.73-10.43c-1.53,3.71-6.92,13.92-6.92,13.92s10.91,1.62,19.61,4.35
				c8.71,2.73,10.49,7.52,3.68,7.89c-6.81,0.37-19.16-4.74-23.01,1.77c-3.85,6.51-1.22,23.23-1.22,23.23s12.46-8.44,18.82-8.42
				c6.36,0.02,2.29,3.55-4.81,8.14s-8.91,6.15-8.91,6.15l6.46,16.56c0,0,10.69-1.36,14.91-1.07c4.22,0.3,4.22,0.3,4.22,0.3
				s-0.04-17.38,4.98-22.54c5.03-5.16,5.88,6.77,6.94,9.81c1.06,3.04-2.13,12.14-2.13,12.14s12.34-6.76,16.35-9.44
				c4-2.68,4-2.68,4-2.68s-4.62-12.62-7.76-16.23c-3.14-3.61-7.41-3.07-3.8-6.2c3.61-3.14,9.01-1.48,12.08,2.97
				c3.08,4.46,6.7,13.19,6.7,13.19s4.61,0.75,10.6-6.03C720.98,271.4,719.02,269.14,712.51,265.29z M655.93,284.43
				c-4.78-2.39,6.58-7.17,6.58-7.17C666.69,276.66,660.71,286.82,655.93,284.43z M663.98,262.11c-2.04-1.02,4.08-3.06,4.08-3.06
				C676.9,260.75,666.02,263.13,663.98,262.11z"/>
			<path style="fill:none;stroke:#263238;stroke-linecap:round;stroke-miterlimit:10;" d="M655.8,296.61
				c-1.24,1.32-2.52,2.59-3.83,3.83"/>
			<path style="fill:none;stroke:#263238;stroke-linecap:round;stroke-miterlimit:10;" d="M680.34,259.4
				c-4.58,9.53-11.5,21.97-20.6,32.79"/>
			<path style="fill:none;stroke:#263238;stroke-linecap:round;stroke-miterlimit:10;" d="M682.55,254.63
				c2.87-6.41,4.34-10.64,4.34-10.64s5.33,2.5,10.51,1.17c5.18-1.33,9.34-0.19,9.34-0.19"/>
			<path style="fill:none;stroke:#263238;stroke-linecap:round;stroke-miterlimit:10;" d="M657.82,241.51
				c0,0,20.88,10.37,19.53,11.55"/>
			<path style="fill:none;stroke:#263238;stroke-linecap:round;stroke-miterlimit:10;" d="M688.35,259.35c0,0,9.88,4.09,15.37,10.41
				"/>
			<path style="fill:none;stroke:#263238;stroke-linecap:round;stroke-miterlimit:10;" d="M675.16,266.05c0,0-6.69-1.32-16.03-1.13
				c-9.34,0.19-15.87,2.69-15.87,2.69"/>
			<path style="fill:none;stroke:#263238;stroke-linecap:round;stroke-miterlimit:10;" d="M677.67,272.58
				c0,0,10.94,7.13,10.74,16.02"/>
		</g>
		<g>
			<path style="fill:#8342EA;" d="M619.61,348.14c-5.24-3.1-11.03-3.17-13.87-6.44c-2.84-3.27,2.74-4.92,5.72-3.69
				c2.98,1.23,9.89,4.79,11.2,5.57c1.31,0.77,0.4-10.55-2.02-14.81c-2.43-4.26-9.07-6.75-12.39-3.26c-7,7.35-17.92-2.29-17.17-8.03
				c0.75-5.75-4.62-11.92-16.13-8.3c-11.51,3.62-7.22,5.63-7.22,5.63s8.17,5.01,13.41,8.11c5.24,3.1,13.92,5.76,12.05,8.01
				c-1.86,2.26-6.88,0.88-11.08-2.49c-4.2-3.37-16.25-11.38-17.48-8.4c-1.23,2.98-5.57,11.2-5.57,11.2s8.78,1.3,15.78,3.5
				c7.01,2.2,8.44,6.05,2.96,6.35c-5.48,0.3-15.42-3.82-18.52,1.42c-3.1,5.24-0.98,18.69-0.98,18.69s10.03-6.8,15.14-6.78
				c5.11,0.02,1.84,2.86-3.87,6.55c-5.72,3.69-7.17,4.95-7.17,4.95l5.2,13.33c0,0,8.6-1.1,12-0.86c3.39,0.24,3.39,0.24,3.39,0.24
				s-0.04-13.99,4.01-18.14c4.04-4.15,4.73,5.45,5.58,7.9c0.85,2.45-1.71,9.77-1.71,9.77s9.93-5.44,13.16-7.6
				c3.22-2.16,3.22-2.16,3.22-2.16s-3.72-10.15-6.24-13.06c-2.52-2.91-5.97-2.47-3.06-4.99c2.91-2.52,7.25-1.19,9.72,2.39
				c2.48,3.59,5.39,10.61,5.39,10.61s3.71,0.6,8.53-4.86C626.42,353.06,624.84,351.24,619.61,348.14z M574.07,363.54
				c-3.85-1.92,5.29-5.77,5.29-5.77C582.73,357.29,577.92,365.47,574.07,363.54z M580.55,345.58c-1.64-0.82,3.28-2.46,3.28-2.46
				C590.94,344.48,582.19,346.4,580.55,345.58z"/>
			<path style="fill:none;stroke:#263238;stroke-linecap:round;stroke-miterlimit:10;" d="M573.97,373.34
				c-1,1.06-2.03,2.09-3.09,3.08"/>
			<path style="fill:none;stroke:#263238;stroke-linecap:round;stroke-miterlimit:10;" d="M593.71,343.4
				c-3.68,7.67-9.25,17.68-16.58,26.39"/>
			<path style="fill:none;stroke:#263238;stroke-linecap:round;stroke-miterlimit:10;" d="M595.5,339.56
				c2.31-5.16,3.49-8.56,3.49-8.56s4.29,2.01,8.46,0.94c4.17-1.07,7.51-0.15,7.51-0.15"/>
			<path style="fill:none;stroke:#263238;stroke-linecap:round;stroke-miterlimit:10;" d="M575.59,329c0,0,16.81,8.35,15.72,9.3"/>
			<path style="fill:none;stroke:#263238;stroke-linecap:round;stroke-miterlimit:10;" d="M600.16,343.36c0,0,7.95,3.29,12.37,8.38"
				/>
			<path style="fill:none;stroke:#263238;stroke-linecap:round;stroke-miterlimit:10;" d="M589.55,348.75c0,0-5.38-1.06-12.9-0.91
				c-7.51,0.15-12.77,2.17-12.77,2.17"/>
			<path style="fill:none;stroke:#263238;stroke-linecap:round;stroke-miterlimit:10;" d="M591.56,354.01c0,0,8.8,5.74,8.64,12.89"
				/>
		</g>
		<g>
			<path style="fill:#8342EA;" d="M598.25,249.41c0,0-6.58,4.78-10.76,0c-4.19-4.78,1.79-14.35-4.19-17.94
				c-5.98-3.59-15.55,2.99-15.55,2.99s7.77,1.79,7.77,5.98c0,4.19-3.59,5.98-4.19,4.19c-0.6-1.79-4.78-10.76-10.76-6.58
				c-5.98,4.19-6.58,10.16-6.58,10.16s14.35-2.39,15.55,2.99c1.2,5.38-5.98-0.6-11.96-0.6s-11.36,1.2-10.76,4.78
				c0.6,3.59,0,9.57,0,9.57s4.78-4.78,11.36-4.78c6.58,0,6.58,4.19,0.6,4.19s-10.76,5.98-10.76,5.98s5.98,8.97,13.15,13.15
				c7.17,4.19,9.57,2.39,10.16-1.2c0.6-3.59-1.79-12.56,2.39-12.56c4.19,0-5.98,16.14-0.6,16.74c5.38,0.6,9.57-1.2,10.76-4.78
				s1.2-3.59,1.2-3.59s-2.39-8.97-1.79-12.56c0.6-3.59,1.79,0,2.99,4.19c1.2,4.19,2.39,14.35,4.19,13.75
				c1.79-0.6,7.17-8.37,8.37-11.36s-8.37-11.36-8.37-13.15s7.17,1.2,8.37,2.99c1.2,1.79,2.39,4.19,2.39,4.19s4.19-2.99,3.59-11.36
				C604.22,246.42,598.25,249.41,598.25,249.41z"/>
			<path style="fill:none;stroke:#263238;stroke-linecap:round;stroke-miterlimit:10;" d="M564.75,271.09
				c4.13-5.77,10.26-13.62,15.56-17.5"/>
			<path style="fill:none;stroke:#263238;stroke-linecap:round;stroke-miterlimit:10;" d="M559.98,278.11c0,0,1.05-1.66,2.77-4.15"
				/>
			<path style="fill:none;stroke:#263238;stroke-linecap:round;stroke-miterlimit:10;" d="M583.3,254.79c0,0,7.17,8.97,8.97,18.54"
				/>
			<path style="fill:none;stroke:#263238;stroke-linecap:round;stroke-miterlimit:10;" d="M576.12,260.77c0,0,1.79-1.2,1.79,10.76"
				/>
			<path style="fill:none;stroke:#263238;stroke-linecap:round;stroke-miterlimit:10;" d="M580.31,249.41c0,0,3.59-3.59,1.2-10.16"
				/>
			
				<line style="fill:none;stroke:#263238;stroke-linecap:round;stroke-miterlimit:10;" x1="575.52" y1="255.39" x2="572.54" y2="250.6"/>
			<path style="fill:none;stroke:#263238;stroke-linecap:round;stroke-miterlimit:10;" d="M570.14,260.77c0,0-8.97-5.98-14.35-5.98"
				/>
		</g>
		<rect x="612.41" y="383.36" style="fill:#263238;" width="46.22" height="40.53"/>
	</g>
</g>
<g id="Table">
	
		<line style="fill:none;stroke:#263238;stroke-linecap:round;stroke-linejoin:round;stroke-miterlimit:10;" x1="33.59" y1="423.9" x2="704" y2="423.9"/>
</g>
<g id="Character_2">
	<g>
		<path style="fill:#FFFFFF;stroke:#263238;stroke-linecap:round;stroke-linejoin:round;stroke-miterlimit:10;" d="M478.03,322.52
			c-0.26,1.06-0.51,2.11-0.75,3.15c-6,25.5-5.5,98-5.5,98h-52.5c0,0,0-10.5,0-20.5c0-9.67,6.54-52.97,12.39-87.01
			c0.21-1.18,0.41-2.34,0.61-3.49c6-34.5,3-50.5,3-50.5c2-6.5,26-23,33.5-22.5s16.5,6.5,20,16
			C492.14,264.78,483.99,297.37,478.03,322.52z"/>
		<path style="fill:#263238;stroke:#263238;stroke-linecap:round;stroke-linejoin:round;stroke-miterlimit:10;" d="M435.28,262.17
			c0,0,1.75,9.36-0.11,29.17c1.44-0.41,2.98-1.11,4.66-2.14c19.97-12.33,33.48-43.47,33.48-43.47l-4.53-6.07l-24.25,12.6
			C439.74,256.02,436.01,259.77,435.28,262.17z"/>
		<path style="fill:#FFFFFF;stroke:#263238;stroke-linecap:round;stroke-linejoin:round;stroke-miterlimit:10;" d="M477.28,325.67
			c-6,25.5-5.5,98-5.5,98h-52.5c0,0,0-10.5,0-20.5c0-9.67,6.54-52.97,12.39-87.01c6.39,3.1,18.03,7.51,32.61,7.51
			c5.56,0,10.09-0.46,13.75-1.15C477.77,323.58,477.52,324.63,477.28,325.67z"/>
		<g>
			<path style="fill:#8342EA;stroke:#263238;stroke-linecap:round;stroke-linejoin:round;stroke-miterlimit:10;" d="M476.78,240.67
				c0,0-7,48.5-9.5,68s-9.5,41.5-12,62.5s-1.5,52.5-1.5,52.5h63c0,0,4.31-11.85,7.5-29c5.42-29.11,8-51.5,8-68.5s-0.5-52.5-5.5-59.5
				s-31.5-19.5-35.5-22.5S476.78,240.67,476.78,240.67z"/>
			<path style="fill:#263238;stroke:#263238;stroke-linecap:round;stroke-linejoin:round;stroke-miterlimit:10;" d="M467.28,308.67
				l9.3-10l8.67,5.33c0,0-10.67-16.67-10.67-21.33C474.58,278,467.28,308.67,467.28,308.67z"/>
			<path style="fill:#8342EA;stroke:#263238;stroke-linecap:round;stroke-linejoin:round;stroke-miterlimit:10;" d="M467.28,310.67
				c0,0,1-5,3.5-12s3.5-10,5.5-7.5s8.5,20,12,16s2.5-30.5,4.5-41c2-10.5-8-17.5-10-20s-6.5-3-6.5-3L467.28,310.67z"/>
		</g>
		<path style="fill:#FFFFFF;stroke:#263238;stroke-linecap:round;stroke-linejoin:round;stroke-miterlimit:10;" d="M371.78,325.67
			c0,0-28,61-29,69.5s8,12,12,12.5s12-0.5,19-8s26.5-53,26.5-53L371.78,325.67z"/>
		<g>
			<path style="fill:#8342EA;stroke:#263238;stroke-linecap:round;stroke-linejoin:round;stroke-miterlimit:10;" d="M444.28,270.17
				c0,0,1.5,20.5-3.5,47.5s-9,54.5-8,66.5s1.5,39.5,1.5,39.5h-35l6.5-23.5c0,0-13.5-8.5-17-22.5s1-32.5,1-32.5l-27.5-22
				c0,0,22.5-44,23.5-46s40.5-18,40.5-18L444.28,270.17z"/>
			<path style="fill:#263238;stroke:#263238;stroke-linecap:round;stroke-linejoin:round;stroke-miterlimit:10;" d="M425.78,300.67
				c0,0,4.13-2,5.46-5.33c1.33-3.33,4.67-4,5.33-0.67c0.67,3.33,4,8.67,4,8.67s1.33-20-1.33-25.33
				C436.58,272.67,424.98,294,425.78,300.67z"/>
			
				<line style="fill:#92E3A9;stroke:#263238;stroke-linecap:round;stroke-linejoin:round;stroke-miterlimit:10;" x1="392.25" y1="344.41" x2="402.24" y2="302.12"/>
			<path style="fill:#8342EA;stroke:#263238;stroke-linecap:round;stroke-linejoin:round;stroke-miterlimit:10;" d="M429.78,262.67
				c0,0,1.5,12.5-3,24s-2.5,16.5-1,14s7-21,10-17s4.5,25,6,27.5s1.49-28.66,2.74-35.58c1.26-6.92,2.26-10.92,2.26-10.92
				L429.78,262.67z"/>
		</g>
		<path style="fill:#FFFFFF;stroke:#263238;stroke-linecap:round;stroke-linejoin:round;stroke-miterlimit:10;" d="M449.28,383.67
			c0,8.84-5.71,16-12.75,16c-7.04,0-12.75-7.16-12.75-16c0-8.84,5.71-19.5,12.75-19.5C443.57,364.17,449.28,374.83,449.28,383.67z"
			/>
		<g>
			<path style="fill:#FFFFFF;stroke:#263238;stroke-linecap:round;stroke-linejoin:round;stroke-miterlimit:10;" d="M523.78,356.67
				l12,37.5c0,0-18,4-26,4.5s-19,0-19,0s-7.5-9.5-12.5-16.5s-13.5-7.5-19-10.5s-10.5-12-13-9.5s-1,10,1,12.5s10.5,9.5,10.5,9.5
				s-42,14-42.5,17s10.5,3,10.5,3s11,8,14,8.5s4.5,4,12,6.5s32,1.5,36.5,1s30,5.5,49.5,4.5s39.5-4,44.5-9s-6-28-7.5-32s-16-51-16-51
				L523.78,356.67z"/>
			<path style="fill:#FFFFFF;stroke:#263238;stroke-linecap:round;stroke-linejoin:round;stroke-miterlimit:10;" d="M535.78,394.17
				c0,0,22-9,28-9"/>
			<path style="fill:none;stroke:#263238;stroke-linecap:round;stroke-linejoin:round;stroke-miterlimit:10;" d="M425.78,404.17
				c0,0,21-5.5,28-5.5"/>
			<path style="fill:none;stroke:#263238;stroke-linecap:round;stroke-linejoin:round;stroke-miterlimit:10;" d="M432.78,408.17
				c0,0,17.5,1.5,23.5,0.5"/>
			<path style="fill:none;stroke:#263238;stroke-linecap:round;stroke-linejoin:round;stroke-miterlimit:10;" d="M442.78,413.67
				c0,0,13,1.5,17.5,1.5"/>
		</g>
		<path style="fill:#8342EA;stroke:#263238;stroke-linecap:round;stroke-linejoin:round;stroke-miterlimit:10;" d="M508.28,302.67
			c0,0-4.5,15-2,24.5s15,39,15,39l48.5-33.5c0,0-13.96-41.93-22.46-49.93s-17.04-18.07-23.54-18.57"/>
		<g>
			<path style="fill:#FFFFFF;stroke:#263238;stroke-linecap:round;stroke-linejoin:round;stroke-miterlimit:10;" d="M419.78,331.67
				c0,0-5-2.5-6.5-1.5c-1.31,0.87-3.76,2.12-6.68,4.09c-3.27-1.2-6.81-2.33-7.82-3.59c-2-2.5-9-4.5-11-3.5c0,0-14.5,21.5-14,28
				s5.5,22.5,5.5,22.5s-23.5,9-29.5,11s-12.5,15-7.5,24s14,10.5,19.5,8.5s35-39,36-40.5s3-10,3-10s8.5-6.5,10.5-10
				c1-1.76,1.38-6.67,1.5-11.51C413.78,343.16,419.78,331.67,419.78,331.67z"/>
			<g>
				<path style="fill:#FFFFFF;stroke:#263238;stroke-linecap:round;stroke-linejoin:round;stroke-miterlimit:10;" d="M391.78,307.17
					l29.04,53.15c0.22,0.4,0.77,0.44,1.05,0.08l0.68-0.91c0.15-0.19,0.17-0.45,0.05-0.67l-29.32-55.15
					C393.28,303.67,389.28,303.17,391.78,307.17z"/>
				<path style="fill:#263238;stroke:#263238;stroke-linecap:round;stroke-linejoin:round;stroke-miterlimit:10;" d="M420.82,360.31
					c0,0,0.75,3.45,1.91,4.31c1.15,0.87,4.62,3.18,4.62,3.18s0-3.18-1.44-6.06c-1.44-2.89-3.3-2.93-3.3-2.93L420.82,360.31z"/>
			</g>
			<path style="fill:#FFFFFF;stroke:#263238;stroke-linecap:round;stroke-linejoin:round;stroke-miterlimit:10;" d="M387.78,327.17
				c0,0,8,10,12,10s5-4.5,5-6.5s-8.5-7.5-11-12S386.78,324.67,387.78,327.17z"/>
			<path style="fill:#FFFFFF;stroke:#263238;stroke-linecap:round;stroke-linejoin:round;stroke-miterlimit:10;" d="M383.75,362.89
				c0,0-2.35,2.64,1.17,4.99c3.52,2.35,4.36-1.22,4.36-1.22L383.75,362.89z"/>
			<path style="fill:#FFFFFF;stroke:#263238;stroke-linecap:round;stroke-linejoin:round;stroke-miterlimit:10;" d="M378.78,358.67
				c0,0,9,8.5,10.5,8s10.5-21,11-23s-10.5-17.5-12.5-16.5s-13,24-13,24"/>
			<path style="fill:none;stroke:#263238;stroke-linecap:round;stroke-linejoin:round;stroke-miterlimit:10;" d="M393.73,358.2
				c0,0-8.45-8.03-13.95-10.03"/>
			<path style="fill:none;stroke:#263238;stroke-linecap:round;stroke-linejoin:round;stroke-miterlimit:10;" d="M398.28,349.17
				c0,0-7.5-9-14.5-10"/>
			<path style="fill:#FFFFFF;stroke:#263238;stroke-linecap:round;stroke-linejoin:round;stroke-miterlimit:10;" d="M412.28,323.67
				c0,0-5,6-3.5,9s5.5,4,8,1.5s6.5-5.5,3.5-10S412.28,323.67,412.28,323.67z"/>
		</g>
		<g>
			<g>
				<path style="fill:#FFFFFF;stroke:#263238;stroke-linecap:round;stroke-linejoin:round;stroke-miterlimit:10;" d="M394.6,197.57
					c0,0,6.28,22.14,8.64,30.96c2.35,8.82,4.12,17.64,11.18,25.29c7.06,7.65,19.41,24.7,27.64,21.76
					c8.23-2.94,23.53-14.7,28.23-24.11c4.71-9.41,10.59-11.76,8.82-30c-1.76-18.23-6.47-31.76-11.18-38.82
					c-4.71-7.06-30-21.17-44.11-18.82c-14.12,2.35-23.53,21.76-24.7,24.11C397.94,190.3,394.6,197.57,394.6,197.57z"/>
				<path style="fill:none;stroke:#263238;stroke-width:2;stroke-linecap:round;stroke-linejoin:round;stroke-miterlimit:10;" d="
					M405.13,220.35c0,0,6.56-6.56,13.42-1.25"/>
				<path style="fill:none;stroke:#263238;stroke-linecap:round;stroke-linejoin:round;stroke-miterlimit:10;" d="M421.68,223.16
					c0,0,1.56,3.75,2.19,5.31c0.62,1.56,2.37,16.25,1.75,19.06c-0.62,2.81,4.37,4.06,9.05,2.19"/>
				<path style="fill:none;stroke:#263238;stroke-linecap:round;stroke-linejoin:round;stroke-miterlimit:10;" d="M430.11,256.56
					c0,0,10.61,3.43,18.73-4.68"/>
				<path style="fill:none;stroke:#263238;stroke-width:2;stroke-linecap:round;stroke-linejoin:round;stroke-miterlimit:10;" d="
					M410.13,230.03c0,0,4.37,4.68,10.93-1.87"/>
				<path style="fill:none;stroke:#263238;stroke-width:2;stroke-linecap:round;stroke-linejoin:round;stroke-miterlimit:10;" d="
					M440.41,226.59c0,0,7.07,4.39,14.98-1.56"/>
				<path style="fill:none;stroke:#263238;stroke-width:2;stroke-linecap:round;stroke-linejoin:round;stroke-miterlimit:10;" d="
					M434.17,218.48c0,0,6.24-4.99,17.48-1.25"/>
			</g>
			<g>
				<path style="fill:#263238;stroke:#263238;stroke-linecap:round;stroke-linejoin:round;stroke-miterlimit:10;" d="M489.78,178.17
					c0,0,18,11,37,31s9.5,50.5,2.5,54.5s-17,4.5-26.5,12.5s-8.5,22-8.5,22s-15.88-3.44-19.7-15.5c-2.37-7.48-8.26-22,2.2-42
					c9.98-19.07,10.66-39.15,9.66-47.65s-0.16-10.35-0.16-10.35L489.78,178.17z"/>
				<path style="fill:none;stroke:#787878;stroke-linecap:round;stroke-linejoin:round;stroke-miterlimit:10;" d="M493.91,188.67
					c0,0-7.33,14,13.33,25.33s19.33,40,9.33,44.67c-10,4.67-42.67,12-34,32.67"/>
				<path style="fill:none;stroke:#787878;stroke-linecap:round;stroke-linejoin:round;stroke-miterlimit:10;" d="M479.24,280
					c0,0-12-14.67,1.33-30c13.33-15.33,24-7.33,26.67-22"/>
			</g>
			<g>
				<path style="fill:#263238;stroke:#263238;stroke-linecap:round;stroke-linejoin:round;stroke-miterlimit:10;" d="M393.43,168.2
					l-2.94,9.75c0,0-13.53,5.29-12.94,13.53c0.59,8.23,11.76,9.41,11.76,9.41s12.86,1.76,19.33-2.94
					c6.47-4.71,11.18-30.58,13.53-24.7c2.35,5.88-6.47,21.17-2.94,21.76c3.53,0.59,14.7,8.82,23.53,8.82c8.82,0,14.7,0,14.7,0
					s8.82,7.06,12.35,6.47c3.53-0.59,2.44-8.68,3.53-10c1.12-1.36,4.79-4.99,8.9-0.87c4.12,4.12,1.56,8.43,1.56,8.43
					s16.31-20.57,0.94-50.26c-10.8-20.85-45.47-25.83-68.41-18.77S393.43,164.67,393.43,168.2z"/>
				<path style="fill:none;stroke:#787878;stroke-linecap:round;stroke-linejoin:round;stroke-miterlimit:10;" d="M425.24,193.33
					c0,0,11.33,10,34.67,4c23.33-6,27.33-12.67,27.33-12.67"/>
				<path style="fill:none;stroke:#787878;stroke-linecap:round;stroke-linejoin:round;stroke-miterlimit:10;" d="M430.58,175.33
					c0,0,5.33,10.67,26.67,10.67c21.33,0,29.33-11.33,29.33-11.33"/>
			</g>
			<path style="fill:#FFFFFF;stroke:#263238;stroke-linecap:round;stroke-linejoin:round;stroke-miterlimit:10;" d="M471.01,213.17
				c0,0-2.19-15.61,5.62-15.61c7.8,0,8.74,6.56,8.74,12.18s-1.25,15.61-5.31,16.55c0,0-3.12-0.62-4.68-3.43"/>
		</g>
	</g>
</g>
<g id="Character_1">
	<g>
		<g>
			<path style="fill:#263238;stroke:#263238;stroke-linecap:round;stroke-linejoin:round;stroke-miterlimit:10;" d="M204.01,235.65
				c0,0-9.5-2.5-28.5,10.5s-16.5,47.5-12.5,71s2,43-2.5,44.5s-9.5-2.5-8.5,2.5s10,16.5,28.5,6.5s18-32.5,20-58s-5.5-55.5-3-63
				s8-7,8-7S210.01,235.15,204.01,235.65z"/>
			<g>
				<path style="fill:none;stroke:#787878;stroke-linecap:round;stroke-linejoin:round;stroke-miterlimit:10;" d="M172.31,362.65
					c-2.67,11.33-10.67,8-10.67,8"/>
				<path style="fill:none;stroke:#787878;stroke-linecap:round;stroke-linejoin:round;stroke-miterlimit:10;" d="M194.31,243.98
					c0,0-18.67,3.33-23.33,27.33c-3.87,19.91,1.43,61.83,1.83,82.02"/>
				<path style="fill:none;stroke:#787878;stroke-linecap:round;stroke-linejoin:round;stroke-miterlimit:10;" d="M184.52,263.84
					c-1.76,5.53-2.75,12.2-1.54,19.48c3.33,20,12.67,48.67,8.67,68"/>
				<path style="fill:none;stroke:#787878;stroke-linecap:round;stroke-linejoin:round;stroke-miterlimit:10;" d="M192.98,247.98
					c0,0-3.45,3.96-6.4,10.49"/>
			</g>
		</g>
		<path style="fill:#263238;stroke:#263238;stroke-linecap:round;stroke-linejoin:round;stroke-miterlimit:10;" d="M282.51,245.15
			c0,0,10,0,10,20s-5,61-3,74s10.5,17.5,12,15.5s7,0,1.5,5.5s-16.5,7-28.5-4.5s-13.5-28.5-11.5-41.5s5.5-51,5.5-61.5
			S274.51,237.65,282.51,245.15z"/>
		<path style="fill:#FFFFFF;stroke:#263238;stroke-linecap:round;stroke-linejoin:round;stroke-miterlimit:10;" d="M278.01,321.15
			c0,0,0.15,0.05,0.43,0.14c2.59,0.9,16.12,6.19,18.79,19.51c2.95,14.74,7.37,64.87,7.37,71.13c0,6.27-14.38,15.32-20.09,11.71
			c-5.71-3.61-4.24-41.2-5.34-54.47C278.06,355.92,278.01,321.15,278.01,321.15z"/>
		<g>
			<path style="fill:#8342EA;stroke:#263238;stroke-linecap:round;stroke-linejoin:round;stroke-miterlimit:10;" d="M223.51,314.65
				l-34.5,10.5l-1,98.5h96.5c0,0-1.5-55.5-1.5-74.5s-1.5-26-5-28s-18-3-27-4.5C242.01,315.15,223.51,314.65,223.51,314.65z"/>
			<g>
				<path style="fill:#263238;" d="M188.27,398.46l-0.26,25.19h96.5c0,0-0.32-11.86-0.67-26.49
					C246.51,401.82,208.58,400.05,188.27,398.46z"/>
				<path style="fill:#263238;" d="M283.27,370.25c-34.24,5.95-70.91,4.61-94.74,2.59l-0.13,13.14c11.08,0.94,24.72,1.72,39.6,1.72
					c17.51,0,36.74-1.08,55.54-4.23C283.44,378.99,283.35,374.51,283.27,370.25z"/>
			</g>
		</g>
		<path style="fill:#FFFFFF;stroke:#263238;stroke-linecap:round;stroke-linejoin:round;stroke-miterlimit:10;" d="M202.88,383.93
			c0,0,4.05-33.91,1.47-44.23c-2.58-10.32-10.04-16.94-15.34-14.55c-5.3,2.39-11.56,11.6-12.3,29.66
			c-0.74,18.06-1.84,53.81-0.74,59.71c1.11,5.9,10.69,11.43,16.95,8.11c6.27-3.32,9.58-21.01,9.58-25.8S202.88,383.93,202.88,383.93
			z"/>
		<path style="fill:#FFFFFF;stroke:#263238;stroke-linecap:round;stroke-linejoin:round;stroke-miterlimit:10;" d="M221.01,294.65
			c0,0,0.5,20,0.5,25.5s-0.5,12,4.5,18c5,6,16,15,27,6.5c11-8.5,6.5-25,6.5-25l1.5-22.5L221.01,294.65z"/>
		<path style="fill:#263238;stroke:#263238;stroke-linecap:round;stroke-linejoin:round;stroke-miterlimit:10;" d="M236.51,295.62
			l-7.29-0.46l-2.25,13.51c0,0,21.33,25.59,31.47,29.01c3.71-8.35,1.08-18.04,1.08-18.04l1.37-20.51L236.51,295.62z"/>
		<g>
			<path style="fill:#FFFFFF;stroke:#263238;stroke-linecap:round;stroke-linejoin:round;stroke-miterlimit:10;" d="M218.52,218.01
				c0,0-14.93,8.15-18.59,25.98c-3.66,17.83,7.43,45.07,10.73,48.83c3.29,3.76,9.96,5.76,9.96,5.76s16,25.86,27.7,27.98
				c11.69,2.12,18.49-7.42,24.41-15.39c5.91-7.97,6.92-21.08,7.54-26.15c0.62-5.06,2.35-15.22,2.35-15.22s9.17-4.71,5.12-18.44
				c-4.05-13.73-6.61-21.06-14.77-29.47C264.81,213.49,238.78,207.45,218.52,218.01z"/>
			<g>
				<path style="fill:#263238;stroke:#263238;stroke-linecap:round;stroke-linejoin:round;stroke-miterlimit:10;" d="M294.98,251.32
					c-4.05-13.73-13.84-21.01-22-29.42c-8.16-8.41-34.19-14.45-54.45-3.89c0,0-14.93,8.15-18.59,25.98
					c-2.37,11.55,1.45,27.03,5.33,37.54l0.5-0.38c0,0-2.79-10.32,3.31-9.28s7.47,12.47,10.11,14.28c2.64,1.8,4.23-10.35,4.23-10.35
					s1.72,2.88,18.68-4.93c16.96-7.81,20.11-19.08,20.11-19.08s11.7,16.08,14.77,16.85c3.07,0.77,5.65,1.16,5.65,1.16
					S299.03,265.05,294.98,251.32z"/>
				<path style="fill:none;stroke:#787878;stroke-linecap:round;stroke-linejoin:round;stroke-miterlimit:10;" d="M212.07,266.65
					c-3.63,0.66-5.76,0.66-5.76,0.66"/>
				<path style="fill:none;stroke:#787878;stroke-linecap:round;stroke-linejoin:round;stroke-miterlimit:10;" d="M252.31,238.65
					c0,0,4.67,4.67-13.33,16.67c-7.93,5.29-15.22,8.25-20.89,9.9"/>
				<path style="fill:none;stroke:#787878;stroke-linecap:round;stroke-linejoin:round;stroke-miterlimit:10;" d="M241.64,235.32
					c0,0-16.67,18-35.33,19.33"/>
				<path style="fill:none;stroke:#787878;stroke-linecap:round;stroke-linejoin:round;stroke-miterlimit:10;" d="M284.08,253.73
					c0.83,1.79,1.38,3.66,1.56,5.59"/>
				<path style="fill:none;stroke:#787878;stroke-linecap:round;stroke-linejoin:round;stroke-miterlimit:10;" d="M260.98,233.32
					c0,0,13.87,6.74,20.84,16.55"/>
			</g>
			<path style="fill:none;stroke:#263238;stroke-linecap:round;stroke-linejoin:round;stroke-miterlimit:10;" d="M262.39,300.43
				c0,0-1.69,4.14-5.76,3.45"/>
			<path style="fill:none;stroke:#263238;stroke-linecap:round;stroke-linejoin:round;stroke-miterlimit:10;" d="M246.85,307.12
				c0,0,3.48,6.25,10.39,4.73c6.9-1.53,10.02-6.78,10.02-6.78"/>
			<path style="fill:#263238;" d="M249.03,289.66c0.16,2.07-0.72,3.82-1.96,3.91c-1.24,0.09-2.37-1.5-2.53-3.57
				c-0.16-2.07,0.72-3.82,1.96-3.91C247.75,285.99,248.88,287.59,249.03,289.66z"/>
			<path style="fill:#263238;" d="M269.7,287.84c0.16,2.07-0.72,3.82-1.96,3.91c-1.24,0.09-2.37-1.5-2.53-3.57
				c-0.16-2.07,0.72-3.82,1.96-3.91C268.42,284.17,269.55,285.77,269.7,287.84z"/>
			<path style="fill:none;stroke:#263238;stroke-linecap:round;stroke-linejoin:round;stroke-miterlimit:10;" d="M238.66,285.18
				c0,0,3.15-4.75,11.16-4.86"/>
			<path style="fill:none;stroke:#263238;stroke-linecap:round;stroke-linejoin:round;stroke-miterlimit:10;" d="M263.83,279.76
				c0,0,4.68-4.37,11.01-0.33"/>
		</g>
		<g>
			<path style="fill:#FFFFFF;stroke:#263238;stroke-linecap:round;stroke-linejoin:round;stroke-miterlimit:10;" d="M215.5,325.5
				l48.09,36.82c0.36,0.28,0.88,0.09,0.99-0.36l0.25-1.11c0.05-0.24-0.03-0.48-0.22-0.63l-49.15-38.53
				C215.46,321.69,211.6,322.85,215.5,325.5z"/>
			<path style="fill:#8342EA;stroke:#263238;stroke-linecap:round;stroke-linejoin:round;stroke-miterlimit:10;" d="M263.59,362.31
				c0,0,2.09,2.85,3.49,3.17c1.41,0.32,5.51,1.03,5.51,1.03s-1.29-2.9-3.78-4.96c-2.49-2.05-4.21-1.34-4.21-1.34L263.59,362.31z"/>
		</g>
		<g>
			<path style="fill:#FFFFFF;stroke:#263238;stroke-linecap:round;stroke-linejoin:round;stroke-miterlimit:10;" d="M215.04,362.55
				c0,0,6.27-25.06,6.27-26.17c0-1.11,12.9-5.9,14.37-6.63c1.47-0.74,9.95,5.9,10.69,7c0.74,1.11,1.84,6.27,3.69,11.43
				c1.84,5.16,2.21,8.11,1.84,9.58c-0.37,1.47-0.37,5.53-3.32,5.53c-2.95,0-2.58-5.9-2.58-5.9l-12.16,2.95c0,0-1.47,6.27-4.79,8.85
				c-3.32,2.58-5.53,4.42-5.53,4.42s-21.01,44.6-23.96,48.65c-2.95,4.05-11.79,5.53-16.95,2.58c-5.16-2.95-8.85-11.43-6.63-19.16
				c2.21-7.74,32.43-34.64,34.64-36.49C212.83,367.34,215.04,362.55,215.04,362.55z"/>
			<path style="fill:none;stroke:#263238;stroke-linecap:round;stroke-linejoin:round;stroke-miterlimit:10;" d="M233.47,350.76
				c0,0,12.53,1.84,14.37,1.84c1.84,0,2.21-0.37,3.32,1.47"/>
			
				<line style="fill:none;stroke:#263238;stroke-linecap:round;stroke-linejoin:round;stroke-miterlimit:10;" x1="232" y1="343.38" x2="248.58" y2="347.07"/>
			
				<line style="fill:none;stroke:#263238;stroke-linecap:round;stroke-linejoin:round;stroke-miterlimit:10;" x1="230.89" y1="337.86" x2="246" y2="340.07"/>
		</g>
		<g>
			<path style="fill:#8342EA;stroke:#263238;stroke-linecap:round;stroke-linejoin:round;stroke-miterlimit:10;" d="M326.07,378.36
				c-7.12,5.23-16.27,4.88-20.44-0.79c-4.17-5.67-1.78-14.52,5.34-19.75s19.09-6.95,23.26-1.28
				C338.39,362.21,333.18,373.13,326.07,378.36z"/>
			<g>
				<g>
					<path style="fill:none;stroke:#263238;stroke-linecap:round;stroke-linejoin:round;stroke-miterlimit:10;" d="M336.78,372.34
						c0,0,5.16-1.11,7-1.84c1.84-0.74,3.69,2.58,0.37,5.16c-3.32,2.58-8.48,4.42-8.48,4.42L336.78,372.34z"/>
					<path style="fill:#FFFFFF;stroke:#263238;stroke-linecap:round;stroke-linejoin:round;stroke-miterlimit:10;" d="M302.5,388.19
						c0,0,3.32-7,5.16-8.85c1.84-1.84,8.11-0.37,8.11-0.37s3.32-12.9,4.42-12.9c1.11,0,2.21,1.47,2.21,1.47s1.84-3.32,3.69-3.32
						c1.84,0,2.58,1.84,2.58,1.84s0-2.21,2.58-1.84c2.58,0.37,2.95,2.21,2.95,2.21s1.84-0.74,2.95-0.37
						c1.11,0.37,0,20.27-0.74,22.11c-0.74,1.84-22.11,5.16-22.11,5.16s-5.9,22.11-11.79,28.01c-5.9,5.9-18.06,7.37-19.53-2.21
						c-1.47-9.58-1.11-16.22,7.37-21.74C298.82,391.88,302.5,388.19,302.5,388.19z"/>
					
						<line style="fill:none;stroke:#263238;stroke-linecap:round;stroke-linejoin:round;stroke-miterlimit:10;" x1="315.77" y1="378.98" x2="314" y2="384.98"/>
					<path style="fill:none;stroke:#263238;stroke-linecap:round;stroke-linejoin:round;stroke-miterlimit:10;" d="M334.2,366.45
						c0,0,0.37,17.69-1.47,21.01"/>
					<path style="fill:none;stroke:#263238;stroke-linecap:round;stroke-linejoin:round;stroke-miterlimit:10;" d="M328.67,366.08
						c0,0,0,16.95-0.37,19.9"/>
				</g>
				<path style="fill:none;stroke:#263238;stroke-linecap:round;stroke-linejoin:round;stroke-miterlimit:10;" d="M322.41,367.55
					c0,0,0.74,14.37-1.47,19.53"/>
			</g>
		</g>
	</g>
</g>
<g id="Bottles">
	<g>
		
			<rect x="296.91" y="405.63" style="fill:#FFFFFF;stroke:#263238;stroke-linecap:round;stroke-linejoin:round;stroke-miterlimit:10;" width="25.18" height="27.33"/>
		<path style="fill:#FFFFFF;stroke:#263238;stroke-linecap:round;stroke-linejoin:round;stroke-miterlimit:10;" d="M320.81,436.32
			h-22.61c-1.86,0-3.36-1.5-3.36-3.36v-20.61c0-1.86,1.5-3.36,3.36-3.36h22.61c1.86,0,3.36,1.5,3.36,3.36v20.61
			C324.17,434.81,322.66,436.32,320.81,436.32z"/>
		
			<rect x="296.45" y="414.59" style="fill:#8342EA;stroke:#263238;stroke-linecap:round;stroke-linejoin:round;stroke-miterlimit:10;" width="21.06" height="12.82"/>
	</g>
	<g>
		
			<rect x="340.41" y="405.63" style="fill:#FFFFFF;stroke:#263238;stroke-linecap:round;stroke-linejoin:round;stroke-miterlimit:10;" width="25.18" height="27.33"/>
		<path style="fill:#FFFFFF;stroke:#263238;stroke-linecap:round;stroke-linejoin:round;stroke-miterlimit:10;" d="M364.31,436.32
			h-22.61c-1.86,0-3.36-1.5-3.36-3.36v-20.61c0-1.86,1.5-3.36,3.36-3.36h22.61c1.86,0,3.36,1.5,3.36,3.36v20.61
			C367.67,434.81,366.16,436.32,364.31,436.32z"/>
		
			<rect x="339.95" y="414.59" style="fill:#263238;stroke:#263238;stroke-linecap:round;stroke-linejoin:round;stroke-miterlimit:10;" width="21.06" height="12.82"/>
	</g>
</g>
<g id="Eggs_2">
	<g>
		<g>
			<path style="fill:#263238;stroke:#263238;stroke-linecap:round;stroke-linejoin:round;stroke-miterlimit:10;" d="M526.57,390.67
				c0,0.99-0.07,1.96-0.21,2.9c-0.27,1.88-0.81,3.64-1.56,5.23c-2.22,4.71-6.3,7.87-10.98,7.87s-8.77-3.16-10.98-7.87
				c-0.75-1.59-1.29-3.35-1.56-5.23c-0.14-0.94-0.21-1.91-0.21-2.9c0-1.52,0.17-3.09,0.49-4.65c0.19-0.98,0.45-1.95,0.75-2.91
				c2.05-6.4,6.43-11.94,11.51-11.94c5.07,0,9.46,5.54,11.51,11.94c0.3,0.96,0.56,1.93,0.76,2.91
				C526.4,387.58,526.57,389.15,526.57,390.67z"/>
			<path style="fill:#8342EA;stroke:#263238;stroke-miterlimit:10;" d="M525.33,383.11h-23.02c-0.3,0.96-0.56,1.93-0.75,2.91h24.53
				C525.89,385.04,525.63,384.07,525.33,383.11z M501.28,393.57c0.27,1.88,0.81,3.64,1.56,5.23h21.96c0.75-1.59,1.29-3.35,1.56-5.23
				H501.28z M503.35,388.05v3.49h3.49v-3.49H503.35z M512.65,388.05v3.49h3.49v-3.49H512.65z M521.95,388.05v3.49h3.49v-3.49H521.95
				z"/>
		</g>
		<g>
			<path style="fill:#FFFFFF;" d="M535.27,396.79c-0.35,0-0.7-0.01-1.04-0.03c-0.05,0-0.09,0-0.13-0.01
				c-1.95-0.12-3.8-0.52-5.49-1.14c-0.45-0.16-0.89-0.34-1.31-0.55c-0.95-0.43-1.84-0.95-2.65-1.53c-0.33-0.24-0.66-0.49-0.97-0.74
				c-1.24-1.05-2.25-2.25-2.97-3.58c-0.33-0.56-0.6-1.15-0.8-1.76c-0.01-0.01-0.01-0.01-0.01-0.02c-0.13-0.36-0.23-0.73-0.32-1.1
				c-0.18-0.76-0.26-1.54-0.26-2.34c0.01-1.39,0.29-2.72,0.82-3.97c0.13-0.35,0.29-0.68,0.47-1.01c0.22-0.43,0.48-0.84,0.77-1.24
				c0.74-1.06,1.68-2.02,2.76-2.86c0.35-0.28,0.71-0.54,1.09-0.78c0.35-0.23,0.72-0.45,1.1-0.66c0.95-0.52,1.97-0.94,3.07-1.29
				c0.49-0.16,0.99-0.3,1.51-0.41c1.41-0.31,2.91-0.49,4.45-0.48l0.01,0c0.82,0,1.65,0.06,2.48,0.16c3.36,0.38,6.79,1.5,9.7,3.12
				c0.38,0.21,0.75,0.43,1.1,0.65c3.64,2.31,6.19,5.45,6.17,8.9c-0.01,2.95-1.89,5.65-4.72,7.8c-0.22,0.17-0.45,0.34-0.69,0.5
				c-0.99,0.69-2.1,1.31-3.26,1.87l-0.04,0.02c-1.4,0.65-2.91,1.21-4.45,1.61C539.54,396.49,537.36,396.8,535.27,396.79z"/>
			<g>
				<path style="fill:#8342EA;" d="M526.34,373.47c-0.38,0.21-0.75,0.43-1.1,0.66l0.13,0.07l-1.22,0.7l-1.82,2.32l5.27-3.02
					L526.34,373.47z"/>
				<polygon style="fill:#8342EA;" points="520.84,379.13 520.14,380.01 525.33,383.04 519.59,386.32 520,387.36 527.56,383.05 				
					"/>
				<path style="fill:#92E3A9;" d="M541.74,379.48l6.26,3.66l-6.3,3.59l-0.01,1.59l6.26,3.65l-6.3,3.59l0,0.36
					c1.54-0.4,3.04-0.96,4.45-1.61l0.04-0.02l3.26-1.87c0.24-0.16,0.47-0.33,0.69-0.5l-7.54-4.4l7.67-4.38l-7.63-4.45l6.05-3.46
					c-0.35-0.22-0.72-0.44-1.1-0.65l-5.81,3.33L541.74,379.48z"/>
				<path style="fill:#92E3A9;" d="M519.9,387.42c0,0.01,0,0.01,0.01,0.02l0.15,0.09l-0.06-0.16L519.9,387.42z"/>
				<path style="fill:#92E3A9;" d="M521.38,377.76c-0.28,0.4-0.54,0.81-0.77,1.24l0.22,0.13l1.49-1.9L521.38,377.76z"/>
				<polygon style="fill:#92E3A9;" points="535.37,371.29 535.38,371.29 535.38,371.29 				"/>
				<path style="fill:#8342EA;" d="M520.06,387.52l0.66,1.68l4.58,2.67l-1.6,0.91c0.31,0.25,0.64,0.5,0.97,0.74l2.87-1.65
					L520.06,387.52z"/>
				<path style="fill:#8342EA;" d="M542.63,391.94l-7.63-4.45l7.67-4.38l-7.63-4.45l7.67-4.39l-4.85-2.82l-2.48-0.16l5.1,2.97
					l-6.3,3.6l-0.01,1.58l6.26,3.66l-6.3,3.59l-0.01,1.59l6.26,3.65l-6.3,3.59l-0.01,1.22c0.04,0.01,0.08,0.01,0.13,0.01
					L542.63,391.94z"/>
				<path style="fill:#8342EA;" d="M527.45,387.46l7.67-4.38l-7.63-4.45l7.67-4.39l-4.24-2.47c-0.52,0.12-1.02,0.26-1.51,0.41
					l3.51,2.04l-6.3,3.6l-0.01,1.58l6.26,3.66l-6.3,3.59l-0.01,1.59l6.26,3.65l-5.53,3.16c0.42,0.2,0.86,0.38,1.31,0.55l6.47-3.69
					L527.45,387.46z"/>
			</g>
			<path style="fill:none;stroke:#263238;stroke-linecap:round;stroke-linejoin:round;stroke-miterlimit:10;" d="M535.27,396.79
				c-0.35,0-0.7-0.01-1.04-0.03c-0.05,0-0.09,0-0.13-0.01c-1.95-0.12-3.8-0.52-5.49-1.14c-0.45-0.16-0.89-0.34-1.31-0.55
				c-0.95-0.43-1.84-0.95-2.65-1.53c-0.33-0.24-0.66-0.49-0.97-0.74c-1.24-1.05-2.25-2.25-2.97-3.58c-0.33-0.56-0.6-1.15-0.8-1.76
				c-0.01-0.01-0.01-0.01-0.01-0.02c-0.13-0.36-0.23-0.73-0.32-1.1c-0.18-0.76-0.26-1.54-0.26-2.34c0.01-1.39,0.29-2.72,0.82-3.97
				c0.13-0.35,0.29-0.68,0.47-1.01c0.22-0.43,0.48-0.84,0.77-1.24c0.74-1.06,1.68-2.02,2.76-2.86c0.35-0.28,0.71-0.54,1.09-0.78
				c0.35-0.23,0.72-0.45,1.1-0.66c0.95-0.52,1.97-0.94,3.07-1.29c0.49-0.16,0.99-0.3,1.51-0.41c1.41-0.31,2.91-0.49,4.45-0.48
				l0.01,0c0.82,0,1.65,0.06,2.48,0.16c3.36,0.38,6.79,1.5,9.7,3.12c0.38,0.21,0.75,0.43,1.1,0.65c3.64,2.31,6.19,5.45,6.17,8.9
				c-0.01,2.95-1.89,5.65-4.72,7.8c-0.22,0.17-0.45,0.34-0.69,0.5c-0.99,0.69-2.1,1.31-3.26,1.87l-0.04,0.02
				c-1.4,0.65-2.91,1.21-4.45,1.61C539.54,396.49,537.36,396.8,535.27,396.79z"/>
		</g>
		<g>
			<path style="fill:#FFFFFF;stroke:#263238;stroke-linecap:round;stroke-linejoin:round;stroke-miterlimit:10;" d="M578.12,398.61
				c-7.39,4.84-16.51,4-20.37-1.89s-1-14.59,6.39-19.43c7.39-4.84,19.44-5.91,23.3-0.03C591.3,383.14,585.51,393.76,578.12,398.61z"
				/>
			<path style="fill:#263238;" d="M574.88,378.1c-0.88-1.34-0.5-3.14,0.84-4.02c1.34-0.88,3.14-0.5,4.02,0.84
				c0.88,1.34,0.5,3.14-0.84,4.02C577.56,379.82,575.76,379.44,574.88,378.1z M585.44,388.9c1.34-0.88,1.72-2.68,0.84-4.02
				c-0.88-1.34-2.68-1.72-4.02-0.84c-1.34,0.88-1.72,2.68-0.84,4.02C582.29,389.41,584.1,389.78,585.44,388.9z M576.65,388.75
				c1.34-0.88,1.72-2.68,0.84-4.02c-0.88-1.34-2.68-1.72-4.02-0.84c-1.34,0.88-1.72,2.68-0.84,4.02
				C573.51,389.26,575.31,389.63,576.65,388.75z M565.11,390.76c1.34-0.88,1.72-2.68,0.84-4.02c-0.88-1.34-2.68-1.72-4.02-0.84
				c-1.34,0.88-1.72,2.68-0.84,4.02C561.97,391.26,563.77,391.64,565.11,390.76z M569.44,383.06c1.34-0.88,1.72-2.68,0.84-4.02
				c-0.88-1.34-2.68-1.72-4.02-0.84c-1.34,0.88-1.72,2.68-0.84,4.02C566.3,383.56,568.1,383.94,569.44,383.06z M574.57,397.77
				c1.34-0.88,1.72-2.68,0.84-4.02c-0.88-1.34-2.68-1.72-4.02-0.84c-1.34,0.88-1.72,2.68-0.84,4.02
				C571.42,398.27,573.22,398.65,574.57,397.77z M565.67,401.16c1.34-0.88,1.72-2.68,0.84-4.02c-0.88-1.34-2.68-1.72-4.02-0.84
				c-1.34,0.88-1.72,2.68-0.84,4.02C562.53,401.67,564.33,402.04,565.67,401.16z"/>
		</g>
		<g>
			<path style="fill:#263238;" d="M560.03,370.76c6.96,5.45,9.08,14.36,4.74,19.9c-4.34,5.54-13.5,5.62-20.46,0.18
				c-6.96-5.45-11.84-16.51-7.5-22.06C541.16,363.23,553.07,365.31,560.03,370.76z"/>
			<path style="fill:#8342EA;" d="M541.65,380.4c-0.99,1.26-2.82,1.49-4.08,0.5c-1.26-0.99-1.49-2.82-0.5-4.08
				c0.99-1.26,2.82-1.49,4.08-0.5C542.41,377.31,542.64,379.13,541.65,380.4z M548.49,366.93c-1.26-0.99-3.09-0.77-4.08,0.5
				c-0.99,1.26-0.77,3.09,0.5,4.08c1.26,0.99,3.09,0.77,4.08-0.5S549.76,367.92,548.49,366.93z M551.17,375.3
				c-1.26-0.99-3.09-0.77-4.08,0.5c-0.99,1.26-0.77,3.09,0.5,4.08c1.26,0.99,3.09,0.77,4.08-0.5
				C552.66,378.12,552.43,376.29,551.17,375.3z M556.77,385.59c-1.26-0.99-3.09-0.77-4.08,0.5c-0.99,1.26-0.77,3.09,0.5,4.08
				c1.26,0.99,3.09,0.77,4.08-0.5C558.26,388.41,558.04,386.58,556.77,385.59z M548.09,383.96c-1.26-0.99-3.09-0.77-4.08,0.5
				c-0.99,1.26-0.77,3.09,0.5,4.08c1.26,0.99,3.09,0.77,4.08-0.5S549.35,384.95,548.09,383.96z M560.38,374.39
				c-1.26-0.99-3.09-0.77-4.08,0.5c-0.99,1.26-0.77,3.09,0.5,4.08c1.26,0.99,3.09,0.77,4.08-0.5
				C561.86,377.2,561.64,375.38,560.38,374.39z M566.45,381.72c-1.26-0.99-3.09-0.77-4.08,0.5c-0.99,1.26-0.77,3.09,0.5,4.08
				c1.26,0.99,3.09,0.77,4.08-0.5C567.93,384.54,567.71,382.71,566.45,381.72z"/>
			<path style="fill:none;stroke:#263238;stroke-linecap:round;stroke-linejoin:round;stroke-miterlimit:10;" d="M560.03,370.76
				c6.96,5.45,9.08,14.36,4.74,19.9c-4.34,5.54-13.5,5.62-20.46,0.18c-6.96-5.45-11.84-16.51-7.5-22.06
				C541.16,363.23,553.07,365.31,560.03,370.76z"/>
		</g>
		<g>
			<path style="fill:#FFFFFF;stroke:#263238;stroke-linecap:round;stroke-linejoin:round;stroke-miterlimit:10;" d="M556.4,436.32
				h-23.63c-9.23,0-17.9-5.64-23.34-15.18l-17.85-31.3h106l-17.85,31.3C574.3,430.68,565.62,436.32,556.4,436.32z"/>
			<g>
				
					<circle style="fill:#FFFFFF;stroke:#263238;stroke-linecap:round;stroke-linejoin:round;stroke-miterlimit:10;" cx="536.03" cy="421.3" r="6.67"/>
				
					<circle style="fill:#FFFFFF;stroke:#263238;stroke-linecap:round;stroke-linejoin:round;stroke-miterlimit:10;" cx="548.91" cy="404.98" r="6.67"/>
				<path style="fill:#FFFFFF;stroke:#263238;stroke-linecap:round;stroke-linejoin:round;stroke-miterlimit:10;" d="M507.36,414.63
					c-0.53,0-1.04,0.07-1.54,0.18l3.6,6.32c0.92,1.61,1.93,3.09,3.02,4.47c0.99-1.16,1.58-2.66,1.58-4.31
					C514.03,417.62,511.04,414.63,507.36,414.63z"/>
				<path style="fill:#FFFFFF;stroke:#263238;stroke-linecap:round;stroke-linejoin:round;stroke-miterlimit:10;" d="M500.03,396.63
					c3.68,0,6.67-2.98,6.67-6.67c0-0.04-0.01-0.08-0.01-0.13h-13.32c0,0.04-0.01,0.08-0.01,0.13
					C493.36,393.65,496.34,396.63,500.03,396.63z"/>
				<path style="fill:#FFFFFF;stroke:#263238;stroke-linecap:round;stroke-linejoin:round;stroke-miterlimit:10;" d="M524.25,404.98
					c0-3.68-2.98-6.67-6.67-6.67c-3.68,0-6.67,2.98-6.67,6.67c0,3.68,2.98,6.67,6.67,6.67
					C521.26,411.65,524.25,408.66,524.25,404.98z"/>
				
					<circle style="fill:#FFFFFF;stroke:#263238;stroke-linecap:round;stroke-linejoin:round;stroke-miterlimit:10;" cx="563.36" cy="421.3" r="6.67"/>
				<path style="fill:#FFFFFF;stroke:#263238;stroke-linecap:round;stroke-linejoin:round;stroke-miterlimit:10;" d="M529.36,389.97
					c0,3.68,2.98,6.67,6.67,6.67c3.68,0,6.67-2.98,6.67-6.67c0-0.04-0.01-0.08-0.01-0.13h-13.32
					C529.36,389.88,529.36,389.92,529.36,389.97z"/>
				<path style="fill:#FFFFFF;stroke:#263238;stroke-linecap:round;stroke-linejoin:round;stroke-miterlimit:10;" d="M580.25,411.65
					c3.68,0,6.67-2.98,6.67-6.67c0-3.68-2.98-6.67-6.67-6.67s-6.67,2.98-6.67,6.67C573.58,408.66,576.57,411.65,580.25,411.65z"/>
				<path style="fill:#FFFFFF;stroke:#263238;stroke-linecap:round;stroke-linejoin:round;stroke-miterlimit:10;" d="M556.69,389.97
					c0,3.68,2.98,6.67,6.67,6.67c3.68,0,6.67-2.98,6.67-6.67c0-0.04-0.01-0.08-0.01-0.13H556.7
					C556.7,389.88,556.69,389.92,556.69,389.97z"/>
			</g>
		</g>
	</g>
</g>
<g id="Eggs_1">
	<g>
		<path style="fill:#FFFFFF;stroke:#263238;stroke-linecap:round;stroke-linejoin:round;stroke-miterlimit:10;" d="M114.82,413.92
			c0,8.84-5.71,16-12.75,16s-12.75-7.16-12.75-16c0-8.84,5.71-19.5,12.75-19.5S114.82,405.09,114.82,413.92z"/>
		<path style="fill:#FFFFFF;stroke:#263238;stroke-linecap:round;stroke-linejoin:round;stroke-miterlimit:10;" d="M148.89,413.92
			c0,8.84-5.71,16-12.75,16c-7.04,0-12.75-7.16-12.75-16c0-8.84,5.71-19.5,12.75-19.5C143.18,394.42,148.89,405.09,148.89,413.92z"
			/>
		<path style="fill:#FFFFFF;stroke:#263238;stroke-linecap:round;stroke-linejoin:round;stroke-miterlimit:10;" d="M180.63,413.92
			c0,8.84-5.71,16-12.75,16c-7.04,0-12.75-7.16-12.75-16c0-8.84,5.71-19.5,12.75-19.5C174.92,394.42,180.63,405.09,180.63,413.92z"
			/>
		<path style="fill:#FFFFFF;stroke:#263238;stroke-linecap:round;stroke-linejoin:round;stroke-miterlimit:10;" d="M212.73,413.92
			c0,8.84-5.71,16-12.75,16c-7.04,0-12.75-7.16-12.75-16c0-8.84,5.71-19.5,12.75-19.5C207.02,394.42,212.73,405.09,212.73,413.92z"
			/>
		<g>
			<polygon style="fill:#BFBFBF;stroke:#263238;stroke-linecap:round;stroke-linejoin:round;stroke-miterlimit:10;" points="
				207.1,436.32 95.17,436.32 95.17,410.71 217.13,410.71 			"/>
			<g>
				<path style="fill:#BFBFBF;stroke:#263238;stroke-linecap:round;stroke-linejoin:round;stroke-miterlimit:10;" d="M108.52,436.32
					H93.85c-2.33,0-4.35-1.94-4.87-4.69l-3.97-20.92h32.35l-3.97,20.92C112.86,434.37,110.85,436.32,108.52,436.32z"/>
				<path style="fill:#BFBFBF;stroke:#263238;stroke-linecap:round;stroke-linejoin:round;stroke-miterlimit:10;" d="M141.73,436.32
					h-14.66c-2.33,0-4.35-1.94-4.87-4.69l-3.97-20.92h32.35l-3.97,20.92C146.07,434.37,144.06,436.32,141.73,436.32z"/>
				<path style="fill:#BFBFBF;stroke:#263238;stroke-linecap:round;stroke-linejoin:round;stroke-miterlimit:10;" d="M174.94,436.32
					h-14.66c-2.33,0-4.35-1.94-4.87-4.69l-3.97-20.92h32.35l-3.97,20.92C179.29,434.37,177.27,436.32,174.94,436.32z"/>
				<path style="fill:#BFBFBF;stroke:#263238;stroke-linecap:round;stroke-linejoin:round;stroke-miterlimit:10;" d="M208.15,436.32
					h-14.66c-2.33,0-4.35-1.94-4.87-4.69l-3.97-20.92h32.35l-3.97,20.92C212.49,434.37,210.48,436.32,208.15,436.32z"/>
			</g>
		</g>
	</g>
</g>
</svg>
