<?xml version="1.0" encoding="utf-8"?>
<!-- Generator: Adobe Illustrator 25.2.0, SVG Export Plug-In . SVG Version: 6.00 Build 0)  -->
<svg version="1.1" xmlns="http://www.w3.org/2000/svg" xmlns:xlink="http://www.w3.org/1999/xlink" x="0px" y="0px"
	 viewBox="0 0 500 500" style="enable-background:new 0 0 500 500;" xml:space="preserve">
<g id="Background_Simple">
	<g>
		<path style="fill:#CFB6FF;" d="M327.3,67.7c0,0-76.99-27.38-152.56,16.21c-75.57,43.58-113.7,130.1-146.45,199.41
			c-32.75,69.3-13.9,139.8,43.79,171.94c57.69,32.14,96.92-15.24,177.84-17.55c80.93-2.31,102.69,9.26,169.85-36.45
			c67.15-45.72,79.29-153.69,26.32-233.58C393.12,87.79,327.3,67.7,327.3,67.7z"/>
		<path style="opacity:0.7;fill:#FFFFFF;" d="M327.3,67.7c0,0-76.99-27.38-152.56,16.21c-75.57,43.58-113.7,130.1-146.45,199.41
			c-32.75,69.3-13.9,139.8,43.79,171.94c57.69,32.14,96.92-15.24,177.84-17.55c80.93-2.31,102.69,9.26,169.85-36.45
			c67.15-45.72,79.29-153.69,26.32-233.58C393.12,87.79,327.3,67.7,327.3,67.7z"/>
	</g>
</g>
<g id="Window">
	
		<line style="fill:none;stroke:#263238;stroke-linecap:round;stroke-linejoin:round;stroke-miterlimit:10;" x1="11" y1="458.65" x2="488" y2="458.65"/>
	<g>
		<rect x="20.33" y="311.11" style="fill:#263238;" width="460.67" height="4.2"/>
		
			<line style="fill:none;stroke:#263238;stroke-linecap:round;stroke-linejoin:round;stroke-miterlimit:10;" x1="373.68" y1="313.59" x2="373.68" y2="38"/>
		
			<line style="fill:none;stroke:#263238;stroke-linecap:round;stroke-linejoin:round;stroke-miterlimit:10;" x1="165.63" y1="313.59" x2="165.63" y2="39.45"/>
		
			<line style="fill:none;stroke:#263238;stroke-linecap:round;stroke-linejoin:round;stroke-miterlimit:10;" x1="32.82" y1="199.4" x2="464.37" y2="199.4"/>
		<g>
			
				<line style="fill:none;stroke:#263238;stroke-width:0.5;stroke-linecap:round;stroke-linejoin:round;stroke-miterlimit:10;" x1="226.37" y1="156.67" x2="220.98" y2="159.99"/>
			
				<line style="fill:none;stroke:#263238;stroke-width:0.5;stroke-linecap:round;stroke-linejoin:round;stroke-miterlimit:10;" x1="317.08" y1="100.77" x2="233.6" y2="152.22"/>
			
				<line style="fill:none;stroke:#263238;stroke-width:0.5;stroke-linecap:round;stroke-linejoin:round;stroke-miterlimit:10;" x1="328.1" y1="104.24" x2="261.21" y2="145.46"/>
			
				<line style="fill:none;stroke:#263238;stroke-width:0.5;stroke-linecap:round;stroke-linejoin:round;stroke-miterlimit:10;" x1="357.31" y1="86.24" x2="337.11" y2="98.69"/>
		</g>
	</g>
</g>
<g id="Plant">
	<g>
		<g>
			<g>
				<path style="fill:none;stroke:#263238;stroke-width:3;stroke-linecap:round;stroke-linejoin:round;stroke-miterlimit:10;" d="
					M438.62,235.74c0,0,0.48,60.51,0.48,76.49c0,15.98-0.48,111.68-0.48,111.68"/>
				<polygon style="fill:#9E6CFF;" points="474.92,251.23 459.92,238.65 489,245 464.76,231.39 489.97,226.12 459.92,224.61 
					493.32,199.44 455.56,218.32 477.34,181.04 448.3,214.44 458.46,165.55 439.58,211.06 437.65,160.23 433.78,212.02 
					413.18,166.26 427.48,216.38 396.67,182.77 423.61,224.13 385.47,196.92 421.19,231.39 380.76,209.29 417.8,234.29 
					384.29,229.93 416.83,239.13 390.78,243.48 417.8,242.52 401.83,253.17 439.58,243.01 				"/>
			</g>
			<path style="fill:none;stroke:#263238;stroke-width:3;stroke-linecap:round;stroke-linejoin:round;stroke-miterlimit:10;" d="
				M424.09,296.74c0,0-1.45,12.59-0.48,17.43c0.97,4.84,1.45,10.65,1.45,16.94c0,6.29,0.48,33.04,0.48,37.4
				c0,4.36-0.48,41.37-0.48,44.76c0,3.39,0,5.81,0,7.75c0,1.94,0,3.87,0,3.87"/>
			<path style="fill:none;stroke:#263238;stroke-width:3;stroke-linecap:round;stroke-linejoin:round;stroke-miterlimit:10;" d="
				M425.55,363.66c0,0,1.94-36.91,3.87-41.75c1.94-4.84,3.39-3.39,3.87-9.2c0.48-5.81,0.48-8.23,1.45-10.17
				c0.97-1.94,1.94-5.32,1.94-5.32l0.97-3.87"/>
			<polygon style="fill:#9E6CFF;" points="459.92,309.32 444.91,296.74 487.03,301.58 449.75,289.48 487.99,282.7 444.91,282.7 
				478.31,257.53 440.55,276.41 462.34,239.13 433.29,272.53 443.46,223.64 424.58,269.15 422.64,218.32 418.77,270.11 
				403.76,223.16 412.48,274.47 385.85,236.23 408.6,282.22 373.68,259.4 406.18,289.48 370.14,274.73 402.79,292.38 368.97,289.46 
				401.83,297.22 378.99,302.43 402.79,300.61 386.82,311.26 424.58,301.1 			"/>
			<polygon style="fill:#9E6CFF;" points="460.92,392.32 445.91,379.74 488.03,384.58 450.75,372.48 488.99,365.7 445.91,365.7 
				479.31,340.53 441.55,359.41 463.34,322.13 434.29,355.53 444.46,306.64 425.58,352.15 423.64,301.32 419.77,353.11 
				404.76,306.16 413.48,357.47 386.85,319.23 409.6,365.22 374.68,342.4 407.18,372.48 371.14,357.73 403.79,375.38 369.97,372.46 
				402.83,380.22 379.99,385.43 403.79,383.61 387.82,394.26 425.58,384.1 			"/>
		</g>
		<path style="fill:#FFFFFF;stroke:#263238;stroke-linejoin:round;stroke-miterlimit:10;" d="M410.83,411.17l-10.36,17.27
			c-1.59,2.65-2.04,5.84-1.24,8.82l4.6,17.15c0.67,2.5,2.94,4.24,5.52,4.24h47.2c2.59,0,4.85-1.74,5.52-4.24l4.6-17.15
			c0.8-2.99,0.36-6.17-1.23-8.82l-10.36-17.27c-0.71-1.18-1.98-1.9-3.36-1.9h-37.54C412.81,409.27,411.54,409.99,410.83,411.17z"/>
	</g>
</g>
<g id="Character_3">
	<g>
		<g>
			<path style="fill:#FFFFFF;stroke:#263238;stroke-linecap:round;stroke-linejoin:round;stroke-miterlimit:10;" d="M443.01,365.8
				c0,0-7.64,9.82-10.64,18.83c-3,9-23.46,34.92-23.46,34.92l4.64,9.55c0,0,27.83-25.92,33.83-32.19c6-6.27,25.37-28.65,25.65-30.56
				c0.27-1.91-7.91-15.82-7.91-15.82L443.01,365.8z"/>
			<polygon style="fill:#263238;stroke:#263238;stroke-linecap:round;stroke-linejoin:round;stroke-miterlimit:10;" points="
				452.63,361.43 466.57,353.83 465.11,350.52 451.36,361.18 			"/>
		</g>
		<g>
			<path style="fill:#FFFFFF;stroke:#263238;stroke-linecap:round;stroke-linejoin:round;stroke-miterlimit:10;" d="M342.24,390.07
				c0,0,31.63,46.94,32.63,48.61c1,1.66,2.66,5.33,4.33,5.33c1.66,0,8.44,2.2,8.77-0.13s-1.22-7.8-2.22-10.8
				c-1-3-17.79-46.03-17.79-46.03L342.24,390.07z"/>
			<path style="fill:#263238;stroke:#263238;stroke-linecap:round;stroke-linejoin:round;stroke-miterlimit:10;" d="M343.88,392.61
				c0,0,8.87,4.06,15.97,4.31c7.1,0.25,10.65-1.77,10.65-1.77l-1.27-4.31l-25.86-0.76L343.88,392.61z"/>
		</g>
		<g>
			<path style="fill:#263238;stroke:#263238;stroke-linecap:round;stroke-linejoin:round;stroke-miterlimit:10;" d="M382.53,441
				c0,0-5.99-7.99-7.66-6.33c-1.66,1.66-2,6.66-3.66,8.99c-1.66,2.33-16.98,10.32-16.65,11.65c0.33,1.33,1.43,3.33,4.99,3.33
				c1,0,30.96,0,30.96,0s1.66-4.99,0.67-7.66c-1-2.66-4-11.99-4-11.99L382.53,441z"/>
			<path style="fill:#8342EA;stroke:#263238;stroke-linecap:round;stroke-linejoin:round;stroke-miterlimit:10;" d="M354.61,455.48
				c0.38,1.33,1.52,3.17,4.94,3.17c1,0,30.96,0,30.96,0s1.15-3.46,0.96-6.16c-3.49,0.85-9.29,2.29-14.75,3.02
				C369.97,456.42,358.27,455.73,354.61,455.48z"/>
		</g>
		<path style="fill:#263238;stroke:#263238;stroke-linecap:round;stroke-linejoin:round;stroke-miterlimit:10;" d="M421.33,429.95
			c0,0,2.02-4.4,1.28-6.42c-0.73-2.02-4.95,0.37-5.69,0.73c-0.73,0.37-5.69-9.35-5.69-9.35s-3.67,2.93-6.79,4.03
			c-3.12,1.1-6.79,4.03-6.97,5.32c-0.18,1.28,4.03,9.9,4.58,14.67c0.55,4.77,2.38,12.29,5.14,14.67c2.75,2.38,7.34,2.75,7.7,1.47
			c0.37-1.28-1.65-6.05-1.65-7.15c0-1.1,5.5-14.67,5.69-15.59C419.13,431.42,421.33,429.95,421.33,429.95z"/>
		<path style="fill:#8342EA;stroke:#263238;stroke-linecap:round;stroke-linejoin:round;stroke-miterlimit:10;" d="M414.91,455.07
			c0.04-0.14,0.05-0.32,0.04-0.53c-3.38,0.15-7.17-1.83-8.29-4.24c-1.28-2.75-2.02-10.45-3.12-18.71
			c-0.81-6.08-2.71-8.97-3.66-10.07c-1.33,1.03-2.3,2.09-2.39,2.73c-0.18,1.28,4.03,9.9,4.58,14.67c0.55,4.77,2.38,12.29,5.14,14.67
			C409.96,455.99,414.55,456.36,414.91,455.07z"/>
		<path style="fill:#FFFFFF;stroke:#263238;stroke-linecap:round;stroke-linejoin:round;stroke-miterlimit:10;" d="M402.83,216.61
			c0,0,16.65,4.33,21.31,5.99c4.66,1.66-4.33,14.32-4.33,14.32l-19.31-1L402.83,216.61z"/>
		<g>
			<path style="fill:#8342EA;stroke:#263238;stroke-linecap:round;stroke-linejoin:round;stroke-miterlimit:10;" d="M352.56,320.15
				c0,0-6.99,27.3-8.99,39.95c-2,12.65-4,30.96-4,30.96s10.99,3.33,23.97,2c12.98-1.33,17.98-4.33,17.98-4.33l9.9-43.93l6.41-9.68
				l32.96,38.62c0,0,15.65-7.99,22.64-13.32c6.99-5.33,13.98-10.65,13.98-10.65s-22.64-31.63-30.3-38.95
				c-7.66-7.32-16.98-14.65-16.98-14.65l-64.59,20.31L352.56,320.15z"/>
			<polygon style="fill:#263238;stroke:#263238;stroke-linecap:round;stroke-linejoin:round;stroke-miterlimit:10;" points="
				397.84,335.13 403.2,323.13 401.03,333.66 413.1,324.06 401.65,339.54 			"/>
			<path style="fill:none;stroke:#263238;stroke-linecap:round;stroke-linejoin:round;stroke-miterlimit:10;" d="M378.04,384.33
				c1.24-0.43,2.51-0.91,3.79-1.44"/>
			<path style="fill:none;stroke:#263238;stroke-linecap:round;stroke-linejoin:round;stroke-miterlimit:10;" d="M340.96,385.06
				c0,0,13.83,5.82,33.12,0.5"/>
			<path style="fill:none;stroke:#263238;stroke-linecap:round;stroke-linejoin:round;stroke-miterlimit:10;" d="M428.9,368.96
				c0,0,20.75-12.08,33.44-23.22"/>
		</g>
		<path style="fill:#263238;stroke:#263238;stroke-linecap:round;stroke-linejoin:round;stroke-miterlimit:10;" d="M409.49,281.2
			c-0.67-1.33-8.32-20.64-8.32-20.64s0.33-4.33,0.33-10.99s-1.33-11.65-1.33-11.65s5.66-4.66,7.66-7.32
			c2-2.66,4.66-11.65,4.66-11.65s-8.99-3-12.32-3.66c-3.33-0.67-9.65-2-14.98-1.33c-5.33,0.67-15.31,4.99-15.31,4.99l-2.33-7.66
			c0,0-10.99-5.99-14.98-6.66c-4-0.67-10.32-0.67-10.99,0.67c-0.67,1.33,8.32,21.64,8.32,21.64s-5.65,2.33-10.61,5.22
			c-2.74,1-10.98,1.32-14.18,3.65c-3.66,2.66-5.85,11.45-4.51,12.78c1.33,1.33,5.66,0.33,5.66,0.33l15.09,8.92
			c5.66,7.72,13.87,26.16,13.87,30.7c0,4.66-3.33,33.63-3.33,33.63s25.97,1.66,41.62-5.66c15.65-7.32,27.97-20.31,27.97-20.31
			S410.16,282.53,409.49,281.2z"/>
		<g>
			<path style="fill:#FFFFFF;stroke:#263238;stroke-linecap:round;stroke-linejoin:round;stroke-miterlimit:10;" d="M385.19,213.95
				c-5.33,0.67-15.31,4.99-15.31,4.99l-2.33-7.66c0,0-10.99-5.99-14.98-6.66c-4-0.67-10.32-0.67-10.99,0.67
				c-0.67,1.33,8.32,21.64,8.32,21.64s-3.5,1.44-7.4,3.46c4.85,3.98,13.07,8.21,23.72,4.19c13.9-5.24,22.01-16.27,24.83-20.71
				C389.08,213.73,387.07,213.71,385.19,213.95z"/>
			<path style="fill:#263238;stroke:#263238;stroke-linecap:round;stroke-linejoin:round;stroke-miterlimit:10;" d="M349.32,211.13
				c0,0,5.02,3.54,8.56,5.02s11.22,1.18,11.22,1.18l-1.56-6.05L349.32,211.13z"/>
		</g>
		<path style="fill:#FFFFFF;stroke:#263238;stroke-linecap:round;stroke-linejoin:round;stroke-miterlimit:10;" d="M326.26,248.9
			c0,0,12.32-4,14.98-3c2.66,1,22.31,30.63,21.31,31.63c-1,1-13.65,10.99-13.65,10.99s-12.65-18.64-18.64-27.63
			C324.26,251.9,326.26,248.9,326.26,248.9z"/>
		<g>
			<path style="fill:#FFFFFF;stroke:#263238;stroke-linecap:round;stroke-linejoin:round;stroke-miterlimit:10;" d="M343.24,280.2
				c0,0,7.04,10.91,8.32,10.99c1.28,0.08,15.76-13.38,21.37-18.5c5.61-5.11,22.25-28.69,22.25-28.69s2.5-0.82,5.98-3.22
				c3.48-2.4,5.86-9.72,5.86-9.72s3.89-8.82,4.35-10.48c0.46-1.66-0.2-6.72-1.26-5.37c-1.06,1.36-4.18,5.65-6.99,8.58
				c-2.81,2.93-11.93,13.9-11.93,13.9s-38.54,31.19-39.45,31.49"/>
			<path style="fill:#FFFFFF;stroke:#263238;stroke-linecap:round;stroke-linejoin:round;stroke-miterlimit:10;" d="M410.84,221.87
				c0,0-1.85-0.47-2.55,1.32c-0.7,1.79-5.24,8.04-6.92,9.83"/>
			<path style="fill:#FFFFFF;stroke:#263238;stroke-linecap:round;stroke-linejoin:round;stroke-miterlimit:10;" d="M411.02,218.22
				c0,0-1.45-0.12-2.26,1.15c-0.82,1.27-5.82,7.4-7.27,9.25"/>
		</g>
		<g>
			<path style="fill:#FFFFFF;stroke:#263238;stroke-linecap:round;stroke-linejoin:round;stroke-miterlimit:10;" d="M419.71,221.35
				c0,0,12.72,5.05,13.09,6.24c1.39,4.52-2.07,10.94-7.6,17.04c-4.94,5.44-29.26,29.71-29.26,29.71s-0.24,2.53-1.76,6.34
				c-1.52,3.81-7.92,7.62-7.92,7.62s-7.49,5.57-8.96,6.36c-1.47,0.79-6.39,1.26-5.34-0.04c1.05-1.3,4.43-5.16,6.6-8.44
				c2.17-3.28,13.25-19.9,13.25-19.9s20.52-34.34,20.6-35.26"/>
			<path style="fill:#FFFFFF;stroke:#263238;stroke-linecap:round;stroke-linejoin:round;stroke-miterlimit:10;" d="M379.5,293.48
				c0,0-1-1.72,0.74-2.95c1.74-1.23,3.86-4.05,4.98-6.04"/>
			<path style="fill:#FFFFFF;stroke:#263238;stroke-linecap:round;stroke-linejoin:round;stroke-miterlimit:10;" d="M375.9,294.77
				c0,0-1.63,0.08,0.4-1.82c2.04-1.9,5.55-7.15,6.09-8.03"/>
		</g>
		<path style="fill:#8342EA;stroke:#263238;stroke-linecap:round;stroke-linejoin:round;stroke-miterlimit:10;" d="M328.92,200.63
			c0,0-12.65,8.66-12.32,11.32c0.33,2.66,14.32,5.99,15.98,4.99c1.66-1,4.33-19.64,3.66-20.64
			C335.58,195.3,328.92,200.63,328.92,200.63z"/>
		<path style="fill:#263238;stroke:#263238;stroke-linecap:round;stroke-linejoin:round;stroke-miterlimit:10;" d="M330.92,196.3
			c0,0-1,11.32-5.33,19.31c-4.33,7.99-4.66,16.65,8.32,20.31s22.97-6.66,23.64-8.66c0.67-2,1.66-4.66,1.66-4.66s-4,3.66-8.32-2.66
			c-4.33-6.33-5.99-12.98-1.66-16.65c4.33-3.66,10.99-6.99,11.32-11.65c0.33-4.66,0.33-15.65,0.33-15.65L330.92,196.3z"/>
		<g>
			<path style="fill:#FFFFFF;stroke:#263238;stroke-linecap:round;stroke-linejoin:round;stroke-miterlimit:10;" d="M368.21,179.32
				c0,0,2.66,6.66,4.99,6.99c2.33,0.33,4-0.67,3.66,1.66c-0.33,2.33-2,4.99-2,4.99s2.69,17.75,0.36,19.08
				c-2.33,1.33-13.68,3.23-23.66,1.23c-2.94-0.59-5.99-5.66-5.99-5.66s-7.78-0.19-8.78-5.51c-1-5.33,3.74-7.63,6.41-6.63
				c2.66,1,4.04,4.48,4.04,4.48s10.32-6.66,10.99-10.65c0.67-4,0.67-8.99,0.67-8.99L368.21,179.32z"/>
			<g>
				<g>
					
						<path style="fill:#92E3A9;stroke:#263238;stroke-width:0.5;stroke-linecap:round;stroke-linejoin:round;stroke-miterlimit:10;" d="
						M336.35,205.3c-0.13,0-0.27-0.05-0.37-0.15c-0.22-0.2-0.23-0.55-0.03-0.77l2.87-3.09c0.21-0.22,0.55-0.23,0.77-0.03
						c0.22,0.2,0.23,0.55,0.03,0.77l-2.87,3.09C336.64,205.24,336.49,205.3,336.35,205.3z"/>
				</g>
				<g>
					
						<path style="fill:#92E3A9;stroke:#263238;stroke-width:0.5;stroke-linecap:round;stroke-linejoin:round;stroke-miterlimit:10;" d="
						M339.66,207.73c-0.07,0-0.14-0.01-0.21-0.04c-0.28-0.12-0.4-0.44-0.29-0.71l1.33-3.09c0.12-0.28,0.44-0.41,0.72-0.29
						c0.28,0.12,0.4,0.44,0.29,0.71l-1.33,3.09C340.07,207.61,339.87,207.73,339.66,207.73z"/>
				</g>
				<g>
					
						<path style="fill:#92E3A9;stroke:#263238;stroke-width:0.5;stroke-linecap:round;stroke-linejoin:round;stroke-miterlimit:10;" d="
						M342.98,209.5c-0.03,0-0.06,0-0.1-0.01c-0.3-0.05-0.49-0.33-0.44-0.63l0.66-3.76c0.05-0.3,0.34-0.49,0.63-0.44
						c0.3,0.05,0.49,0.33,0.44,0.63l-0.66,3.76C343.46,209.32,343.23,209.5,342.98,209.5z"/>
				</g>
			</g>
			<path style="fill:none;stroke:#263238;stroke-width:2;stroke-linecap:round;stroke-linejoin:round;stroke-miterlimit:10;" d="
				M362.88,187.64c0,0,3.33-2.66,5.66-1"/>
			<path style="fill:none;stroke:#263238;stroke-linecap:round;stroke-linejoin:round;stroke-miterlimit:10;" d="M361.88,183.65
				c0,0,1-4.66,4.66-4"/>
			<path style="fill:none;stroke:#263238;stroke-linecap:round;stroke-linejoin:round;stroke-miterlimit:10;" d="M374.54,196.3
				c0,0-4.99,4.66-10.99,1.33"/>
		</g>
		<path style="fill:#8342EA;stroke:#263238;stroke-linecap:round;stroke-linejoin:round;stroke-miterlimit:10;" d="M328.92,200.63
			c0,0,19.31-14.65,27.63-17.98c8.32-3.33,11.65-3.33,11.65-3.33s-4.66-9.65-6.99-12.65c-2.33-3-21.31,0.33-24.97,2
			c-3.66,1.66-6.66,4.66-10.32,11.99C322.27,187.98,324.6,194.97,328.92,200.63z"/>
	</g>
</g>
<g id="Character_1_1_">
	<g>
		<g>
			<path style="fill:#263238;stroke:#263238;stroke-linecap:round;stroke-linejoin:round;stroke-miterlimit:10;" d="M67.72,326.05
				c0,0-22.44,36.68-22.08,39.89c0.33,2.94,20.86,65.55,23.83,74.8c0.24,0.74,0.97,1.2,1.74,1.09l9.64-1.38
				c0.84-0.12,1.43-0.87,1.36-1.71c-0.55-6.54-2.72-32.68-2.72-42.31c0-11.04-4.29-32.28-4.29-32.28s32.41-25.29,35.26-27.07
				c2.85-1.78,14.6-2.85,17.45-2.14c2.85,0.71,39.89,28.14,39.89,28.14l-31.71,57.42l3.08,11.92c0,0,64.96-67.2,65.31-70.4
				c0.36-3.21-26.36-34.9-37.04-45.23c-10.68-10.33-17.1-14.6-17.1-14.6l-74.79,12.47L67.72,326.05z"/>
			
				<line style="fill:none;stroke:#616161;stroke-linecap:round;stroke-linejoin:round;stroke-miterlimit:10;" x1="167.8" y1="363.09" x2="180.98" y2="372.35"/>
			
				<line style="fill:none;stroke:#616161;stroke-linecap:round;stroke-linejoin:round;stroke-miterlimit:10;" x1="75.2" y1="364.16" x2="69.5" y2="369.51"/>
		</g>
		<g>
			<path style="fill:#8342EA;stroke:#263238;stroke-linecap:round;stroke-linejoin:round;stroke-miterlimit:10;" d="M59.83,213.31
				c0,0-16.27,26.23-16.6,30.21c-0.33,3.98,32.2,65.07,32.2,65.07l-8.96,18.26c0,0,16.6,10.62,44.48,5.64
				c27.89-4.98,42.96-27.81,42.96-27.81l-13.08-13.36l-24.57-76.02c0,0-4.98-13.28-7.3-14.27c-2.32-1-29.88,5.98-37.84,6.31
				C63.15,207.67,59.83,213.31,59.83,213.31z"/>
			<path style="fill:#263238;stroke:#263238;stroke-linecap:round;stroke-linejoin:round;stroke-miterlimit:10;" d="M56.08,271.93
				c0,0,14.98,14.98,17.23,15.73c2.25,0.75,11.61-11.99,11.61-11.99L56.08,271.93z"/>
			<path style="fill:none;stroke:#263238;stroke-linecap:round;stroke-linejoin:round;stroke-miterlimit:10;" d="M101.89,317.35
				c-1.82,0.83-3.71,1.64-5.68,2.42"/>
			<path style="fill:none;stroke:#263238;stroke-linecap:round;stroke-linejoin:round;stroke-miterlimit:10;" d="M134.81,293.18
				c0,0-8.36,10.95-25.78,20.57"/>
			<path style="fill:none;stroke:#263238;stroke-linecap:round;stroke-linejoin:round;stroke-miterlimit:10;" d="M111.22,304.33
				c0,0-14.58,8.15-27.02,12.01"/>
		</g>
		<g>
			<path style="fill:#8342EA;stroke:#263238;stroke-linecap:round;stroke-linejoin:round;stroke-miterlimit:10;" d="M89.68,204.19
				c0,0,17.73-4.53,25.13-5.55c7.4-1.02,31.9-5.79,32.66-5.79c0.77,0-3.57,22.46-3.57,22.46l-30.37,13.19"/>
			<path style="fill:#B2B2B2;stroke:#263238;stroke-linecap:round;stroke-linejoin:round;stroke-miterlimit:10;" d="M148.54,193.2
				c-0.46,0-8.86,0.65-14.7,1.95c-0.83,4.92-1.65,14.18,1.59,23.73l8.47-3.57C143.9,215.3,149.31,193.2,148.54,193.2z"/>
		</g>
		<path style="fill:#B2B2B2;stroke:#263238;stroke-linecap:round;stroke-linejoin:round;stroke-miterlimit:10;" d="M59.83,213.31
			c0,0-2.32,3.74-5.23,8.61c2.8,5.35,15,16.87,28.74,7.35c10.62-7.36,7.38-17.71,6.34-25.09c-7.43,1.51-14.99,3-18.57,3.15
			C63.15,207.67,59.83,213.31,59.83,213.31z"/>
		<g>
			<path style="fill:#263238;stroke:#263238;stroke-linecap:round;stroke-linejoin:round;stroke-miterlimit:10;" d="M36.59,188.42
				c-1.33-0.33-18.59,1.99-16.6-0.66c1.99-2.66,8.63-4.32,8.63-4.32s-8.96-2.66-8.96-7.3s7.64,2.66,9.96,3.98s-3.98-5.98-4.98-10.96
				c-1-4.98,4.98,1.66,4.98,1.66s-3.98-20.58,1.33-22.57c5.31-1.99,4.98,19.25,4.98,19.25s1.99-10.62,6.31-12.95
				c4.32-2.32,0.33,6.64,0,7.64c-0.33,1,6.97-9.63,14.27-11.62c7.3-1.99-1.66,7.64-4.65,10.29c-2.99,2.66-3.98,3.32-3.98,3.32
				s14.61-7.64,13.94-4.32c-0.66,3.32-1.66,3.65-1.66,3.65s10.96-3.98,11.29-1.33c0.33,2.66-18.59,4.32-21.91,6.64
				c-3.32,2.32-4.65,4.98-6.31,9.63C41.57,183.1,36.59,188.42,36.59,188.42z"/>
			<path style="fill:#B2B2B2;stroke:#263238;stroke-linecap:round;stroke-linejoin:round;stroke-miterlimit:10;" d="M64.14,221.28
				l-10.29-13.61c0,0-3.82-0.66-10.29-4.98c-10.95-7.3-9.96-20.25-3.98-27.22c5.98-6.97,17.93-10.29,22.57-8.3
				c4.65,1.99,8.63,3.98,10.29,6.97c1.66,2.99,0,2.66,0,2.66s6.64,1.33,7.3,2.32c0.66,1-1.33,4.98-1.33,4.98s6.64,8.63,6.64,13.94
				c0,5.31-3.65,5.64-3.65,5.64l1.99,12.28"/>
			<path style="fill:none;stroke:#263238;stroke-linecap:round;stroke-linejoin:round;stroke-miterlimit:10;" d="M77.53,183.04
				c0,0-1.92,2.35-2.56,2.35s-3.2,0-1.92-2.56"/>
			<path style="fill:none;stroke:#263238;stroke-linecap:round;stroke-linejoin:round;stroke-miterlimit:10;" d="M70.12,174.47
				c0,0-3.65-1.33-4.32,1.99"/>
			<path style="fill:#263238;" d="M70.95,177.5c0.6,1.03,0.58,2.16-0.05,2.53c-0.63,0.37-1.63-0.16-2.24-1.19
				c-0.6-1.03-0.58-2.16,0.05-2.53C69.35,175.94,70.35,176.47,70.95,177.5z"/>
			<path style="fill:#263238;stroke:#263238;stroke-linecap:round;stroke-linejoin:round;stroke-miterlimit:10;" d="M84.07,193.78
				c0,0.1,0,0.2-0.01,0.28c-0.33,1.66-3.98,4.32-7.3,3.65c-3.32-0.66-3.65-3.98-3.32-6.31c0.33-2.28,7.03-3.92,7.28-3.98
				c-1.26-1.96-2.3-3.33-2.3-3.33s-8.96,6.31-8.96,8.63c0,2.32,4.32,8.3,3.32,8.63c-1,0.33-5.64,0.33-7.64-1
				c-1.99-1.33-11.29-13.94-11.29-15.6c0-1.66,2.66-3.98,1-5.64c-1.65-1.65-6.23-6.89,4.72-12.48c-5.56-0.36-14.92,2.91-19.99,8.83
				c-5.98,6.97-6.97,19.92,3.98,27.22c6.47,4.31,10.29,4.98,10.29,4.98l3.79-9.53c0,0,7.16,6.54,8.16,6.54
				c1,0,10.15,2.14,16.13,1.48c0.12-0.01-0.32-2.52-0.21-2.54c0.89-0.22,3.33-1.24,3.33-5.58
				C85.06,196.76,84.66,195.28,84.07,193.78z"/>
			<path style="fill:none;stroke:#263238;stroke-linecap:round;stroke-linejoin:round;stroke-miterlimit:10;" d="M82.07,189.74
				c0,0-6.31,3.32-8.63,1.66"/>
			<path style="fill:#B2B2B2;stroke:#263238;stroke-linecap:round;stroke-linejoin:round;stroke-miterlimit:10;" d="M55.18,194.06
				c0,0-2.99-1.33-5.64-1c-2.66,0.33-2.66,3.98,1.33,6.31c3.98,2.32,7.3,1.99,7.3,0c0-1.99,0-1.99,0-1.99L55.18,194.06z"/>
		</g>
		<g>
			<path style="fill:#8342EA;stroke:#263238;stroke-linecap:round;stroke-linejoin:round;stroke-miterlimit:10;" d="M49.99,229.77
				c0,0-9.7,11.99-11.99,20.93c-2.3,8.93,3.83,12.25,6.89,14.8c3.06,2.55,23.29,14.49,28.33,16.33c5.04,1.84,15.06-19.65,14.8-21.44
				c-0.26-1.79-25.77-17.86-25.77-17.86"/>
			<path style="fill:#B2B2B2;stroke:#263238;stroke-linecap:round;stroke-linejoin:round;stroke-miterlimit:10;" d="M88.02,260.39
				c-0.13-0.89-6.54-5.33-12.93-9.57c-11.6,4.82-13.92,17.91-14.33,24.52c5.25,3,10.27,5.69,12.45,6.48
				C78.26,283.66,88.27,262.17,88.02,260.39z"/>
		</g>
		<g>
			<path style="fill:#B2B2B2;stroke:#263238;stroke-linecap:round;stroke-linejoin:round;stroke-miterlimit:10;" d="M68.37,279.53
				c0,0,8.54,4.39,9.89,4.13c1.35-0.25,13.3-12.37,17.77-19.14c4.47-6.77,15.52-35.55,15.52-35.55s2.37-1.5,5.35-4.91
				c2.98-3.4,3.52-11.6,3.52-11.6s1.71-10.16,1.76-12c0.04-1.84-1.97-6.91-2.71-5.23c-0.75,1.68-2.85,6.95-4.98,10.72
				c-2.14,3.78-12.9,23-12.9,23s-26.73,29.6-27.59,30.15"/>
			<path style="fill:none;stroke:#263238;stroke-linecap:round;stroke-linejoin:round;stroke-miterlimit:10;" d="M121.96,201.95
				c0,0-2.04,0-2.3,2.04c-0.26,2.04-3.32,9.7-4.59,11.99"/>
			<path style="fill:none;stroke:#263238;stroke-linecap:round;stroke-linejoin:round;stroke-miterlimit:10;" d="M121.19,198.12
				c0,0-1.53,0.26-2.04,1.79c-0.51,1.53-4.08,9.19-5.1,11.48"/>
		</g>
		<g>
			<path style="fill:#B2B2B2;stroke:#263238;stroke-linecap:round;stroke-linejoin:round;stroke-miterlimit:10;" d="M144.41,193.36
				c0,0,13.86-2.32,15.06-0.26c2.62,4.52-1.18,18-6.63,25.26c-4.87,6.49-29.09,35.64-29.09,35.64s0,2.81-1.28,7.15
				c-1.28,4.34-7.91,9.19-7.91,9.19s-7.66,6.89-9.19,7.91c-1.53,1.02-6.89,2.04-5.87,0.51c1.02-1.53,4.34-6.12,6.38-9.95
				c2.04-3.83,12.5-23.22,12.5-23.22s19.01-39.83,19.01-40.85"/>
			<path style="fill:none;stroke:#263238;stroke-linecap:round;stroke-linejoin:round;stroke-miterlimit:10;" d="M107.67,276.72
				c0,0-1.28-1.79,0.51-3.32c1.79-1.53,3.83-4.85,4.85-7.15"/>
			<path style="fill:none;stroke:#263238;stroke-linecap:round;stroke-linejoin:round;stroke-miterlimit:10;" d="M103.84,278.51
				c0,0-1.79,0.26,0.26-2.04c2.04-2.3,5.36-8.42,5.87-9.44"/>
		</g>
		<g>
			<path style="fill:#FFFFFF;stroke:#263238;stroke-linecap:round;stroke-linejoin:round;stroke-miterlimit:10;" d="M84.85,433.26
				L76,435.03c-0.67,0.13-1.34-0.17-1.69-0.76c-1.1-1.88-3.61-5.78-5.5-5.78c-2.49,0-5.34,2.85-4.27,5.34
				c0.81,1.9,1.21,4.63,1.36,5.82c0.05,0.38-0.04,0.76-0.26,1.08c-1.12,1.65-4.92,7.03-8.22,9.13c-3.92,2.49-9.26,5.7-7.84,7.84
				c1.31,1.96,33.14,0.33,38.43,0.04c0.54-0.03,1.02-0.33,1.29-0.8c0.49-0.84,1.1-2.36,0.88-4.58c-0.31-3.13-2.55-14.79-3.09-17.57
				c-0.08-0.39-0.29-0.73-0.61-0.97l-0.36-0.27C85.75,433.28,85.29,433.17,84.85,433.26z"/>
			<path style="fill:#FFFFFF;stroke:#263238;stroke-linecap:round;stroke-linejoin:round;stroke-miterlimit:10;" d="M51.18,454.92
				c-0.5-0.01-0.99,0.22-1.28,0.62c-0.57,0.79-0.75,1.52-0.32,2.16c1.31,1.96,33.1,0.33,38.42,0.04c0.53-0.03,1.01-0.31,1.28-0.77
				c0.02-0.03,0.04-0.06,0.05-0.09c0.6-1.07-0.27-2.39-1.5-2.32C76.67,455.11,59.48,455.01,51.18,454.92z"/>
		</g>
		<g>
			<path style="fill:#FFFFFF;stroke:#263238;stroke-linecap:round;stroke-linejoin:round;stroke-miterlimit:10;" d="M137.39,418.89
				l3.56,8.19c0,0,8.9-7.48,10.68-5.34c1.78,2.14-0.71,7.12-3.21,8.9c-2.49,1.78-3.92,3.92-3.92,3.92s-2.49,11.75-2.14,14.6
				c0.36,2.85,5.7,2.14,5.7,4.27s-1.42,4.63-6.77,4.63c-5.34,0-12.11-1.78-13.53-4.63c-1.42-2.85-3.21-11.4-7.12-18.16
				c-3.92-6.77-4.27-13.18-0.71-14.96c3.56-1.78,15.67-7.12,16.74-5.34C137.75,416.76,137.39,418.89,137.39,418.89z"/>
			<path style="fill:#FFFFFF;stroke:#263238;stroke-linecap:round;stroke-linejoin:round;stroke-miterlimit:10;" d="M147.2,456.02
				c-5.01,0.16-14.39-0.42-16.94-3.29c-2.85-3.21-4.27-14.96-6.77-21.37c-1.64-4.23-2.2-8.9-2.39-11.61
				c-0.45,0.21-0.85,0.4-1.17,0.57c-3.56,1.78-3.21,8.19,0.71,14.96c3.92,6.77,5.7,15.31,7.12,18.16c1.42,2.85,8.19,4.63,13.53,4.63
				C144.49,458.07,146.28,457.19,147.2,456.02z"/>
		</g>
	</g>
</g>
<g id="Character_2">
	<g>
		<g>
			<path style="fill:#FFFFFF;stroke:#263238;stroke-linecap:round;stroke-linejoin:round;stroke-miterlimit:10;" d="M329.35,346.72
				c0,0-8.52,5.81-11.61,12.39c-3.1,6.58-17.81,34.07-22.07,37.17c-4.26,3.1-20.91,3.48-22.07,5.81c-1.16,2.32,1.94,8.52,4.65,17.03
				c2.71,8.52,6.58,19.74,10.07,22.84c3.48,3.1,7.36,5.81,8.52,2.71c1.16-3.1-1.16-12.78-1.16-15.49s6.97-18.2,8.13-20.13
				c1.16-1.94,31.36-25.55,38.71-36c7.36-10.45,15.87-23.62,15.87-27.1c0-3.48-8.9-11.61-8.9-11.61L329.35,346.72z"/>
			<path style="fill:#FFFFFF;stroke:#263238;stroke-linecap:round;stroke-linejoin:round;stroke-miterlimit:10;" d="M294.9,410.99
				l-2.93-13.18c-6.46,1.78-17.43,2.4-18.37,4.27c-1.16,2.32,1.94,8.52,4.65,17.03c2.71,8.52,6.58,19.74,10.07,22.84
				c3.48,3.1,7.36,5.81,8.52,2.71c1.16-3.1-1.16-12.78-1.16-15.49s6.97-18.2,8.13-20.13L294.9,410.99z"/>
			<path style="fill:#FFFFFF;stroke:#263238;stroke-linecap:round;stroke-linejoin:round;stroke-miterlimit:10;" d="M291.7,444.65
				c-2.42-3.64-5.18-9.24-7.26-16.24c-2.42-8.16-5.31-22.23-6.46-28c-2.33,0.47-4.04,0.99-4.38,1.67
				c-1.16,2.32,1.94,8.52,4.65,17.03c2.71,8.52,6.58,19.74,10.07,22.84C289.44,442.96,290.6,443.91,291.7,444.65z"/>
		</g>
		<g>
			<path style="fill:#FFFFFF;stroke:#263238;stroke-linecap:round;stroke-linejoin:round;stroke-miterlimit:10;" d="M215.53,435.38
				c0,0-8.13,8.13-12,12.39c-3.87,4.26-11.23,6.97-9.29,9.68c1.94,2.71,46.84,0,46.84,0s2.71,0,3.1-2.71
				c0.39-2.71-5.03-21.29-5.03-21.29L215.53,435.38z"/>
			<path style="fill:#FFFFFF;stroke:#263238;stroke-linecap:round;stroke-linejoin:round;stroke-miterlimit:10;" d="M244.18,454.73
				c0.1-0.71-0.2-2.53-0.7-4.82c-6,1.37-13.62,3.73-19.43,4.43c-8.2,0.98-23.61,0.3-28.85,0.07c-1.14,1.06-1.67,2.04-0.96,3.03
				c1.94,2.71,46.84,0,46.84,0S243.79,457.44,244.18,454.73z"/>
		</g>
		<g>
			<g>
				<path style="fill:#8342EA;stroke:#263238;stroke-linecap:round;stroke-linejoin:round;stroke-miterlimit:10;" d="M222.28,272.02
					l-16.43,42.57c0,0-15.87,37.94-12.78,47.23s14.71,53.04,14.71,59.62c0,6.58-3.48,9.68,0,12s7.74,5.42,13.16,5.03
					c5.42-0.39,17.03,0,18.2-1.55c1.16-1.55,5.03-11.23,3.87-14.71c-1.16-3.48-6.19-16.26-8.13-29.81
					c-1.94-13.55-8.52-34.84-7.74-37.17c0.77-2.32,24.78-37.17,27.87-39.88c3.1-2.71,15.49-5.03,15.49-5.03s25.94,24.39,29.81,28.26
					c3.87,3.87,16.26,4.65,16.26,4.65l26.33-18.58c0,0-1.55-7.74-15.49-21.68c-13.94-13.94-58.24-46.34-58.24-46.34L222.28,272.02z"
					/>
				<polygon style="fill:#263238;stroke:#263238;stroke-linecap:round;stroke-linejoin:round;stroke-miterlimit:10;" points="
					227.15,355.24 224.19,345.72 229.75,350.63 				"/>
			</g>
			<path style="fill:none;stroke:#263238;stroke-linecap:round;stroke-linejoin:round;stroke-miterlimit:10;" d="M279.3,277.32
				c0,0-5.63,14.4-7.21,23.7"/>
			<path style="fill:none;stroke:#263238;stroke-linecap:round;stroke-linejoin:round;stroke-miterlimit:10;" d="M275.7,276.29
				c0,0-4.97,14.94-3.77,18.04"/>
			<path style="fill:none;stroke:#263238;stroke-linecap:round;stroke-linejoin:round;stroke-miterlimit:10;" d="M207.79,358.72
				c0,0,6.19,36.78,15.49,53.04"/>
			<path style="fill:none;stroke:#263238;stroke-linecap:round;stroke-linejoin:round;stroke-miterlimit:10;" d="M234.4,409.42
				c0.44,0.58,0.86,1.1,1.27,1.57"/>
			<path style="fill:none;stroke:#263238;stroke-linecap:round;stroke-linejoin:round;stroke-miterlimit:10;" d="M213.21,371.5
				c0,0,9.38,19.51,17.11,31.9"/>
		</g>
		<path style="fill:#263238;stroke:#263238;stroke-linecap:round;stroke-linejoin:round;stroke-miterlimit:10;" d="M222.28,272.02
			c0,0-6.75,9.27-8.69,16.24s-4.65,12-6.97,14.32c-2.32,2.32-13.55,11.61-17.42,14.71c-3.87,3.1-3.87,3.48-1.94,7.36
			c1.94,3.87,1.94,6.19,3.1,5.81c1.16-0.39,8.9-8.13,15.49-15.87c6.58-7.74,23.62-14.71,28.65-22.07
			c5.03-7.36,13.94-20.52,13.94-20.52s-7.36,34.84-7.74,38.33c-0.39,3.48,2.32,4.26,3.87,4.26s6.97-2.32,6.97-2.32l1.55-3.87
			c0,0,4.26-1.94,4.26-5.42c0-3.48-2.32-30.58-2.32-30.58s3.87,25.94,5.81,26.33c1.94,0.39,8.52-1.94,8.52-6.97
			c0-5.03-10.84-23.23-10.84-23.23s9.68,2.32,14.32,2.32c4.65,0,21.29,4.65,21.29,4.65s-1.55-7.36-3.1-10.07
			c-1.55-2.71-21.85-8.78-21.85-8.78S260.39,269.71,222.28,272.02z"/>
		<path style="fill:#263238;stroke:#263238;stroke-linecap:round;stroke-linejoin:round;stroke-miterlimit:10;" d="M226.22,134.07
			c0,0,2.59,2.59,8.51,7.4c5.92,4.81,7.77,9.25,21.46,4.07c13.69-5.18,29.98,4.07,32.94,11.1c2.96,7.03-1.11,17.39-2.59,18.5
			c-1.48,1.11-1.11,0-1.85-4.07c-0.74-4.07-8.14-6.66-8.14-6.66s3.7,5.92,2.22,13.32c-1.48,7.4-6.88,15.4-23.68,23.68
			s-31.46,5.92-39.23-12.21C208.09,171.08,222.52,133.33,226.22,134.07z"/>
		<path style="fill:#8342EA;stroke:#263238;stroke-linecap:round;stroke-linejoin:round;stroke-miterlimit:10;" d="M256.2,145.54
			c-13.69,5.18-15.54,0.74-21.46-4.07c-5.92-4.81-8.51-7.4-8.51-7.4c-0.33-0.07-0.75,0.19-1.23,0.69l0.98,1.08
			c0,0,4.67,19.07,18.76,18.43c10.01-0.45,20.01-7.36,31.63-7.89C270.27,143.94,262.92,143,256.2,145.54z"/>
		<g>
			<path style="fill:#FFFFFF;stroke:#263238;stroke-linecap:round;stroke-linejoin:round;stroke-miterlimit:10;" d="M230.22,190.39
				c0,0,12.16-5.71,23.82-5.95c11.66-0.25,50.37-0.74,53.84-0.74c3.47,0-0.25,5.46-2.73,10.92c-2.48,5.46-10.42,10.42-14.14,10.92
				c-3.72,0.5-32.5,3.47-32.5,3.47s4.22,9.68,3.23,14.14c-0.99,4.47-4.47,12.65-4.47,12.65l11.91,20.84c0,0-9.92,8.44-19.35,11.91
				c-9.43,3.47-25.55,3.47-26.55,3.47s-0.99,0-0.99,0s-22.58-33.74-28.28-39.45c-5.71-5.71-9.18-17.12-6.7-22.08
				c2.48-4.96,17.37-14.14,20.1-16.13c2.73-1.98,16.62-4.96,16.62-4.96L230.22,190.39z"/>
			
				<line style="fill:none;stroke:#263238;stroke-linecap:round;stroke-linejoin:round;stroke-miterlimit:10;" x1="252.68" y1="207.77" x2="248.3" y2="190.54"/>
		</g>
		<g>
			<path style="fill:#FFFFFF;stroke:#263238;stroke-linecap:round;stroke-linejoin:round;stroke-miterlimit:10;" d="M293.51,184.08
				c0,0,15.18-1.59,15.73-0.27c2.08,5.04-1.24,18.8-6.93,26.39c-5.08,6.78-30.39,37.24-30.39,37.24s0,2.93-1.33,7.46
				c-1.33,4.53-8.26,9.6-8.26,9.6s-8,7.2-9.6,8.26c-1.6,1.07-7.2,2.13-6.13,0.53c1.07-1.6,4.53-6.4,6.66-10.4
				c2.13-4,13.06-24.26,13.06-24.26s19.85-41.61,19.85-42.67"/>
			<path style="fill:#FFFFFF;stroke:#263238;stroke-linecap:round;stroke-linejoin:round;stroke-miterlimit:10;" d="M255.12,271.16
				c0,0-1.33-1.87,0.53-3.47c1.87-1.6,4-5.07,5.07-7.46"/>
			<path style="fill:#FFFFFF;stroke:#263238;stroke-linecap:round;stroke-linejoin:round;stroke-miterlimit:10;" d="M251.12,273.03
				c0,0-1.87,0.27,0.27-2.13c2.13-2.4,5.6-8.8,6.13-9.86"/>
		</g>
		<path style="fill:#263238;stroke:#263238;stroke-linecap:round;stroke-linejoin:round;stroke-miterlimit:10;" d="M233.23,189.13
			c3.61,4.95,13.64,19.33,12.62,24.83c-1.24,6.7-14.39,12.9-21.09,13.65c-6.7,0.74-11.41-4.22-13.65-9.18
			c-1.62-3.61-6.52-14.67-9.07-20.46c-1.04,0.71-2.16,1.47-3.3,2.28c3.01,6.95,10.4,24.43,11.38,30.34
			c1.24,7.44-2.23,13.4-2.23,13.4s1.49,7.46,2.7,10.9c0.39,0.57,0.78,1.13,1.17,1.69c3.3,1.03,17.33-3.05,26.4-7.13
			c6.54-2.94,14.68-9.11,19.49-12.98l-0.38-0.67c0,0,3.43-8.2,4.47-12.65c2.05-8.78-3.23-14.14-3.23-14.14l-23.25-20.64
			C234.51,188.63,233.83,188.89,233.23,189.13z"/>
		<g>
			<polyline style="fill:#FFFFFF;stroke:#263238;stroke-linecap:round;stroke-linejoin:round;stroke-miterlimit:10;" points="
				233.2,197.59 233.7,178.98 204.67,178.48 205.16,198.33 			"/>
			<path style="fill:#263238;stroke:#263238;stroke-linecap:round;stroke-linejoin:round;stroke-miterlimit:10;" d="M215.46,179.16
				c0,0,5.05,5.05,17.67,5.74l0.57-5.92L215.46,179.16z"/>
		</g>
		<g>
			<path style="fill:#FFFFFF;stroke:#263238;stroke-linecap:round;stroke-linejoin:round;stroke-miterlimit:10;" d="M225.97,135.85
				c0,0,3.17,6.33,5.28,10.2c2.11,3.87,3.87,5.28,6.68,5.63c2.81,0.35,3.87,1.76,3.17,4.22c-0.7,2.46-2.46,3.52-2.46,4.57
				s3.17,13.01,2.46,16.53c-0.7,3.52-8.44,4.57-12.66,4.57c-4.22,0-15.48-2.46-15.48-2.46s5.28-34.47,5.28-35.53
				C218.23,142.53,221.4,133.73,225.97,135.85z"/>
			<path style="fill:#263238;" d="M230.61,151.88c0.45,1.39,0.37,2.65-0.17,2.83c-0.54,0.18-1.35-0.81-1.8-2.19
				c-0.45-1.39-0.37-2.65,0.17-2.83C229.36,149.52,230.16,150.5,230.61,151.88z"/>
			<path style="fill:none;stroke:#263238;stroke-linecap:round;stroke-linejoin:round;stroke-miterlimit:10;" d="M237.77,163.79
				c0,0-2.66,4.06-8.49-0.23"/>
		</g>
		<path style="fill:#FFFFFF;stroke:#263238;stroke-linecap:round;stroke-linejoin:round;stroke-miterlimit:10;" d="M188.04,208.75
			c0,0-6.7,6.45-5.46,16.62c1.24,10.17,19.1,47.64,20.84,48.88c1.74,1.24,15.38-7.69,14.14-12.9c-1.24-5.21-13.4-35.23-13.4-34.49"
			/>
		<g>
			<path style="fill:#FFFFFF;stroke:#263238;stroke-linecap:round;stroke-linejoin:round;stroke-miterlimit:10;" d="M198.24,259.23
				c0,0,3.99,15.66,5.44,16.02c1.45,0.36,21.22-13.71,28.69-18.39c7.47-4.68,31.38-28.16,31.38-28.16s3.02-0.42,7.5-2.44
				c4.48-2.02,8.71-9.89,8.71-9.89s6.27-9.27,7.14-11.07c0.87-1.8,1.17-7.72-0.33-6.4c-1.5,1.33-5.95,5.59-9.76,8.36
				s-16.52,13.41-16.52,13.41s-50.51,27.64-51.61,27.79"/>
			<path style="fill:none;stroke:#263238;stroke-linecap:round;stroke-linejoin:round;stroke-miterlimit:10;" d="M286.22,206.66
				c0,0-2.02-0.92-3.19,0.98c-1.17,1.9-7.65,8.1-9.95,9.79"/>
			<path style="fill:none;stroke:#263238;stroke-linecap:round;stroke-linejoin:round;stroke-miterlimit:10;" d="M287.19,202.53
				c0,0-1.63-0.44-2.82,0.85c-1.2,1.28-8.18,7.25-10.23,9.06"/>
		</g>
		<g>
			<path style="fill:#8342EA;stroke:#263238;stroke-linecap:round;stroke-linejoin:round;stroke-miterlimit:10;" d="M313.87,343.24
				c0,0,2.32,7.36,6.97,7.74c4.65,0.39,30.97-13.16,31.75-15.1c0.77-1.94-6.58-12.39-9.68-11.23
				C339.81,325.81,313.87,343.24,313.87,343.24z"/>
			
				<line style="fill:#FFFFFF;stroke:#263238;stroke-linecap:round;stroke-linejoin:round;stroke-miterlimit:10;" x1="320.84" y1="350.98" x2="346" y2="326.59"/>
			
				<line style="fill:#FFFFFF;stroke:#263238;stroke-linecap:round;stroke-linejoin:round;stroke-miterlimit:10;" x1="329.74" y1="348.66" x2="350.26" y2="331.62"/>
		</g>
		<g>
			<path style="fill:#263238;stroke:#263238;stroke-linecap:round;stroke-linejoin:round;stroke-miterlimit:10;" d="M227.73,131.98
				c0,0,2.11,5.98-1.41,17.94c-3.52,11.96-13.37,37.29-10.9,45.38c2.46,8.09,20.05,10.55,22.86,14.42
				c2.81,3.87-3.87,13.01-8.44,15.13c-4.57,2.11-5.28-1.06-5.28-1.06s6.68-1.06,5.63-4.57c-1.06-3.52-3.52-2.81-11.96-0.7
				c-8.44,2.11-30.25-3.17-37.29-9.15c-7.04-5.98,4.57-27.79,1.06-36.23c-3.52-8.44-13.01-22.86,2.46-33.77
				c15.48-10.9,35.53-16.88,39.4-13.37C227.73,129.51,227.73,131.98,227.73,131.98z"/>
			<path style="fill:#8342EA;stroke:#263238;stroke-linecap:round;stroke-linejoin:round;stroke-miterlimit:10;" d="M238.28,209.71
				c-2.81-3.87-20.4-6.33-22.86-14.42c-2.46-8.09,7.39-33.42,10.9-45.38c3.52-11.96,1.41-17.94,1.41-17.94s0-2.46-3.87-5.98
				c-1.29-1.18-4.4-1.29-8.54-0.51c3.19,4.86,8.53,16.3,1.88,31.99c-8.96,21.13-26.67,34.32-18.45,42.77
				c3.64,3.74,9.39,4.97,14.32,5.95c4.26,0.84,8.44,2.02,12.72,2.77c2.61,0.46,7.11,0.68,7.58,4.18c0.39,2.93-1.37,6.84-3.71,8.41
				c-0.02,0.01-0.03,0.02-0.05,0.03c-1.54,1.64-5.02,2.2-5.02,2.2s0.7,3.17,5.28,1.06C234.41,222.73,241.1,213.58,238.28,209.71z"/>
			<path style="fill:#8342EA;stroke:#263238;stroke-linecap:round;stroke-linejoin:round;stroke-miterlimit:10;" d="M203.72,153.19
				c-0.16,1.09-0.28,2.19-0.47,3.27c-0.22,1.07-0.37,2.17-0.61,3.23c-0.28,1.03-0.48,2.08-0.78,3.11c-0.35,1.02-0.63,2.06-1.01,3.08
				c-1.45,4.1-3.65,8.02-6.14,11.84c-2.5,3.82-5.3,7.54-7.87,11.56c-1.25,2.04-2.5,4.12-3.41,6.43c-0.52,1.12-0.84,2.34-1.18,3.55
				c-0.17,0.6-0.21,1.25-0.32,1.87l-0.13,0.94c-0.03,0.32-0.02,0.65-0.03,0.98c-0.03,2.63,0.86,5.19,2.22,7.29
				c0.43,0.66,0.91,1.26,1.41,1.85c1.47,0.74,3.12,1.45,4.89,2.11c-0.03-0.03-0.06-0.05-0.09-0.08c-1.68-1.49-3.16-3.19-4.18-5.08
				c-1-1.89-1.52-3.96-1.33-5.99c0.03-0.25,0.03-0.51,0.07-0.76l0.17-0.78c0.13-0.51,0.18-1.04,0.36-1.54
				c0.37-1.01,0.68-2.02,1.21-2.99c0.92-1.97,2.19-3.83,3.49-5.67c2.67-3.66,5.7-7.2,8.54-11c2.86-3.78,5.58-7.82,7.66-12.33
				c0.5-1.13,0.92-2.31,1.37-3.47c0.38-1.19,0.69-2.41,1-3.63c0.25-1.21,0.43-2.42,0.63-3.63c0.14-1.22,0.22-2.44,0.33-3.66
				c0.22-4.89-0.26-9.77-1.38-14.45c-0.26-1.17-0.6-2.33-0.94-3.48c-0.39-1.14-0.76-2.27-1.21-3.38c-0.5-1.22-1.04-2.42-1.64-3.6
				c-0.5,0.2-1.01,0.4-1.52,0.61C204.27,137.42,204.66,145.43,203.72,153.19z"/>
		</g>
	</g>
</g>
<g id="Music_notes">
	<g style="opacity:0.2;">
		<g>
			<path d="M385.2,89.97c0-11.64,0-23.22,0-34.97c10.12,0,20.16,0,30.34,0c0.05,0.36,0.16,0.77,0.16,1.18
				c0.02,11.59,0.04,23.18,0.03,34.77c-0.01,3.33-1.8,5.81-4.81,6.9c-3.1,1.11-6.57,0.3-8.62-2.01c-2.07-2.34-2.32-5.81-0.59-8.34
				c1.91-2.8,5.68-3.99,9.01-2.83c0.76,0.27,1.47,0.66,2.38,1.07c0-7.33,0-14.55,0-21.94c-8.22,0-16.44,0-24.93,0
				c0,0.74,0,1.47,0,2.19c0,9.71,0.02,19.42-0.01,29.13c-0.02,5.16-4.14,8.64-9.03,7.73c-4.27-0.79-6.97-4.26-6.32-8.12
				c0.63-3.7,4.55-6.42,8.59-5.84C382.62,89.07,383.79,89.56,385.2,89.97z"/>
		</g>
		<g>
			<path d="M319.3,144.04c0-8,0-15.97,0-24.04c6.96,0,13.86,0,20.86,0c0.04,0.25,0.11,0.53,0.11,0.81
				c0.01,7.97,0.03,15.94,0.02,23.9c0,2.29-1.24,4-3.31,4.74c-2.13,0.76-4.52,0.21-5.93-1.38c-1.43-1.61-1.6-4-0.41-5.74
				c1.31-1.92,3.9-2.75,6.2-1.94c0.52,0.18,1.01,0.45,1.64,0.73c0-5.04,0-10.01,0-15.08c-5.65,0-11.3,0-17.14,0
				c0,0.51,0,1.01,0,1.51c0,6.68,0.02,13.35-0.01,20.03c-0.01,3.55-2.84,5.94-6.21,5.32c-2.94-0.54-4.79-2.93-4.34-5.58
				c0.43-2.55,3.13-4.41,5.91-4.02C317.53,143.42,318.33,143.76,319.3,144.04z"/>
		</g>
		<g>
			<path d="M262.99,94.37c0-4.96,0-9.9,0-14.9c4.31,0,8.59,0,12.93,0c0.02,0.15,0.07,0.33,0.07,0.5c0.01,4.94,0.02,9.88,0.01,14.82
				c0,1.42-0.77,2.48-2.05,2.94c-1.32,0.47-2.8,0.13-3.67-0.86c-0.88-1-0.99-2.48-0.25-3.56c0.82-1.19,2.42-1.7,3.84-1.21
				c0.32,0.11,0.63,0.28,1.02,0.46c0-3.12,0-6.2,0-9.35c-3.5,0-7.01,0-10.62,0c0,0.32,0,0.63,0,0.93c0,4.14,0.01,8.28,0,12.42
				c-0.01,2.2-1.76,3.68-3.85,3.3c-1.82-0.34-2.97-1.82-2.69-3.46c0.27-1.58,1.94-2.74,3.66-2.49
				C261.89,93.98,262.38,94.19,262.99,94.37z"/>
		</g>
		<g>
			<path d="M228.82,72.99c0-8,0-15.97,0-24.04c6.96,0,13.86,0,20.86,0c0.04,0.25,0.11,0.53,0.11,0.81
				c0.01,7.97,0.03,15.94,0.02,23.9c0,2.29-1.24,4-3.31,4.74c-2.13,0.76-4.52,0.21-5.93-1.38c-1.43-1.61-1.6-4-0.41-5.74
				c1.31-1.92,3.9-2.75,6.2-1.94c0.52,0.18,1.01,0.45,1.64,0.73c0-5.04,0-10.01,0-15.08c-5.65,0-11.3,0-17.14,0
				c0,0.51,0,1.01,0,1.51c0,6.68,0.02,13.35-0.01,20.03c-0.01,3.55-2.84,5.94-6.21,5.32c-2.94-0.54-4.79-2.93-4.34-5.58
				c0.43-2.55,3.13-4.41,5.91-4.02C227.04,72.37,227.85,72.71,228.82,72.99z"/>
		</g>
		<g>
			<path d="M83.17,115.3c0-11.13,0-22.14,0-33.3c0.15,0.21,0.23,0.3,0.29,0.4c1.59,2.48,3.55,4.63,5.89,6.43
				c2.16,1.66,3.9,3.68,4.99,6.19c0.89,2.06,1.38,4.21,0.72,6.45c-0.79,2.69-3.59,4.72-6.44,4.69c0.5-0.62,1.01-1.22,1.47-1.84
				c0.89-1.19,1.35-2.51,1.07-4c-0.08-0.45-0.22-0.92-0.44-1.32c-0.89-1.59-2.19-2.73-3.89-3.41c-0.15-0.06-0.31-0.1-0.54-0.16
				c0,0.31,0,0.55,0,0.78c0,8.09,0,16.19,0,24.28c0,1.56,0.04,3.11-0.59,4.59c-1.36,3.19-3.81,5.12-7.1,5.94
				c-4.28,1.07-8.18,0.24-11.35-2.94c-3.85-3.87-3.3-9.83,1.11-13.18c4.16-3.16,10.21-3.13,14.34,0.07
				C82.82,115.06,82.94,115.14,83.17,115.3z"/>
		</g>
		<g>
			<path d="M40.72,66.81c0-6.65,0-13.22,0-19.88c0.09,0.13,0.14,0.18,0.18,0.24c0.95,1.48,2.12,2.77,3.52,3.84
				c1.29,0.99,2.33,2.2,2.98,3.7c0.53,1.23,0.82,2.51,0.43,3.85c-0.47,1.61-2.14,2.82-3.85,2.8c0.3-0.37,0.6-0.73,0.88-1.1
				c0.53-0.71,0.81-1.5,0.64-2.39c-0.05-0.27-0.13-0.55-0.26-0.79c-0.53-0.95-1.31-1.63-2.32-2.04c-0.09-0.04-0.19-0.06-0.32-0.1
				c0,0.18,0,0.33,0,0.47c0,4.83,0,9.66,0,14.5c0,0.93,0.02,1.86-0.35,2.74c-0.81,1.9-2.28,3.05-4.24,3.54
				c-2.56,0.64-4.89,0.14-6.78-1.76c-2.3-2.31-1.97-5.87,0.66-7.87c2.48-1.89,6.1-1.87,8.56,0.04
				C40.51,66.67,40.58,66.72,40.72,66.81z"/>
		</g>
		<g>
			<path d="M432,116c0-6.65,0-13.22,0-19.88c0.09,0.13,0.14,0.18,0.18,0.24c0.95,1.48,2.12,2.77,3.52,3.84
				c1.29,0.99,2.33,2.2,2.98,3.7c0.53,1.23,0.82,2.51,0.43,3.85c-0.47,1.61-2.14,2.82-3.85,2.8c0.3-0.37,0.6-0.73,0.88-1.1
				c0.53-0.71,0.81-1.5,0.64-2.39c-0.05-0.27-0.13-0.55-0.26-0.79c-0.53-0.95-1.31-1.63-2.32-2.04c-0.09-0.04-0.19-0.06-0.32-0.1
				c0,0.18,0,0.33,0,0.47c0,4.83,0,9.66,0,14.5c0,0.93,0.02,1.86-0.35,2.74c-0.81,1.9-2.28,3.05-4.24,3.54
				c-2.56,0.64-4.89,0.14-6.78-1.76c-2.3-2.31-1.97-5.87,0.66-7.87c2.48-1.89,6.1-1.87,8.56,0.04
				C431.79,115.86,431.87,115.9,432,116z"/>
		</g>
		<g>
			<path d="M146,117c0-6.65,0-13.22,0-19.88c0.09,0.13,0.14,0.18,0.18,0.24c0.95,1.48,2.12,2.77,3.52,3.84
				c1.29,0.99,2.33,2.2,2.98,3.7c0.53,1.23,0.82,2.51,0.43,3.85c-0.47,1.61-2.14,2.82-3.85,2.8c0.3-0.37,0.6-0.73,0.88-1.1
				c0.53-0.71,0.81-1.5,0.64-2.39c-0.05-0.27-0.13-0.55-0.26-0.79c-0.53-0.95-1.31-1.63-2.32-2.04c-0.09-0.04-0.19-0.06-0.32-0.1
				c0,0.18,0,0.33,0,0.47c0,4.83,0,9.66,0,14.5c0,0.93,0.02,1.86-0.35,2.74c-0.81,1.9-2.28,3.05-4.24,3.54
				c-2.56,0.64-4.89,0.14-6.78-1.76c-2.3-2.31-1.97-5.87,0.66-7.87c2.48-1.89,6.1-1.87,8.56,0.04
				C145.79,116.86,145.87,116.9,146,117z"/>
		</g>
	</g>
</g>
</svg>
