<svg xmlns="http://www.w3.org/2000/svg" viewBox="0 0 750 500" style="enable-background:new 0 0 750 500" xml:space="preserve"><path style="fill:#caaeff" d="M709.95 179.61c-1.38-4.58-2.92-9.09-4.62-13.51-14.6-37.84-47.4-65.96-82.15-83.15-30.21-14.95-64.4-23.25-98.36-21.88-80 3.24-153.05 57.44-234.15 45.29-105.75-15.85-187.68-44.67-234.6 24.7-46.92 69.36-35.71 202.26 28.02 258.38s149.87 33.43 207.29 17.34c57.43-16.09 178.58 65.2 325.64 6.77 42.26-16.79 73.91-50.21 88.94-94.13 15.15-44.28 17.4-95.22 3.99-139.81z"/><path style="opacity:.7;fill:#fff" d="M709.95 179.61c-1.38-4.58-2.92-9.09-4.62-13.51-14.6-37.84-47.4-65.96-82.15-83.15-30.21-14.95-64.4-23.25-98.36-21.88-80 3.24-153.05 57.44-234.15 45.29-105.75-15.85-187.68-44.67-234.6 24.7-46.92 69.36-35.71 202.26 28.02 258.38s149.87 33.43 207.29 17.34c57.43-16.09 178.58 65.2 325.64 6.77 42.26-16.79 73.91-50.21 88.94-94.13 15.15-44.28 17.4-95.22 3.99-139.81z"/><path style="fill:none;stroke:#263238;stroke-linecap:round;stroke-linejoin:round;stroke-miterlimit:10" d="M583.5 55.3c-1.25-3.96-5.72-5.89-9.46-4.07-19.8 9.61-73.73 36.41-66.63 39.96 6.98 3.49 57.24-5.38 76.58-8.98 4.02-.75 6.48-4.84 5.25-8.74L583.5 55.3zM42.23 340.23c-2.51-2.8-2.16-6.48.74-7.78 15.39-6.89 57.8-25.34 57.62-19.24-.18 6-27.41 31.53-38.03 41.26-2.21 2.02-6.33 1.38-8.81-1.38l-11.52-12.86zM258.46 101.59s-28.62-49.44-37.3-49.44c-8.67 0-32.09 27.76-26.02 32.09 6.07 4.34 52.04 32.96 59.85 30.36 7.81-2.6 3.47-13.01 3.47-13.01zM678.39 242.82c-3.29-2.8-8.19-2.54-11.15.61-7.51 7.99-20.34 22.27-17.96 24.36 3.33 2.92 33.92-8.5 38.02-12.15 2.53-2.26-3.74-8.43-8.91-12.82zM658.5 413.22c1.76-3.04.84-6.92-2.1-8.83-7.48-4.85-20.77-13.03-22.09-10.82-1.85 3.08 11.73 25.89 15.24 28.64 2.16 1.69 6.18-4.21 8.95-8.99zM368.73 331.94c4.31.36 8.14-2.7 8.72-6.98 1.47-10.87 3.58-29.95.44-30.26-4.4-.44-22.64 26.65-23.85 32-.76 3.3 7.93 4.67 14.69 5.24z"/><circle style="fill:none;stroke:#263238;stroke-linecap:round;stroke-linejoin:round;stroke-miterlimit:10" cx="629.71" cy="116.34" r="15.61"/><path style="fill:none;stroke:#263238;stroke-linecap:round;stroke-linejoin:round;stroke-miterlimit:10" d="M461.43 122.41c0-3.83-3.11-6.94-6.94-6.94-3.83 0-6.94 3.11-6.94 6.94 0 3.83 3.11 6.94 6.94 6.94 3.84 0 6.94-3.11 6.94-6.94z"/><circle style="fill:none;stroke:#263238;stroke-linecap:round;stroke-linejoin:round;stroke-miterlimit:10" cx="649.66" cy="341" r="6.94"/><circle transform="rotate(-13.286 198.565 153.611)" style="fill:none;stroke:#263238;stroke-linecap:round;stroke-linejoin:round;stroke-miterlimit:10" cx="198.61" cy="153.64" r="7.81"/><circle style="fill:none;stroke:#263238;stroke-linecap:round;stroke-linejoin:round;stroke-miterlimit:10" cx="457.1" cy="416.46" r="9.54"/><circle transform="rotate(-9.474 236.751 378.261)" style="fill:none;stroke:#263238;stroke-linecap:round;stroke-linejoin:round;stroke-miterlimit:10" cx="236.78" cy="378.3" r="8.67"/><circle transform="rotate(-9.213 64.167 144.942)" style="fill:none;stroke:#263238;stroke-linecap:round;stroke-linejoin:round;stroke-miterlimit:10" cx="64.16" cy="144.96" r="12.14"/><path style="fill:none;stroke:#263238;stroke-linecap:round;stroke-linejoin:round;stroke-miterlimit:10" d="M91.05 184c0-2.4-1.94-4.34-4.34-4.34s-4.34 1.94-4.34 4.34 1.94 4.34 4.34 4.34c2.4-.01 4.34-1.95 4.34-4.34z"/><path style="fill:#263238;stroke:#263238;stroke-linecap:round;stroke-linejoin:round;stroke-miterlimit:10" d="M616.35 462.87c0 3.11-20.97 5.64-46.84 5.64-25.87 0-46.84-2.52-46.84-5.64 0-3.11 20.97-5.64 46.84-5.64 25.87 0 46.84 2.52 46.84 5.64zM482.25 462.87c0 3.11-20.97 5.64-46.84 5.64-25.87 0-46.84-2.52-46.84-5.64 0-3.11 20.97-5.64 46.84-5.64 25.87 0 46.84 2.52 46.84 5.64zM336.17 462.87c0 3.11-20.97 5.64-46.84 5.64-25.87 0-46.84-2.52-46.84-5.64 0-3.11 20.97-5.64 46.84-5.64 25.87 0 46.84 2.52 46.84 5.64zM206.93 462.87c0 3.11-20.97 5.64-46.84 5.64s-46.84-2.52-46.84-5.64c0-3.11 20.97-5.64 46.84-5.64s46.84 2.52 46.84 5.64z"/><path style="fill:none;stroke:#263238;stroke-linecap:round;stroke-linejoin:round;stroke-miterlimit:10" d="M567.99 128.73s2-.95 4.5-1.28c2.5-.33 2.92-1 2.25-1.42-.67-.42 0-.08-3.25.67s-3.5 2.03-3.5 2.03z"/><path style="fill:#fff;stroke:#263238;stroke-linecap:round;stroke-linejoin:round;stroke-miterlimit:10" d="M576.8 178.02s-1.86-6.1-5.25-14.57c-3.39-8.47-9.48-19.31-9.65-23.03-.17-3.73 2.54-8.98 6.1-11.69 3.56-2.71 8.13-4.57 8.47-5.42.34-.85.34-2.03-.85-1.69-1.19.34-2.2.85-2.2.85s1.52-1.36 2.03-2.54c.51-1.19 0-2.03-.51-1.69-.51.34-1.69-.68-3.05.34-1.36 1.02-9.82 7.62-9.82 7.62s1.52-4.4.85-4.91c-.68-.51-2.37.51-2.54 1.69-.17 1.19-.68 3.05-1.36 4.91s-2.2 3.73-2.2 7.11c0 3.39.85 5.59.85 5.59s2.03 29.81 5.08 38.62c3.05 8.81 4.4 12.03 4.4 12.03l9.82-9.65-.17-3.57z"/><path style="fill:none;stroke:#263238;stroke-linecap:round;stroke-linejoin:round;stroke-miterlimit:10" d="M562.06 126.19s-.4 3.26-.49 4.01M574.94 118.23s-1.45 1.47-2.78 2.81-4.25 4.42-4.25 4.42M573.41 122.46l-4.59 4.07"/><path style="fill:#263238;stroke:#263238;stroke-linecap:round;stroke-linejoin:round;stroke-miterlimit:10" d="M570.9 179.09s1.33-2.33 3.49-3.16c2.16-.83 18.44-2.16 22.26.33 3.82 2.49 13.46 25.58 14.95 31.73 1.5 6.15-1 11.13 4.98 14.95 5.98 3.82 5.65 9.47 3.49 12.79-2.16 3.32-3.49 4.32-1.83 6.98 1.66 2.66 1.33 5.15-1.5 7.48-2.82 2.33-9.47 2.49-9.47 2.49s-11.46-28.07-12.96-34.89c-1.5-6.81-2.99-24.92-7.14-24.75-4.15.17-16.11 6.98-16.61 7.31-.5.33-1.16-3.65-1.16-8.8s1.5-12.46 1.5-12.46z"/><path style="fill:#fff;stroke:#263238;stroke-linecap:round;stroke-linejoin:round;stroke-miterlimit:10" d="M584.01 424.86s1.86 11.96 1.01 18.62c-.03.26-.07.52-.11.77-1.11 6.46-6.02 9.81-8.25 11.81-2.23 2.01-6.24 2.9-4.01 4.23 2.23 1.34 8.02 1.56 12.48.45 4.46-1.11 7.13-3.12 13.82-6.02 6.69-2.9 4.46-7.35 2.67-10.7-1.78-3.34-4.68-7.58-4.9-8.91-.22-1.34-.67-16.49-.67-16.49l-12.04 6.24z"/><path style="fill:#fff;stroke:#263238;stroke-linecap:round;stroke-linejoin:round;stroke-miterlimit:10" d="M598.94 454.73c6.69-2.9 4.46-7.35 2.67-10.7-.59-1.11-1.3-2.31-2-3.48-3.75 3.43-9.81 5.7-9.81 5.7l-1.34-2.01c-1.34-2.01-3.57 0-3.57 0-1.11 6.46-6.02 9.81-8.25 11.81-2.23 2.01-6.24 2.9-4.01 4.23 2.23 1.34 8.02 1.56 12.48.45 4.47-1.1 7.14-3.11 13.83-6zM563.5 414.17s-10.92 26.97-12.48 29.2c-1.56 2.23-7.8 7.13-10.25 8.91-2.45 1.78-11.37 3.12-12.03 4.9-.67 1.78 4.23 3.12 11.14 4.68 6.91 1.56 18.05-1.11 19.84-1.56 1.78-.45 2.9-2.9 2.9-6.24 0-3.34-1.56-8.47-1.56-8.47l17.61-26.3-15.17-5.12z"/><path style="fill:#fff;stroke:#263238;stroke-linecap:round;stroke-linejoin:round;stroke-miterlimit:10" d="M540.77 452.28c-2.45 1.78-11.37 3.12-12.03 4.9-.67 1.78 4.23 3.12 11.14 4.68 6.91 1.56 18.05-1.11 19.84-1.56 1.78-.45 2.9-2.9 2.9-6.24 0-1.5-.31-3.35-.66-4.94-4.15-.03-9.82-.85-9.82-.85s0-1.34-.22-3.34c-.22-2.01-.89-1.56-.89-1.56-1.57 2.22-7.81 7.12-10.26 8.91zM560.83 269.75s-1.11 29.86-.45 44.57 5.79 40.56 7.35 50.59c1.56 10.03 4.01 19.39 4.01 19.39l-10.25 31.87s7.13 4.68 12.93 5.79c5.79 1.11 8.91.89 8.91.89l1.78-.22s4.46-20.28 7.58-30.31c3.12-10.03 5.13-16.71 5.57-18.28.45-1.56 19.17-28.75 20.28-45.24 1.11-16.49-4.46-30.98-7.58-33.88-3.12-2.9-6.91-8.25-6.91-8.25s-4.01-10.47-4.23-12.26c-.21-1.76-38.99-4.66-38.99-4.66z"/><path style="fill:#263238;stroke:#263238;stroke-linecap:round;stroke-linejoin:round;stroke-miterlimit:10" d="M593.67 272.95c-10.99-1.57-32.85-3.2-32.85-3.2s-.15 4.08-.31 9.96c18.8.94 39.31-5.28 39.31-5.28l-6.15-1.48z"/><path style="fill:#fff;stroke:#263238;stroke-linecap:round;stroke-linejoin:round;stroke-miterlimit:10" d="M563.95 229.41s-12.7 26.97-14.26 31.42c-1.56 4.46-2.45 10.25-2.45 10.25s10.92 1.34 22.06 5.13c11.14 3.79 36.1.22 39-1.78 2.9-2.01 6.91-4.01 6.91-4.01s-8.69-33.65-8.69-35.88c0-2.23-2.45-10.92-6.24-12.7-3.79-1.79-31.65 2.67-36.33 7.57z"/><path style="fill:#fff;stroke:#263238;stroke-linecap:round;stroke-linejoin:round;stroke-miterlimit:10" d="m578.21 214.97 2.24 13.5 16.27-5.69-.56-8.3s-2.49 3.82-6.15 4.65c-3.66.82-11.8-4.16-11.8-4.16z"/><path style="fill:#263238;stroke:#263238;stroke-linecap:round;stroke-linejoin:round;stroke-miterlimit:10" d="M570.9 179.09s-12.96 22.09-12.13 28.24c.83 6.15 8.64 12.79 8.47 13.79-.17 1-10.13 3.65-8.97 9.63 1.16 5.98 7.48 8.8 4.98 10.8-2.49 1.99-3.65 1.49-2.49 4.65 1.16 3.16 7.48 4.82 6.31 7.31-1.16 2.49-4.82 5.65-2.49 7.64 2.33 1.99 7.81 1.66 7.97.83.17-.83-2.49-1.33-1.99-2.82s3.99-1.83 3.49-7.64-2.82-8.97-2.49-9.97c.33-1 7.31-5.98 8.14-9.64.83-3.65-1.33-15.28-1.33-15.28l-1.83-9.47-5.64-28.07z"/><path style="fill:#fff;stroke:#263238;stroke-linecap:round;stroke-linejoin:round;stroke-miterlimit:10" d="m593.97 183.42-3.33 3.5s-10.65 4.16-14.65 5.99c-3.99 1.83-4.16 4.16-3.83 5.16.33 1 3 11.98 3.83 14.98.83 3 5.99 8.32 8.66 9.82 2.66 1.5 6.58.77 8.41-.89 1.83-1.66 4.57-8.1 5.4-10.43.83-2.33 1.17-5.49 1.17-5.49s2.66-3.33 2.5-6.99c-.17-3.66-2-4.49-3.33-3.16s-1.5 2-1.5 2-.33-1.83-2.33-4.66-2.16-4.16-1.5-5.16c.67-1.01 1.66-6.5.5-4.67z"/><path style="fill:none;stroke:#263238;stroke-linecap:round;stroke-linejoin:round;stroke-miterlimit:10" d="M583.98 211.72s.5 1.66 1.83 1.17c1.33-.5 2.83-2 2.83-2M582.65 215.38s1.66 1 3.99.5 5.66-4.16 5.66-4.16"/><path style="fill:none;stroke:#263238;stroke-linecap:round;stroke-linejoin:round;stroke-miterlimit:10" d="M585.15 216.38s.67 1.5 2.16 1.17 2.16-2.66 2.16-2.66l-4.32 1.49z"/><ellipse style="fill:#263238" cx="590.73" cy="204.25" rx=".97" ry="1.84"/><path style="fill:#263238" d="M582.19 205.04c0 1.02-.43 1.84-.97 1.84s-.97-.82-.97-1.84.43-1.84.97-1.84.97.82.97 1.84z"/><path style="fill:none;stroke:#263238;stroke-linecap:round;stroke-linejoin:round;stroke-miterlimit:10" d="M588.64 200.56s3-2.83 5.49.33M582.15 201.4s-3.5-1.17-4.66 1.5"/><path style="fill:#fff;stroke:#263238;stroke-linecap:round;stroke-linejoin:round;stroke-miterlimit:10" d="M622.73 198.36s-14.62 16.78-15.12 17.61c-.5.83-5.48 3.32-7.81 8.14-2.33 4.82-.33 25.08 2.16 28.24s6.98.66 8.31-2.82c1.33-3.49 4.82-17.11 4.82-17.11s12.79-20.1 13.95-22.92c1.16-2.82 3.16-6.48 5.48-9.97 2.33-3.49 24.75-29.9 24.75-29.9s5.15-4.98 5.98-5.48c.83-.5 4.98-3.32 5.65-5.48.66-2.16 1.66-6.15 1.66-6.15s2.41-5.41 2.51-6.23c.1-.82-.87-1.5-1.26-.87s-1.06 1.84-1.6 2.85-.77 1.31-.77 1.31 1.79-6.04 1.79-7.79-.58-2.47-1.06-2.13c-.48.34-.53.63-.68 1.35-.15.73-.73 2.76-1.06 3.63-.34.87-1.21 2.51-1.21 2.51s.82-7.01.92-8.32c.1-1.31-.58-2.27-1.11-1.79-.53.48-.44 1.16-.58 2.08-.15.92-1.5 7.3-1.55 7.45-.05.15-.44.82-.44.82s-.44-5.9-.58-7.88c-.15-1.98-1.06-2.37-1.5-1.4-.44.97-.58 2.13-.39 4.74.19 2.61-.1 6.48-.1 6.48l-2.13 2.9s-1.02-1.93-2.27-3.19c-1.26-1.26-4.55-.58-3.82.15s1.26.29 1.98 1.45c.73 1.16 1.31 3.34 1.45 5.27.15 1.93.34 3.34.34 3.34s-5.61 5.27-7.69 7.16c-2.07 1.87-21.21 12.99-29.02 31.95z"/><path style="fill:none;stroke:#263238;stroke-linecap:round;stroke-linejoin:round;stroke-miterlimit:10" d="M659.45 159.24s.45 1.84 2.18 1.84M666.61 149.4s3.46 1.73 4.11 2.16"/><path style="fill:#8342ea;stroke:#263238;stroke-linecap:round;stroke-linejoin:round;stroke-miterlimit:10" d="m581.78 421.74.89 6.02s3.57-.45 7.58-2.23 11.37-6.24 11.37-6.24-2.9-26.3-3.79-34.77c-.89-8.47-1.78-13.82-1.78-13.82l-15.38 38.11 1.11 12.93z"/><path style="fill:#8342ea;stroke:#263238;stroke-linecap:round;stroke-linejoin:round;stroke-miterlimit:10" d="M609.39 293.33c-8.57 3.28-27.1 10.12-34.52 10.97-5.4.61-10.87-1.61-14.7-3.74-.02 5.09.04 9.94.21 13.77.67 14.71 5.79 40.56 7.35 50.59 1.56 10.03 4.01 19.39 4.01 19.39l-10.25 31.87s7.13 4.68 12.93 5.79c5.79 1.11 8.91.89 8.91.89l1.78-.22s4.46-20.28 7.58-30.31c3.12-10.03 5.13-16.71 5.57-18.28.45-1.56 19.17-28.75 20.28-45.24 1.11-16.49-4.46-30.98-7.58-33.88-.5-.48-1.04-1.03-1.57-1.6z"/><path style="fill:none;stroke:#263238;stroke-linecap:round;stroke-linejoin:round;stroke-miterlimit:10" d="m578.37 326.17 3.18 1.75M569.74 321.45l6.41 3.51M585.34 320.12s-8.91 43.24-9.58 47.02c-.67 3.79-.67 5.13-.67 5.13l-2.67 2.01 3.12 1.56s.22-4.23 1.56-3.34l1.34.89s1.11-2.67 2.01-2.45 2.23 4.01 2.23 4.01 3.57-2.9 3.12.45c-.45 3.34-4.9 7.13-6.69 7.35-1.78.22-6.69-4.46-6.69-4.46l-.67 6.02M579.18 410.39c-1.01 3.28-1.63 5.33-1.63 5.33M608 314.04c-2.48 3.63-4.61 8.97-4.61 10.31 0 1.78-6.69 34.1-10.47 43.68-2.54 6.42-8.57 25.63-12.28 37.62M604.73 296.27s-2.01 2.9-.67 4.23c1.34 1.34 6.46.89 5.13 2.23-1.34 1.34-6.02 3.79-2.9 4.68 3.12.89 7.58 1.34 4.23 3.79M574.87 304.29l2 10.7M580.22 307.52a1.451 1.451 0 0 1-2.9 0 1.451 1.451 0 0 1 2.9 0z"/><path style="fill:#fff;stroke:#263238;stroke-linecap:round;stroke-linejoin:round;stroke-miterlimit:10" d="m574.65 380.29.89-4.46s.49-3.57 1.02-3.46c.54.11 1.87 1.01 1.87 1.01s1.46-2.67 2.01-2.45 2.23 4.01 2.23 4.01 2.73-1.77 3.17-.76c.43 1.01-.8 3.77-1.45 4.78-.65 1.01-3.12 2.97-3.77 3.33-.65.36-1.38.72-2.03.36-.65-.35-3.94-2.36-3.94-2.36z"/><path style="fill:#8342ea;stroke:#263238;stroke-linecap:round;stroke-linejoin:round;stroke-miterlimit:10" d="M506.1 374.29s4.12-.46 9.16-2.29 11.68-5.5 13.74-4.35c2.06 1.15-8.47 11.22-12.14 15.11-3.66 3.89-8.7 7.79-11.91 10.76s-4.35 6.41-7.79 5.27c-3.43-1.14-9.16-11.45-9.16-13.28.01-1.83 18.1-11.22 18.1-11.22z"/><path style="fill:#fff;stroke:#263238;stroke-linecap:round;stroke-linejoin:round;stroke-miterlimit:10" d="M502.43 391c-3.07 2.09-6.13 3.97-8.32 5.28 1.08 1.26 2.15 2.21 3.05 2.51 3.43 1.15 4.58-2.29 7.79-5.27s8.24-6.87 11.91-10.76c3.66-3.89 14.2-13.97 12.14-15.11 0 0-11.22 10.53-15.34 13.51s-5.5 5.95-11.23 9.84z"/><path style="fill:#8342ea;stroke:#263238;stroke-linecap:round;stroke-linejoin:round;stroke-miterlimit:10" d="M359.54 359.4s-10.08-2.29-10.99-.46c-.92 1.83-7.33 19.01-7.33 23.82 0 4.81 2.52 14.2 4.35 13.05 1.83-1.14.92-7.33 2.52-9.85 1.6-2.52 13.05-10.53 13.05-10.53l-1.6-16.03z"/><path style="fill:#fff;stroke:#263238;stroke-linecap:round;stroke-linejoin:round;stroke-miterlimit:10" d="M351.62 358.24c-1.54-.05-2.77.11-3.07.7-.92 1.83-7.33 19.01-7.33 23.82 0 4.81 2.52 14.2 4.35 13.05-.23-1.14-2.29-8.47-2.29-12.37 0-3.08 5.89-18.79 8.34-25.2z"/><path style="fill:#263238;stroke:#263238;stroke-linecap:round;stroke-linejoin:round;stroke-miterlimit:10" d="M397.1 264.14s1.37 28.85 2.52 36.41c1.14 7.56 11.45 47.86 11.45 47.86s-39.39 11.45-42.36 11.45-10.76-.92-10.76-.92-2.29 4.81-1.83 9.16 3.21 11.22 3.21 11.22l22.67-7.1s43.28-6.87 45.57-8.24c2.29-1.37 5.5-3.89 5.72-6.64.23-2.75 2.75-39.85 3.21-41.45.46-1.6 3.89-11.22 3.89-11.22l41.45 3.43s-4.35 11.91-3.21 26.79c1.15 14.88 4.58 34.81 4.81 36.18.23 1.37.46 6.18 1.15 8.24.69 2.06 3.43 10.3 3.43 10.3s4.58-2.29 7.56-5.27c2.98-2.98 12.14-10.53 12.14-10.53s-.92-1.83-2.29-4.12-3.43-4.58-3.89-6.64c-.46-2.06.23-47.17 1.6-51.07 1.37-3.89 6.18-17.86 3.21-21.3-2.98-3.43-32.52-12.82-39.39-14.66-6.87-1.83-11.91-3.43-11.91-3.43l-4.58-5.72s-3.43 7.33-23.36 3.43c-19.94-3.87-30.01-6.16-30.01-6.16z"/><path style="fill:none;stroke:#878787;stroke-linecap:round;stroke-linejoin:round;stroke-miterlimit:10" d="M440.38 304.67s7.33-8.7 9.85-13.74M494.19 309.94l-12.36-1.83 9.38 8.01M450.45 275.36s-7.79 10.08-9.62 14.43M411.07 348.41l2.06 11.68"/><path style="fill:#fff;stroke:#263238;stroke-linecap:round;stroke-linejoin:round;stroke-miterlimit:10" d="M397.78 275.36s6.64 3.89 16.26 4.81c9.62.92 24.73-1.14 30.69-3.66 5.95-2.52 8.01-4.58 8.01-4.58l-2.29-5.04s-9.39 6.41-20.61 6.87c-11.22.46-23.59-3.21-25.65-3.89-2.06-.69-6.87-2.52-6.87-2.52l.46 8.01z"/><path style="fill:#fff;stroke:#263238;stroke-linecap:round;stroke-linejoin:round;stroke-miterlimit:10" d="m429.84 273.76.92 5.49 7.33-1.14-1.15-5.95zM429.84 273.76s-8.24 1.6-15.34 4.35c-7.1 2.75-13.51 3.43-9.85 6.87 3.66 3.43 26.11-5.72 26.11-5.72l-.92-5.5z"/><path style="fill:#b0b0b0;stroke:#263238;stroke-linecap:round;stroke-linejoin:round;stroke-miterlimit:10" d="M397.33 267.35s14.66 8.7 30.23 7.56c15.57-1.14 22.9-8.01 22.9-8.01s-5.95-32.98-4.58-42.36c1.37-9.39 2.98-28.17 1.83-31.37-1.15-3.21-33.43-5.95-38.01-5.04-4.58.92-9.16 40.53-11.22 49-2.07 8.46-1.15 30.22-1.15 30.22z"/><ellipse style="fill:#fff;stroke:#263238;stroke-linecap:round;stroke-linejoin:round;stroke-miterlimit:10" cx="425.95" cy="191.21" rx="10.76" ry="11.34"/><path style="fill:#fff;stroke:#263238;stroke-linecap:round;stroke-linejoin:round;stroke-miterlimit:10" d="M416.22 186.03s-5.92 22.69-9.21 38.81c-3.29 16.12-8.55 54.76-10.03 53.28-1.48-1.48-2.96-1.15-5.59-2.96s-.82-5.1-1.81-6.41c-.99-1.32-5.26-5.26-5.92-7.24-.66-1.97 1.32-8.88 1.81-9.37.49-.49 10.52-43.41 10.52-43.41s-12.5-11.18-14.96-15.79c-2.47-4.6-9.37-12.33-9.37-12.33s-11.51-11.84-15.62-17.1c-4.11-5.26-16.28-26.31-16.28-26.31s-4.11-1.64-6.08-3.12c-1.97-1.48-3.29-4.11-3.29-4.11l3.45-8.06s-2.63-1.48-3.29-1.32c-.66.16-2.3 2.47-3.62 3.12-1.32.66-3.12.16-1.64-1.81 1.48-1.97 2.8-4.6 4.11-5.26 1.32-.66 8.39 2.63 10.36 5.59 1.97 2.96 11.35 15.62 11.35 15.62s23.68 26.64 26.8 28.78c3.12 2.14 4.44.99 7.56 5.1 3.12 4.11 11.35 10.03 11.35 10.03s0-2.14 5.1-.82c5.1 1.32 12.99 1.64 12.99 1.64s1.8 1.48 1.31 3.45z"/><path style="fill:#8342ea;stroke:#263238;stroke-linecap:round;stroke-linejoin:round;stroke-miterlimit:10" d="M416.22 186.03c.49-1.97-1.32-3.45-1.32-3.45s-7.89-.33-12.99-1.64c-5.1-1.32-5.1.82-5.1.82s-8.22-5.92-11.35-10.03c-3.12-4.11-4.44-2.96-7.56-5.1-1.68-1.15-9.27-9.35-15.95-16.7l-8.54 9.83c1.03 1.57 1.94 2.88 2.62 3.75 4.11 5.26 15.62 17.1 15.62 17.1s6.91 7.73 9.37 12.33 14.96 15.79 14.96 15.79-10.03 42.92-10.52 43.41c-.49.49-2.47 7.4-1.81 9.37.66 1.97 4.93 5.92 5.92 7.24.99 1.32-.82 4.6 1.81 6.41s4.11 1.48 5.59 2.96c1.48 1.48 6.74-37.16 10.03-53.28 3.3-16.11 9.22-38.81 9.22-38.81z"/><path style="fill:#fff;stroke:#263238;stroke-linecap:round;stroke-linejoin:round;stroke-miterlimit:10" d="M330.55 120.58s-4.07 7.05-2.92 8.53c1.15 1.48 3.62 3.45 4.28 2.8.66-.66 3.74-6.72 3.74-8.04-.01-1.31-3.62-3.94-5.1-3.29z"/><path style="fill:#fff;stroke:#263238;stroke-linecap:round;stroke-linejoin:round;stroke-miterlimit:10" d="M329.53 122.63s3.54 3.01 5.56 3.4M327.76 125.97s2.62 3.34 5.63 3.67"/><path style="fill:#fff;stroke:#263238;stroke-linecap:round;stroke-linejoin:round;stroke-miterlimit:10" d="M344.36 130.69s-2.96-7.88-4.15-9.32c-1.19-1.44-3.9-2.96-4.74-4.83-.85-1.86-2.88-2.8-3.13-.59-.25 2.2 2.37 5.93 2.63 6.27.25.34-.51 4.32 1.61 7.28s3.98 3.22 3.98 3.22"/><path style="fill:#8342ea;stroke:#263238;stroke-linecap:round;stroke-linejoin:round;stroke-miterlimit:10" d="M413.38 182.23s-6.86 11.91-9.28 15.54c-2.42 3.63-3.23 4.64-1.41 5.25 1.82.61 5.65-3.43 6.46-2.02.81 1.41 1.61 6.46 1.61 6.46l5.45-19.78s-.21-6.25-2.83-5.45z"/><path style="fill:none;stroke:#263238;stroke-linecap:round;stroke-linejoin:round;stroke-miterlimit:10" d="m399.05 189.7-3.06 19.03-2.79-25.69M386.45 182.35l-1.73-4.76M395.99 208.73l-8.42-23.28"/><path style="fill:#fff;stroke:#263238;stroke-linecap:round;stroke-linejoin:round;stroke-miterlimit:10" d="m394.72 245.85 1.1-4.89M389.58 268.75l3.92-17.46M435.78 187.28c.2-.81 2.02 7.67 2.22 18.57.2 10.9 2.02 37.13 3.63 44.4 1.61 7.27 11.3 25.02 11.3 25.02l16.95-13.72s-8.88-14.73-8.48-26.03c.4-11.3.2-27.45.2-27.45l27.04-24.22s7.87-5.65 14.33-15.54c6.46-9.89 20.18-26.03 20.18-26.03s5.65 0 7.27-1.41c1.61-1.41 3.03-4.64 3.03-4.64s-4.04-9.28-5.25-9.48c-1.21-.2-8.27 5.45-9.08 7.47-.81 2.02-2.42 5.05-2.42 5.05s-29.46 22.2-31.48 25.43c-2.02 3.23-3.83 5.85-3.83 5.85l-14.53 9.89s-1.01-1.01-5.25 1.01-12.31 3.43-12.31 3.43-3.23-2.42-5.05-2.42c-1.82 0-9.08.4-9.08.4l.61 4.42z"/><path style="fill:#8342ea;stroke:#263238;stroke-linecap:round;stroke-linejoin:round;stroke-miterlimit:10" d="M485.23 164.68c-2.02 3.23-3.83 5.85-3.83 5.85l-14.53 9.89s-1.01-1.01-5.25 1.01-12.31 3.43-12.31 3.43-3.23-2.42-5.05-2.42c-1.82 0-9.08.4-9.08.4l.61 4.44c.2-.81 2.02 7.67 2.22 18.57.2 10.9 2.02 37.13 3.63 44.4 1.61 7.27 11.3 25.02 11.3 25.02l16.95-13.72s-8.88-14.73-8.48-26.03c.4-11.3.2-27.45.2-27.45l27.04-24.22s7.87-5.65 14.33-15.54c1.09-1.67 2.38-3.51 3.78-5.42l-7.68-10.07c-6.7 5.29-12.96 10.43-13.85 11.86z"/><path style="fill:#8342ea;stroke:#263238;stroke-linecap:round;stroke-linejoin:round;stroke-miterlimit:10" d="M439.21 183.65s2.83 8.07 5.05 13.52c2.22 5.45 3.83 9.49 1.41 9.89s-4.24-2.83-5.05-2.62-2.62 1.41-2.62 1.41-.4-8.48-.4-10.49c0-2.02-2.42-12.51-2.42-12.51l4.03.8z"/><path style="fill:none;stroke:#263238;stroke-linecap:round;stroke-linejoin:round;stroke-miterlimit:10" d="M453.09 247.85c-.33 2.21-.53 4.08-.56 5.42M465.65 184.05l-4.04 24.02s-5.58 22.46-8 36.49M473.35 184.42l1.99-4M461.61 208.07l9.57-19.28"/><path style="fill:#fff;stroke:#263238;stroke-linecap:round;stroke-linejoin:round;stroke-miterlimit:10" d="M531.24 127.34s4.11 8.88 2.96 10.36c-1.15 1.48-3.62 3.45-4.28 2.8s-3.78-8.55-3.78-9.87c0-1.31 3.62-3.95 5.1-3.29z"/><path style="fill:#fff;stroke:#263238;stroke-linecap:round;stroke-linejoin:round;stroke-miterlimit:10" d="M532.42 129.91s-4.74 2.96-5.93 3.13M533.43 132.62s-3.56 2.8-5.59 3.05M534.11 135.33s-1.69 2.37-5.42 3.47"/><path style="fill:#fff;stroke:#263238;stroke-linecap:round;stroke-linejoin:round;stroke-miterlimit:10" d="M517.43 137.45s2.96-7.88 4.15-9.32 3.9-2.96 4.74-4.83c.85-1.86 2.88-2.8 3.13-.59.25 2.2-2.37 5.93-2.63 6.27-.25.34.51 4.32-1.61 7.28s-3.98 3.22-3.98 3.22M408.66 164.33s-1.97-2.8-2.63 1.64c-.66 4.44.16 8.22 1.64 9.21 1.48.99 2.96 1.15 2.96 1.15s2.3 7.56 3.29 9.37c.99 1.81 6.74 9.54 11.35 10.36 4.6.82 7.56-1.32 9.87-4.6 2.3-3.29 4.28-10.69 4.77-12.17.49-1.48.99-4.44.99-4.44s3.78-3.62 3.29-7.89c-.49-4.28-2.14-3.78-2.14-3.78s-2.8 1.97-3.95 2.14c-1.15.16-6.08-3.29-10.69-2.96s-12 2.8-13.48 2.96c-1.49.16-5.27-.99-5.27-.99z"/><path style="fill:none;stroke:#263238;stroke-linecap:round;stroke-linejoin:round;stroke-miterlimit:10" d="M432.01 169.42s-2.8.99-2.63 2.47c.16 1.48.99 9.21.16 10.85-.82 1.64-4.77-.16-4.77-.16M422.96 185.37s2.63 2.96 5.26 2.14c2.63-.82 4.44-2.96 4.44-2.96"/><path style="fill:#263238" d="M422.14 175.34c0 1.27-.48 2.3-1.07 2.3-.59 0-1.07-1.03-1.07-2.3s.48-2.3 1.07-2.3c.59 0 1.07 1.03 1.07 2.3z"/><ellipse style="fill:#263238" cx="432.75" cy="175.01" rx="1.07" ry="2.3"/><path style="fill:none;stroke:#263238;stroke-linecap:round;stroke-linejoin:round;stroke-miterlimit:10" d="M417.7 170.41s2.14-2.47 5.76-.33"/><path style="fill:#263238;stroke:#263238;stroke-linecap:round;stroke-linejoin:round;stroke-miterlimit:10" d="M408.66 164.33s.82 3.29 3.45 4.6c2.63 1.32 12.17-6.41 16.61-3.78 4.44 2.63 6.41 3.95 8.88 3.95 2.47 0 4.44-4.93 4.44-5.92 0-.99 0-11.51-2.47-15.79-2.47-4.28-9.54-10.2-15.79-8.88-6.25 1.32-15.95 8.06-16.44 11.68-.49 3.61 1.32 14.14 1.32 14.14z"/><path style="fill:none;stroke:#878787;stroke-linecap:round;stroke-linejoin:round;stroke-miterlimit:10" d="M410.96 164s5.76-6.25 13.65-6.25c7.89 0 15.13 4.28 15.13 4.28"/><path style="fill:#fff;stroke:#263238;stroke-linecap:round;stroke-linejoin:round;stroke-miterlimit:10" d="M319.27 358.96s-1.71 17.54-3.85 27.57-14.05 50.98-14.05 50.98 1.91 7.64 4.78 11.22c2.87 3.58 4.3 5.73 4.3 8.36 0 2.63 0 5.49-3.34 6.92-3.34 1.43-10.74 2.15-13.37-1.19-2.63-3.34-2.15-11.94-2.39-14.8-.24-2.87-1.91-7.4-1.43-10.03.48-2.63 1.67-4.06 2.15-6.45.48-2.39 4.3-30.8 5.01-38.68.72-7.88 2.63-15.28 2.63-15.28s-3.82-16.95-4.06-18.15c-.26-1.19 23.62-.47 23.62-.47z"/><path style="fill:#263238;stroke:#263238;stroke-linecap:round;stroke-linejoin:round;stroke-miterlimit:10" d="M293.72 462.82c2.63 3.34 10.03 2.63 13.37 1.19 3.34-1.43 3.34-4.3 3.34-6.92 0-2.63-1.43-4.78-4.3-8.36-2.86-3.58-4.78-11.22-4.78-11.22s.71-3.53 2.1-7.52c-4.72 1.57-8.6-.26-10.82-2.3-.29 2-.5 3.39-.59 3.85-.48 2.39-1.67 3.82-2.15 6.45-.48 2.63 1.19 7.16 1.43 10.03.25 2.86-.23 11.46 2.4 14.8z"/><path style="fill:#fff;stroke:#263238;stroke-linecap:round;stroke-linejoin:round;stroke-miterlimit:10" d="M291.33 448.02c.24 2.87-.24 11.46 2.39 14.8s10.03 2.63 13.37 1.19c3.34-1.43 3.34-4.3 3.34-6.92 0-2.63-1.43-4.78-4.3-8.36-2.86-3.58-4.78-11.22-4.78-11.22s-.95-1.91-2.63-1.19c-1.67.72-4.06 1.91-4.06 1.91s-1.67-3.58-2.63-6.69c-.48 2.39-1.67 3.82-2.15 6.45-.46 2.62 1.21 7.16 1.45 10.03z"/><path style="fill:#8342ea;stroke:#263238;stroke-linecap:round;stroke-linejoin:round;stroke-miterlimit:10" d="M297.91 460.54c-4.97-2.06-6.34-10.11-6.34-10.11l-.14.05c.08 3.78.22 9.7 2.3 12.34 2.63 3.34 10.03 2.63 13.37 1.19 3.34-1.43 3.34-4.3 3.34-6.92-2.91 3.4-7.56 5.51-12.53 3.45z"/><path style="fill:#fff;stroke:#263238;stroke-linecap:round;stroke-linejoin:round;stroke-miterlimit:10" d="M266.5 353.23s2.87 22.44 2.87 31.75c0 9.31-.96 15.28 1.91 26.98 2.87 11.7 5.49 25.55 5.49 25.55s-2.15 5.73-5.25 11.22-2.87 9.55-2.87 11.7.96 5.01 4.78 5.73c3.82.72 9.55.48 11.94-4.78 2.39-5.25 1.67-7.4 1.91-12.18.24-4.78-.48-11.22-.72-13.13-.24-1.91-.24-30.56-.48-42.98-.24-12.42.72-33.9.72-33.9l-20.3-5.96z"/><path style="fill:#263238;stroke:#263238;stroke-linecap:round;stroke-linejoin:round;stroke-miterlimit:10" d="M274.64 426.94c1.27 6.05 2.13 10.57 2.13 10.57s-2.15 5.73-5.25 11.22-2.87 9.55-2.87 11.7.96 5.01 4.78 5.73c3.82.72 9.55.48 11.94-4.78 2.39-5.25 1.67-7.4 1.91-12.18.24-4.78-.48-11.22-.72-13.13-.08-.63-.13-4.16-.18-9.05-4.57 1.77-9.29.72-11.74-.08z"/><path style="fill:#fff;stroke:#263238;stroke-linecap:round;stroke-linejoin:round;stroke-miterlimit:10" d="M284.89 439.9c-.48-1.19-1.91-3.1-4.3-4.06-2.39-.95-3.82 1.67-3.82 1.67s-2.15 5.73-5.25 11.22-2.87 9.55-2.87 11.7.96 5.01 4.78 5.73c3.82.72 9.55.48 11.94-4.78 2.39-5.25 1.67-7.4 1.91-12.18.24-4.78-.48-11.22-.72-13.13-1.44 1.92-1.2 5.02-1.67 3.83z"/><path style="fill:#8342ea;stroke:#263238;stroke-linecap:round;stroke-linejoin:round;stroke-miterlimit:10" d="M285.36 461.39c2.39-5.25 1.67-7.4 1.91-12.18-2.87 7.4-4.3 9.79-10.03 10.98-5.73 1.19-8.12-3.82-8.12-3.82l-.28-.02c-.24 1.73-.19 3.1-.19 4.08 0 2.15.96 5.01 4.78 5.73 3.82.72 9.55.48 11.93-4.77z"/><path style="fill:#263238;stroke:#263238;stroke-linecap:round;stroke-linejoin:round;stroke-miterlimit:10" d="M265.07 305.48s-5.97 19.1-7.4 30.8c-1.43 11.7-2.87 21.73-2.87 21.73s6.45 2.15 14.33 4.06c7.88 1.91 21.01.24 21.01.24s10.51 2.63 19.82 1.67c9.31-.95 19.82-3.58 19.82-3.58s-3.82-34.86-4.54-42.5c-.72-7.64-1.91-11.7-1.91-11.7l-58.26-.72z"/><path style="fill:none;stroke:#878787;stroke-linecap:round;stroke-linejoin:round;stroke-miterlimit:10" d="m290.14 362.3 3.34-36.29M298.97 320.04l-5.49 11.22s7.16 26.98 6.92 27.93M310.67 326.73l1.67-14.33 3.58 12.42M277.25 312.4s-5.01 36.53-5.25 46.08M316.64 328.16s1.91 10.98 1.91 15.76"/><path style="fill:#8342ea;stroke:#263238;stroke-linecap:round;stroke-linejoin:round;stroke-miterlimit:10" d="M266.79 299.79s-3.87 7.36-2.67 8.07c1.19.72 14.09 4.54 30.56 4.54s29.37-2.63 29.61-3.82c.24-1.19-2.74-6.56-2.74-6.56l-29.73-3.94-25.03 1.71z"/><path style="fill:#8342ea;stroke:#263238;stroke-linecap:round;stroke-linejoin:round;stroke-miterlimit:10" d="M301.5 211.26s-1.88 5.17-.76 8.62c1.13 3.45 4.65 4.75 10.41 4.93 5.75.19 14.48-.74 14.11 6.87-.37 7.61-7.24 48.44-7.42 49.37-.19.93 4.45 16.33 4.64 18.19.19 1.86.37 2.23-.93 2.78-1.3.56-16.7.56-29.88.74-13.18.19-24.69-2.41-24.87-2.97-.19-.56 1.11-5.01 1.11-5.01l3.53-15.59s-10.58 1.3-12.06 1.3c-1.48 0-2.97-11.51-2.41-16.89.56-5.38 3.16-32.85 4.64-34.52 1.48-1.67 12.44-2.23 17.26-3.9 4.83-1.67 6.13-2.41 6.13-5.94v-11.88l15.78 1.11.72 2.79z"/><path style="fill:#263238;stroke:#263238;stroke-linecap:round;stroke-linejoin:round;stroke-miterlimit:10" d="M308.21 225.78c-3.64-.65-5.95-2.11-6.84-4.84-1.2-3.67.8-9.17.8-9.17l-.79-2.96-16.78-1.18v12.63c0 3.75-1.38 4.54-6.51 6.32 0 0 5.73 9.28 16.98 9.08 6.8-.12 10.93-5.58 13.14-9.88z"/><path style="fill:#fff;stroke:#263238;stroke-linecap:round;stroke-linejoin:round;stroke-miterlimit:10" d="M306.89 178.52s4.34 7.99 4.34 9.03-.69 3.99-.17 4.52c.52.52 6.08 2.26 5.38 3.82-.69 1.56-2.26 4.86-2.26 4.86s0 9.55-.69 11.29c-.69 1.74-11.62 1.04-14.23.43-2.61-.6-10.78-9.29-10.78-9.29l-1.56-10.77s4.86-11.46 8.86-12.16c3.98-.69 11.11-1.73 11.11-1.73z"/><path style="fill:none;stroke:#263238;stroke-linecap:round;stroke-linejoin:round;stroke-miterlimit:10" d="M307.93 200.75s1.56 1.56 4.34 1.74"/><path style="fill:#263238;stroke:#263238;stroke-linecap:round;stroke-linejoin:round;stroke-miterlimit:10" d="M311.23 187.55s3.13-.69 3.47-.17c.35.52 0 3.99-.87 5.38-.87 1.39-2.78-.69-2.78-.69l.18-4.52z"/><path style="fill:#263238;stroke:#263238;stroke-linecap:round;stroke-linejoin:round;stroke-miterlimit:10" d="M309.84 188.25s-1.74-.17-4.34 1.04c-2.61 1.22-2.43 2.78-1.56 2.78.87 0 .52 2.95 1.74 3.3 1.22.35 3.82.52 5.04-1.39 1.2-1.91 2.42-6.6-.88-5.73z"/><path style="fill:#263238;stroke:#263238;stroke-linecap:round;stroke-linejoin:round;stroke-miterlimit:10" d="m304.11 190.16-10.43 4.34 10.25-2.43z"/><path style="fill:none;stroke:#263238;stroke-linecap:round;stroke-linejoin:round;stroke-miterlimit:10" d="M304.11 187.55s1.91-2.43 4.52-1.22"/><path style="fill:#fff;stroke:#263238;stroke-linecap:round;stroke-linejoin:round;stroke-miterlimit:10" d="M309.05 177.15c-.16 1.73-1.69 3.35-3.82 3.94-3.04.84-6.77 1.66-6.92 5.51-.24 5.88.71 10.11 1.88 10.82 1.18.71 6.35 4.23 3.76 9.17s-4.7 5.88-4.7 5.88 7.05 1.65 2.12 8.47c-4.94 6.82-11.52 5.41-14.81 3.06-3.29-2.35-4.94-3.06-7.76-1.41-2.82 1.65-12.23.24-13.4-6.11-1.18-6.35 6.55-8.3 5.37-12.77-1.18-4.47-2.59-15.75-.47-20.22 1.76-3.71 9.27-9.34 12.78-10.81 2.98-1.25 6.19-2.1 9.45-1.95 2.87.12 5.52 1.28 8.38 1.54 2.85.25 8.53.7 8.14 4.88z"/><path style="fill:none;stroke:#263238;stroke-linecap:round;stroke-linejoin:round;stroke-miterlimit:10" d="M290.59 210.21c-2.56 1.03-5.19 1.78-6.14 4.04-1.88 4.43 2.9 10.91 9.21 9.38 6.31-1.53 3.58-8.01 1.7-7.84-1.88.17-4.6 1.7-3.58 2.73M298.77 177.59s-5.97 3.58-7.16 7.84c-1.19 4.26 6.14 13.13 4.6 19.44-.49 2.02-1.68 3.25-3.13 4.14M274.09 220.89c1.46.73 3.21.84 5.07.01M279.4 182.41c-.3.73-.46 1.52-.4 2.34.34 5.46 5.97 15 4.77 18.58-1.19 3.58-13.13 4.77-13.47 10.06-.16 2.48.69 4.77 2.15 6.27M287.34 175.72s-3.52 1.45-6 3.91"/><path style="fill:#fff;stroke:#263238;stroke-linecap:round;stroke-linejoin:round;stroke-miterlimit:10" d="M304.28 260.07s1.48-1.11 3.53-.37c2.04.74 7.61 4.64 7.61 4.64s-5.01.56-7.05 2.78c-2.04 2.23-6.68.74-6.68.74l2.59-7.79z"/><path style="fill:#8342ea;stroke:#263238;stroke-linecap:round;stroke-linejoin:round;stroke-miterlimit:10" d="M319.87 225.73s5.01-1.67 8.54 2.6c3.53 4.27.56 41.21.37 46.96-.19 5.75-1.3 7.42-2.23 8.17-.93.74-5.75 3.71-23.94.93l-18.19-2.78 1.67-8.35s11.88-3.71 15.59-5.38c3.71-1.67 6.68-.74 6.68-.74s-.19-1.67 1.11-2.23 2.23-.93 2.97-1.11c.74-.19 2.41-.93 2.41-.93l5.2-23.2"/><path style="fill:#8342ea;stroke:#263238;stroke-linecap:round;stroke-linejoin:round;stroke-miterlimit:10" d="M260.29 233.53s-.74 4.83-1.3 6.13c-.56 1.3-2.97 24.5-2.97 29.7 0 5.2.93 13.55 1.86 14.85.93 1.3 8.55 2.86 12.64 1.93 4.08-.93 17.25-7.13 19.66-9.17s14.48-10.77 14.48-10.77.93-1.3.74-3.34c-.19-2.04-1.11-2.78-1.11-2.78s-1.11-1.11-2.23-.93c-1.11.19-18.56 6.31-20.79 6.87-2.23.56-8.54.56-8.54.56s1.3-10.58-.19-17.08c-1.48-6.5-2.6-10.58-2.6-10.58"/><path style="fill:none;stroke:#263238;stroke-linecap:round;stroke-linejoin:round;stroke-miterlimit:10" d="M272.73 266.57s-8.17 2.6-10.02 4.27c-1.86 1.67-2.04 3.16-2.41 3.71M308.36 267.12s2.55 6.12 9.95 8.03M315.42 264.34s4.33 2.22 6.24 2.22M258.38 271.1s0-2.15 3.34-3.82 7.64-.48 7.64-.48"/><path style="fill:#fff;stroke:#263238;stroke-linecap:round;stroke-linejoin:round;stroke-miterlimit:10" d="m151.39 170.64-.83 12.85s7.46 8.09 8.29 11.19c.83 3.11 4.15 14.51 4.98 11.82.83-2.7-.41-10.16.21-12.23.62-2.07 2.9-13.48 2.9-13.48s-5.18-1.45-8.09-3.32c-2.9-1.86-7.46-6.83-7.46-6.83z"/><path style="fill:#263238;stroke:#263238;stroke-linecap:round;stroke-linejoin:round;stroke-miterlimit:10" d="m165.68 182.15-10.93 2.96-4.19-1.62 1.23-10.5zM148.07 162.96s1.04-1.45 0-6.63-4.77-6.43-1.66-12.44c3.11-6.01 11.19-8.91 11.19-8.91s-1.87-3.94-.41-4.98c1.45-1.04 4.77 1.66 5.18 2.49.41.83-.41-8.09 1.87-8.09 2.28 0 8.5 7.05 8.5 9.33 0 2.28 2.28-5.39 4.77-3.32 2.49 2.07 3.52 7.46 2.49 8.91-1.04 1.45 2.7-1.04 3.32 1.87.62 2.9-.21 6.43-2.49 9.33-2.28 2.9-3.94 3.11-3.94 3.11s-4.35-7.05-8.91-6.84c-4.56.21-9.33.83-9.33 2.9s-.21 3.32-2.07 5.39c-1.87 2.07-2.07 4.77-3.11 7.26s.21 4.35-2.28 3.52c-2.5-.82-3.12-2.9-3.12-2.9z"/><path style="fill:#fff;stroke:#263238;stroke-linecap:round;stroke-linejoin:round;stroke-miterlimit:10" d="M150.77 162.76s-3.73-7.05-5.39-2.07c-1.66 4.98.21 6.63 1.04 7.67.83 1.04 2.7 1.45 2.7 1.45s2.07 6.01 3.73 7.46c1.66 1.45 4.56 6.43 12.23 5.8 3.61-.29 7.67-2.49 9.54-8.09s1.87-8.71 2.49-15.55c.62-6.84.41-11.82-4.35-14.72-4.77-2.9-13.68-2.49-15.55.21-1.87 2.69-.41 3.73-1.04 5.18s-3.94 3.94-4.15 5.39c-.21 1.45.41 3.73 0 4.98-.42 1.25-1.25 2.29-1.25 2.29z"/><path style="fill:none;stroke:#263238;stroke-linecap:round;stroke-linejoin:round;stroke-miterlimit:10" d="M170.05 153.43s-1.66.62-1.45 3.52c.21 2.9 1.04 4.77.62 6.01-.41 1.24-4.15.62-4.15.62M159.27 165.25s6.01 5.18 12.65 1.24"/><path style="fill:#263238" d="M163.21 155.4c0 .97-.46 1.76-1.04 1.76-.57 0-1.04-.79-1.04-1.76s.46-1.76 1.04-1.76c.57 0 1.04.78 1.04 1.76zM173.99 156.75c0 .97-.46 1.76-1.04 1.76-.57 0-1.04-.79-1.04-1.76s.46-1.76 1.04-1.76c.57-.01 1.04.78 1.04 1.76z"/><path style="fill:none;stroke:#263238;stroke-linecap:round;stroke-linejoin:round;stroke-miterlimit:10" d="M159.06 151.98s3.11-1.87 6.01-.21M171.5 152.6s4.77-2.49 5.39 1.04"/><path style="fill:#fff;stroke:#263238;stroke-linecap:round;stroke-linejoin:round;stroke-miterlimit:10" d="M181.16 209.2s2.22 3.63 4.03 7.45c1.81 3.83 15.91 19.33 15.91 19.33s2.22-8.26 3.63-13.49c1.41-5.24 3.02-15.31 3.02-15.31s-1.21-5.04-.81-6.65c.4-1.61.4-5.64 1.61-6.04 1.21-.4 11.48 4.03 11.88 5.44.4 1.41.6 4.23-.2 5.64-.81 1.41-4.63 6.85-4.63 6.85s.2 30.01-.81 34.64-3.83 8.66-5.64 9.06c-1.81.4-29-7.05-31.42-7.85-2.41-.8 3.43-39.07 3.43-39.07z"/><path style="fill:#263238;stroke:#263238;stroke-linecap:round;stroke-linejoin:round;stroke-miterlimit:10" d="M209.15 256.13c1.81-.4 4.63-4.43 5.64-9.06.33-1.52.53-5.78.65-10.82-7.23-.53-11.19-2.49-13.29-4.19l-1.05 3.93s-14.1-15.51-15.91-19.34c-1.81-3.83-4.03-7.45-4.03-7.45s-5.84 38.27-3.42 39.07c2.41.81 29.6 8.26 31.41 7.86zM185.38 408.78s2.34 7.22 4.03 9.55c1.7 2.33 8.28 7.01 7.85 8.92-.42 1.91-1.49 2.97-6.37 3.4-4.88.42-7.43-.85-10.83-2.97-3.4-2.12-6.37-5.52-9.98-7.01-3.61-1.49-6.79-1.49-6.16-6.16.64-4.67 4.03-9.34 4.03-9.34l17.43 3.61z"/><path style="fill:#fff;stroke:#263238;stroke-linecap:round;stroke-linejoin:round;stroke-miterlimit:10" d="M170.1 420.66c3.61 1.49 6.58 4.88 9.98 7.01 3.4 2.12 5.94 3.4 10.83 2.97 4.88-.42 5.94-1.49 6.37-3.4.26-1.18-2.15-3.41-4.43-5.5-4.12.38-7.67 4.86-7.67 4.86-3.4-1.7-8.28-4.46-11.68-7.85-3.4-3.4-9.55-4.25-9.55-4.25-.64 4.68 2.54 4.68 6.15 6.16zM179.02 408.14s4.46 5.52 5.52 7.85c1.06 2.33 4.88 2.33 4.88 2.33l-4.03-9.55-6.37-.63z"/><path style="fill:#263238;stroke:#263238;stroke-linecap:round;stroke-linejoin:round;stroke-miterlimit:10" d="M125.73 408.99v19.32c0 6.58 3.4 12.31 7.64 12.74 4.25.42 8.7 1.06 9.13-7.85.42-8.92-2.12-18.89-2.12-19.95 0-1.08-14.65-4.26-14.65-4.26z"/><path style="fill:#fff;stroke:#263238;stroke-linecap:round;stroke-linejoin:round;stroke-miterlimit:10" d="M142.5 433.19c.13-2.66-.01-5.41-.27-7.99-.33 2.79-.79 6.51-.79 6.51s-2.34-1.91-6.16-1.49c-3.82.42-7.22 2.76-7.22 2.76l-2.34-12.92v8.25c0 6.58 3.4 12.31 7.64 12.74 4.26.42 8.72 1.05 9.14-7.86z"/><path style="fill:#fff;stroke:#263238;stroke-linecap:round;stroke-linejoin:round;stroke-miterlimit:10" d="M131.89 412.81s0 10.4 1.06 11.46c1.06 1.06 4.03 1.7 4.25-1.49.21-3.18-.64-9.34-.64-9.34l-4.67-.63z"/><path style="fill:#b0b0b0;stroke:#263238;stroke-linecap:round;stroke-linejoin:round;stroke-miterlimit:10" d="M125.1 262.41s-3.83 24.09-2.34 34.92c1.49 10.83 7.64 63.9 7.64 63.9s-4.88 29.51-5.31 33.12 1.06 5.52 1.06 6.37c0 .85-2.12 2.76-2.12 4.88s.64 5.73.64 5.73 4.03 4.03 9.13 4.03c5.09 0 7.01-.64 7.85-2.12.85-1.49 3.4-4.88 3.61-7.22.21-2.33-.85-3.4-.42-5.31.42-1.91.85-2.76 1.27-5.94.42-3.18.85-9.76.85-9.76s8.07-28.23 8.28-31.42c.21-3.18-.85-47.13-.85-47.13l26.32 35.24s-4.88 8.92-5.09 16.13c-.21 7.22-2.34 24.41-2.76 26.96-.42 2.55-1.49 7.43-1.49 7.43s-2.76 1.06-2.34 3.61c.42 2.55.64 4.67.64 4.67l-2.34 6.16s6.79.85 11.68 1.49 6.37.64 6.37.64 2.34-5.09 2.76-6.79c.42-1.7-1.7-3.82-.85-5.52.85-1.7 2.12-2.76 2.12-4.25 0-1.49.21-7.85.21-7.85s7.43-24.41 11.04-32.9c3.61-8.49 4.46-14.65 2.97-20.59-1.49-5.94-28.66-48.19-28.66-48.82 0-.64.42-7.22.42-7.22s-28.45-3.18-37.57-4.67c-9.11-1.51-12.72-7.77-12.72-7.77z"/><path style="fill:#fff;stroke:#263238;stroke-linecap:round;stroke-linejoin:round;stroke-miterlimit:10" d="m154.39 306.46 9.55-9.13"/><path style="fill:#263238;stroke:#263238;stroke-linecap:round;stroke-linejoin:round;stroke-miterlimit:10" d="M124.72 257.08s0 8.85.6 9.51c.6.66 8.19 6.86 26.76 8.4 18.58 1.55 22.57 1.99 23.37-.22.8-2.21.8-7.74.8-7.74s-22.77-3.54-34.35-6.41c-11.58-2.88-17.18-3.54-17.18-3.54z"/><path style="fill:#fff;stroke:#263238;stroke-linecap:round;stroke-linejoin:round;stroke-miterlimit:10" d="M150.56 183.49s-5.39-6.22-6.01-6.63c-.62-.41-11.4-27.57-11.4-27.57l-6.63-27.16s-5.8-25.29-6.01-27.99c-.21-2.69-1.87-12.44-1.87-12.44s3.81-12.08 3.6-14.15c-.21-2.07-10.75.6-12.61 1.43-1.87.83 1.54 13.96 1.54 13.96s-.83 35.04-.21 42.5c.62 7.46 5.6 29.44 5.6 29.44s7.88 36.28 8.09 36.9c.21.62 1.66 14.51 1.66 14.51l-.21 35.66s-2.7 17.21-.83 19.49 17.83 6.01 31.1 7.88c13.27 1.87 18.45 3.11 20.32 1.45 1.87-1.66 2.7-5.39 2.7-10.16 0-4.77 5.39-35.87 3.11-46.85s-5.8-15.96-10.57-19.49c-4.77-3.52-9.66-5.54-9.66-5.54l-11.71-5.24z"/><path style="fill:#8342ea;stroke:#263238;stroke-linecap:round;stroke-linejoin:round;stroke-miterlimit:10" d="M171.91 194.27c-4.77-3.52-9.66-5.54-9.66-5.54l-11.69-5.24s-5.39-6.22-6.01-6.63c-.62-.41-11.4-27.57-11.4-27.57l-6.63-27.16s-.62-2.69-1.45-6.4c-5.51 2.66-10.85 2.55-14.31 2 .02 3.39.09 6.16.22 7.72.62 7.46 5.6 29.44 5.6 29.44s7.88 36.28 8.09 36.9c.21.62 1.66 14.51 1.66 14.51l-.21 35.66s-2.7 17.21-.83 19.49c1.87 2.28 17.83 6.01 31.1 7.88 13.27 1.87 18.45 3.11 20.32 1.45 1.87-1.66 2.7-5.39 2.7-10.16 0-4.77 5.39-35.86 3.11-46.85s-5.84-15.98-10.61-19.5z"/><path style="fill:none;stroke:#263238;stroke-linecap:round;stroke-linejoin:round;stroke-miterlimit:10" d="M137.87 253.64c7.88-3.49 19.72-9.85 30.03-19.99M129.03 257.04s1.35-.4 3.64-1.26M135.94 263.3s4.94-1.65 12.52-9.88"/><path style="fill:#fff;stroke:#263238;stroke-linecap:round;stroke-linejoin:round;stroke-miterlimit:10" d="M116.63 63.22s-8.62 3.31-8.81 5.07c-.19 1.76.18 4.72 1.06 4.7s8.18-3.3 9.05-4.2c.86-.88.14-5.04-1.3-5.57z"/><path style="fill:#fff;stroke:#263238;stroke-linecap:round;stroke-linejoin:round;stroke-miterlimit:10" d="M114.14 64.18s1.26 5.13 1.96 6.02M111.67 65.35s.57 4.23 1.78 5.74M109.43 66.74s-.41 2.72 1.39 5.91"/><path style="fill:#fff;stroke:#263238;stroke-linecap:round;stroke-linejoin:round;stroke-miterlimit:10" d="M119.34 79.14s3.17-7.28 3.31-9.04c.14-1.75-.69-4.57-.04-6.39.65-1.82-.11-3.79-1.73-2.46-1.62 1.32-2.29 5.57-2.34 5.97-.05.4-3.18 2.59-3.7 5.99-.51 3.4.58 4.8.58 4.8M212.15 192.29s8.62 3.31 8.81 5.07c.19 1.76-.18 4.72-1.06 4.7-.88-.01-8.18-3.3-9.05-4.2-.86-.89-.14-5.05 1.3-5.57z"/><path style="fill:#fff;stroke:#263238;stroke-linecap:round;stroke-linejoin:round;stroke-miterlimit:10" d="M214.63 193.25s-1.26 5.13-1.96 6.02M217.1 194.42s-.57 4.23-1.78 5.74M219.35 195.81s.41 2.72-1.39 5.91"/><path style="fill:#fff;stroke:#263238;stroke-linecap:round;stroke-linejoin:round;stroke-miterlimit:10" d="M209.44 208.21s-3.17-7.28-3.31-9.04c-.14-1.75.69-4.57.04-6.39-.65-1.82.11-3.79 1.73-2.46 1.62 1.32 2.29 5.57 2.34 5.97.05.4 3.18 2.59 3.7 5.99.51 3.4-.58 4.8-.58 4.8"/><path style="fill:#263238;stroke:#263238;stroke-linecap:round;stroke-linejoin:round;stroke-miterlimit:10" d="M136.65 212.43c6.44-6.44 12.08-23.77 10.07-30.61a186 186 0 0 1-1.1-3.89c-.52-.56-.93-.97-1.07-1.07-.62-.41-11.4-27.57-11.4-27.57l-6.63-27.16s-.62-2.69-1.45-6.4c-5.51 2.66-10.85 2.55-14.31 2 .02 3.39.09 6.16.22 7.72.62 7.46 5.6 29.44 5.6 29.44s7.88 36.28 8.09 36.9c.21.62 1.66 14.51 1.66 14.51l-.06 9.72c2.29.53 6.25.53 10.38-3.59z"/></svg>