<?xml version="1.0" encoding="utf-8"?>
<!-- Generator: Adobe Illustrator 25.2.0, SVG Export Plug-In . SVG Version: 6.00 Build 0)  -->
<svg version="1.1" xmlns="http://www.w3.org/2000/svg" xmlns:xlink="http://www.w3.org/1999/xlink" x="0px" y="0px"
	 viewBox="0 0 500 500" style="enable-background:new 0 0 500 500;" xml:space="preserve">
<g id="Background_Simple">
</g>
<g id="Graphics">
</g>
<g id="Shadow_4">
</g>
<g id="Shadow_3">
</g>
<g id="Shadow_2">
</g>
<g id="Shadow_1">
</g>
<g id="Character_4">
</g>
<g id="Character_3">
	<g>
		<path style="fill:#DAC7FF;" d="M488.05,243.76c0,0.96-0.01,1.92-0.03,2.88c0,0.41,0,0.83-0.02,1.24
			c-0.01,0.67-0.03,1.35-0.05,2.01c-0.01,0.4-0.02,0.81-0.05,1.22c-0.03,1-0.08,2-0.14,3c-0.07,1.05-0.13,2.11-0.22,3.15
			c-0.04,0.63-0.1,1.26-0.16,1.89c-0.04,0.64-0.11,1.28-0.17,1.91c-0.1,1.03-0.21,2.06-0.34,3.08c-0.08,0.72-0.16,1.44-0.26,2.16
			c-0.04,0.38-0.1,0.75-0.15,1.13c-0.02,0.2-0.04,0.4-0.09,0.6c-3.78,27.16-13.87,52.61-28.91,75.18
			C329.62,447.16,203.42,453.77,78.96,355.06c-24.71-31.67-39.16-69.99-39.16-111.29c0-38.53,31.58-145.05,205.78-208.54
			c59.97-21.85,179.79,73.95,224.82,154.12C481.49,209.1,488.05,227.9,488.05,243.76z"/>
	</g>
	<g style="opacity:0.7;">
		<path style="fill:#FFFFFF;" d="M488.05,243.76c0,0.96-0.01,1.92-0.03,2.88c0,0.41,0,0.83-0.02,1.24
			c-0.01,0.67-0.03,1.35-0.05,2.01c-0.01,0.4-0.02,0.81-0.05,1.22c-0.03,1-0.08,2-0.14,3c-0.07,1.05-0.13,2.11-0.22,3.15
			c-0.04,0.63-0.1,1.26-0.16,1.89c-0.04,0.64-0.11,1.28-0.17,1.91c-0.1,1.03-0.21,2.06-0.34,3.08c-0.08,0.72-0.16,1.44-0.26,2.16
			c-0.04,0.38-0.1,0.75-0.15,1.13c-0.02,0.2-0.04,0.4-0.09,0.6c-3.78,27.16-13.87,52.61-28.91,75.18
			C329.62,447.16,203.42,453.77,78.96,355.06c-24.71-31.67-39.16-69.99-39.16-111.29c0-38.53,31.58-145.05,205.78-208.54
			c59.97-21.85,179.79,73.95,224.82,154.12C481.49,209.1,488.05,227.9,488.05,243.76z"/>
	</g>
	<g>
		<path style="fill:none;stroke:#515B60;stroke-linecap:round;stroke-linejoin:round;stroke-miterlimit:10;" d="M339.23,180.42
			l62.85,2.23c10.02,0.36,10.53-12.4-0.53-15.65c-0.14-0.04-0.28-0.08-0.42-0.12c10.23-9.67-22.35-31.06-37.03-1.2
			c-1.82-8.25-19.48-4.63-19.2,5.39C339.43,164.75,331.07,175.15,339.23,180.42z"/>
		<path style="fill:none;stroke:#515B60;stroke-linecap:round;stroke-linejoin:round;stroke-miterlimit:10;" d="M118.13,143.79
			l53.08-0.89c8.46-0.14,7.61-11.54-2.01-13.93c-0.12-0.03-0.24-0.06-0.37-0.09c7.63-9.09-21.91-26.67-31.26,0.62
			c-2.36-7.27-16.85-3.24-15.6,5.68C116.73,129.81,110.75,139.46,118.13,143.79z"/>
		<g>
			<g>
				<g>
					<path style="fill:#515B60;" d="M328.04,102.93c0,0-0.75-0.16-1.88-0.61c-1.13-0.44-2.59-1.19-4.1-1.92
						c-1.51-0.72-2.95-1.1-4.01-1.2c-1.07-0.12-1.79-0.03-1.9-0.28c-0.1-0.21,0.53-0.8,1.83-1.04c1.29-0.25,3.14-0.01,4.88,0.84
						c1.73,0.84,2.94,2,3.8,2.82C327.52,102.37,328.04,102.93,328.04,102.93z"/>
				</g>
				<g>
					<path style="fill:#515B60;" d="M334.64,97.62c0,0-0.53,0.21-1.36,0.53c-0.81,0.33-1.83,0.79-2.97,1.29
						c-2.27,1-4.21,2.04-4.53,1.59c-0.15-0.21,0.15-0.72,0.8-1.35c0.65-0.63,1.67-1.39,2.98-1.96c1.31-0.58,2.68-0.64,3.6-0.5
						c0.47,0.07,0.84,0.16,1.08,0.26C334.5,97.56,334.64,97.62,334.64,97.62z"/>
				</g>
			</g>
			<g>
				<g>
					<path style="fill:#515B60;" d="M315.79,106.89c0,0-0.13-0.08-0.37-0.23c-0.23-0.15-0.58-0.35-1-0.58
						c-0.84-0.46-2.01-0.99-3.33-1.45c-2.65-0.95-5.01-0.74-5.08-1.14c-0.03-0.18,0.54-0.48,1.57-0.63
						c1.02-0.15,2.48-0.07,3.98,0.44c1.5,0.52,2.65,1.45,3.31,2.22c0.34,0.39,0.57,0.72,0.71,0.97
						C315.71,106.75,315.79,106.89,315.79,106.89z"/>
				</g>
				<g>
					<path style="fill:#515B60;" d="M318.39,101.42c0,0-0.38,0.23-0.95,0.55c-0.56,0.32-1.31,0.73-2.11,1.19
						c-1.6,0.87-2.82,1.9-3.13,1.62c-0.14-0.13,0-0.55,0.41-1.11c0.4-0.55,1.11-1.23,2.05-1.75c0.94-0.51,1.93-0.65,2.62-0.64
						C317.96,101.3,318.39,101.42,318.39,101.42z"/>
				</g>
			</g>
			<g>
				<g>
					<path style="fill:#515B60;" d="M313.6,98.31c0,0-0.9-0.31-2.27-0.89c-1.38-0.57-3.21-1.39-5.23-2.06
						c-2.01-0.66-3.93-0.83-5.3-0.73c-1.38,0.08-2.26,0.34-2.39,0.1c-0.12-0.2,0.61-0.94,2.15-1.4c1.53-0.47,3.83-0.5,6.12,0.26
						c2.29,0.76,4,2.07,5.14,3.04C312.97,97.61,313.6,98.31,313.6,98.31z"/>
				</g>
				<g>
					<path style="fill:#515B60;" d="M319.68,90.59c0,0-0.18,0.05-0.51,0.14c-0.32,0.08-0.79,0.22-1.34,0.4
						c-1.11,0.35-2.54,0.91-4.07,1.6c-3.07,1.37-5.05,3.42-5.48,3.09c-0.19-0.15,0.06-0.9,0.84-1.87c0.77-0.97,2.12-2.11,3.86-2.92
						c1.75-0.8,3.52-0.94,4.75-0.83c0.62,0.05,1.11,0.15,1.44,0.24C319.49,90.54,319.68,90.59,319.68,90.59z"/>
				</g>
			</g>
		</g>
	</g>
	<g>
		<defs>
			<path id="XMLID_2_" d="M45.16,280.95l39.53-56.93l23.23-6.97l5.17-17.88c2.45-8.46,8.32-15.51,16.2-19.45l0,0l9.6-29.25
				l29.42-6.97l33.91-68.8l22.45-0.77l20.9-10.06l18.58-7.74l20.13,23.23l18.58,44.13l27.25,19.25l27.87,55.74l0,0
				c23.98,8.8,44.38,25.25,58.07,46.82l25.82,40.68l-258.08,13.92L45.16,280.95z"/>
		</defs>
		<use xlink:href="#XMLID_2_"  style="overflow:visible;fill:#FFFFFF;"/>
		<clipPath id="XMLID_4_">
			<use xlink:href="#XMLID_2_"  style="overflow:visible;"/>
		</clipPath>
		<path style="clip-path:url(#XMLID_4_);fill:#B492F7;" d="M190.77,131.03c-1.1,3.18-2.25,6.42-4.32,9.07
			c-2.24,2.85-5.52,4.88-9.07,5.6c4.37,1.69,9.16,2.26,13.8,1.67c-1.03-9.48,3.05-19.37,10.48-25.36
			c-1.07-9.83,0.96-19.98,5.74-28.63c1.25-2.26,2.71-4.51,2.96-7.08c0.15-1.48-0.27-3.72-1.54-4.69c-2.79-2.13-2.08-0.03-3.36,1.97
			c-2.52,3.97-3.1,10.99-4.46,15.56C197.82,109.84,194.41,120.47,190.77,131.03z"/>
		<path style="opacity:0.8;clip-path:url(#XMLID_4_);fill:#FFFFFF;" d="M190.77,131.03c-1.1,3.18-2.25,6.42-4.32,9.07
			c-2.24,2.85-5.52,4.88-9.07,5.6c4.37,1.69,9.16,2.26,13.8,1.67c-1.03-9.48,3.05-19.37,10.48-25.36
			c-1.07-9.83,0.96-19.98,5.74-28.63c1.25-2.26,2.71-4.51,2.96-7.08c0.15-1.48-0.27-3.72-1.54-4.69c-2.79-2.13-2.08-0.03-3.36,1.97
			c-2.52,3.97-3.1,10.99-4.46,15.56C197.82,109.84,194.41,120.47,190.77,131.03z"/>
		<g style="clip-path:url(#XMLID_4_);">
			<path style="fill:#B492F7;" d="M133.47,212.92c0.43-1.1,0.14-2.43-0.69-3.26c2.87,0.62,6.05-0.56,7.82-2.91
				c-1.96-6.89-0.49-14.67,3.86-20.36c-0.88,2.66-1.78,5.4-1.63,8.2c0.15,2.8,1.57,5.72,4.15,6.82c6.54,2.78,14.22-7.34,20.1-3.35
				c-2.34,2.02-4.68,4.04-7.01,6.06c6.31-1.18,12.62-2.35,18.93-3.53c0.86-1.95,1.72-3.9,2.58-5.85c0.92,2.18,1.85,4.36,2.77,6.53
				c1.32-6.87,5.85-13.06,12-16.4c-5.71,5.63-4.27,16.74-11.24,20.71c-2.94,1.68-6.54,1.47-9.92,1.7
				c-10.23,0.68-19.59,5.66-29.2,9.24c-8.75,3.26-20.96,6.24-29.5,0.86C118.92,216.4,132.76,214.77,133.47,212.92z"/>
			<path style="opacity:0.8;fill:#FFFFFF;" d="M133.47,212.92c0.43-1.1,0.14-2.43-0.69-3.26c2.87,0.62,6.05-0.56,7.82-2.91
				c-1.96-6.89-0.49-14.67,3.86-20.36c-0.88,2.66-1.78,5.4-1.63,8.2c0.15,2.8,1.57,5.72,4.15,6.82c6.54,2.78,14.22-7.34,20.1-3.35
				c-2.34,2.02-4.68,4.04-7.01,6.06c6.31-1.18,12.62-2.35,18.93-3.53c0.86-1.95,1.72-3.9,2.58-5.85c0.92,2.18,1.85,4.36,2.77,6.53
				c1.32-6.87,5.85-13.06,12-16.4c-5.71,5.63-4.27,16.74-11.24,20.71c-2.94,1.68-6.54,1.47-9.92,1.7
				c-10.23,0.68-19.59,5.66-29.2,9.24c-8.75,3.26-20.96,6.24-29.5,0.86C118.92,216.4,132.76,214.77,133.47,212.92z"/>
		</g>
		<path style="clip-path:url(#XMLID_4_);fill:#92E3A9;" d="M94.99,284c6.83-10.18,18.3-18.93,20.47-31
			c1.14-6.35,2.28-12.69,3.42-19.04c0,0-8.13,25.13-11.93,28.46c-3.8,3.33-15.21,18.53-15.21,18.53L94.99,284z"/>
		<g style="clip-path:url(#XMLID_4_);">
			<g>
				<path style="fill:#E4F8E9;" d="M291.82,180.82l-0.13-0.89c-0.15-0.3-0.31-0.6-0.46-0.89
					C291.43,179.63,291.62,180.22,291.82,180.82z"/>
			</g>
		</g>
		<path style="clip-path:url(#XMLID_4_);fill:#B492F7;" d="M158.27,261.36c-0.45-1.73-0.9-3.46-1.35-5.18
			c-2.1,5.45-4.21,10.9-6.31,16.35c-1.19,3.09-2.4,6.27-2.42,9.58c-0.01,3.31,2.4,6.82,5.33,8.36c-0.74-5.56,0.51-11.1,3.43-15.89
			c2.92-4.79,6.58-9.13,9.2-14.09c5.65-10.69,7.54-23.58,11.71-34.87c-3.68,0.11-7.96,12.76-9.65,16.09
			C164.9,248.26,161.58,254.81,158.27,261.36z"/>
		<g style="clip-path:url(#XMLID_4_);">
			<path style="fill:#B492F7;" d="M180.67,146.7c-4.12-0.89-8.25-1.77-12.37-2.66l-29.42,6.43l24.62,15.94l11.88-1.9l10.93-6.65
				l14.73,4.28l3.33,3.33l22.81,1.43l28.99-6.65l28.51-1.43l11.41-12.36l19.01,0.95l15-4.68l-27.25-19.25l-16.75,10.14
				c0,0,1.9,4.28-4.75,6.18c-6.65,1.9-13.31,3.33-13.31,3.33h-12.83l-10.46,1.9l-24.71,4.75c0,0-27.09-3.8-28.99-2.85
				C189.16,147.88,180.67,146.7,180.67,146.7z"/>
			<path style="opacity:0.8;fill:#FFFFFF;" d="M180.67,146.7c-4.12-0.89-8.25-1.77-12.37-2.66l-29.42,6.43l24.62,15.94l11.88-1.9
				l10.93-6.65l14.73,4.28l3.33,3.33l22.81,1.43l28.99-6.65l28.51-1.43l11.41-12.36l19.01,0.95l15-4.68l-27.25-19.25l-16.75,10.14
				c0,0,1.9,4.28-4.75,6.18c-6.65,1.9-13.31,3.33-13.31,3.33h-12.83l-10.46,1.9l-24.71,4.75c0,0-27.09-3.8-28.99-2.85
				C189.16,147.88,180.67,146.7,180.67,146.7z"/>
		</g>
		<g style="clip-path:url(#XMLID_4_);">
			<path style="fill:#B492F7;" d="M215.78,203.01c1.22-5.18,1.93-12.16,3.15-17.34c-7.15,8.47-8.22,20.83-15.32,29.35
				c-3.07,3.69-7.12,6.45-10.27,10.07c-4.85,5.56-7.29,12.77-9.62,19.77c-5.18,15.58-10.43,31.87-8.03,48.12
				c4.86-11.5,4.92-16.78,13.95-28.18c5.26-6.65,7.25-21.96,11.49-29.3c4.68-8.12,9.17-9.12,9.99-15.17
				c0.71-5.2,1.86-10.32,3.81-15.19L215.78,203.01z"/>
		</g>
		<path style="clip-path:url(#XMLID_4_);fill:#B492F7;" d="M286.81,171.8c4.32,9.65,9.76,17.91,14.98,26.46
			c4.7,7.7,18.31,10.05,22.72,17.92c11.02,19.63,17.81,26.23,24.55,40.62c3.34-0.69,6.67-1.39,10.01-2.08
			c-7.29-14.2-16.44-27.43-27.15-39.26c5.57,1.44,16.97,2.08,17.1,0.97c-10.31-2.73-13.93-5.44-22.99-11.05
			c-12.86-7.96-30.36-20.14-38.91-32.62"/>
		<path style="clip-path:url(#XMLID_4_);fill:#B492F7;" d="M344.96,205.83c0.34,0.93,0.67,1.86,1.01,2.78
			c-4.79-0.46-9.59-0.92-14.38-1.38c6.71,3.07,13.64,6.3,18.44,11.9c2.3,2.69,4.25,6.01,7.55,7.27c1.71,0.66,3.61,0.66,5.37,1.16
			c5.74,1.62,8.75,7.74,11.08,13.23c3.36-1.81,6.72-3.61,10.08-5.42c-2.99,0.14-5.82-1.59-7.75-3.88c-1.93-2.29-3.1-5.11-4.25-7.87
			c-0.59-1.43-1.2-2.99-0.82-4.5c0.38-1.5,2.24-2.69,3.52-1.82c-0.2-2.29-3-3.15-5.17-3.89c-2.17-0.75-4.52-3.17-3.09-4.97
			c1.27-1.59,3.8-0.48,5.44,0.72C365.69,204.94,351.97,203.17,344.96,205.83z"/>
		<path style="opacity:0.8;clip-path:url(#XMLID_4_);fill:#FFFFFF;" d="M94.99,284c6.83-10.18,18.3-18.93,20.47-31
			c1.14-6.35,2.28-12.69,3.42-19.04c0,0-8.13,25.13-11.93,28.46c-3.8,3.33-15.21,18.53-15.21,18.53L94.99,284z"/>
		<path style="opacity:0.8;clip-path:url(#XMLID_4_);fill:#FFFFFF;" d="M158.27,261.36c-0.45-1.73-0.9-3.46-1.35-5.18
			c-2.1,5.45-4.21,10.9-6.31,16.35c-1.19,3.09-2.4,6.27-2.42,9.58c-0.01,3.31,2.4,6.82,5.33,8.36c-0.74-5.56,0.51-11.1,3.43-15.89
			c2.92-4.79,6.58-9.13,9.2-14.09c5.65-10.69,7.54-23.58,11.71-34.87c-3.68,0.11-7.96,12.76-9.65,16.09
			C164.9,248.26,161.58,254.81,158.27,261.36z"/>
		<g style="opacity:0.8;clip-path:url(#XMLID_4_);">
			<path style="fill:#FFFFFF;" d="M215.78,203.01c1.22-5.18,1.93-12.16,3.15-17.34c-7.15,8.47-8.22,20.83-15.32,29.35
				c-3.07,3.69-7.12,6.45-10.27,10.07c-4.85,5.56-7.29,12.77-9.62,19.77c-5.18,15.58-10.43,31.87-8.03,48.12
				c4.86-11.5,4.92-16.78,13.95-28.18c5.26-6.65,7.25-21.96,11.49-29.3c4.68-8.12,9.17-9.12,9.99-15.17
				c0.71-5.2,1.86-10.32,3.81-15.19L215.78,203.01z"/>
		</g>
		<path style="opacity:0.8;clip-path:url(#XMLID_4_);fill:#FFFFFF;" d="M286.81,171.8c4.32,9.65,9.76,17.91,14.98,26.46
			c4.7,7.7,18.31,10.05,22.72,17.92c11.02,19.63,17.81,26.23,24.55,40.62c3.34-0.69,6.67-1.39,10.01-2.08
			c-7.29-14.2-16.44-27.43-27.15-39.26c5.57,1.44,16.97,2.08,17.1,0.97c-10.31-2.73-13.93-5.44-22.99-11.05
			c-12.86-7.96-30.36-20.14-38.91-32.62"/>
		<path style="opacity:0.8;clip-path:url(#XMLID_4_);fill:#FFFFFF;" d="M344.96,205.83c0.34,0.93,0.67,1.86,1.01,2.78
			c-4.79-0.46-9.59-0.92-14.38-1.38c6.71,3.07,13.64,6.3,18.44,11.9c2.3,2.69,4.25,6.01,7.55,7.27c1.71,0.66,3.61,0.66,5.37,1.16
			c5.74,1.62,8.75,7.74,11.08,13.23c3.36-1.81,6.72-3.61,10.08-5.42c-2.99,0.14-5.82-1.59-7.75-3.88c-1.93-2.29-3.1-5.11-4.25-7.87
			c-0.59-1.43-1.2-2.99-0.82-4.5c0.38-1.5,2.24-2.69,3.52-1.82c-0.2-2.29-3-3.15-5.17-3.89c-2.17-0.75-4.52-3.17-3.09-4.97
			c1.27-1.59,3.8-0.48,5.44,0.72C365.69,204.94,351.97,203.17,344.96,205.83z"/>
		<g style="clip-path:url(#XMLID_4_);">
			<path style="fill:#B492F7;" d="M160.6,221.69c-0.72,1.05-1.44,2.09-2.16,3.14c3.25-1.79,7.03-2.6,10.73-2.28
				c-0.45,0.76-0.91,1.53-1.36,2.29c3.01-1.67,6.02-3.34,9.04-5.01c0.14,1.15,0.29,2.3,0.43,3.45c4.23-4.44,8.45-8.88,12.68-13.33
				c-16.23,2.22-33.14,5.42-48.5,11.24C143.64,221.41,159.56,223.19,160.6,221.69z"/>
			<path style="opacity:0.8;fill:#FFFFFF;" d="M160.6,221.69c-0.72,1.05-1.44,2.09-2.16,3.14c3.25-1.79,7.03-2.6,10.73-2.28
				c-0.45,0.76-0.91,1.53-1.36,2.29c3.01-1.67,6.02-3.34,9.04-5.01c0.14,1.15,0.29,2.3,0.43,3.45c4.23-4.44,8.45-8.88,12.68-13.33
				c-16.23,2.22-33.14,5.42-48.5,11.24C143.64,221.41,159.56,223.19,160.6,221.69z"/>
		</g>
		<g style="clip-path:url(#XMLID_4_);">
			<path style="fill:#B492F7;" d="M219.52,126.97c1.82-1.45,4.71-0.19,5.84,1.85c1.13,2.04,1.05,4.49,1.13,6.82
				c0.08,2.33,0.47,4.86,2.2,6.42c-1.72-4.04,0.76-8.87,4.43-11.27c3.67-2.4,8.21-2.97,12.56-3.47c-2.49-3.53-6.57-5.89-10.87-6.29
				c-1.42-0.13-3.04-0.14-4.01-1.18c-0.6-0.65-0.81-1.56-0.99-2.43c-1.37-6.5-2.73-13-4.1-19.51c-0.25,3.31-1,6.59-2.24,9.67
				c1.73-4.31-6.05-15.51-10.53-13.15C220.07,101.58,220.3,117.5,219.52,126.97z"/>
			<path style="opacity:0.8;fill:#FFFFFF;" d="M219.52,126.97c1.82-1.45,4.71-0.19,5.84,1.85c1.13,2.04,1.05,4.49,1.13,6.82
				c0.08,2.33,0.47,4.86,2.2,6.42c-1.72-4.04,0.76-8.87,4.43-11.27c3.67-2.4,8.21-2.97,12.56-3.47c-2.49-3.53-6.57-5.89-10.87-6.29
				c-1.42-0.13-3.04-0.14-4.01-1.18c-0.6-0.65-0.81-1.56-0.99-2.43c-1.37-6.5-2.73-13-4.1-19.51c-0.25,3.31-1,6.59-2.24,9.67
				c1.73-4.31-6.05-15.51-10.53-13.15C220.07,101.58,220.3,117.5,219.52,126.97z"/>
		</g>
		<g style="clip-path:url(#XMLID_4_);">
			<path style="fill:#B492F7;" d="M228.74,78.69c6.76,6.06,10.68,14.58,14.42,22.86c3.76,8.32,7.52,16.65,11.28,24.97
				c2.41-2.79,3-7.02,1.43-10.35c0.26,6.19,6.47,11.46,12.62,10.71c-0.16-4.63-0.33-9.26-0.49-13.9c2.01,3.76,4.01,7.51,6.02,11.27
				c0.07-5.97-0.74-11.95-2.4-17.69c3.44,2.86,4.54,7.57,6.22,11.72c1.68,4.15,4.95,8.48,9.42,8.35c1.39-0.24,1.97,2.09,0.87,2.98
				c-1.09,0.89-2.73,0.56-4-0.06c-1.27-0.62-2.46-1.5-3.87-1.64c-3.56-0.34-5.52,3.85-7.94,6.49c-4.14,4.52-11.02,4.88-17.15,4.92
				c-0.56-9.6-14.49-19.37-15.15-21.85c-5.23-19.49-2.46-28.25-10.91-37.15c0.79,0.82,1.57,1.64,2.36,2.46"/>
			<path style="opacity:0.8;fill:#FFFFFF;" d="M228.74,78.69c6.76,6.06,10.68,14.58,14.42,22.86c3.76,8.32,7.52,16.65,11.28,24.97
				c2.41-2.79,3-7.02,1.43-10.35c0.26,6.19,6.47,11.46,12.62,10.71c-0.16-4.63-0.33-9.26-0.49-13.9c2.01,3.76,4.01,7.51,6.02,11.27
				c0.07-5.97-0.74-11.95-2.4-17.69c3.44,2.86,4.54,7.57,6.22,11.72c1.68,4.15,4.95,8.48,9.42,8.35c1.39-0.24,1.97,2.09,0.87,2.98
				c-1.09,0.89-2.73,0.56-4-0.06c-1.27-0.62-2.46-1.5-3.87-1.64c-3.56-0.34-5.52,3.85-7.94,6.49c-4.14,4.52-11.02,4.88-17.15,4.92
				c-0.56-9.6-14.49-19.37-15.15-21.85c-5.23-19.49-2.46-28.25-10.91-37.15c0.79,0.82,1.57,1.64,2.36,2.46"/>
		</g>
		<g style="clip-path:url(#XMLID_4_);">
			<path style="fill:#B492F7;" d="M251.61,74.56c3.15,1.05,6.6,0.92,9.73,2.04c0.37-1.72,0.33-3.52-0.11-5.22
				c2,3.12,3.21,6.75,3.47,10.44c-8.35,0.09-16.7,0.19-25.05,0.28c-0.67-0.74-1.34-1.47-2.01-2.21c1.45-0.9,2.9-1.81,4.35-2.71
				c1.48,1.73,4.14,2.32,6.21,1.37c-1.49-2.15-3.12-5.23-2.49-7.67C247.89,71.36,249.2,73.75,251.61,74.56z"/>
			<path style="opacity:0.8;fill:#FFFFFF;" d="M251.61,74.56c3.15,1.05,6.6,0.92,9.73,2.04c0.37-1.72,0.33-3.52-0.11-5.22
				c2,3.12,3.21,6.75,3.47,10.44c-8.35,0.09-16.7,0.19-25.05,0.28c-0.67-0.74-1.34-1.47-2.01-2.21c1.45-0.9,2.9-1.81,4.35-2.71
				c1.48,1.73,4.14,2.32,6.21,1.37c-1.49-2.15-3.12-5.23-2.49-7.67C247.89,71.36,249.2,73.75,251.61,74.56z"/>
		</g>
		<g style="clip-path:url(#XMLID_4_);">
			<path style="fill:#B492F7;" d="M186.79,160.72c0,0,0.95,8.08-0.95,14.26c-1.9,6.18,2.85,7.6,8.08,0.48
				c5.23-7.13,6.18-10.46,0.95-12.83C189.64,160.24,186.79,160.72,186.79,160.72z"/>
			<path style="opacity:0.8;fill:#FFFFFF;" d="M186.79,160.72c0,0,0.95,8.08-0.95,14.26c-1.9,6.18,2.85,7.6,8.08,0.48
				c5.23-7.13,6.18-10.46,0.95-12.83C189.64,160.24,186.79,160.72,186.79,160.72z"/>
		</g>
		<g style="clip-path:url(#XMLID_4_);">
			<path style="fill:#B492F7;" d="M147.82,162.62c0,0,3.33,8.08,2.85,13.78c-0.48,5.7,4.28-0.48,4.28-0.48l-1.43,8.55
				c0,0,7.13-9.5,6.18-14.73C158.75,164.52,147.82,162.62,147.82,162.62z"/>
			<path style="opacity:0.8;fill:#FFFFFF;" d="M147.82,162.62c0,0,3.33,8.08,2.85,13.78c-0.48,5.7,4.28-0.48,4.28-0.48l-1.43,8.55
				c0,0,7.13-9.5,6.18-14.73C158.75,164.52,147.82,162.62,147.82,162.62z"/>
		</g>
		<path style="clip-path:url(#XMLID_4_);fill:#92E3A9;" d="M344.89,191.98c-0.64-2.2-4.31-2.51-5.3-0.44
			c0.99-1.93-1.37-3.75-2.89-5.29c-3.92-3.97-3.05-10.44-1.91-15.9c-4.58,2.95-7.1,8.8-6.11,14.16c-0.93-1.97-3.51-2.96-5.52-2.12
			c-2.01,0.84-3.11,3.39-2.34,5.43c-2.63,0.43-5.32,0.87-7.96,0.45c-2.64-0.41-5.26-1.82-6.45-4.22c-0.58-1.17-1.2-2.81-2.5-2.67
			c-0.88,0.09-1.4,1-2.11,1.54c-2.25,1.73-5.44-0.76-6.47-3.4c-1.03-2.64-1.33-5.84-3.57-7.57c-0.14,1.85-0.27,3.7-0.41,5.55
			l0.35,2.44c3.46,6.65,6.92,13.29,10.37,19.94c0.84-2.31,1.98-4.91,4.34-5.6c2.05-0.61,4.17,0.5,6.09,1.45
			c8.24,4.08,17.64,5.78,26.78,4.85c0.44-1.69,0.88-3.38,1.33-5.07c4.44,1.63,8.89,3.26,13.33,4.9
			C350.92,197.59,347.9,194.78,344.89,191.98z"/>
		<path style="opacity:0.8;clip-path:url(#XMLID_4_);fill:#FFFFFF;" d="M344.89,191.98c-0.64-2.2-4.31-2.51-5.3-0.44
			c0.99-1.93-1.37-3.75-2.89-5.29c-3.92-3.97-3.05-10.44-1.91-15.9c-4.58,2.95-7.1,8.8-6.11,14.16c-0.93-1.97-3.51-2.96-5.52-2.12
			c-2.01,0.84-3.11,3.39-2.34,5.43c-2.63,0.43-5.32,0.87-7.96,0.45c-2.64-0.41-5.26-1.82-6.45-4.22c-0.58-1.17-1.2-2.81-2.5-2.67
			c-0.88,0.09-1.4,1-2.11,1.54c-2.25,1.73-5.44-0.76-6.47-3.4c-1.03-2.64-1.33-5.84-3.57-7.57c-0.14,1.85-0.27,3.7-0.41,5.55
			l0.35,2.44c3.46,6.65,6.92,13.29,10.37,19.94c0.84-2.31,1.98-4.91,4.34-5.6c2.05-0.61,4.17,0.5,6.09,1.45
			c8.24,4.08,17.64,5.78,26.78,4.85c0.44-1.69,0.88-3.38,1.33-5.07c4.44,1.63,8.89,3.26,13.33,4.9
			C350.92,197.59,347.9,194.78,344.89,191.98z"/>
		
			<use xlink:href="#XMLID_2_"  style="overflow:visible;fill:none;stroke:#8342EA;stroke-linecap:round;stroke-linejoin:round;stroke-miterlimit:10;"/>
	</g>
	<g>
		<path style="fill:none;stroke:#8342EA;stroke-linecap:round;stroke-linejoin:round;stroke-miterlimit:10;" d="M155.75,258.04
			c-2.79,10.08-5.57,20.16-8.36,30.24"/>
		<path style="fill:none;stroke:#8342EA;stroke-linecap:round;stroke-linejoin:round;stroke-miterlimit:10;" d="M281.31,146.19
			c5.88-3.03,11.76-6.07,17.64-9.1"/>
		<path style="fill:none;stroke:#92E3A9;stroke-linecap:round;stroke-linejoin:round;stroke-miterlimit:10;" d="M294.73,161.16
			c3.64-3.41,7.84-6.21,12.39-8.26c3.92-1.77,8.6-0.28,12.9-0.31"/>
		<path style="fill:none;stroke:#8342EA;stroke-linecap:round;stroke-linejoin:round;stroke-miterlimit:10;" d="M94.99,284
			c6.83-10.18,18.3-18.93,20.47-31c1.14-6.35,2.28-12.69,3.42-19.04"/>
		<path style="fill:none;stroke:#8342EA;stroke-linecap:round;stroke-linejoin:round;stroke-miterlimit:10;" d="M205.8,78.97
			l5.23,9.03c0,0-6.18,3.33-7.6,10.93c-1.43,7.6-1.9,24.24-1.9,24.24s-5.23,1.9-7.13,6.65c-1.9,4.75-3.33,17.11-3.33,17.11
			l28.99,2.85l19.96-3.8"/>
		<path style="fill:none;stroke:#8342EA;stroke-linecap:round;stroke-linejoin:round;stroke-miterlimit:10;" d="M226.23,78.5
			l6.18,6.65l7.13,32.32l9.03,6.18l5.7,15.68l18.06-2.38c0,0,0.95-6.65,5.7-7.6s7.13,2.38,7.13,2.38l4.75-2.85"/>
		<path style="fill:#FFFFFF;stroke:#8342EA;stroke-linecap:round;stroke-linejoin:round;stroke-miterlimit:10;" d="M240.49,83.25
			h22.34l5.23-2.38c0,0,4.28,2.38,7.13,1.43c2.85-0.95,6.65-0.95,6.65-0.95"/>
		<path style="fill:none;stroke:#8342EA;stroke-linecap:round;stroke-linejoin:round;stroke-miterlimit:10;" d="M326.04,144.56
			l-10.93,2.85c0,0-15.21-0.95-19.01-0.95s-11.41,12.36-11.41,12.36l-28.51,1.43l-28.99,6.65c0,0-21.86,0.48-25.19-2.85
			c-3.33-3.33-15.68-6.18-15.68-6.18l-10.93,6.65l-11.88,1.9l-17.11-9.03"/>
		<path style="fill:none;stroke:#8342EA;stroke-linecap:round;stroke-linejoin:round;stroke-miterlimit:10;" d="M112.17,217.75
			l25.19,2.38l19.49-8.55c0,0,10.93-3.33,28.51-4.28"/>
		<path style="fill:none;stroke:#8342EA;stroke-linecap:round;stroke-linejoin:round;stroke-miterlimit:10;" d="M313.2,196.36
			c0,0,18.53,4.28,26.14,3.33c0,0-0.95-4.75,2.85-4.75c3.8,0,7.13,4.75,7.13,4.75l5.7-0.48"/>
		<polyline style="fill:none;stroke:#8342EA;stroke-linecap:round;stroke-linejoin:round;stroke-miterlimit:10;" points="
			286.59,171.65 301.8,198.26 324.61,215.37 343.14,247.21 347.9,255.77 		"/>
		<path style="fill:none;stroke:#8342EA;stroke-linecap:round;stroke-linejoin:round;stroke-miterlimit:10;" d="M374.51,240.08
			c0,0-2.85-5.23-6.18-9.98c-3.33-4.75-10.93-3.33-10.93-3.33l-7.6-9.98l-24.71-11.88"/>
		<path style="fill:none;stroke:#8342EA;stroke-linecap:round;stroke-linejoin:round;stroke-miterlimit:10;" d="M182.99,217.27
			c0,0-7.6,13.31-10.46,24.71c-2.85,11.41-6.18,19.96-6.18,19.96s-6.18,6.18-9.03,10.93c-2.85,4.75-3.8,15.68-3.8,15.68"/>
		<path style="fill:none;stroke:#8342EA;stroke-linecap:round;stroke-linejoin:round;stroke-miterlimit:10;" d="M177.03,293.26
			c1.18-10.64,5.76-20.85,12.79-28.91l8.28-26.65c2.17-7,6.73-10.01,12.87-14v-3l5.23-19.49"/>
	</g>
	<g>
		<g>
			<g>
				<g>
					<g>
						<path style="fill:#AF86FC;" d="M487.74,254.1c-0.27,4.69-0.74,9.33-1.38,13.92c-0.85,6.07-2.01,12.07-3.48,17.95
							c-3.43,13.84-8.54,27.14-15.1,39.73c-3.07,5.93-6.48,11.7-10.2,17.28c-75.1,2.28-229.91,4.11-278.51-17.26h-0.01
							c-0.49-0.22-0.96-0.43-1.42-0.65c-0.46-0.22-0.91-0.45-1.36-0.66c-0.62-0.32-1.22-0.63-1.79-0.96c0,0,0,0-0.01,0
							c-0.58-0.33-1.13-0.65-1.66-0.98c-0.03-0.01-0.07-0.03-0.1-0.05c-0.5-0.33-0.98-0.64-1.43-0.96
							c-0.97-0.68-1.86-1.39-2.64-2.11c-0.2-0.18-0.38-0.37-0.56-0.54c-0.18-0.17-0.35-0.35-0.52-0.53c0,0-0.01-0.01-0.01-0.02
							c-0.35-0.37-0.67-0.75-0.96-1.13c-0.15-0.2-0.29-0.38-0.42-0.58c-0.27-0.39-0.51-0.78-0.73-1.17
							c-0.12-0.21-0.22-0.42-0.33-0.63c-0.02-0.05-0.05-0.12-0.09-0.18c-0.1-0.24-0.2-0.47-0.28-0.71
							c-0.09-0.25-0.17-0.51-0.25-0.77c-0.07-0.26-0.13-0.52-0.18-0.78c-0.05-0.31-0.11-0.63-0.14-0.96
							c-0.15-1.49,0.03-3.05,0.59-4.68c0.09-0.26,0.18-0.51,0.28-0.77c0.3-0.78,0.68-1.57,1.16-2.39c0.31-0.53,0.66-1.08,1.04-1.62
							c0.18-0.27,0.39-0.55,0.61-0.84c0.63-0.84,1.34-1.68,2.15-2.55v-0.01c0.28-0.29,0.55-0.58,0.84-0.87c0,0,0,0,0.01-0.01
							c0.05-0.03,0.23-0.13,0.52-0.28c0.1-0.05,0.22-0.12,0.36-0.2c1.15-0.6,3.46-1.72,7.15-3.23c0.22-0.1,0.43-0.18,0.66-0.27
							c0.52-0.22,1.08-0.43,1.65-0.67c0,0,0,0,0.01,0c2.15-0.85,4.68-1.78,7.6-2.8c0.34-0.12,0.67-0.24,1.02-0.36
							c2.43-0.84,5.14-1.72,8.11-2.64c0.42-0.13,0.85-0.27,1.29-0.4c0.54-0.16,1.1-0.34,1.66-0.5c1.14-0.35,2.31-0.7,3.53-1.04
							c4.43-1.28,9.35-2.62,14.81-3.99c1.18-0.3,2.4-0.6,3.64-0.9c1.23-0.29,2.49-0.6,3.78-0.9c4.51-1.06,9.33-2.14,14.49-3.21
							c1.47-0.3,2.98-0.62,4.5-0.92c0.77-0.15,1.53-0.31,2.31-0.47c1.1-0.22,2.2-0.43,3.33-0.65c1.27-0.25,2.55-0.49,3.86-0.74
							c2.47-0.47,4.98-0.92,7.57-1.39c2.24-0.39,4.53-0.79,6.86-1.19c1.87-0.3,3.76-0.63,5.69-0.93c1.26-0.21,2.55-0.41,3.84-0.62
							c1.11-0.17,2.22-0.35,3.33-0.52c1.76-0.27,3.54-0.54,5.35-0.81c1-0.15,2-0.3,3.01-0.45c3.04-0.45,6.14-0.88,9.32-1.31
							c2.06-0.28,4.15-0.56,6.28-0.85c1.14-0.14,2.29-0.29,3.45-0.45c1.11-0.14,2.22-0.28,3.33-0.42c4.56-0.56,9.25-1.13,14.09-1.68
							c2.29-0.26,4.62-0.52,6.97-0.77c0.47-0.04,0.93-0.1,1.4-0.15c0,0,0,0,0.01,0c0.75-0.08,1.51-0.15,2.27-0.24
							c2.47-0.26,4.97-0.52,7.52-0.77c0.59-0.05,1.17-0.11,1.76-0.17c1.97-0.2,3.94-0.39,5.95-0.58c2.57-0.25,5.19-0.49,7.83-0.72
							c1.47-0.13,2.94-0.26,4.43-0.39c2.09-0.17,4.19-0.36,6.32-0.53c6.06-0.49,12.28-0.97,18.68-1.43c1.46-0.1,2.92-0.21,4.4-0.3
							c1.48-0.1,2.96-0.21,4.46-0.3c3.11-0.2,6.24-0.4,9.43-0.6c2.94-0.18,5.93-0.36,8.94-0.52c1.57-0.09,3.15-0.18,4.73-0.26
							c1.81-0.1,3.64-0.2,5.47-0.29c2.99-0.15,5.99-0.3,9.05-0.45c1.64-0.08,3.29-0.15,4.95-0.23H487.74z"/>
						<path style="opacity:0.2;fill:#FFFFFF;" d="M487.74,254.1c-0.27,4.69-0.74,9.33-1.38,13.92c-0.85,6.07-2.01,12.07-3.48,17.95
							c-3.43,13.84-8.54,27.14-15.1,39.73c-3.07,5.93-6.48,11.7-10.2,17.28c-75.1,2.28-229.91,4.11-278.51-17.26h-0.01
							c-0.49-0.22-0.96-0.43-1.42-0.65c-0.46-0.22-0.91-0.45-1.36-0.66c-0.62-0.32-1.22-0.63-1.79-0.96c0,0,0,0-0.01,0
							c-0.58-0.33-1.13-0.65-1.66-0.98c-0.03-0.01-0.07-0.03-0.1-0.05c-0.5-0.33-0.98-0.64-1.43-0.96
							c-0.97-0.68-1.86-1.39-2.64-2.11c-0.2-0.18-0.38-0.37-0.56-0.54c-0.18-0.17-0.35-0.35-0.52-0.53c0,0-0.01-0.01-0.01-0.02
							c-0.35-0.37-0.67-0.75-0.96-1.13c-0.15-0.2-0.29-0.38-0.42-0.58c-0.27-0.39-0.51-0.78-0.73-1.17
							c-0.12-0.21-0.22-0.42-0.33-0.63c-0.02-0.05-0.05-0.12-0.09-0.18c-0.1-0.24-0.2-0.47-0.28-0.71
							c-0.09-0.25-0.17-0.51-0.25-0.77c-0.07-0.26-0.13-0.52-0.18-0.78c-0.05-0.31-0.11-0.63-0.14-0.96
							c-0.15-1.49,0.03-3.05,0.59-4.68c0.09-0.26,0.18-0.51,0.28-0.77c0.3-0.78,0.68-1.57,1.16-2.39c0.31-0.53,0.66-1.08,1.04-1.62
							c0.18-0.27,0.39-0.55,0.61-0.84c0.63-0.84,1.34-1.68,2.15-2.55v-0.01c0.28-0.29,0.55-0.58,0.84-0.87c0,0,0,0,0.01-0.01
							c0.05-0.03,0.23-0.13,0.52-0.28c0.1-0.05,0.22-0.12,0.36-0.2c1.15-0.6,3.46-1.72,7.15-3.23c0.22-0.1,0.43-0.18,0.66-0.27
							c0.52-0.22,1.08-0.43,1.65-0.67c0,0,0,0,0.01,0c2.15-0.85,4.68-1.78,7.6-2.8c0.34-0.12,0.67-0.24,1.02-0.36
							c2.43-0.84,5.14-1.72,8.11-2.64c0.42-0.13,0.85-0.27,1.29-0.4c0.54-0.16,1.1-0.34,1.66-0.5c1.14-0.35,2.31-0.7,3.53-1.04
							c4.43-1.28,9.35-2.62,14.81-3.99c1.18-0.3,2.4-0.6,3.64-0.9c1.23-0.29,2.49-0.6,3.78-0.9c4.51-1.06,9.33-2.14,14.49-3.21
							c1.47-0.3,2.98-0.62,4.5-0.92c0.77-0.15,1.53-0.31,2.31-0.47c1.1-0.22,2.2-0.43,3.33-0.65c1.27-0.25,2.55-0.49,3.86-0.74
							c2.47-0.47,4.98-0.92,7.57-1.39c2.24-0.39,4.53-0.79,6.86-1.19c1.87-0.3,3.76-0.63,5.69-0.93c1.26-0.21,2.55-0.41,3.84-0.62
							c1.11-0.17,2.22-0.35,3.33-0.52c1.76-0.27,3.54-0.54,5.35-0.81c1-0.15,2-0.3,3.01-0.45c3.04-0.45,6.14-0.88,9.32-1.31
							c2.06-0.28,4.15-0.56,6.28-0.85c1.14-0.14,2.29-0.29,3.45-0.45c1.11-0.14,2.22-0.28,3.33-0.42c4.56-0.56,9.25-1.13,14.09-1.68
							c2.29-0.26,4.62-0.52,6.97-0.77c0.47-0.04,0.93-0.1,1.4-0.15c0,0,0,0,0.01,0c0.75-0.08,1.51-0.15,2.27-0.24
							c2.47-0.26,4.97-0.52,7.52-0.77c0.59-0.05,1.17-0.11,1.76-0.17c1.97-0.2,3.94-0.39,5.95-0.58c2.57-0.25,5.19-0.49,7.83-0.72
							c1.47-0.13,2.94-0.26,4.43-0.39c2.09-0.17,4.19-0.36,6.32-0.53c6.06-0.49,12.28-0.97,18.68-1.43c1.46-0.1,2.92-0.21,4.4-0.3
							c1.48-0.1,2.96-0.21,4.46-0.3c3.11-0.2,6.24-0.4,9.43-0.6c2.94-0.18,5.93-0.36,8.94-0.52c1.57-0.09,3.15-0.18,4.73-0.26
							c1.81-0.1,3.64-0.2,5.47-0.29c2.99-0.15,5.99-0.3,9.05-0.45c1.64-0.08,3.29-0.15,4.95-0.23H487.74z"/>
					</g>
					<g>
						<path style="fill:#AF86FC;" d="M487.74,254.1c-0.27,4.69-0.74,9.33-1.38,13.92c-0.85,6.07-2.01,12.07-3.48,17.95h-41.03
							c-76.24,3.42-132.65,9.98-173.65,17.01h-0.01c-49.8,8.53-76.88,17.72-89.11,22.74h-0.01c-0.49-0.22-0.96-0.43-1.42-0.65
							c-0.46-0.22-0.91-0.45-1.36-0.66c-0.62-0.32-1.22-0.63-1.79-0.96c0,0,0,0-0.01,0c-0.58-0.33-1.13-0.65-1.66-0.98
							c-0.03-0.01-0.07-0.03-0.1-0.05c-0.5-0.33-0.98-0.64-1.43-0.96c-0.98-0.67-1.86-1.38-2.64-2.11c-0.2-0.18-0.38-0.37-0.56-0.54
							c-0.18-0.17-0.35-0.35-0.52-0.53c0,0-0.01-0.01-0.01-0.02c-0.35-0.37-0.67-0.75-0.96-1.13c-0.15-0.2-0.29-0.38-0.42-0.58
							c-0.27-0.38-0.52-0.77-0.73-1.17c-0.12-0.21-0.22-0.42-0.33-0.63c-0.02-0.05-0.05-0.12-0.09-0.18
							c-0.1-0.24-0.2-0.47-0.28-0.71c-0.09-0.25-0.17-0.51-0.25-0.77c-0.07-0.26-0.13-0.52-0.18-0.78
							c-0.05-0.31-0.11-0.63-0.14-0.96c-0.15-1.49,0.03-3.05,0.59-4.68c0.09-0.26,0.18-0.51,0.28-0.77c0.3-0.78,0.68-1.57,1.16-2.39
							c0.3-0.53,0.65-1.08,1.04-1.62c0.18-0.27,0.39-0.55,0.61-0.84c0.63-0.84,1.34-1.68,2.15-2.55v-0.01
							c0.26-0.28,0.54-0.58,0.83-0.87c0,0,0,0,0.01,0c0,0,0,0,0.01-0.01c0.05-0.03,0.23-0.13,0.52-0.28c0.1-0.05,0.22-0.12,0.36-0.2
							c1.15-0.6,3.46-1.72,7.15-3.23c0.22-0.1,0.43-0.18,0.66-0.27c0.52-0.22,1.08-0.43,1.65-0.67c0,0,0,0,0.01,0
							c2.15-0.85,4.68-1.78,7.6-2.8c0.34-0.12,0.67-0.24,1.02-0.36c2.43-0.84,5.14-1.72,8.11-2.64c0.42-0.13,0.85-0.27,1.29-0.4
							c0.54-0.16,1.1-0.34,1.66-0.5c1.14-0.35,2.31-0.7,3.53-1.04c4.43-1.28,9.35-2.62,14.81-3.99c1.18-0.3,2.4-0.6,3.64-0.9
							c1.23-0.29,2.49-0.6,3.78-0.9c4.51-1.06,9.33-2.14,14.49-3.21c1.47-0.3,2.98-0.62,4.5-0.92c0.77-0.15,1.53-0.31,2.31-0.47
							c1.1-0.22,2.2-0.43,3.33-0.65c1.27-0.25,2.55-0.49,3.86-0.74c2.47-0.47,4.98-0.92,7.57-1.39c2.24-0.39,4.53-0.79,6.86-1.19
							c1.87-0.3,3.76-0.63,5.69-0.93c1.26-0.21,2.55-0.41,3.84-0.62c1.11-0.17,2.22-0.35,3.33-0.52c1.76-0.27,3.54-0.54,5.35-0.81
							c1-0.15,2-0.3,3.01-0.45c3.04-0.45,6.14-0.88,9.32-1.31c2.06-0.28,4.15-0.56,6.28-0.85c1.14-0.14,2.29-0.29,3.45-0.45
							c1.11-0.14,2.22-0.28,3.33-0.42c4.56-0.56,9.25-1.13,14.09-1.68c2.29-0.25,4.62-0.51,6.97-0.77c0.47-0.04,0.93-0.1,1.4-0.15
							c0,0,0,0,0.01,0c0.75-0.08,1.51-0.15,2.27-0.24c2.47-0.26,4.97-0.51,7.52-0.77c0.59-0.05,1.17-0.11,1.76-0.17
							c1.97-0.2,3.94-0.38,5.95-0.58c2.57-0.24,5.18-0.48,7.83-0.72c1.47-0.13,2.94-0.26,4.43-0.39c2.09-0.17,4.19-0.36,6.32-0.53
							c6.06-0.49,12.28-0.97,18.68-1.43c1.46-0.1,2.92-0.21,4.4-0.3c1.48-0.1,2.96-0.21,4.46-0.3c3.11-0.2,6.24-0.4,9.43-0.6
							c2.94-0.18,5.93-0.36,8.94-0.52c1.57-0.09,3.15-0.18,4.73-0.26c1.81-0.1,3.64-0.2,5.47-0.29c2.99-0.15,5.99-0.3,9.05-0.45
							c1.64-0.08,3.29-0.15,4.95-0.23H487.74z"/>
						<path style="opacity:0.3;fill:#FFFFFF;" d="M487.74,254.1c-0.27,4.69-0.74,9.33-1.38,13.92c-0.85,6.07-2.01,12.07-3.48,17.95
							h-41.03c-76.24,3.42-132.65,9.98-173.65,17.01h-0.01c-49.8,8.53-76.88,17.72-89.11,22.74h-0.01
							c-0.49-0.22-0.96-0.43-1.42-0.65c-0.46-0.22-0.91-0.45-1.36-0.66c-0.62-0.32-1.22-0.63-1.79-0.96c0,0,0,0-0.01,0
							c-0.58-0.33-1.13-0.65-1.66-0.98c-0.03-0.01-0.07-0.03-0.1-0.05c-0.5-0.33-0.98-0.64-1.43-0.96
							c-0.98-0.67-1.86-1.38-2.64-2.11c-0.2-0.18-0.38-0.37-0.56-0.54c-0.18-0.17-0.35-0.35-0.52-0.53c0,0-0.01-0.01-0.01-0.02
							c-0.35-0.37-0.67-0.75-0.96-1.13c-0.15-0.2-0.29-0.38-0.42-0.58c-0.27-0.38-0.52-0.77-0.73-1.17
							c-0.12-0.21-0.22-0.42-0.33-0.63c-0.02-0.05-0.05-0.12-0.09-0.18c-0.1-0.24-0.2-0.47-0.28-0.71
							c-0.09-0.25-0.17-0.51-0.25-0.77c-0.07-0.26-0.13-0.52-0.18-0.78c-0.05-0.31-0.11-0.63-0.14-0.96
							c-0.15-1.49,0.03-3.05,0.59-4.68c0.09-0.26,0.18-0.51,0.28-0.77c0.3-0.78,0.68-1.57,1.16-2.39c0.3-0.53,0.65-1.08,1.04-1.62
							c0.18-0.27,0.39-0.55,0.61-0.84c0.63-0.84,1.34-1.68,2.15-2.55v-0.01c0.26-0.28,0.54-0.58,0.83-0.87c0,0,0,0,0.01,0
							c0,0,0,0,0.01-0.01c0.05-0.03,0.23-0.13,0.52-0.28c0.1-0.05,0.22-0.12,0.36-0.2c1.15-0.6,3.46-1.72,7.15-3.23
							c0.22-0.1,0.43-0.18,0.66-0.27c0.52-0.22,1.08-0.43,1.65-0.67c0,0,0,0,0.01,0c2.15-0.85,4.68-1.78,7.6-2.8
							c0.34-0.12,0.67-0.24,1.02-0.36c2.43-0.84,5.14-1.72,8.11-2.64c0.42-0.13,0.85-0.27,1.29-0.4c0.54-0.16,1.1-0.34,1.66-0.5
							c1.14-0.35,2.31-0.7,3.53-1.04c4.43-1.28,9.35-2.62,14.81-3.99c1.18-0.3,2.4-0.6,3.64-0.9c1.23-0.29,2.49-0.6,3.78-0.9
							c4.51-1.06,9.33-2.14,14.49-3.21c1.47-0.3,2.98-0.62,4.5-0.92c0.77-0.15,1.53-0.31,2.31-0.47c1.1-0.22,2.2-0.43,3.33-0.65
							c1.27-0.25,2.55-0.49,3.86-0.74c2.47-0.47,4.98-0.92,7.57-1.39c2.24-0.39,4.53-0.79,6.86-1.19c1.87-0.3,3.76-0.63,5.69-0.93
							c1.26-0.21,2.55-0.41,3.84-0.62c1.11-0.17,2.22-0.35,3.33-0.52c1.76-0.27,3.54-0.54,5.35-0.81c1-0.15,2-0.3,3.01-0.45
							c3.04-0.45,6.14-0.88,9.32-1.31c2.06-0.28,4.15-0.56,6.28-0.85c1.14-0.14,2.29-0.29,3.45-0.45c1.11-0.14,2.22-0.28,3.33-0.42
							c4.56-0.56,9.25-1.13,14.09-1.68c2.29-0.25,4.62-0.51,6.97-0.77c0.47-0.04,0.93-0.1,1.4-0.15c0,0,0,0,0.01,0
							c0.75-0.08,1.51-0.15,2.27-0.24c2.47-0.26,4.97-0.51,7.52-0.77c0.59-0.05,1.17-0.11,1.76-0.17c1.97-0.2,3.94-0.38,5.95-0.58
							c2.57-0.24,5.18-0.48,7.83-0.72c1.47-0.13,2.94-0.26,4.43-0.39c2.09-0.17,4.19-0.36,6.32-0.53
							c6.06-0.49,12.28-0.97,18.68-1.43c1.46-0.1,2.92-0.21,4.4-0.3c1.48-0.1,2.96-0.21,4.46-0.3c3.11-0.2,6.24-0.4,9.43-0.6
							c2.94-0.18,5.93-0.36,8.94-0.52c1.57-0.09,3.15-0.18,4.73-0.26c1.81-0.1,3.64-0.2,5.47-0.29c2.99-0.15,5.99-0.3,9.05-0.45
							c1.64-0.08,3.29-0.15,4.95-0.23H487.74z"/>
						<path style="fill:none;stroke:#515B60;stroke-miterlimit:10;" d="M482.89,285.97h-41.03c-76.24,3.42-132.65,9.98-173.65,17.01
							h-0.01c-49.8,8.53-76.88,17.72-89.11,22.74"/>
					</g>
					<g>
						<path style="fill:#9865FC;" d="M457.49,343.14l-220.73,6.97l-157.8,4.94c-18-23.06-30.55-49.65-36.03-78.36
							c3.1,0.37,33.54,4,76.85,9.09c9.72,1.14,20.09,2.36,30.94,3.63c9.81,1.14,20.02,2.34,30.5,3.55c0,0,0,0,0.01,0
							c27.81,3.24,57.57,6.66,86.99,10.01c70.04,7.96,138.23,15.45,174.08,18.67c10.12,0.91,18.54,2.35,25.51,4.05
							c-3.07,5.93-6.48,11.7-10.2,17.28L457.49,343.14z"/>
						<path style="opacity:0.1;fill:#263238;" d="M457.49,343.14l-220.73,6.97l-157.8,4.94c-18-23.06-30.55-49.65-36.03-78.36
							c3.1,0.37,33.54,4,76.85,9.09c9.72,1.14,20.09,2.36,30.94,3.63c9.81,1.14,20.02,2.34,30.5,3.55c0,0,0,0,0.01,0
							c27.81,3.24,57.57,6.66,86.99,10.01c70.04,7.96,138.23,15.45,174.08,18.67c10.12,0.91,18.54,2.35,25.51,4.05
							c-3.07,5.93-6.48,11.7-10.2,17.28L457.49,343.14z"/>
						<path style="fill:none;stroke:#515B60;stroke-miterlimit:10;" d="M42.92,276.7c3.1,0.37,33.54,4,76.85,9.09
							c9.72,1.14,20.09,2.36,30.94,3.63c9.81,1.14,20.02,2.34,30.5,3.55c0,0,0,0,0.01,0c27.81,3.24,57.57,6.66,86.99,10.01
							c70.04,7.96,138.23,15.45,174.08,18.67c10.12,0.91,18.54,2.35,25.51,4.05"/>
					</g>
				</g>
			</g>
			<g>
				<polygon style="fill:#FFFFFF;" points="356.17,316.63 365.53,300.16 375.12,316.5 				"/>
				<polygon style="fill:#263238;" points="358.78,316.44 365.52,304.58 372.41,316.34 				"/>
				
					<line style="fill:none;stroke:#3C464C;stroke-linecap:round;stroke-linejoin:round;stroke-miterlimit:10;" x1="365.52" y1="304.58" x2="365.6" y2="316.57"/>
				<polygon style="fill:#263238;" points="365.53,300.16 375.12,316.5 394.97,316.37 385.38,300.03 				"/>
				<polygon style="fill:#263238;" points="374.48,304.34 378.28,310.81 386.13,310.76 382.34,304.29 				"/>
			</g>
			<g>
				<g>
					<g>
						<path style="fill:#AF86FC;" d="M488.05,243.76c0,0.96-0.01,1.92-0.03,2.88c0,0.41,0,0.83-0.02,1.24
							c-0.01,0.67-0.03,1.35-0.05,2.01c-0.01,0.4-0.02,0.81-0.05,1.22c-0.03,1-0.08,2-0.14,3c-0.07,1.05-0.13,2.11-0.22,3.15
							c-0.04,0.63-0.1,1.26-0.16,1.89c-0.04,0.64-0.11,1.28-0.17,1.91c-0.1,1.03-0.21,2.06-0.34,3.08
							c-0.08,0.72-0.16,1.44-0.26,2.16c-0.04,0.38-0.1,0.75-0.15,1.13c-0.02,0.2-0.04,0.4-0.08,0.6h-0.01
							c-18.22,5.79-60.66,11.21-154.8-4.75c0,0,1.47-0.41,4.11-1.39c0,0,0,0,0.01,0c12.7-4.68,52.38-22.23,84.11-67.91
							c17.77-25.58,36.08-19.03,50.61-4.64C481.49,209.1,488.05,227.9,488.05,243.76z"/>
					</g>
				</g>
				<g style="opacity:0.2;">
					<g>
						<path style="fill:#FFFFFF;" d="M488.05,243.76c0,0.96-0.01,1.92-0.03,2.88c0,0.41,0,0.83-0.02,1.24
							c-0.01,0.67-0.03,1.35-0.05,2.01c-0.01,0.4-0.02,0.81-0.05,1.22c-0.03,1-0.08,2-0.14,3c-0.07,1.05-0.13,2.11-0.22,3.15
							c-0.04,0.63-0.1,1.26-0.16,1.89c-0.04,0.64-0.11,1.28-0.17,1.91c-0.1,1.03-0.21,2.06-0.34,3.08
							c-0.08,0.72-0.16,1.44-0.26,2.16c-0.04,0.38-0.1,0.75-0.15,1.13c-0.02,0.2-0.04,0.4-0.08,0.6h-0.01
							c-18.22,5.79-60.66,11.21-154.8-4.75c0,0,1.47-0.41,4.11-1.39c0,0,0,0,0.01,0c12.7-4.68,52.38-22.23,84.11-67.91
							c17.77-25.58,36.08-19.03,50.61-4.64C481.49,209.1,488.05,227.9,488.05,243.76z"/>
					</g>
				</g>
			</g>
		</g>
		<path style="fill:none;stroke:#515B60;stroke-miterlimit:10;" d="M486.35,268.02c-18.22,5.79-60.66,11.21-154.8-4.75"/>
	</g>
	<g>
		<g>
			<g>
				<polygon style="fill:#8342EA;" points="38.64,308.83 53.62,266.4 42.9,266.4 55.75,229.99 47.15,229.99 68.6,169.23 
					90.05,229.99 81.45,229.99 94.3,266.4 83.58,266.4 98.55,308.83 				"/>
			</g>
			<g>
				<polygon style="fill:#515B60;" points="70.58,335.51 68.17,211.12 67.57,334.76 				"/>
			</g>
			<g>
				<path style="fill:#515B60;" d="M67.87,212.09c0,0-4.76,8.18-13.31,10.66c0,0,9.03-2.04,13.55-9.08L67.87,212.09z"/>
				<path style="fill:#515B60;" d="M69.22,278.95c0,0-8.49,14.34-22.7,18.49c0,0,15.14-3.94,22.64-15.63L69.22,278.95z"/>
				<path style="fill:#515B60;" d="M67.97,242.02c0,0-7.43,12.64-20.23,16.35c0,0,13.51-3.05,20.27-13.59L67.97,242.02z"/>
				<path style="fill:#515B60;" d="M68.71,250.95c0,0,6.87,12.23,19.22,15.98c0,0-13.04-3.06-19.56-13.59L68.71,250.95z"/>
				<path style="fill:#515B60;" d="M69.8,285.63c0,0,7.62,13.58,21.33,17.73c0,0-14.48-3.4-21.71-15.08L69.8,285.63z"/>
				<path style="fill:#515B60;" d="M68.57,215.42c0,0,4.59,8.18,12.85,10.68c0,0-8.72-2.05-13.07-9.08L68.57,215.42z"/>
			</g>
		</g>
		<g>
			<g>
				<polygon style="fill:#8342EA;" points="391.59,308.79 397.06,293.28 393.14,293.28 397.84,279.97 394.69,279.97 402.53,257.77 
					410.37,279.97 407.23,279.97 411.93,293.28 408.01,293.28 413.48,308.79 				"/>
			</g>
			<g>
				<polygon style="fill:#515B60;" points="403.26,318.54 402.38,273.07 402.16,318.26 				"/>
			</g>
			<g>
				<path style="fill:#515B60;" d="M402.27,273.43c0,0-1.74,2.99-4.87,3.9c0,0,3.3-0.75,4.95-3.32L402.27,273.43z"/>
				<path style="fill:#515B60;" d="M402.76,297.87c0,0-3.1,5.24-8.3,6.76c0,0,5.53-1.44,8.27-5.71L402.76,297.87z"/>
				<path style="fill:#515B60;" d="M402.3,284.37c0,0-2.72,4.62-7.4,5.98c0,0,4.94-1.12,7.41-4.97L402.3,284.37z"/>
				<path style="fill:#515B60;" d="M402.57,287.63c0,0,2.51,4.47,7.03,5.84c0,0-4.77-1.12-7.15-4.97L402.57,287.63z"/>
				<path style="fill:#515B60;" d="M402.97,300.31c0,0,2.78,4.96,7.8,6.48c0,0-5.29-1.24-7.93-5.51L402.97,300.31z"/>
				<path style="fill:#515B60;" d="M402.52,274.65c0,0,1.68,2.99,4.7,3.9c0,0-3.19-0.75-4.78-3.32L402.52,274.65z"/>
			</g>
		</g>
		<g>
			<g>
				<polygon style="fill:#8342EA;" points="109.41,323.94 122.79,286.02 113.21,286.02 124.69,253.48 117.01,253.48 136.18,199.17 
					155.35,253.48 147.66,253.48 159.15,286.02 149.56,286.02 162.95,323.94 				"/>
			</g>
			<g>
				<polygon style="fill:#515B60;" points="137.95,347.79 135.79,236.61 135.26,347.12 				"/>
			</g>
			<g>
				<path style="fill:#515B60;" d="M135.52,237.48c0,0-4.25,7.31-11.9,9.53c0,0,8.07-1.82,12.11-8.12L135.52,237.48z"/>
				<path style="fill:#515B60;" d="M136.74,297.24c0,0-7.59,12.82-20.29,16.52c0,0,13.53-3.52,20.24-13.97L136.74,297.24z"/>
				<path style="fill:#515B60;" d="M135.62,264.22c0,0-6.64,11.3-18.08,14.61c0,0,12.08-2.73,18.12-12.15L135.62,264.22z"/>
				<path style="fill:#515B60;" d="M136.28,272.21c0,0,6.14,10.93,17.18,14.28c0,0-11.66-2.74-17.48-12.15L136.28,272.21z"/>
				<path style="fill:#515B60;" d="M137.25,303.2c0,0,6.81,12.13,19.07,15.85c0,0-12.94-3.04-19.4-13.48L137.25,303.2z"/>
				<path style="fill:#515B60;" d="M136.15,240.45c0,0,4.1,7.31,11.48,9.54c0,0-7.79-1.83-11.68-8.12L136.15,240.45z"/>
			</g>
		</g>
		<g>
			<g>
				<polygon style="fill:#8342EA;" points="412.24,303.35 423.82,270.54 415.52,270.54 425.46,242.38 418.81,242.38 435.4,195.38 
					451.99,242.38 445.34,242.38 455.28,270.54 446.99,270.54 458.57,303.35 				"/>
			</g>
			<g>
				<polygon style="fill:#515B60;" points="436.94,323.99 435.07,227.78 434.61,323.41 				"/>
			</g>
			<g>
				<path style="fill:#515B60;" d="M434.84,228.53c0,0-3.68,6.33-10.3,8.25c0,0,6.98-1.58,10.48-7.03L434.84,228.53z"/>
				<path style="fill:#515B60;" d="M435.89,280.25c0,0-6.57,11.09-17.56,14.3c0,0,11.71-3.04,17.51-12.09L435.89,280.25z"/>
				<path style="fill:#515B60;" d="M434.92,251.68c0,0-5.75,9.78-15.65,12.65c0,0,10.45-2.36,15.68-10.51L434.92,251.68z"/>
				<path style="fill:#515B60;" d="M435.49,258.59c0,0,5.31,9.46,14.87,12.36c0,0-10.09-2.37-15.13-10.51L435.49,258.59z"/>
				<path style="fill:#515B60;" d="M436.33,285.41c0,0,5.89,10.5,16.5,13.71c0,0-11.2-2.63-16.79-11.67L436.33,285.41z"/>
				<path style="fill:#515B60;" d="M435.38,231.1c0,0,3.55,6.32,9.94,8.26c0,0-6.74-1.58-10.11-7.03L435.38,231.1z"/>
			</g>
		</g>
	</g>
	<g>
		<g>
			<g>
				<path style="fill:#757575;" d="M455.12,343.67c-38.9,58.38-111,97.59-193.53,97.59c-76.8,0-144.58-33.96-184.96-85.74
					L455.12,343.67z"/>
				<path style="fill:#8342EA;" d="M174.56,344.1c1.47,1.28,2.94,2.55,4.41,3.83c-0.99-3.98-1.98-7.96-2.96-11.94
					c1.85,3.8,3.7,7.6,5.55,11.4c-0.25-4.12-0.49-8.25-0.74-12.37c1.08,4.35,2.17,8.7,3.25,13.06c1.11-4.48,2.21-8.97,3.32-13.45
					c0.06,7.55,0.11,15.1,0.17,22.65c-3.39,0.12-7.77,1.51-9.58-1.72C176.09,352.21,177.06,347.72,174.56,344.1z"/>
				<path style="fill:#8342EA;" d="M355.76,338.79c1.95,1.7,3.91,3.4,5.86,5.09c-1.31-5.3-2.63-10.59-3.94-15.89
					c2.46,5.06,4.93,10.11,7.39,15.17c-0.33-5.49-0.66-10.97-0.99-16.46c1.44,5.79,2.88,11.58,4.32,17.37
					c1.47-5.96,2.94-11.93,4.42-17.89c0.08,10.04,0.15,20.09,0.23,30.13c-4.51,0.16-10.33,2.01-12.74-2.28
					C357.8,349.58,359.08,343.6,355.76,338.79z"/>
				<path style="fill:#8342EA;" d="M437.05,322.45c2.47,2.14,4.93,4.28,7.4,6.43c-1.66-6.68-3.32-13.37-4.98-20.05
					c3.11,6.38,6.22,12.76,9.32,19.14c-0.41-6.92-0.83-13.84-1.24-20.76c1.82,7.3,3.64,14.61,5.45,21.91
					c1.86-7.53,3.72-15.05,5.57-22.58c0.1,12.67,0.19,25.35,0.29,38.02c-5.69,0.2-13.03,2.54-16.08-2.88
					C439.62,336.06,441.24,328.52,437.05,322.45z"/>
			</g>
			<g>
				<path style="fill:#263238;" d="M188.3,429.94l14.35-26.1l24.84-4.25l12.55-10.13c0,0,14-3.91,27.92-3.17
					c13.93,0.74,21.62,3.96,21.62,3.96l5.59,5.25l13.38,2.79c0,0,12.73,11.04,14.29,10.55c1.56-0.49,21.14,1.37,21.14,1.37
					l9.06,14.6C353.05,424.8,282.37,487.69,188.3,429.94z"/>
				<path style="fill:#5C5C5C;" d="M239.48,399.41c5.26-5.05,13.94-6.11,20.26-2.47c0.23-1.52,0.45-3.04,0.67-4.57
					c2.38,0.64,4.76,1.28,7.14,1.92c0.28,1.51,0.55,3.03,0.83,4.54c7.8-0.66,15.79,1.07,22.62,4.9c-0.08,1.89-0.17,3.78-0.25,5.66
					c1.24-2.79,4.5-4.51,7.5-3.96c3,0.55,5.44,3.32,5.61,6.36c2.43-0.8,5.28-0.14,7.11,1.64c2.28-1.4,4.56-2.81,6.84-4.21
					c-5.02-5.72-13.17-7.13-20.29-9.82c-11.03-4.16-21.55-12.19-33.22-10.55c0.72,0.76,1.44,1.51,2.16,2.27
					c-2.17,1.77-6.03,0.47-6.68-2.26c-6.54,0.7-13.08,1.4-19.63,2.1c0.01,0.94,0.06,1.87-0.04,2.8c-0.43-0.29-0.97-0.63-1.35-0.93
					C238.75,394.12,240.65,398.29,239.48,399.41z"/>
				<path style="fill:#5C5C5C;" d="M221.15,419.94c-2.04-3.51-4.07-7.01-6.11-10.52c7.39-0.21,14.01,4.21,20.07,8.45
					c-2.38-4.1-4.75-8.2-7.13-12.29c-0.45-0.77-0.96-1.61-1.81-1.91c-0.63-0.23-1.33-0.11-2,0.01c-4.3,0.79-14.82,0.84-17.65,4.02
					c1.73,2.58,4.75,4.73,7.17,6.7C215.57,415.92,219.98,417.95,221.15,419.94z"/>
				<path style="fill:#5C5C5C;" d="M319.06,418.6c1.32,0.45,2.74,1.03,3.43,2.25c0.69,1.22,0.08,3.18-1.32,3.24
					c5.5-1.87,11-3.75,16.51-5.62c-1.44,2.85-3.89,5.19-6.8,6.49c2.25-0.9,4.5-1.8,6.75-2.7c0.95,1.97,1.91,3.93,2.86,5.9
					c-0.11-3.74,0.77-7.5,2.51-10.82c0.44,3.45,2.29,6.7,5.03,8.85c-0.62-2.91-1.26-5.87-2.72-8.46c-1.46-2.59-3.89-4.8-6.83-5.24
					c-2.64-0.4-5.26,0.65-7.91,1.03c-3.87,0.55-7.81-0.35-11.7-0.07c-3.18,0.23-7.23,1.66-8.39,4.86
					C313.2,418.71,315.84,417.51,319.06,418.6z"/>
			</g>
		</g>
		<g>
			<g>
				<g>
					<path style="fill:#FFFFFF;stroke:#676F74;stroke-linecap:round;stroke-linejoin:round;" d="M73.25,331.35
						c0,0-25.14,1.21-25.14,12.58c0,11.37,0,11.37,0,11.37l21.63,2.25L73.25,331.35z"/>
					<path style="fill:#FFFFFF;stroke:#676F74;stroke-linecap:round;stroke-linejoin:round;" d="M79.18,315.08
						c-2.44,3.39-3.57,7.52-4.65,11.55c-2.76,10.25-5.52,20.5-8.27,30.76c22.19,6.04,45.97,6.13,68.21,0.28
						c3.84-1.01,8.2-2.73,9.3-6.55c1.23-4.26-2.33-8.28-5.59-11.3c-4.34-4.03-8.69-8.06-13.03-12.09
						C115.72,319,90.77,298.97,79.18,315.08z"/>
					<path style="fill:#FFFFFF;stroke:#676F74;stroke-linecap:round;stroke-linejoin:round;" d="M139.94,332.89
						c-1.51,2.1-2.21,4.66-2.89,7.16c-1.71,6.36-3.42,12.72-5.13,19.08c13.76,3.74,28.51,3.8,42.31,0.17
						c2.38-0.63,5.09-1.7,5.77-4.06c0.76-2.65-1.45-5.14-3.47-7.01c-2.7-2.5-5.39-5-8.09-7.5
						C162.61,335.32,147.13,322.9,139.94,332.89z"/>
				</g>
				<g>
					<g>
						<path style="fill:#FFFFFF;stroke:#676F74;stroke-linecap:round;stroke-linejoin:round;" d="M420.04,322.22
							c-7.49,0.38-15.27,2.3-20.75,7.42c-5.48,5.12-7.85,14.05-3.83,20.38c2.31,3.64,6.32,5.92,10.48,7.03
							c4.16,1.11,8.52,1.17,12.83,1.22c7.56,0.09,15.12,0.18,22.68,0.28c3.78,0.05,7.61,0.09,11.26-0.9
							c3.65-0.98,7.15-3.13,8.91-6.48c2.99-5.7-0.5-8.48-4.23-11.81c-3.67-3.27-4.94-5.47-7.9-8.98
							C442.93,322.59,430,321.72,420.04,322.22z"/>
					</g>
				</g>
			</g>
			<path style="fill:#FFFFFF;stroke:#676F74;stroke-linecap:round;stroke-linejoin:round;" d="M372.31,357.18
				c2.72,4.45,8.93,4.79,14.14,4.63c9.09-0.29,18.19-0.58,27.28-0.87c3.94-0.13,8.66-0.72,10.38-4.27
				c1.93-3.97-1.42-8.49-4.97-11.12c-8.34-6.19-18.35-8.73-28.37-6.5C383.61,340.63,365.66,346.3,372.31,357.18z"/>
		</g>
	</g>
	<g>
		<g>
			<g>
				<polygon style="fill:#263238;" points="348.63,436.31 344.62,436.31 342.11,203.47 351.14,203.47 				"/>
				<g>
					<g>
						<g>
							<path style="fill:#FFFFFF;stroke:#263238;stroke-linecap:round;stroke-linejoin:round;" d="M355.95,202.2
								c-0.5-0.93-1.55-0.79-2.75-2.78c-1.2-2-3.57-1.18-4.33-1.41c-0.75-0.24-0.79-0.55-0.6-1.57c0.2-1.02,0.57-4.39-1-4.18
								c-1.57,0.21-2.28,3.78-2.5,4.64c-0.73,1.59-1.57,3.14-2.5,4.64c-0.72,0.27-1.46,0.48-2.22,0.62
								c-0.87,0.12-1.68,1.89-1.72,2.71c-0.04,0.53,1.07,2.07,1.9,3.14c0.44,0.93,0.94,1.83,1.5,2.7c0,0,1.04,1.02,3.62,0.35
								c2.58-0.67,7.97,1.93,8.59,1.34c0.63-0.59,1.75-3.71,2.19-5.42C356.58,205.4,356.51,203.74,355.95,202.2z"/>
							<path style="fill:#FFFFFF;stroke:#263238;stroke-linecap:round;stroke-linejoin:round;" d="M337.89,209.26
								c-0.01-0.9,0.23-1.78,0.71-2.56c0.71-0.76,1.64-3.26,2.51-3.73c0.87-0.47,6.64-1.82,9.9,0.57c3.26,2.38,2.86,5.88,3.13,7.56
								c0.26,1.68-3.91,7.28-4.96,7.48c-1.04,0.21,2.79-7.59-1.38-9.95C346.66,207.99,341.44,208.75,337.89,209.26z"/>
						</g>
						<g id="freepik--character-2--inject-2_2_">
							<path style="fill:#FFFFFF;stroke:#263238;stroke-linecap:round;stroke-linejoin:round;" d="M290.78,124.71
								c0,0,1.64-2.52,2.23,0.75c0.59,3.28-0.82,6.81-2.72,8.07c-1.89,1.26-2.72,0-2.72-1.26
								C287.58,131.01,290.78,124.71,290.78,124.71z"/>
							<path style="fill:#FFFFFF;stroke:#263238;stroke-linecap:round;stroke-linejoin:round;" d="M259,125.97
								c-1.15-0.4-2.44,0.14-2.87,1.21c-0.14,0.34-0.18,0.7-0.11,1.06c0,3.03,4.34,7.32,6.25,6.31
								C264.17,133.53,259,125.97,259,125.97z"/>
							<path style="fill:#263238;stroke:#263238;stroke-linecap:round;stroke-linejoin:round;" d="M274.76,96.44
								c0,0-4.24,6.56-8.69,8.33c-5.71,2.28-10.32,9.09-10.02,14.64c0.3,5.54,8.97,23.72,10.32,24.22
								c1.36,0.51,18.48-0.76,19.02-1.51c0.55-0.76,2.98-8.33,5.16-15.65c2.17-7.32,2.17-11.1,2.17-11.1
								c0.79-2.37,1.16-4.84,1.11-7.31c-0.17-2.98-5.55-7.6-5.55-7.6s-4.67-5.08-6.64-4.01c-1.93,1.19-3.67,2.64-5.16,4.29
								L274.76,96.44z"/>
							<path style="fill:#FFFFFF;stroke:#263238;stroke-linecap:round;stroke-linejoin:round;" d="M239.35,260.19
								c0,0,3.68,5.17,3.88,7.18c0.2,2.01,0.19,5.75,0.38,7c0.19,1.25-0.58,2.16-1.54,2.16c-0.64-0.06-1.21-0.39-1.55-0.9
								c0.11,1.03,0.31,2.05,0.58,3.05c0.38,1.26,2.51,2.34,2.32,3.59c-0.19,1.25-2.32,1.8-5.22,1.8c-3.59-0.02-6.8-2.07-8.12-5.17
								c-1.74-3.76-3.47-14.54-3.47-16.55C226.6,260.34,237.43,258.75,239.35,260.19z"/>
							<path style="fill:none;stroke:#515B60;stroke-linecap:round;stroke-linejoin:round;" d="M235.3,266.83
								c0,0,0.77,1.61-0.78,4.14c-1.05,1.49-1.83,3.13-2.32,4.85c0.43,1.25,1.01,2.46,1.74,3.59c0.78,1.44,3.34,1.26,3.49,2.52
								c0.14,0.68,0,1.38-0.39,1.97"/>
							<path style="fill:none;stroke:#515B60;stroke-linecap:round;stroke-linejoin:round;" d="M237.74,274.51
								c0.17,1.41,0.52,2.8,1.04,4.14c0.78,1.8,4.83,2.88,3.34,4.85"/>
							<path style="fill:none;stroke:#515B60;stroke-linecap:round;stroke-linejoin:round;" d="M235.3,275.27
								c0.19,1.17,0.51,2.31,0.97,3.41c0.58,1.03,4.45,2.15,3.68,5.03"/>
							<path style="fill:none;stroke:#515B60;stroke-linecap:round;stroke-linejoin:round;" d="M240.52,275.63
								c0,0-0.39-2.88-0.58-3.95c-0.14-1.03-0.21-2.07-0.2-3.1"/>
							<path style="fill:#FFFFFF;stroke:#263238;stroke-linecap:round;stroke-linejoin:round;" d="M303.95,149.99
								c-5.08-3.69-11.05-6.2-17.38-7.31c-10.87-2.02-25.27,1.26-30.97,4.79c-3.44,2.24-5.71,5.72-6.25,9.59L303.95,149.99z"/>
							
								<path id="XMLID_1_" style="fill:#8342EA;stroke:#263238;stroke-linecap:round;stroke-linejoin:round;stroke-miterlimit:10;" d="
								M351.6,211.51c0.46,7.28-15.62,15.21-23.23,6.05c-5.62-6.76-14.33-35.34-14.33-35.34s-2.05,44.12-2.05,46.9
								c0,2.78-1.25,6.98-1.25,6.98s-0.44,3.08-2.33,4.34c-1.88,1.27-2.68,4.98-26.07,6.75c-13.95,1.14-28.02,0.03-41.57-3.28
								c-1.07-0.26-1.62-6.06-1.62-6.06l-0.82,16.9c-0.97,1.01-2.18,1.78-3.53,2.27c-2.17,0.76-8.42,0.25-9.77-0.51
								c-1.36-0.76-4.11-21.19-3.81-24.71c0.3-3.54,2.57-52.45,7.4-63.91c3.93-9.31,10.48-13.53,19.72-16.06
								c9.23-2.52,27.94-2.09,29.05-2.34c0,0,18.1,1.01,26.82-0.5c0,0,16.31-0.65,21.32,8.66c3.57,6.63,7.82,19.38,9.97,26.19
								c1.01,3.2,2.24,6.33,3.67,9.39l3.57,7.62C347.15,202.3,351.33,207.2,351.6,211.51z"/>
							<path style="fill:none;stroke:#515B60;stroke-linecap:round;stroke-linejoin:round;" d="M268.44,166.59
								c0,0,3.68,13.45,14.48,18.94"/>
							<path style="fill:none;stroke:#515B60;stroke-linecap:round;stroke-linejoin:round;" d="M284.35,191.49
								c0.82,0.39,1.65,0.78,2.51,1.15"/>
							<path style="fill:none;stroke:#515B60;stroke-linecap:round;stroke-linejoin:round;" d="M268.44,180.53
								c3.59,3.38,7.6,6.36,11.95,8.85"/>
							<path style="fill:#FFFFFF;stroke:#263238;stroke-linecap:round;stroke-linejoin:round;" d="M317.59,234.58
								c-41.56,17.41-78.78,3.28-78.78,3.28s0.55,5.8,1.63,6.06c13.55,3.3,27.62,4.41,41.57,3.28c23.39-1.77,33.14-5.05,35.04-6.31
								c1.89-1.26,1.64-5.05,1.64-5.05s0-0.58,0.11-1.48L317.59,234.58z"/>
							<path style="fill:#FFFFFF;stroke:#263238;stroke-linecap:round;stroke-linejoin:round;" d="M221.69,254
								c0,0,6.25,2.52,11.42,1.03c5.17-1.49,6.51-3.03,7.33-2.77c0.81,0.26,0.82,6.3,0,8.07c-0.82,1.77-2.72,3.03-8.42,3.54
								c-5.7,0.51-8.69-2.07-9.23-3.54C222.28,258.24,221.91,256.13,221.69,254z"/>
						</g>
						<path style="fill:none;stroke:#515B60;stroke-linecap:round;stroke-linejoin:round;" d="M238.25,175.68
							c0.07,13.12,1.48,26.22,4.18,39.1"/>
						<path style="fill:#BFBFBF;stroke:#263238;stroke-linecap:round;stroke-linejoin:round;stroke-miterlimit:10;" d="
							M255.74,110.19c-2.55,5.49-2.57,9.02-0.33,14.59c2.82,7.01,9.38,9.24,13.37,9.62c7.35,0.7,14.5,0.34,20.72-3.41
							c6.22-3.75,8.9-12.07,7.69-18.93c-1.04-5.89-4.78-13.99-10.69-16.14C272.81,90.94,261.36,98.09,255.74,110.19z"/>
						<path style="fill:#999999;stroke:#263238;stroke-linecap:round;stroke-linejoin:round;stroke-miterlimit:10;" d="
							M258.25,104.99c-2.8,4.93-3.28,8.28-1.97,13.92c1.81,7.78,8.06,10.4,12.01,10.83c7.34,0.8,14.5,0.3,20.27-4.23
							c5.45-4.27,6.64-12.85,4.62-19.18c-1.59-4.99-5.38-11.24-10.09-12.77C272.68,90.18,263.76,95.3,258.25,104.99z"/>
						
							<ellipse style="fill:#263238;stroke:#263238;stroke-linecap:round;stroke-linejoin:round;stroke-miterlimit:10;" cx="275.63" cy="103.55" rx="3.17" ry="2.79"/>
						<path style="fill:none;stroke:#263238;stroke-linecap:round;stroke-linejoin:round;stroke-miterlimit:10;" d="M267.48,108.27
							c-3.76,5.91-3.64,13.55-2.81,20.87"/>
						<path style="fill:none;stroke:#263238;stroke-linecap:round;stroke-linejoin:round;stroke-miterlimit:10;" d="M277.18,109.56
							c1.05,6.67,1.36,13.45,0.91,20.18"/>
						<path style="fill:none;stroke:#263238;stroke-linecap:round;stroke-linejoin:round;stroke-miterlimit:10;" d="M286.07,106.95
							c3.13,4.95,4.42,10.88,3.6,16.57"/>
						<path style="fill:none;stroke:#515B60;stroke-linecap:round;stroke-linejoin:round;" d="M342.72,206.05
							c0.59,2.97-0.44,6.18-2.69,8.37"/>
						<path style="fill:none;stroke:#515B60;stroke-linecap:round;stroke-linejoin:round;" d="M327.44,174.59
							c-0.11,0.73-0.25,1.45-0.41,2.17"/>
						<path style="fill:none;stroke:#515B60;stroke-linecap:round;stroke-linejoin:round;" d="M326.14,158.53
							c1.49,4.54,2.01,9.35,1.55,14.08"/>
					</g>
					<g>
						<g>
							<path style="fill:#FFFFFF;stroke:#263238;stroke-linecap:round;stroke-linejoin:round;" d="M243.31,247.06
								c0,0-4.78,19.13-3.97,27.2s-0.61,32.14,2.43,50.59c4.3,26.16,3.07,51.08,3.55,63.75c0.16,4.37-0.24,8.77-1.63,12.95
								c-0.98,2.93-1.27,7.48,2.25,13.25c0.06,1.03,2.27,0.69,2.58,1.68c0,0,4.08,2.52,6.53,2.77c2.45,0.25-0.63,2.75,11.98-4.28
								c2.82-1.57,4.36-10.63,3.2-14.33c-1.79-5.71,1.02-14.61,0.36-42.23c-0.31-12.61-1.13-7.87,2.26-27.27
								c5.31-30.38,4.21-51.39,4.21-51.39s0.8,4.56,0.88,6.99c0.4,12.32,3.37,48.67,3.95,79.54c0.48,25.29,3.22,55.42,3.22,57.44
								c0,2.02-0.5,6.41-0.5,8.18c0,1.77-0.16,4.96,0.65,6.22c0.67,1.21,1.21,2.48,1.63,3.79c0,0,9.79,1.51,12.5,1.51
								s5.77-2.13,5.77-2.13l0.49-1.99c1.17-4.74,3.24-5.76,3.75-10.6c3.18-30.25,5.25-41.74,5.44-130.77
								c0.01-3.51-3.25-48.6-3.25-48.6l-0.55-6.06c0,0-28.52,3.54-42.11,1.77c-13.59-1.77-24.72-2.28-24.72-2.28L243.31,247.06z"/>
							<g>
								<path style="fill:#757575;stroke:#263238;stroke-linecap:round;stroke-linejoin:round;stroke-miterlimit:10;" d="
									M266.82,441.86c0,2.07-4.28,2.94-8.56,3.1c-2.7,0.03-5.35-0.69-7.61-2.06c0,0-3.65,0.28-4.92-1.18
									c-1.27-1.48-0.63-4.86,0.17-6.03c0.8-1.18,3.89-3.89,5.01-5.98c0.7-1.36-2.39-6.42-2.72-15.44c0.52-0.65,1.6-1.14,2.98-1.49
									l0.57,5.89c0,0,10.55-1.74,13.09,0.31c0.34,0.28,0.63,0.31,0.87,0.15c-0.54,2.55-0.89,5.98,0.16,9.49
									C268.52,437.51,266.82,441,266.82,441.86z"/>
								<path style="fill:#263238;" d="M265.7,419.1c-0.24,0.16-0.53,0.13-0.87-0.15c-2.55-2.05-13.09-0.31-13.09-0.31l-0.57-5.89
									c2.99-0.77,7.33-0.88,10.03-0.58c2.29,0.24,4.99,1.63,5.45,2.72C266.78,415.21,266.16,416.81,265.7,419.1z"/>
								<path style="fill:#BFBFBF;stroke:#263238;stroke-linecap:round;stroke-linejoin:round;stroke-miterlimit:10;" d="
									M250.67,442.85c2.26,1.37,4.91,2.09,7.61,2.06c4.28-0.15,8.56-1.03,8.56-3.09c0-0.34,0-0.91,0-1.63
									c-2.21,0.9-4.59,1.4-7.01,1.48c-5.71,0.3-8.24-1.33-9.35-1.47c-0.9-0.12-3.36,0.44-5.45-0.45c0.03,0.69,0.27,1.35,0.7,1.92
									C247.01,443.13,250.67,442.85,250.67,442.85z"/>
								
									<line style="fill:none;stroke:#515B60;stroke-linecap:round;stroke-linejoin:round;" x1="250.65" y1="435.77" x2="251.29" y2="442.85"/>
							</g>
							<g>
								<path style="fill:#757575;stroke:#263238;stroke-linecap:round;stroke-linejoin:round;stroke-miterlimit:10;" d="
									M284.99,467.08c0,2.3,4.74,3.25,9.47,3.43c2.99,0.03,5.92-0.77,8.43-2.28c0,0,4.04,0.31,5.45-1.31
									c1.41-1.63,0.7-5.38-0.19-6.68c-0.89-1.31-4.31-4.31-5.54-6.62c-0.78-1.5,2.65-7.11,3.01-17.1
									c-0.57-0.72-1.77-1.27-3.3-1.65l-0.63,6.52c0,0-11.68-1.93-14.5,0.34c-0.38,0.31-0.7,0.34-0.97,0.16
									c0.6,2.82,0.98,6.62-0.17,10.5C283.11,462.27,284.99,466.14,284.99,467.08z"/>
								<path style="fill:#263238;" d="M286.23,441.89c0.27,0.18,0.59,0.15,0.97-0.16c2.82-2.27,14.5-0.34,14.5-0.34l0.63-6.52
									c-3.31-0.85-8.11-0.97-11.11-0.65c-2.53,0.26-5.53,1.81-6.04,3.02C285.04,437.58,285.72,439.34,286.23,441.89z"/>
								<path style="fill:#BFBFBF;stroke:#263238;stroke-linecap:round;stroke-linejoin:round;stroke-miterlimit:10;" d="
									M308.34,466.86c0.47-0.62,0.74-1.36,0.77-2.12c-2.31,0.98-5.04,0.36-6.03,0.5c-1.23,0.16-4.03,1.95-10.35,1.63
									c-2.67-0.09-5.31-0.64-7.76-1.64c0,0.8,0,1.43,0,1.81c0,2.28,4.74,3.25,9.48,3.42c2.99,0.03,5.92-0.76,8.42-2.28
									C302.87,468.17,306.93,468.49,308.34,466.86z"/>
								
									<line style="fill:none;stroke:#515B60;stroke-linecap:round;stroke-linejoin:round;" x1="302.19" y1="468.17" x2="302.89" y2="460.34"/>
							</g>
						</g>
						<path style="fill:none;stroke:#515B60;stroke-linecap:round;stroke-linejoin:round;stroke-miterlimit:10;" d="M248.48,338.77
							c2.1,8.7,7.1,16.81,14.23,22.79"/>
						<path style="fill:none;stroke:#515B60;stroke-linecap:round;stroke-linejoin:round;stroke-miterlimit:10;" d="M247.38,330.53
							c0.04,1.7,0.2,3.4,0.47,5.08"/>
						<path style="fill:none;stroke:#515B60;stroke-linecap:round;stroke-linejoin:round;stroke-miterlimit:10;" d="M254.03,341.91
							c2.59,3.35,6.85,5.53,11.28,5.78"/>
						<path style="fill:none;stroke:#515B60;stroke-linecap:round;stroke-linejoin:round;stroke-miterlimit:10;" d="M287.41,377.82
							c7.12-1.7,13.48-6.02,17.39-11.81"/>
						<path style="fill:none;stroke:#515B60;stroke-linecap:round;stroke-linejoin:round;stroke-miterlimit:10;" d="M289.61,367.76
							c4.05-0.29,7.96-2.09,10.66-4.91"/>
					</g>
					<polygon style="fill:#263238;" points="249.3,193.51 240.75,152.16 252.63,149.79 256.43,192.56 					"/>
					<polygon style="fill:#263238;" points="304.58,191.61 313.13,150.26 301.25,147.88 297.45,190.66 					"/>
					<g>
						<g>
							<polygon style="fill:#263238;stroke:#263238;stroke-linecap:round;stroke-linejoin:round;stroke-miterlimit:10;" points="
								268.06,185.43 268.06,210.01 267.96,210.01 264.6,215.43 261.25,210.01 261.15,210.01 261.15,192.52 261.13,192.52 
								261.13,185.43 							"/>
							
								<rect x="286.12" y="147.41" style="fill:#263238;stroke:#263238;stroke-linecap:round;stroke-linejoin:round;stroke-miterlimit:10;" width="6.93" height="10.13"/>
							
								<rect x="286.12" y="162.62" style="fill:#263238;stroke:#263238;stroke-linecap:round;stroke-linejoin:round;stroke-miterlimit:10;" width="6.93" height="17.74"/>
							<path style="fill:#FFFFFF;stroke:#263238;stroke-linecap:round;stroke-linejoin:round;stroke-miterlimit:10;" d="
								M308.76,167.56l-4.09,12.03c-1.49,5.7-5.96,10.17-11.6,13.11v17.32h-0.01v-24.58h3.7v-5.08h-3.7v-17.74h3.7v-5.08h-3.7
								v-10.13h-6.93v10.13h-3.7v5.08h3.7v17.74h-3.7v5.08h3.7v9.95c-0.38,0.09-0.75,0.19-1.13,0.28c-0.35,0.08-0.7,0.16-1.06,0.23
								c-0.04,0.01-0.1,0.01-0.16,0.03c-0.16,0.04-0.3,0.07-0.46,0.09c-0.22,0.04-0.45,0.08-0.68,0.12
								c-0.07,0.01-0.16,0.03-0.25,0.04c-0.2,0.03-0.42,0.07-0.62,0.09c-0.23,0.03-0.46,0.07-0.7,0.09c-0.03,0-0.06,0-0.09,0.01
								c-0.23,0.03-0.46,0.04-0.7,0.07c-0.04,0-0.1,0.01-0.16,0.01c-0.23,0.03-0.46,0.04-0.7,0.07h-0.07
								c-0.23,0.01-0.46,0.03-0.71,0.04c-0.23,0.01-0.46,0.03-0.71,0.03c-0.03,0-0.07,0.01-0.1,0.01h-0.73
								c-3,0.01-6.06-0.43-9.02-1.27v14.67h-0.01v-24.58h3.7v-5.08h-3.7v-17.74h3.7v-5.08h-3.7v-10.13h-6.93v10.13h-3.7v5.08h3.7
								v17.74h-3.7v5.08h3.7v7.08c-5.57-3.06-9.96-7.66-11.49-13.35l-4.22-11.61l11.52-20.26h39.98L308.76,167.56z"/>
							<g>
								<g>
									<g>
										<polygon style="fill:#FFFFFF;stroke:#263238;stroke-linecap:round;stroke-linejoin:round;stroke-miterlimit:10;" points="
											299.35,215.43 299.35,215.63 255.71,215.63 277.52,226.69 299.35,215.63 299.35,242.41 254.93,242.41 254.93,215.43 
																					"/>
										<g>
											<path style="fill:#263238;" d="M324,270.5l-21.3-2.55c-16.14-1.93-32.38-1.93-48.52,0.02l-20.93,2.53l-0.58-3
												c-1.4-7.23-1.19-14.88,0.58-21.95l0,0l32.91,3.12c8.18,0.78,16.38,0.78,24.56,0.01l33.28-3.13l0,0
												c1.89,7.93,1.93,16.5,0.11,24.46L324,270.5z"/>
											
												<rect x="274.51" y="244.19" style="fill:#FFFFFF;stroke:#263238;stroke-linecap:round;stroke-linejoin:round;stroke-miterlimit:10;" width="8.73" height="25.77"/>
										</g>
										<path style="fill:#757575;stroke:#263238;stroke-linecap:round;stroke-linejoin:round;stroke-miterlimit:10;" d="
											M308.76,167.56v74.24c0,4.58-3.99,8.3-8.92,8.3h-45.48c-4.93,0-8.93-3.72-8.93-8.3v-74.24l4.22,11.61
											c1.52,5.68,5.92,10.29,11.49,13.35v17.5h0.1l3.36,5.41h-9.67v26.98h44.42v-26.98h-9.75l3.36-5.41h0.1v-17.32
											c5.64-2.94,10.11-7.41,11.6-13.11L308.76,167.56z"/>
										
											<rect x="261.13" y="192.52" style="fill:none;stroke:#515B60;stroke-linecap:round;stroke-linejoin:round;stroke-miterlimit:10;" width="0.01" height="17.5"/>
										<polygon style="fill:none;stroke:#515B60;stroke-linecap:round;stroke-linejoin:round;stroke-miterlimit:10;" points="
											264.6,215.43 261.23,210.01 261.25,210.01 										"/>
										<path style="fill:#757575;stroke:#263238;stroke-linecap:round;stroke-linejoin:round;stroke-miterlimit:10;" d="
											M289.59,215.43h-24.97l3.36-5.41h0.1v-14.67c2.96,0.84,6.02,1.28,9.02,1.27h0.73c0.03,0,0.07-0.01,0.1-0.01
											c0.25,0,0.48-0.01,0.71-0.03c0.25-0.01,0.48-0.03,0.71-0.04h0.07c0.23-0.03,0.46-0.04,0.7-0.07
											c0.06,0,0.12-0.01,0.16-0.01c0.23-0.03,0.46-0.04,0.7-0.07c0.03-0.01,0.06-0.01,0.09-0.01c0.23-0.03,0.46-0.07,0.7-0.09
											c0.2-0.03,0.42-0.07,0.62-0.09c0.09-0.01,0.17-0.03,0.25-0.04c0.23-0.04,0.46-0.08,0.68-0.12
											c0.16-0.03,0.3-0.05,0.46-0.09c0.06-0.01,0.12-0.01,0.16-0.03c0.36-0.07,0.71-0.15,1.06-0.23
											c0.38-0.09,0.75-0.19,1.13-0.28v14.63h0.1L289.59,215.43z"/>
										<polygon style="fill:none;stroke:#515B60;stroke-linecap:round;stroke-linejoin:round;stroke-miterlimit:10;" points="
											286.13,195.37 286.13,210.01 286.12,210.01 286.12,195.39 										"/>
										<polygon style="fill:none;stroke:#515B60;stroke-linecap:round;stroke-linejoin:round;stroke-miterlimit:10;" points="
											289.59,215.43 286.22,210.01 286.24,210.01 										"/>
									</g>
								</g>
								<path style="fill:#FFFFFF;stroke:#263238;stroke-linecap:round;stroke-linejoin:round;stroke-miterlimit:10;" d="
									M299.35,215.63l-12.08,8.27c-5.88,4.03-13.62,4.02-19.5,0l-12.06-8.27H299.35z"/>
								<path style="fill:#FFFFFF;stroke:#263238;stroke-linecap:round;stroke-linejoin:round;stroke-miterlimit:10;" d="
									M321.91,225.06v17.35h-13.15v-26.98h2.8C317.27,215.43,321.91,219.74,321.91,225.06z"/>
								<path style="fill:#FFFFFF;stroke:#263238;stroke-linecap:round;stroke-linejoin:round;stroke-miterlimit:10;" d="
									M245.43,215.43v26.98h-13.15v-17.35c0-5.32,4.64-9.63,10.35-9.63H245.43z"/>
							</g>
							<g>
								
									<rect x="261.13" y="162.62" style="fill:#263238;stroke:#263238;stroke-linecap:round;stroke-linejoin:round;stroke-miterlimit:10;" width="6.93" height="17.74"/>
								<g>
									
										<rect x="261.13" y="192.52" style="fill:none;stroke:#515B60;stroke-linecap:round;stroke-linejoin:round;stroke-miterlimit:10;" width="0.01" height="17.5"/>
									<polygon style="fill:none;stroke:#515B60;stroke-linecap:round;stroke-linejoin:round;stroke-miterlimit:10;" points="
										264.6,215.43 261.23,210.01 261.25,210.01 									"/>
								</g>
								
									<rect x="261.13" y="147.41" style="fill:#263238;stroke:#263238;stroke-linecap:round;stroke-linejoin:round;stroke-miterlimit:10;" width="6.93" height="10.13"/>
								<polygon style="fill:#263238;stroke:#263238;stroke-linecap:round;stroke-linejoin:round;stroke-miterlimit:10;" points="
									293.05,185.43 293.05,210.01 292.95,210.01 289.59,215.43 286.24,210.01 286.13,210.01 286.13,195.37 286.12,195.39 
									286.12,185.43 								"/>
								<polygon style="fill:none;stroke:#515B60;stroke-linecap:round;stroke-linejoin:round;stroke-miterlimit:10;" points="
									286.13,195.37 286.13,210.01 286.12,210.01 286.12,195.39 								"/>
								<polygon style="fill:none;stroke:#515B60;stroke-linecap:round;stroke-linejoin:round;stroke-miterlimit:10;" points="
									289.59,215.43 286.22,210.01 286.24,210.01 								"/>
								
									<rect x="257.43" y="157.54" style="fill:#8342EA;stroke:#263238;stroke-linecap:round;stroke-linejoin:round;stroke-miterlimit:10;" width="14.33" height="5.08"/>
								
									<rect x="282.42" y="157.54" style="fill:#8342EA;stroke:#263238;stroke-linecap:round;stroke-linejoin:round;stroke-miterlimit:10;" width="14.33" height="5.08"/>
								
									<rect x="257.43" y="180.35" style="fill:#8342EA;stroke:#263238;stroke-linecap:round;stroke-linejoin:round;stroke-miterlimit:10;" width="14.33" height="5.08"/>
								
									<rect x="282.42" y="180.35" style="fill:#8342EA;stroke:#263238;stroke-linecap:round;stroke-linejoin:round;stroke-miterlimit:10;" width="14.33" height="5.08"/>
							</g>
						</g>
					</g>
				</g>
			</g>
			<path style="fill:none;stroke:#515B60;stroke-linecap:round;stroke-linejoin:round;stroke-miterlimit:10;" d="M277.08,283.61
				c6.68,5.39,16.76,6.84,24.88,3.58"/>
			<path style="fill:none;stroke:#515B60;stroke-linecap:round;stroke-linejoin:round;stroke-miterlimit:10;" d="M277.8,288.26
				c-3.7,9.5-9.45,18.32-16.8,25.77"/>
		</g>
		<path style="fill:#263238;stroke:#263238;stroke-linecap:round;stroke-linejoin:round;stroke-miterlimit:10;" d="M277.15,281.61
			l-0.96,3.57c-1.37,5.09-2.39,9.08-4.68,13.84l-4.28,8.08l10.1-16.22L277.15,281.61z"/>
		<path style="fill:#263238;stroke:#263238;stroke-linecap:round;stroke-linejoin:round;stroke-miterlimit:10;" d="M277.08,283.61
			l1.97,20.4l1.05-3.82c0.7-4.73,4.01-8.44,7.68-11.5l0,0c-2.92-0.63-5.7-1.8-8.19-3.45C278.92,284.78,278.09,284.25,277.08,283.61z
			"/>
		<path style="fill:none;stroke:#515B60;stroke-linecap:round;stroke-linejoin:round;stroke-miterlimit:10;" d="M239.99,269.52
			c0.43,7.96,4.45,13.17,9.83,15.24"/>
		<path style="fill:none;stroke:#515B60;stroke-linecap:round;stroke-linejoin:round;stroke-miterlimit:10;" d="M312.56,269.28
			c-0.29,7.96-3.01,13.17-6.65,15.24"/>
		<path style="fill:none;stroke:#515B60;stroke-linecap:round;stroke-linejoin:round;" d="M234.92,207.38
			c1.46,2.86,2.63,5.86,3.49,8.95"/>
		<path style="fill:none;stroke:#515B60;stroke-linecap:round;stroke-linejoin:round;" d="M231.77,202.06
			c0.44,0.64,0.87,1.3,1.28,1.97"/>
		<path style="fill:none;stroke:#515B60;stroke-linecap:round;stroke-linejoin:round;" d="M222.29,219.17
			c-0.19,4.63,0.96,9.31,3.27,13.32"/>
		<path style="fill:none;stroke:#515B60;stroke-linecap:round;stroke-linejoin:round;" d="M311.43,173.21
			c1.27,4.28,2.54,8.55,3.81,12.83"/>
	</g>
</g>
<g id="Character_2_1_">
</g>
<g id="Character_1">
</g>
<g id="Text">
</g>
</svg>
